<?xml version="1.0" encoding="UTF-8"?>
<!DOCTYPE svg PUBLIC "-//W3C//DTD SVG 1.1//EN" "http://www.w3.org/Graphics/SVG/1.1/DTD/svg11.dtd">
<svg viewBox="0 0 211 223" version="1.1" xmlns="http://www.w3.org/2000/svg">
  <g id="#ffffffff">
    <path fill="#ffffff" opacity="1.00"
      d=" M 90.22 0.00 L 91.51 0.00 C 92.60 1.02 93.69 2.88 92.24 4.11 C 90.14 5.72 87.43 6.28 85.00 7.24 C 85.00 8.82 85.00 10.40 85.00 11.98 C 87.16 11.29 89.28 9.95 91.63 10.16 C 92.84 11.06 93.64 13.10 92.20 14.18 C 90.07 15.84 87.47 16.74 85.20 18.18 C 88.25 18.49 92.17 16.84 93.99 20.23 C 92.18 23.64 87.25 24.68 83.90 23.17 C 79.15 20.10 80.16 13.75 79.91 8.91 C 79.43 7.48 78.31 5.91 79.12 4.39 C 82.56 2.36 86.45 1.24 90.22 0.00 Z" />
    <path fill="#ffffff" opacity="1.00"
      d=" M 120.91 24.05 C 121.01 19.07 121.95 13.38 125.94 9.96 C 129.70 11.04 130.33 15.23 132.16 18.14 C 136.92 17.00 140.45 11.93 145.65 13.14 C 147.65 14.81 147.18 17.72 146.94 20.00 C 146.14 23.99 145.10 27.95 143.72 31.78 C 143.22 32.03 142.22 32.54 141.71 32.79 C 140.89 32.00 139.53 31.43 139.46 30.13 C 139.99 26.28 141.13 22.56 142.17 18.83 C 139.34 20.59 136.33 22.16 133.08 22.93 C 130.26 23.15 128.14 21.03 126.30 19.23 C 125.56 22.84 127.25 28.26 122.99 30.07 C 120.11 29.37 120.79 26.25 120.91 24.05 Z" />
    <path fill="#ffffff" opacity="1.00"
      d=" M 56.16 22.91 C 53.06 17.85 59.05 9.40 64.85 12.90 C 71.34 16.03 70.68 26.12 64.83 29.53 C 66.52 32.27 69.24 34.50 69.78 37.83 C 69.28 40.00 66.39 41.03 65.01 39.06 C 61.18 34.23 58.95 28.37 56.16 22.91 M 62.76 24.64 C 64.78 22.22 65.04 18.35 61.80 16.84 C 59.61 19.35 61.43 22.26 62.76 24.64 Z" />
    <path fill="#ffffff" opacity="1.00"
      d=" M 159.81 26.74 C 161.57 25.20 162.37 22.94 163.84 21.16 C 167.74 22.73 171.80 24.27 175.19 26.80 C 177.13 28.29 175.10 31.27 172.97 30.85 C 170.63 30.07 168.51 28.79 166.31 27.69 C 165.14 28.74 163.98 29.80 162.84 30.88 C 165.04 32.09 167.44 33.06 169.14 34.98 C 168.23 36.01 167.67 37.65 166.13 37.85 C 163.52 37.21 161.12 35.93 158.50 35.35 C 159.67 37.92 163.89 38.70 163.02 42.04 C 162.52 42.52 161.53 43.49 161.03 43.97 C 158.18 42.37 154.13 40.81 153.84 37.04 C 153.33 32.64 157.04 29.56 159.81 26.74 Z" />
    <path fill="#ffffff" opacity="1.00"
      d=" M 35.06 28.97 C 34.70 27.32 36.94 26.91 37.82 25.94 C 41.57 27.79 44.74 30.54 47.76 33.37 C 50.14 35.64 53.12 37.31 55.05 40.04 C 54.47 41.32 53.54 42.30 52.29 42.99 C 50.59 42.00 48.93 40.95 47.30 39.86 C 45.53 41.34 43.80 42.87 42.21 44.55 C 42.75 46.64 43.58 48.69 43.70 50.87 C 43.56 52.99 40.21 53.83 39.32 51.84 C 35.65 44.78 35.85 36.69 35.06 28.97 M 41.06 34.96 C 41.07 35.60 41.08 36.90 41.08 37.54 C 41.52 37.34 42.39 36.93 42.83 36.73 C 42.90 35.21 42.31 34.62 41.06 34.96 Z" />
    <path fill="#ffffff" opacity="1.00"
      d=" M 184.93 48.94 C 183.55 46.87 181.01 44.23 183.74 42.01 C 186.44 41.44 187.63 44.14 189.24 45.72 C 191.84 48.76 194.95 51.44 196.96 54.94 C 197.64 56.82 196.23 57.92 194.85 58.85 C 192.18 57.44 190.54 54.86 188.63 52.65 C 184.68 56.00 180.31 58.84 176.54 62.40 C 175.05 64.48 171.49 62.61 172.15 60.23 C 172.19 58.90 173.49 58.12 174.33 57.27 C 177.79 54.40 181.70 52.10 184.93 48.94 Z" />
    <path fill="#ffffff" opacity="1.00"
      d=" M 90.94 49.09 C 95.20 49.68 97.70 44.94 101.79 44.73 C 105.38 44.79 107.97 47.69 111.39 48.37 C 115.97 49.38 120.26 51.57 124.96 52.05 C 129.12 52.47 132.78 54.69 136.52 56.37 C 140.14 57.98 141.78 61.77 144.27 64.58 C 146.79 67.46 151.41 67.23 153.72 70.37 C 155.59 73.02 156.84 76.04 158.20 78.97 C 159.77 78.66 161.38 77.82 163.00 78.34 C 166.22 79.40 170.02 78.67 172.64 81.24 C 175.22 83.72 179.14 85.36 179.88 89.21 C 181.24 95.02 182.41 102.20 177.92 106.98 C 175.25 112.44 169.16 116.57 162.93 116.08 C 161.71 122.19 160.24 128.44 156.35 133.47 C 153.57 136.94 155.91 141.94 153.35 145.51 C 151.72 147.18 149.32 147.63 147.19 148.34 C 146.50 151.69 146.30 155.36 144.24 158.22 C 138.70 165.36 135.54 174.50 128.38 180.30 C 120.28 184.47 112.11 189.10 102.91 190.26 C 99.64 190.64 96.80 188.65 93.87 187.56 C 89.88 185.76 85.10 188.17 81.28 185.79 C 76.57 182.99 72.12 179.51 68.99 174.95 C 66.39 171.27 63.05 168.02 61.27 163.82 C 60.00 159.42 60.39 154.71 58.86 150.35 C 54.53 147.46 50.76 143.88 48.07 139.40 C 46.17 139.94 44.27 140.91 42.25 140.69 C 39.44 139.85 36.68 138.66 33.68 138.84 C 29.02 136.44 26.33 132.01 23.14 128.09 C 23.05 122.10 22.80 115.85 25.20 110.24 C 26.11 109.79 27.02 109.34 27.92 108.89 C 28.39 107.99 28.86 107.10 29.33 106.21 C 33.11 105.62 35.93 102.61 39.81 102.29 C 42.10 94.09 42.85 85.01 47.77 77.85 C 52.69 74.40 56.14 69.49 60.20 65.14 C 62.37 62.32 63.19 58.44 66.42 56.48 C 71.40 52.15 77.56 49.49 83.98 48.14 C 86.35 48.02 88.59 48.99 90.94 49.09 M 63.99 70.83 C 61.20 73.09 56.66 73.40 55.09 76.98 C 54.59 80.72 54.57 84.55 53.17 88.12 C 51.35 92.90 52.01 98.12 53.39 102.91 C 54.74 106.63 59.02 107.88 61.15 111.02 C 64.35 115.68 69.05 119.01 73.68 122.10 C 72.80 124.17 73.10 126.47 72.54 128.60 C 71.23 131.55 69.40 134.30 68.70 137.50 C 67.44 141.25 68.29 145.31 67.14 149.07 C 66.71 151.29 65.35 153.60 66.37 155.86 C 68.37 161.11 71.32 165.97 74.48 170.59 C 75.89 172.90 78.57 173.63 81.05 174.15 C 84.64 174.84 87.58 177.19 90.98 178.40 C 94.49 179.79 98.34 179.45 102.03 179.60 C 105.35 179.75 108.50 181.63 111.86 180.80 C 115.70 180.01 119.90 179.62 122.99 176.93 C 126.98 173.58 130.76 169.86 133.65 165.48 C 135.56 162.73 135.86 159.29 136.63 156.12 C 137.45 152.51 138.82 148.94 138.77 145.19 C 137.99 142.34 135.61 140.32 134.55 137.60 C 133.81 135.07 134.32 132.32 133.32 129.85 C 132.23 126.97 130.84 124.21 129.22 121.59 C 137.24 117.84 144.65 112.15 149.33 104.50 C 151.84 100.21 148.93 95.06 150.80 90.64 C 151.56 88.24 153.30 85.63 151.94 83.13 C 150.67 80.84 148.73 79.03 147.06 77.04 C 145.02 74.41 141.44 73.98 138.95 71.95 C 137.07 70.16 136.08 67.55 133.94 66.02 C 128.46 63.63 122.13 63.35 116.52 65.51 C 112.97 66.20 111.72 70.04 109.03 71.98 C 106.53 73.78 104.00 75.56 101.78 77.71 C 98.98 72.51 94.85 68.11 89.76 65.12 C 80.95 61.55 70.99 65.03 63.99 70.83 M 161.89 87.39 C 162.56 93.87 162.37 100.40 163.98 106.78 C 169.67 105.67 173.85 99.07 171.29 93.62 C 169.88 89.74 165.87 87.53 161.89 87.39 M 31.90 121.01 C 31.35 127.52 38.70 132.83 44.74 130.51 C 44.80 126.37 42.29 122.83 41.28 118.93 C 40.69 116.48 40.02 114.04 39.15 111.68 C 35.35 113.27 31.81 116.61 31.90 121.01 Z" />
    <path fill="#ffffff" opacity="1.00"
      d=" M 8.64 67.57 C 12.73 68.01 16.77 69.05 20.48 70.84 C 16.12 72.71 16.69 78.13 15.17 81.89 C 16.07 85.24 17.73 88.45 18.00 91.95 C 17.59 95.05 14.05 95.57 11.60 94.61 C 7.72 93.24 3.06 93.19 0.00 90.14 L 0.00 86.92 C 2.39 84.32 5.21 82.16 7.83 79.79 C 8.62 76.74 9.48 73.70 10.35 70.66 C 9.77 69.64 9.20 68.61 8.64 67.57 M 12.62 70.78 C 11.02 74.91 11.04 79.82 7.80 83.18 C 9.61 83.43 11.42 83.61 13.23 83.86 C 12.75 79.42 15.09 75.34 15.82 71.05 C 15.02 70.98 13.42 70.85 12.62 70.78 Z" />
    <path fill="#ffffff" opacity="1.00"
      d=" M 184.45 77.92 C 184.59 76.43 185.01 74.58 186.94 75.03 C 195.37 74.58 203.35 78.08 211.00 81.12 L 211.00 83.69 C 205.67 88.29 198.80 90.40 192.69 93.71 C 190.84 94.74 189.96 92.23 189.10 91.12 C 190.71 89.58 192.48 88.23 194.29 86.94 C 193.49 84.77 193.27 82.21 191.61 80.48 C 189.25 79.66 185.89 80.45 184.45 77.92 M 198.36 81.74 C 198.58 82.81 198.81 83.88 199.04 84.95 C 200.15 84.47 201.27 83.99 202.39 83.52 C 201.05 82.91 199.71 82.32 198.36 81.74 Z" />
    <path fill="#ffffff" opacity="1.00"
      d=" M 121.50 81.56 C 128.65 78.20 138.08 83.14 139.17 91.00 C 140.94 98.41 134.55 106.47 126.88 106.14 C 119.39 106.79 112.69 99.42 113.88 92.03 C 114.12 87.46 117.35 83.34 121.50 81.56 Z" />
    <path fill="#ffffff" opacity="1.00"
      d=" M 65.97 93.27 C 74.69 93.10 83.42 93.11 92.13 93.28 C 91.73 96.56 90.74 99.94 88.31 102.32 C 83.59 107.51 74.40 107.50 69.72 102.25 C 67.32 99.88 66.36 96.53 65.97 93.27 Z" />
    <path fill="#ffffff" opacity="1.00"
      d=" M 91.86 117.07 C 90.91 113.60 95.39 110.51 98.23 112.73 C 100.32 113.78 99.96 116.23 100.16 118.17 C 98.94 119.32 97.52 120.20 96.02 120.93 C 94.34 120.11 91.87 119.37 91.86 117.07 Z" />
    <path fill="#ffffff" opacity="1.00"
      d=" M 103.79 117.12 C 103.08 114.58 105.43 111.80 108.04 112.04 C 109.90 111.86 110.93 113.66 112.18 114.70 C 112.57 117.69 110.86 120.12 108.00 120.91 C 106.26 120.16 103.93 119.36 103.79 117.12 Z" />
    <path fill="#ffffff" opacity="1.00"
      d=" M 100.49 131.69 C 102.51 130.17 104.90 132.17 105.86 133.99 C 110.59 142.05 115.48 150.03 120.04 158.19 C 121.92 160.33 119.61 163.27 117.09 162.91 C 106.75 162.92 96.41 163.02 86.08 162.86 C 83.86 162.91 82.21 160.34 83.70 158.49 C 88.07 150.69 92.91 143.16 97.43 135.44 C 98.33 134.12 99.01 132.47 100.49 131.69 Z" />
    <path fill="#ffffff" opacity="1.00"
      d=" M 189.19 138.23 C 189.83 137.61 192.05 135.96 191.85 138.05 C 191.88 138.47 191.95 139.31 191.98 139.73 C 193.76 141.01 195.57 142.25 197.33 143.58 C 198.29 143.25 199.25 142.95 200.23 142.67 C 200.25 148.19 195.04 152.00 189.88 152.21 C 190.77 156.86 189.89 162.24 185.62 165.00 C 185.28 164.73 184.59 164.19 184.24 163.92 L 184.60 162.28 C 181.77 160.90 179.35 156.85 175.91 158.99 C 175.80 153.62 181.33 150.05 186.22 149.79 C 185.60 145.75 185.57 140.93 189.19 138.23 M 188.21 144.15 C 190.25 145.60 192.23 147.13 194.39 148.41 C 195.28 147.79 196.10 147.06 196.94 146.36 C 194.54 144.49 192.03 142.77 189.52 141.07 C 189.19 141.84 188.54 143.38 188.21 144.15 M 188.26 147.38 C 187.80 148.61 189.20 150.81 190.61 150.01 C 191.32 148.74 189.46 147.11 188.26 147.38 M 185.81 152.19 L 185.64 152.95 C 186.02 153.07 186.79 153.32 187.17 153.44 L 187.34 152.67 C 186.96 152.55 186.19 152.31 185.81 152.19 M 179.30 155.52 C 181.72 157.33 184.19 159.05 186.70 160.74 C 186.98 159.94 187.54 158.33 187.83 157.52 C 185.86 156.16 183.91 154.77 181.94 153.42 C 181.05 154.11 180.18 154.81 179.30 155.52 Z" />
    <path fill="#ffffff" opacity="1.00"
      d=" M 27.68 156.64 C 28.89 155.27 30.03 153.81 31.73 153.00 C 35.94 155.79 39.69 159.25 43.18 162.87 C 45.45 164.95 42.92 168.75 40.09 167.84 C 37.18 166.35 35.04 163.74 32.63 161.59 C 30.77 162.42 28.97 163.36 27.24 164.43 C 28.97 166.12 30.91 167.59 32.50 169.41 C 34.08 171.70 30.82 174.81 28.53 173.58 C 25.71 172.09 23.44 169.78 20.67 168.22 C 20.62 170.74 22.73 172.28 23.87 174.29 C 25.04 176.22 23.49 179.38 21.07 179.03 C 19.62 179.26 18.83 177.76 17.87 176.98 C 15.51 174.50 13.02 171.07 14.45 167.47 C 16.69 161.77 23.03 159.83 27.68 156.64 Z" />
    <path fill="#ffffff" opacity="1.00"
      d=" M 151.43 185.90 C 149.18 179.06 157.90 173.06 163.85 176.16 C 167.72 177.76 169.22 182.18 168.80 186.08 C 172.64 185.11 176.26 182.82 180.31 183.02 C 182.88 183.24 184.00 187.38 181.53 188.51 C 177.55 190.44 173.28 191.66 169.16 193.25 C 170.73 194.59 172.14 196.12 173.19 197.92 C 172.50 199.00 171.73 200.01 170.87 200.95 C 167.91 201.45 165.52 199.26 163.20 197.79 C 158.72 194.50 154.02 190.94 151.43 185.90 M 157.59 183.19 C 158.89 184.56 160.31 185.80 161.92 186.81 C 161.95 185.29 162.06 183.75 161.81 182.24 C 160.29 181.51 158.87 182.51 157.59 183.19 Z" />
    <path fill="#ffffff" opacity="1.00"
      d=" M 43.72 183.64 C 45.02 181.53 47.30 179.86 49.88 179.97 C 56.15 179.53 61.24 187.43 57.98 192.93 C 56.71 195.87 53.57 196.90 50.77 197.76 C 52.64 200.95 55.33 203.66 56.75 207.11 C 58.29 210.05 53.56 213.13 51.66 210.35 C 48.87 207.16 46.60 203.55 43.93 200.26 C 43.00 201.85 42.44 203.80 40.84 204.88 C 38.54 205.70 35.89 203.65 36.48 201.20 C 37.77 194.99 40.16 188.92 43.72 183.64 M 47.81 191.11 C 49.34 190.90 52.18 191.41 52.30 189.15 C 51.95 188.43 51.25 186.98 50.89 186.26 C 49.48 187.61 48.63 189.37 47.81 191.11 Z" />
    <path fill="#ffffff" opacity="1.00"
      d=" M 78.46 198.37 C 81.97 191.92 92.44 194.31 94.06 201.00 C 95.53 204.99 93.05 208.98 89.83 211.21 C 93.00 213.63 97.20 214.84 99.65 218.11 C 101.04 220.23 99.04 222.10 97.24 222.99 C 92.88 221.13 88.88 218.56 84.72 216.32 C 84.79 218.94 84.51 222.95 80.93 222.87 C 77.92 222.15 77.90 218.60 77.40 216.16 C 76.89 210.26 76.39 204.04 78.46 198.37 M 84.74 201.03 C 84.70 202.38 84.60 205.07 84.56 206.41 C 85.77 205.66 86.94 204.83 88.05 203.93 C 88.22 202.14 86.02 201.56 84.74 201.03 Z" />
    <path fill="#ffffff" opacity="1.00"
      d=" M 123.88 196.85 C 128.37 194.31 133.76 195.93 138.18 197.83 C 143.72 199.83 146.67 207.24 143.44 212.32 C 140.69 216.67 137.45 221.48 132.24 223.00 L 129.77 223.00 C 125.52 222.49 120.99 220.00 119.43 215.81 C 117.97 209.30 118.80 201.62 123.88 196.85 M 128.25 202.14 C 124.27 205.22 122.77 213.57 128.13 216.10 C 130.55 217.53 133.16 215.48 134.72 213.70 C 136.60 211.40 139.42 208.63 137.89 205.40 C 135.35 203.09 131.73 201.45 128.25 202.14 Z" />
  </g>
</svg>