<svg viewBox="0 0 1400 303" fill="none" xmlns="http://www.w3.org/2000/svg">
  <path
    d="M1009.44 179.44C1042.64 164.903 1061.58 137.447 1061.58 96.2763C1061.58 56.4853 1040.12 28.101 1006.92 16.8534C990.103 11.0439 964.006 8.55029 936.301 8.55029H842.269C841.558 8.55029 840.876 8.82978 840.373 9.32726C839.87 9.82474 839.587 10.4995 839.587 11.203V91.3157C839.587 91.3157 839.587 138.694 887.488 138.694C887.488 138.694 839.587 138.694 839.587 186.072V292.393C839.587 293.097 839.87 293.772 840.373 294.269C840.876 294.766 841.558 295.046 842.269 295.046H902.508C903.219 295.046 903.901 294.766 904.404 294.269C904.907 293.772 905.19 293.097 905.19 292.393V191.934H946.734L1006.09 293.72C1006.32 294.121 1006.66 294.454 1007.06 294.687C1007.47 294.919 1007.93 295.043 1008.39 295.046H1074.48C1074.95 295.043 1075.41 294.919 1075.81 294.685C1076.22 294.451 1076.56 294.116 1076.79 293.713C1077.02 293.31 1077.15 292.854 1077.14 292.389C1077.14 291.925 1077.02 291.469 1076.79 291.067L1009.44 179.44ZM976.639 133.229C967.413 137.394 953.117 138.534 933.726 138.534H905.19V64.2578H932.52C948.075 64.2578 963.202 65.929 973.286 69.2715C987.581 74.2586 995.145 84.6573 995.145 100.441C995.145 117.074 989.647 127.048 976.639 133.229Z"
    fill="white" />
  <path
    d="M556.063 11.203V63.7272C556.063 64.4308 556.346 65.1055 556.849 65.603C557.352 66.1005 558.034 66.38 558.746 66.38H687.214C639.313 66.38 639.314 113.758 639.314 113.758V292.393C639.314 293.097 639.596 293.772 640.099 294.269C640.602 294.766 641.284 295.046 641.996 295.046H701.832C702.543 295.046 703.225 294.766 703.728 294.269C704.231 293.772 704.514 293.097 704.514 292.393V66.3535H787.656C788.368 66.3535 789.05 66.074 789.553 65.5765C790.056 65.079 790.338 64.4043 790.338 63.7007V11.203C790.338 10.4995 790.056 9.82474 789.553 9.32726C789.05 8.82978 788.368 8.55029 787.656 8.55029H558.746C558.034 8.55029 557.352 8.82978 556.849 9.32726C556.346 9.82474 556.063 10.4995 556.063 11.203Z"
    fill="white" />
  <path
    d="M446.836 124.466L408.296 112.741C379.893 104.359 374.395 96.3739 374.395 84.2244C374.395 69.1303 382.87 56.9808 417.307 56.9808C446.568 56.9808 486.396 68.308 508.845 88.8137H510.534V24.697C510.538 24.3094 510.456 23.9256 510.294 23.5727C510.132 23.2198 509.894 22.9063 509.596 22.6544C493.262 9.39069 452.764 0 424.093 0C346.556 0 307.586 38.5443 307.586 88.4157C307.586 130.329 329.605 159.244 380 173.489L416.449 183.967C445.683 191.926 458.825 199.061 458.825 214.978C458.825 236.783 441.875 242.646 413.043 242.646C385.364 242.646 346.126 233.547 316.624 211.768C316.157 211.438 315.596 211.264 315.022 211.273C314.448 211.281 313.892 211.472 313.436 211.816C312.98 212.161 312.647 212.641 312.487 213.186C312.327 213.731 312.348 214.313 312.547 214.845L341.594 288.697C341.737 289.064 341.96 289.394 342.247 289.665C342.535 289.935 342.88 290.14 343.257 290.263C364.684 297.259 387.099 300.84 409.664 300.873C494.415 300.873 525.768 256.44 525.768 209.938C525.661 168.475 507.021 142.903 446.836 124.466Z"
    fill="white" />
  <path
    d="M286.154 291.469L175.574 10.2787C175.375 9.78508 175.031 9.36188 174.586 9.06391C174.142 8.76594 173.617 8.60691 173.08 8.60742H113.244C112.707 8.60691 112.182 8.76594 111.737 9.06391C111.292 9.36188 110.948 9.78508 110.749 10.2787L0.16966 291.469C0.0186004 291.869 -0.0326675 292.299 0.0202036 292.722C0.0730746 293.146 0.228528 293.551 0.47336 293.902C0.718191 294.254 1.04517 294.542 1.42653 294.742C1.80789 294.941 2.23238 295.047 2.66394 295.05H65.906C66.4417 295.043 66.963 294.878 67.4028 294.575C67.8426 294.273 68.1807 293.847 68.3735 293.352L92.1094 231.835V231.676L141.673 91.2933L173.616 176.552C112.841 176.552 93.3431 228.281 92.1094 231.676V231.835H192.176L215.912 293.352C216.104 293.847 216.442 294.273 216.882 294.575C217.322 294.878 217.843 295.043 218.379 295.05H283.713C284.14 295.039 284.558 294.927 284.933 294.724C285.307 294.52 285.627 294.231 285.866 293.881C286.104 293.531 286.255 293.129 286.305 292.71C286.355 292.29 286.303 291.865 286.154 291.469Z"
    fill="white" />
  <path
    d="M1247.12 0.587891C1216.89 0.587891 1187.33 9.45597 1162.19 26.0707C1137.05 42.6854 1117.46 66.3006 1105.89 93.9299C1094.32 121.559 1091.29 151.962 1097.19 181.293C1103.09 210.624 1117.65 237.566 1139.03 258.713C1160.41 279.859 1187.65 294.26 1217.3 300.095C1246.96 305.929 1277.69 302.935 1305.63 291.49C1333.56 280.046 1357.44 260.665 1374.24 235.8C1391.03 210.934 1400 181.7 1400 151.794C1400 111.692 1383.89 73.2318 1355.22 44.8751C1326.55 16.5185 1287.67 0.587891 1247.12 0.587891ZM1247.12 277.772C1247.12 244.361 1233.71 212.318 1209.82 188.692C1185.93 165.067 1153.54 151.794 1119.76 151.794C1153.54 151.794 1185.93 138.521 1209.82 114.896C1233.71 91.2701 1247.12 59.227 1247.12 25.8154C1247.12 59.227 1260.54 91.2701 1284.43 114.896C1308.32 138.521 1340.71 151.794 1374.49 151.794C1340.71 151.794 1308.32 165.067 1284.43 188.692C1260.54 212.318 1247.12 244.361 1247.12 277.772Z"
    fill="white" />
</svg>