<svg fill="none" viewBox="0 0 380 60" xmlns="http://www.w3.org/2000/svg">
  <path
    d="m0 16c0-8.83656 7.16344-16 16-16h215c8.837 0 16 7.16344 16 16v28c0 8.8366-7.163 16-16 16h-215c-8.83656 0-16-7.1634-16-16z"
    fill="#fff" />
  <g fill="#000">
    <path
      d="m170.74 30c0 2.295-.382 4.424-1.147 6.387-.765 1.9486-1.841 3.6374-3.226 5.0663-1.386 1.429-3.053 2.5476-5.002 3.3559-1.948.7939-4.106 1.1908-6.473 1.1908s-4.533-.3969-6.496-1.1908c-1.948-.8083-3.622-1.9269-5.023-3.3559-1.385-1.4289-2.461-3.1177-3.226-5.0663-.765-1.963-1.147-4.092-1.147-6.387s.382-4.4168 1.147-6.3654c.765-1.963 1.841-3.659 3.226-5.0879 1.401-1.429 3.075-2.5404 5.023-3.3343 1.963-.8082 4.129-1.2124 6.496-1.2124s4.525.4042 6.473 1.2124c1.949.8083 3.616 1.927 5.002 3.3559 1.385 1.4146 2.461 3.1033 3.226 5.0663.765 1.9486 1.147 4.0704 1.147 6.3654zm-5.975 0c0-1.7176-.231-3.2549-.693-4.6116-.448-1.3713-1.097-2.5332-1.949-3.4858-.851-.9527-1.891-1.6816-3.118-2.1868-1.212-.5052-2.583-.7577-4.113-.7577s-2.909.2525-4.136.7577c-1.226.5052-2.273 1.2341-3.139 2.1868-.852.9526-1.508 2.1145-1.97 3.4858-.462 1.3567-.693 2.894-.693 4.6116s.231 3.2621.693 4.6333c.462 1.3568 1.118 2.5115 1.97 3.4641.866.9382 1.913 1.6599 3.139 2.1651 1.227.5052 2.606.7578 4.136.7578s2.901-.2526 4.113-.7578c1.227-.5052 2.267-1.2269 3.118-2.1651.852-.9526 1.501-2.1073 1.949-3.4641.462-1.3712.693-2.9157.693-4.6333z" />
    <path
      d="m190.972 32.612c.249.4693.477.9607.682 1.474.22.4987.433 1.0047.638 1.518.205-.528.418-1.0487.638-1.562s.455-1.0047.704-1.474l9.416-17.622c.117-.22.235-.396.352-.528.132-.132.271-.2273.418-.286.161-.0587.337-.0953.528-.11s.418-.022.682-.022h4.466v31.812h-5.214v-20.548c0-.3813.007-.7993.022-1.254.029-.4547.066-.9167.11-1.386l-9.614 18.04c-.22.4107-.506.7333-.858.968-.352.22-.763.33-1.232.33h-.814c-.469 0-.88-.11-1.232-.33-.352-.2347-.638-.5573-.858-.968l-9.746-18.106c.059.484.095.9607.11 1.43.029.4547.044.88.044 1.276v20.548h-5.214v-31.812h4.466c.264 0 .491.0073.682.022s.359.0513.506.11c.161.0587.308.154.44.286s.257.308.374.528z" />
    <path
      d="m39 14h4.972c.5133 0 .9387.1247 1.276.374.352.2347.5867.5573.704.968l5.412 19.03c.132.4693.2493.9827.352 1.54.1173.5427.2273 1.122.33 1.738.1173-.616.242-1.1953.374-1.738.1467-.5573.3007-1.0707.462-1.54l6.248-19.03c.1173-.3373.3447-.6453.682-.924.352-.2787.7773-.418 1.276-.418h1.738c.5133 0 .9387.1247 1.276.374.3373.2347.572.5573.704.968l6.204 19.03c.3227.9387.6013 1.98.836 3.124.1027-.572.2053-1.122.308-1.65.1173-.528.2347-1.0193.352-1.474l5.412-19.03c.1027-.3667.33-.682.682-.946s.7773-.396 1.276-.396h4.642l-9.878 31.812h-5.346l-6.952-21.736c-.088-.2787-.1833-.5793-.286-.902-.088-.3227-.176-.6673-.264-1.034-.088.3667-.1833.7113-.286 1.034-.088.3227-.176.6233-.264.902l-7.018 21.736h-5.346z" />
    <path
      d="m108.449 14h-19.8534c-.158 0-.3095.0628-.4212.1745-.1117.1116-.1744.2631-.1744.4211.0012 1.152.4596 2.2565 1.2747 3.0707.815.8142 1.9199 1.2715 3.072 1.2715h16.1063c.118 0 .231-.0468.315-.1302.083-.0833.13-.1964.13-.3142v-4.0489c0-.0588-.012-.1169-.034-.1711-.023-.0543-.056-.1035-.098-.1448s-.091-.074-.146-.096c-.054-.0221-.112-.0332-.171-.0326zm0 27.0622h-14.8357c-.1178 0-.2309-.0468-.3142-.1302-.0834-.0833-.1302-.1963-.1302-.3142v-8.0267c0-.1179.0468-.2309.1302-.3142.0833-.0834.1964-.1302.3142-.1302h13.6937c.118 0 .231-.0468.314-.1302.083-.0833.13-.1964.13-.3143v-4.0444c0-.1179-.047-.2309-.13-.3143-.083-.0833-.196-.1302-.314-.1302h-18.6403c-.1768 0-.3464.0703-.4714.1953-.1251.125-.1953.2946-.1953.4714v17.4533c0 .1768.0702.3464.1953.4714.125.1251.2946.1953.4714.1953h19.7823c.118 0 .231-.0468.314-.1302.083-.0833.13-.1964.13-.3142v-4.0489c0-.1179-.047-.231-.13-.3143-.083-.0834-.196-.1302-.314-.1302z" />
    <path
      d="m234.449 14h-19.853c-.158 0-.31.0628-.422.1745-.111.1116-.174.2631-.174.4211.001 1.152.46 2.2565 1.275 3.0707s1.92 1.2715 3.072 1.2715h16.106c.118 0 .231-.0468.315-.1302.083-.0833.13-.1964.13-.3142v-4.0489c0-.0588-.012-.1169-.034-.1711-.023-.0543-.056-.1035-.098-.1448s-.091-.074-.146-.096c-.054-.0221-.112-.0332-.171-.0326zm0 27.0622h-14.836c-.118 0-.231-.0468-.314-.1302-.083-.0833-.13-.1963-.13-.3142v-8.0267c0-.1179.047-.2309.13-.3142.083-.0834.196-.1302.314-.1302h13.694c.118 0 .231-.0468.314-.1302.083-.0833.13-.1964.13-.3143v-4.0444c0-.1179-.047-.2309-.13-.3143-.083-.0833-.196-.1302-.314-.1302h-18.64c-.177 0-.347.0703-.472.1953s-.195.2946-.195.4714v17.4533c0 .1768.07.3464.195.4714.125.1251.295.1953.472.1953h19.782c.118 0 .231-.0468.314-.1302.083-.0833.13-.1964.13-.3142v-4.0489c0-.1179-.047-.231-.13-.3143-.083-.0834-.196-.1302-.314-.1302z" />
    <path
      d="m16.9737 46h-4.5308c-.072-.0002-.1429-.0179-.2066-.0516-.0636-.0337-.1181-.0824-.1588-.1419-.0406-.0594-.0662-.1279-.0745-.1994s.0009-.144.0268-.2112l11.9933-30.9517c.0456-.1289.1297-.2407.2409-.3201.1113-.0795.2443-.1228.381-.1241h5.6635c.1367.0013.2697.0446.381.1241.1112.0794.1953.1912.2409.3201l11.9933 30.9517c.0261.0675.0352.1404.0267.2123s-.0345.1406-.0757.2002c-.0411.0595-.0962.1081-.1605.1415-.0642.0334-.1356.0506-.208.0501h-4.5442c-.09-.0006-.1777-.0286-.2514-.0801-.0738-.0516-.1302-.1243-.1617-.2086l-9.6657-25.4748c-.032-.0842-.0888-.1568-.163-.208s-.1622-.0786-.2523-.0786c-.0902 0-.1782.0274-.2524.0786-.0741.0512-.131.1238-.163.208l-9.6657 25.4792c-.0322.0835-.0889.1553-.1626.206s-.161.078-.2505.0783z" />
    <path
      d="m120.299 31.9506c-4.603-.8705-7.299-3.9818-7.299-8.7496 0-5.469 3.567-9.201 9.866-9.201h11.357c.161 0 .314.0637.428.1771.113.1133.177.2671.177.4274 0 1.0272-.408 2.0124-1.135 2.7387-.726.7263-1.711 1.1344-2.738 1.1344h-7.609c-3.817 0-5.643 1.9466-5.643 4.7677 0 2.8212 1.782 4.8081 5.643 4.8081l5.077-.004c4.603.8705 7.299 3.9818 7.299 8.7496 0 5.469-3.567 9.201-9.866 9.201h-11.357c-.161 0-.314-.0637-.428-.1771-.113-.1133-.177-.2671-.177-.4274 0-1.0272.408-2.0124 1.135-2.7387.726-.7263 1.711-1.1344 2.738-1.1344h7.609c3.817 0 5.643-1.9466 5.643-4.7677 0-2.8212-1.782-4.8081-5.643-4.8081z" />
  </g>
  <path
    d="m305.531 14h-19.842c-.158 0-.309.0627-.421.1744-.112.1116-.174.263-.174.4208.001 1.1514.459 2.2553 1.274 3.069.814.8138 1.919 1.2709 3.07 1.2709h16.098c.118 0 .231-.0468.314-.1301s.13-.1963.13-.3141v-4.0467c0-.0587-.012-.1168-.034-.171-.023-.0542-.056-.1033-.098-.1447-.041-.0413-.091-.0739-.145-.0959-.055-.0221-.113-.0332-.172-.0326zm0 27.0472h-14.827c-.118 0-.231-.0468-.314-.1301s-.13-.1963-.13-.3141v-8.0222c0-.1178.047-.2308.13-.3141s.196-.1301.314-.1301h13.686c.118 0 .23-.0468.314-.1301.083-.0833.13-.1963.13-.3141v-4.0422c0-.1178-.047-.2308-.13-.3141-.084-.0833-.196-.1301-.314-.1301h-18.63c-.177 0-.346.0702-.471.1952-.125.1249-.195.2944-.195.4711v17.4436c0 .1768.07.3462.195.4712.125.1249.294.1951.471.1951h19.771c.118 0 .231-.0468.314-.1301.084-.0833.13-.1963.13-.3141v-4.0466c0-.1178-.046-.2308-.13-.3141-.083-.0833-.196-.1301-.314-.1301z"
    fill="#fff" />
  <path
    d="m367.399 45.2626-8.99-11.478c5.072-.9595 8.044-4.3887 8.044-9.6436 0-6.0277-3.931-10.141-10.874-10.141h-12.517c-.177 0-.347.0702-.471.1952-.125.1249-.196.2944-.196.4711 0 1.1321.45 2.2179 1.251 3.0185.8.8005 1.886 1.2502 3.018 1.2502h8.387c4.206 0 6.218 2.1455 6.218 5.2549s-1.963 5.2993-6.218 5.2993h-11.989c-.177 0-.347.0702-.471.1951-.125.125-.196.2945-.196.4712v15.3825c0 .1178.047.2308.13.3141.084.0833.197.1301.315.1301h4.273c.118 0 .231-.0468.314-.1301s.13-.1963.13-.3141v-11.4825h4.935l7.805 10.1855c.414.5415.948.9803 1.56 1.2823.611.3019 1.284.459 1.966.4589h3.225c.084.0005.166-.0227.237-.0668.071-.0442.128-.1075.165-.1827s.051-.1592.042-.2423c-.009-.0832-.041-.1621-.093-.2278z"
    fill="#fff" />
  <path
    d="m313.61 46h-4.531c-.072-.0002-.143-.0179-.206-.0516-.064-.0337-.118-.0824-.159-.1419-.041-.0594-.066-.1279-.075-.1994-.008-.0715.001-.144.027-.2112l11.993-30.9517c.046-.1289.13-.2407.241-.3201.112-.0795.245-.1228.381-.1241h5.664c.137.0013.27.0446.381.1241.111.0794.195.1912.241.3201l11.993 30.9517c.026.0675.035.1404.027.2123-.009.0719-.035.1406-.076.2002-.041.0595-.096.1081-.16.1415-.065.0334-.136.0506-.208.0501h-4.545c-.09-.0006-.177-.0286-.251-.0801-.074-.0516-.13-.1243-.162-.2086l-9.665-25.4748c-.032-.0842-.089-.1568-.163-.208-.075-.0512-.163-.0786-.253-.0786s-.178.0274-.252.0786-.131.1238-.163.208l-9.666 25.4792c-.032.0835-.089.1553-.162.206-.074.0507-.161.078-.251.0783z"
    fill="#fff" />
  <path
    d="m280.772 14.4442v31.0938c0 .1178-.047.2308-.13.3141-.084.0833-.197.1301-.314.1301h-3.261c-.741-.0005-1.47-.1865-2.121-.5411s-1.203-.8664-1.606-1.4888l-14.68-22.6897.502 11.3315v12.9439c0 .1178-.047.2308-.131.3141-.083.0833-.196.1301-.314.1301h-4.273c-.118 0-.231-.0468-.314-.1301s-.13-.1963-.13-.3141v-31.0938c0-.1178.047-.2308.13-.3141s.196-.1301.314-.1301h3.216c.742-.0007 1.472.1843 2.123.5382.652.3538 1.205.8651 1.608 1.4874l14.659 22.654-.444-11.2826v-12.9528c0-.1178.047-.2308.13-.3141s.196-.1301.314-.1301h4.273c.059-.0006.117.0105.171.0326.055.022.104.0546.146.0959.042.0414.075.0905.098.1447.022.0542.034.1123.034.171z"
    fill="#fff" />
</svg>