<?xml version="1.0" encoding="UTF-8"?>
<!DOCTYPE svg PUBLIC "-//W3C//DTD SVG 1.1//EN" "http://www.w3.org/Graphics/SVG/1.1/DTD/svg11.dtd">
<svg viewBox="0 0 204 68" version="1.1" xmlns="http://www.w3.org/2000/svg">
  <g id="#1b1b1be3">
    <path fill="#1b1b1b" opacity="0.89"
      d=" M 87.62 9.63 C 92.14 9.00 96.74 9.78 101.23 8.76 C 109.16 8.70 117.06 10.01 125.00 9.67 C 129.01 9.97 132.94 11.06 136.99 10.91 C 141.20 10.86 144.83 13.23 148.31 15.30 C 148.79 14.63 149.76 13.28 150.25 12.61 C 154.59 12.62 158.64 14.57 162.96 14.82 C 165.40 14.98 167.79 15.57 170.11 16.36 C 173.17 14.72 176.41 12.91 180.01 13.13 C 189.32 13.69 198.04 21.10 199.10 30.55 C 199.68 36.69 199.60 42.87 199.53 49.04 C 199.61 55.59 193.48 61.02 187.10 61.03 C 178.97 60.89 170.78 55.91 167.92 48.11 C 166.70 43.90 161.32 45.26 158.02 44.37 C 149.07 42.41 139.88 42.19 130.86 40.66 C 126.45 40.01 121.95 41.35 117.58 40.22 C 111.44 38.34 105.16 41.58 99.00 39.84 C 89.89 39.24 80.77 40.59 71.66 40.76 C 67.91 41.35 64.15 41.92 60.34 41.77 C 53.17 43.48 45.72 43.96 38.49 45.35 C 36.78 48.59 35.67 52.30 32.84 54.81 C 29.16 58.38 24.04 59.79 19.08 60.35 C 13.46 60.70 8.76 64.43 3.16 64.88 C 1.19 60.35 3.27 55.43 4.64 51.05 C 5.18 45.01 5.01 38.93 5.35 32.88 C 5.81 28.04 4.30 23.31 4.31 18.47 C 6.80 17.56 9.40 17.01 12.00 16.51 C 16.47 15.59 20.40 12.77 25.02 12.48 C 30.02 11.92 34.02 16.53 39.08 15.41 C 44.04 14.37 48.84 12.50 53.95 12.18 C 60.31 11.90 66.52 10.47 72.87 10.16 C 77.74 8.92 82.72 10.43 87.62 9.63 M 65.94 12.18 C 58.36 13.62 50.45 13.26 43.09 15.91 C 40.27 17.07 37.19 17.06 34.19 17.16 C 30.13 13.71 24.34 13.09 19.55 15.34 C 15.25 17.47 10.55 18.33 5.88 19.20 C 5.51 23.19 7.26 26.97 6.93 30.95 C 6.61 38.00 6.61 45.08 5.94 52.10 C 4.31 55.68 3.65 59.53 3.81 63.46 C 6.52 62.75 9.21 61.94 11.76 60.76 C 17.13 58.08 23.73 59.43 28.83 55.98 C 33.24 53.43 35.89 48.83 37.06 43.98 C 41.25 42.91 45.66 43.28 49.80 41.95 C 52.77 40.92 56.70 42.56 58.81 39.62 C 63.87 40.81 69.16 40.11 73.90 38.06 L 74.14 39.47 C 78.14 39.19 82.08 38.03 86.10 38.43 C 88.71 38.65 91.32 38.36 93.91 38.00 C 97.32 37.42 100.60 39.05 104.01 38.92 C 108.29 38.65 112.63 37.27 116.88 38.55 C 121.54 39.67 126.34 38.78 131.06 39.12 C 137.83 40.35 144.69 40.89 151.51 41.65 C 157.05 43.33 162.96 42.89 168.46 44.76 C 170.02 54.02 179.86 60.50 188.95 59.30 C 194.35 58.61 198.53 53.44 198.22 48.03 C 198.06 42.40 198.11 36.75 197.68 31.14 C 196.95 20.70 185.65 12.53 175.53 15.26 C 171.50 16.34 169.10 20.02 168.00 23.80 C 167.94 23.56 167.81 23.08 167.75 22.84 C 167.91 20.89 168.00 18.94 168.05 16.99 C 162.14 16.54 156.46 15.04 150.66 13.91 C 150.79 17.02 151.20 20.16 150.54 23.24 C 149.03 19.74 147.35 15.97 143.71 14.22 C 138.65 11.14 132.60 12.98 127.16 11.40 C 120.42 11.69 113.75 10.49 106.99 10.60 C 102.60 9.14 98.35 11.55 93.95 10.87 C 89.82 10.40 85.74 11.39 81.68 11.97 C 81.20 11.69 80.24 11.13 79.75 10.85 C 75.14 11.30 70.57 12.02 65.94 12.18 Z" />
  </g>
  <g id="#ffffffff">
    <path fill="#ffffff" opacity="1.00"
      d=" M 65.94 12.18 C 70.57 12.02 75.14 11.30 79.75 10.85 C 80.24 11.13 81.20 11.69 81.68 11.97 C 85.74 11.39 89.82 10.40 93.95 10.87 C 98.35 11.55 102.60 9.14 106.99 10.60 C 113.75 10.49 120.42 11.69 127.16 11.40 C 132.60 12.98 138.65 11.14 143.71 14.22 C 147.35 15.97 149.03 19.74 150.54 23.24 C 151.20 20.16 150.79 17.02 150.66 13.91 C 156.46 15.04 162.14 16.54 168.05 16.99 C 168.00 18.94 167.91 20.89 167.75 22.84 C 167.81 23.08 167.94 23.56 168.00 23.80 C 169.10 20.02 171.50 16.34 175.53 15.26 C 185.65 12.53 196.95 20.70 197.68 31.14 C 198.11 36.75 198.06 42.40 198.22 48.03 C 198.53 53.44 194.35 58.61 188.95 59.30 C 179.86 60.50 170.02 54.02 168.46 44.76 C 162.96 42.89 157.05 43.33 151.51 41.65 C 144.69 40.89 137.83 40.35 131.06 39.12 C 126.34 38.78 121.54 39.67 116.88 38.55 C 112.63 37.27 108.29 38.65 104.01 38.92 C 100.60 39.05 97.32 37.42 93.91 38.00 C 91.32 38.36 88.71 38.65 86.10 38.43 C 82.08 38.03 78.14 39.19 74.14 39.47 L 73.90 38.06 C 69.16 40.11 63.87 40.81 58.81 39.62 C 56.70 42.56 52.77 40.92 49.80 41.95 C 45.66 43.28 41.25 42.91 37.06 43.98 C 35.89 48.83 33.24 53.43 28.83 55.98 C 23.73 59.43 17.13 58.08 11.76 60.76 C 9.21 61.94 6.52 62.75 3.81 63.46 C 3.65 59.53 4.31 55.68 5.94 52.10 C 6.61 45.08 6.61 38.00 6.93 30.95 C 7.26 26.97 5.51 23.19 5.88 19.20 C 10.55 18.33 15.25 17.47 19.55 15.34 C 24.34 13.09 30.13 13.71 34.19 17.16 C 37.19 17.06 40.27 17.07 43.09 15.91 C 50.45 13.26 58.36 13.62 65.94 12.18 M 91.63 14.37 C 95.15 17.52 94.19 22.41 94.24 26.61 C 92.09 22.80 88.51 19.09 89.31 14.35 C 85.47 15.27 81.51 15.50 77.58 15.21 C 78.24 16.03 78.90 16.84 79.56 17.66 C 79.46 22.81 79.42 27.97 79.35 33.13 C 78.68 33.95 78.01 34.76 77.34 35.58 C 80.91 34.74 84.57 34.47 88.21 34.92 C 87.23 33.83 86.24 32.73 85.26 31.63 C 85.15 28.67 85.03 25.72 84.91 22.76 C 87.06 25.96 88.91 29.36 90.61 32.82 C 90.33 33.35 89.76 34.42 89.47 34.95 C 94.03 33.91 98.65 34.22 103.15 35.39 C 101.66 33.88 99.36 32.50 99.87 30.01 C 100.16 24.79 98.79 19.08 101.71 14.38 C 105.17 14.87 104.02 18.99 104.61 21.42 C 106.31 19.51 107.95 17.42 110.45 16.54 C 110.69 21.82 110.44 27.11 110.41 32.39 C 109.66 33.21 108.90 34.02 108.14 34.83 C 112.22 34.01 116.34 34.53 120.33 35.58 C 119.46 34.13 117.96 32.85 117.93 31.06 C 117.71 26.44 117.59 21.82 117.70 17.20 C 120.80 17.81 122.22 20.56 123.60 23.07 C 123.75 20.36 124.16 17.66 124.93 15.05 C 119.58 15.59 114.35 13.79 108.99 14.32 C 103.19 13.73 97.42 14.99 91.63 14.37 M 68.42 15.53 C 70.58 20.63 68.98 26.38 69.36 31.76 C 67.57 32.59 65.59 32.79 63.64 32.71 C 64.23 27.17 62.38 21.01 65.13 15.94 C 62.17 16.63 59.13 16.91 56.09 16.90 C 58.02 22.36 55.97 28.27 56.87 33.89 C 59.77 37.39 65.00 36.94 68.98 35.99 C 71.38 35.18 74.83 34.03 74.88 30.99 C 75.58 25.59 73.52 19.48 76.86 14.69 C 74.07 15.21 71.26 15.55 68.42 15.53 M 126.44 14.93 C 128.14 17.66 128.28 20.86 128.17 23.98 C 127.96 27.91 129.26 32.49 126.14 35.61 C 131.43 34.55 136.51 37.33 141.77 36.54 C 144.85 36.09 146.72 33.01 146.76 30.08 C 147.08 25.83 146.76 20.69 142.97 17.97 C 138.12 14.40 131.81 16.83 126.44 14.93 M 9.29 22.18 C 9.89 24.41 10.66 26.66 10.54 29.01 C 10.42 36.03 10.00 43.04 9.84 50.06 C 9.98 53.17 8.29 55.88 7.38 58.74 C 11.89 56.18 17.00 55.43 22.06 54.75 C 28.26 53.82 33.23 48.28 33.43 41.99 C 36.21 40.92 38.96 39.51 42.02 39.60 C 46.25 39.54 50.22 37.64 54.48 37.82 C 53.89 35.34 53.78 32.79 53.94 30.26 C 51.99 34.05 48.18 36.46 43.89 36.40 C 43.78 31.43 43.67 26.41 44.30 21.48 C 45.23 20.17 46.48 19.13 47.62 18.00 C 43.76 19.74 39.62 20.78 35.37 20.68 C 35.74 21.25 36.49 22.38 36.86 22.95 C 36.88 28.18 36.99 33.46 36.43 38.67 C 35.38 39.72 34.17 40.59 33.02 41.53 C 33.32 38.53 31.04 36.56 28.79 35.11 C 30.78 33.06 32.86 30.83 33.40 27.91 C 34.69 23.50 31.88 18.03 27.03 17.64 C 20.75 17.27 15.56 21.98 9.29 22.18 M 176.52 18.69 C 173.41 19.58 171.50 22.81 171.73 25.96 C 171.78 31.69 171.88 37.42 172.14 43.15 C 172.17 50.35 179.35 55.27 185.94 55.91 C 190.07 56.46 194.42 53.31 194.57 49.01 C 194.72 43.34 194.36 37.65 194.09 31.98 C 193.86 23.51 184.73 16.55 176.52 18.69 M 154.86 18.20 C 155.01 21.51 153.52 24.54 152.74 27.68 C 151.80 31.24 150.79 34.90 148.37 37.77 C 151.28 37.70 154.12 38.40 156.85 39.39 C 156.32 38.02 155.85 36.63 155.42 35.23 C 157.65 35.54 159.87 35.93 162.08 36.33 C 161.93 37.14 161.62 38.76 161.46 39.57 C 164.62 40.05 167.74 40.76 170.77 41.80 C 167.87 36.66 166.58 30.87 164.73 25.32 C 164.07 23.59 164.06 21.75 164.16 19.93 C 160.98 19.89 157.81 19.44 154.86 18.20 Z" />
    <path fill="#ffffff" opacity="1.00"
      d=" M 134.85 18.67 C 136.50 19.31 138.86 19.24 139.83 20.96 C 140.26 24.75 140.03 28.58 140.10 32.38 C 138.45 32.75 136.79 33.07 135.12 33.35 C 134.86 28.46 134.92 23.56 134.85 18.67 Z" />
    <path fill="#ffffff" opacity="1.00"
      d=" M 18.88 24.86 C 20.60 24.71 22.70 23.44 24.14 24.93 C 25.35 26.69 25.07 29.01 24.57 30.96 C 23.74 33.61 20.72 34.29 18.52 35.38 C 18.61 31.88 18.77 28.37 18.88 24.86 Z" />
    <path fill="#ffffff" opacity="1.00"
      d=" M 180.47 26.37 C 182.49 24.21 185.69 26.57 185.64 29.08 C 185.99 35.04 186.19 41.03 186.15 47.00 C 186.39 49.12 183.30 48.86 182.27 47.90 C 179.66 46.18 180.62 42.68 180.33 40.06 C 180.53 35.51 179.29 30.81 180.47 26.37 Z" />
    <path fill="#ffffff" opacity="1.00"
      d=" M 158.53 26.47 C 159.34 28.79 160.09 31.14 160.84 33.49 C 159.39 33.24 157.94 32.99 156.49 32.74 C 157.19 30.65 157.84 28.55 158.53 26.47 Z" />
    <path fill="#ffffff" opacity="1.00"
      d=" M 18.38 39.80 C 20.11 39.51 22.53 38.36 23.72 40.29 C 26.10 44.41 22.86 49.93 18.15 50.13 C 18.07 46.68 18.25 43.24 18.38 39.80 Z" />
  </g>
  <g id="#ff0000ff">
    <path fill="#ff0000" opacity="1.00"
      d=" M 91.63 14.37 C 97.42 14.99 103.19 13.73 108.99 14.32 C 114.35 13.79 119.58 15.59 124.93 15.05 C 124.16 17.66 123.75 20.36 123.60 23.07 C 122.22 20.56 120.80 17.81 117.70 17.20 C 117.59 21.82 117.71 26.44 117.93 31.06 C 117.96 32.85 119.46 34.13 120.33 35.58 C 116.34 34.53 112.22 34.01 108.14 34.83 C 108.90 34.02 109.66 33.21 110.41 32.39 C 110.44 27.11 110.69 21.82 110.45 16.54 C 107.95 17.42 106.31 19.51 104.61 21.42 C 104.02 18.99 105.17 14.87 101.71 14.38 C 98.79 19.08 100.16 24.79 99.87 30.01 C 99.36 32.50 101.66 33.88 103.15 35.39 C 98.65 34.22 94.03 33.91 89.47 34.95 C 89.76 34.42 90.33 33.35 90.61 32.82 C 88.91 29.36 87.06 25.96 84.91 22.76 C 85.03 25.72 85.15 28.67 85.26 31.63 C 86.24 32.73 87.23 33.83 88.21 34.92 C 84.57 34.47 80.91 34.74 77.34 35.58 C 78.01 34.76 78.68 33.95 79.35 33.13 C 79.42 27.97 79.46 22.81 79.56 17.66 C 78.90 16.84 78.24 16.03 77.58 15.21 C 81.51 15.50 85.47 15.27 89.31 14.35 C 88.51 19.09 92.09 22.80 94.24 26.61 C 94.19 22.41 95.15 17.52 91.63 14.37 Z" />
    <path fill="#ff0000" opacity="1.00"
      d=" M 68.42 15.53 C 71.26 15.55 74.07 15.21 76.86 14.69 C 73.52 19.48 75.58 25.59 74.88 30.99 C 74.83 34.03 71.38 35.18 68.98 35.99 C 65.00 36.94 59.77 37.39 56.87 33.89 C 55.97 28.27 58.02 22.36 56.09 16.90 C 59.13 16.91 62.17 16.63 65.13 15.94 C 62.38 21.01 64.23 27.17 63.64 32.71 C 65.59 32.79 67.57 32.59 69.36 31.76 C 68.98 26.38 70.58 20.63 68.42 15.53 Z" />
    <path fill="#ff0000" opacity="1.00"
      d=" M 126.44 14.93 C 131.81 16.83 138.12 14.40 142.97 17.97 C 146.76 20.69 147.08 25.83 146.76 30.08 C 146.72 33.01 144.85 36.09 141.77 36.54 C 136.51 37.33 131.43 34.55 126.14 35.61 C 129.26 32.49 127.96 27.91 128.17 23.98 C 128.28 20.86 128.14 17.66 126.44 14.93 M 134.85 18.67 C 134.92 23.56 134.86 28.46 135.12 33.35 C 136.79 33.07 138.45 32.75 140.10 32.38 C 140.03 28.58 140.26 24.75 139.83 20.96 C 138.86 19.24 136.50 19.31 134.85 18.67 Z" />
    <path fill="#ff0000" opacity="1.00"
      d=" M 9.29 22.18 C 15.56 21.98 20.75 17.27 27.03 17.64 C 31.88 18.03 34.69 23.50 33.40 27.91 C 32.86 30.83 30.78 33.06 28.79 35.11 C 31.04 36.56 33.32 38.53 33.02 41.53 C 34.17 40.59 35.38 39.72 36.43 38.67 C 36.99 33.46 36.88 28.18 36.86 22.95 C 36.49 22.38 35.74 21.25 35.37 20.68 C 39.62 20.78 43.76 19.74 47.62 18.00 C 46.48 19.13 45.23 20.17 44.30 21.48 C 43.67 26.41 43.78 31.43 43.89 36.40 C 48.18 36.46 51.99 34.05 53.94 30.26 C 53.78 32.79 53.89 35.34 54.48 37.82 C 50.22 37.64 46.25 39.54 42.02 39.60 C 38.96 39.51 36.21 40.92 33.43 41.99 C 33.23 48.28 28.26 53.82 22.06 54.75 C 17.00 55.43 11.89 56.18 7.38 58.74 C 8.29 55.88 9.98 53.17 9.84 50.06 C 10.00 43.04 10.42 36.03 10.54 29.01 C 10.66 26.66 9.89 24.41 9.29 22.18 M 18.88 24.86 C 18.77 28.37 18.61 31.88 18.52 35.38 C 20.72 34.29 23.74 33.61 24.57 30.96 C 25.07 29.01 25.35 26.69 24.14 24.93 C 22.70 23.44 20.60 24.71 18.88 24.86 M 18.38 39.80 C 18.25 43.24 18.07 46.68 18.15 50.13 C 22.86 49.93 26.10 44.41 23.72 40.29 C 22.53 38.36 20.11 39.51 18.38 39.80 Z" />
    <path fill="#ff0000" opacity="1.00"
      d=" M 176.52 18.69 C 184.73 16.55 193.86 23.51 194.09 31.98 C 194.36 37.65 194.72 43.34 194.57 49.01 C 194.42 53.31 190.07 56.46 185.94 55.91 C 179.35 55.27 172.17 50.35 172.14 43.15 C 171.88 37.42 171.78 31.69 171.73 25.96 C 171.50 22.81 173.41 19.58 176.52 18.69 M 180.47 26.37 C 179.29 30.81 180.53 35.51 180.33 40.06 C 180.62 42.68 179.66 46.18 182.27 47.90 C 183.30 48.86 186.39 49.12 186.15 47.00 C 186.19 41.03 185.99 35.04 185.64 29.08 C 185.69 26.57 182.49 24.21 180.47 26.37 Z" />
    <path fill="#ff0000" opacity="1.00"
      d=" M 154.86 18.20 C 157.81 19.44 160.98 19.89 164.16 19.93 C 164.06 21.75 164.07 23.59 164.73 25.32 C 166.58 30.87 167.87 36.66 170.77 41.80 C 167.74 40.76 164.62 40.05 161.46 39.57 C 161.62 38.76 161.93 37.14 162.08 36.33 C 159.87 35.93 157.65 35.54 155.42 35.23 C 155.85 36.63 156.32 38.02 156.85 39.39 C 154.12 38.40 151.28 37.70 148.37 37.77 C 150.79 34.90 151.80 31.24 152.74 27.68 C 153.52 24.54 155.01 21.51 154.86 18.20 M 158.53 26.47 C 157.84 28.55 157.19 30.65 156.49 32.74 C 157.94 32.99 159.39 33.24 160.84 33.49 C 160.09 31.14 159.34 28.79 158.53 26.47 Z" />
  </g>
</svg>