<svg viewBox="0 0 132 51" fill="none" xmlns="http://www.w3.org/2000/svg">
  <g clip-path="url(#clip0_103_591)">
    <path
      d="M44.952 15.7999V33.9919C44.9535 35.1709 44.6418 36.3292 44.0488 37.3483C43.4558 38.3673 42.6028 39.2106 41.577 39.7919L22.477 50.8309L3.37501 39.7899C2.35517 39.2023 1.50699 38.3579 0.914873 37.3406C0.322753 36.3234 0.00733443 35.1689 5.13605e-06 33.9919V15.7999C-0.00145924 14.6209 0.31024 13.4626 0.903229 12.4435C1.49622 11.4245 2.34922 10.5812 3.37501 9.99989L19.1 0.912886C20.1244 0.314725 21.2893 -0.000488281 22.4755 -0.000488281C23.6617 -0.000488281 24.8266 0.314725 25.851 0.912886L41.616 10.0069C42.6316 10.5965 43.4743 11.4427 44.0598 12.4606C44.6453 13.4786 44.953 14.6326 44.952 15.8069"
      fill="#325CE8"></path>
    <path
      d="M22.7085 35.5119C22.4708 35.5098 22.2377 35.4457 22.0325 35.3259L13.6395 30.4819C13.5783 30.4465 13.5275 30.3956 13.4924 30.3343C13.4573 30.273 13.439 30.2035 13.4395 30.1329V27.9119L21.6135 32.6359C21.9467 32.8261 22.3238 32.9261 22.7075 32.9261C23.0912 32.9261 23.4682 32.8261 23.8015 32.6359L30.8355 28.5729C31.2955 28.3435 31.8015 28.2215 32.3155 28.2159C33.0678 28.2295 33.7928 28.4997 34.3705 28.9819L23.3605 35.3389C23.1621 35.4529 22.9373 35.5129 22.7085 35.5129"
      fill="url(#paint0_linear_103_591)"></path>
    <path
      d="M22.7061 40.107C21.9656 40.1056 21.2383 39.9108 20.5961 39.542L11.6061 34.358C10.9397 33.972 10.3863 33.418 10.0011 32.7511C9.61589 32.0843 9.41247 31.3281 9.41113 30.558L9.41713 23.498C9.42631 23.2739 9.49165 23.0558 9.60715 22.8635C9.72265 22.6713 9.8846 22.5112 10.0781 22.398L22.0241 15.505C22.2295 15.387 22.4623 15.3249 22.6991 15.325C22.9351 15.3239 23.167 15.3857 23.3711 15.504L34.3711 21.844C34.0736 22.092 33.7352 22.2866 33.3711 22.419C32.9297 22.5727 32.4605 22.6305 31.9949 22.5886C31.5294 22.5467 31.0781 22.406 30.6711 22.176L27.7641 20.487L23.7941 18.198C23.4628 18.0044 23.0859 17.9024 22.7021 17.9024C22.3184 17.9024 21.9415 18.0044 21.6101 18.198L11.5481 24.007L11.5421 30.548C11.5446 30.945 11.6497 31.3347 11.8474 31.679C12.0451 32.0233 12.3285 32.3106 12.6701 32.513L21.6561 37.7C21.9749 37.8818 22.3352 37.9782 22.7021 37.98C23.0692 37.98 23.4298 37.8838 23.7481 37.701L35.4881 30.926C35.606 31.5819 35.517 32.2583 35.2336 32.8615C34.9502 33.4647 34.4863 33.9649 33.9061 34.293L24.8161 39.543C24.1744 39.9127 23.4467 40.1072 22.7061 40.107Z"
      fill="white"></path>
    <path
      d="M9.41602 20.1998C9.4366 19.4429 9.64931 18.7036 10.0342 18.0515C10.419 17.3993 10.9633 16.8558 11.616 16.4718L20.603 11.2848C21.2443 10.9154 21.9714 10.7209 22.7115 10.7209C23.4516 10.7209 24.1787 10.9154 24.82 11.2848L33.92 16.5388C34.4987 16.867 34.961 17.367 35.243 17.9695C35.525 18.572 35.6127 19.2473 35.494 19.9018L23.753 13.1278C23.4353 12.9448 23.0752 12.8484 22.7085 12.8484C22.3419 12.8484 21.9817 12.9448 21.664 13.1278L9.41602 20.1998Z"
      fill="url(#paint1_linear_103_591)"></path>
    <path
      d="M78.893 34.495C75.307 34.495 72.793 31.836 72.793 28.071C72.793 24.276 75.303 21.647 78.893 21.647C82.483 21.647 84.993 24.306 84.993 28.071C84.993 31.836 82.483 34.495 78.893 34.495ZM78.803 24.095C76.98 24.095 75.845 25.619 75.845 28.039C75.845 30.489 76.98 31.983 78.803 31.983H79.012C80.835 31.983 81.97 30.459 81.97 28.039C81.97 25.589 80.835 24.095 79.012 24.095H78.803Z"
      fill="currentColor"></path>
    <path
      d="M86.9854 34.02V22.069C86.9854 22.0135 87.0074 21.9604 87.0466 21.9212C87.0858 21.882 87.139 21.86 87.1944 21.86H89.7644C89.8198 21.86 89.873 21.882 89.9122 21.9212C89.9514 21.9604 89.9734 22.0135 89.9734 22.069V23.623C90.6014 22.338 91.8564 21.741 93.7684 21.741H95.2324C95.2879 21.741 95.341 21.763 95.3802 21.8022C95.4194 21.8414 95.4414 21.8945 95.4414 21.95V24.19C95.4414 24.2454 95.4194 24.2986 95.3802 24.3377C95.341 24.3769 95.2879 24.399 95.2324 24.399H93.5854C91.2244 24.399 89.9704 25.714 89.9704 28.194V33.994C89.9704 34.0214 89.965 34.0486 89.9545 34.0739C89.944 34.0993 89.9286 34.1223 89.9092 34.1418C89.8898 34.1612 89.8668 34.1766 89.8414 34.1871C89.816 34.1976 89.7889 34.203 89.7614 34.203H87.1614C87.0714 34.233 86.9824 34.143 86.9824 34.024"
      fill="currentColor"></path>
    <path
      d="M114.319 34.2549C113.598 34.3478 112.87 34.1516 112.293 33.7092C111.717 33.2668 111.339 32.6141 111.242 31.8939C111.212 31.6658 111.212 31.4349 111.242 31.2069V24.3659H108.969C108.942 24.3671 108.915 24.3628 108.89 24.3533C108.864 24.3438 108.841 24.3293 108.822 24.3106C108.802 24.2919 108.787 24.2694 108.776 24.2445C108.765 24.2197 108.76 24.1929 108.76 24.1659V22.1259C108.759 22.0988 108.763 22.0719 108.773 22.0466C108.782 22.0212 108.797 21.9981 108.815 21.9786C108.834 21.959 108.856 21.9435 108.881 21.9329C108.906 21.9223 108.933 21.9168 108.96 21.9169H111.243V18.1819C111.242 18.1548 111.246 18.1279 111.256 18.1026C111.265 18.0772 111.28 18.0541 111.298 18.0346C111.317 18.015 111.339 17.9995 111.364 17.9889C111.389 17.9783 111.416 17.9728 111.443 17.9729H114.022C114.049 17.9716 114.076 17.9759 114.101 17.9854C114.127 17.9949 114.15 18.0095 114.169 18.0282C114.189 18.0469 114.204 18.0693 114.215 18.0942C114.226 18.1191 114.231 18.1458 114.231 18.1729C114.231 18.1729 114.231 18.1799 114.231 18.1829V21.9179H117.217C117.244 21.9166 117.271 21.9209 117.296 21.9304C117.322 21.9399 117.345 21.9545 117.364 21.9732C117.384 21.9919 117.399 22.0143 117.41 22.0392C117.421 22.0641 117.426 22.0908 117.426 22.1179V24.1549C117.427 24.1819 117.423 24.2088 117.413 24.2342C117.404 24.2595 117.389 24.2826 117.371 24.3021C117.352 24.3217 117.33 24.3372 117.305 24.3478C117.28 24.3584 117.253 24.3639 117.226 24.3639H114.26V30.4889C114.26 30.7977 114.383 31.0937 114.602 31.3121C114.82 31.5304 115.116 31.6533 115.425 31.6539H117.649C117.676 31.6526 117.703 31.6569 117.728 31.6664C117.754 31.6759 117.777 31.6905 117.796 31.7092C117.816 31.7279 117.831 31.7503 117.842 31.7752C117.853 31.8001 117.858 31.8268 117.858 31.8539V34.0149C117.859 34.0419 117.855 34.0688 117.845 34.0942C117.836 34.1195 117.821 34.1426 117.803 34.1621C117.784 34.1817 117.761 34.1972 117.737 34.2078C117.712 34.2184 117.685 34.2239 117.658 34.2239H117.648L114.319 34.2549Z"
      fill="currentColor"></path>
    <path
      d="M125.164 34.495C121.579 34.495 119.064 31.836 119.064 28.071C119.064 24.276 121.574 21.647 125.164 21.647C128.754 21.647 131.264 24.306 131.264 28.071C131.264 31.836 128.754 34.495 125.164 34.495ZM125.074 24.095C123.251 24.095 122.116 25.619 122.116 28.039C122.116 30.489 123.251 31.983 125.074 31.983H125.283C127.106 31.983 128.241 30.459 128.241 28.039C128.241 25.589 127.106 24.095 125.283 24.095H125.074Z"
      fill="currentColor"></path>
    <path
      d="M63.7613 34.7C59.2493 34.7 56.3213 31.029 56.3213 25.352C56.3213 19.765 59.3693 16 63.8813 16C67.4963 16 70.2153 18.48 70.7813 22.3V22.39L70.6913 22.569C70.6294 22.6375 70.5442 22.6803 70.4523 22.689H68.0023C67.9123 22.689 67.6443 22.689 67.5833 22.45C67.409 21.5863 66.9368 20.8113 66.2492 20.2604C65.5616 19.7094 64.7022 19.4177 63.8213 19.436C61.1623 19.436 59.5213 21.707 59.5213 25.352C59.5213 28.968 61.1913 31.3 63.8213 31.3C64.7088 31.3186 65.5759 31.032 66.2775 30.4881C66.9792 29.9443 67.4729 29.1761 67.6763 28.312C67.6888 28.2426 67.7262 28.18 67.7813 28.1361C67.8365 28.0921 67.9058 28.0697 67.9763 28.073H70.6053L70.7553 28.192C70.8116 28.2706 70.843 28.3643 70.8453 28.461C70.6326 30.1877 69.7941 31.7764 68.4885 32.9262C67.1829 34.0761 65.501 34.7072 63.7613 34.7Z"
      fill="currentColor"></path>
    <path
      d="M102.374 34.4798C101.5 34.4908 100.633 34.3336 99.8185 34.0168C99.0827 33.7267 98.4119 33.2929 97.8455 32.7408C97.2955 32.2043 96.863 31.5593 96.5755 30.8468C96.2753 30.1 96.1239 29.3017 96.1295 28.4968V28.0428C96.118 27.1522 96.2708 26.267 96.5805 25.4318C96.862 24.6833 97.2877 23.9973 97.8335 23.4128C98.3669 22.8567 99.0074 22.4144 99.7165 22.1128C100.453 21.8017 101.245 21.6442 102.045 21.6498C102.858 21.6356 103.666 21.7877 104.419 22.0968C105.089 22.3806 105.689 22.8068 106.178 23.3458C106.666 23.9077 107.032 24.5645 107.255 25.2748C107.505 26.0746 107.628 26.9088 107.62 27.7468V28.8308C107.62 28.8863 107.597 28.9394 107.558 28.9786C107.519 29.0178 107.466 29.0398 107.411 29.0398H99.1825C99.2576 29.4736 99.3922 29.8949 99.5825 30.2918C99.7541 30.6248 99.9837 30.9245 100.261 31.1768C100.561 31.4465 100.909 31.659 101.286 31.8038C101.692 31.9569 102.124 32.0329 102.559 32.0278C103.185 32.0295 103.805 31.9032 104.381 31.6568C104.878 31.4417 105.322 31.1194 105.681 30.7128C105.7 30.6922 105.723 30.6756 105.748 30.6641C105.774 30.6526 105.801 30.6464 105.829 30.646C105.857 30.6455 105.885 30.6508 105.911 30.6614C105.937 30.672 105.961 30.6878 105.981 30.7078L107.264 32.0408C107.298 32.076 107.319 32.1222 107.322 32.1713C107.326 32.2205 107.312 32.2692 107.283 32.3088C106.785 32.9178 106.166 33.4167 105.466 33.7738C104.509 34.2615 103.446 34.5021 102.374 34.4738M104.635 26.8678V26.6848C104.634 26.3483 104.571 26.0147 104.45 25.7008C104.34 25.3914 104.165 25.1088 103.939 24.8713C103.712 24.6338 103.438 24.4469 103.134 24.3228C102.781 24.1785 102.402 24.108 102.022 24.1158C101.675 24.1127 101.332 24.1772 101.011 24.3058C100.704 24.431 100.428 24.621 100.203 24.8628C99.9546 25.1223 99.7518 25.4215 99.6025 25.7478C99.4401 26.1042 99.3241 26.4799 99.2575 26.8658L104.635 26.8678Z"
      fill="currentColor"></path>
  </g>
  <defs>
    <linearGradient id="paint0_linear_103_591" x1="34.3705" y1="28.9532" x2="13.5321" y2="30.4452"
      gradientUnits="userSpaceOnUse">
      <stop stop-color="#F9F9F9"></stop>
      <stop offset="0.75" stop-color="#F9F9F9" stop-opacity="0.722"></stop>
      <stop offset="1" stop-color="#E8EBF8" stop-opacity="0"></stop>
    </linearGradient>
    <linearGradient id="paint1_linear_103_591" x1="35.5455" y1="19.6216" x2="10.6966" y2="14.8735"
      gradientUnits="userSpaceOnUse">
      <stop stop-color="#F9F9F9"></stop>
      <stop offset="0.713" stop-color="#F5F6F9" stop-opacity="0.8"></stop>
      <stop offset="1" stop-color="#E8EBF8" stop-opacity="0"></stop>
    </linearGradient>
    <clipPath id="clip0_103_591">
      <rect width="131.26" height="50.829" fill="white"></rect>
    </clipPath>
  </defs>
</svg>