<?xml version="1.0" encoding="UTF-8"?>
<!DOCTYPE svg PUBLIC "-//W3C//DTD SVG 1.1//EN" "http://www.w3.org/Graphics/SVG/1.1/DTD/svg11.dtd">
<svg viewBox="0 0 232 248" version="1.1" xmlns="http://www.w3.org/2000/svg">
  <g id="#9ac8f8ff">
    <path fill="#9ac8f8" opacity="1.00"
      d=" M 121.68 1.80 C 122.04 1.79 122.75 1.76 123.10 1.75 C 125.03 7.05 131.73 6.14 135.23 9.80 C 132.08 9.06 129.02 8.02 125.91 7.14 C 125.47 6.81 124.59 6.17 124.15 5.85 C 123.46 5.15 122.76 4.45 122.06 3.76 C 121.96 3.27 121.78 2.29 121.68 1.80 Z" />
  </g>
  <g id="#b075e2fa">
    <path fill="#b075e2" opacity="0.98"
      d=" M 100.07 6.14 C 103.11 4.18 106.66 3.10 110.04 1.89 L 109.97 2.87 C 107.22 5.44 103.90 7.28 100.24 8.23 C 100.20 7.70 100.11 6.66 100.07 6.14 Z" />
  </g>
  <g id="#614a7baf">
    <path fill="#614a7b" opacity="0.69"
      d=" M 110.04 1.89 L 110.98 2.04 C 111.00 49.68 111.05 97.33 110.95 144.97 L 110.00 145.02 C 110.00 144.28 109.99 142.79 109.99 142.05 C 109.87 97.29 110.30 52.52 109.77 7.77 C 109.80 7.03 109.84 5.53 109.86 4.79 C 109.89 4.31 109.94 3.35 109.97 2.87 L 110.04 1.89 Z" />
  </g>
  <g id="#4858668e">
    <path fill="#485866" opacity="0.56"
      d=" M 121.01 68.00 C 121.43 45.95 120.10 23.78 121.68 1.80 C 121.78 2.29 121.96 3.27 122.06 3.76 C 122.14 4.24 122.29 5.22 122.37 5.70 C 121.57 26.46 122.20 47.24 122.00 68.01 L 121.01 68.00 Z" />
  </g>
  <g id="#add1f9ff">
    <path fill="#add1f9" opacity="1.00"
      d=" M 123.10 1.75 C 131.75 4.76 139.55 9.59 147.94 13.19 C 148.87 15.05 150.86 15.77 152.77 16.17 C 160.32 20.61 167.65 25.43 175.23 29.83 C 168.06 29.23 162.75 23.16 156.12 20.74 C 148.75 17.75 142.30 13.10 135.23 9.80 C 131.73 6.14 125.03 7.05 123.10 1.75 Z" />
  </g>
  <g id="#974ddfff">
    <path fill="#974ddf" opacity="1.00"
      d=" M 100.24 8.23 C 103.90 7.28 107.22 5.44 109.97 2.87 C 109.94 3.35 109.89 4.31 109.86 4.79 C 109.20 5.46 108.54 6.14 107.88 6.83 C 107.64 7.07 107.14 7.57 106.89 7.81 C 105.05 8.11 103.32 8.81 101.73 9.78 C 101.05 9.84 99.69 9.96 99.01 10.01 L 99.17 9.15 C 99.44 8.92 99.97 8.46 100.24 8.23 Z" />
  </g>
  <g id="#6d9ad6ff">
    <path fill="#6d9ad6" opacity="1.00"
      d=" M 122.06 3.76 C 122.76 4.45 123.46 5.15 124.15 5.85 C 124.00 13.14 123.85 20.44 124.29 27.73 C 123.66 46.48 124.17 65.24 123.98 84.00 L 123.00 84.00 C 122.96 78.66 123.03 73.33 122.99 67.99 C 122.61 47.24 123.82 26.40 122.37 5.70 C 122.29 5.22 122.14 4.24 122.06 3.76 Z" />
  </g>
  <g id="#6a2bc1ff">
    <path fill="#6a2bc1" opacity="1.00"
      d=" M 107.88 6.83 C 108.54 6.14 109.20 5.46 109.86 4.79 C 109.84 5.53 109.80 7.03 109.77 7.77 C 108.66 14.46 109.04 21.26 108.98 28.00 C 109.02 65.34 109.01 102.69 108.98 140.03 L 107.99 140.01 C 107.88 123.26 108.26 106.51 107.82 89.77 C 108.16 62.13 108.03 34.47 107.88 6.83 Z" />
  </g>
  <g id="#a685f0ff">
    <path fill="#a685f0" opacity="1.00"
      d=" M 81.07 16.13 C 87.24 12.52 93.48 8.93 100.07 6.14 C 100.11 6.66 100.20 7.70 100.24 8.23 C 99.97 8.46 99.44 8.92 99.17 9.15 C 93.30 11.05 87.27 13.50 82.79 17.84 C 82.38 17.92 81.58 18.09 81.17 18.17 C 81.15 17.66 81.10 16.64 81.07 16.13 Z" />
  </g>
  <g id="#6689b9ff">
    <path fill="#6689b9" opacity="1.00"
      d=" M 122.37 5.70 C 123.82 26.40 122.61 47.24 122.99 67.99 L 122.00 68.01 C 122.20 47.24 121.57 26.46 122.37 5.70 Z" />
  </g>
  <g id="#7ab3f1ff">
    <path fill="#7ab3f1" opacity="1.00"
      d=" M 124.15 5.85 C 124.59 6.17 125.47 6.81 125.91 7.14 C 126.00 10.00 126.03 12.88 126.25 15.74 C 125.98 17.05 125.29 18.32 125.41 19.69 C 126.55 31.68 125.59 43.73 126.28 55.74 C 125.98 63.56 126.02 71.39 125.76 79.22 C 123.63 62.14 126.35 44.79 124.29 27.73 C 123.85 20.44 124.00 13.14 124.15 5.85 Z" />
  </g>
  <g id="#7e2ddcff">
    <path fill="#7e2ddc" opacity="1.00"
      d=" M 106.89 7.81 C 107.14 7.57 107.64 7.07 107.88 6.83 C 108.03 34.47 108.16 62.13 107.82 89.77 C 107.55 91.38 107.01 94.59 106.74 96.20 C 106.20 92.07 105.96 87.92 105.73 83.76 C 106.13 74.59 106.06 65.41 105.94 56.23 C 105.99 49.51 106.06 42.79 105.96 36.07 C 106.39 26.65 106.31 17.22 106.89 7.81 Z" />
  </g>
  <g id="#87c1fdff">
    <path fill="#87c1fd" opacity="1.00"
      d=" M 125.91 7.14 C 129.02 8.02 132.08 9.06 135.23 9.80 C 142.30 13.10 148.75 17.75 156.12 20.74 C 156.79 22.09 157.03 23.94 158.75 24.34 C 165.88 27.37 172.22 32.14 179.62 34.52 C 181.31 35.38 182.82 36.57 184.17 37.91 C 181.92 37.52 179.62 35.69 177.38 37.06 C 177.56 39.30 179.59 43.34 173.40 39.55 C 171.46 39.15 169.63 36.96 167.62 37.84 C 164.78 36.94 162.12 38.05 160.00 39.97 C 157.50 54.07 158.04 69.52 157.96 84.20 C 157.52 84.06 156.63 83.78 156.18 83.64 C 156.10 81.25 155.94 76.46 155.86 74.07 C 150.59 73.97 145.32 73.94 140.05 73.99 C 141.84 68.82 138.83 65.41 136.26 61.68 C 135.76 55.88 136.28 50.04 135.88 44.24 C 133.13 44.40 131.47 43.45 131.79 40.52 C 125.91 40.56 131.88 29.54 128.03 27.90 C 127.77 30.42 127.26 35.47 127.00 37.99 C 126.38 30.63 128.15 22.93 126.25 15.74 C 126.03 12.88 126.00 10.00 125.91 7.14 Z" />
  </g>
  <g id="#8c31e6ff">
    <path fill="#8c31e6" opacity="1.00"
      d=" M 101.73 9.78 C 103.32 8.81 105.05 8.11 106.89 7.81 C 106.31 17.22 106.39 26.65 105.96 36.07 C 104.70 36.04 103.44 35.96 102.18 35.85 C 102.93 31.10 100.62 26.92 99.62 22.47 C 97.28 22.10 94.72 19.10 97.02 17.08 C 98.30 16.14 101.22 12.67 101.46 16.02 C 103.14 14.15 102.85 11.85 101.73 9.78 Z" />
  </g>
  <g id="#5c2c9dff">
    <path fill="#5c2c9d" opacity="1.00"
      d=" M 108.98 28.00 C 109.04 21.26 108.66 14.46 109.77 7.77 C 110.30 52.52 109.87 97.29 109.99 142.05 L 109.00 142.01 C 109.00 141.52 108.99 140.53 108.98 140.03 C 109.01 102.69 109.02 65.34 108.98 28.00 Z" />
  </g>
  <g id="#9166faff">
    <path fill="#9166fa" opacity="1.00"
      d=" M 82.79 17.84 C 87.27 13.50 93.30 11.05 99.17 9.15 L 99.01 10.01 C 98.77 10.49 98.28 11.45 98.03 11.92 C 93.43 12.13 89.23 14.81 85.90 17.84 C 84.90 18.18 83.90 18.52 82.90 18.86 L 82.79 17.84 Z" />
  </g>
  <g id="#8733ecff">
    <path fill="#8733ec" opacity="1.00"
      d=" M 99.01 10.01 C 99.69 9.96 101.05 9.84 101.73 9.78 C 102.85 11.85 103.14 14.15 101.46 16.02 C 101.22 12.67 98.30 16.14 97.02 17.08 C 94.72 19.10 97.28 22.10 99.62 22.47 C 100.62 26.92 102.93 31.10 102.18 35.85 C 103.44 35.96 104.70 36.04 105.96 36.07 C 106.06 42.79 105.99 49.51 105.94 56.23 C 103.07 55.84 104.72 51.52 101.39 51.47 C 101.07 50.07 100.44 47.25 100.12 45.85 C 100.05 47.33 99.91 50.30 99.84 51.78 C 92.19 47.81 97.60 57.97 92.11 56.00 C 92.05 53.57 91.93 48.69 91.88 46.25 C 90.41 45.74 87.23 46.75 88.06 44.19 C 90.32 44.10 92.98 44.23 91.99 41.16 C 88.26 41.18 80.82 42.01 81.68 36.08 C 76.49 33.76 75.72 36.58 75.77 40.14 C 73.28 38.47 70.91 36.45 67.84 35.96 C 67.58 35.49 67.06 34.55 66.80 34.08 C 67.28 34.04 68.26 33.97 68.74 33.94 C 76.52 35.83 81.25 28.42 87.64 26.32 C 92.00 22.22 95.39 17.27 98.03 11.92 C 98.28 11.45 98.77 10.49 99.01 10.01 Z" />
  </g>
  <g id="#7945f6ff">
    <path fill="#7945f6" opacity="1.00"
      d=" M 85.90 17.84 C 89.23 14.81 93.43 12.13 98.03 11.92 C 95.39 17.27 92.00 22.22 87.64 26.32 C 87.05 23.87 84.72 22.76 82.74 21.60 C 83.78 20.34 84.90 19.14 85.90 17.84 Z" />
  </g>
  <g id="#1e222528">
    <path fill="#1e2225" opacity="0.16"
      d=" M 147.94 13.19 C 150.01 12.94 152.50 13.82 152.77 16.17 C 150.86 15.77 148.87 15.05 147.94 13.19 Z" />
  </g>
  <g id="#b087e0fd">
    <path fill="#b087e0" opacity="1.00"
      d=" M 57.96 30.04 C 65.38 25.35 73.28 20.52 81.07 16.13 C 81.10 16.64 81.15 17.66 81.17 18.17 C 76.02 21.33 71.05 24.80 65.77 27.76 C 64.48 28.42 63.31 29.28 62.12 30.09 C 60.73 30.07 59.34 30.05 57.96 30.04 Z" />
  </g>
  <g id="#81befcff">
    <path fill="#81befc" opacity="1.00"
      d=" M 126.25 15.74 C 128.15 22.93 126.38 30.63 127.00 37.99 C 127.26 35.47 127.77 30.42 128.03 27.90 C 131.88 29.54 125.91 40.56 131.79 40.52 C 131.47 43.45 133.13 44.40 135.88 44.24 C 136.28 50.04 135.76 55.88 136.26 61.68 C 138.83 65.41 141.84 68.82 140.05 73.99 C 141.41 76.38 143.12 79.07 140.08 81.18 C 140.30 85.21 145.00 87.78 145.98 91.92 C 145.20 92.00 143.64 92.16 142.86 92.24 C 137.22 93.10 142.64 84.91 137.90 84.19 C 133.67 83.78 137.93 77.07 134.91 76.11 C 131.76 76.33 130.78 74.60 131.97 70.91 C 132.14 68.89 129.91 71.86 129.02 72.03 C 127.09 71.24 131.47 62.57 127.03 64.67 C 126.92 61.70 127.30 58.60 126.28 55.74 C 125.59 43.73 126.55 31.68 125.41 19.69 C 125.29 18.32 125.98 17.05 126.25 15.74 Z" />
  </g>
  <g id="#9c67e7ff">
    <path fill="#9c67e7" opacity="1.00"
      d=" M 81.17 18.17 C 81.58 18.09 82.38 17.92 82.79 17.84 L 82.90 18.86 C 78.32 21.98 73.25 24.39 69.03 28.01 C 68.21 27.95 66.58 27.82 65.77 27.76 C 71.05 24.80 76.02 21.33 81.17 18.17 Z" />
  </g>
  <g id="#854feaff">
    <path fill="#854fea" opacity="1.00"
      d=" M 82.90 18.86 C 83.90 18.52 84.90 18.18 85.90 17.84 C 84.90 19.14 83.78 20.34 82.74 21.60 C 79.07 24.26 75.40 27.48 70.78 28.21 C 70.34 28.16 69.47 28.06 69.03 28.01 C 73.25 24.39 78.32 21.98 82.90 18.86 Z" />
  </g>
  <g id="#a1c5faff">
    <path fill="#a1c5fa" opacity="1.00"
      d=" M 156.12 20.74 C 162.75 23.16 168.06 29.23 175.23 29.83 C 180.23 32.10 184.85 35.12 189.50 38.02 C 187.98 38.32 186.42 38.25 184.88 38.27 L 184.17 37.91 C 182.82 36.57 181.31 35.38 179.62 34.52 C 172.22 32.14 165.88 27.37 158.75 24.34 C 157.03 23.94 156.79 22.09 156.12 20.74 Z" />
  </g>
  <g id="#6d41f4ff">
    <path fill="#6d41f4" opacity="1.00"
      d=" M 70.78 28.21 C 75.40 27.48 79.07 24.26 82.74 21.60 C 84.72 22.76 87.05 23.87 87.64 26.32 C 81.25 28.42 76.52 35.83 68.74 33.94 C 68.74 29.85 76.00 34.28 74.89 30.25 C 73.36 29.79 70.93 30.42 70.78 28.21 Z" />
  </g>
  <g id="#7b66f1ff">
    <path fill="#7b66f1" opacity="1.00"
      d=" M 62.12 30.09 C 63.31 29.28 64.48 28.42 65.77 27.76 C 66.58 27.82 68.21 27.95 69.03 28.01 C 65.15 31.85 59.39 32.94 54.83 35.83 L 54.09 36.19 C 53.53 36.08 52.40 35.88 51.83 35.78 C 55.23 33.84 58.92 32.37 62.12 30.09 Z" />
  </g>
  <g id="#614cf2ff">
    <path fill="#614cf2" opacity="1.00"
      d=" M 69.03 28.01 C 69.47 28.06 70.34 28.16 70.78 28.21 C 70.93 30.42 73.36 29.79 74.89 30.25 C 76.00 34.28 68.74 29.85 68.74 33.94 C 68.26 33.97 67.28 34.04 66.80 34.08 C 62.96 35.19 58.99 36.40 54.83 35.83 C 59.39 32.94 65.15 31.85 69.03 28.01 Z" />
  </g>
  <g id="#6fa9ecff">
    <path fill="#6fa9ec" opacity="1.00"
      d=" M 124.29 27.73 C 126.35 44.79 123.63 62.14 125.76 79.22 C 125.88 80.86 126.11 84.13 126.23 85.77 C 126.00 93.07 125.91 100.39 126.12 107.70 L 125.17 108.03 C 124.98 105.24 125.14 102.42 124.29 99.73 C 124.01 94.49 124.00 89.25 123.98 84.00 C 124.17 65.24 123.66 46.48 124.29 27.73 Z" />
  </g>
  <g id="#998bf1ff">
    <path fill="#998bf1" opacity="1.00"
      d=" M 46.94 36.04 C 49.98 33.88 54.34 32.01 57.96 30.04 C 59.34 30.05 60.73 30.07 62.12 30.09 C 58.92 32.37 55.23 33.84 51.83 35.78 C 51.42 35.88 50.60 36.08 50.19 36.19 C 49.38 36.15 47.75 36.08 46.94 36.04 Z" />
  </g>
  <g id="#7a37e9ff">
    <path fill="#7a37e9" opacity="1.00"
      d=" M 54.83 35.83 C 58.99 36.40 62.96 35.19 66.80 34.08 C 67.06 34.55 67.58 35.49 67.84 35.96 C 66.21 38.33 69.60 37.83 70.31 39.60 L 69.14 39.81 C 63.63 40.28 58.40 42.62 53.91 45.75 C 50.05 46.40 46.43 48.05 43.00 49.88 C 37.40 49.03 40.85 56.39 39.93 59.77 C 35.63 60.19 39.86 68.17 35.15 68.09 C 35.34 62.76 33.91 57.52 34.03 52.20 C 35.67 51.76 38.86 52.74 38.00 49.96 C 34.54 48.10 32.25 50.35 30.36 52.46 C 30.06 57.62 29.92 62.80 29.94 67.98 C 24.96 69.09 30.15 60.98 26.79 59.19 C 25.33 56.90 23.79 59.30 22.28 60.13 C 21.84 58.30 22.46 55.52 19.78 55.52 C 31.10 48.87 42.82 42.93 54.09 36.19 L 54.83 35.83 Z" />
  </g>
  <g id="#9e76e8f8">
    <path fill="#9e76e8" opacity="0.97"
      d=" M 3.14 60.11 C 17.62 52.50 31.74 44.09 46.03 36.05 L 46.94 36.04 C 47.75 36.08 49.38 36.15 50.19 36.19 C 36.29 44.40 22.06 52.04 7.99 59.96 C 6.46 61.10 4.53 60.90 2.73 60.84 L 3.14 60.11 Z" />
  </g>
  <g id="#8c55f1ff">
    <path fill="#8c55f1" opacity="1.00"
      d=" M 50.19 36.19 C 50.60 36.08 51.42 35.88 51.83 35.78 C 52.40 35.88 53.53 36.08 54.09 36.19 C 42.82 42.93 31.10 48.87 19.78 55.52 C 14.46 57.72 10.11 62.36 4.22 63.02 C 3.87 62.83 3.17 62.46 2.82 62.27 L 2.15 61.91 C 2.29 61.64 2.59 61.11 2.73 60.84 C 4.53 60.90 6.46 61.10 7.99 59.96 C 22.06 52.04 36.29 44.40 50.19 36.19 Z" />
  </g>
  <g id="#8234edff">
    <path fill="#8234ed" opacity="1.00"
      d=" M 67.84 35.96 C 70.91 36.45 73.28 38.47 75.77 40.14 C 75.72 36.58 76.49 33.76 81.68 36.08 C 80.82 42.01 88.26 41.18 91.99 41.16 C 92.98 44.23 90.32 44.10 88.06 44.19 C 87.23 46.75 90.41 45.74 91.88 46.25 C 91.93 48.69 92.05 53.57 92.11 56.00 C 97.60 57.97 92.19 47.81 99.84 51.78 C 99.91 50.30 100.05 47.33 100.12 45.85 C 100.44 47.25 101.07 50.07 101.39 51.47 C 104.72 51.52 103.07 55.84 105.94 56.23 C 106.06 65.41 106.13 74.59 105.73 83.76 C 105.38 85.15 105.09 86.56 104.79 87.96 C 104.21 87.27 103.63 86.57 103.05 85.88 C 103.01 88.66 102.92 91.44 102.78 94.23 C 100.78 91.68 104.61 84.29 100.01 83.93 C 97.43 83.64 96.61 80.56 94.22 79.86 C 93.70 81.39 94.88 84.82 92.18 83.95 C 95.40 75.51 84.35 77.58 83.71 71.18 C 82.63 67.97 79.07 67.79 76.10 67.79 C 76.03 62.56 75.98 57.33 75.94 52.10 C 75.20 52.07 73.74 52.01 73.00 51.97 L 72.00 51.93 C 71.64 47.88 73.98 42.78 70.31 39.60 C 69.60 37.83 66.21 38.33 67.84 35.96 Z" />
  </g>
  <g id="#80aef5ff">
    <path fill="#80aef5" opacity="1.00"
      d=" M 177.38 37.06 C 179.62 35.69 181.92 37.52 184.17 37.91 L 184.88 38.27 C 186.89 39.60 188.96 40.86 191.21 41.77 C 189.65 41.82 186.53 41.92 184.98 41.97 C 185.58 42.91 186.26 43.82 186.87 44.77 C 185.46 45.11 184.06 45.43 182.68 45.85 C 180.16 44.91 177.69 43.84 175.20 42.83 C 172.61 41.73 169.96 40.67 167.70 38.96 L 167.62 37.84 C 169.63 36.96 171.46 39.15 173.40 39.55 C 179.59 43.34 177.56 39.30 177.38 37.06 Z" />
  </g>
  <g id="#75b5e7ff">
    <path fill="#75b5e7" opacity="1.00"
      d=" M 160.00 39.97 C 162.12 38.05 164.78 36.94 167.62 37.84 L 167.70 38.96 C 163.34 37.85 159.61 41.31 161.22 45.73 C 160.75 93.47 161.08 141.21 161.04 188.95 C 159.94 187.13 159.20 185.05 158.83 182.71 C 158.59 179.22 158.00 175.73 158.18 172.22 C 158.92 162.82 160.25 153.45 160.03 144.00 C 159.97 109.32 160.01 74.65 160.00 39.97 Z" />
  </g>
  <g id="#a2aff5ff">
    <path fill="#a2aff5" opacity="1.00"
      d=" M 184.88 38.27 C 186.42 38.25 187.98 38.32 189.50 38.02 C 194.29 40.15 199.09 42.50 203.01 46.04 C 200.54 45.64 198.21 44.74 195.84 44.00 L 195.12 43.65 C 193.84 42.98 192.54 42.33 191.21 41.77 C 188.96 40.86 186.89 39.60 184.88 38.27 Z" />
  </g>
  <g id="#6391bbff">
    <path fill="#6391bb" opacity="1.00"
      d=" M 161.22 45.73 C 159.61 41.31 163.34 37.85 167.70 38.96 C 169.96 40.67 172.61 41.73 175.20 42.83 C 174.37 42.90 172.70 43.03 171.87 43.10 C 169.37 41.91 166.77 40.97 164.12 40.17 C 164.03 40.52 163.85 41.22 163.75 41.57 C 161.79 68.99 163.91 96.63 162.68 124.12 C 161.17 102.47 162.36 80.70 162.04 59.00 C 161.62 54.62 162.93 49.93 161.22 45.73 Z" />
  </g>
  <g id="#5928aeff">
    <path fill="#5928ae" opacity="1.00"
      d=" M 53.91 45.75 C 58.40 42.62 63.63 40.28 69.14 39.81 C 70.64 41.86 71.34 44.25 70.84 46.78 C 68.92 75.43 70.52 104.28 69.99 133.01 C 69.63 134.57 70.73 135.39 71.98 135.98 C 73.00 136.59 74.03 137.15 75.07 137.71 C 72.77 138.44 70.67 137.56 69.01 135.94 C 68.93 122.96 69.05 109.98 69.00 96.99 C 68.89 79.40 69.21 61.79 68.89 44.20 L 67.95 43.98 L 66.93 43.76 C 68.64 42.40 73.03 39.75 64.45 42.47 C 61.14 44.29 58.04 46.63 53.91 45.75 Z" />
  </g>
  <g id="#6d31d6ff">
    <path fill="#6d31d6" opacity="1.00"
      d=" M 69.14 39.81 L 70.31 39.60 C 73.98 42.78 71.64 47.88 72.00 51.93 C 72.08 68.04 71.74 84.16 72.25 100.26 C 71.99 110.73 71.59 121.27 72.34 131.71 C 72.80 133.11 73.05 134.69 74.17 135.76 C 84.18 134.44 93.82 139.05 103.86 138.11 C 104.97 138.50 106.25 139.28 106.80 137.72 C 107.17 123.89 107.16 110.03 106.74 96.20 C 107.01 94.59 107.55 91.38 107.82 89.77 C 108.26 106.51 107.88 123.26 107.99 140.01 C 97.17 141.27 86.57 136.37 75.85 137.63 L 75.07 137.71 C 74.03 137.15 73.00 136.59 71.98 135.98 C 71.10 132.06 70.95 128.01 70.98 124.01 C 70.92 98.27 71.20 72.52 70.84 46.78 C 71.34 44.25 70.64 41.86 69.14 39.81 Z" />
  </g>
  <g id="#82bfeeff">
    <path fill="#82bfee" opacity="1.00"
      d=" M 157.96 84.20 C 158.04 69.52 157.50 54.07 160.00 39.97 C 160.01 74.65 159.97 109.32 160.03 144.00 C 160.25 153.45 158.92 162.82 158.18 172.22 C 158.04 166.88 158.14 161.54 157.81 156.21 C 157.90 149.54 158.20 142.87 157.85 136.20 C 158.11 118.87 158.00 101.53 157.96 84.20 Z" />
  </g>
  <g id="#4a627feb">
    <path fill="#4a627f" opacity="0.92"
      d=" M 164.12 40.17 C 166.77 40.97 169.37 41.91 171.87 43.10 C 176.91 46.01 182.60 47.49 187.66 50.36 C 188.95 51.96 189.09 54.03 189.05 56.00 L 188.10 55.95 C 188.02 55.26 187.88 53.88 187.80 53.19 C 180.82 49.21 172.88 47.04 165.93 42.95 C 165.38 42.61 164.30 41.91 163.75 41.57 C 163.85 41.22 164.03 40.52 164.12 40.17 Z" />
  </g>
  <g id="#492c75ee">
    <path fill="#492c75" opacity="0.93"
      d=" M 64.45 42.47 C 73.03 39.75 68.64 42.40 66.93 43.76 C 59.61 48.11 51.18 50.38 43.78 54.66 L 42.98 55.07 C 43.04 54.37 43.15 52.96 43.21 52.26 C 46.61 50.52 49.86 48.34 53.67 47.62 C 53.73 47.16 53.85 46.22 53.91 45.75 C 58.04 46.63 61.14 44.29 64.45 42.47 Z" />
  </g>
  <g id="#4d6175a3">
    <path fill="#4d6175" opacity="0.64"
      d=" M 162.68 124.12 C 163.91 96.63 161.79 68.99 163.75 41.57 C 164.30 41.91 165.38 42.61 165.93 42.95 C 165.47 43.01 164.57 43.13 164.12 43.19 C 163.81 71.46 164.11 99.74 163.99 128.01 L 162.98 127.98 C 162.91 127.21 162.75 125.65 162.68 124.87 L 162.68 124.12 Z" />
  </g>
  <g id="#7a9ffaff">
    <path fill="#7a9ffa" opacity="1.00"
      d=" M 184.98 41.97 C 186.53 41.92 189.65 41.82 191.21 41.77 C 192.54 42.33 193.84 42.98 195.12 43.65 C 194.20 44.17 193.29 44.71 192.40 45.26 C 193.60 50.75 194.96 56.21 196.16 61.71 C 197.42 70.39 202.12 78.07 203.26 86.81 C 203.09 88.73 202.94 90.69 202.11 92.45 C 200.45 90.25 197.62 88.48 199.10 84.96 C 198.71 79.03 195.46 73.76 194.69 67.90 C 194.12 68.97 193.62 70.08 193.08 71.17 C 192.42 65.17 192.44 59.10 192.77 53.08 C 192.10 50.59 191.13 47.19 187.84 48.08 C 186.06 47.46 184.37 46.64 182.68 45.85 C 184.06 45.43 185.46 45.11 186.87 44.77 C 186.26 43.82 185.58 42.91 184.98 41.97 Z" />
  </g>
  <g id="#5f82bbff">
    <path fill="#5f82bb" opacity="1.00"
      d=" M 171.87 43.10 C 172.70 43.03 174.37 42.90 175.20 42.83 C 177.69 43.84 180.16 44.91 182.68 45.85 C 184.37 46.64 186.06 47.46 187.84 48.08 C 191.42 50.58 191.13 54.83 190.84 58.78 C 189.40 67.11 190.15 75.59 189.99 84.00 L 189.01 84.00 C 188.93 74.67 189.06 65.34 189.05 56.00 C 189.09 54.03 188.95 51.96 187.66 50.36 C 182.60 47.49 176.91 46.01 171.87 43.10 Z" />
  </g>
  <g id="#63429de1">
    <path fill="#63429d" opacity="0.88"
      d=" M 67.95 43.98 L 68.89 44.20 C 69.21 61.79 68.89 79.40 69.00 96.99 L 68.04 97.01 C 67.91 79.33 68.08 61.66 67.95 43.98 Z" />
  </g>
  <g id="#7993fcff">
    <path fill="#7993fc" opacity="1.00"
      d=" M 192.40 45.26 C 193.29 44.71 194.20 44.17 195.12 43.65 L 195.84 44.00 C 196.41 44.97 197.05 45.89 197.70 46.81 C 196.66 56.17 201.81 64.70 203.20 73.76 C 203.54 79.26 205.69 84.44 206.64 89.84 C 206.26 91.28 205.93 92.74 205.65 94.21 C 204.47 91.88 203.86 89.33 203.26 86.81 C 202.12 78.07 197.42 70.39 196.16 61.71 C 194.96 56.21 193.60 50.75 192.40 45.26 Z" />
  </g>
  <g id="#958ef9ff">
    <path fill="#958ef9" opacity="1.00"
      d=" M 195.84 44.00 C 198.21 44.74 200.54 45.64 203.01 46.04 C 209.62 51.07 216.95 55.08 224.09 59.29 C 223.78 59.51 223.14 59.94 222.82 60.16 C 221.89 59.72 220.94 59.31 219.99 58.93 C 213.04 55.79 207.32 49.79 199.91 47.83 C 199.35 47.57 198.25 47.06 197.70 46.81 C 197.05 45.89 196.41 44.97 195.84 44.00 Z" />
  </g>
  <g id="#5828a9ff">
    <path fill="#5828a9" opacity="1.00"
      d=" M 43.00 49.88 C 46.43 48.05 50.05 46.40 53.91 45.75 C 53.85 46.22 53.73 47.16 53.67 47.62 C 49.86 48.34 46.61 50.52 43.21 52.26 C 43.15 52.96 43.04 54.37 42.98 55.07 C 42.88 59.43 42.92 63.80 42.80 68.17 C 42.26 64.70 41.73 61.24 41.18 57.77 C 40.93 54.90 40.99 52.06 43.00 49.88 Z" />
  </g>
  <g id="#67a4d5ff">
    <path fill="#67a4d5" opacity="1.00"
      d=" M 161.22 45.73 C 162.93 49.93 161.62 54.62 162.04 59.00 C 162.36 80.70 161.17 102.47 162.68 124.12 L 162.68 124.87 C 161.33 145.77 162.08 166.80 162.17 187.73 L 163.11 188.04 L 164.17 188.38 C 164.11 188.78 163.99 189.58 163.93 189.98 L 163.10 190.27 C 162.59 189.94 161.55 189.28 161.04 188.95 C 161.08 141.21 160.75 93.47 161.22 45.73 Z" />
  </g>
  <g id="#aaa7f5ff">
    <path fill="#aaa7f5" opacity="1.00"
      d=" M 203.01 46.04 C 208.29 47.78 212.94 50.85 217.93 53.23 C 218.89 55.04 220.87 55.79 222.79 56.14 C 224.88 57.44 227.07 58.59 229.25 59.75 C 227.51 59.81 225.77 59.77 224.09 59.29 C 216.95 55.08 209.62 51.07 203.01 46.04 Z" />
  </g>
  <g id="#632ec0ff">
    <path fill="#632ec0" opacity="1.00"
      d=" M 69.99 133.01 C 70.52 104.28 68.92 75.43 70.84 46.78 C 71.20 72.52 70.92 98.27 70.98 124.01 C 70.95 128.01 71.10 132.06 71.98 135.98 C 70.73 135.39 69.63 134.57 69.99 133.01 Z" />
  </g>
  <g id="#7b82fcff">
    <path fill="#7b82fc" opacity="1.00"
      d=" M 203.20 73.76 C 201.81 64.70 196.66 56.17 197.70 46.81 C 198.25 47.06 199.35 47.57 199.91 47.83 C 198.69 51.32 201.70 54.59 201.94 58.01 C 203.24 62.86 204.38 67.75 205.29 72.69 C 206.76 73.86 208.42 74.78 210.01 75.78 C 211.21 75.05 212.36 74.25 213.53 73.47 C 213.52 68.38 215.21 62.67 219.64 59.72 C 219.36 63.02 221.77 64.94 223.97 66.90 C 221.04 69.63 222.38 74.16 221.90 77.76 C 221.52 77.94 220.77 78.30 220.39 78.49 C 221.33 82.28 218.75 84.30 216.60 86.53 C 216.84 89.28 215.08 94.61 211.38 93.89 C 209.81 88.60 206.52 83.80 206.88 78.01 C 206.32 78.66 205.76 79.31 205.20 79.96 C 205.01 77.75 204.49 75.60 203.20 73.76 Z" />
  </g>
  <g id="#779ce4ff">
    <path fill="#779ce4" opacity="1.00"
      d=" M 187.84 48.08 C 191.13 47.19 192.10 50.59 192.77 53.08 C 192.44 59.10 192.42 65.17 193.08 71.17 C 192.11 75.06 191.95 79.10 191.92 83.09 L 190.99 82.95 C 190.97 74.89 191.08 66.83 190.84 58.78 C 191.13 54.83 191.42 50.58 187.84 48.08 Z" />
  </g>
  <g id="#8078faff">
    <path fill="#8078fa" opacity="1.00"
      d=" M 199.91 47.83 C 207.32 49.79 213.04 55.79 219.99 58.93 L 219.64 59.72 C 215.21 62.67 213.52 68.38 213.53 73.47 C 212.36 74.25 211.21 75.05 210.01 75.78 C 208.42 74.78 206.76 73.86 205.29 72.69 C 204.38 67.75 203.24 62.86 201.94 58.01 C 201.70 54.59 198.69 51.32 199.91 47.83 Z" />
  </g>
  <g id="#7338f0ff">
    <path fill="#7338f0" opacity="1.00"
      d=" M 30.36 52.46 C 32.25 50.35 34.54 48.10 38.00 49.96 C 38.86 52.74 35.67 51.76 34.03 52.20 C 33.91 57.52 35.34 62.76 35.15 68.09 C 39.86 68.17 35.63 60.19 39.93 59.77 C 39.93 62.44 39.89 65.11 39.81 67.78 C 38.47 75.74 39.14 83.83 38.97 91.86 C 32.64 91.44 36.13 100.77 34.76 104.30 C 32.14 97.76 28.84 91.42 29.89 84.04 C 29.45 84.04 28.56 84.02 28.12 84.01 C 28.05 85.55 27.91 88.61 27.84 90.15 C 24.86 88.71 22.90 85.78 20.61 83.47 C 21.68 76.82 14.76 75.31 10.17 73.55 C 7.88 68.58 10.48 67.76 13.93 67.80 C 13.95 67.34 14.00 66.44 14.02 65.98 C 7.35 62.17 8.76 70.39 7.99 73.03 C 7.53 76.78 7.30 80.59 6.31 84.25 C 4.55 77.32 7.44 69.57 4.22 63.02 C 10.11 62.36 14.46 57.72 19.78 55.52 C 22.46 55.52 21.84 58.30 22.28 60.13 C 23.79 59.30 25.33 56.90 26.79 59.19 C 30.15 60.98 24.96 69.09 29.94 67.98 C 29.92 62.80 30.06 57.62 30.36 52.46 Z" />
  </g>
  <g id="#6737d6ff">
    <path fill="#6737d6" opacity="1.00"
      d=" M 39.93 59.77 C 40.85 56.39 37.40 49.03 43.00 49.88 C 40.99 52.06 40.93 54.90 41.18 57.77 C 40.79 85.18 41.07 112.60 41.01 140.01 C 40.91 142.14 42.55 143.71 43.78 145.25 L 43.83 146.10 L 42.98 146.28 C 39.12 145.64 39.37 141.00 38.86 138.03 C 39.25 134.78 39.69 131.51 39.75 128.23 C 40.15 108.09 40.16 87.93 39.81 67.78 C 39.89 65.11 39.93 62.44 39.93 59.77 Z" />
  </g>
  <g id="#7935e0ff">
    <path fill="#7935e0" opacity="1.00"
      d=" M 72.00 51.93 L 73.00 51.97 C 73.15 64.06 72.68 76.16 73.20 88.24 C 73.20 89.89 73.21 93.18 73.21 94.82 C 73.07 96.66 72.83 98.50 72.25 100.26 C 71.74 84.16 72.08 68.04 72.00 51.93 Z" />
  </g>
  <g id="#7d36efff">
    <path fill="#7d36ef" opacity="1.00"
      d=" M 73.00 51.97 C 73.74 52.01 75.20 52.07 75.94 52.10 C 75.98 57.33 76.03 62.56 76.10 67.79 C 79.07 67.79 82.63 67.97 83.71 71.18 C 84.35 77.58 95.40 75.51 92.18 83.95 C 94.88 84.82 93.70 81.39 94.22 79.86 C 96.61 80.56 97.43 83.64 100.01 83.93 C 104.61 84.29 100.78 91.68 102.78 94.23 C 102.07 102.88 101.76 111.56 102.90 120.19 C 102.15 119.27 101.39 118.37 100.68 117.43 C 100.95 111.90 95.69 107.46 90.45 107.51 C 88.44 105.56 86.44 103.59 84.62 101.47 C 84.88 96.60 80.84 92.32 76.24 91.58 C 76.16 89.05 76.04 86.52 75.89 83.99 C 73.35 83.50 74.00 86.70 73.20 88.24 C 72.68 76.16 73.15 64.06 73.00 51.97 Z" />
  </g>
  <g id="#25253133">
    <path fill="#252531" opacity="0.20"
      d=" M 217.93 53.23 C 220.00 52.92 222.48 53.81 222.79 56.14 C 220.87 55.79 218.89 55.04 217.93 53.23 Z" />
  </g>
  <g id="#5f478bcc">
    <path fill="#5f478b" opacity="0.80"
      d=" M 42.98 55.07 L 43.78 54.66 C 43.96 59.07 44.32 63.54 43.85 67.95 L 42.80 68.17 C 42.92 63.80 42.88 59.43 42.98 55.07 Z" />
  </g>
  <g id="#7bb9fcff">
    <path fill="#7bb9fc" opacity="1.00"
      d=" M 126.28 55.74 C 127.30 58.60 126.92 61.70 127.03 64.67 C 131.47 62.57 127.09 71.24 129.02 72.03 C 129.91 71.86 132.14 68.89 131.97 70.91 C 130.78 74.60 131.76 76.33 134.91 76.11 C 134.64 83.97 135.83 92.03 139.75 98.93 C 137.11 102.62 140.82 107.65 142.14 111.54 C 139.22 112.47 140.29 116.77 136.59 117.13 C 135.97 113.02 135.01 108.99 132.50 105.62 C 132.84 102.81 130.88 101.39 129.49 99.54 C 129.65 94.67 127.48 90.33 126.23 85.77 C 126.11 84.13 125.88 80.86 125.76 79.22 C 126.02 71.39 125.98 63.56 126.28 55.74 Z" />
  </g>
  <g id="#4d6a87c4">
    <path fill="#4d6a87" opacity="0.77"
      d=" M 188.10 55.95 L 189.05 56.00 C 189.06 65.34 188.93 74.67 189.01 84.00 C 188.95 95.67 189.05 107.33 188.99 119.00 L 188.01 119.00 C 188.03 97.98 187.90 76.97 188.10 55.95 Z" />
  </g>
  <g id="#5d30c0ff">
    <path fill="#5d30c0" opacity="1.00"
      d=" M 41.18 57.77 C 41.73 61.24 42.26 64.70 42.80 68.17 L 42.76 68.90 C 41.11 83.87 42.42 98.98 41.97 114.00 C 42.26 118.72 41.21 123.66 42.70 128.26 C 43.21 132.90 42.29 137.75 43.69 142.27 C 43.71 143.01 43.76 144.50 43.78 145.25 C 42.55 143.71 40.91 142.14 41.01 140.01 C 41.07 112.60 40.79 85.18 41.18 57.77 Z" />
  </g>
  <g id="#6ea0caff">
    <path fill="#6ea0ca" opacity="1.00"
      d=" M 189.99 84.00 C 190.15 75.59 189.40 67.11 190.84 58.78 C 191.08 66.83 190.97 74.89 190.99 82.95 C 191.10 114.02 190.81 145.10 191.15 176.17 C 190.53 176.89 189.88 177.59 189.22 178.27 C 189.24 177.77 189.28 176.77 189.30 176.27 C 190.90 145.57 189.57 114.75 189.99 84.00 Z" />
  </g>
  <g id="#7b8af6ff">
    <path fill="#7b8af6" opacity="1.00"
      d=" M 219.99 58.93 C 220.94 59.31 221.89 59.72 222.82 60.16 C 224.08 62.43 226.76 61.98 228.95 62.07 C 228.67 62.51 228.11 63.40 227.82 63.84 C 225.57 66.46 226.71 70.11 226.45 73.20 C 226.10 79.40 226.02 85.60 225.88 91.81 C 224.61 92.57 223.39 93.42 222.13 94.20 C 222.01 88.72 222.06 83.24 221.90 77.76 C 222.38 74.16 221.04 69.63 223.97 66.90 C 221.77 64.94 219.36 63.02 219.64 59.72 L 219.99 58.93 Z" />
  </g>
  <g id="#9198f5ff">
    <path fill="#9198f5" opacity="1.00"
      d=" M 224.09 59.29 C 225.77 59.77 227.51 59.81 229.25 59.75 L 230.04 60.04 L 229.94 60.85 C 229.69 61.16 229.20 61.77 228.95 62.07 C 226.76 61.98 224.08 62.43 222.82 60.16 C 223.14 59.94 223.78 59.51 224.09 59.29 Z" />
  </g>
  <g id="#594880bc">
    <path fill="#594880" opacity="0.74"
      d=" M 1.06 60.01 C 1.58 60.03 2.62 60.09 3.14 60.11 L 2.73 60.84 C 2.59 61.11 2.29 61.64 2.15 61.91 C 1.82 69.26 2.05 76.63 2.00 83.99 L 1.04 84.01 C 1.01 76.01 0.83 68.00 1.06 60.01 Z" />
  </g>
  <g id="#474f6388">
    <path fill="#474f63" opacity="0.53"
      d=" M 230.04 60.04 L 230.82 60.32 C 231.31 81.53 230.84 102.78 230.99 124.00 L 230.01 124.00 C 229.78 103.92 230.39 83.83 229.75 63.76 C 229.80 63.04 229.89 61.58 229.94 60.85 L 230.04 60.04 Z" />
  </g>
  <g id="#6379cfff">
    <path fill="#6379cf" opacity="1.00"
      d=" M 228.95 62.07 C 229.20 61.77 229.69 61.16 229.94 60.85 C 229.89 61.58 229.80 63.04 229.75 63.76 C 228.03 86.44 229.49 109.27 228.98 132.00 L 227.90 132.00 C 228.02 109.28 228.15 86.56 227.82 63.84 C 228.11 63.40 228.67 62.51 228.95 62.07 Z" />
  </g>
  <g id="#4e2eb0ff">
    <path fill="#4e2eb0" opacity="1.00"
      d=" M 2.15 61.91 L 2.82 62.27 C 2.96 62.88 3.22 64.11 3.36 64.72 C 1.85 89.17 4.26 113.55 4.02 137.98 C 4.25 138.48 4.72 139.50 4.96 140.00 L 5.73 140.43 C 7.18 141.67 10.08 141.70 9.89 144.14 C 7.34 144.16 5.39 142.45 3.05 141.74 C 2.71 131.43 3.75 121.03 2.21 110.79 L 2.11 109.89 C 2.05 105.92 2.01 101.96 1.99 98.00 C 2.01 93.33 2.04 88.66 2.00 83.99 C 2.05 76.63 1.82 69.26 2.15 61.91 Z" />
  </g>
  <g id="#6337dcff">
    <path fill="#6337dc" opacity="1.00"
      d=" M 2.82 62.27 C 3.17 62.46 3.87 62.83 4.22 63.02 C 7.44 69.57 4.55 77.32 6.31 84.25 C 5.84 93.42 5.96 102.61 6.05 111.78 C 5.93 121.33 6.20 130.89 5.73 140.43 L 4.96 140.00 C 4.85 114.92 5.74 89.67 3.36 64.72 C 3.22 64.11 2.96 62.88 2.82 62.27 Z" />
  </g>
  <g id="#6e84eeff">
    <path fill="#6e84ee" opacity="1.00"
      d=" M 226.45 73.20 C 226.71 70.11 225.57 66.46 227.82 63.84 C 228.15 86.56 228.02 109.28 227.90 132.00 L 226.80 131.69 C 226.96 126.43 227.05 121.17 227.00 115.91 C 227.28 107.85 226.46 99.83 225.88 91.81 C 226.02 85.60 226.10 79.40 226.45 73.20 Z" />
  </g>
  <g id="#5d70b0ff">
    <path fill="#5d70b0" opacity="1.00"
      d=" M 228.98 132.00 C 229.49 109.27 228.03 86.44 229.75 63.76 C 230.39 83.83 229.78 103.92 230.01 124.00 C 230.00 126.66 229.99 129.33 229.98 132.00 L 228.98 132.00 Z" />
  </g>
  <g id="#5832c5ff">
    <path fill="#5832c5" opacity="1.00"
      d=" M 3.36 64.72 C 5.74 89.67 4.85 114.92 4.96 140.00 C 4.72 139.50 4.25 138.48 4.02 137.98 C 4.26 113.55 1.85 89.17 3.36 64.72 Z" />
  </g>
  <g id="#6d3af3ff">
    <path fill="#6d3af3" opacity="1.00"
      d=" M 7.99 73.03 C 8.76 70.39 7.35 62.17 14.02 65.98 C 14.00 66.44 13.95 67.34 13.93 67.80 C 10.48 67.76 7.88 68.58 10.17 73.55 C 14.76 75.31 21.68 76.82 20.61 83.47 C 22.90 85.78 24.86 88.71 27.84 90.15 C 27.91 88.61 28.05 85.55 28.12 84.01 C 28.56 84.02 29.45 84.04 29.89 84.04 C 28.84 91.42 32.14 97.76 34.76 104.30 C 36.13 100.77 32.64 91.44 38.97 91.86 C 39.33 103.98 38.22 116.17 39.75 128.23 C 39.69 131.51 39.25 134.78 38.86 138.03 C 36.14 138.00 30.71 137.95 28.00 137.93 C 28.01 136.50 28.04 133.64 28.05 132.21 C 30.52 131.58 35.33 132.97 31.82 127.21 C 30.00 125.73 30.84 121.89 28.12 121.92 C 28.05 123.48 27.92 126.59 27.85 128.14 C 24.11 126.13 21.73 122.24 18.47 119.52 C 15.57 117.58 16.03 112.71 12.21 111.90 C 11.74 113.53 12.81 116.89 10.00 116.01 C 6.53 117.02 9.38 111.51 6.05 111.78 C 5.96 102.61 5.84 93.42 6.31 84.25 C 7.30 80.59 7.53 76.78 7.99 73.03 Z" />
  </g>
  <g id="#6c38e3ff">
    <path fill="#6c38e3" opacity="1.00"
      d=" M 38.97 91.86 C 39.14 83.83 38.47 75.74 39.81 67.78 C 40.16 87.93 40.15 108.09 39.75 128.23 C 38.22 116.17 39.33 103.98 38.97 91.86 Z" />
  </g>
  <g id="#5932a9ff">
    <path fill="#5932a9" opacity="1.00"
      d=" M 42.80 68.17 L 43.85 67.95 C 44.22 88.63 43.88 109.32 44.01 130.00 C 43.95 134.09 43.84 138.18 43.69 142.27 C 42.29 137.75 43.21 132.90 42.70 128.26 C 43.18 108.49 43.17 88.68 42.76 68.90 L 42.80 68.17 Z" />
  </g>
  <g id="#4a5a6f9f">
    <path fill="#4a5a6f" opacity="0.62"
      d=" M 121.01 68.00 L 122.00 68.01 C 121.99 92.00 122.02 116.00 121.99 140.00 L 121.01 140.00 C 120.99 116.00 120.99 92.00 121.01 68.00 Z" />
  </g>
  <g id="#5c7cb1ff">
    <path fill="#5c7cb1" opacity="1.00"
      d=" M 122.00 68.01 L 122.99 67.99 C 123.03 73.33 122.96 78.66 123.00 84.00 C 122.99 118.64 123.01 153.29 123.00 187.93 L 122.01 188.01 C 121.96 172.01 122.04 156.00 121.99 140.00 C 122.02 116.00 121.99 92.00 122.00 68.01 Z" />
  </g>
  <g id="#76adfcff">
    <path fill="#76adfc" opacity="1.00"
      d=" M 193.08 71.17 C 193.62 70.08 194.12 68.97 194.69 67.90 C 195.46 73.76 198.71 79.03 199.10 84.96 C 197.62 88.48 200.45 90.25 202.11 92.45 C 205.59 104.73 210.54 116.50 214.36 128.68 C 215.72 132.49 217.10 136.31 219.14 139.82 C 221.88 144.74 221.79 151.02 226.01 155.10 L 226.23 155.84 C 226.10 158.63 225.98 161.41 225.87 164.20 C 224.64 161.14 223.05 158.25 221.96 155.14 C 222.42 151.24 219.51 148.27 218.23 144.83 C 213.92 133.94 210.03 123.01 205.79 112.13 C 202.58 99.86 195.02 88.71 194.81 75.80 C 192.33 78.62 193.25 82.68 192.54 86.14 C 192.32 85.12 192.11 84.11 191.92 83.09 C 191.95 79.10 192.11 75.06 193.08 71.17 Z" />
  </g>
  <g id="#562bb5ff">
    <path fill="#562bb5" opacity="1.00"
      d=" M 41.97 114.00 C 42.42 98.98 41.11 83.87 42.76 68.90 C 43.17 88.68 43.18 108.49 42.70 128.26 C 41.21 123.66 42.26 118.72 41.97 114.00 Z" />
  </g>
  <g id="#80c4fdff">
    <path fill="#80c4fd" opacity="1.00"
      d=" M 140.05 73.99 C 145.32 73.94 150.59 73.97 155.86 74.07 C 155.94 76.46 156.10 81.25 156.18 83.64 C 156.63 83.78 157.52 84.06 157.96 84.20 C 158.00 101.53 158.11 118.87 157.85 136.20 C 158.48 131.87 156.43 128.98 153.33 126.69 C 152.63 122.94 152.03 119.13 150.43 115.64 C 148.94 112.70 152.14 110.46 153.02 107.88 C 150.75 107.62 149.63 109.47 148.39 110.97 C 147.88 107.37 144.04 105.07 145.46 101.01 C 145.55 97.88 144.04 95.05 142.86 92.24 C 143.64 92.16 145.20 92.00 145.98 91.92 C 145.00 87.78 140.30 85.21 140.08 81.18 C 143.12 79.07 141.41 76.38 140.05 73.99 Z" />
  </g>
  <g id="#7489fcff">
    <path fill="#7489fc" opacity="1.00"
      d=" M 203.20 73.76 C 204.49 75.60 205.01 77.75 205.20 79.96 C 205.76 79.31 206.32 78.66 206.88 78.01 C 206.52 83.80 209.81 88.60 211.38 93.89 C 215.08 94.61 216.84 89.28 216.60 86.53 C 218.75 84.30 221.33 82.28 220.39 78.49 C 220.77 78.30 221.52 77.94 221.90 77.76 C 222.06 83.24 222.01 88.72 222.13 94.20 C 223.39 98.58 221.86 102.02 218.54 104.46 C 218.94 109.05 213.14 109.10 211.60 105.48 C 211.01 99.96 208.50 94.98 206.64 89.84 C 205.69 84.44 203.54 79.26 203.20 73.76 Z" />
  </g>
  <g id="#7ac0fcff">
    <path fill="#7ac0fc" opacity="1.00"
      d=" M 134.91 76.11 C 137.93 77.07 133.67 83.78 137.90 84.19 C 142.64 84.91 137.22 93.10 142.86 92.24 C 144.04 95.05 145.55 97.88 145.46 101.01 C 144.04 105.07 147.88 107.37 148.39 110.97 C 149.63 109.47 150.75 107.62 153.02 107.88 C 152.14 110.46 148.94 112.70 150.43 115.64 C 152.03 119.13 152.63 122.94 153.33 126.69 C 156.43 128.98 158.48 131.87 157.85 136.20 C 158.20 142.87 157.90 149.54 157.81 156.21 C 156.83 153.62 158.03 149.88 156.13 147.73 C 156.05 149.35 155.89 152.59 155.81 154.21 C 150.92 147.65 150.47 138.71 146.42 131.64 C 144.05 125.18 144.49 117.99 142.14 111.54 C 140.82 107.65 137.11 102.62 139.75 98.93 C 135.83 92.03 134.64 83.97 134.91 76.11 Z" />
  </g>
  <g id="#7ab5fdff">
    <path fill="#7ab5fd" opacity="1.00"
      d=" M 192.54 86.14 C 193.25 82.68 192.33 78.62 194.81 75.80 C 195.02 88.71 202.58 99.86 205.79 112.13 C 210.03 123.01 213.92 133.94 218.23 144.83 C 219.51 148.27 222.42 151.24 221.96 155.14 C 221.30 153.07 220.67 151.26 219.21 153.88 C 217.49 145.71 211.14 139.13 210.10 130.74 C 205.09 123.80 204.08 115.21 200.02 107.88 C 196.46 103.23 196.28 96.85 194.21 91.76 C 193.99 93.37 193.56 96.59 193.35 98.20 C 193.05 96.69 192.69 95.19 192.25 93.73 C 192.25 91.19 192.29 88.66 192.54 86.14 Z" />
  </g>
  <g id="#7ab3e0ff">
    <path fill="#7ab3e0" opacity="1.00"
      d=" M 190.99 82.95 L 191.92 83.09 C 192.11 84.11 192.32 85.12 192.54 86.14 C 192.29 88.66 192.25 91.19 192.25 93.73 C 191.63 120.76 192.25 147.82 191.95 174.86 C 191.75 175.19 191.35 175.84 191.15 176.17 C 190.81 145.10 191.10 114.02 190.99 82.95 Z" />
  </g>
  <g id="#544a6b95">
    <path fill="#544a6b" opacity="0.58"
      d=" M 1.04 84.01 L 2.00 83.99 C 2.04 88.66 2.01 93.33 1.99 98.00 L 1.02 98.00 C 0.97 93.34 0.84 88.67 1.04 84.01 Z" />
  </g>
  <g id="#7837f1ff">
    <path fill="#7837f1" opacity="1.00"
      d=" M 73.20 88.24 C 74.00 86.70 73.35 83.50 75.89 83.99 C 76.04 86.52 76.16 89.05 76.24 91.58 C 80.84 92.32 84.88 96.60 84.62 101.47 C 86.44 103.59 88.44 105.56 90.45 107.51 C 95.69 107.46 100.95 111.90 100.68 117.43 C 101.39 118.37 102.15 119.27 102.90 120.19 C 103.20 125.53 107.17 131.11 104.31 136.27 C 100.13 136.15 95.95 136.00 91.78 135.82 C 93.04 134.18 95.19 134.39 96.98 133.88 C 96.15 132.29 93.77 132.43 92.31 131.58 C 92.19 129.98 91.95 126.76 91.83 125.15 C 89.28 123.57 80.88 127.94 83.58 120.38 C 81.44 118.31 79.35 116.00 76.25 115.53 C 74.14 108.57 77.82 101.18 73.21 94.82 C 73.21 93.18 73.20 89.89 73.20 88.24 Z" />
  </g>
  <g id="#7b36e7ff">
    <path fill="#7b36e7" opacity="1.00"
      d=" M 104.79 87.96 C 105.09 86.56 105.38 85.15 105.73 83.76 C 105.96 87.92 106.20 92.07 106.74 96.20 C 107.16 110.03 107.17 123.89 106.80 137.72 C 106.25 139.28 104.97 138.50 103.86 138.11 C 103.97 137.65 104.20 136.73 104.31 136.27 C 107.17 131.11 103.20 125.53 102.90 120.19 C 101.76 111.56 102.07 102.88 102.78 94.23 C 102.92 91.44 103.01 88.66 103.05 85.88 C 103.63 86.57 104.21 87.27 104.79 87.96 Z" />
  </g>
  <g id="#6486d3ff">
    <path fill="#6486d3" opacity="1.00"
      d=" M 123.00 84.00 L 123.98 84.00 C 124.00 89.25 124.01 94.49 124.29 99.73 C 123.74 127.22 123.95 154.73 124.18 182.22 C 124.05 184.19 124.00 186.17 123.95 188.14 L 123.00 187.93 C 123.01 153.29 122.99 118.64 123.00 84.00 Z" />
  </g>
  <g id="#6294bbff">
    <path fill="#6294bb" opacity="1.00"
      d=" M 189.01 84.00 L 189.99 84.00 C 189.57 114.75 190.90 145.57 189.30 176.27 C 188.65 157.19 189.17 138.09 188.99 119.00 C 189.05 107.33 188.95 95.67 189.01 84.00 Z" />
  </g>
  <g id="#73b0fcff">
    <path fill="#73b0fc" opacity="1.00"
      d=" M 126.23 85.77 C 127.48 90.33 129.65 94.67 129.49 99.54 C 130.88 101.39 132.84 102.81 132.50 105.62 C 135.01 108.99 135.97 113.02 136.59 117.13 C 138.12 123.64 140.23 130.04 140.16 136.81 C 140.10 139.48 140.08 142.16 140.09 144.84 C 140.00 147.97 139.94 151.13 139.72 154.26 C 137.48 142.73 133.50 131.64 129.52 120.60 C 129.03 116.14 127.30 111.99 126.12 107.70 C 125.91 100.39 126.00 93.07 126.23 85.77 Z" />
  </g>
  <g id="#70a1fbff">
    <path fill="#70a1fb" opacity="1.00"
      d=" M 203.26 86.81 C 203.86 89.33 204.47 91.88 205.65 94.21 C 208.89 103.50 211.86 112.87 215.07 122.11 C 217.95 132.04 221.98 141.64 225.80 151.23 C 225.87 152.52 225.94 153.81 226.01 155.10 C 221.79 151.02 221.88 144.74 219.14 139.82 C 217.10 136.31 215.72 132.49 214.36 128.68 C 210.54 116.50 205.59 104.73 202.11 92.45 C 202.94 90.69 203.09 88.73 203.26 86.81 Z" />
  </g>
  <g id="#7090f9ff">
    <path fill="#7090f9" opacity="1.00"
      d=" M 205.65 94.21 C 205.93 92.74 206.26 91.28 206.64 89.84 C 208.50 94.98 211.01 99.96 211.60 105.48 C 213.14 109.10 218.94 109.05 218.54 104.46 C 221.86 102.02 223.39 98.58 222.13 94.20 C 223.39 93.42 224.61 92.57 225.88 91.81 C 226.46 99.83 227.28 107.85 227.00 115.91 C 224.91 115.89 222.74 115.93 221.25 117.60 C 217.74 111.67 222.68 125.81 218.07 124.00 C 216.11 124.22 217.40 121.09 216.82 119.91 C 216.22 120.63 215.64 121.37 215.07 122.11 C 211.86 112.87 208.89 103.50 205.65 94.21 Z" />
  </g>
  <g id="#7bbefcff">
    <path fill="#7bbefc" opacity="1.00"
      d=" M 194.21 91.76 C 196.28 96.85 196.46 103.23 200.02 107.88 C 204.08 115.21 205.09 123.80 210.10 130.74 C 211.14 139.13 217.49 145.71 219.21 153.88 C 220.67 151.26 221.30 153.07 221.96 155.14 C 223.05 158.25 224.64 161.14 225.87 164.20 C 225.92 167.53 225.96 170.88 225.84 174.21 C 224.24 171.99 224.51 164.93 220.09 166.80 C 220.17 165.61 220.38 164.44 220.47 163.25 C 213.35 157.08 212.45 146.83 208.23 138.85 C 208.10 136.04 204.10 136.62 204.02 133.97 C 203.66 131.33 201.12 129.73 200.76 127.12 C 199.93 124.89 201.06 122.60 200.87 120.33 C 199.29 119.83 197.70 119.39 196.16 118.78 C 196.89 115.02 195.92 111.10 194.20 107.77 C 193.97 109.39 193.51 112.63 193.28 114.25 C 193.18 108.90 192.61 103.52 193.35 98.20 C 193.56 96.59 193.99 93.37 194.21 91.76 Z" />
  </g>
  <g id="#7fc1efff">
    <path fill="#7fc1ef" opacity="1.00"
      d=" M 192.25 93.73 C 192.69 95.19 193.05 96.69 193.35 98.20 C 192.61 103.52 193.18 108.90 193.28 114.25 C 192.81 124.91 192.88 135.60 193.28 146.27 C 192.71 156.45 193.24 166.65 192.90 176.84 C 192.44 178.51 190.25 178.90 189.07 180.04 C 189.10 179.60 189.18 178.71 189.22 178.27 C 189.88 177.59 190.53 176.89 191.15 176.17 C 191.35 175.84 191.75 175.19 191.95 174.86 C 192.25 147.82 191.63 120.76 192.25 93.73 Z" />
  </g>
  <g id="#7337eeff">
    <path fill="#7337ee" opacity="1.00"
      d=" M 73.21 94.82 C 77.82 101.18 74.14 108.57 76.25 115.53 C 79.35 116.00 81.44 118.31 83.58 120.38 C 80.88 127.94 89.28 123.57 91.83 125.15 C 91.95 126.76 92.19 129.98 92.31 131.58 C 93.77 132.43 96.15 132.29 96.98 133.88 C 95.19 134.39 93.04 134.18 91.78 135.82 C 95.95 136.00 100.13 136.15 104.31 136.27 C 104.20 136.73 103.97 137.65 103.86 138.11 C 93.82 139.05 84.18 134.44 74.17 135.76 C 73.05 134.69 72.80 133.11 72.34 131.71 C 71.59 121.27 71.99 110.73 72.25 100.26 C 72.83 98.50 73.07 96.66 73.21 94.82 Z" />
  </g>
  <g id="#5d4989c6">
    <path fill="#5d4989" opacity="0.78"
      d=" M 68.04 97.01 L 69.00 96.99 C 69.05 109.98 68.93 122.96 69.01 135.94 C 69.02 136.42 69.03 137.38 69.04 137.86 C 69.03 138.37 69.02 139.40 69.01 139.91 L 68.02 140.03 C 68.01 125.69 67.91 111.35 68.04 97.01 Z" />
  </g>
  <g id="#4d455c7b">
    <path fill="#4d455c" opacity="0.48"
      d=" M 1.02 98.00 L 1.99 98.00 C 2.01 101.96 2.05 105.92 2.11 109.89 L 1.10 110.03 C 0.94 106.02 0.91 102.01 1.02 98.00 Z" />
  </g>
  <g id="#6c92ecff">
    <path fill="#6c92ec" opacity="1.00"
      d=" M 124.29 99.73 C 125.14 102.42 124.98 105.24 125.17 108.03 C 125.66 112.27 125.07 116.62 126.17 120.78 C 125.65 127.94 126.75 135.04 128.32 142.00 C 125.28 141.92 125.62 145.48 125.43 147.68 C 126.96 158.49 124.52 169.27 125.01 180.09 C 124.80 180.63 124.39 181.69 124.18 182.22 C 123.95 154.73 123.74 127.22 124.29 99.73 Z" />
  </g>
  <g id="#6aa4fbff">
    <path fill="#6aa4fb" opacity="1.00"
      d=" M 125.17 108.03 L 126.12 107.70 C 127.30 111.99 129.03 116.14 129.52 120.60 C 133.50 131.64 137.48 142.73 139.72 154.26 C 139.74 157.68 139.50 161.41 141.81 164.20 C 146.41 171.07 144.40 179.84 147.92 187.03 C 151.56 196.84 152.78 207.35 153.31 217.72 C 153.81 220.61 157.00 220.70 159.35 220.90 C 158.83 221.23 157.80 221.90 157.28 222.23 C 155.23 222.37 153.21 222.78 151.16 222.91 C 148.63 203.85 145.22 184.68 138.56 166.59 C 136.60 158.42 133.33 150.49 132.94 142.01 C 132.93 140.18 131.37 139.03 130.52 137.58 C 128.34 132.18 127.89 126.32 126.17 120.78 C 125.07 116.62 125.66 112.27 125.17 108.03 Z" />
  </g>
  <g id="#7dc5faff">
    <path fill="#7dc5fa" opacity="1.00"
      d=" M 194.20 107.77 C 195.92 111.10 196.89 115.02 196.16 118.78 C 197.70 119.39 199.29 119.83 200.87 120.33 C 201.06 122.60 199.93 124.89 200.76 127.12 C 201.12 129.73 203.66 131.33 204.02 133.97 C 204.10 136.62 208.10 136.04 208.23 138.85 C 212.45 146.83 213.35 157.08 220.47 163.25 C 220.38 164.44 220.17 165.61 220.09 166.80 C 224.51 164.93 224.24 171.99 225.84 174.21 C 227.32 177.83 226.22 181.14 223.99 184.14 C 215.50 188.51 207.80 194.27 199.09 198.24 C 200.90 194.67 204.46 192.48 208.13 191.22 C 214.03 189.25 217.51 183.65 222.89 180.77 C 221.68 178.82 220.41 176.92 219.44 174.84 C 216.04 172.37 215.04 168.15 213.40 164.54 C 208.05 159.02 206.88 151.12 203.54 144.43 C 199.72 144.53 198.18 141.30 197.65 138.02 C 196.46 138.24 195.78 139.27 194.95 140.04 C 194.96 137.29 194.97 131.79 194.97 129.04 L 194.03 128.96 C 193.49 134.67 194.94 140.69 193.28 146.27 C 192.88 135.60 192.81 124.91 193.28 114.25 C 193.51 112.63 193.97 109.39 194.20 107.77 Z" />
  </g>
  <g id="#3c384556">
    <path fill="#3c3845" opacity="0.34"
      d=" M 1.10 110.03 L 2.11 109.89 L 2.21 110.79 C 2.13 115.19 2.04 119.59 1.99 124.00 L 1.03 124.00 C 1.00 119.34 0.77 114.68 1.10 110.03 Z" />
  </g>
  <g id="#5842a6ff">
    <path fill="#5842a6" opacity="1.00"
      d=" M 2.21 110.79 C 3.75 121.03 2.71 131.43 3.05 141.74 L 2.06 142.00 C 2.04 141.50 2.01 140.50 1.99 140.00 C 2.00 134.66 2.02 129.33 1.99 124.00 C 2.04 119.59 2.13 115.19 2.21 110.79 Z" />
  </g>
  <g id="#673cf3ff">
    <path fill="#673cf3" opacity="1.00"
      d=" M 6.05 111.78 C 9.38 111.51 6.53 117.02 10.00 116.01 C 12.81 116.89 11.74 113.53 12.21 111.90 C 16.03 112.71 15.57 117.58 18.47 119.52 C 21.73 122.24 24.11 126.13 27.85 128.14 C 27.92 126.59 28.05 123.48 28.12 121.92 C 30.84 121.89 30.00 125.73 31.82 127.21 C 35.33 132.97 30.52 131.58 28.05 132.21 C 28.04 133.64 28.01 136.50 28.00 137.93 C 30.71 137.95 36.14 138.00 38.86 138.03 C 39.37 141.00 39.12 145.64 42.98 146.28 C 40.06 147.94 41.99 151.42 44.40 152.51 C 49.51 154.90 54.18 158.51 59.99 159.00 C 65.69 159.90 71.21 161.97 77.01 162.11 C 76.69 165.39 76.38 168.70 75.79 171.95 C 71.97 172.27 68.91 169.63 65.13 169.79 C 59.00 165.79 51.05 164.48 44.12 167.10 C 38.81 166.47 33.47 166.12 28.12 165.86 C 28.11 163.23 28.03 160.62 27.88 158.00 C 21.83 158.09 15.80 161.55 9.79 159.85 C 13.77 158.94 18.60 159.77 21.92 156.84 C 21.74 155.88 21.51 154.94 21.24 154.00 C 23.93 149.10 17.63 146.88 14.24 144.73 C 12.89 143.76 11.40 142.94 9.89 144.14 C 10.08 141.70 7.18 141.67 5.73 140.43 C 6.20 130.89 5.93 121.33 6.05 111.78 Z" />
  </g>
  <g id="#74bbfcff">
    <path fill="#74bbfc" opacity="1.00"
      d=" M 136.59 117.13 C 140.29 116.77 139.22 112.47 142.14 111.54 C 144.49 117.99 144.05 125.18 146.42 131.64 C 150.47 138.71 150.92 147.65 155.81 154.21 C 155.89 152.59 156.05 149.35 156.13 147.73 C 158.03 149.88 156.83 153.62 157.81 156.21 C 158.14 161.54 158.04 166.88 158.18 172.22 C 158.00 175.73 158.59 179.22 158.83 182.71 C 158.04 187.16 158.17 191.69 157.87 196.19 C 154.86 192.08 157.66 185.87 155.70 181.20 C 154.36 178.38 154.54 174.95 152.43 172.53 C 149.73 169.35 149.82 164.92 148.83 161.04 C 148.26 161.71 147.68 162.39 147.11 163.07 C 147.19 156.56 144.59 150.48 143.79 144.10 C 143.34 141.33 141.78 139.01 140.16 136.81 C 140.23 130.04 138.12 123.64 136.59 117.13 Z" />
  </g>
  <g id="#6895f8ff">
    <path fill="#6895f8" opacity="1.00"
      d=" M 218.07 124.00 C 222.68 125.81 217.74 111.67 221.25 117.60 C 222.74 115.93 224.91 115.89 227.00 115.91 C 227.05 121.17 226.96 126.43 226.80 131.69 C 225.60 138.14 226.16 144.72 225.80 151.23 C 221.98 141.64 217.95 132.04 215.07 122.11 C 215.64 121.37 216.22 120.63 216.82 119.91 C 217.40 121.09 216.11 124.22 218.07 124.00 Z" />
  </g>
  <g id="#4c67779a">
    <path fill="#4c6777" opacity="0.60"
      d=" M 188.01 119.00 L 188.99 119.00 C 189.17 138.09 188.65 157.19 189.30 176.27 C 189.28 176.77 189.24 177.77 189.22 178.27 C 189.18 178.71 189.10 179.60 189.07 180.04 C 188.84 180.30 188.40 180.83 188.18 181.09 C 187.81 160.39 188.07 139.69 188.01 119.00 Z" />
  </g>
  <g id="#6c99faff">
    <path fill="#6c99fa" opacity="1.00"
      d=" M 126.17 120.78 C 127.89 126.32 128.34 132.18 130.52 137.58 C 131.37 139.03 132.93 140.18 132.94 142.01 C 133.33 150.49 136.60 158.42 138.56 166.59 C 145.22 184.68 148.63 203.85 151.16 222.91 C 153.21 222.78 155.23 222.37 157.28 222.23 C 154.47 224.21 151.36 225.73 148.28 227.24 C 147.80 222.54 146.67 217.81 147.48 213.09 C 145.16 206.99 145.14 200.40 143.81 194.08 C 140.89 184.27 138.97 174.21 136.76 164.24 C 136.26 164.21 135.27 164.14 134.77 164.11 C 133.03 158.82 132.83 153.17 131.18 147.89 C 130.34 145.77 131.94 141.23 128.32 142.00 C 126.75 135.04 125.65 127.94 126.17 120.78 Z" />
  </g>
  <g id="#2523292f">
    <path fill="#252329" opacity="0.18"
      d=" M 1.03 124.00 L 1.99 124.00 C 2.02 129.33 2.00 134.66 1.99 140.00 L 1.02 140.00 C 0.93 134.66 0.93 129.33 1.03 124.00 Z" />
  </g>
  <g id="#4a5c73aa">
    <path fill="#4a5c73" opacity="0.67"
      d=" M 230.01 124.00 L 230.99 124.00 C 230.88 144.21 231.26 164.44 230.82 184.65 L 230.16 185.17 C 230.00 178.44 230.02 171.72 229.99 164.99 C 230.01 153.99 230.02 143.00 229.98 132.00 C 229.99 129.33 230.00 126.66 230.01 124.00 Z" />
  </g>
  <g id="#5b97c3ff">
    <path fill="#5b97c3" opacity="1.00"
      d=" M 162.17 187.73 C 162.08 166.80 161.33 145.77 162.68 124.87 C 162.75 125.65 162.91 127.21 162.98 127.98 C 163.13 148.00 162.80 168.02 163.11 188.04 L 162.17 187.73 Z" />
  </g>
  <g id="#6a94b5ff">
    <path fill="#6a94b5" opacity="1.00"
      d=" M 162.98 127.98 L 163.99 128.01 C 164.11 139.92 163.73 151.83 164.28 163.74 C 163.95 171.94 163.85 180.17 164.17 188.38 L 163.11 188.04 C 162.80 168.02 163.13 148.00 162.98 127.98 Z" />
  </g>
  <g id="#7fcefcff">
    <path fill="#7fcefc" opacity="1.00"
      d=" M 194.03 128.96 L 194.97 129.04 C 194.97 131.79 194.96 137.29 194.95 140.04 C 195.78 139.27 196.46 138.24 197.65 138.02 C 198.18 141.30 199.72 144.53 203.54 144.43 C 206.88 151.12 208.05 159.02 213.40 164.54 C 215.04 168.15 216.04 172.37 219.44 174.84 C 220.41 176.92 221.68 178.82 222.89 180.77 C 217.51 183.65 214.03 189.25 208.13 191.22 C 204.46 192.48 200.90 194.67 199.09 198.24 C 196.70 200.04 194.03 201.42 191.41 202.86 C 188.78 201.62 186.31 202.60 184.93 205.06 C 183.45 204.35 182.30 203.16 181.02 202.17 C 180.07 202.84 179.19 203.60 178.21 204.24 C 178.28 201.59 178.11 198.98 177.71 196.39 C 175.17 194.31 171.97 194.55 168.95 193.93 C 174.09 189.67 180.89 187.89 186.71 184.74 C 188.04 183.98 187.89 182.39 188.18 181.09 C 188.40 180.83 188.84 180.30 189.07 180.04 C 190.25 178.90 192.44 178.51 192.90 176.84 C 193.24 166.65 192.71 156.45 193.28 146.27 C 194.94 140.69 193.49 134.67 194.03 128.96 Z" />
  </g>
  <g id="#312e3c46">
    <path fill="#312e3c" opacity="0.27"
      d=" M 44.01 130.00 L 44.98 130.00 C 44.98 135.33 44.99 140.66 45.02 145.99 C 44.99 148.91 51.38 148.20 50.76 151.30 C 48.48 150.24 46.22 149.15 44.01 147.95 C 43.97 147.49 43.87 146.57 43.83 146.10 L 43.78 145.25 C 43.76 144.50 43.71 143.01 43.69 142.27 C 43.84 138.18 43.95 134.09 44.01 130.00 Z" />
  </g>
  <g id="#5a95e9ff">
    <path fill="#5a95e9" opacity="1.00"
      d=" M 225.80 151.23 C 226.16 144.72 225.60 138.14 226.80 131.69 L 227.90 132.00 C 228.03 141.73 228.08 151.46 227.92 161.18 L 227.87 162.22 C 227.40 160.06 226.85 157.94 226.23 155.84 L 226.01 155.10 C 225.94 153.81 225.87 152.52 225.80 151.23 Z" />
  </g>
  <g id="#5084d5ff">
    <path fill="#5084d5" opacity="1.00"
      d=" M 227.90 132.00 L 228.98 132.00 C 228.99 141.65 229.06 151.30 228.96 160.95 L 227.92 161.18 C 228.08 151.46 228.03 141.73 227.90 132.00 Z" />
  </g>
  <g id="#5075c0ff">
    <path fill="#5075c0" opacity="1.00"
      d=" M 228.98 132.00 L 229.98 132.00 C 230.02 143.00 230.01 153.99 229.99 164.99 L 229.03 165.01 C 229.00 163.65 228.98 162.30 228.96 160.95 C 229.06 151.30 228.99 141.65 228.98 132.00 Z" />
  </g>
  <g id="#412190ff">
    <path fill="#412190" opacity="1.00"
      d=" M 69.01 135.94 C 70.67 137.56 72.77 138.44 75.07 137.71 L 75.85 137.63 C 78.65 138.29 81.41 139.06 84.21 139.78 C 79.60 138.57 72.07 142.86 69.04 137.86 C 69.03 137.38 69.02 136.42 69.01 135.94 Z" />
  </g>
  <g id="#5227b0ff">
    <path fill="#5227b0" opacity="1.00"
      d=" M 75.85 137.63 C 86.57 136.37 97.17 141.27 107.99 140.01 L 108.98 140.03 C 108.99 140.53 109.00 141.52 109.00 142.01 C 100.60 142.62 92.60 139.53 84.21 139.78 C 81.41 139.06 78.65 138.29 75.85 137.63 Z" />
  </g>
  <g id="#6cb7f9ff">
    <path fill="#6cb7f9" opacity="1.00"
      d=" M 140.16 136.81 C 141.78 139.01 143.34 141.33 143.79 144.10 C 144.59 150.48 147.19 156.56 147.11 163.07 C 147.68 162.39 148.26 161.71 148.83 161.04 C 149.82 164.92 149.73 169.35 152.43 172.53 C 154.54 174.95 154.36 178.38 155.70 181.20 C 157.66 185.87 154.86 192.08 157.87 196.19 C 158.17 191.69 158.04 187.16 158.83 182.71 C 159.20 185.05 159.94 187.13 161.04 188.95 C 161.55 189.28 162.59 189.94 163.10 190.27 C 162.74 190.66 162.01 191.45 161.64 191.84 C 157.50 195.40 164.69 199.73 165.91 203.13 C 164.97 205.93 167.96 211.51 163.95 213.01 C 162.73 213.46 164.01 214.89 163.98 215.75 C 168.53 212.88 173.75 210.52 179.13 210.02 C 176.69 211.63 174.20 213.18 171.80 214.86 C 169.27 215.18 167.30 216.87 165.12 218.03 C 163.12 218.20 161.14 218.56 159.15 218.79 C 157.60 215.53 159.63 211.71 157.37 208.53 C 156.03 201.11 153.66 193.86 152.57 186.33 C 149.69 174.87 145.37 163.77 143.98 151.98 C 143.72 149.16 141.22 147.31 140.09 144.84 C 140.08 142.16 140.10 139.48 140.16 136.81 Z" />
  </g>
  <g id="#452f73e9">
    <path fill="#452f73" opacity="0.91"
      d=" M 69.04 137.86 C 72.07 142.86 79.60 138.57 84.21 139.78 C 92.60 139.53 100.60 142.62 109.00 142.01 L 109.99 142.05 C 109.99 142.79 110.00 144.28 110.00 145.02 C 97.63 144.02 85.39 141.90 72.99 141.12 C 71.84 140.55 68.63 141.96 69.01 139.91 C 69.02 139.40 69.03 138.37 69.04 137.86 Z" />
  </g>
  <g id="#4a536a94">
    <path fill="#4a536a" opacity="0.58"
      d=" M 121.01 140.00 L 121.99 140.00 C 122.04 156.00 121.96 172.01 122.01 188.01 C 121.97 192.33 122.02 196.66 121.98 200.99 L 121.01 201.01 C 120.99 180.67 121.00 160.34 121.01 140.00 Z" />
  </g>
  <g id="#3f2e7cef">
    <path fill="#3f2e7c" opacity="0.94"
      d=" M 2.06 142.00 L 3.05 141.74 C 5.39 142.45 7.34 144.16 9.89 144.14 C 12.32 147.46 16.33 148.23 19.69 150.19 C 19.52 150.68 19.19 151.64 19.03 152.12 L 18.18 152.10 C 12.70 149.95 7.35 146.65 2.10 143.84 C 2.09 143.38 2.07 142.46 2.06 142.00 Z" />
  </g>
  <g id="#7994f8ff">
    <path fill="#7994f8" opacity="1.00"
      d=" M 125.43 147.68 C 125.62 145.48 125.28 141.92 128.32 142.00 C 131.94 141.23 130.34 145.77 131.18 147.89 C 130.46 147.26 129.61 144.04 128.63 145.65 C 125.91 156.82 130.75 168.48 127.69 179.72 C 127.30 181.35 126.05 180.54 125.01 180.09 C 124.52 169.27 126.96 158.49 125.43 147.68 Z" />
  </g>
  <g id="#4d2ebfff">
    <path fill="#4d2ebf" opacity="1.00"
      d=" M 9.89 144.14 C 11.40 142.94 12.89 143.76 14.24 144.73 C 17.63 146.88 23.93 149.10 21.24 154.00 L 20.33 154.05 C 20.00 153.57 19.35 152.60 19.03 152.12 C 19.19 151.64 19.52 150.68 19.69 150.19 C 16.33 148.23 12.32 147.46 9.89 144.14 Z" />
  </g>
  <g id="#7c85fbff">
    <path fill="#7c85fb" opacity="1.00"
      d=" M 128.63 145.65 C 129.61 144.04 130.46 147.26 131.18 147.89 C 132.83 153.17 133.03 158.82 134.77 164.11 C 137.15 174.98 140.00 185.78 141.38 196.85 C 144.32 207.36 145.45 218.30 145.06 229.20 C 144.60 229.06 143.68 228.79 143.22 228.65 C 142.74 224.29 143.66 219.63 141.44 215.64 C 141.42 203.75 140.04 191.38 136.22 179.96 C 134.57 176.86 136.76 168.66 132.05 167.93 C 129.63 174.32 130.31 181.48 127.81 187.79 C 126.53 187.95 125.24 188.07 123.95 188.14 C 124.00 186.17 124.05 184.19 124.18 182.22 C 124.39 181.69 124.80 180.63 125.01 180.09 C 126.05 180.54 127.30 181.35 127.69 179.72 C 130.75 168.48 125.91 156.82 128.63 145.65 Z" />
  </g>
  <g id="#6baefbff">
    <path fill="#6baefb" opacity="1.00"
      d=" M 140.09 144.84 C 141.22 147.31 143.72 149.16 143.98 151.98 C 145.37 163.77 149.69 174.87 152.57 186.33 C 153.66 193.86 156.03 201.11 157.37 208.53 C 159.63 211.71 157.60 215.53 159.15 218.79 C 161.14 218.56 163.12 218.20 165.12 218.03 C 163.24 219.08 161.25 219.91 159.35 220.90 C 157.00 220.70 153.81 220.61 153.31 217.72 C 152.78 207.35 151.56 196.84 147.92 187.03 C 144.40 179.84 146.41 171.07 141.81 164.20 C 139.50 161.41 139.74 157.68 139.72 154.26 C 139.94 151.13 140.00 147.97 140.09 144.84 Z" />
  </g>
  <g id="#7c53f4ff">
    <path fill="#7c53f4" opacity="1.00"
      d=" M 42.98 146.28 L 43.83 146.10 C 43.87 146.57 43.97 147.49 44.01 147.95 C 43.84 151.68 48.65 152.24 50.94 154.13 C 55.93 157.52 62.29 157.59 67.98 159.07 C 71.87 160.19 76.13 160.35 79.97 158.98 C 79.96 159.44 79.94 160.35 79.93 160.80 L 79.11 161.17 C 78.58 161.41 77.53 161.88 77.01 162.11 C 71.21 161.97 65.69 159.90 59.99 159.00 C 54.18 158.51 49.51 154.90 44.40 152.51 C 41.99 151.42 40.06 147.94 42.98 146.28 Z" />
  </g>
  <g id="#9878f5ff">
    <path fill="#9878f5" opacity="1.00"
      d=" M 44.01 147.95 C 46.22 149.15 48.48 150.24 50.76 151.30 C 52.47 152.18 54.00 153.35 55.64 154.36 C 61.29 156.61 67.87 157.47 74.00 158.03 C 76.01 158.04 78.02 157.95 80.02 158.05 L 79.97 158.98 C 76.13 160.35 71.87 160.19 67.98 159.07 C 62.29 157.59 55.93 157.52 50.94 154.13 C 48.65 152.24 43.84 151.68 44.01 147.95 Z" />
  </g>
  <g id="#947bf8ff">
    <path fill="#947bf8" opacity="1.00"
      d=" M 18.18 152.10 L 19.03 152.12 C 19.35 152.60 20.00 153.57 20.33 154.05 C 17.51 160.14 9.22 158.58 3.96 156.81 L 3.83 155.82 C 7.64 154.86 14.25 158.00 17.03 155.04 L 17.35 154.23 C 17.56 153.70 17.97 152.63 18.18 152.10 Z" />
  </g>
  <g id="#2c29393b">
    <path fill="#2c2939" opacity="0.23"
      d=" M 2.04 154.05 C 7.14 154.04 12.27 153.70 17.35 154.23 L 17.03 155.04 C 12.33 155.43 7.33 154.04 2.78 155.70 L 1.96 155.95 C 1.98 155.47 2.02 154.52 2.04 154.05 Z" />
  </g>
  <g id="#7556f4ff">
    <path fill="#7556f4" opacity="1.00"
      d=" M 20.33 154.05 L 21.24 154.00 C 21.51 154.94 21.74 155.88 21.92 156.84 C 18.60 159.77 13.77 158.94 9.79 159.85 C 8.20 159.54 6.63 159.17 5.04 158.86 C 4.71 158.54 4.07 157.91 3.74 157.59 L 3.96 156.81 C 9.22 158.58 17.51 160.14 20.33 154.05 Z" />
  </g>
  <g id="#aa93e7ff">
    <path fill="#aa93e7" opacity="1.00"
      d=" M 55.64 154.36 C 61.82 154.33 67.78 156.48 73.90 157.17 L 74.00 158.03 C 67.87 157.47 61.29 156.61 55.64 154.36 Z" />
  </g>
  <g id="#a699e0ff">
    <path fill="#a699e0" opacity="1.00"
      d=" M 2.78 155.70 C 7.33 154.04 12.33 155.43 17.03 155.04 C 14.25 158.00 7.64 154.86 3.83 155.82 L 2.78 155.70 Z" />
  </g>
  <g id="#6958b9ec">
    <path fill="#6958b9" opacity="0.93"
      d=" M 1.96 155.95 L 2.78 155.70 L 3.83 155.82 L 3.96 156.81 L 3.74 157.59 C 3.09 159.31 3.02 161.17 2.96 162.99 L 2.04 163.00 C 1.93 160.65 1.92 158.30 1.96 155.95 Z" />
  </g>
  <g id="#6ab0ecff">
    <path fill="#6ab0ec" opacity="1.00"
      d=" M 226.23 155.84 C 226.85 157.94 227.40 160.06 227.87 162.22 C 228.00 168.55 227.95 174.89 228.19 181.22 C 227.23 182.72 225.64 183.60 223.99 184.14 C 226.22 181.14 227.32 177.83 225.84 174.21 C 225.96 170.88 225.92 167.53 225.87 164.20 C 225.98 161.41 226.10 158.63 226.23 155.84 Z" />
  </g>
  <g id="#482eb9ff">
    <path fill="#482eb9" opacity="1.00"
      d=" M 2.96 162.99 C 3.02 161.17 3.09 159.31 3.74 157.59 C 4.07 157.91 4.71 158.54 5.04 158.86 C 5.39 165.91 6.25 172.93 6.02 180.01 C 5.58 183.12 9.33 183.71 11.43 184.74 C 23.71 192.15 36.23 198.75 48.57 206.01 C 49.09 207.91 51.05 208.41 52.60 209.21 L 53.07 209.97 C 52.35 210.00 50.91 210.06 50.19 210.09 C 47.20 208.38 44.10 206.86 41.41 204.68 C 33.25 199.79 24.59 195.77 16.92 190.10 C 12.35 187.17 5.54 186.31 3.30 180.76 C 3.19 180.10 2.96 178.80 2.85 178.15 C 2.94 173.09 3.04 168.04 2.96 162.99 Z" />
  </g>
  <g id="#5f3df4ff">
    <path fill="#5f3df4" opacity="1.00"
      d=" M 9.79 159.85 C 15.80 161.55 21.83 158.09 27.88 158.00 C 28.03 160.62 28.11 163.23 28.12 165.86 C 33.47 166.12 38.81 166.47 44.12 167.10 C 37.00 170.10 40.90 179.07 39.95 185.03 C 39.87 187.44 40.76 190.61 43.76 190.13 L 43.75 190.88 C 42.00 191.87 41.10 194.66 43.22 195.79 C 46.95 198.12 51.07 199.92 55.12 201.67 C 52.65 202.62 50.49 204.21 48.57 206.01 C 36.23 198.75 23.71 192.15 11.43 184.74 C 9.33 183.71 5.58 183.12 6.02 180.01 C 6.25 172.93 5.39 165.91 5.04 158.86 C 6.63 159.17 8.20 159.54 9.79 159.85 Z" />
  </g>
  <g id="#574486d4">
    <path fill="#574486" opacity="0.83"
      d=" M 80.02 158.05 L 80.97 157.98 C 80.98 164.01 81.18 170.05 80.94 176.08 L 79.97 176.01 C 79.98 170.94 80.03 165.87 79.93 160.80 C 79.94 160.35 79.96 159.44 79.97 158.98 L 80.02 158.05 Z" />
  </g>
  <g id="#5e34d1ff">
    <path fill="#5e34d1" opacity="1.00"
      d=" M 77.01 162.11 C 77.53 161.88 78.58 161.41 79.11 161.17 C 77.82 165.03 81.11 170.87 77.75 173.91 C 73.63 174.20 69.97 171.98 65.90 171.98 C 65.71 171.44 65.33 170.34 65.13 169.79 C 68.91 169.63 71.97 172.27 75.79 171.95 C 76.38 168.70 76.69 165.39 77.01 162.11 Z" />
  </g>
  <g id="#4828a6ff">
    <path fill="#4828a6" opacity="1.00"
      d=" M 79.11 161.17 L 79.93 160.80 C 80.03 165.87 79.98 170.94 79.97 176.01 C 75.17 176.62 70.96 174.30 66.32 173.74 C 66.22 173.30 66.01 172.42 65.90 171.98 C 69.97 171.98 73.63 174.20 77.75 173.91 C 81.11 170.87 77.82 165.03 79.11 161.17 Z" />
  </g>
  <g id="#5c9dd3ff">
    <path fill="#5c9dd3" opacity="1.00"
      d=" M 227.92 161.18 L 228.96 160.95 C 228.98 162.30 229.00 163.65 229.03 165.01 C 228.58 170.31 229.83 176.18 228.19 181.22 C 227.95 174.89 228.00 168.55 227.87 162.22 L 227.92 161.18 Z" />
  </g>
  <g id="#544a82ae">
    <path fill="#544a82" opacity="0.68"
      d=" M 2.04 163.00 L 2.96 162.99 C 3.04 168.04 2.94 173.09 2.85 178.15 L 2.28 178.14 C 1.86 173.11 1.88 168.04 2.04 163.00 Z" />
  </g>
  <g id="#738ffcff">
    <path fill="#738ffc" opacity="1.00"
      d=" M 134.77 164.11 C 135.27 164.14 136.26 164.21 136.76 164.24 C 138.97 174.21 140.89 184.27 143.81 194.08 C 145.14 200.40 145.16 206.99 147.48 213.09 C 146.67 217.81 147.80 222.54 148.28 227.24 C 147.20 227.89 146.12 228.52 145.06 229.20 C 145.45 218.30 144.32 207.36 141.38 196.85 C 140.00 185.78 137.15 174.98 134.77 164.11 Z" />
  </g>
  <g id="#0b0c0c0d">
    <path fill="#0b0c0c" opacity="0.05"
      d=" M 164.28 163.74 C 166.21 171.74 164.91 180.29 164.17 188.38 C 163.85 180.17 163.95 171.94 164.28 163.74 Z" />
  </g>
  <g id="#4e7b96f2">
    <path fill="#4e7b96" opacity="0.95"
      d=" M 229.03 165.01 L 229.99 164.99 C 230.02 171.72 230.00 178.44 230.16 185.17 C 221.73 190.55 212.79 195.08 204.14 200.10 C 201.53 200.97 198.73 201.76 197.06 204.14 C 190.90 208.01 184.50 211.49 178.25 215.20 C 176.22 215.33 174.23 215.69 172.23 216.01 L 171.80 214.86 C 174.20 213.18 176.69 211.63 179.13 210.02 C 183.32 207.79 187.78 205.98 191.41 202.86 C 194.03 201.42 196.70 200.04 199.09 198.24 C 207.80 194.27 215.50 188.51 223.99 184.14 C 225.64 183.60 227.23 182.72 228.19 181.22 C 229.83 176.18 228.58 170.31 229.03 165.01 Z" />
  </g>
  <g id="#5936d2ff">
    <path fill="#5936d2" opacity="1.00"
      d=" M 44.12 167.10 C 51.05 164.48 59.00 165.79 65.13 169.79 C 57.48 169.67 48.72 165.38 42.10 171.25 C 41.67 176.99 43.12 182.59 43.79 188.25 C 43.78 188.72 43.77 189.66 43.76 190.13 C 40.76 190.61 39.87 187.44 39.95 185.03 C 40.90 179.07 37.00 170.10 44.12 167.10 Z" />
  </g>
  <g id="#4528a8fc">
    <path fill="#4528a8" opacity="1.00"
      d=" M 42.10 171.25 C 48.72 165.38 57.48 169.67 65.13 169.79 C 65.33 170.34 65.71 171.44 65.90 171.98 C 59.46 172.49 53.74 168.58 47.14 170.02 C 47.10 170.50 47.02 171.46 46.97 171.94 C 47.50 174.27 44.89 170.93 44.74 172.74 C 43.51 177.72 44.22 183.09 43.79 188.25 C 43.12 182.59 41.67 176.99 42.10 171.25 Z" />
  </g>
  <g id="#8578faff">
    <path fill="#8578fa" opacity="1.00"
      d=" M 132.05 167.93 C 136.76 168.66 134.57 176.86 136.22 179.96 C 134.99 179.56 133.94 178.83 132.88 178.11 C 131.49 184.06 130.55 190.12 128.92 196.02 C 126.27 196.61 124.48 195.48 124.15 192.79 C 124.06 191.24 124.01 189.69 123.95 188.14 C 125.24 188.07 126.53 187.95 127.81 187.79 C 130.31 181.48 129.63 174.32 132.05 167.93 Z" />
  </g>
  <g id="#402e75ea">
    <path fill="#402e75" opacity="0.92"
      d=" M 47.14 170.02 C 53.74 168.58 59.46 172.49 65.90 171.98 C 66.01 172.42 66.22 173.30 66.32 173.74 C 70.96 174.30 75.17 176.62 79.97 176.01 L 80.94 176.08 C 81.03 177.33 81.06 178.60 81.03 179.86 C 69.73 177.05 58.90 171.24 46.97 171.94 C 47.02 171.46 47.10 170.50 47.14 170.02 Z" />
  </g>
  <g id="#46425373">
    <path fill="#464253" opacity="0.45"
      d=" M 43.79 188.25 C 44.22 183.09 43.51 177.72 44.74 172.74 C 45.06 179.11 45.12 185.52 44.99 191.91 C 44.68 191.65 44.06 191.13 43.75 190.88 L 43.76 190.13 C 43.77 189.66 43.78 188.72 43.79 188.25 Z" />
  </g>
  <g id="#4c47658a">
    <path fill="#4c4765" opacity="0.54"
      d=" M 2.28 178.14 L 2.85 178.15 C 2.96 178.80 3.19 180.10 3.30 180.76 C 3.13 182.10 2.96 183.44 2.79 184.79 C 1.25 183.57 1.89 180.06 2.28 178.14 Z" />
  </g>
  <g id="#8b6bf8ff">
    <path fill="#8b6bf8" opacity="1.00"
      d=" M 132.88 178.11 C 133.94 178.83 134.99 179.56 136.22 179.96 C 135.29 187.17 138.65 193.88 139.02 200.99 C 140.45 211.60 139.96 222.33 140.01 233.00 C 138.78 233.67 137.38 233.88 136.02 234.15 C 136.44 227.42 137.82 220.77 137.88 214.02 C 137.05 206.69 136.02 199.38 135.96 192.00 C 136.05 190.18 134.19 189.22 133.19 187.96 C 131.66 192.70 129.71 197.30 127.69 201.85 C 125.97 202.48 124.76 201.29 124.05 199.88 C 124.07 198.11 124.12 194.56 124.15 192.79 C 124.48 195.48 126.27 196.61 128.92 196.02 C 130.55 190.12 131.49 184.06 132.88 178.11 Z" />
  </g>
  <g id="#8179f7ff">
    <path fill="#8179f7" opacity="1.00"
      d=" M 136.22 179.96 C 140.04 191.38 141.42 203.75 141.44 215.64 C 143.66 219.63 142.74 224.29 143.22 228.65 C 143.68 228.79 144.60 229.06 145.06 229.20 L 144.94 229.95 C 143.38 231.09 141.78 232.20 140.01 233.00 C 139.96 222.33 140.45 211.60 139.02 200.99 C 138.65 193.88 135.29 187.17 136.22 179.96 Z" />
  </g>
  <g id="#3c2f75e8">
    <path fill="#3c2f75" opacity="0.91"
      d=" M 3.30 180.76 C 5.54 186.31 12.35 187.17 16.92 190.10 C 24.59 195.77 33.25 199.79 41.41 204.68 C 44.10 206.86 47.20 208.38 50.19 210.09 C 49.88 210.36 49.26 210.89 48.95 211.15 C 35.59 204.57 22.89 196.42 9.77 189.24 C 7.81 187.35 3.94 187.30 2.79 184.79 C 2.96 183.44 3.13 182.10 3.30 180.76 Z" />
  </g>
  <g id="#a4daf8ff">
    <path fill="#a4daf8" opacity="1.00"
      d=" M 163.65 191.82 C 172.73 191.47 179.84 184.25 188.18 181.09 C 187.89 182.39 188.04 183.98 186.71 184.74 C 180.89 187.89 174.09 189.67 168.95 193.93 C 166.87 195.87 162.50 195.30 163.65 191.82 Z" />
  </g>
  <g id="#6960adff">
    <path fill="#6960ad" opacity="1.00"
      d=" M 122.01 188.01 L 123.00 187.93 C 123.00 193.95 122.99 199.98 123.03 206.01 L 122.03 206.00 C 122.00 204.33 122.00 202.66 121.98 200.99 C 122.02 196.66 121.97 192.33 122.01 188.01 Z" />
  </g>
  <g id="#7666cfff">
    <path fill="#7666cf" opacity="1.00"
      d=" M 123.00 187.93 L 123.95 188.14 C 124.01 189.69 124.06 191.24 124.15 192.79 C 124.12 194.56 124.07 198.11 124.05 199.88 C 124.01 201.89 124.01 203.91 124.05 205.92 L 123.03 206.01 C 122.99 199.98 123.00 193.95 123.00 187.93 Z" />
  </g>
  <g id="#915ff8ff">
    <path fill="#915ff8" opacity="1.00"
      d=" M 133.19 187.96 C 134.19 189.22 136.05 190.18 135.96 192.00 C 136.02 199.38 137.05 206.69 137.88 214.02 C 137.82 220.77 136.44 227.42 136.02 234.15 C 135.77 234.60 135.25 235.52 135.00 235.97 C 134.54 236.01 133.64 236.09 133.18 236.13 L 132.07 236.11 C 134.91 228.75 133.47 220.65 134.88 213.00 C 134.33 210.40 136.79 202.11 132.09 202.00 C 129.62 203.81 127.63 208.20 124.05 205.92 C 124.01 203.91 124.01 201.89 124.05 199.88 C 124.76 201.29 125.97 202.48 127.69 201.85 C 129.71 197.30 131.66 192.70 133.19 187.96 Z" />
  </g>
  <g id="#88c9f7ff">
    <path fill="#88c9f7" opacity="1.00"
      d=" M 163.10 190.27 L 163.93 189.98 C 163.86 190.44 163.72 191.36 163.65 191.82 C 162.50 195.30 166.87 195.87 168.95 193.93 C 169.26 198.98 160.34 196.25 161.64 191.84 C 162.01 191.45 162.74 190.66 163.10 190.27 Z" />
  </g>
  <g id="#7658f4fb">
    <path fill="#7658f4" opacity="1.00"
      d=" M 43.22 195.79 C 41.10 194.66 42.00 191.87 43.75 190.88 C 44.06 191.13 44.68 191.65 44.99 191.91 C 45.24 192.17 45.73 192.69 45.98 192.94 C 43.75 192.67 43.74 193.55 45.22 194.83 C 49.49 197.23 54.13 198.98 58.13 201.88 C 57.38 201.83 55.88 201.72 55.12 201.67 C 51.07 199.92 46.95 198.12 43.22 195.79 Z" />
  </g>
  <g id="#4f426a75">
    <path fill="#4f426a" opacity="0.46"
      d=" M 68.07 191.05 C 68.48 191.21 69.31 191.54 69.72 191.70 C 69.27 194.45 68.79 197.27 69.05 200.07 C 69.10 200.55 69.21 201.52 69.27 202.01 C 68.33 203.06 66.93 203.19 65.78 202.39 C 71.05 202.03 66.22 194.00 68.07 191.05 Z" />
  </g>
  <g id="#6944c5f4">
    <path fill="#6944c5" opacity="0.96"
      d=" M 69.05 200.07 C 68.79 197.27 69.27 194.45 69.72 191.70 C 70.22 192.05 71.23 192.75 71.74 193.10 L 70.71 193.19 C 68.81 193.10 71.40 195.45 71.53 196.40 C 72.94 198.23 71.48 202.27 69.05 200.07 Z" />
  </g>
  <g id="#71c4f9ff">
    <path fill="#71c4f9" opacity="1.00"
      d=" M 165.91 203.13 C 164.69 199.73 157.50 195.40 161.64 191.84 C 160.34 196.25 169.26 198.98 168.95 193.93 C 171.97 194.55 175.17 194.31 177.71 196.39 C 178.11 198.98 178.28 201.59 178.21 204.24 C 179.19 203.60 180.07 202.84 181.02 202.17 C 182.30 203.16 183.45 204.35 184.93 205.06 C 186.31 202.60 188.78 201.62 191.41 202.86 C 187.78 205.98 183.32 207.79 179.13 210.02 C 173.75 210.52 168.53 212.88 163.98 215.75 C 164.01 214.89 162.73 213.46 163.95 213.01 C 167.96 211.51 164.97 205.93 165.91 203.13 Z" />
  </g>
  <g id="#957ceefc">
    <path fill="#957cee" opacity="1.00"
      d=" M 45.22 194.83 C 43.74 193.55 43.75 192.67 45.98 192.94 C 51.12 195.76 56.48 198.09 61.93 200.19 L 61.73 200.75 C 61.52 201.25 61.08 202.24 60.87 202.74 L 60.20 203.22 C 59.68 202.88 58.65 202.22 58.13 201.88 C 54.13 198.98 49.49 197.23 45.22 194.83 Z" />
  </g>
  <g id="#9558e5ff">
    <path fill="#9558e5" opacity="1.00"
      d=" M 71.53 196.40 C 71.40 195.45 68.81 193.10 70.71 193.19 C 73.94 195.88 77.65 197.90 81.21 200.10 C 79.65 203.41 74.53 203.66 71.19 203.99 C 70.56 203.32 69.92 202.66 69.27 202.01 C 69.21 201.52 69.10 200.55 69.05 200.07 C 71.48 202.27 72.94 198.23 71.53 196.40 Z" />
  </g>
  <g id="#a989e9ff">
    <path fill="#a989e9" opacity="1.00"
      d=" M 70.71 193.19 L 71.74 193.10 C 75.87 194.43 80.23 195.54 83.80 198.12 C 84.14 198.52 84.81 199.33 85.15 199.73 C 84.56 200.00 83.39 200.53 82.80 200.80 C 82.40 200.63 81.61 200.28 81.21 200.10 C 77.65 197.90 73.94 195.88 70.71 193.19 Z" />
  </g>
  <g id="#d2a1d2ff">
    <path fill="#d2a1d2" opacity="1.00"
      d=" M 83.80 198.12 C 90.36 199.54 96.50 202.68 102.69 205.27 L 103.09 206.00 C 102.26 206.07 100.60 206.21 99.77 206.28 C 99.14 206.15 97.86 205.90 97.23 205.77 C 93.62 203.01 89.24 201.60 85.15 199.73 C 84.81 199.33 84.14 198.52 83.80 198.12 Z" />
  </g>
  <g id="#b454d0ff">
    <path fill="#b454d0" opacity="1.00"
      d=" M 81.21 200.10 C 81.61 200.28 82.40 200.63 82.80 200.80 C 84.03 201.48 85.26 202.19 86.48 202.90 C 82.60 204.92 78.43 205.99 74.04 206.13 C 69.07 207.76 65.00 211.63 59.77 212.73 C 59.33 212.81 58.45 212.95 58.01 213.02 C 56.96 212.07 55.88 211.15 54.83 210.21 C 58.13 210.54 60.71 208.46 63.71 207.58 C 63.80 206.99 63.97 205.82 64.06 205.24 C 66.57 206.63 69.15 205.73 71.19 203.99 C 74.53 203.66 79.65 203.41 81.21 200.10 Z" />
  </g>
  <g id="#c87eceff">
    <path fill="#c87ece" opacity="1.00"
      d=" M 82.80 200.80 C 83.39 200.53 84.56 200.00 85.15 199.73 C 89.24 201.60 93.62 203.01 97.23 205.77 C 96.63 205.87 95.43 206.07 94.83 206.17 C 94.17 206.06 92.86 205.82 92.20 205.71 C 90.33 204.70 88.44 203.72 86.48 202.90 C 85.26 202.19 84.03 201.48 82.80 200.80 Z" />
  </g>
  <g id="#42535a9a">
    <path fill="#42535a" opacity="0.60"
      d=" M 197.06 204.14 C 198.73 201.76 201.53 200.97 204.14 200.10 C 202.04 201.87 199.54 203.02 197.06 204.14 Z" />
  </g>
  <g id="#b577e7ff">
    <path fill="#b577e7" opacity="1.00"
      d=" M 60.87 202.74 C 61.08 202.24 61.52 201.25 61.73 200.75 C 63.18 201.03 64.45 201.81 65.78 202.39 C 66.93 203.19 68.33 203.06 69.27 202.01 C 69.92 202.66 70.56 203.32 71.19 203.99 C 69.15 205.73 66.57 206.63 64.06 205.24 C 62.99 204.41 61.94 203.56 60.87 202.74 Z" />
  </g>
  <g id="#584b75ac">
    <path fill="#584b75" opacity="0.67"
      d=" M 121.01 201.01 L 121.98 200.99 C 122.00 202.66 122.00 204.33 122.03 206.00 C 121.99 209.32 122.02 212.67 121.99 216.00 L 121.01 216.00 C 120.96 211.01 120.99 206.00 121.01 201.01 Z" />
  </g>
  <g id="#8242edff">
    <path fill="#8242ed" opacity="1.00"
      d=" M 48.57 206.01 C 50.49 204.21 52.65 202.62 55.12 201.67 C 55.88 201.72 57.38 201.83 58.13 201.88 C 58.65 202.22 59.68 202.88 60.20 203.22 C 57.97 205.84 53.86 205.68 52.60 209.21 C 51.05 208.41 49.09 207.91 48.57 206.01 Z" />
  </g>
  <g id="#9753f9ff">
    <path fill="#9753f9" opacity="1.00"
      d=" M 124.05 205.92 C 127.63 208.20 129.62 203.81 132.09 202.00 C 136.79 202.11 134.33 210.40 134.88 213.00 C 133.47 220.65 134.91 228.75 132.07 236.11 C 131.08 236.46 130.09 236.80 129.10 237.14 C 132.31 229.11 131.31 220.38 132.04 211.95 C 130.55 215.26 127.88 210.59 125.07 211.90 C 124.97 210.16 124.89 208.40 124.29 206.76 L 124.05 205.92 Z" />
  </g>
  <g id="#a048e1ff">
    <path fill="#a048e1" opacity="1.00"
      d=" M 60.20 203.22 L 60.87 202.74 C 61.94 203.56 62.99 204.41 64.06 205.24 C 63.97 205.82 63.80 206.99 63.71 207.58 C 60.71 208.46 58.13 210.54 54.83 210.21 C 54.39 210.15 53.51 210.03 53.07 209.97 L 52.60 209.21 C 53.86 205.68 57.97 205.84 60.20 203.22 Z" />
  </g>
  <g id="#c75ac1ff">
    <path fill="#c75ac1" opacity="1.00"
      d=" M 86.48 202.90 C 88.44 203.72 90.33 204.70 92.20 205.71 C 85.99 206.14 80.15 208.65 74.84 211.76 C 73.57 212.41 72.91 210.48 71.87 210.05 C 68.72 211.52 63.62 211.17 64.94 215.94 C 63.24 214.84 61.54 213.73 59.77 212.73 C 65.00 211.63 69.07 207.76 74.04 206.13 C 78.43 205.99 82.60 204.92 86.48 202.90 Z" />
  </g>
  <g id="#d95fb4ff">
    <path fill="#d95fb4" opacity="1.00"
      d=" M 74.84 211.76 C 80.15 208.65 85.99 206.14 92.20 205.71 C 92.86 205.82 94.17 206.06 94.83 206.17 C 95.62 206.66 96.42 207.14 97.22 207.62 C 91.06 208.66 85.00 210.41 79.37 213.18 C 76.57 214.97 71.58 215.23 70.57 219.09 C 68.67 218.08 66.71 217.18 64.94 215.94 C 63.62 211.17 68.72 211.52 71.87 210.05 C 72.91 210.48 73.57 212.41 74.84 211.76 Z" />
  </g>
  <g id="#e97eb2ff">
    <path fill="#e97eb2" opacity="1.00"
      d=" M 94.83 206.17 C 95.43 206.07 96.63 205.87 97.23 205.77 C 97.86 205.90 99.14 206.15 99.77 206.28 C 102.68 207.44 105.90 208.87 109.12 208.20 L 110.04 208.09 C 110.03 208.56 110.01 209.50 110.01 209.96 L 109.15 210.15 C 107.41 210.03 103.93 209.77 102.19 209.65 C 100.58 208.87 98.92 208.17 97.22 207.62 C 96.42 207.14 95.62 206.66 94.83 206.17 Z" />
  </g>
  <g id="#ed9cc3ff">
    <path fill="#ed9cc3" opacity="1.00"
      d=" M 99.77 206.28 C 100.60 206.21 102.26 206.07 103.09 206.00 C 105.03 206.30 108.36 206.23 109.12 208.20 C 105.90 208.87 102.68 207.44 99.77 206.28 Z" />
  </g>
  <g id="#7137aeff">
    <path fill="#7137ae" opacity="1.00"
      d=" M 122.03 206.00 L 123.03 206.01 C 123.32 217.57 122.40 229.22 123.24 240.75 C 123.98 242.97 125.90 240.82 127.24 240.39 C 129.41 239.27 131.39 237.79 133.18 236.13 C 133.64 236.09 134.54 236.01 135.00 235.97 C 134.73 236.49 134.20 237.53 133.93 238.05 C 130.00 240.15 126.96 244.70 122.01 244.03 C 121.98 234.69 122.03 225.34 121.99 216.00 C 122.02 212.67 121.99 209.32 122.03 206.00 Z" />
  </g>
  <g id="#8439d0ff">
    <path fill="#8439d0" opacity="1.00"
      d=" M 123.03 206.01 L 124.05 205.92 L 124.29 206.76 C 123.95 217.78 123.79 228.83 124.09 239.86 C 124.87 239.99 126.45 240.26 127.24 240.39 C 125.90 240.82 123.98 242.97 123.24 240.75 C 122.40 229.22 123.32 217.57 123.03 206.01 Z" />
  </g>
  <g id="#8f42e7ff">
    <path fill="#8f42e7" opacity="1.00"
      d=" M 124.29 206.76 C 124.89 208.40 124.97 210.16 125.07 211.90 C 125.29 220.65 126.18 229.35 125.18 238.09 C 126.53 237.96 127.83 237.60 129.10 237.14 C 130.09 236.80 131.08 236.46 132.07 236.11 L 133.18 236.13 C 131.39 237.79 129.41 239.27 127.24 240.39 C 126.45 240.26 124.87 239.99 124.09 239.86 C 123.79 228.83 123.95 217.78 124.29 206.76 Z" />
  </g>
  <g id="#ee65a7ff">
    <path fill="#ee65a7" opacity="1.00"
      d=" M 79.37 213.18 C 85.00 210.41 91.06 208.66 97.22 207.62 C 98.92 208.17 100.58 208.87 102.19 209.65 C 97.83 211.48 91.26 210.20 89.53 215.53 C 85.15 216.67 80.76 217.57 76.30 218.32 C 76.12 218.76 75.75 219.62 75.56 220.06 C 74.34 220.07 73.12 220.08 71.89 220.10 C 71.56 219.85 70.90 219.34 70.57 219.09 C 71.58 215.23 76.57 214.97 79.37 213.18 Z" />
  </g>
  <g id="#6647558b">
    <path fill="#664755" opacity="0.55"
      d=" M 110.04 208.09 L 110.98 207.99 C 110.94 220.97 111.18 233.97 110.92 246.95 C 110.53 246.78 109.75 246.45 109.36 246.28 C 109.85 244.96 110.01 243.55 110.02 242.15 C 110.06 231.42 109.97 220.69 110.01 209.96 C 110.01 209.50 110.03 208.56 110.04 208.09 Z" />
  </g>
  <g id="#6b376ded">
    <path fill="#6b376d" opacity="0.93"
      d=" M 50.19 210.09 C 50.91 210.06 52.35 210.00 53.07 209.97 C 53.51 210.03 54.39 210.15 54.83 210.21 C 55.88 211.15 56.96 212.07 58.01 213.02 C 60.76 216.11 64.50 218.04 68.08 219.99 C 67.81 220.46 67.26 221.40 66.99 221.87 C 62.11 219.70 57.71 216.53 52.95 214.10 C 51.86 213.04 49.32 212.92 48.95 211.15 C 49.26 210.89 49.88 210.36 50.19 210.09 Z" />
  </g>
  <g id="#fc6a93ff">
    <path fill="#fc6a93" opacity="1.00"
      d=" M 89.53 215.53 C 91.26 210.20 97.83 211.48 102.19 209.65 C 103.93 209.77 107.41 210.03 109.15 210.15 C 108.89 210.63 108.35 211.60 108.09 212.08 C 107.59 212.12 106.61 212.22 106.11 212.27 C 105.83 220.90 105.75 229.58 106.68 238.19 C 103.66 237.00 101.10 234.94 98.08 233.73 C 93.49 228.75 86.81 227.12 81.06 223.90 C 81.70 223.25 82.34 222.62 82.99 221.99 C 80.26 222.89 77.37 222.51 75.56 220.06 C 75.75 219.62 76.12 218.76 76.30 218.32 C 80.76 217.57 85.15 216.67 89.53 215.53 Z" />
  </g>
  <g id="#bf516cff">
    <path fill="#bf516c" opacity="1.00"
      d=" M 109.15 210.15 L 110.01 209.96 C 109.97 220.69 110.06 231.42 110.02 242.15 C 107.08 241.88 103.30 241.00 101.90 238.19 C 103.90 238.85 105.89 239.55 107.94 240.07 C 108.14 230.74 107.86 221.40 108.09 212.08 C 108.35 211.60 108.89 210.63 109.15 210.15 Z" />
  </g>
  <g id="#eb5e84ff">
    <path fill="#eb5e84" opacity="1.00"
      d=" M 106.11 212.27 C 106.61 212.22 107.59 212.12 108.09 212.08 C 107.86 221.40 108.14 230.74 107.94 240.07 C 105.89 239.55 103.90 238.85 101.90 238.19 C 100.49 236.83 99.02 235.48 98.08 233.73 C 101.10 234.94 103.66 237.00 106.68 238.19 C 105.75 229.58 105.83 220.90 106.11 212.27 Z" />
  </g>
  <g id="#9b48f6ff">
    <path fill="#9b48f6" opacity="1.00"
      d=" M 125.07 211.90 C 127.88 210.59 130.55 215.26 132.04 211.95 C 131.31 220.38 132.31 229.11 129.10 237.14 C 127.83 237.60 126.53 237.96 125.18 238.09 C 126.18 229.35 125.29 220.65 125.07 211.90 Z" />
  </g>
  <g id="#ad4677ff">
    <path fill="#ad4677" opacity="1.00"
      d=" M 58.01 213.02 C 58.45 212.95 59.33 212.81 59.77 212.73 C 61.54 213.73 63.24 214.84 64.94 215.94 C 66.71 217.18 68.67 218.08 70.57 219.09 C 70.90 219.34 71.56 219.85 71.89 220.10 C 76.79 223.62 83.18 225.30 87.13 230.04 C 80.23 227.87 74.44 223.23 68.08 219.99 C 64.50 218.04 60.76 216.11 58.01 213.02 Z" />
  </g>
  <g id="#4a7db5ff">
    <path fill="#4a7db5" opacity="1.00"
      d=" M 165.12 218.03 C 167.30 216.87 169.27 215.18 171.80 214.86 L 172.23 216.01 C 164.97 221.63 156.32 225.21 148.37 229.74 C 147.22 229.75 146.08 229.85 144.94 229.95 L 145.06 229.20 C 146.12 228.52 147.20 227.89 148.28 227.24 C 151.36 225.73 154.47 224.21 157.28 222.23 C 157.80 221.90 158.83 221.23 159.35 220.90 C 161.25 219.91 163.24 219.08 165.12 218.03 Z" />
  </g>
  <g id="#405a75e0">
    <path fill="#405a75" opacity="0.88"
      d=" M 172.23 216.01 C 174.23 215.69 176.22 215.33 178.25 215.20 C 167.95 221.29 157.49 227.13 147.21 233.26 C 146.65 233.19 145.52 233.04 144.96 232.97 C 146.15 231.95 147.30 230.88 148.37 229.74 C 156.32 225.21 164.97 221.63 172.23 216.01 Z" />
  </g>
  <g id="#64497fc5">
    <path fill="#64497f" opacity="0.77"
      d=" M 121.01 216.00 L 121.99 216.00 C 122.03 225.34 121.98 234.69 122.01 244.03 L 121.02 244.08 C 120.98 234.72 120.98 225.36 121.01 216.00 Z" />
  </g>
  <g id="#7f4050e8">
    <path fill="#7f4050" opacity="0.91"
      d=" M 68.08 219.99 C 74.44 223.23 80.23 227.87 87.13 230.04 C 89.99 231.83 92.99 233.41 95.90 235.16 C 97.89 236.17 99.40 239.24 101.90 238.19 C 103.30 241.00 107.08 241.88 110.02 242.15 C 110.01 243.55 109.85 244.96 109.36 246.28 C 100.30 242.08 92.19 236.20 83.35 231.59 C 78.04 228.12 72.00 225.78 66.99 221.87 C 67.26 221.40 67.81 220.46 68.08 219.99 Z" />
  </g>
  <g id="#e1607fff">
    <path fill="#e1607f" opacity="1.00"
      d=" M 71.89 220.10 C 73.12 220.08 74.34 220.07 75.56 220.06 C 77.37 222.51 80.26 222.89 82.99 221.99 C 82.34 222.62 81.70 223.25 81.06 223.90 C 86.81 227.12 93.49 228.75 98.08 233.73 C 97.54 234.09 96.44 234.80 95.90 235.16 C 92.99 233.41 89.99 231.83 87.13 230.04 C 83.18 225.30 76.79 223.62 71.89 220.10 Z" />
  </g>
  <g id="#5850a4ff">
    <path fill="#5850a4" opacity="1.00"
      d=" M 144.94 229.95 C 146.08 229.85 147.22 229.75 148.37 229.74 C 147.30 230.88 146.15 231.95 144.96 232.97 C 141.29 234.67 138.06 237.62 133.93 238.05 C 134.20 237.53 134.73 236.49 135.00 235.97 C 135.25 235.52 135.77 234.60 136.02 234.15 C 137.38 233.88 138.78 233.67 140.01 233.00 C 141.78 232.20 143.38 231.09 144.94 229.95 Z" />
  </g>
  <g id="#4d3e6ddc">
    <path fill="#4d3e6d" opacity="0.86"
      d=" M 133.93 238.05 C 138.06 237.62 141.29 234.67 144.96 232.97 C 145.52 233.04 146.65 233.19 147.21 233.26 C 138.85 237.90 130.60 242.74 122.61 248.00 L 120.96 248.00 C 120.98 246.69 120.99 245.38 121.02 244.08 L 122.01 244.03 C 126.96 244.70 130.00 240.15 133.93 238.05 Z" />
  </g>
  <g id="#bc4f65ff">
    <path fill="#bc4f65" opacity="1.00"
      d=" M 95.90 235.16 C 96.44 234.80 97.54 234.09 98.08 233.73 C 99.02 235.48 100.49 236.83 101.90 238.19 C 99.40 239.24 97.89 236.17 95.90 235.16 Z" />
  </g>
</svg>