<?xml version="1.0" encoding="UTF-8"?><svg id="Layer_2" xmlns="http://www.w3.org/2000/svg" viewBox="0 0 311.97 339.64"><defs><style>.cls-1,.cls-2{fill:#fff;}.cls-2{font-family:Elianto-Regular, Elianto;font-size:51.06px;letter-spacing:.12em;}</style></defs><g id="Layer_1-2"><g><g><path class="cls-1" d="M185.84,132.67L110.34,57.14H0V11.34H129.7l56.22,56.6-.08,64.74ZM6.51,50.63H113.03l66.33,66.35,.05-46.37L126.99,17.85H6.51V50.63Z"/><path class="cls-1" d="M205.32,179.47l.08-112.64,45.07,.05L292.2,0l-.09,114.74-45.61-.04-41.18,64.77Zm6.59-106.13l-.06,83.75,31.08-48.9,42.68,.04,.07-85.49-31.6,50.65-42.17-.05Z"/><path class="cls-1" d="M136.2,113.18H0v-42.97H93.23l42.96,42.97ZM6.51,106.67H120.49l-29.96-29.95H6.51v29.95Z"/><path class="cls-1" d="M186.11,169.22H0v-42.97H143.15l42.96,42.97ZM6.51,162.71H170.41l-29.96-29.95H6.51v29.95Z"/></g><text class="cls-2" transform="translate(.48 233.54)"><tspan x="0" y="0">ELECTRIC</tspan></text><g><path class="cls-1" d="M48.25,303.87v18.79l-32.51-33.64v50.63H3.25v-82.46l45,46.69Zm10.18-46.69h12.49v82.46l-12.49-12.94v-69.52Z"/><path class="cls-1" d="M141.49,271.13h-47.93v30.6h31.95l-2.7,13.95h-29.25v10.01h47.93v13.95h-61.76v-82.46h61.76v13.95Z"/><path class="cls-1" d="M183.89,257.18c5.7,0,11.04,1.09,16.03,3.26,4.99,2.18,9.34,5.12,13.05,8.83,3.71,3.71,6.65,8.08,8.83,13.11,2.17,5.03,3.26,10.39,3.26,16.09s-1.09,11.05-3.26,16.03c-2.18,4.99-5.12,9.34-8.83,13.05-3.71,3.71-8.06,6.66-13.05,8.83-4.99,2.18-10.33,3.26-16.03,3.26s-11.04-1.09-16.03-3.26c-4.99-2.18-9.36-5.12-13.11-8.83-3.75-3.71-6.71-8.06-8.89-13.05-2.18-4.99-3.26-10.33-3.26-16.03s1.09-11.06,3.26-16.09c2.17-5.02,5.14-9.39,8.89-13.11,3.75-3.71,8.12-6.65,13.11-8.83,4.99-2.17,10.33-3.26,16.03-3.26Zm27.11,41.34c0-3.76-.71-7.29-2.14-10.6-1.43-3.31-3.36-6.18-5.79-8.62-2.44-2.44-5.31-4.38-8.61-5.81-3.3-1.43-6.82-2.14-10.58-2.14s-7.27,.71-10.57,2.14c-3.3,1.43-6.17,3.36-8.61,5.81-2.44,2.44-4.37,5.32-5.79,8.62-1.42,3.3-2.14,6.84-2.14,10.6s.71,7.29,2.14,10.6c1.42,3.3,3.36,6.18,5.79,8.62,2.44,2.45,5.3,4.38,8.61,5.81,3.3,1.43,6.82,2.14,10.57,2.14s7.27-.71,10.58-2.14c3.3-1.43,6.17-3.36,8.61-5.81,2.44-2.44,4.37-5.32,5.79-8.62,1.42-3.31,2.14-6.84,2.14-10.6Zm-20.48-.06c0,1.8-.66,3.34-1.97,4.61-1.31,1.28-2.87,1.91-4.67,1.91s-3.36-.64-4.67-1.91c-1.31-1.28-1.97-2.81-1.97-4.61s.66-3.45,1.97-4.73c1.31-1.27,2.87-1.91,4.67-1.91s3.36,.64,4.67,1.91c1.31,1.28,1.97,2.85,1.97,4.73Z"/><path class="cls-1" d="M278.85,303.87v18.79l-32.51-33.64v50.63h-12.49v-82.46l45,46.69Zm11.9-46.69h12.49v82.46l-12.49-12.94v-69.52Z"/></g></g></g></svg>