<?xml version="1.0" encoding="UTF-8"?>
<!DOCTYPE svg PUBLIC "-//W3C//DTD SVG 1.1//EN" "http://www.w3.org/Graphics/SVG/1.1/DTD/svg11.dtd">
<svg viewBox="0 0 409 204" version="1.1" xmlns="http://www.w3.org/2000/svg">
  <g id="#ffffffff">
    <path fill="#ffffff" opacity="1.00"
      d=" M 169.64 0.00 L 171.40 0.00 C 171.65 7.74 171.25 15.49 171.56 23.22 C 172.12 23.52 173.24 24.12 173.80 24.41 C 173.72 24.66 173.56 25.16 173.48 25.41 C 174.20 25.77 175.64 26.50 176.36 26.86 C 175.55 27.95 173.41 28.30 173.59 29.93 C 173.48 41.42 173.61 52.91 173.54 64.40 C 182.09 64.38 190.65 64.40 199.20 64.39 C 199.14 57.52 199.22 50.64 199.14 43.77 C 201.18 43.78 203.23 43.78 205.27 43.78 C 205.17 59.49 205.22 75.20 205.25 90.90 C 203.20 90.97 201.17 91.01 199.13 91.04 C 199.23 83.89 199.13 76.74 199.20 69.59 C 190.65 69.59 182.10 69.59 173.54 69.59 C 173.61 76.51 173.45 83.43 173.65 90.36 C 169.93 91.18 171.95 95.58 171.44 98.26 C 252.13 93.24 333.97 107.94 407.91 140.62 C 355.34 120.99 300.04 108.32 244.03 104.27 C 219.90 102.36 195.64 102.45 171.46 103.45 C 171.46 106.39 171.47 109.34 171.44 112.28 C 176.36 115.79 181.38 119.17 186.19 122.83 C 188.40 124.51 188.00 127.56 188.08 130.00 C 187.93 154.66 188.25 179.34 187.91 204.00 L 186.18 204.00 C 185.83 183.49 185.89 162.95 186.16 142.44 C 182.68 144.99 179.55 147.98 176.32 150.83 C 176.45 168.55 176.31 186.28 176.40 204.00 L 174.51 204.00 C 174.40 186.83 174.48 169.65 174.48 152.47 C 171.19 155.17 168.08 158.07 164.79 160.76 C 164.83 175.17 164.79 189.59 164.81 204.00 L 162.86 204.00 C 162.88 186.97 162.83 169.93 162.88 152.90 C 162.55 148.53 166.94 146.53 169.64 143.98 C 169.67 130.54 169.62 117.09 169.67 103.64 C 112.43 107.13 55.36 118.45 2.07 139.93 C 17.78 132.17 34.26 126.15 50.87 120.66 C 89.35 108.39 129.36 101.00 169.65 98.39 C 169.65 96.01 169.66 93.63 169.69 91.25 C 169.14 91.09 168.03 90.78 167.48 90.63 C 167.69 70.41 167.55 50.18 167.56 29.96 C 167.86 28.12 165.25 27.97 164.38 26.82 C 165.19 26.49 166.82 25.81 167.63 25.48 C 167.59 25.21 167.51 24.69 167.48 24.43 C 167.99 24.12 169.03 23.48 169.55 23.17 C 169.82 15.46 169.56 7.72 169.64 0.00 M 171.48 114.65 C 171.45 123.85 171.47 133.06 171.47 142.26 C 176.44 138.03 181.33 133.70 186.22 129.37 C 186.12 127.90 186.02 126.42 185.93 124.95 C 181.10 121.53 176.33 118.03 171.48 114.65 M 164.79 150.64 C 164.83 153.17 164.78 155.71 164.70 158.24 C 171.32 152.69 177.73 146.88 184.30 141.27 C 187.37 139.38 185.69 135.41 186.13 132.48 C 178.63 138.03 172.03 144.74 164.79 150.64 Z" />
    <path fill="#ffffff" opacity="1.00"
      d=" M 70.03 43.79 C 77.28 41.82 85.29 42.78 91.82 46.51 C 91.96 48.57 92.02 50.64 92.07 52.70 C 85.62 48.68 76.98 46.42 69.83 49.91 C 65.56 52.06 64.83 58.59 68.93 61.28 C 75.26 65.38 83.76 64.39 89.71 69.30 C 95.77 73.92 95.16 84.62 88.52 88.44 C 79.96 93.79 68.71 92.60 60.15 87.87 C 60.19 85.85 60.16 83.83 60.06 81.81 C 65.97 85.49 73.18 87.16 80.07 86.01 C 83.62 85.41 87.35 82.92 87.73 79.07 C 88.14 76.19 85.97 73.80 83.65 72.47 C 77.38 69.34 69.62 69.76 64.04 65.16 C 59.63 61.69 58.95 55.08 61.32 50.23 C 63.08 46.92 66.52 44.86 70.03 43.79 Z" />
    <path fill="#ffffff" opacity="1.00"
      d=" M 335.15 43.79 C 345.91 43.77 356.67 43.79 367.43 43.78 C 367.37 45.53 367.35 47.29 367.35 49.04 C 358.64 49.08 349.94 48.95 341.24 49.11 C 341.25 54.20 341.24 59.29 341.25 64.38 C 349.52 64.40 357.79 64.39 366.06 64.39 C 366.06 66.12 366.06 67.85 366.06 69.59 C 357.79 69.60 349.52 69.57 341.25 69.60 C 341.25 74.95 341.23 80.29 341.26 85.64 C 349.98 85.73 358.69 85.66 367.41 85.68 C 367.37 87.42 367.35 89.16 367.35 90.91 C 356.63 91.12 345.89 90.99 335.17 90.98 C 335.27 75.25 335.31 59.52 335.15 43.79 Z" />
    <path fill="#ffffff" opacity="1.00"
      d=" M 112.93 90.93 C 113.10 75.20 112.62 59.46 113.18 43.74 C 119.79 43.85 126.39 43.72 133.00 43.80 C 138.01 43.85 143.39 45.41 146.74 49.34 C 149.48 53.08 149.78 58.25 148.34 62.55 C 146.95 66.68 142.89 69.16 138.88 70.23 C 132.43 71.95 125.69 70.78 119.12 71.22 C 119.12 77.79 119.10 84.35 119.14 90.92 C 117.07 90.99 115.00 90.99 112.93 90.93 M 119.13 49.06 C 119.13 54.66 119.14 60.26 119.12 65.86 C 123.09 65.99 127.06 65.93 131.03 65.96 C 135.19 66.24 140.07 65.04 142.16 61.05 C 144.76 56.30 141.27 50.32 136.19 49.34 C 130.55 48.58 124.81 49.06 119.13 49.06 Z" />
    <path fill="#ffffff" opacity="1.00"
      d=" M 227.17 43.80 C 237.95 43.76 248.74 43.79 259.52 43.78 C 259.46 45.53 259.44 47.29 259.44 49.04 C 250.77 49.05 242.09 49.01 233.41 49.06 C 233.34 54.17 233.41 59.28 233.37 64.39 C 241.63 64.41 249.89 64.36 258.14 64.41 C 258.13 66.14 258.12 67.86 258.13 69.59 C 249.88 69.59 241.62 69.57 233.37 69.60 C 233.39 74.95 233.38 80.29 233.38 85.64 C 242.09 85.73 250.80 85.66 259.51 85.68 C 259.46 87.42 259.44 89.16 259.45 90.91 C 248.73 91.11 238.00 91.01 227.27 90.96 C 227.33 75.24 227.52 59.51 227.17 43.80 Z" />
    <path fill="#ffffff" opacity="1.00"
      d=" M 279.58 43.78 C 286.04 43.79 292.51 43.76 298.97 43.79 C 304.01 43.77 309.44 45.12 312.95 48.94 C 317.20 54.21 316.80 63.04 311.33 67.32 C 306.94 70.85 300.98 70.85 295.64 70.73 C 302.82 77.61 310.29 84.17 317.55 90.98 C 314.89 91.01 312.23 91.10 309.58 90.86 C 301.31 83.81 293.79 75.92 285.61 68.76 C 285.72 76.17 285.57 83.58 285.72 90.99 C 283.68 91.00 281.65 90.97 279.62 90.91 C 279.67 75.20 279.75 59.49 279.58 43.78 M 285.65 48.85 C 285.66 54.54 285.63 60.24 285.67 65.94 C 292.11 65.67 298.72 66.71 305.02 65.01 C 307.98 63.11 310.25 59.77 309.46 56.11 C 309.02 51.99 304.99 49.26 301.09 49.04 C 295.96 48.65 290.80 49.00 285.65 48.85 Z" />
    <path fill="#ffffff" opacity="1.00"
      d=" M 31.85 45.51 C 32.34 45.38 33.33 45.13 33.82 45.00 C 33.91 48.73 33.87 52.46 33.88 56.19 C 36.12 56.20 38.35 56.20 40.59 56.23 C 40.62 52.77 40.64 49.31 40.51 45.85 L 42.55 45.84 C 42.40 49.30 42.44 52.76 42.45 56.23 C 44.79 56.20 47.14 56.20 49.49 56.22 C 49.49 52.58 49.51 48.94 49.40 45.30 L 51.54 45.27 C 51.44 49.67 51.39 54.06 51.59 58.46 C 45.01 58.48 38.44 58.45 31.87 58.47 C 31.89 54.15 31.92 49.83 31.85 45.51 Z" />
    <path fill="#ffffff" opacity="1.00"
      d=" M 31.02 63.00 C 32.76 61.57 35.02 61.91 37.07 61.86 C 42.00 61.90 46.92 61.85 51.84 61.91 C 51.72 62.44 51.49 63.51 51.37 64.05 C 48.39 64.21 45.41 64.08 42.44 64.17 C 42.44 67.76 42.45 71.35 42.43 74.95 C 45.40 75.03 48.38 74.88 51.34 75.17 C 51.49 75.71 51.78 76.80 51.93 77.34 C 45.30 77.56 38.67 77.39 32.05 77.44 C 31.95 76.87 31.76 75.72 31.67 75.14 C 34.65 74.96 37.64 75.01 40.62 74.93 C 40.59 71.34 40.60 67.76 40.62 64.18 C 37.43 63.84 33.86 64.92 31.02 63.00 Z" />
    <path fill="#ffffff" opacity="1.00"
      d=" M 31.97 77.97 C 35.30 79.13 33.41 83.11 33.85 85.68 C 39.81 85.75 45.78 85.67 51.75 85.73 C 51.69 86.26 51.56 87.32 51.50 87.86 C 45.64 88.29 39.74 87.89 33.87 88.08 C 33.87 90.39 33.88 92.71 33.89 95.03 C 33.39 94.98 32.37 94.86 31.87 94.81 C 31.95 89.19 31.79 83.58 31.97 77.97 Z" />
  </g>
</svg>