<?xml version="1.0" encoding="utf-8"?>
<svg viewBox="0 0 760 243.91003" version="1.1" xmlns:xlink="http://www.w3.org/1999/xlink"
  xmlns="http://www.w3.org/2000/svg">
  <defs>
    <radialGradient gradientUnits="objectBoundingBox" cx="49.999985%" cy="49.99999%" fx="49.999985%"
      fy="49.99999%" r="50.150784%"
      gradientTransform="translate(0.49999985,0.49999988),scale(0.99699193,1),scale(1,0.999086),translate(-0.49999985,-0.49999988)"
      id="gradient_1">
      <stop offset="0%" stop-color="#FFFFFF" stop-opacity="0" />
      <stop offset="100%" stop-color="#B018C0" stop-opacity="0.45882353" />
    </radialGradient>
    <path d="M0 0.000152588L244.383 0.000152588L244.383 243.772L0 243.772L0 0.000152588Z"
      id="path_1" />
    <rect width="760" height="243.91" id="artboard_1" />
    <clipPath id="clip_1">
      <use xlink:href="#artboard_1" clip-rule="evenodd" />
    </clipPath>
    <clipPath id="mask_1">
      <use xlink:href="#path_1" />
    </clipPath>
  </defs>
  <g id="Logo-&amp;-Name" clip-path="url(#clip_1)">
    <use xlink:href="#artboard_1" stroke="none" fill="#08000E" fill-opacity="0" />
    <g id="Logo-&amp;-Name" artboard="100c6e2a-2489-4ff6-a96a-94b91265e281">
      <g id="Logo-&amp;-Name">
        <g id="Title" transform="translate(300.99976 48.914)">
          <g id="farswap" fill="#B018C0">
            <path
              d="M23.188 116.412L23.188 65.9441L38.936 65.9441L38.936 54.7841L22.816 54.7841L22.816 51.4361C22.816 46.2281 25.544 43.9961 31.496 43.9961L38.936 43.9961L38.936 33.3321L33.976 33.3321C18.352 33.3321 10.044 40.8961 9.796 54.7841L0.744 54.7841L0.744 65.9441L9.796 65.9441L9.796 116.412L23.188 116.412ZM63.24 117.652C74.896 117.652 81.964 112.568 85.56 106.74L86.18 106.74L86.18 116.412L98.58 116.412L98.58 78.9641C98.58 63.9601 89.9 53.5441 72.664 53.5441C56.172 53.5441 45.384 63.4641 45.384 77.2281L45.384 78.4681L58.28 78.4681L58.28 76.6081C58.28 68.4241 62.124 65.3241 71.92 65.3241C81.592 65.3241 85.808 68.0521 85.808 77.2281L85.808 80.5761L64.232 83.8001C51.088 85.6601 43.648 90.9921 43.648 101.16C43.648 111.948 52.204 117.652 63.24 117.652ZM124.744 76.2361L124.744 116.412L111.352 116.412L111.352 54.4121L123.628 54.4121L123.628 64.2081L124.248 64.2081C126.728 58.5041 132.432 53.5441 141.484 53.5441C154.38 53.5441 159.34 62.9681 159.34 74.5001L159.34 78.5921L145.948 78.5921L145.948 76.1121C145.948 67.9281 143.592 64.9521 135.78 64.9521C127.72 64.9521 124.744 68.0521 124.744 76.2361ZM194.68 117.652C210.304 117.652 219.356 110.956 219.356 99.5481C219.356 89.3801 213.156 84.0481 201.252 81.6921L190.836 79.7081C182.156 77.9721 179.924 76.6081 179.924 71.8961C179.924 67.1841 182.28 64.5801 192.076 64.5801C203.112 64.5801 205.096 68.6721 205.096 74.3761L205.096 75.8641L217.868 75.8641L217.868 74.7481C217.868 60.7361 206.956 53.5441 192.448 53.5441C176.328 53.5441 167.152 60.9841 167.152 72.1441C167.152 83.3041 174.096 88.2641 185.132 90.2481L194.68 91.8601C203.732 93.4721 206.708 94.9601 206.708 99.9201C206.708 104.508 204.848 106.74 194.928 106.74C183.148 106.74 180.172 104.26 180.172 97.5641L180.172 95.3321L167.276 95.3321L167.276 95.5801C167.276 110.584 176.7 117.652 194.68 117.652ZM346.332 117.652C357.988 117.652 365.056 112.568 368.652 106.74L369.272 106.74L369.272 116.412L381.672 116.412L381.672 78.9641C381.672 63.9601 372.992 53.5441 355.756 53.5441C339.264 53.5441 328.476 63.4641 328.476 77.2281L328.476 78.4681L341.372 78.4681L341.372 76.6081C341.372 68.4241 345.216 65.3241 355.012 65.3241C364.684 65.3241 368.9 68.0521 368.9 77.2281L368.9 80.5761L347.324 83.8001C334.18 85.6601 326.74 90.9921 326.74 101.16C326.74 111.948 335.296 117.652 346.332 117.652ZM407.216 106.864L407.216 137.864L393.948 137.864L393.948 54.7841L406.1 54.7841L406.1 64.9521L406.72 64.9521C409.572 57.7601 416.64 53.5441 427.304 53.5441C444.664 53.5441 454.212 66.0681 454.212 85.6601C454.212 105.128 444.912 117.652 428.172 117.652C417.136 117.652 410.316 112.568 407.588 106.864L407.216 106.864ZM268.832 82.0641L257.672 116.412L240.188 116.412L224.936 54.7841L239.444 54.7841L246.512 89.0081L248.992 105.252L249.984 105.252L254.076 89.0081L264.864 54.7841L282.224 54.7841L293.136 89.1321L296.98 105.252L297.972 105.252L300.452 89.1321L307.644 54.7841L321.532 54.7841L306.28 116.412L288.92 116.412L277.884 82.0641L273.792 66.5641L272.8 66.5641L268.832 82.0641ZM407.216 80.0801L407.216 91.1161C407.216 101.408 413.168 106.244 424.08 106.244C435.86 106.244 440.82 100.788 440.82 85.6601C440.82 70.4081 435.984 64.9521 424.08 64.9521C413.168 64.9521 407.216 69.7881 407.216 80.0801ZM56.668 100.168C56.668 95.5801 59.148 93.9681 66.216 92.9761L85.808 90.0001L85.808 91.1161C85.808 103.516 76.26 106.988 67.58 106.988C59.768 106.988 56.668 105.004 56.668 100.168ZM339.76 100.168C339.76 95.5801 342.24 93.9681 349.308 92.9761L368.9 90.0001L368.9 91.1161C368.9 103.516 359.352 106.988 350.672 106.988C342.86 106.988 339.76 105.004 339.76 100.168Z" />
          </g>
        </g>
        <g id="Logo">
          <g id="logo_circle_black" transform="translate(-1.5258789E-05 0)">
            <path d="M0 0.000152588L244.383 0.000152588L244.383 243.772L0 243.772L0 0.000152588Z"
              id="Background" fill="#FFFFFF" fill-opacity="0" fill-rule="evenodd" stroke="none" />
            <g clip-path="url(#mask_1)">
              <path
                d="M37.5392 209.677C-11.0739 163.116 -12.6827 86.1001 33.9437 37.5617C80.5701 -10.9767 157.816 -12.6994 206.572 33.712C255.329 80.1233 257.176 157.134 210.699 205.815C164.223 254.496 86.9835 256.456 38.0837 210.195"
                id="path838" fill="url(#gradient_1)" fill-rule="evenodd" stroke="none" />
              <path
                d="M140.505 140.446L227.44 140.446L227.44 180.774L140.505 180.774L140.505 140.446Z"
                id="rect849" fill="#FFFFFF" fill-rule="evenodd" stroke="none" />
              <path
                d="M54.2342 30.6502C89.2918 95.2968 121.993 169.541 122.191 243.773C186.973 243.773 243.887 190.332 244.14 129.597L225.595 129.488C208.831 89.6167 172.853 60.6932 136.437 38.7478C133.236 37.2823 120.303 30.5797 122.85 32.199C148.677 58.7371 163.927 93.558 172.42 129.167C166.11 130.658 157.659 133.401 150.915 123.784C126.27 85.8849 89.7867 57.7565 54.2342 30.6503L54.2342 30.6502ZM54.4082 104.019C53.9181 123.649 43.3991 144.605 22.696 147.467C10.1347 149.23 12.752 148.154 23.7707 149.998C44.8556 153.487 53.2562 176.437 53.092 195.573C53.549 191.547 53.491 186.973 54.3848 182.542C55.7256 164.536 71.0913 150.354 89.0071 150.047C103.078 149.359 92.5125 150.13 84.3525 148.213C63.8068 144.818 54.591 123.626 54.4082 104.019L54.4082 104.019ZM194.18 145.255C205.402 147.226 215.266 153.607 223.67 161.039C214.869 168.63 204.323 175.099 192.791 176.887C198.829 174.029 202.345 167.312 202.284 160.782C202.905 154.671 197.993 147.634 194.18 145.255L194.18 145.255ZM179.064 145.581C167.451 152.52 169.436 172.333 181.078 177.131C169.764 175.785 159.603 169.767 151.11 162.456C158.863 154.708 168.18 147.972 179.064 145.581L179.064 145.581Z"
                id="layer2" fill="#B018C0" fill-rule="evenodd" stroke="none" />
            </g>
          </g>
        </g>
      </g>
    </g>
  </g>
</svg>