<?xml version="1.0" encoding="UTF-8"?>
<svg viewBox="0 0 153 57" version="1.1" xmlns="http://www.w3.org/2000/svg"
    xmlns:xlink="http://www.w3.org/1999/xlink">
    <title>logo-flux</title>
    <defs>
        <radialGradient cx="50%" cy="0%" fx="50%" fy="0%" r="256.394914%"
            gradientTransform="translate(0.500000,0.000000),scale(1.000000,0.390023),rotate(90.000000),translate(-0.500000,-0.000000)"
            id="radialGradient-1">
            <stop stop-color="#FE84FC" offset="0%"></stop>
            <stop stop-color="#2ED1FF" offset="100%"></stop>
        </radialGradient>
    </defs>
    <g stroke="none" stroke-width="1" fill="none" fill-rule="evenodd">
        <g transform="translate(-98.000000, -4797.000000)">
            <g transform="translate(-11.000000, 4726.000000)">
                <g id="logo-flux" transform="translate(62.000000, 60.000000)">
                    <rect
                        transform="translate(123.500000, 39.500000) scale(1, -1) translate(-123.500000, -39.500000) "
                        x="0" y="0" width="247" height="79" rx="13.197"></rect>
                    <g transform="translate(47.390000, 11.884928)"
                        fill-rule="nonzero">
                        <g id="Flux-Logo-New"
                            transform="translate(27.920623, 27.615072) rotate(90.000000) translate(-27.920623, -27.615072) translate(0.291569, -0.291422)">
                            <ellipse id="Oval" fill="#0F0E25" cx="27.6290542" cy="27.9064935"
                                rx="27.6290542" ry="27.9064935"></ellipse>
                            <path
                                d="M27.5932497,20.0640025 L27.6648587,20.0640025 C30.5073744,20.0640025 32.8116887,22.3683168 32.8116887,25.2108325 L32.8116887,40.9674235 C32.8116887,43.8099393 30.5073744,46.1142535 27.6648587,46.1142535 L27.5932497,46.1142535 C24.7507339,46.1142535 22.4464197,43.8099393 22.4464197,40.9674235 L22.4464197,25.2108325 C22.4464197,22.3683168 24.7507339,20.0640025 27.5932497,20.0640025 Z"
                                id="Rectangle" fill="#FFFFFF"
                                transform="translate(27.629054, 33.089128) rotate(90.000000) translate(-27.629054, -33.089128) "></path>
                            <path
                                d="M19.7350387,11.9599258 C22.5688725,11.9599258 24.8661487,14.2802703 24.8661487,17.1425603 L24.8661487,38.2717625 L24.8661487,38.2717625 L19.7350387,38.2717625 C16.9012049,38.2717625 14.6039286,35.951418 14.6039286,33.089128 L14.6039286,17.1425603 C14.6039286,14.2802703 16.9012049,11.9599258 19.7350387,11.9599258 Z"
                                id="Rectangle" fill="#FFFFFF"></path>
                            <path
                                d="M24.8661487,17.5412245 L29.9972588,17.5412245 C32.8310926,17.5412245 35.1283689,19.861569 35.1283689,22.723859 L35.1283689,38.6704267 C35.1283689,41.5327168 32.8310926,43.8530612 29.9972588,43.8530612 C27.163425,43.8530612 24.8661487,41.5327168 24.8661487,38.6704267 L24.8661487,17.5412245 L24.8661487,17.5412245 Z"
                                id="Rectangle" fill="url(#radialGradient-1)"></path>
                        </g>
                        <path
                            d="M84.4425715,9.27651897 C87.8960039,9.27651897 90.6198379,9.8415724 93.4409518,10.5093629 L93.4409518,45.9536247 L86.1449676,45.9536247 L86.1449676,16.0057919 C85.5612892,15.9544234 84.9776105,15.9544234 84.4425715,15.9544234 C81.7187375,15.9544234 79.9190614,17.2900042 79.9190614,20.269377 L83.4697738,20.269377 L83.4697738,27.6664403 L79.9190614,27.6664403 L79.9190614,45.9536247 L72.6230776,45.9536247 L72.6230776,27.6664403 L69.3642046,27.6664403 L69.3642046,20.269377 L72.6230776,20.269377 C72.6230776,13.0777876 76.3683494,9.27651897 84.4425715,9.27651897 Z M115.519526,20.4391164 L123.04351,20.4391164 L123.04351,45.2586769 L115.519526,45.2586769 L115.519526,42.9256382 C114.165209,44.7622857 111.657215,45.9536247 108.346662,45.9536247 C103.280513,45.9536247 98.9667626,42.3796078 98.9667626,35.6783266 L98.9667626,20.4391164 L106.490746,20.4391164 L106.490746,34.5862659 C106.490746,37.6638915 108.446982,39.103426 110.854657,39.103426 C113.61345,39.103426 115.519526,37.5149741 115.519526,33.9905965 L115.519526,20.4391164 Z M151.856666,45.5549605 L143.274531,45.5549605 L138.63419,38.9243777 L133.99385,45.5549605 L125.411714,45.5549605 L134.343123,32.7961117 L125.711091,20.4391164 L134.293227,20.4391164 L138.63419,26.6678457 L142.975154,20.4391164 L151.557289,20.4391164 L142.925258,32.7961117 L151.856666,45.5549605 Z"
                            id="fux" fill="#FFFFFF"></path>
                    </g>
                </g>
            </g>
        </g>
    </g>
</svg>