<?xml version="1.0" encoding="utf-8"?>
<svg version="1.1" xmlns="http://www.w3.org/2000/svg" xmlns:xlink="http://www.w3.org/1999/xlink"
  x="0px" y="0px"
  viewBox="0 0 648.1 320" style="enable-background:new 0 0 648.1 320;" xml:space="preserve">
<style type="text/css">
	.st0{fill:#FE1515;}
	.st1{fill:#FFFFFF;}
</style>
<g id="_x23_fe1515fe">
	<path class="st0" d="M301.7,75.3c16.2-25,32-50.3,48.2-75.3c-26.9,83.6-53.4,167.4-80.2,251.1c-0.6,1.5-1.7,2.7-2.6,3.9
		c-16.9,21.6-33.6,43.4-50.6,64.9c7.7-16.5,15.4-32.9,23-49.4c-16-0.3-32-0.6-48.1-0.8c-2.8,0-5.6-0.4-8.3,0.5
		c-23.9,7.5-47.9,14.9-71.8,22.3c-4.4,1.1-8.7,3.4-13.3,3.6c-9-2.7-18-5.7-27-8.6c-6.8-6.2-13-13-19.5-19.5c1.3-2.1,2.6-4.3,3.9-6.4
		c-6.1-3.7-12.2-7.4-18.3-11c-3.7-1.9-5.5-5.8-8-8.9c-5.1-7.2-10.9-14.1-15.7-21.6C8.7,199.4,4.8,178.4,0,157.5
		c11.1,12.7,21.6,25.9,32.9,38.5c10.1,8.6,20.4,16.9,30.6,25.4c3.2,3.3,8.3,2,12.4,2.9c3.1-3.5,6.1-7,9.1-10.5
		c-2.4-1.4-5.8-1.9-7.1-4.6c-6.5-11.6-13.1-23.1-19.5-34.7c12.7,4.4,25.3,9.1,38.1,13.5c8.9-3.6,18.9-4.9,26.9-10.6
		c10.2-15.2,19.8-30.9,29.9-46.3c0.9-1.4,2.3-2.2,3.6-3.2c5.1-3.6,10.2-7.3,15.4-10.9c1.6,0.5,3.2,1,4.9,1.5
		c0.4-12.5,0.8-24.9,1.1-37.4c11.2,3.6,22.6,6.6,33.9,9.9c1.7,0.3,2.6,1.9,3.7,3.1c3,3.6,6.3,7.1,9.3,10.7c1.2-4.7,2.3-9.3,3.4-14
		c10-0.2,20.1,0.3,30.1,0c6.3-3.4,12.4-7.3,18.6-10.9c2.6-1.4,5.1-3.6,8.3-3.7C290.8,75.9,296.2,75.8,301.7,75.3 M305.2,81.2
		c-6.8,1-13.8,0.6-20.5,1.8c-8.3,4.4-16,9.8-24.4,14.1c-9,0.4-17.9,0-26.9,0.2c-2.9,13.8-6.9,27.3-9.3,41.2
		c-1.4-8.7-0.5-17.6-1.4-26.4c-3-3.9-6.5-7.4-9.6-11.2c-1.5-1.5-2.6-3.6-4.8-4.1c-8-2.4-16-4.7-24-7.1c-0.2,10.6-0.4,21.2-0.8,31.9
		c2.9,2.6,5.8,5,8.7,7.5c-6.3-1.7-12.6-3.4-18.9-5.1c-4.9,3.9-10.5,6.9-15.1,11.2c-9.9,15.1-19.5,30.5-29.3,45.7
		c-2.1,3.6-7.4,3.7-9.4,7.5c-3.1,5.1-6,10.2-9,15.3c0.8-4.9,1.9-9.7,2.8-14.5c-5.7,1.9-11.3,3.7-16.9,5.6c-8-2.8-16-5.7-23.9-8.6
		c3.7,6.5,7.1,13.1,11,19.4c3.7,2.4,8,4,12,5.9c-5.5,6.6-11.2,13.1-16.8,19.7c-4.7-0.6-9.4-1.1-14.1-1.6c-1.4-0.1-2.4-1.1-3.4-1.9
		c-8-6.7-16.1-13.2-24.1-19.9c-3.8-3.2-7.9-6.1-11.1-9.9c-4.7-5.5-9.3-11.1-14.1-16.6c2.6,12,5,24,7.7,36
		c4.3,6.9,9.6,13.1,14.3,19.8c2.4,2.9,4.1,6.7,7.5,8.6c5.5,3.2,11,6.5,16.4,9.7c3.6-0.8,7.2-1.7,10.9-2.5c-3,4.8-5.9,9.6-8.8,14.4
		c4.4,4.2,8.6,8.6,12.9,13c1,1.1,2.2,2,3.7,2.3c7.4,2.5,14.9,4.7,22.4,7.2c28.5-8.8,56.9-17.8,85.3-26.5c17.5-0.1,35,0.5,52.5,0.8
		c3.3-4.4,6.9-8.7,10-13.2c3.9-7,7.6-14.2,11.4-21.4c-1.3,8.5-2.7,17-4.4,25.5c-2.1,5.5-4.9,10.6-7.3,16
		c5.9-7.3,11.8-14.6,17.2-22.2c8.6-25.6,16.5-51.6,24.9-77.3c13.3-42,26.9-84,40.1-126C320.6,57.3,313.3,69.5,305.2,81.2z"/>
	<path class="st0" d="M159.2,173.3c10.5-5.4,21.4-10.1,32-15.3c-4.7,5.4-9.4,10.8-14.1,16.1c-0.2,3.1-0.4,6.2-0.8,9.3
		c-5,0.9-10,3.9-15,1.4c-4.9,3-9.8,6.2-14.8,9.2C150.8,187.2,154.5,179.9,159.2,173.3 M162.7,178.6c2.4,0.9,4.9,0.6,7.3,0.1
		c0.3-1.3,0.5-2.6,0.8-3.9C168.1,176,165.3,177.2,162.7,178.6z"/>
</g>
<g id="_x23_ffffffff">
	<path class="st1" d="M334.3,104.3c9.3-0.4,18.7,0.1,28,0.8c-0.2,3.1-0.4,6.3-0.6,9.4c-6.8,0-13.5,0-20.3,0c-1.7,0-3.9,0.1-4.5,2
		c-0.6,4-0.1,8.1-0.3,12.1c7.3,0,14.7,0,22,0c0,3.1,0,6.1,0,9.2c-7.3,0-14.7,0-22.1,0c0,8.1,0,16.1,0,24.2c-4.3,0-8.6,0-12.8,0
		c0.1-15.8-0.1-31.5,0.1-47.3C323.9,109.2,328.9,104.7,334.3,104.3z"/>
	<path class="st1" d="M552.8,110.9c4.7-6.4,13.3-7.4,20.7-7.6c6,0.1,12.1,0.5,17.9,2c-0.4,3.1-0.7,6.2-0.9,9.4c-7-0.1-14.1-1-21.1,0
		c-3.9,0.4-6.5,3.9-7.2,7.5c-1.2,7.5-1.1,15.1,0,22.6c0.5,3,2.2,6.2,5.3,7.1c4.6,1.3,9.4-0.4,13.6-2.4c0-6.9,0-13.8,0-20.6
		c4.1,0,8.3,0,12.4,0c-0.3,11-0.1,22.1,0,33.1c-3.2,0-6.3,0-9.5,0c-0.4-1.9-0.8-3.8-1.2-5.8c-5.5,5.7-13.9,8-21.6,6.3
		c-4.9-1.1-8.8-4.9-10.5-9.6c-2.5-6.6-2.9-13.7-2.8-20.6C548,125.1,548.5,117.2,552.8,110.9z"/>
	<path class="st1" d="M370,104.5c4.2,0.1,8.5,0,12.7,0c0,14.6-0.1,29.2,0.1,43.8c-0.2,2,1.8,3.3,3.6,3.2c6.9,0.2,13.7,0,20.6,0
		c0.2,3.3,0.4,6.5,0.4,9.8c-8.3,0.7-16.7,0.8-25,0.7c-3.6,0.1-7.4-1-9.7-3.9c-2.1-2.5-2.7-5.8-2.7-8.9
		C370,134.5,369.9,119.5,370,104.5z"/>
	<path class="st1" d="M408.8,104.6c4.4,0,8.9,0,13.3,0.1c4.1,9.6,9.1,18.9,12.2,28.9c2.5-10.2,7.9-19.3,12-29
		c4.3,0,8.7,0.1,13.1-0.2c-6,12.9-12.5,25.5-18.5,38.3c-0.4,6.4-0.1,12.9-0.2,19.4c-4.3,0.1-8.6,0-12.9,0c0-6.3,0.1-12.6,0-18.9
		C421.6,130.2,415,117.4,408.8,104.6z"/>
	<path class="st1" d="M465.3,104.7c4.2-0.4,8.5-0.5,12.7,0c0.1,19.1,0,38.3,0.1,57.4c-4.3,0-8.5,0-12.8,0
		C465.3,142.9,465.3,123.8,465.3,104.7z"/>
	<path class="st1" d="M489.7,108.5c-0.2-2,1.6-4,3.7-3.9c3.2-0.1,6.5-0.1,9.8,0c1.9,0,2.9,1.8,3.7,3.2c6.7,13.3,13.1,26.8,19.7,40.2
		c-0.6-14.5-0.3-29-0.4-43.5c2.1,0,4.1,0,6.2,0c1.9,0,3.9,0,5.8,0c0,17.7,0,35.3,0,53c0.3,2.6-2.1,4.9-4.7,4.5
		c-4.1-0.4-10.2,1.8-12.4-3c-6.7-13.7-13.8-27.1-19.7-41.1c0.7,14.7,0.3,29.5,0.4,44.2c-4,0-8.1,0-12.1,0
		C489.8,144.2,489.6,126.3,489.7,108.5z"/>
	<path class="st1" d="M323.9,184.9c8.5-0.6,17-1,25.6-0.6c5.6,0.4,12.3,1.3,15.4,6.6c2.8,5.3,2.8,11.9,1.1,17.5
		c-1.3,4.5-5.9,6.9-10.3,7.1c3.3,1.3,6.7,3.2,7.8,6.8c2.1,6.7,3.8,13.5,5.7,20.2c-4.5,0-9,0-13.4,0c-1.5-5.8-2.8-11.6-4.3-17.4
		c-0.5-2.1-1.8-4.3-4-4.8c-3.7-0.4-7.4-0.2-11-0.2c0.1,7.5,0,15,0,22.5c-4.2,0-8.4,0-12.6,0C323.9,223.4,323.9,204.1,323.9,184.9
		 M336.5,194.1c0,1.8,0,3.6,0,5.4c0,3.6,0,7.2,0,10.8c4.5-0.1,9.1,0.4,13.5-0.5c2.9-0.5,4.3-3.5,4.2-6.2c0.2-3.2,0.2-7.9-3.6-8.9
		C346,193.4,341.2,194.2,336.5,194.1z"/>
	<path class="st1" d="M534.6,184.5c7.9-1.1,16.5-1.1,23.6,3c6.4,4,7.8,12.1,8.5,19c0.4,9.3,0.8,19.2-3.2,27.9
		c-3.5,7.4-12.5,9.2-19.9,9.4c-7.6,0.1-16.8-0.9-21.5-7.8c-4-6.7-4.3-14.9-4.3-22.5c0-7.1,0.4-14.5,3.8-20.9
		C524.1,187.7,529.5,185.3,534.6,184.5 M536.9,195.1c-2.9,1.2-4.5,4.3-5,7.3c-1.2,6.3-1.1,12.8-0.6,19.1c0.5,4,1.2,8.9,5.3,10.7
		c5.2,2.2,13.6,1.4,15.4-5c2.2-8.7,2.1-18,0.1-26.7C550.5,194,542.2,192.9,536.9,195.1z"/>
	<path class="st1" d="M377.5,185c4.2,0,8.4,0,12.6,0c0,7.3,0,14.7,0,22c6.8,0,13.7,0,20.5,0c0-7.3,0-14.6,0-22c4.2,0,8.4,0,12.6,0
		c-0.1,19.2,0,38.4,0,57.6c-4.2,0-8.4,0-12.6,0c0-8.6,0-17.1,0-25.7c-6.8-0.1-13.7,0-20.5,0c0,8.6,0,17.1,0,25.7
		c-4.2,0-8.4,0-12.6,0C377.5,223.4,377.6,204.2,377.5,185z"/>
	<path class="st1" d="M435,185c4.2,0,8.5,0,12.8,0c0,19.2,0,38.4,0,57.6c-4.2,0-8.5,0-12.7,0C435,223.4,435,204.2,435,185z"/>
	<path class="st1" d="M459.3,190.3c0-2.1,0.6-4.7,3-5.1c3.4-0.3,6.9-0.2,10.3-0.1c2.3-0.1,3.5,2.2,4.4,4
		c6.4,13.1,12.9,26.3,19.2,39.5c-0.4-14.5-0.2-29-0.3-43.5c4,0,8,0,12.1,0c-0.1,17.8,0,35.6-0.1,53.4c0.1,2-1.4,4-3.5,4
		c-3.3,0.2-6.6,0.2-9.9,0c-2.5-0.2-3.6-2.7-4.6-4.6c-5.1-10.5-10.4-21-15.5-31.6c-1.3-2.5-1.7-5.5-3.5-7.7c1.1,14.6,0.4,29.3,0.6,44
		c-4.1,0-8.2,0-12.3,0C459.3,225.1,459.2,207.7,459.3,190.3z"/>
	<path class="st1" d="M324.3,263c0.8-0.1,1.6-0.1,2.4-0.1c0.7,2.5,1.4,5.1,2,7.7c0.6-2.5,1-5,1.6-7.4c0.7-0.1,2-0.2,2.7-0.3
		c-0.7,3.8-1.5,7.5-2.2,11.3c-1,0-2,0-2.9,0c-0.8-2.6-1.5-5.3-2.3-7.9c-0.8,2.6-1.5,5.2-2.3,7.8c-1,0-2,0-3,0
		c-0.6-3.8-1.4-7.5-2.1-11.2c0.7,0.1,2,0.2,2.7,0.3c0.6,2.5,0.9,5.1,1.5,7.7C322.9,268.2,323.6,265.6,324.3,263z"/>
	<path class="st1" d="M354.8,262.9c2.5,0.2,6-0.6,7,2.4c-0.2,0.7-0.7,1.9-1,2.6c0.7,1.2,2.2,2.1,1.7,3.7c-0.9,3.5-5.2,2.2-7.8,2.5
		C354.8,270.4,354.8,266.6,354.8,262.9 M357.1,264.8c0.1,1,0.1,2.1,0.2,3.2c1.2-0.5,2.1-1.4,2.2-2.7
		C358.8,265.1,357.7,264.9,357.1,264.8 M357.2,269.4c0,0.7,0,2.1-0.1,2.8c1-0.1,2.1-0.2,3.1-0.3
		C360.4,269.9,358.8,269.5,357.2,269.4z"/>
	<path class="st1" d="M404,262.9c0.9,0,1.9,0,2.9,0.1c0.7,3.8,1.5,7.5,2.1,11.3c-3.5,0.7-3.1-2.7-3.5-5c-0.3-1-0.5-1.9-0.8-2.9
		c-0.5,2.6-1,5.2-2,7.7c-0.6,0-1.7-0.1-2.2-0.1c-0.9-2.5-1.5-5.1-2.1-7.6c-0.6,2.5-1,5.1-1.5,7.7c-0.6,0-1.9,0-2.5-0.1
		c0.5-3.7,1.4-7.4,2-11.1c0.8,0,2.3,0,3,0c0.7,2.6,1.5,5.2,2.1,7.8C402.5,268.2,403.2,265.5,404,262.9z"/>
	<path class="st1" d="M420,262.9c0.5,0,1.4,0,1.9,0c1.6,3.6,3,7.4,4.6,11.1c-0.6,0-1.9,0.2-2.5,0.2c-0.3-0.6-0.8-1.8-1-2.4
		c-1.4,0-2.7,0-4.1,0c-0.2,0.6-0.7,1.8-1,2.4c-0.6,0-1.9-0.2-2.5-0.2C417,270.3,418.5,266.5,420,262.9 M421.2,265.8
		c-0.6,1.3-1.2,2.6-1.7,3.9c0.7,0,2.2,0,2.9,0C422,268.5,421.5,267.2,421.2,265.8z"/>
	<path class="st1" d="M455.1,262.9c1,0,2.1,0,3.2,0.1c-1.5,1.8-2.9,3.7-4.4,5.5c1.5,1.8,3,3.7,4.6,5.5c-1.1,0-2.3,0-3.4,0.1
		c-1.1-1.7-2.3-3.3-3.5-4.9c0,1.6,0,3.2,0,4.9c-0.6,0-1.9,0-2.5,0.1c0-3.7,0-7.5,0-11.2c0.6,0,1.9,0,2.5,0.1c0,1.6,0,3.2,0,4.9
		C452.7,266.2,453.9,264.5,455.1,262.9z"/>
	<path class="st1" d="M602.9,262.7c3.9-0.2,4.2,4.5,6.1,7c0.1-2.3,0.1-4.5,0.1-6.7c0.6,0,1.9,0,2.5,0c0,3.7,0,7.4,0,11.1
		c-0.8,0-1.6,0.1-2.4,0.1c-1.3-2.3-2.6-4.7-3.9-7c0,2.3,0,4.7,0,7c-0.6,0-1.8,0-2.5,0C602.9,270.3,602.9,266.5,602.9,262.7z"/>
	<path class="st1" d="M340.2,262.9c2.2,0,4.3,0,6.5,0l0,2.1c-1.3,0-2.7,0-4,0c0,0.5,0,1.6,0,2.1c1.9,0,4.1-0.3,4.1,2.4
		c-1.4,0-2.8,0-4.1,0c0,0.6,0,1.6-0.1,2.2c1.3,0,2.7,0,4.1,0l0,2.2c-2.2,0-4.4,0-6.5,0C340.2,270.4,340.2,266.6,340.2,262.9z"/>
	<path class="st1" d="M369.2,266.3c0.4-2.9,3.6-4.4,6.1-3c1.7,0.9,1.5,3,0.9,4.6c0.8,1.5,1.6,3.2,0.4,4.8c-2.1,2.9-7.3,1.7-7.6-2.1
		c2-0.1,3.9,2.1,5.8,1c0.6-2.3-1.5-2.5-3.1-3c0.7-0.5,2.1-1.7,2.8-2.2c-0.3-0.5-0.6-1.1-0.9-1.6
		C372.3,265.7,370.8,266.2,369.2,266.3z"/>
	<path class="st1" d="M433.9,274c0-3.7,0-7.5,0-11.2c2.4,0.3,5.9-0.7,7.1,2.1c0.9,2.1-0.3,4.1-2,5.3c1,1.2,2.1,2.5,3.1,3.7
		c-1.1,0-2.1,0-3.2,0.1c-0.9-1.4-1.9-2.7-2.8-4.1c0,1,0,3.1,0,4.2C435.6,274.1,434.4,274.1,433.9,274 M436.2,264.9
		c0,1.1,0,2.2,0,3.4c0.9-0.1,1.8-0.3,2.8-0.4c-0.1-0.9-0.1-1.9-0.2-2.8C437.9,265,437,264.9,436.2,264.9z"/>
	<path class="st1" d="M465.3,262.9c2.2,0,4.3,0,6.5,0l-0.1,2.2c-1.3,0-2.7-0.1-4-0.1c0,0.5,0,1.7,0.1,2.2c1.3,0,2.5,0,3.8,0
		c0,0.6,0,1.8,0,2.4c-1.3,0-2.5,0-3.8,0c0,0.5-0.1,1.6-0.2,2.1c1.6,0.5,5.2-1.1,4.3,2.2c-2.2,0-4.4,0-6.7,0
		C465.3,270.3,465.3,266.6,465.3,262.9z"/>
	<path class="st1" d="M478.9,263c3,0,6,0,9,0l-0.1,2.2c-0.8,0-2.3-0.1-3.1-0.1c0,3,0,5.9,0,8.9c-0.6,0-1.9,0.1-2.5,0.1c0-3,0-6,0-9
		c-0.8,0-2.4,0-3.2,0.1L478.9,263z"/>
	<path class="st1" d="M495.1,262.9c0.6,0,1.9,0,2.5,0c0,3.7,0,7.4,0,11.1c-0.6,0-1.9,0-2.5,0C495.1,270.3,495.1,266.6,495.1,262.9z"
		/>
	<path class="st1" d="M505.9,262.6c3.8,0.1,4.2,4.7,6.1,7.2c0.1-2.3,0.1-4.7,0.1-7c0.6,0,1.8,0,2.5,0.1c0,3.7,0,7.4,0,11
		c-0.8,0-1.6,0.1-2.4,0.1c-1.3-2.4-2.6-4.7-3.9-7.1c0,2.3,0.1,4.6-0.1,6.9l-2.2,0.4C505.8,270.4,505.8,266.5,505.9,262.6z"/>
	<path class="st1" d="M524.8,263.9c3.1-2.5,7.6-0.3,9,3c-2-0.2-3.7-1.1-5.5-1.9c-2.9-0.2-4.7,4-2.4,6c1.5,2,4.3,0.7,5.6-0.8
		c-0.8-0.1-2.5-0.2-3.3-0.3c0-0.4,0.1-1.3,0.1-1.8c1.9,0,3.9,0,5.8,0.1c-0.5,3.3-3.1,6.6-6.8,5.9
		C522.5,273.8,520.7,266.5,524.8,263.9z"/>
	<path class="st1" d="M555.6,263.1c0.5-0.1,1.4-0.3,1.9-0.3c1.8,3.7,3.2,7.6,4.8,11.5c-1.9,0.2-3.1-0.7-3.6-2.4c-1.4,0-2.8,0-4.1,0
		c-0.2,0.6-0.5,1.7-0.7,2.2c-0.9,0-1.8,0-2.7,0C552.6,270.4,554,266.7,555.6,263.1 M555.1,269.8c1,0,2,0,3,0c-0.5-1.3-1-2.6-1.5-4
		C556.1,267.2,555.6,268.5,555.1,269.8z"/>
	<path class="st1" d="M570.6,264.7c2.9-3.5,8.3-1.7,9.9,2.1c-2.3,0.3-3.9-1.6-6-1.8c-3.2,0.4-3.9,5.2-1,6.6c1.8,1.2,3.5-0.4,4.9-1.5
		c-0.8-0.1-2.5-0.3-3.3-0.4l0-1.7c1.9,0,3.9,0.1,5.9,0.1c-0.6,3.1-2.9,6.4-6.5,5.9C569.9,274.1,567.2,267.9,570.6,264.7z"/>
	<path class="st1" d="M588.3,263c2.2,0,4.4,0,6.6,0l-0.1,2.2c-1.4,0-2.7,0-4,0c0,0.6,0.1,1.7,0.1,2.2c1.3,0,2.5,0,3.8,0
		c0,0.6,0,1.8,0,2.4c-1.3,0-2.6,0-3.9,0c0,0.5-0.1,1.6-0.1,2.2c1.6,0.5,5.2-1.1,4.3,2.2c-2.3,0-4.5,0-6.8,0
		C588.3,270.3,588.3,266.7,588.3,263z"/>
	<path class="st1" d="M621.3,272.6c-3.5-2.9-1.5-9.5,3.1-9.8c2.9-0.5,5.3,1.6,6.4,4.1c-2.1-0.1-3.7-1.3-5.5-1.9
		c-2.9-0.2-4.6,4-2.4,5.9c2.3,2.7,5.2-1.3,7.8-1C629.7,273.9,624.2,275.7,621.3,272.6z"/>
	<path class="st1" d="M637.3,262.8c3-0.8,4.1,1.8,5.3,3.9c1.3-2,2.5-4.7,5.5-4c-1.3,2-2.7,4-4.2,5.9c0,1.8,0,3.7-0.1,5.5l-2.3-0.3
		c0-1.7,0.1-3.3,0.1-4.9C640.2,266.9,638.8,264.9,637.3,262.8z"/>
</g>
</svg>