<?xml version="1.0" encoding="UTF-8"?>
<svg viewBox="0 0 200 38" version="1.1" xmlns="http://www.w3.org/2000/svg"
    xmlns:xlink="http://www.w3.org/1999/xlink">
    <title>FUSOTAO</title>
    <g stroke="none" stroke-width="1" fill="none" fill-rule="evenodd">
        <g id="logo-fusotao" transform="translate(0.000000, -21.000000)" fill="#FFFFFF">
            <g id="FUSOTAO" transform="translate(0.000000, 21.000000)">
                <path
                    d="M38.6178698,17.0407648 L32.6750296,22.1332461 C32.8857988,22.4671715 32.9534911,22.8920595 32.8242603,23.2997287 C32.7059171,23.6728417 32.4460355,23.9583171 32.1253254,24.113761 L33.6308875,32.021927 C34.2863905,31.850333 34.8822485,31.4408825 35.3323077,30.7475004 C36.1725443,29.4528863 36.736923,27.9327657 36.9468639,26.3653825 C37.0856804,25.3288125 37.4066272,24.3164675 37.8887574,23.3942539 C38.6197633,21.9959709 39.0352662,20.4214627 39.096213,18.863817 C39.1242603,18.1479911 38.9442603,17.5372591 38.6178698,17.0407648 Z"
                    fill-rule="nonzero"></path>
                <path
                    d="M30.4172781,22.2357274 C30.7265088,21.6913768 31.3753846,21.4216952 31.9852071,21.6240454 C32.0588165,21.648508 32.1289941,21.678908 32.1953846,21.714533 L38.2053254,16.5833392 C37.1604733,15.5949817 35.3880473,15.3013126 33.7702958,15.835332 L23.3911242,19.2613925 C23.1391716,19.3446364 22.9405917,19.5072053 22.8081656,19.7103868 L30.4172781,22.2357274 Z"
                    fill-rule="nonzero"></path>
                <path
                    d="M29.2359763,30.0777496 C30.1719526,31.3958762 31.6371597,32.2081272 32.9822485,32.1683459 L31.480355,24.3079175 C31.3711242,24.3006737 31.2610651,24.2796549 31.1521893,24.2434362 C30.5773964,24.0528422 30.2153846,23.502554 30.2276923,22.9158095 L22.5996449,20.3854814 C22.6034319,20.6076629 22.6711242,20.8328132 22.8123077,21.0316009 L29.2359763,30.0777496 Z"
                    fill-rule="nonzero"></path>
                <path
                    d="M27.2144378,36.5831201 L20.6526627,32.3640462 C20.407929,32.6726778 20.0345562,32.8699218 19.616213,32.8699218 C19.2333727,32.8699218 18.888284,32.7047403 18.644852,32.440165 L11.7718343,36.3514386 C12.1337278,36.9373518 12.6977514,37.3916899 13.4802367,37.6161276 C14.9411834,38.0350782 16.5261538,38.115472 18.0454438,37.8356967 C19.0501775,37.6506839 20.0887574,37.6506839 21.0936094,37.8356967 C22.616923,38.1163033 24.2063905,38.0346032 25.6706509,37.6126839 C26.3435503,37.4188836 26.8546745,37.0546769 27.2144378,36.5831201 Z"
                    fill-rule="nonzero"></path>
                <path
                    d="M19.8660355,30.1333247 C20.4685207,30.2654936 20.9201183,30.8125755 20.9201183,31.4673638 C20.9201183,31.5465702 20.9134911,31.624114 20.9008284,31.6995203 L27.5356213,35.9522006 C28.1330177,34.6318177 27.8588165,32.8193342 26.8616568,31.4127387 L20.4642603,22.3886776 C20.308994,22.1695836 20.096213,22.0270834 19.8660355,21.9611771 L19.8660355,30.1333247 Z"
                    fill-rule="nonzero"></path>
                <path
                    d="M12.1946745,31.44112 C11.2560946,32.7572279 10.9521538,34.4308925 11.404852,35.7246753 L18.2631952,31.8373893 C18.2360946,31.7290891 18.2217751,31.6156827 18.2217751,31.4988326 C18.2217751,30.8816881 18.6224852,30.3602562 19.172781,30.1909185 L19.172781,22.0023834 C18.9669822,22.0747022 18.7782248,22.2099586 18.6366864,22.4085089 L12.1946745,31.44112 Z"
                    fill-rule="nonzero"></path>
                <path
                    d="M6.42398813,22.1332461 L0.481189312,17.0408835 C0.154745525,17.5372591 -0.0251633512,18.1481099 0.00284966655,18.8639358 C0.0638082464,20.4215814 0.479229548,21.9960896 1.21028399,23.3942539 C1.69247334,24.3165862 2.01340825,25.3288125 2.15221298,26.3655013 C2.36210647,27.9328845 2.92652067,29.4530051 3.76675736,30.7476192 C4.21676919,31.4408825 4.81266269,31.850333 5.46816564,32.021927 L6.97373961,24.1138797 C6.65301772,23.9583171 6.39311239,23.6729605 6.27482837,23.2998475 C6.14556209,22.8920595 6.21319523,22.4671715 6.42398813,22.1332461 Z"
                    fill-rule="nonzero"></path>
                <path
                    d="M6.16468635,32.1364021 C7.50777511,32.1760647 8.97076919,31.3646449 9.90533724,30.0478246 L16.3194082,21.0108197 C16.460355,20.8122694 16.5280473,20.5873566 16.5317159,20.3652939 L8.91512422,22.8931282 C8.92738458,23.479279 8.56599996,24.0289734 7.9920473,24.2194486 C7.88333724,24.2555487 7.77337274,24.2766862 7.66430766,24.2838112 L6.16468635,32.1364021 Z"
                    fill-rule="nonzero"></path>
                <path
                    d="M7.12320706,21.6455392 C7.73382245,21.4429515 8.38373961,21.7128705 8.69338458,22.257815 L16.3139645,19.7299806 C16.1811834,19.5265616 15.9824852,19.3637551 15.7300591,19.2805113 L5.33542008,15.8508883 C3.71517156,15.3163939 1.94013014,15.6104193 0.893751442,16.5997267 L6.91267452,21.7360268 C6.97912422,21.7004018 7.04940825,21.6700017 7.12320706,21.6455392 Z"
                    fill-rule="nonzero"></path>
                <path
                    d="M26.5313609,7.47559486 L23.6423668,0.109222607 C24.2039053,-0.0555629341 24.8262722,-0.0421876301 25.4817751,0.206310589 C26.9084023,0.747065505 28.2410651,1.63855017 29.3126627,2.78321845 C30.0194083,3.53823188 30.8596449,4.1638789 31.7786982,4.61951134 C33.168284,5.30844031 34.4043787,6.3283497 35.3460355,7.54742682 C35.8504142,8.200327 36.0461538,8.907686 36.0028402,9.5996906 L28.1992899,8.62348128 C28.1542012,8.26282521 27.9695858,7.92128791 27.66,7.690687 C27.3215384,7.43868732 26.9063905,7.37331536 26.5313609,7.47559486 Z"
                    fill-rule="nonzero"></path>
                <path
                    d="M25.8737278,8.05540433 C25.496923,8.58517248 25.5474556,9.29890836 25.9588165,9.76749644 L21.2560946,16.3789702 C21.107929,16.1874262 21.0177514,15.9443447 21.018223,15.6738318 L21.0355029,4.53245561 C21.0382248,2.79580597 21.8594083,1.16479646 23.1024852,0.455231083 L26.0229585,7.87915536 C25.9693491,7.93259292 25.9192899,7.99138612 25.8737278,8.05540433 Z"
                    fill-rule="nonzero"></path>
                <path
                    d="M35.9711242,10.3407034 C35.592426,11.6590556 34.3830769,12.8307158 32.8659171,13.3321977 L22.4539645,16.7739332 C22.2250887,16.849577 21.9945562,16.8458958 21.7863905,16.7808207 L26.50071,10.1561182 C27.0434319,10.3493247 27.667929,10.1679576 28.0231952,9.66875569 C28.0904142,9.57420682 28.144142,9.4737917 28.1846154,9.36995657 L35.9711242,10.3407034 Z"
                    fill-rule="nonzero"></path>
                <path
                    d="M15.8508875,0.109222607 L12.9618935,7.47559486 C12.5868639,7.37331536 12.1717159,7.43868732 11.8332544,7.690687 C11.5235503,7.92128791 11.3390532,8.26282521 11.2938461,8.62348128 L3.49034316,9.5996906 C3.44706505,8.907686 3.64282837,8.200327 4.14715973,7.54742682 C5.0888402,6.3283497 6.32499405,5.30845219 7.71456801,4.61951134 C8.63358576,4.1638789 9.47378695,3.53823188 10.1805917,2.78321845 C11.2521893,1.63855017 12.584852,0.747065505 14.0113609,0.206310589 C14.6669822,-0.0421876301 15.2893491,-0.0555629341 15.8508875,0.109222607 Z"
                    fill-rule="nonzero"></path>
                <path
                    d="M6.67531357,13.3191352 C5.16048517,12.8181283 3.9528402,11.647715 3.57479286,10.3307046 L11.3497041,9.36094343 C11.3900591,9.46467169 11.4436686,9.56497994 11.5108875,9.6594338 C11.8655621,10.1581369 12.4891124,10.3393259 13.0310059,10.1463094 L17.7383432,16.7643144 C17.5305325,16.8292708 17.3002367,16.8330708 17.0717159,16.7574269 L6.67531357,13.3191352 Z"
                    fill-rule="nonzero"></path>
                <path
                    d="M13.5536094,9.77691332 C13.9655621,9.30786212 14.016213,8.59340186 13.6388165,8.06309934 C13.5931361,7.99900988 13.5430769,7.94015731 13.4893491,7.88667224 L16.4142011,0.455231083 C17.6591716,1.1655149 18.4815384,2.79818097 18.4842603,4.53658811 L18.5016578,15.6892694 C18.5020118,15.9601384 18.4118343,16.2034575 18.2633136,16.3951202 L13.5536094,9.77691332 Z"
                    fill-rule="nonzero"></path>
                <path
                    d="M132.743195,21.0152134 C132.743195,22.1286148 132.553846,23.1527161 132.173964,24.0875172 C131.792899,25.0224371 131.266272,25.8298194 130.590533,26.5096639 C129.914793,27.1896273 129.112426,27.7207967 128.184615,28.1032909 C127.263905,28.4772351 126.259172,28.6641479 125.170414,28.6641479 L120.712426,28.6641479 C119.622485,28.6641479 118.614201,28.4772351 117.685207,28.1032909 C116.756568,27.7207967 115.954438,27.1896273 115.279053,26.5096639 C114.60355,25.8298194 114.071716,25.0224371 113.683314,24.0875172 C113.303314,23.1527161 113.113373,22.1286148 113.113373,21.0152134 L113.113373,16.9854272 C113.113373,15.8805758 113.303314,14.8607496 113.683314,13.9258297 C114.071716,12.9824785 114.60355,12.1750963 115.279053,11.503683 C115.954438,10.823779 116.756568,10.2926096 117.685207,9.91016286 C118.614201,9.52771614 119.622485,9.33649278 120.712426,9.33649278 L125.170414,9.33649278 C126.259172,9.33649278 127.263905,9.52771614 128.184615,9.91016286 C129.112426,10.2926096 129.914793,10.823779 130.590533,11.503683 C131.266272,12.1750963 131.792899,12.9824785 132.173964,13.9258297 C132.553846,14.8607496 132.743195,15.8805758 132.743195,16.9854272 L132.743195,21.0152134 Z M129.450888,16.9854272 C129.450888,16.3309952 129.345562,15.7403319 129.133728,15.2134375 C128.931361,14.6779931 128.640237,14.2232988 128.260355,13.8493546 C127.888757,13.4668604 127.436686,13.1736663 126.905325,12.9697723 C126.381065,12.7572095 125.80355,12.6510469 125.170414,12.6510469 L120.712426,12.6510469 C120.069822,12.6510469 119.484024,12.7572095 118.951479,12.9697723 C118.428402,13.1736663 117.976331,13.4668604 117.596568,13.8493546 C117.216686,14.2232988 116.921183,14.6779931 116.710059,15.2134375 C116.507456,15.7403319 116.406154,16.3309952 116.406154,16.9854272 L116.406154,21.0152134 C116.406154,21.6696455 116.507456,22.2645837 116.710059,22.8000281 C116.921183,23.3269225 117.216686,23.7816168 117.596568,24.1641111 C117.976331,24.5380553 118.428402,24.8312494 118.951479,25.0436934 C119.484024,25.2477061 120.069822,25.3495938 120.712426,25.3495938 L125.144379,25.3495938 C125.785799,25.3495938 126.369231,25.2477061 126.892308,25.0436934 C127.423669,24.8312494 127.880473,24.5380553 128.260355,24.1641111 C128.640237,23.7816168 128.931361,23.3269225 129.133728,22.8000281 C129.345562,22.2645837 129.450888,21.6696455 129.450888,21.0152134 L129.450888,16.9854272 Z"
                    id="形状" fill-rule="nonzero"></path>
                <path
                    d="M200,21.0152134 C200,22.1286148 199.810651,23.1527161 199.430769,24.0875172 C199.050888,25.0224371 198.523077,25.8298194 197.847337,26.5096639 C197.171598,27.1896273 196.369231,27.7207967 195.44142,28.1032909 C194.52071,28.4772351 193.515976,28.6641479 192.427219,28.6641479 L187.969231,28.6641479 C186.87929,28.6641479 185.871006,28.4772351 184.942012,28.1032909 C184.013018,27.7207967 183.211834,27.1896273 182.536095,26.5096639 C181.860355,25.8298194 181.328994,25.0224371 180.939645,24.0875172 C180.559763,23.1527161 180.370414,22.1286148 180.370414,21.0152134 L180.370414,16.9854272 C180.370414,15.8805758 180.559763,14.8607496 180.939645,13.9258297 C181.328994,12.9824785 181.860355,12.1750963 182.536095,11.503683 C183.211834,10.823779 184.013018,10.2926096 184.942012,9.91016286 C185.871006,9.52771614 186.87929,9.33649278 187.969231,9.33649278 L192.427219,9.33649278 C193.515976,9.33649278 194.52071,9.52771614 195.44142,9.91016286 C196.369231,10.2926096 197.171598,10.823779 197.847337,11.503683 C198.523077,12.1750963 199.050888,12.9824785 199.430769,13.9258297 C199.810651,14.8607496 200,15.8805758 200,16.9854272 L200,21.0152134 Z M196.707692,16.9854272 C196.707692,16.3309952 196.602367,15.7403319 196.390533,15.2134375 C196.188166,14.6779931 195.897041,14.2232988 195.51716,13.8493546 C195.145562,13.4668604 194.693491,13.1736663 194.16213,12.9697723 C193.63787,12.7572095 193.060355,12.6510469 192.427219,12.6510469 L187.969231,12.6510469 C187.327811,12.6510469 186.740828,12.7572095 186.208284,12.9697723 C185.685207,13.1736663 185.233136,13.4668604 184.853254,13.8493546 C184.473373,14.2232988 184.177515,14.6779931 183.966864,15.2134375 C183.764497,15.7403319 183.662722,16.3309952 183.662722,16.9854272 L183.662722,21.0152134 C183.662722,21.6696455 183.764497,22.2645837 183.966864,22.8000281 C184.177515,23.3269225 184.473373,23.7816168 184.853254,24.1641111 C185.233136,24.5380553 185.685207,24.8312494 186.208284,25.0436934 C186.740828,25.2477061 187.327811,25.3495938 187.969231,25.3495938 L192.401183,25.3495938 C193.042604,25.3495938 193.626036,25.2477061 194.149112,25.0436934 C194.681657,24.8312494 195.137278,24.5380553 195.51716,24.1641111 C195.897041,23.7816168 196.188166,23.3269225 196.390533,22.8000281 C196.602367,22.2645837 196.707692,21.6696455 196.707692,21.0152134 L196.707692,16.9854272 Z"
                    id="形状" fill-rule="nonzero"></path>
                <path
                    d="M154.947929,12.5032029 C154.947929,12.8650346 154.657988,13.1583475 154.299408,13.1583475 L147.346746,13.1583475 L147.346746,28.0084095 C147.346746,28.3702412 147.056805,28.6635541 146.698225,28.6635541 L144.545562,28.6635541 C144.188166,28.6635541 143.898225,28.3702412 143.898225,28.0084095 L143.898225,13.1583475 L136.931361,13.1583475 C136.573964,13.1583475 136.28284,12.8650346 136.28284,12.5032029 L136.28284,10.318699 C136.28284,9.95685542 136.573964,9.66353068 136.931361,9.66353068 L154.299408,9.66353068 C154.657988,9.66353068 154.947929,9.95685542 154.947929,10.318699 L154.947929,12.5032029 Z"
                    fill-rule="nonzero"></path>
                <path
                    d="M158.16568,19.1635424 C158.16568,17.7767782 158.4,16.5003329 158.868639,15.3344439 C159.337278,14.1684362 159.988166,13.1658287 160.821302,12.3267402 C161.654438,11.4875686 162.639053,10.8339203 163.775148,10.3657597 C164.912426,9.8975991 166.152663,9.66353068 167.498225,9.66353068 C168.842604,9.66353068 170.084024,9.8975991 171.220118,10.3657597 C172.357396,10.8339203 173.342012,11.4875686 174.175148,12.3267402 C175.008284,13.1658287 175.659172,14.1684362 176.127811,15.3344439 C176.59645,16.5003329 176.830769,17.7767782 176.830769,19.1635424 L176.830769,28.0084095 C176.830769,28.3702412 176.542012,28.6635541 176.186982,28.6635541 L174.089941,28.6635541 C173.734911,28.6635541 173.446154,28.3702412 173.446154,28.0084095 L173.446154,23.9997609 L161.550296,23.9997609 L161.550296,28.0084095 C161.550296,28.3702412 161.261538,28.6635541 160.906509,28.6635541 L158.809467,28.6635541 C158.454438,28.6635541 158.16568,28.3702412 158.16568,28.0084095 L158.16568,19.1635424 Z M173.055621,16.7124206 C173.315976,17.3826464 173.446154,18.1981037 173.446154,19.1589111 L173.446154,20.5548191 L161.498225,20.5548191 L161.498225,19.1635424 C161.498225,18.200835 161.628402,17.3837152 161.888757,16.7124206 C162.15858,16.0322198 162.497041,15.4669691 162.904142,15.016431 C163.312426,14.565893 163.759763,14.2126113 164.24497,13.9564672 C164.731361,13.7003232 165.190533,13.5104417 165.624852,13.386704 C166.84142,13.0468411 168.106509,13.0476724 169.32071,13.386704 C169.753846,13.5103229 170.214201,13.7003232 170.699408,13.9564672 C171.185799,14.2126113 171.633136,14.565893 172.040237,15.016431 C172.448521,15.4668503 172.786982,16.0322198 173.055621,16.7124206 Z"
                    id="形状"></path>
                <path
                    d="M109.573846,23.0722035 C109.573846,23.7524043 109.486982,24.3662238 109.313373,24.9138995 C109.148284,25.4527876 108.926864,25.9296882 108.649112,26.3449575 C108.371243,26.760108 108.045562,27.1133897 107.672189,27.4049213 C107.298817,27.6963342 106.912426,27.9349032 106.513018,28.1203909 C106.113609,28.3058787 105.705444,28.4427976 105.288639,28.5311477 C104.880592,28.619379 104.494201,28.6635541 104.129467,28.6635541 L92.4631952,28.6635541 C92.1076923,28.6635541 91.8195266,28.3702412 91.8195266,28.0084095 L91.8195266,25.8738757 C91.8195266,25.512044 92.1076923,25.2187311 92.4631952,25.2187311 L104.129467,25.2187311 C104.78071,25.2187311 105.28426,25.0243371 105.640355,24.6356679 C106.00497,24.2469987 106.187337,23.725923 106.187337,23.0722035 C106.187337,22.7541906 106.139645,22.4627777 106.044142,22.1977274 C105.948639,21.9327958 105.809704,21.703133 105.627337,21.508739 C105.453609,21.3144638 105.236568,21.1642449 104.976095,21.0583197 C104.72426,20.9522758 104.442012,20.8993133 104.129467,20.8993133 L96.3405917,20.8993133 C95.7936094,20.8993133 95.2031952,20.8020569 94.5692307,20.6077817 C93.9353846,20.4046002 93.3449704,20.0821935 92.7978698,19.6405617 C92.2595266,19.1989299 91.8080473,18.6203792 91.4433136,17.9047908 C91.0873373,17.1893212 90.9093491,16.3148451 90.9093491,15.2813626 C90.9093491,14.2478801 91.0873373,13.3779165 91.4433136,12.6712344 C91.8080473,11.9557648 92.2595266,11.3771547 92.7978698,10.9354991 C93.3449704,10.4850086 93.9353846,10.1626019 94.5692307,9.96826731 C95.2031952,9.76510956 95.7936094,9.66353068 96.3405917,9.66353068 L108.02,9.66353068 C108.375385,9.66353068 108.66355,9.95685542 108.66355,10.318699 L108.66355,12.4533279 C108.66355,12.8151596 108.375385,13.1084724 108.02,13.1084724 L96.3405917,13.1084724 C95.6981065,13.1084724 95.1944379,13.3071414 94.8297041,13.7047169 C94.4737278,14.1021737 94.2957396,14.6277618 94.2957396,15.2813626 C94.2957396,15.9438697 94.4737278,16.4694578 94.8297041,16.8581271 C95.1944379,17.23789 95.6981065,17.4278903 96.3405917,17.4278903 L104.129467,17.4278903 L104.155503,17.4278903 C104.520237,17.4366778 104.906627,17.4896403 105.314675,17.5868967 C105.72284,17.6751281 106.126627,17.8165595 106.526035,18.0108347 C106.934083,18.20511 107.320473,18.4524665 107.685207,18.7527856 C108.049941,19.0443172 108.371243,19.3975989 108.649112,19.8127494 C108.935621,20.2279 109.16142,20.7049193 109.326391,21.2438075 C109.491361,21.7825769 109.573846,22.3921214 109.573846,23.0722035 Z"
                    fill-rule="nonzero"></path>
                <path
                    d="M79.103787,28.6061978 C79.4747929,28.5664165 79.8481657,28.5060914 80.223787,28.4251038 C80.9614201,28.2660974 81.6772781,28.0232533 82.3713609,27.6963342 C83.0569231,27.3607462 83.7033136,26.9366895 84.3107692,26.4244013 C84.9181065,25.9121132 85.4518343,25.3069625 85.911716,24.6091866 C86.3628402,23.9025045 86.7186982,23.0986847 86.9789349,22.1977274 C87.2392899,21.2879825 87.3694674,20.2765875 87.3694674,19.1635424 L87.3694674,10.318699 C87.3694674,9.95685542 87.0813018,9.66353068 86.7257988,9.66353068 L84.6289941,9.66353068 C84.2734911,9.66353068 83.9853254,9.95685542 83.9853254,10.318699 L83.9853254,19.1635424 C83.9853254,20.1351561 83.8551479,20.9566696 83.5949112,21.6279642 C83.3259171,22.2993775 82.9874556,22.8602344 82.5796449,23.3107725 C82.1718343,23.7611918 81.7249704,24.1145922 81.2390532,24.3707363 C80.7531361,24.6268804 80.2932544,24.8167619 79.8594083,24.9403808 C79.4168047,25.0641184 79.0307692,25.1435623 78.7009467,25.1789498 C78.3626035,25.2054311 78.1413018,25.2187311 78.0371597,25.2187311 C77.9330177,25.2187311 77.7118343,25.2054311 77.3733728,25.1789498 C77.0436686,25.1435623 76.6575148,25.0641184 76.2150296,24.9403808 C75.7811834,24.8167619 75.3213018,24.6268804 74.8352662,24.3707363 C74.3493491,24.1145922 73.9024852,23.7611918 73.4946745,23.3107725 C73.0868639,22.8602344 72.7485207,22.2993775 72.4795266,21.6279642 C72.2191716,20.9566696 72.0889941,20.1351561 72.0889941,19.1635424 L72.0889941,10.318699 C72.0889941,9.95685542 71.8008284,9.66353068 71.4454438,9.66353068 L69.3485207,9.66353068 C68.9931361,9.66353068 68.7049704,9.95685542 68.7049704,10.318699 L68.7049704,19.1635424 C68.7049704,20.2765875 68.8350296,21.2879825 69.0953846,22.1977274 C69.3557396,23.0986847 69.7114793,23.9025045 70.1627219,24.6091866 C70.6226035,25.3069625 71.156213,25.9121132 71.7636686,26.4244013 C72.3710059,26.9366895 73.0175148,27.3607462 73.7029586,27.6963342 C74.3971597,28.0232533 75.1130177,28.2660974 75.8505325,28.4251038 C76.2261538,28.5060914 76.5995266,28.5664165 76.9706509,28.6061978 C76.9706509,28.6061978 77.6201183,28.6635541 78.0371597,28.6635541 C78.4543195,28.6635541 79.103787,28.6061978 79.103787,28.6061978 Z"
                    fill-rule="nonzero"></path>
                <path
                    d="M64.6305325,20.8993133 C64.9256804,20.8993133 65.1649704,20.6562317 65.1649704,20.3563876 L65.1649704,17.9706972 C65.1649704,17.6708531 64.9256804,17.4277715 64.6305325,17.4277715 L52.812426,17.4277715 L52.812426,13.1084724 L64.6305325,13.1084724 C64.9256804,13.1084724 65.1649704,12.8653909 65.1649704,12.5655468 L65.1649704,10.2063851 C65.1649704,9.90658848 64.9256804,9.66353068 64.6305325,9.66353068 L51.1176331,9.66353068 C50.872426,9.66353068 50.6447337,9.70765824 50.4345562,9.79599647 C50.2243787,9.88432283 50.0404733,10.0080486 49.8828402,10.1670194 C49.7339645,10.3260021 49.6157396,10.511478 49.5280473,10.7235301 C49.4404733,10.9355229 49.3966864,11.1607563 49.3966864,11.3992541 L49.3966864,28.1207472 C49.3966864,28.4205913 49.6360946,28.6635541 49.9312426,28.6635541 L52.2778698,28.6635541 C52.5731361,28.6635541 52.812426,28.4205913 52.812426,28.1207472 L52.812426,20.8993133 L64.6305325,20.8993133 Z"
                    fill-rule="nonzero"></path>
            </g>
        </g>
    </g>
</svg>