<?xml version="1.0" encoding="UTF-8"?>
<!DOCTYPE svg PUBLIC "-//W3C//DTD SVG 1.1//EN" "http://www.w3.org/Graphics/SVG/1.1/DTD/svg11.dtd">
<svg viewBox="0 0 1185 265" version="1.1"
  xmlns="http://www.w3.org/2000/svg">
  <g id="#fdbf1cff">
    <path fill="#fdbf1c" opacity="1.00"
      d=" M 209.93 0.00 L 210.01 0.00 C 253.45 21.25 296.81 42.70 340.32 63.81 C 354.09 112.28 367.68 160.80 381.38 209.29 C 381.31 209.84 381.17 210.94 381.10 211.49 C 307.42 216.12 233.72 220.44 160.03 225.00 C 156.37 225.69 153.40 223.14 150.26 221.76 C 107.52 200.56 64.66 179.61 21.94 158.36 L 22.21 157.94 C 39.75 156.90 57.29 155.76 74.84 154.80 C 105.96 152.78 137.11 151.09 168.23 149.04 C 123.71 126.94 79.11 104.98 34.50 83.06 C 56.39 64.41 78.35 45.84 100.33 27.30 C 131.98 42.89 163.66 58.42 195.30 74.02 C 207.04 79.91 218.96 85.43 230.62 91.46 C 232.56 92.51 234.57 93.42 236.69 94.01 C 227.69 62.75 219.02 31.38 209.97 0.13 L 209.93 0.00 Z" />
  </g>
  <g id="#2c3034ff">
    <path fill="#2c3034" opacity="1.00"
      d=" M 188.43 40.56 C 195.31 26.94 202.79 13.60 209.97 0.13 C 219.02 31.38 227.69 62.75 236.69 94.01 C 234.57 93.42 232.56 92.51 230.62 91.46 C 218.96 85.43 207.04 79.91 195.30 74.02 C 193.11 62.85 190.35 51.76 188.43 40.56 Z" />
    <path fill="#2c3034" opacity="1.00"
      d=" M 12.40 122.83 C 19.79 109.58 27.11 96.30 34.50 83.06 C 79.11 104.98 123.71 126.94 168.23 149.04 C 137.11 151.09 105.96 152.78 74.84 154.80 C 74.85 154.44 74.87 153.73 74.88 153.38 C 54.02 143.27 33.21 133.05 12.40 122.83 Z" />
    <path fill="#2c3034" opacity="1.00"
      d=" M 0.55 197.46 C 7.44 184.30 15.04 171.52 21.94 158.36 C 64.66 179.61 107.52 200.56 150.26 221.76 C 153.40 223.14 156.37 225.69 160.03 225.00 C 233.72 220.44 307.42 216.12 381.10 211.49 C 381.17 210.94 381.31 209.84 381.38 209.29 C 381.65 209.95 381.93 210.61 382.24 211.26 C 374.63 224.44 367.50 237.89 360.00 251.13 C 287.65 255.55 215.30 259.92 142.95 264.32 C 139.42 264.40 135.59 265.50 132.39 263.46 C 88.31 241.40 44.02 219.76 0.00 197.57 L 0.00 197.25 C 0.14 197.30 0.41 197.40 0.55 197.46 Z" />
  </g>
  <g id="#ffffffff">
    <path fill="#ffffff" opacity="1.00"
      d=" M 461.88 62.00 C 478.17 62.00 494.46 61.99 510.76 62.01 C 510.74 85.09 510.75 108.17 510.75 131.25 C 532.50 131.25 554.25 131.25 576.00 131.25 C 576.00 108.17 576.00 85.08 576.00 62.00 C 592.29 62.00 608.58 61.99 624.88 62.00 C 624.87 122.67 624.87 183.33 624.88 243.99 C 608.58 244.01 592.29 244.00 576.00 244.00 C 576.00 220.92 576.00 197.83 576.00 174.75 C 554.25 174.75 532.50 174.75 510.75 174.75 C 510.76 197.82 510.71 220.89 510.78 243.96 C 494.48 244.05 478.18 243.98 461.88 244.00 C 461.87 183.33 461.87 122.67 461.88 62.00 Z" />
    <path fill="#ffffff" opacity="1.00"
      d=" M 645.88 62.00 C 692.29 62.00 738.71 62.00 785.12 62.00 C 785.15 76.48 785.08 90.96 785.16 105.44 C 755.02 105.58 724.88 105.46 694.75 105.51 C 694.75 114.09 694.74 122.67 694.75 131.25 C 720.38 131.25 746.01 131.26 771.65 131.24 C 771.59 145.73 771.65 160.23 771.62 174.72 C 745.99 174.78 720.37 174.73 694.75 174.75 C 694.74 183.33 694.75 191.91 694.75 200.49 C 724.89 200.56 755.03 200.39 785.17 200.58 C 785.07 215.05 785.15 229.52 785.12 244.00 C 738.71 244.00 692.29 244.00 645.88 244.00 C 645.87 183.33 645.87 122.67 645.88 62.00 Z" />
    <path fill="#ffffff" opacity="1.00"
      d=" M 805.12 62.01 C 835.10 62.00 865.07 61.99 895.05 62.01 C 911.76 62.39 929.19 65.17 943.37 74.58 C 954.42 81.88 961.99 93.93 964.04 106.98 C 966.82 123.39 964.41 142.01 952.67 154.61 C 941.98 166.27 925.98 170.61 910.80 172.49 C 923.67 175.04 934.10 184.20 941.20 194.87 C 952.02 211.04 962.16 227.64 972.69 244.00 C 954.15 244.01 935.62 243.99 917.08 244.01 C 906.44 227.23 896.15 210.22 885.57 193.40 C 882.08 188.01 877.47 182.91 871.24 180.78 C 865.74 178.73 859.78 178.76 854.00 178.74 C 854.00 200.49 854.00 222.25 854.00 244.00 C 837.71 244.00 821.41 244.01 805.12 243.99 C 805.13 183.33 805.13 122.67 805.12 62.01 M 854.00 105.50 C 854.01 116.92 853.98 128.34 854.01 139.76 C 866.67 139.72 879.34 139.79 892.00 139.73 C 897.63 139.63 903.84 139.16 908.30 135.29 C 914.24 130.24 914.65 121.05 911.83 114.24 C 908.91 107.92 901.49 105.68 895.04 105.52 C 881.36 105.47 867.68 105.52 854.00 105.50 Z" />
    <path fill="#ffffff" opacity="1.00"
      d=" M 983.12 62.00 C 1029.54 62.00 1075.96 62.00 1122.38 62.00 C 1122.38 76.50 1122.37 91.00 1122.38 105.50 C 1092.25 105.51 1062.12 105.49 1032.00 105.50 C 1032.00 114.09 1031.99 122.67 1032.00 131.25 C 1057.63 131.24 1083.26 131.28 1108.88 131.23 C 1108.85 145.73 1108.91 160.23 1108.85 174.74 C 1083.24 174.77 1057.62 174.74 1032.00 174.75 C 1031.99 183.33 1032.00 191.91 1032.00 200.49 C 1062.12 200.51 1092.25 200.49 1122.38 200.50 C 1122.37 215.00 1122.38 229.50 1122.37 244.00 C 1075.96 243.99 1029.54 244.01 983.12 243.99 C 983.13 183.33 983.12 122.67 983.12 62.00 Z" />
  </g>
  <g id="#fd84e3ff">
    <path fill="#fd84e3" opacity="1.00"
      d=" M 1136.00 197.50 C 1152.33 197.52 1168.67 197.46 1185.00 197.53 L 1185.00 243.90 C 1168.67 244.12 1152.33 243.94 1136.00 244.00 C 1136.00 228.50 1136.00 213.00 1136.00 197.50 Z" />
  </g>
</svg>