<?xml version="1.0" encoding="UTF-8"?>
<!DOCTYPE svg PUBLIC "-//W3C//DTD SVG 1.1//EN" "http://www.w3.org/Graphics/SVG/1.1/DTD/svg11.dtd">
<svg viewBox="0 0 2663 535" version="1.1"
  xmlns="http://www.w3.org/2000/svg">
  <g id="#fff">
    <path fill="#fff" opacity="1.00"
      d=" M 307.80 0.00 L 334.64 0.00 C 334.83 32.67 334.20 65.34 334.18 98.01 C 334.65 105.52 331.15 112.74 326.77 118.62 C 308.97 137.52 290.36 155.64 271.95 173.95 C 231.28 214.29 190.38 254.39 150.05 295.06 C 145.40 300.13 139.79 304.72 137.28 311.32 C 134.63 318.21 135.18 325.74 134.97 332.98 C 135.03 340.45 134.10 348.47 137.78 355.32 C 141.39 362.01 146.96 367.32 152.11 372.81 C 163.12 384.16 174.48 395.18 185.44 406.59 C 190.20 411.59 195.23 416.66 197.94 423.14 C 200.65 429.72 200.29 437.00 200.63 443.97 C 201.09 474.31 201.35 504.66 201.54 535.00 L 156.00 535.00 C 156.01 509.66 156.00 484.32 155.73 458.98 C 155.92 451.06 152.71 443.36 147.50 437.48 C 134.85 422.84 120.41 409.89 107.16 395.81 C 101.49 389.76 95.08 383.86 92.18 375.88 C 89.95 369.18 90.27 362.00 90.04 355.03 C 90.03 339.33 89.64 323.63 90.10 307.93 C 90.34 301.59 90.53 295.06 93.04 289.13 C 95.48 282.48 101.01 277.77 105.75 272.77 C 147.59 230.60 189.93 188.94 231.87 146.88 C 247.81 130.84 263.88 114.92 279.50 98.57 C 284.90 93.20 288.42 85.78 288.48 78.10 C 289.43 52.37 289.05 26.61 289.82 0.88 C 295.81 0.42 301.81 0.51 307.80 0.00 Z" />
    <path fill="#fff" opacity="1.00"
      d=" M 379.41 0.38 C 394.10 0.37 408.78 0.37 423.46 0.37 C 424.23 41.23 424.15 82.09 424.23 122.95 C 424.51 156.31 424.33 189.68 424.24 223.04 C 424.11 234.08 424.26 245.14 423.61 256.16 C 423.04 264.97 417.78 272.66 411.60 278.63 C 385.30 305.30 359.00 331.98 332.29 358.24 C 326.52 363.50 321.39 369.58 314.71 373.74 C 309.91 376.37 304.65 378.59 299.10 378.83 C 280.74 379.66 262.36 379.06 244.00 378.78 C 235.88 378.53 227.01 378.82 220.02 374.00 C 213.46 369.31 207.86 363.47 202.09 357.90 C 188.53 344.43 174.96 330.96 161.41 317.49 C 174.01 308.54 190.03 304.65 205.32 306.88 C 215.53 308.60 225.09 313.42 233.04 319.98 C 237.46 323.51 240.76 328.69 246.34 330.55 C 253.63 332.92 261.41 332.38 268.96 332.27 C 274.30 332.06 279.65 332.10 284.99 331.70 C 294.25 329.26 300.92 321.99 307.55 315.54 C 324.96 298.29 342.26 280.92 359.47 263.46 C 363.83 258.83 368.30 254.27 372.29 249.31 C 377.35 243.11 379.05 234.86 379.03 227.03 C 379.60 151.48 379.36 75.93 379.41 0.38 Z" />
    <path fill="#fff" opacity="1.00"
      d=" M 132.66 26.69 C 137.10 24.37 141.95 22.59 147.03 22.66 C 174.69 22.25 202.36 22.16 230.03 22.14 C 234.61 22.36 239.37 21.87 243.79 23.32 C 245.60 24.51 243.70 26.82 243.50 28.44 C 237.37 48.37 219.69 64.24 199.13 67.88 C 187.62 69.46 175.94 67.09 164.43 68.64 C 157.72 69.64 151.41 72.79 146.51 77.45 C 131.95 90.90 118.38 105.35 104.37 119.36 C 72.71 151.38 40.93 183.27 9.11 215.13 C 6.22 218.04 3.51 221.21 0.00 223.40 L 0.00 156.90 C 19.02 137.61 38.27 118.55 57.38 99.35 C 78.22 78.52 98.90 57.54 120.13 37.11 C 124.09 33.40 127.71 29.12 132.66 26.69 Z" />
    <path fill="#fff" opacity="1.00"
      d=" M 445.90 66.38 C 461.85 70.24 475.88 81.03 483.47 95.60 C 486.50 101.65 489.31 108.06 490.05 114.84 C 490.16 170.55 490.44 226.26 490.24 281.97 C 489.91 290.58 490.80 299.52 487.80 307.77 C 485.76 313.76 481.54 318.66 477.32 323.25 C 467.98 333.25 458.31 342.96 448.70 352.70 C 418.00 383.63 387.73 414.98 356.54 445.42 C 352.80 440.25 349.71 434.59 347.62 428.57 C 344.68 420.07 344.76 410.89 345.64 402.05 C 346.65 392.47 350.86 383.38 356.91 375.95 C 381.93 348.97 409.46 324.46 434.88 297.87 C 439.63 292.83 443.68 286.61 444.35 279.55 C 445.31 270.39 445.13 261.16 445.29 251.96 C 445.86 190.10 444.84 128.24 445.90 66.38 Z" />
    <path fill="#fff" opacity="1.00"
      d=" M 138.06 130.06 C 151.93 116.65 165.28 102.71 179.32 89.47 C 186.66 100.40 190.46 113.79 189.47 126.94 C 187.99 138.69 183.82 150.74 175.13 159.13 C 149.06 186.39 122.24 212.91 95.74 239.74 C 88.49 247.17 81.02 254.38 74.20 262.21 C 69.38 267.55 66.74 274.81 67.14 282.01 C 66.48 342.21 67.15 402.42 67.14 462.62 C 50.02 458.56 34.37 447.02 27.32 430.64 C 24.59 423.77 21.68 416.58 22.15 409.04 C 22.22 358.00 22.13 306.96 22.19 255.91 C 23.11 249.20 26.04 242.71 30.65 237.70 C 43.20 223.60 56.96 210.64 70.29 197.28 C 92.78 174.78 115.53 152.54 138.06 130.06 Z" />
    <path fill="#fff" opacity="1.00"
      d=" M 657.58 131.63 C 659.34 130.13 661.13 127.82 663.75 128.32 C 666.93 128.72 668.66 132.07 668.49 135.03 C 668.88 175.33 668.61 215.64 668.86 255.94 C 668.98 288.96 668.56 321.98 669.38 354.99 C 669.14 363.55 672.73 371.65 677.31 378.70 C 683.34 388.61 693.01 396.28 704.15 399.59 C 710.34 400.71 716.68 400.36 722.95 400.60 C 772.40 400.93 821.86 401.18 871.32 401.36 C 872.93 403.23 874.83 405.36 874.36 408.06 C 874.20 410.49 872.16 412.05 870.61 413.65 C 818.39 413.56 766.17 413.64 713.96 412.84 C 695.10 413.44 677.86 401.44 667.92 386.04 C 662.37 377.06 657.92 366.78 658.35 356.03 C 657.54 281.23 657.95 206.43 657.58 131.63 Z" />
    <path fill="#fff" opacity="1.00"
      d=" M 1536.30 128.22 C 1578.54 128.42 1620.79 128.28 1663.03 128.50 C 1672.35 128.80 1681.71 128.33 1691.01 129.23 C 1707.72 132.55 1723.28 141.61 1734.50 154.44 C 1747.41 169.93 1755.04 189.81 1755.40 210.02 C 1755.57 228.58 1750.37 247.40 1739.70 262.70 C 1732.50 273.36 1722.34 281.81 1711.12 287.98 C 1716.65 291.41 1722.62 294.18 1727.59 298.46 C 1735.02 304.44 1741.22 311.92 1745.80 320.28 C 1751.63 330.28 1754.09 341.85 1755.27 353.24 C 1755.93 372.05 1755.54 390.88 1755.69 409.70 C 1753.93 411.11 1752.41 413.30 1750.05 413.61 C 1747.67 413.30 1746.15 411.11 1744.41 409.70 C 1744.44 393.45 1744.29 377.21 1744.24 360.97 C 1744.70 345.36 1739.86 329.35 1729.71 317.33 C 1723.88 309.29 1715.50 303.35 1706.33 299.69 C 1702.98 298.43 1699.69 296.55 1696.03 296.61 C 1645.42 296.42 1594.82 296.36 1544.22 296.25 C 1544.16 334.19 1543.95 372.13 1543.90 410.07 C 1542.38 411.43 1541.05 413.49 1538.83 413.60 C 1536.23 413.85 1534.60 411.50 1532.93 409.95 C 1533.07 382.63 1532.91 355.31 1532.88 327.99 C 1533.04 314.70 1532.77 301.40 1533.58 288.13 C 1533.49 285.74 1535.77 284.23 1538.00 284.55 C 1581.66 283.96 1625.33 284.27 1668.98 283.86 C 1677.60 283.55 1686.47 284.30 1694.81 281.61 C 1708.87 277.66 1721.01 268.29 1729.76 256.75 C 1735.79 248.50 1739.73 238.90 1742.22 229.03 C 1745.06 219.19 1744.37 208.76 1743.11 198.73 C 1739.57 181.13 1730.51 164.01 1715.75 153.32 C 1707.18 147.22 1697.37 142.59 1687.00 140.68 C 1636.44 140.24 1585.88 140.29 1535.32 139.84 C 1534.26 138.01 1532.70 136.18 1533.00 133.91 C 1533.02 131.54 1534.89 129.90 1536.30 128.22 Z" />
    <path fill="#fff" opacity="1.00"
      d=" M 2133.89 130.86 C 2135.51 127.86 2140.65 127.17 2142.43 130.37 C 2145.81 136.39 2147.94 143.02 2150.76 149.31 C 2182.30 226.07 2213.88 302.80 2245.39 379.58 C 2248.26 385.82 2250.06 392.95 2255.24 397.80 C 2260.32 402.59 2269.10 401.78 2273.72 396.70 C 2277.78 392.22 2279.56 386.26 2281.65 380.71 C 2312.65 300.30 2343.46 219.80 2374.51 139.41 C 2376.09 135.86 2376.82 131.53 2380.13 129.08 C 2382.19 127.46 2385.28 128.26 2386.76 130.32 C 2388.81 132.79 2387.88 136.24 2386.99 138.99 C 2364.14 198.16 2341.42 257.39 2318.59 316.57 C 2309.05 340.82 2300.08 365.28 2290.44 389.48 C 2288.56 395.62 2285.77 401.61 2281.21 406.23 C 2277.08 410.77 2270.95 412.86 2265.02 413.59 C 2255.89 413.75 2246.55 408.94 2242.34 400.66 C 2236.20 389.02 2232.07 376.45 2226.70 364.46 C 2214.76 334.79 2202.35 305.31 2190.27 275.70 C 2176.92 242.83 2163.24 210.10 2149.82 177.27 C 2144.81 165.25 2140.08 153.11 2134.87 141.17 C 2133.66 137.98 2131.81 134.09 2133.89 130.86 Z" />
    <path fill="#fff" opacity="1.00"
      d=" M 2477.84 128.98 C 2532.46 127.92 2587.10 128.68 2641.73 128.22 C 2643.13 129.92 2645.12 131.56 2645.07 134.00 C 2645.36 136.62 2643.24 138.46 2641.75 140.28 C 2593.18 140.30 2544.62 140.04 2496.06 140.54 C 2487.72 140.84 2479.07 140.06 2471.18 143.29 C 2457.54 148.64 2447.05 160.65 2442.39 174.41 C 2438.86 183.50 2439.56 193.39 2439.29 202.94 C 2438.95 245.97 2439.30 288.99 2439.32 332.03 C 2439.48 341.35 2439.25 350.73 2440.35 360.01 C 2443.53 379.18 2458.87 395.34 2477.47 400.46 C 2482.60 400.93 2487.79 400.59 2492.95 400.75 C 2545.97 400.86 2598.99 401.21 2652.01 401.34 C 2655.16 401.58 2659.39 400.26 2661.35 403.63 C 2664.21 406.94 2662.03 411.38 2659.02 413.67 C 2627.33 413.61 2595.64 413.59 2563.95 413.50 C 2534.96 412.90 2505.94 413.72 2476.96 412.42 C 2472.45 412.43 2468.33 410.41 2464.25 408.76 C 2444.83 399.37 2430.61 379.54 2428.73 357.97 C 2427.93 322.32 2428.65 286.65 2428.23 250.99 C 2428.25 234.00 2428.22 217.01 2428.42 200.03 C 2428.76 189.61 2428.10 178.81 2431.97 168.91 C 2435.59 158.90 2441.78 149.84 2449.49 142.52 C 2457.48 135.63 2467.43 130.77 2477.84 128.98 Z" />
    <path fill="#fff" opacity="1.00"
      d=" M 1033.65 130.67 C 1041.53 126.78 1051.26 128.85 1058.14 133.90 C 1063.13 137.42 1066.22 142.89 1068.34 148.50 C 1098.96 225.93 1129.60 303.35 1160.17 380.81 C 1163.25 389.31 1167.53 397.41 1169.56 406.27 C 1170.67 410.03 1167.06 414.53 1163.06 413.37 C 1160.54 412.10 1159.32 409.31 1158.12 406.92 C 1145.56 374.93 1132.92 342.97 1120.30 311.00 C 1087.29 311.01 1054.29 310.96 1021.28 311.03 C 1019.85 309.26 1017.87 307.55 1017.85 305.09 C 1017.53 301.70 1020.58 298.66 1023.95 298.85 C 1054.30 297.89 1084.68 299.13 1115.04 298.32 C 1107.78 278.69 1099.71 259.37 1092.08 239.89 C 1080.76 211.21 1069.56 182.47 1058.10 153.84 C 1056.07 148.51 1052.28 143.37 1046.65 141.57 C 1042.18 140.08 1037.30 141.91 1034.02 145.05 C 1029.92 148.80 1028.31 154.30 1026.28 159.30 C 993.29 241.65 960.22 323.95 927.38 406.36 C 926.53 409.61 924.40 412.75 921.03 413.70 C 916.42 413.31 913.82 407.99 916.06 404.02 C 926.48 376.94 937.67 350.17 948.22 323.13 C 961.41 290.89 973.93 258.39 987.14 226.16 C 997.43 200.44 1007.67 174.69 1018.03 149.00 C 1020.80 141.32 1025.94 133.97 1033.65 130.67 Z" />
    <path fill="#fff" opacity="1.00"
      d=" M 1290.35 129.27 C 1302.86 128.10 1315.48 128.90 1328.04 128.52 C 1354.01 128.49 1379.99 128.41 1405.97 128.73 C 1423.63 128.06 1440.93 134.77 1455.30 144.69 C 1469.29 154.78 1480.85 168.45 1487.79 184.30 C 1489.84 189.27 1492.94 194.24 1492.59 199.80 C 1492.25 204.50 1484.62 205.39 1482.87 201.23 C 1480.35 196.25 1478.70 190.87 1475.95 186.00 C 1467.73 170.94 1455.40 157.97 1440.38 149.60 C 1430.35 144.57 1419.38 140.59 1408.02 140.74 C 1380.04 140.15 1352.05 140.46 1324.07 140.37 C 1313.11 140.48 1302.12 140.52 1291.19 141.50 C 1280.40 143.47 1270.01 147.74 1260.96 153.96 C 1255.23 157.37 1250.76 162.42 1246.07 167.08 C 1236.98 176.39 1230.58 188.08 1226.51 200.38 C 1224.36 207.06 1222.24 213.88 1222.26 220.97 C 1221.65 244.98 1222.25 268.99 1222.11 293.00 C 1222.21 304.09 1221.97 315.20 1222.87 326.27 C 1223.93 337.31 1228.60 347.60 1233.67 357.33 C 1242.16 373.80 1256.55 386.97 1273.43 394.52 C 1280.60 397.58 1288.12 400.37 1296.03 400.36 C 1322.69 400.99 1349.36 400.65 1376.03 401.00 C 1389.01 400.85 1402.04 401.39 1414.99 400.36 C 1432.96 397.72 1449.94 388.56 1462.01 374.98 C 1469.97 366.11 1476.71 355.93 1480.77 344.68 C 1481.79 342.32 1482.71 339.42 1485.31 338.35 C 1488.79 336.63 1493.37 340.21 1492.72 344.01 C 1492.17 348.13 1490.32 351.93 1488.74 355.73 C 1482.35 369.67 1473.10 382.41 1461.37 392.34 C 1449.04 402.27 1434.42 409.78 1418.71 412.37 C 1405.49 413.32 1392.22 413.10 1378.98 413.35 C 1352.65 413.42 1326.33 413.46 1300.01 412.89 C 1281.45 413.14 1263.52 405.33 1249.22 393.84 C 1229.17 377.98 1215.70 354.27 1212.01 329.00 C 1210.48 319.40 1210.86 309.65 1210.64 299.98 C 1210.52 275.31 1210.30 250.64 1210.91 225.98 C 1211.53 190.62 1231.30 155.60 1262.69 138.69 C 1271.36 134.17 1280.73 131.03 1290.35 129.27 Z" />
    <path fill="#fff" opacity="1.00"
      d=" M 1876.25 129.19 C 1913.47 128.10 1950.74 128.84 1987.99 128.63 C 2000.23 129.09 2012.97 127.78 2024.66 132.24 C 2041.23 137.37 2056.05 147.62 2067.15 160.89 C 2079.75 175.77 2087.87 194.29 2090.72 213.54 C 2092.03 220.93 2091.76 228.46 2091.94 235.92 C 2092.21 262.63 2092.31 289.34 2091.74 316.03 C 2091.17 352.03 2070.33 387.56 2037.92 403.86 C 2028.53 408.29 2018.60 412.47 2008.06 412.60 C 1984.72 413.64 1961.36 413.12 1938.02 413.25 C 1919.66 413.31 1901.30 413.24 1882.96 412.77 C 1878.69 412.64 1874.41 412.40 1870.28 411.36 C 1854.04 407.36 1838.68 399.10 1826.93 387.13 C 1807.57 368.12 1796.09 341.15 1796.30 313.97 C 1795.92 291.00 1796.01 268.02 1795.91 245.05 C 1796.15 231.13 1795.65 216.96 1799.27 203.39 C 1802.42 189.83 1808.93 177.22 1817.03 165.97 C 1830.95 146.63 1852.62 132.81 1876.25 129.19 M 1875.44 141.77 C 1860.40 144.37 1846.84 152.51 1835.68 162.67 C 1820.95 176.33 1811.76 195.27 1808.10 214.86 C 1807.87 250.90 1808.12 286.95 1807.98 322.99 C 1807.74 328.43 1809.88 333.54 1811.28 338.70 C 1816.02 354.93 1825.10 369.96 1837.99 381.00 C 1851.24 393.08 1868.85 400.89 1886.94 400.63 C 1925.28 401.49 1963.63 401.17 2001.97 400.61 C 2014.98 400.90 2027.60 396.25 2038.66 389.67 C 2044.51 386.47 2049.41 381.83 2054.16 377.21 C 2068.82 363.09 2077.26 343.42 2080.12 323.47 C 2080.72 315.67 2080.53 307.83 2080.70 300.02 C 2080.89 273.65 2080.90 247.28 2080.41 220.92 C 2078.46 200.20 2069.55 180.03 2054.87 165.19 C 2043.50 153.40 2028.67 144.85 2012.56 141.67 C 2007.72 140.95 2002.83 141.15 1997.98 140.99 C 1966.98 140.46 1935.99 140.44 1904.99 140.50 C 1895.14 140.87 1885.19 140.04 1875.44 141.77 Z" />
    <path fill="#fff" opacity="1.00"
      d=" M 2492.32 265.58 C 2498.09 264.25 2504.09 264.93 2509.98 264.64 C 2532.60 264.57 2555.22 264.68 2577.84 264.59 C 2580.16 266.90 2582.31 270.33 2580.62 273.65 C 2579.47 276.90 2575.48 276.25 2572.77 276.50 C 2546.03 276.79 2519.29 276.54 2492.56 276.64 C 2489.76 273.67 2488.68 268.33 2492.32 265.58 Z" />
    <path fill="#fff" opacity="1.00"
      d=" M 394.48 451.53 C 433.95 412.71 472.80 373.26 511.84 334.00 C 512.01 356.45 512.10 378.91 512.19 401.36 C 484.94 428.72 457.60 456.00 430.10 483.12 C 423.03 490.05 415.94 496.98 408.64 503.69 C 403.37 508.75 396.24 511.68 389.12 512.85 C 340.19 512.65 291.26 512.99 242.34 512.45 C 244.26 506.32 246.72 500.35 249.81 494.72 C 258.76 480.50 274.05 470.14 290.88 468.32 C 313.59 467.17 336.34 467.64 359.06 466.89 C 365.71 466.49 372.65 466.60 378.85 463.82 C 385.08 461.20 389.61 456.00 394.48 451.53 Z" />
  </g>
</svg>