<svg xmlns="http://www.w3.org/2000/svg" viewBox="0 0 404.7 107.83"><defs><style>.cls-1{fill:#fff;}</style></defs><g id="Layer_2" data-name="Layer 2"><g id="Layer_1-2" data-name="Layer 1"><path d="M74.41,2A51.92,51.92,0,0,0,25,69.87a8.66,8.66,0,0,0-.79.6L5.2,86.68a9.12,9.12,0,0,0-1,12.86h0a9.12,9.12,0,0,0,12.86,1L33.81,86.26A51.91,51.91,0,1,0,74.41,2Z"/><path class="cls-1" d="M74.41,107.83A53.64,53.64,0,0,1,33.57,89.1l-15.24,13A11.12,11.12,0,1,1,3.9,85.16l18.79-16a53.92,53.92,0,1,1,51.72,38.69ZM34.09,83.4,35.38,85a49.82,49.82,0,1,0-8.47-15.75l.46,1.42-1.24.84c-.21.15-.42.3-.62.47L6.5,88.21A7.12,7.12,0,1,0,15.74,99Z"/><circle cx="74.41" cy="53.92" r="40.41"/><path class="cls-1" d="M77,71.35a3.86,3.86,0,0,1-2.8-2.48L66.72,47.58l-27,27A40.4,40.4,0,0,0,111.56,38l-31,32.22A3.85,3.85,0,0,1,77,71.35Z"/><path class="cls-1" d="M69.17,36.83a3.81,3.81,0,0,1,2.76,2.47l7.4,21.17L107.69,31A40.4,40.4,0,0,0,36.26,67.23L65.61,37.86A3.82,3.82,0,0,1,69.17,36.83Z"/><path class="cls-1" d="M187.21,64.78l7.68,15.51-7.68,15.22h-3.75L191,80.29l-7.54-15.51Zm26.35,0L206,80.29l7.54,15.22h-3.75l-7.68-15.22,7.68-15.51Z"/><path class="cls-1" d="M219.32,64.78h19.46a6.18,6.18,0,0,1,2.9.71,8.15,8.15,0,0,1,2.42,1.92,9.43,9.43,0,0,1,1.65,2.88,10.39,10.39,0,0,1,.61,3.6,9.16,9.16,0,0,1-.59,3.27,9,9,0,0,1-1.62,2.76,8,8,0,0,1-2.39,1.92,6.09,6.09,0,0,1-2.88.72H233.7V79.45h4.58a3.62,3.62,0,0,0,2-.54,4.88,4.88,0,0,0,1.41-1.38,5.64,5.64,0,0,0,.81-1.82,8,8,0,0,0,.25-1.87,7.21,7.21,0,0,0-.32-2,7.38,7.38,0,0,0-.91-1.92,5.19,5.19,0,0,0-1.46-1.42,3.43,3.43,0,0,0-1.94-.57H222.77V95.51h-3.45Z"/><path class="cls-1" d="M252.86,95.51V64.78h3.45V92.41h19.95v3.1Z"/><path class="cls-1" d="M279.91,74.11a15.46,15.46,0,0,1,8.27-8.25,15.79,15.79,0,0,1,12.22,0,15.46,15.46,0,0,1,8.27,8.25,15.42,15.42,0,0,1,0,12.07,15.55,15.55,0,0,1-8.27,8.25,15.79,15.79,0,0,1-12.22,0,15.74,15.74,0,0,1-4.95-3.33,15.58,15.58,0,0,1-3.32-4.92,15.31,15.31,0,0,1,0-12.07Zm3,10.74a12.79,12.79,0,0,0,2.66,3.86,12.53,12.53,0,0,0,3.92,2.66,11.89,11.89,0,0,0,9.5,0A12.74,12.74,0,0,0,303,88.71a12.53,12.53,0,0,0,2.69-3.86,11.32,11.32,0,0,0,1-4.66,11.52,11.52,0,0,0-1-4.65A12.88,12.88,0,0,0,303,71.62a13.12,13.12,0,0,0-3.92-2.68,11.48,11.48,0,0,0-4.75-1,11.65,11.65,0,0,0-4.78,1,13.09,13.09,0,0,0-3.94,2.68A12.7,12.7,0,0,0,283,75.54a11.36,11.36,0,0,0-1,4.65A11.17,11.17,0,0,0,283,84.85Z"/><rect class="cls-1" x="192.06" y="17.49" width="19.78" height="3.31"/><polygon class="cls-1" points="192.06 31.05 192.06 48.7 211.84 48.7 211.84 45.36 195.65 45.36 195.65 34.59 210.75 34.59 210.75 31.05 192.06 31.05"/><rect class="cls-1" x="349.51" y="64.54" width="19.78" height="3.31"/><polygon class="cls-1" points="349.51 78.1 349.51 95.75 369.3 95.75 369.3 92.4 353.11 92.4 353.11 81.64 368.21 81.64 368.21 78.1 349.51 78.1"/><rect class="cls-1" x="156.14" y="64.54" width="19.78" height="3.31"/><polygon class="cls-1" points="156.14 78.1 156.14 95.75 175.92 95.75 175.92 92.4 159.73 92.4 159.73 81.64 174.83 81.64 174.83 78.1 156.14 78.1"/><polygon class="cls-1" points="218.03 48.7 221.85 48.7 232.08 21.85 233.85 21.85 244.07 48.7 247.72 48.7 235.67 17.49 230.08 17.49 218.03 48.7"/><path class="cls-1" d="M255.91,16v3.4h13.55c6.81,0,6.94,6.24,6.94,7.11s-.07,6.2-6.55,6.2H255.91V48.55h3.84V35.78l3.84-.09a5.35,5.35,0,0,1,2.91.7,4.12,4.12,0,0,1,1,.87c.95,1.19,7.6,9.93,7.6,9.93a5.49,5.49,0,0,0,3.57,1.36,11,11,0,0,1,1.93,0L271,35.78s9.24-.76,9.23-9.1-5.75-10.52-10.85-10.58S255.91,16,255.91,16Z"/><path class="cls-1" d="M316.35,62.94v3.4h13.54c6.81,0,6.94,6.24,6.94,7.11s-.07,6.2-6.54,6.2H316.35V95.51h3.84V82.74l3.83-.09a5.35,5.35,0,0,1,2.91.7,4.12,4.12,0,0,1,1,.87c.95,1.19,7.6,9.92,7.6,9.92a5.47,5.47,0,0,0,3.57,1.37,10.8,10.8,0,0,1,1.93,0l-9.68-12.77s9.23-.76,9.22-9.11-5.75-10.51-10.84-10.57S316.35,62.94,316.35,62.94Z"/><path class="cls-1" d="M380,62.94v3.4h13.55c6.81,0,6.94,6.24,6.94,7.11s-.07,6.2-6.55,6.2H380V95.51h3.85V82.74l3.83-.09a5.35,5.35,0,0,1,2.91.7,4.12,4.12,0,0,1,1,.87c.95,1.19,7.6,9.92,7.6,9.92a5.47,5.47,0,0,0,3.57,1.37,10.8,10.8,0,0,1,1.93,0L395,82.74s9.24-.76,9.23-9.11-5.75-10.51-10.85-10.57S380,62.94,380,62.94Z"/><path class="cls-1" d="M156.14,48.7V18h5.76L181.36,45.8V18h3.44V48.7h-5.42l-19.8-27.88V48.7Z"/></g></g></svg>