<?xml version="1.0" encoding="UTF-8"?>
<!DOCTYPE svg PUBLIC "-//W3C//DTD SVG 1.1//EN" "http://www.w3.org/Graphics/SVG/1.1/DTD/svg11.dtd">
<svg viewBox="0 0 400 160" version="1.1"
  xmlns="http://www.w3.org/2000/svg">
  <g id="#f3f4f6fd">
    <path fill="#f3f4f6" opacity="1.00"
      d=" M 24.73 51.66 C 27.79 46.91 33.42 44.62 38.94 44.81 C 48.95 45.06 59.05 44.11 68.99 45.63 C 74.35 47.74 78.94 52.99 78.52 59.00 C 78.80 61.86 77.45 64.45 76.10 66.86 C 67.57 81.48 59.09 96.12 50.66 110.78 C 48.52 114.85 45.49 118.90 41.02 120.50 C 37.64 122.04 32.63 122.78 30.25 119.23 C 30.45 117.61 30.22 115.81 31.19 114.39 C 40.33 98.75 49.35 83.03 58.46 67.38 C 59.83 65.50 59.83 63.06 58.48 61.16 C 53.06 61.22 47.61 60.81 42.21 61.41 C 34.92 63.40 31.83 70.91 28.57 76.96 C 26.75 79.89 27.14 83.50 27.41 86.78 C 28.22 89.09 29.57 91.17 30.49 93.44 C 31.15 96.16 28.81 98.26 27.72 100.53 C 26.07 103.00 25.09 106.54 22.02 107.58 C 18.95 106.73 18.24 103.35 16.62 101.02 C 14.39 96.63 11.19 92.71 9.64 88.00 C 9.16 83.53 8.75 78.60 11.29 74.63 C 15.87 67.04 20.11 59.23 24.73 51.66 Z" />
    <path fill="#f3f4f6" opacity="1.00"
      d=" M 327.92 59.30 C 329.63 59.30 331.33 59.30 333.04 59.31 C 333.89 60.23 334.74 61.15 335.61 62.06 C 335.56 63.33 335.43 64.60 335.22 65.85 C 333.29 68.17 329.79 67.87 327.20 67.10 C 324.03 65.08 325.77 61.32 327.92 59.30 Z" />
    <path fill="#f3f4f6" opacity="1.00"
      d=" M 216.43 64.39 C 218.42 63.80 220.47 63.56 222.54 63.53 C 222.64 65.79 222.67 68.06 222.71 70.33 C 224.68 70.39 226.64 70.43 228.61 70.42 C 229.81 72.30 229.65 74.51 229.40 76.63 C 227.37 76.60 225.34 76.57 223.32 76.57 C 223.30 81.14 223.17 85.73 223.50 90.29 C 225.53 90.77 227.57 91.19 229.64 91.48 C 230.42 92.78 231.56 93.97 231.65 95.56 C 226.99 99.61 219.13 97.85 215.82 92.81 C 214.84 87.76 215.60 82.59 215.28 77.49 C 213.78 76.54 212.08 75.99 210.49 75.24 C 209.83 72.19 212.36 70.75 214.43 69.17 C 215.21 67.63 215.79 65.99 216.43 64.39 Z" />
    <path fill="#f3f4f6" opacity="1.00"
      d=" M 346.23 63.97 C 348.13 63.30 350.21 63.75 352.19 63.67 C 352.23 65.91 352.26 68.16 352.35 70.40 C 354.37 70.41 356.38 70.43 358.40 70.48 C 358.60 72.51 358.64 74.55 358.62 76.59 C 356.48 76.59 354.35 76.59 352.22 76.62 C 352.28 81.15 352.18 85.67 352.36 90.19 C 354.44 90.69 356.57 91.00 358.64 91.57 C 359.75 92.48 360.15 93.96 360.89 95.15 C 356.38 100.13 347.07 97.74 344.51 91.74 C 343.87 86.84 344.37 81.87 344.17 76.94 C 342.48 76.67 340.86 76.18 339.36 75.38 C 338.67 72.22 341.29 70.75 343.65 69.44 C 344.26 67.50 344.20 65.08 346.23 63.97 Z" />
    <path fill="#f3f4f6" opacity="1.00"
      d=" M 149.16 82.97 C 148.55 77.02 153.22 71.92 158.45 69.86 C 164.80 68.10 172.86 69.73 176.08 76.02 C 178.20 78.73 177.71 82.24 177.76 85.45 C 170.85 85.56 163.94 85.42 157.04 85.54 C 157.76 89.50 162.04 91.61 165.77 91.16 C 167.95 90.70 170.03 89.88 172.13 89.13 C 173.47 90.43 174.80 91.75 176.07 93.13 C 171.45 97.75 164.04 99.04 158.10 96.43 C 152.68 94.50 148.31 88.92 149.16 82.97 M 156.93 80.49 C 161.50 80.64 166.09 80.70 170.66 80.43 C 169.20 78.04 167.21 74.87 163.97 75.28 C 160.61 74.68 157.72 77.40 156.93 80.49 Z" />
    <path fill="#f3f4f6" opacity="1.00"
      d=" M 183.65 74.91 C 185.63 71.31 189.94 69.28 193.96 69.33 C 197.55 69.42 201.80 68.64 204.55 71.55 C 205.02 73.33 205.36 76.17 203.04 76.79 C 199.24 74.93 194.95 75.04 190.87 75.77 C 190.74 76.72 190.61 77.67 190.47 78.63 C 194.94 81.03 200.52 80.46 204.82 83.23 C 206.51 84.98 208.06 87.24 207.48 89.80 C 206.15 95.13 200.16 97.86 195.06 97.65 C 190.72 97.78 185.18 97.40 182.79 93.22 C 183.52 91.96 184.17 90.66 184.86 89.38 C 189.41 90.42 194.78 92.97 199.16 90.20 C 199.36 89.73 199.76 88.78 199.96 88.31 C 195.38 85.41 188.95 87.14 184.98 83.10 C 182.52 81.22 183.49 77.58 183.65 74.91 Z" />
    <path fill="#f3f4f6" opacity="1.00"
      d=" M 244.74 69.89 C 250.94 68.08 258.61 69.72 262.11 75.57 C 264.40 78.35 263.72 82.14 263.83 85.47 C 256.90 85.57 249.96 85.38 243.03 85.57 C 243.89 87.83 245.39 90.15 247.95 90.62 C 251.33 92.27 254.70 90.16 257.96 89.34 C 259.76 90.17 262.31 91.58 261.45 93.97 C 254.14 100.33 241.09 98.40 236.55 89.65 C 234.52 86.58 235.35 82.64 235.49 79.19 C 237.10 74.96 240.49 71.49 244.74 69.89 M 242.90 80.41 C 247.48 80.71 252.07 80.67 256.65 80.46 C 255.61 77.74 253.20 74.91 250.01 75.28 C 246.56 74.65 244.44 77.89 242.90 80.41 Z" />
    <path fill="#f3f4f6" opacity="1.00"
      d=" M 271.49 69.63 C 273.51 69.54 275.53 69.51 277.55 69.41 C 278.28 70.27 279.01 71.13 279.76 71.99 C 282.30 70.34 285.08 69.05 288.19 69.20 C 288.31 71.57 288.32 73.94 288.38 76.31 C 285.53 76.67 282.23 76.77 280.46 79.41 C 277.73 84.74 279.05 90.93 278.74 96.67 C 276.30 96.65 273.88 96.65 271.45 96.63 C 271.52 87.63 271.45 78.63 271.49 69.63 Z" />
    <path fill="#f3f4f6" opacity="1.00"
      d=" M 365.74 75.64 C 364.37 72.38 367.82 70.05 370.51 69.18 C 374.43 74.66 375.91 81.45 378.89 87.45 C 382.49 82.25 383.80 75.81 386.78 70.23 C 388.62 70.28 390.46 70.38 392.30 70.56 C 392.35 72.54 392.68 74.64 391.74 76.48 C 388.37 84.12 385.20 91.84 381.87 99.50 C 380.47 102.74 378.09 106.10 374.46 106.94 C 371.58 107.70 368.39 107.60 365.65 106.38 C 363.60 105.16 364.92 102.43 364.72 100.55 C 367.38 100.54 370.04 100.77 372.72 100.75 C 373.55 99.66 374.43 98.61 375.33 97.57 C 371.96 90.34 368.96 82.94 365.74 75.64 Z" />
    <path fill="#f3f4f6" opacity="1.00"
      d=" M 83.17 71.94 C 83.73 70.12 85.86 70.63 87.33 70.33 C 90.69 75.26 94.28 81.22 92.14 87.38 C 89.10 94.51 84.55 100.85 80.90 107.67 C 78.13 112.37 75.77 118.13 70.28 120.23 C 66.66 122.38 62.33 121.50 58.34 121.61 C 57.68 120.33 55.59 119.08 56.76 117.50 C 65.55 102.31 74.32 87.10 83.17 71.94 Z" />
    <path fill="#f3f4f6" opacity="1.00"
      d=" M 113.70 73.98 C 113.43 71.23 116.33 69.00 118.96 69.42 C 120.17 70.08 121.17 71.04 122.26 71.89 C 125.80 69.25 130.33 68.70 134.56 69.70 C 138.27 71.24 141.67 74.71 141.49 78.97 C 141.67 84.86 141.51 90.75 141.57 96.63 C 139.14 96.65 136.72 96.65 134.30 96.65 C 133.84 90.71 135.38 84.43 132.94 78.80 C 132.31 77.03 130.24 76.60 128.80 75.68 C 125.86 76.30 122.42 77.62 121.93 81.04 C 121.22 86.46 121.96 91.98 121.50 97.43 C 119.47 97.43 117.44 97.45 115.41 97.51 C 114.83 96.37 113.68 95.40 113.73 94.04 C 113.63 87.35 113.71 80.67 113.70 73.98 Z" />
    <path fill="#f3f4f6" opacity="1.00"
      d=" M 295.57 74.73 C 299.66 69.43 307.21 68.15 313.34 70.01 C 315.39 71.16 318.80 72.04 318.65 74.96 C 319.00 77.35 316.29 78.22 314.92 79.64 C 312.17 77.34 308.33 73.74 304.76 76.63 C 299.13 79.00 299.54 88.27 305.01 90.43 C 306.62 90.75 308.30 90.85 309.93 90.59 C 312.06 90.10 313.63 87.80 315.97 88.31 C 317.37 88.55 318.45 89.57 319.70 90.20 C 319.68 90.78 319.65 91.94 319.63 92.52 C 316.46 95.41 312.49 98.08 308.00 97.66 C 300.85 97.93 293.22 92.41 292.74 84.96 C 292.42 81.36 293.09 77.49 295.57 74.73 Z" />
    <path fill="#f3f4f6" opacity="1.00"
      d=" M 326.56 74.31 C 328.63 72.16 331.34 70.53 334.38 70.34 C 334.61 79.37 334.57 88.41 334.40 97.44 C 331.80 97.45 329.20 97.44 326.61 97.43 C 326.39 89.72 326.48 82.01 326.56 74.31 Z" />
  </g>
</svg>