<?xml version="1.0" encoding="UTF-8"?>
<svg viewBox="0 0 160 37" version="1.1" xmlns="http://www.w3.org/2000/svg"
    xmlns:xlink="http://www.w3.org/1999/xlink">
    <g stroke="none" stroke-width="1" fill="none" fill-rule="evenodd">
        <g id="logo" transform="translate(-2851.000000, -796.000000)">
            <g transform="translate(2746.000000, 714.000000)">
                <g id="logo-paras" transform="translate(56.000000, 56.000000)">
                    <rect x="0" y="0" width="258" height="88"></rect>
                    <g id="L9PP0DU2SDTQF" transform="translate(49.000000, 26.000000)" fill="#FFFFFF">
                        <path
                            d="M55.637,36.67936 L54.9998,34.3853653 C54.8036,34.5496102 54.5912,34.7060052 54.3624,34.8539465 C52.271,36.2846488 49.3626,37 45.637,37 C42.1076,37 39.2972,36.3585188 37.2058,35.0759589 C35.1142,33.7931978 34.0684,31.4335856 34.0684,27.9965184 C34.0684,24.7734125 35.1306,22.4876702 37.2548,21.1392916 C39.3952,19.7908526 42.7122,19.1166231 47.2056,19.1166231 L54.436,19.1166231 L54.436,18.2286335 C54.436,16.3046327 53.9294,14.9315167 52.9164,14.1093057 C51.9034,13.27065 50.5472,12.8513021 48.8478,12.8513021 C47.3118,12.8513021 46.0046,13.2213162 44.9262,13.9613041 C43.8478,14.7013121 43.178,15.8770725 42.9164,17.4886255 L34.6812,15.1699738 C35.1714,12.4895405 36.6256,10.4833166 39.044,9.1513222 C41.4786,7.81932783 44.6158,7.15331052 48.4556,7.15331052 C54.0112,7.15331052 57.8102,8.3126464 59.8526,10.6313182 C61.8952,12.9499698 62.9164,16.2470866 62.9164,20.5225679 L62.9164,36.67936 L55.637,36.67936 Z M54.436,27.9719622 L54.436,24.12388 L48.9704,24.12388 C46.552,24.12388 44.8936,24.4282163 43.9948,25.0366875 C43.1126,25.6451587 42.6714,26.5905735 42.6714,27.8733347 C42.6714,29.1395908 43.0716,30.0932582 43.8724,30.7345381 C44.673,31.3595143 45.9556,31.6719018 47.7204,31.6719018 C49.6648,31.6719018 51.266,31.3019481 52.5242,30.5620407 C53.7988,29.821932 54.436,28.9586396 54.436,27.9719622 Z"
                            id="形状" fill-rule="nonzero"></path>
                        <path
                            d="M86.1488,21.9039565 C86.1488,18.2368458 85.7322,15.8441833 84.8988,14.725969 C84.0818,13.5913101 82.9382,13.0239807 81.4676,13.0239807 C79.7682,13.0239807 78.412,13.6241994 77.399,14.8246367 C76.5492,15.8441833 76.059,16.9788623 75.9284,18.2286335 L75.9284,36.67936 L67.497,36.67936 L67.497,7.42465687 L75.5606,7.42465687 L75.7322,10.2366472 C75.814,10.1544241 75.8956,10.0804334 75.9774,10.0146549 C78.1832,8.1235433 81.0754,7.17798752 84.6538,7.17798752 C88.5264,7.17798752 91.1488,8.3784249 92.5214,10.7793198 C93.894,13.1637499 94.5802,16.8719622 94.5802,21.9039565 L86.1488,21.9039565 Z"
                            id="路径" fill-rule="nonzero"></path>
                        <path
                            d="M119.8314,36.67936 L119.194,34.3853653 C118.998,34.5496102 118.7856,34.7060052 118.5568,34.8539465 C116.4654,36.2846488 113.5568,37 109.8314,37 C106.302,37 103.4916,36.3585188 101.4,35.0759589 C99.3086,33.7931978 98.2628,31.4335856 98.2628,27.9965184 C98.2628,24.7734125 99.3248,22.4876702 101.449,21.1392916 C103.5896,19.7908526 106.9066,19.1166231 111.4,19.1166231 L118.6304,19.1166231 L118.6304,18.2286335 C118.6304,16.3046327 118.1238,14.9315167 117.1108,14.1093057 C116.0976,13.27065 114.7414,12.8513021 113.0422,12.8513021 C111.5062,12.8513021 110.199,13.2213162 109.1206,13.9613041 C108.0422,14.7013121 107.3722,15.8770725 107.1108,17.4886255 L98.8756,15.1699738 C99.3658,12.4895405 100.82,10.4833166 103.2382,9.1513222 C105.6728,7.81932783 108.8102,7.15331052 112.65,7.15331052 C118.2056,7.15331052 122.0046,8.3126464 124.047,10.6313182 C126.0894,12.9499698 127.1106,16.2470866 127.1106,20.5225679 L127.1106,36.67936 L119.8314,36.67936 Z M118.6304,27.9719622 L118.6304,24.12388 L113.1646,24.12388 C110.7464,24.12388 109.0878,24.4282163 108.1892,25.0366875 C107.3068,25.6451587 106.8656,26.5905735 106.8656,27.8733347 C106.8656,29.1395908 107.266,30.0932582 108.0666,30.7345381 C108.8674,31.3595143 110.15,31.6719018 111.9146,31.6719018 C113.8592,31.6719018 115.4604,31.3019481 116.7186,30.5620407 C117.993,29.821932 118.6304,28.9586396 118.6304,27.9719622 Z"
                            id="形状" fill-rule="nonzero"></path>
                        <path
                            d="M145.9804,36.9259287 C142.0262,36.9259287 138.7828,36.3339626 136.2502,35.1500302 C133.7174,33.9493915 132.0752,31.9679855 131.3236,29.2052083 L138.7256,26.4919461 C139.0524,28.2350359 139.8694,29.4765345 141.1766,30.2166432 C142.5,30.9402469 144.0524,31.3019481 145.8334,31.3019481 C147.6962,31.3019481 149.134,31.0471269 150.1472,30.5372831 C151.1602,30.0274394 151.6668,29.2957845 151.6668,28.3419159 C151.6668,27.1414785 151.054,26.3603086 149.8284,25.9986074 C148.6194,25.6204011 146.634,25.2256899 143.8726,24.814675 C139.4118,24.2227088 136.242,23.3264064 134.3628,22.125969 C132.4838,20.9255316 131.5442,18.8452968 131.5442,15.8853049 C131.5442,12.8595344 132.8352,10.655975 135.4168,9.27464681 C138.0148,7.89331857 141.4462,7.20264439 145.7108,7.20264439 C149.8448,7.20264439 153.0148,7.79465083 155.2206,8.97864359 C157.4428,10.1462118 158.889,12.0455357 159.5588,14.6766351 L152.4266,17.340644 C152.0834,15.7619601 151.3236,14.6108566 150.1472,13.8873133 C148.987,13.1473053 147.4592,12.7773113 145.5638,12.7773113 C143.7664,12.7773113 142.3612,13.0568699 141.3482,13.615967 C140.3514,14.1750842 139.853,14.8986476 139.853,15.7866371 C139.853,16.9377407 140.4984,17.6695163 141.7894,17.9819642 C143.0964,18.294412 145.0654,18.6397491 147.6962,19.0179553 C151.9772,19.5770725 155.098,20.4732542 157.0588,21.7067016 C159.0196,22.9234427 160,24.9791212 160,27.8733347 C160,31.1457543 158.7336,33.4725578 156.201,34.8539465 C153.6846,36.2353351 150.2778,36.9259287 145.9804,36.9259287 Z"
                            id="路径" fill-rule="nonzero"></path>
                        <path
                            d="M4.90194,37 L0,0 L20.7106,3.7 C21.591,3.93316342 22.4062,4.12061603 23.1568,4.29323425 C25.9794,4.94230374 27.8888,5.38141745 28.9214,7.25197826 C30.2286,9.60353927 30.8822,12.4977527 30.8822,15.9346388 C30.8822,19.3879694 30.2286,22.2904152 28.9214,24.6419762 C27.6142,26.9935373 24.8774,28.1692171 20.7106,28.1692171 L11.74014,28.1692171 L13.45582,37 L4.90194,37 Z M7.598,7.64664922 L18.7752,9.62300311 C19.25034,9.74755553 19.69026,9.84769262 20.0954,9.93987912 C21.6186,10.2865849 22.6492,10.5211372 23.2064,11.5203141 C23.9118,12.7763854 24.2646,14.3223411 24.2646,16.1581407 C24.2646,18.0027363 23.9118,19.5530799 23.2064,20.8091915 C22.501,22.0651823 21.0238,22.693379 18.7752,22.693379 L13.6694,22.693379 L10.5925,22.446609 L7.598,7.64664922 Z"
                            id="形状"></path>
                    </g>
                </g>
            </g>
        </g>
    </g>
</svg>