<?xml version="1.0" encoding="UTF-8"?>
<!DOCTYPE svg PUBLIC "-//W3C//DTD SVG 1.1//EN" "http://www.w3.org/Graphics/SVG/1.1/DTD/svg11.dtd">
<svg viewBox="0 0 1889 812" version="1.1"
  xmlns="http://www.w3.org/2000/svg">
  <g id="#5a43a5ff">
    <path fill="#5a43a5" opacity="1.00"
      d=" M 119.17 30.17 C 183.35 -5.08 263.30 -9.35 331.10 18.06 C 387.26 40.37 434.82 84.82 458.52 140.66 C 479.24 188.72 481.31 244.49 464.12 293.92 C 449.55 336.89 420.85 374.54 384.45 401.41 C 375.25 408.55 364.45 413.13 353.91 417.88 C 347.98 420.63 341.84 423.45 337.35 428.36 C 330.72 435.11 327.86 444.73 327.67 454.01 C 328.06 469.01 327.75 484.01 327.86 499.01 C 327.99 507.82 326.91 516.71 323.89 525.02 C 322.79 528.32 321.07 531.37 319.98 534.68 C 337.65 541.36 353.14 554.70 360.79 572.17 C 369.18 590.40 367.80 611.96 359.72 630.05 C 363.17 632.60 366.43 636.44 365.65 641.06 C 365.64 643.85 363.44 645.76 361.53 647.48 C 364.62 658.63 364.54 670.98 359.58 681.60 C 357.06 686.94 354.02 692.62 348.65 695.57 C 346.03 697.06 342.94 696.65 340.19 695.80 C 338.34 697.54 334.69 697.99 334.36 700.90 C 329.76 724.71 314.13 746.17 292.66 757.54 C 286.69 760.97 279.91 762.48 273.27 764.06 C 255.20 767.78 235.66 768.21 218.55 760.44 C 194.11 750.06 176.29 726.42 172.05 700.33 C 170.60 699.31 169.18 698.28 167.80 697.19 C 163.05 698.54 157.93 697.00 154.96 693.01 C 147.49 683.57 144.21 670.96 145.74 659.04 C 146.06 655.09 147.39 651.33 147.90 647.41 C 143.70 644.92 143.12 638.70 146.04 635.04 C 146.85 633.76 148.70 632.42 147.40 630.83 C 139.87 615.87 136.55 598.38 140.42 581.90 C 145.26 559.47 162.62 541.16 183.53 532.50 C 178.35 522.54 176.15 511.18 176.33 500.01 C 176.41 479.69 176.25 459.38 176.41 439.07 C 178.99 413.66 187.76 388.65 202.85 367.95 C 223.28 343.15 250.30 324.08 279.90 311.79 C 301.82 302.50 320.49 285.29 330.71 263.71 C 339.15 246.20 341.67 225.95 337.85 206.91 C 333.58 185.33 321.17 165.60 304.00 151.93 C 286.55 137.79 264.40 129.77 241.99 128.97 C 218.35 128.04 194.38 135.19 175.35 149.32 C 164.87 157.00 156.08 166.86 149.38 177.98 C 162.69 176.53 176.36 177.35 189.13 181.59 C 206.99 187.33 222.94 199.17 233.12 214.98 C 243.26 230.43 247.41 249.69 244.34 267.93 C 242.22 282.61 235.08 296.23 225.31 307.27 C 204.60 331.20 174.39 346.17 143.07 349.68 C 117.10 352.64 90.21 348.10 66.94 336.09 C 38.57 321.75 15.75 296.25 5.91 265.90 C 1.67 253.41 0.21 240.15 0.40 227.01 C -0.43 186.25 11.33 145.51 32.91 111.00 C 53.93 77.11 84.20 49.21 119.17 30.17 M 125.31 33.26 C 85.05 54.32 50.90 87.40 29.79 127.74 C 13.61 158.46 5.17 193.27 5.87 228.00 C 5.75 242.72 8.10 257.53 13.81 271.16 C 24.36 297.55 45.42 319.10 70.72 331.79 C 89.33 341.02 110.26 345.51 131.02 344.99 C 161.78 344.23 192.43 332.11 214.50 310.50 C 220.98 304.21 226.88 297.21 231.22 289.27 C 240.40 272.92 242.25 252.73 236.47 234.93 C 232.36 222.56 225.08 210.98 214.85 202.80 C 208.98 196.76 201.36 192.65 193.72 189.24 C 173.88 180.97 150.28 180.13 130.77 189.80 C 117.58 196.00 105.43 205.69 99.02 219.04 C 93.77 229.51 92.68 241.60 94.50 253.06 C 95.06 255.63 91.40 256.97 89.81 255.16 C 89.07 253.77 88.90 252.17 88.25 250.76 C 88.47 246.47 87.97 242.17 88.32 237.89 C 88.99 226.25 93.54 214.99 100.74 205.87 C 110.83 193.11 125.50 184.66 140.88 179.92 C 142.54 179.50 143.02 177.66 143.89 176.41 C 151.30 163.23 161.83 151.87 174.21 143.23 C 195.04 128.49 221.16 121.73 246.54 123.68 C 269.35 125.33 291.66 134.12 309.17 148.88 C 325.53 162.46 337.52 181.32 342.48 202.03 C 347.45 222.97 345.48 245.68 336.12 265.13 C 335.75 265.80 335.53 266.50 335.45 267.25 C 324.25 289.18 305.39 307.10 282.65 316.68 C 261.57 325.45 241.84 337.59 224.95 352.98 C 216.03 361.11 207.38 369.85 201.32 380.38 C 190.31 398.74 183.72 419.70 181.85 440.99 C 181.90 453.17 181.64 465.35 182.00 477.52 C 181.54 481.32 181.98 485.19 181.84 489.02 C 181.89 498.66 181.29 508.50 183.93 517.89 C 188.03 533.80 198.62 547.74 212.39 556.57 C 227.39 566.45 246.20 570.18 263.88 567.28 C 281.95 564.46 298.94 554.52 309.75 539.71 C 318.03 528.62 322.40 514.82 322.36 501.01 C 322.30 484.98 322.53 468.95 322.18 452.93 C 322.32 442.89 325.95 433.13 332.14 425.28 C 344.44 413.04 362.31 409.87 376.36 400.28 C 401.08 383.07 422.36 360.85 438.29 335.26 C 460.71 299.60 472.00 257.06 469.96 214.97 C 469.86 213.74 469.67 212.53 469.39 211.33 C 469.53 201.79 467.64 192.31 465.92 182.95 C 459.46 150.94 445.04 120.70 425.00 94.97 C 405.32 69.81 380.21 49.00 352.05 33.96 C 349.62 32.77 347.35 31.11 344.73 30.40 C 276.69 -3.54 192.48 -2.27 125.31 33.26 M 158.57 575.57 C 151.78 591.47 152.28 610.00 159.02 625.83 C 163.94 623.95 170.42 623.71 173.98 628.25 C 175.96 630.40 175.47 633.46 174.73 636.02 C 177.93 637.76 180.75 640.10 183.12 642.87 C 189.37 632.76 197.86 624.07 207.89 617.70 C 214.57 613.30 221.23 608.68 228.80 605.92 C 247.77 598.77 269.59 599.49 288.04 607.90 C 303.76 614.98 317.04 627.36 325.32 642.47 C 328.35 639.36 331.52 636.29 335.55 634.52 C 334.03 631.03 335.27 626.44 338.90 624.84 C 341.78 623.04 345.25 623.39 348.46 623.78 C 355.32 603.56 351.52 579.84 337.66 563.42 C 331.18 555.22 322.30 549.42 313.13 544.63 C 304.37 555.83 292.33 564.35 278.95 569.12 C 260.65 575.74 239.91 575.27 221.91 567.90 C 209.15 562.67 197.73 553.94 189.70 542.70 C 176.23 550.04 164.39 561.15 158.57 575.57 M 261.95 606.27 C 263.95 607.86 267.99 608.86 269.84 606.78 C 267.22 606.41 264.59 606.19 261.95 606.27 M 273.51 609.94 C 275.84 611.47 278.79 612.36 280.87 609.98 C 278.99 609.37 277.14 608.60 275.18 608.33 C 274.47 608.16 272.12 609.16 273.51 609.94 M 228.94 613.18 C 211.19 618.19 195.99 630.55 186.40 646.19 C 187.34 646.81 188.28 647.45 189.22 648.10 C 191.34 649.20 193.54 650.16 195.79 650.98 C 196.97 649.16 198.37 646.46 201.02 647.74 C 202.53 649.42 200.87 651.37 200.26 653.03 C 202.17 654.68 204.62 655.88 205.76 658.27 C 208.32 662.61 207.78 669.46 202.88 671.93 C 197.27 674.55 190.62 672.65 185.92 669.01 C 187.14 674.10 190.59 678.26 194.91 681.08 C 200.05 684.38 201.91 692.21 198.06 697.14 C 194.57 701.73 188.05 702.58 182.96 700.35 C 180.99 700.83 179.01 701.29 177.02 701.66 C 177.80 705.10 178.20 708.81 179.94 711.91 C 183.88 724.99 192.36 736.45 202.64 745.31 C 216.75 757.19 235.55 763.56 253.98 761.97 C 270.65 760.71 286.71 753.28 298.60 741.55 C 310.21 730.38 317.95 715.35 320.67 699.49 C 313.47 700.41 305.96 693.62 308.17 686.20 C 309.11 679.86 316.01 678.05 319.52 673.55 C 320.95 672.35 320.12 670.56 319.93 669.05 C 316.12 670.51 312.03 671.03 307.99 670.35 C 303.78 668.84 300.92 664.46 301.90 659.98 C 302.41 654.54 307.36 651.19 312.01 649.35 C 311.51 647.81 310.81 646.34 309.92 645.00 C 304.18 635.80 296.50 627.64 287.20 622.01 C 270.40 610.62 248.38 607.37 228.94 613.18 M 281.97 613.17 C 285.24 615.54 288.98 617.17 292.18 619.67 C 293.42 618.95 294.69 618.25 295.94 617.54 C 291.64 615.43 286.98 610.36 281.97 613.17 M 298.29 620.31 C 297.37 620.72 295.85 621.20 296.22 622.53 C 298.52 624.66 300.79 626.85 303.25 628.80 C 304.77 628.82 307.16 628.10 306.89 626.19 C 305.22 624.49 303.35 623.01 301.52 621.50 C 300.59 620.90 299.49 619.52 298.29 620.31 M 339.10 630.87 C 339.99 632.86 342.27 634.73 341.37 637.13 C 337.25 638.79 333.03 640.64 330.19 644.22 C 325.02 650.59 316.46 651.81 309.70 655.73 C 306.50 657.41 304.85 662.62 307.95 665.13 C 312.08 667.42 317.37 665.82 320.54 662.62 C 322.17 661.32 323.65 659.05 326.04 659.73 C 327.90 660.74 328.51 663.09 328.09 665.06 C 327.06 671.45 323.52 677.55 318.02 681.09 C 315.56 682.78 312.54 684.68 312.46 688.04 C 311.90 690.61 313.83 692.48 315.43 694.16 C 317.66 694.77 320.16 695.43 322.35 694.34 C 329.71 690.64 334.34 682.88 335.29 674.83 C 335.04 672.28 338.94 671.54 339.69 674.00 C 339.64 682.24 335.32 689.86 329.34 695.32 C 334.11 695.59 337.71 691.92 340.65 688.66 C 344.39 684.30 345.78 678.53 346.15 672.93 C 345.68 670.47 349.58 669.74 350.39 671.99 C 350.85 676.31 349.62 680.57 348.39 684.67 C 346.74 687.11 345.45 689.86 343.82 692.36 C 350.08 691.12 352.85 684.71 355.43 679.59 C 360.58 669.06 359.72 656.77 356.43 645.83 C 355.71 643.25 358.92 643.01 360.62 642.52 C 361.66 640.09 361.12 637.62 359.33 635.74 C 356.36 633.20 353.07 631.10 349.73 629.12 C 346.20 627.84 341.42 627.17 339.10 630.87 M 161.99 629.65 C 158.70 631.07 155.61 632.88 152.63 634.86 C 149.94 636.73 147.37 640.04 149.65 643.29 C 151.14 643.57 153.80 643.85 153.43 646.00 C 152.29 650.28 150.77 654.49 150.35 658.94 C 148.64 669.74 151.71 681.10 158.24 689.83 C 159.59 691.73 161.70 692.80 163.94 693.29 C 160.99 689.16 159.42 684.36 158.21 679.50 C 158.22 677.34 158.04 675.19 158.27 673.05 C 158.75 670.96 162.45 671.27 162.51 673.37 C 162.55 678.19 163.21 683.15 165.70 687.38 C 168.41 692.09 172.73 696.57 178.44 697.11 C 172.68 691.56 168.95 683.93 168.79 675.88 C 168.99 673.91 171.13 674.11 172.57 674.00 C 172.60 675.29 172.95 676.58 173.50 677.76 C 174.05 683.30 176.51 688.63 180.50 692.53 C 183.11 695.32 186.65 697.82 190.70 697.07 C 192.56 695.91 194.81 694.85 195.33 692.51 C 196.58 688.95 193.85 685.73 191.06 683.90 C 185.18 679.86 181.18 673.11 180.84 665.94 C 180.62 663.63 182.45 660.82 185.07 661.68 C 187.79 663.70 189.82 666.71 193.13 667.87 C 195.53 668.73 198.42 669.06 200.76 667.83 C 203.11 666.68 202.95 663.55 202.33 661.43 C 200.64 658.15 197.03 656.64 193.83 655.25 C 188.24 652.94 182.50 650.15 178.88 645.11 C 176.23 641.62 172.04 640.07 168.27 638.18 C 168.29 635.60 171.36 633.95 170.66 631.37 C 168.66 628.62 164.91 629.01 161.99 629.65 M 306.03 632.02 C 307.31 633.65 308.59 635.28 309.88 636.91 C 311.29 635.94 312.70 634.99 314.13 634.05 C 312.98 632.37 311.66 630.82 310.21 629.40 C 308.82 630.27 307.42 631.14 306.03 632.02 M 312.05 639.47 C 313.34 642.35 315.27 644.87 316.79 647.63 C 318.47 646.84 320.14 646.05 321.82 645.25 C 320.18 642.43 318.40 639.70 316.65 636.96 C 315.03 637.64 313.51 638.51 312.05 639.47 M 325.20 699.04 C 324.38 704.71 322.67 710.18 321.03 715.65 C 322.92 714.40 324.98 713.33 326.57 711.70 C 328.23 707.89 329.15 703.81 329.96 699.75 C 328.37 699.50 326.78 699.27 325.20 699.04 M 317.38 723.36 C 312.36 733.70 304.83 742.64 296.10 750.04 C 308.06 742.47 317.81 731.36 323.68 718.47 C 321.38 719.76 318.50 720.75 317.38 723.36 Z" />
    <path fill="#5a43a5" opacity="1.00"
      d=" M 239.70 489.92 C 238.54 487.85 240.58 486.52 242.00 485.44 C 245.04 487.03 247.42 490.02 251.06 490.27 C 254.97 490.94 258.35 488.54 261.19 486.19 C 263.23 484.23 266.76 487.73 264.86 489.89 C 258.95 497.75 245.67 497.74 239.70 489.92 Z" />
    <path fill="#5a43a5" opacity="1.00"
      d=" M 224.26 626.22 C 225.83 625.70 228.81 624.41 229.32 626.94 C 230.13 629.58 227.15 629.94 225.43 630.66 C 218.54 633.04 212.61 637.55 207.81 642.96 C 206.09 644.97 203.04 642.57 204.29 640.29 C 209.47 633.87 216.54 629.07 224.26 626.22 Z" />
    <path fill="#5a43a5" opacity="1.00"
      d=" M 343.76 639.04 C 342.87 637.04 344.51 635.00 346.63 635.48 C 348.65 636.44 350.74 637.38 352.41 638.92 C 352.89 641.06 351.01 641.91 349.22 641.91 C 347.35 641.04 345.46 640.20 343.76 639.04 Z" />
    <path fill="#5a43a5" opacity="1.00"
      d=" M 155.49 641.03 C 158.23 639.74 160.84 636.65 164.12 638.05 C 164.18 638.55 164.31 639.54 164.38 640.03 C 164.07 640.47 163.45 641.35 163.14 641.79 C 161.72 642.69 160.25 643.51 158.78 644.34 C 156.60 644.59 155.81 642.84 155.49 641.03 Z" />
    <path fill="#5a43a5" opacity="1.00"
      d=" M 286.77 733.12 C 290.07 730.05 293.42 726.99 295.94 723.21 C 297.92 723.22 299.50 724.64 298.71 726.68 C 296.41 730.79 292.82 734.02 288.95 736.63 C 287.91 735.77 285.75 734.84 286.77 733.12 Z" />
    <path fill="#5a43a5" opacity="1.00"
      d=" M 276.49 740.59 C 279.29 738.77 281.29 743.35 278.60 744.57 C 265.81 751.65 250.40 754.09 236.09 750.96 C 233.50 750.55 234.47 746.06 236.90 746.73 C 250.32 749.32 264.51 747.22 276.49 740.59 Z" />
    <path fill="#5a43a5" opacity="1.00"
      d=" M 240.20 778.30 C 260.32 777.75 280.55 778.30 300.48 781.28 C 308.11 782.50 315.81 783.96 322.97 786.98 C 325.76 788.34 328.94 789.95 330.10 793.06 C 331.07 795.75 329.16 798.42 327.01 799.89 C 322.57 802.93 317.27 804.33 312.11 805.64 C 296.35 809.30 280.13 810.31 264.01 811.00 C 252.98 811.94 241.94 810.92 230.92 810.43 C 218.72 809.65 206.50 808.46 194.57 805.70 C 189.72 804.50 184.79 803.17 180.46 800.60 C 178.15 799.18 175.73 796.85 176.14 793.88 C 176.65 790.96 179.32 789.15 181.74 787.84 C 187.61 784.90 194.09 783.49 200.48 782.22 C 213.58 779.81 226.90 778.77 240.20 778.30 M 188.13 799.41 C 203.26 804.37 219.30 804.93 234.99 806.46 C 247.33 806.55 259.66 806.55 272.00 806.50 C 287.43 804.86 303.16 804.39 318.06 799.52 C 309.15 796.13 299.48 795.06 290.04 794.02 C 271.15 791.59 252.03 792.66 233.01 792.52 C 217.97 794.03 202.67 794.84 188.13 799.41 Z" />
  </g>
  <g id="#d8d7feff">
    <path fill="#d8d7fe" opacity="1.00"
      d=" M 125.31 33.26 C 192.48 -2.27 276.69 -3.54 344.73 30.40 C 343.18 30.30 341.63 30.30 340.12 29.95 C 319.00 23.64 297.03 19.90 274.96 19.59 C 215.75 17.70 155.83 38.09 110.81 76.78 C 91.83 92.98 75.44 112.27 62.84 133.83 C 42.60 168.45 32.09 208.88 33.82 249.01 C 34.00 276.12 45.20 302.57 63.25 322.62 C 65.60 325.28 68.41 327.53 70.59 330.35 C 70.62 330.71 70.68 331.43 70.72 331.79 C 45.42 319.10 24.36 297.55 13.81 271.16 C 8.10 257.53 5.75 242.72 5.87 228.00 C 5.17 193.27 13.61 158.46 29.79 127.74 C 50.90 87.40 85.05 54.32 125.31 33.26 Z" />
    <path fill="#d8d7fe" opacity="1.00"
      d=" M 335.45 267.25 C 335.49 268.68 335.87 270.16 335.52 271.59 C 330.19 288.37 322.31 304.46 311.39 318.34 C 301.43 330.43 289.58 341.03 276.22 349.25 C 267.73 354.86 258.44 359.19 250.20 365.20 C 236.10 375.34 224.89 388.92 215.20 403.21 C 202.55 422.96 193.24 444.66 185.92 466.89 C 184.91 470.54 183.64 474.11 182.00 477.52 C 181.64 465.35 181.90 453.17 181.85 440.99 C 183.72 419.70 190.31 398.74 201.32 380.38 C 207.38 369.85 216.03 361.11 224.95 352.98 C 241.84 337.59 261.57 325.45 282.65 316.68 C 305.39 307.10 324.25 289.18 335.45 267.25 Z" />
    <path fill="#d8d7fe" opacity="1.00"
      d=" M 261.95 606.27 C 264.59 606.19 267.22 606.41 269.84 606.78 C 267.99 608.86 263.95 607.86 261.95 606.27 Z" />
    <path fill="#d8d7fe" opacity="1.00"
      d=" M 273.51 609.94 C 272.12 609.16 274.47 608.16 275.18 608.33 C 277.14 608.60 278.99 609.37 280.87 609.98 C 278.79 612.36 275.84 611.47 273.51 609.94 Z" />
    <path fill="#d8d7fe" opacity="1.00"
      d=" M 228.94 613.18 C 248.38 607.37 270.40 610.62 287.20 622.01 C 279.26 618.06 270.84 614.98 262.05 613.68 C 256.03 613.27 249.99 613.35 243.97 613.59 C 226.81 615.80 210.40 623.94 198.49 636.53 C 194.90 639.97 192.27 644.21 189.22 648.10 C 188.28 647.45 187.34 646.81 186.40 646.19 C 195.99 630.55 211.19 618.19 228.94 613.18 Z" />
    <path fill="#d8d7fe" opacity="1.00"
      d=" M 281.97 613.17 C 286.98 610.36 291.64 615.43 295.94 617.54 C 294.69 618.25 293.42 618.95 292.18 619.67 C 288.98 617.17 285.24 615.54 281.97 613.17 Z" />
    <path fill="#d8d7fe" opacity="1.00"
      d=" M 298.29 620.31 C 299.49 619.52 300.59 620.90 301.52 621.50 C 303.35 623.01 305.22 624.49 306.89 626.19 C 307.16 628.10 304.77 628.82 303.25 628.80 C 300.79 626.85 298.52 624.66 296.22 622.53 C 295.85 621.20 297.37 620.72 298.29 620.31 Z" />
    <path fill="#d8d7fe" opacity="1.00"
      d=" M 339.10 630.87 C 341.42 627.17 346.20 627.84 349.73 629.12 C 347.61 630.60 347.06 633.08 346.63 635.48 C 344.51 635.00 342.87 637.04 343.76 639.04 C 345.46 640.20 347.35 641.04 349.22 641.91 C 347.85 642.06 346.77 642.85 346.14 644.07 C 342.67 649.63 340.00 655.68 338.09 661.95 C 336.04 668.35 334.89 675.25 330.87 680.82 C 327.10 686.65 321.10 690.40 315.43 694.16 C 313.83 692.48 311.90 690.61 312.46 688.04 C 312.54 684.68 315.56 682.78 318.02 681.09 C 323.52 677.55 327.06 671.45 328.09 665.06 C 328.51 663.09 327.90 660.74 326.04 659.73 C 323.65 659.05 322.17 661.32 320.54 662.62 C 317.37 665.82 312.08 667.42 307.95 665.13 C 304.85 662.62 306.50 657.41 309.70 655.73 C 316.46 651.81 325.02 650.59 330.19 644.22 C 333.03 640.64 337.25 638.79 341.37 637.13 C 342.27 634.73 339.99 632.86 339.10 630.87 Z" />
    <path fill="#d8d7fe" opacity="1.00"
      d=" M 161.99 629.65 C 164.91 629.01 168.66 628.62 170.66 631.37 C 171.36 633.95 168.29 635.60 168.27 638.18 C 172.04 640.07 176.23 641.62 178.88 645.11 C 182.50 650.15 188.24 652.94 193.83 655.25 C 197.03 656.64 200.64 658.15 202.33 661.43 C 202.95 663.55 203.11 666.68 200.76 667.83 C 198.42 669.06 195.53 668.73 193.13 667.87 C 189.82 666.71 187.79 663.70 185.07 661.68 C 182.45 660.82 180.62 663.63 180.84 665.94 C 181.18 673.11 185.18 679.86 191.06 683.90 C 193.85 685.73 196.58 688.95 195.33 692.51 C 194.81 694.85 192.56 695.91 190.70 697.07 C 188.34 694.49 185.62 692.28 183.04 689.94 C 179.18 686.46 176.35 682.05 173.50 677.76 C 172.95 676.58 172.60 675.29 172.57 674.00 C 173.06 667.69 174.99 661.17 172.95 654.94 C 171.22 649.57 166.80 645.83 163.14 641.79 C 163.45 641.35 164.07 640.47 164.38 640.03 C 164.31 639.54 164.18 638.55 164.12 638.05 C 163.70 635.18 162.89 632.39 161.99 629.65 Z" />
    <path fill="#d8d7fe" opacity="1.00"
      d=" M 149.65 643.29 C 147.37 640.04 149.94 636.73 152.63 634.86 C 153.09 637.17 153.59 639.48 154.20 641.77 C 154.53 641.58 155.17 641.21 155.49 641.03 C 155.81 642.84 156.60 644.59 158.78 644.34 C 155.87 646.22 156.08 650.07 155.41 653.10 C 154.28 661.85 153.67 671.57 158.21 679.50 C 159.42 684.36 160.99 689.16 163.94 693.29 C 161.70 692.80 159.59 691.73 158.24 689.83 C 151.71 681.10 148.64 669.74 150.35 658.94 C 150.77 654.49 152.29 650.28 153.43 646.00 C 153.80 643.85 151.14 643.57 149.65 643.29 Z" />
    <path fill="#d8d7fe" opacity="1.00"
      d=" M 359.33 635.74 C 361.12 637.62 361.66 640.09 360.62 642.52 C 358.92 643.01 355.71 643.25 356.43 645.83 C 359.72 656.77 360.58 669.06 355.43 679.59 C 352.85 684.71 350.08 691.12 343.82 692.36 C 345.45 689.86 346.74 687.11 348.39 684.67 C 348.86 684.53 349.78 684.23 350.25 684.09 C 353.09 679.47 354.95 674.25 355.56 668.87 C 356.53 660.59 354.16 652.42 350.92 644.90 C 354.18 642.29 357.14 639.31 359.33 635.74 Z" />
  </g>
  <g id="#c0bfffff">
    <path fill="#c0bfff" opacity="1.00"
      d=" M 110.81 76.78 C 155.83 38.09 215.75 17.70 274.96 19.59 C 297.03 19.90 319.00 23.64 340.12 29.95 C 341.63 30.30 343.18 30.30 344.73 30.40 C 347.35 31.11 349.62 32.77 352.05 33.96 C 380.21 49.00 405.32 69.81 425.00 94.97 C 445.04 120.70 459.46 150.94 465.92 182.95 C 467.64 192.31 469.53 201.79 469.39 211.33 C 466.55 220.08 465.62 229.30 463.36 238.20 C 458.67 257.86 454.13 277.82 445.08 296.02 C 438.90 309.21 431.40 321.84 421.89 332.92 C 410.82 346.15 398.03 357.76 385.30 369.36 C 378.35 375.68 370.19 380.42 361.99 384.92 C 352.70 390.10 346.06 398.74 340.51 407.61 C 337.20 413.22 333.98 418.98 332.14 425.28 C 325.95 433.13 322.32 442.89 322.18 452.93 C 322.53 468.95 322.30 484.98 322.36 501.01 C 322.40 514.82 318.03 528.62 309.75 539.71 C 298.94 554.52 281.95 564.46 263.88 567.28 C 246.20 570.18 227.39 566.45 212.39 556.57 C 198.62 547.74 188.03 533.80 183.93 517.89 C 181.29 508.50 181.89 498.66 181.84 489.02 C 181.98 485.19 181.54 481.32 182.00 477.52 C 183.64 474.11 184.91 470.54 185.92 466.89 C 193.24 444.66 202.55 422.96 215.20 403.21 C 224.89 388.92 236.10 375.34 250.20 365.20 C 258.44 359.19 267.73 354.86 276.22 349.25 C 289.58 341.03 301.43 330.43 311.39 318.34 C 322.31 304.46 330.19 288.37 335.52 271.59 C 335.87 270.16 335.49 268.68 335.45 267.25 C 335.53 266.50 335.75 265.80 336.12 265.13 C 345.48 245.68 347.45 222.97 342.48 202.03 C 337.52 181.32 325.53 162.46 309.17 148.88 C 291.66 134.12 269.35 125.33 246.54 123.68 C 221.16 121.73 195.04 128.49 174.21 143.23 C 161.83 151.87 151.30 163.23 143.89 176.41 C 132.20 172.32 119.46 170.47 107.24 173.24 C 97.50 174.96 88.64 181.19 84.06 190.00 C 77.82 201.44 77.40 215.07 79.36 227.68 C 81.07 235.75 83.45 243.94 88.25 250.76 C 88.90 252.17 89.07 253.77 89.81 255.16 C 91.40 256.97 95.06 255.63 94.50 253.06 C 92.68 241.60 93.77 229.51 99.02 219.04 C 105.43 205.69 117.58 196.00 130.77 189.80 C 150.28 180.13 173.88 180.97 193.72 189.24 C 201.36 192.65 208.98 196.76 214.85 202.80 C 217.31 208.84 220.19 214.75 221.70 221.13 C 226.21 240.57 222.73 261.87 211.34 278.38 C 197.61 298.27 177.19 313.17 154.64 321.60 C 129.50 331.07 101.39 332.47 75.44 325.56 C 71.37 324.58 67.52 322.48 63.25 322.62 C 45.20 302.57 34.00 276.12 33.82 249.01 C 32.09 208.88 42.60 168.45 62.84 133.83 C 75.44 112.27 91.83 92.98 110.81 76.78 M 356.41 74.53 C 352.69 75.58 349.55 78.44 347.99 81.96 C 345.30 88.56 348.99 97.10 356.06 98.92 C 363.39 101.41 371.95 95.72 372.40 87.97 C 373.50 79.49 364.57 72.05 356.41 74.53 M 387.38 101.52 C 380.44 103.20 378.04 112.96 383.27 117.75 C 388.52 123.39 399.19 119.64 399.67 111.92 C 400.76 105.27 393.73 99.50 387.38 101.52 M 406.26 131.41 C 401.09 133.62 400.63 141.70 405.40 144.57 C 410.07 147.88 417.60 143.89 416.85 138.02 C 417.36 132.74 410.73 128.88 406.26 131.41 M 207.15 460.13 C 201.68 461.41 197.22 466.34 196.74 471.97 C 195.59 479.40 201.54 487.00 209.10 487.38 C 216.80 488.53 224.60 481.83 224.23 473.98 C 225.13 465.10 215.57 457.73 207.15 460.13 M 292.12 460.07 C 286.41 461.16 281.92 466.30 281.34 472.05 C 280.49 478.25 284.40 484.54 290.25 486.66 C 297.99 489.75 307.59 484.45 308.81 476.14 C 310.89 466.81 301.41 457.57 292.12 460.07 M 239.70 489.92 C 245.67 497.74 258.95 497.75 264.86 489.89 C 266.76 487.73 263.23 484.23 261.19 486.19 C 258.35 488.54 254.97 490.94 251.06 490.27 C 247.42 490.02 245.04 487.03 242.00 485.44 C 240.58 486.52 238.54 487.85 239.70 489.92 M 197.35 496.32 C 196.37 499.17 192.71 502.68 195.03 505.54 C 198.14 503.92 199.51 499.59 199.89 496.19 C 199.26 496.22 197.99 496.29 197.35 496.32 M 205.55 496.22 C 204.79 499.27 199.99 503.45 204.01 505.87 C 206.13 503.12 207.55 499.93 208.75 496.70 C 207.68 496.53 206.61 496.37 205.55 496.22 M 210.18 504.69 C 211.38 504.53 213.19 505.32 213.64 503.68 C 214.61 501.04 218.46 497.48 215.08 495.12 C 212.71 497.85 211.04 501.19 210.18 504.69 M 287.70 496.35 C 286.49 499.14 284.82 501.75 284.13 504.74 C 284.86 504.74 286.33 504.75 287.06 504.75 C 288.74 502.21 290.19 499.41 290.80 496.41 C 289.76 496.37 288.73 496.35 287.70 496.35 M 296.27 496.21 C 294.89 498.91 293.57 501.63 292.27 504.37 C 293.34 504.53 294.41 504.70 295.49 504.88 C 296.71 502.06 298.62 499.45 298.86 496.31 C 298.21 496.28 296.92 496.23 296.27 496.21 M 304.27 496.29 C 302.96 499.03 301.06 501.65 301.13 504.83 C 301.78 504.80 303.08 504.75 303.73 504.72 C 305.09 501.97 306.81 499.27 307.01 496.13 C 306.32 496.17 304.95 496.25 304.27 496.29 Z" />
  </g>
  <g id="#ffffffff">
    <path fill="#ffffff" opacity="1.00"
      d=" M 356.41 74.53 C 364.57 72.05 373.50 79.49 372.40 87.97 C 371.95 95.72 363.39 101.41 356.06 98.92 C 348.99 97.10 345.30 88.56 347.99 81.96 C 349.55 78.44 352.69 75.58 356.41 74.53 Z" />
    <path fill="#ffffff" opacity="1.00"
      d=" M 387.38 101.52 C 393.73 99.50 400.76 105.27 399.67 111.92 C 399.19 119.64 388.52 123.39 383.27 117.75 C 378.04 112.96 380.44 103.20 387.38 101.52 Z" />
    <path fill="#ffffff" opacity="1.00"
      d=" M 406.26 131.41 C 410.73 128.88 417.36 132.74 416.85 138.02 C 417.60 143.89 410.07 147.88 405.40 144.57 C 400.63 141.70 401.09 133.62 406.26 131.41 Z" />
    <path fill="#ffffff" opacity="1.00"
      d=" M 895.56 279.60 C 924.72 260.52 960.69 253.61 995.10 257.07 C 1023.05 259.63 1050.19 270.33 1072.21 287.76 C 1090.05 301.92 1105.64 319.27 1116.25 339.52 C 1125.45 356.94 1130.78 376.29 1132.45 395.89 C 1134.36 418.37 1132.20 441.35 1124.78 462.73 C 1118.64 480.66 1108.82 497.25 1096.53 511.65 C 1106.72 522.32 1116.98 532.93 1127.17 543.60 C 1113.32 555.98 1099.27 568.15 1085.57 580.69 C 1074.56 569.64 1063.92 558.23 1053.04 547.06 C 1036.04 556.50 1017.22 562.68 997.90 564.99 C 965.43 568.86 931.45 563.47 902.83 547.28 C 876.19 532.24 853.84 509.46 839.86 482.21 C 830.78 464.48 825.61 444.85 824.13 425.01 C 822.33 400.97 825.05 376.37 833.83 353.83 C 845.65 323.24 868.30 297.48 895.56 279.60 M 952.61 316.37 C 933.18 321.09 915.80 332.74 903.19 348.14 C 891.95 361.67 885.06 378.58 882.93 396.00 C 880.72 414.12 882.20 432.97 889.02 450.01 C 896.62 469.06 910.93 485.16 928.44 495.71 C 953.09 510.33 984.19 512.23 1011.14 503.21 C 995.08 485.97 978.56 469.15 962.33 452.07 C 976.23 439.70 990.19 427.39 1004.07 414.99 C 1021.58 433.10 1038.98 451.33 1056.47 469.46 C 1074.12 444.71 1078.27 412.01 1070.81 382.90 C 1062.74 351.33 1036.69 325.12 1005.21 316.77 C 988.08 312.30 969.80 312.20 952.61 316.37 Z" />
    <path fill="#ffffff" opacity="1.00"
      d=" M 1245.88 258.86 C 1264.38 255.00 1283.77 255.44 1302.14 259.83 C 1320.73 264.35 1338.07 273.83 1351.95 286.99 C 1362.80 297.23 1371.41 309.70 1377.86 323.12 C 1361.38 332.65 1344.89 342.14 1328.44 351.69 C 1322.37 338.66 1313.07 326.56 1300.08 319.89 C 1288.45 313.84 1274.85 312.30 1261.97 314.01 C 1251.45 315.41 1240.77 320.69 1235.42 330.21 C 1228.72 342.36 1232.89 359.01 1244.52 366.59 C 1259.28 375.97 1276.31 380.71 1292.79 386.10 C 1302.74 389.52 1312.85 392.50 1322.60 396.49 C 1330.69 399.83 1339.18 402.48 1346.56 407.34 C 1355.44 412.91 1364.16 419.11 1370.76 427.36 C 1379.00 438.24 1384.21 451.37 1385.69 464.94 C 1387.73 483.55 1385.12 503.18 1375.60 519.54 C 1366.54 535.25 1351.78 547.05 1335.52 554.71 C 1315.47 564.09 1292.94 566.87 1270.99 566.04 C 1248.85 565.25 1226.48 560.14 1207.37 548.63 C 1185.99 536.06 1169.44 515.81 1161.09 492.49 C 1177.85 482.69 1194.61 472.90 1211.37 463.09 C 1216.78 477.40 1226.08 490.72 1239.42 498.64 C 1255.71 508.46 1275.63 510.00 1294.14 507.75 C 1303.64 506.45 1313.44 503.32 1320.21 496.19 C 1328.25 488.01 1329.65 474.62 1324.68 464.49 C 1321.31 457.62 1314.70 453.24 1308.08 449.89 C 1293.13 442.42 1276.99 437.82 1261.02 433.12 C 1241.70 427.04 1222.59 419.68 1205.45 408.76 C 1193.62 401.35 1184.17 390.16 1179.09 377.14 C 1173.35 362.51 1172.44 346.35 1174.35 330.87 C 1176.36 314.78 1183.21 299.19 1194.50 287.46 C 1208.32 273.16 1226.38 262.93 1245.88 258.86 Z" />
    <path fill="#ffffff" opacity="1.00"
      d=" M 1402.43 262.19 C 1475.52 262.19 1548.60 262.19 1621.69 262.19 C 1621.68 280.94 1621.70 299.69 1621.68 318.45 C 1594.87 318.43 1568.06 318.45 1541.25 318.44 C 1541.25 399.02 1541.25 479.60 1541.25 560.19 C 1521.65 560.20 1502.05 560.17 1482.46 560.20 C 1482.41 479.62 1482.45 399.03 1482.44 318.44 C 1455.77 318.44 1429.11 318.44 1402.44 318.44 C 1402.43 299.69 1402.44 280.94 1402.43 262.19 Z" />
    <path fill="#ffffff" opacity="1.00"
      d=" M 1654.37 262.19 C 1669.26 262.16 1684.15 262.25 1699.04 262.14 C 1741.70 322.61 1784.10 383.26 1826.73 443.74 C 1826.77 383.22 1826.73 322.71 1826.75 262.19 C 1846.35 262.19 1865.96 262.18 1885.57 262.19 C 1885.55 361.53 1885.59 460.86 1885.54 560.20 C 1870.63 560.17 1855.72 560.19 1840.81 560.19 C 1798.27 499.50 1755.71 438.81 1713.19 378.10 C 1713.18 438.80 1713.19 499.49 1713.19 560.19 C 1693.61 560.25 1674.03 560.07 1654.46 560.28 C 1654.26 460.92 1654.43 361.55 1654.37 262.19 Z" />
    <path fill="#ffffff" opacity="1.00"
      d=" M 204.43 468.43 C 207.49 467.00 210.91 470.41 209.49 473.46 C 208.37 476.39 203.78 476.36 202.63 473.49 C 201.52 471.61 202.81 469.48 204.43 468.43 Z" />
    <path fill="#ffffff" opacity="1.00"
      d=" M 288.43 468.68 C 292.69 465.87 296.58 473.03 292.18 475.22 C 288.17 477.79 284.37 470.88 288.43 468.68 Z" />
    <path fill="#ffffff" opacity="1.00"
      d=" M 152.63 634.86 C 155.61 632.88 158.70 631.07 161.99 629.65 C 162.89 632.39 163.70 635.18 164.12 638.05 C 160.84 636.65 158.23 639.74 155.49 641.03 C 155.17 641.21 154.53 641.58 154.20 641.77 C 153.59 639.48 153.09 637.17 152.63 634.86 Z" />
    <path fill="#ffffff" opacity="1.00"
      d=" M 346.63 635.48 C 347.06 633.08 347.61 630.60 349.73 629.12 C 353.07 631.10 356.36 633.20 359.33 635.74 C 357.14 639.31 354.18 642.29 350.92 644.90 C 354.16 652.42 356.53 660.59 355.56 668.87 C 354.95 674.25 353.09 679.47 350.25 684.09 C 349.78 684.23 348.86 684.53 348.39 684.67 C 349.62 680.57 350.85 676.31 350.39 671.99 C 349.58 669.74 345.68 670.47 346.15 672.93 C 345.78 678.53 344.39 684.30 340.65 688.66 C 337.71 691.92 334.11 695.59 329.34 695.32 C 335.32 689.86 339.64 682.24 339.69 674.00 C 338.94 671.54 335.04 672.28 335.29 674.83 C 334.34 682.88 329.71 690.64 322.35 694.34 C 320.16 695.43 317.66 694.77 315.43 694.16 C 321.10 690.40 327.10 686.65 330.87 680.82 C 334.89 675.25 336.04 668.35 338.09 661.95 C 340.00 655.68 342.67 649.63 346.14 644.07 C 346.77 642.85 347.85 642.06 349.22 641.91 C 351.01 641.91 352.89 641.06 352.41 638.92 C 350.74 637.38 348.65 636.44 346.63 635.48 Z" />
    <path fill="#ffffff" opacity="1.00"
      d=" M 158.78 644.34 C 160.25 643.51 161.72 642.69 163.14 641.79 C 166.80 645.83 171.22 649.57 172.95 654.94 C 174.99 661.17 173.06 667.69 172.57 674.00 C 171.13 674.11 168.99 673.91 168.79 675.88 C 168.95 683.93 172.68 691.56 178.44 697.11 C 172.73 696.57 168.41 692.09 165.70 687.38 C 163.21 683.15 162.55 678.19 162.51 673.37 C 162.45 671.27 158.75 670.96 158.27 673.05 C 158.04 675.19 158.22 677.34 158.21 679.50 C 153.67 671.57 154.28 661.85 155.41 653.10 C 156.08 650.07 155.87 646.22 158.78 644.34 Z" />
    <path fill="#ffffff" opacity="1.00"
      d=" M 173.50 677.76 C 176.35 682.05 179.18 686.46 183.04 689.94 C 185.62 692.28 188.34 694.49 190.70 697.07 C 186.65 697.82 183.11 695.32 180.50 692.53 C 176.51 688.63 174.05 683.30 173.50 677.76 Z" />
  </g>
  <g id="#9c9bffff">
    <path fill="#9c9bff" opacity="1.00"
      d=" M 107.24 173.24 C 119.46 170.47 132.20 172.32 143.89 176.41 C 143.02 177.66 142.54 179.50 140.88 179.92 C 125.50 184.66 110.83 193.11 100.74 205.87 C 93.54 214.99 88.99 226.25 88.32 237.89 C 87.97 242.17 88.47 246.47 88.25 250.76 C 83.45 243.94 81.07 235.75 79.36 227.68 C 77.40 215.07 77.82 201.44 84.06 190.00 C 88.64 181.19 97.50 174.96 107.24 173.24 Z" />
    <path fill="#9c9bff" opacity="1.00"
      d=" M 214.85 202.80 C 225.08 210.98 232.36 222.56 236.47 234.93 C 242.25 252.73 240.40 272.92 231.22 289.27 C 226.88 297.21 220.98 304.21 214.50 310.50 C 192.43 332.11 161.78 344.23 131.02 344.99 C 110.26 345.51 89.33 341.02 70.72 331.79 C 70.68 331.43 70.62 330.71 70.59 330.35 C 68.41 327.53 65.60 325.28 63.25 322.62 C 67.52 322.48 71.37 324.58 75.44 325.56 C 101.39 332.47 129.50 331.07 154.64 321.60 C 177.19 313.17 197.61 298.27 211.34 278.38 C 222.73 261.87 226.21 240.57 221.70 221.13 C 220.19 214.75 217.31 208.84 214.85 202.80 Z" />
    <path fill="#9c9bff" opacity="1.00"
      d=" M 469.39 211.33 C 469.67 212.53 469.86 213.74 469.96 214.97 C 472.00 257.06 460.71 299.60 438.29 335.26 C 422.36 360.85 401.08 383.07 376.36 400.28 C 362.31 409.87 344.44 413.04 332.14 425.28 C 333.98 418.98 337.20 413.22 340.51 407.61 C 346.06 398.74 352.70 390.10 361.99 384.92 C 370.19 380.42 378.35 375.68 385.30 369.36 C 398.03 357.76 410.82 346.15 421.89 332.92 C 431.40 321.84 438.90 309.21 445.08 296.02 C 454.13 277.82 458.67 257.86 463.36 238.20 C 465.62 229.30 466.55 220.08 469.39 211.33 Z" />
  </g>
  <g id="#4d4266fe">
    <path fill="#4d4266" opacity="1.00"
      d=" M 207.15 460.13 C 215.57 457.73 225.13 465.10 224.23 473.98 C 224.60 481.83 216.80 488.53 209.10 487.38 C 201.54 487.00 195.59 479.40 196.74 471.97 C 197.22 466.34 201.68 461.41 207.15 460.13 M 204.43 468.43 C 202.81 469.48 201.52 471.61 202.63 473.49 C 203.78 476.36 208.37 476.39 209.49 473.46 C 210.91 470.41 207.49 467.00 204.43 468.43 Z" />
    <path fill="#4d4266" opacity="1.00"
      d=" M 292.12 460.07 C 301.41 457.57 310.89 466.81 308.81 476.14 C 307.59 484.45 297.99 489.75 290.25 486.66 C 284.40 484.54 280.49 478.25 281.34 472.05 C 281.92 466.30 286.41 461.16 292.12 460.07 M 288.43 468.68 C 284.37 470.88 288.17 477.79 292.18 475.22 C 296.58 473.03 292.69 465.87 288.43 468.68 Z" />
    <path fill="#4d4266" opacity="1.00"
      d=" M 188.13 799.41 C 202.67 794.84 217.97 794.03 233.01 792.52 C 252.03 792.66 271.15 791.59 290.04 794.02 C 299.48 795.06 309.15 796.13 318.06 799.52 C 303.16 804.39 287.43 804.86 272.00 806.50 C 259.66 806.55 247.33 806.55 234.99 806.46 C 219.30 804.93 203.26 804.37 188.13 799.41 Z" />
  </g>
  <g id="#d7a03fff">
    <path fill="#d7a03f" opacity="1.00"
      d=" M 197.35 496.32 C 197.99 496.29 199.26 496.22 199.89 496.19 C 199.51 499.59 198.14 503.92 195.03 505.54 C 192.71 502.68 196.37 499.17 197.35 496.32 Z" />
    <path fill="#d7a03f" opacity="1.00"
      d=" M 205.55 496.22 C 206.61 496.37 207.68 496.53 208.75 496.70 C 207.55 499.93 206.13 503.12 204.01 505.87 C 199.99 503.45 204.79 499.27 205.55 496.22 Z" />
    <path fill="#d7a03f" opacity="1.00"
      d=" M 210.18 504.69 C 211.04 501.19 212.71 497.85 215.08 495.12 C 218.46 497.48 214.61 501.04 213.64 503.68 C 213.19 505.32 211.38 504.53 210.18 504.69 Z" />
    <path fill="#d7a03f" opacity="1.00"
      d=" M 287.70 496.35 C 288.73 496.35 289.76 496.37 290.80 496.41 C 290.19 499.41 288.74 502.21 287.06 504.75 C 286.33 504.75 284.86 504.74 284.13 504.74 C 284.82 501.75 286.49 499.14 287.70 496.35 Z" />
    <path fill="#d7a03f" opacity="1.00"
      d=" M 296.27 496.21 C 296.92 496.23 298.21 496.28 298.86 496.31 C 298.62 499.45 296.71 502.06 295.49 504.88 C 294.41 504.70 293.34 504.53 292.27 504.37 C 293.57 501.63 294.89 498.91 296.27 496.21 Z" />
    <path fill="#d7a03f" opacity="1.00"
      d=" M 304.27 496.29 C 304.95 496.25 306.32 496.17 307.01 496.13 C 306.81 499.27 305.09 501.97 303.73 504.72 C 303.08 504.75 301.78 504.80 301.13 504.83 C 301.06 501.65 302.96 499.03 304.27 496.29 Z" />
    <path fill="#d7a03f" opacity="1.00"
      d=" M 306.03 632.02 C 307.42 631.14 308.82 630.27 310.21 629.40 C 311.66 630.82 312.98 632.37 314.13 634.05 C 312.70 634.99 311.29 635.94 309.88 636.91 C 308.59 635.28 307.31 633.65 306.03 632.02 Z" />
    <path fill="#d7a03f" opacity="1.00"
      d=" M 312.05 639.47 C 313.51 638.51 315.03 637.64 316.65 636.96 C 318.40 639.70 320.18 642.43 321.82 645.25 C 320.14 646.05 318.47 646.84 316.79 647.63 C 315.27 644.87 313.34 642.35 312.05 639.47 Z" />
    <path fill="#d7a03f" opacity="1.00"
      d=" M 307.99 670.35 C 312.03 671.03 316.12 670.51 319.93 669.05 C 320.12 670.56 320.95 672.35 319.52 673.55 C 316.01 678.05 309.11 679.86 308.17 686.20 C 305.96 693.62 313.47 700.41 320.67 699.49 C 317.95 715.35 310.21 730.38 298.60 741.55 C 286.71 753.28 270.65 760.71 253.98 761.97 C 235.55 763.56 216.75 757.19 202.64 745.31 C 192.36 736.45 183.88 724.99 179.94 711.91 C 183.08 714.49 186.16 717.15 189.33 719.71 C 202.28 729.66 218.63 735.24 234.99 734.79 C 251.89 734.75 268.57 728.27 281.39 717.33 C 295.40 705.45 305.05 688.49 307.99 670.35 M 286.77 733.12 C 285.75 734.84 287.91 735.77 288.95 736.63 C 292.82 734.02 296.41 730.79 298.71 726.68 C 299.50 724.64 297.92 723.22 295.94 723.21 C 293.42 726.99 290.07 730.05 286.77 733.12 M 276.49 740.59 C 264.51 747.22 250.32 749.32 236.90 746.73 C 234.47 746.06 233.50 750.55 236.09 750.96 C 250.40 754.09 265.81 751.65 278.60 744.57 C 281.29 743.35 279.29 738.77 276.49 740.59 Z" />
    <path fill="#d7a03f" opacity="1.00"
      d=" M 325.20 699.04 C 326.78 699.27 328.37 699.50 329.96 699.75 C 329.15 703.81 328.23 707.89 326.57 711.70 C 324.98 713.33 322.92 714.40 321.03 715.65 C 322.67 710.18 324.38 704.71 325.20 699.04 Z" />
    <path fill="#d7a03f" opacity="1.00"
      d=" M 317.38 723.36 C 318.50 720.75 321.38 719.76 323.68 718.47 C 317.81 731.36 308.06 742.47 296.10 750.04 C 304.83 742.64 312.36 733.70 317.38 723.36 Z" />
  </g>
  <g id="#ecbe60ff">
    <path fill="#ecbe60" opacity="1.00"
      d=" M 198.49 636.53 C 210.40 623.94 226.81 615.80 243.97 613.59 C 249.99 613.35 256.03 613.27 262.05 613.68 C 270.84 614.98 279.26 618.06 287.20 622.01 C 296.50 627.64 304.18 635.80 309.92 645.00 C 310.81 646.34 311.51 647.81 312.01 649.35 C 307.36 651.19 302.41 654.54 301.90 659.98 C 300.92 664.46 303.78 668.84 307.99 670.35 C 305.05 688.49 295.40 705.45 281.39 717.33 C 268.57 728.27 251.89 734.75 234.99 734.79 C 218.63 735.24 202.28 729.66 189.33 719.71 C 186.16 717.15 183.08 714.49 179.94 711.91 C 178.20 708.81 177.80 705.10 177.02 701.66 C 179.01 701.29 180.99 700.83 182.96 700.35 C 188.05 702.58 194.57 701.73 198.06 697.14 C 201.91 692.21 200.05 684.38 194.91 681.08 C 190.59 678.26 187.14 674.10 185.92 669.01 C 190.62 672.65 197.27 674.55 202.88 671.93 C 207.78 669.46 208.32 662.61 205.76 658.27 C 204.62 655.88 202.17 654.68 200.26 653.03 C 200.87 651.37 202.53 649.42 201.02 647.74 C 198.37 646.46 196.97 649.16 195.79 650.98 C 193.54 650.16 191.34 649.20 189.22 648.10 C 192.27 644.21 194.90 639.97 198.49 636.53 M 224.26 626.22 C 216.54 629.07 209.47 633.87 204.29 640.29 C 203.04 642.57 206.09 644.97 207.81 642.96 C 212.61 637.55 218.54 633.04 225.43 630.66 C 227.15 629.94 230.13 629.58 229.32 626.94 C 228.81 624.41 225.83 625.70 224.26 626.22 Z" />
  </g>
</svg>