<svg viewBox="0 0 271 36" fill="none" xmlns="http://www.w3.org/2000/svg">
  <path
    d="M97.4842 7.0304H92.9482V27.7504H97.4842V23.7744L100.564 19.7424L105.128 27.7504H110.364L103.532 15.8784L110.308 7.0304H104.96L97.4842 16.9424V7.0304Z"
    fill="white" />
  <path
    d="M52.2674 27.7504V20.4984H55.7674L58.8754 27.7504H63.8314L60.1914 19.5184C62.4874 18.3424 63.6354 16.4384 63.6354 13.7504C63.6354 9.46639 60.7794 7.0304 55.7394 7.0304H47.7314V27.7504H52.2674ZM52.2674 11.0624H55.7394C57.7554 11.0624 58.8474 12.0144 58.8474 13.7504C58.8474 15.5144 57.6994 16.5224 55.7114 16.5224H52.2674V11.0624Z"
    fill="white" />
  <path d="M80.0848 7.0304H75.5488V27.7504H80.0848V7.0304Z" fill="white" />
  <path fill-rule="evenodd" clip-rule="evenodd"
    d="M16.2572 5.31056C16.5663 4.99634 16.9535 4.77037 17.3791 4.65633C17.8046 4.54232 18.253 4.54438 18.6775 4.66204C19.1023 4.77962 19.4879 5.00896 19.7941 5.32593L26.3069 12.0619L32.9516 6.68475C33.3092 6.39531 33.7405 6.21181 34.1971 6.15453C34.6536 6.09697 35.1168 6.1684 35.5352 6.36037C35.9533 6.55244 36.3097 6.85752 36.5641 7.24132C36.8185 7.62486 36.9608 8.07203 36.975 8.53199L37.5059 25.7208C37.5153 26.0544 37.4574 26.3864 37.3354 26.6968C37.2137 27.0072 37.0303 27.29 36.7962 27.5276C36.5624 27.7651 36.2829 27.953 35.9746 28.0797C35.6676 28.2061 35.3384 28.269 35.0066 28.2652C27.5926 28.2091 20.3031 30.1633 13.9107 33.92C13.6252 34.0892 13.3084 34.1995 12.9793 34.2436C12.6487 34.288 12.3127 34.265 11.9914 34.1762C11.6698 34.0872 11.3696 33.934 11.1087 33.7262C10.8478 33.518 10.6319 33.2594 10.4733 32.9658L10.472 32.9633L2.34426 17.8092C2.12683 17.4037 2.0265 16.9452 2.05533 16.4858C2.08385 16.0265 2.24005 15.5844 2.50616 15.2093C2.77221 14.8339 3.1379 14.5404 3.56174 14.3621C3.98578 14.1834 4.45111 14.1269 4.90517 14.1986L13.3497 15.5333L15.6222 6.44326C15.729 6.01564 15.9482 5.62424 16.257 5.31006L16.2572 5.31056ZM31.8253 22.1716C25.4563 22.1234 19.1936 23.8022 13.7026 27.0294C13.1798 27.3368 13.0053 28.0098 13.3124 28.5332C13.6197 29.0565 14.2927 29.2317 14.8155 28.9243C19.9646 25.8981 25.8371 24.3239 31.8096 24.3692C32.4159 24.3737 32.9111 23.8855 32.9154 23.2787C32.9196 22.6719 32.4316 22.1761 31.8252 22.1716L31.8253 22.1716Z"
    fill="#FDB62C" />
  <circle cx="119.364" cy="17.919" r="3" fill="#FDB62C" />
  <rect x="128.364" y="6.68304" width="142.551" height="22.472" rx="3" fill="#6011C7" />
  <path
    d="M135.736 22.987V18.983H138.326L140.216 22.987H141.742L139.684 18.717C140.944 18.311 141.644 17.303 141.644 15.903C141.644 14.013 140.356 12.865 138.186 12.865H134.364V22.987H135.736ZM135.736 14.097H138.186C139.446 14.097 140.202 14.741 140.202 15.917C140.202 17.079 139.474 17.765 138.2 17.765H135.736V14.097Z"
    fill="white" />
  <path
    d="M149.418 22.987V21.713H144.616V18.507H148.942V17.289H144.616V14.125H149.418V12.865H143.244V22.987H149.418Z"
    fill="white" />
  <path
    d="M155.061 19.375C157.035 19.375 158.323 18.003 158.323 16.113C158.323 14.167 157.049 12.865 155.061 12.865H151.127V22.987H152.499V19.375H155.061ZM154.823 14.097C156.111 14.097 156.881 14.825 156.881 16.099C156.881 17.345 156.125 18.143 154.767 18.143H152.499V14.097H154.823Z"
    fill="white" />
  <path
    d="M159.527 19.389C159.527 21.727 161.011 23.155 163.405 23.155C165.785 23.155 167.269 21.713 167.269 19.389V12.865H165.883V19.305C165.883 20.915 165.001 21.825 163.405 21.825C161.795 21.825 160.899 20.929 160.899 19.305V12.865H159.527V19.389Z"
    fill="white" />
  <path d="M168.29 14.125H171.342V22.987H172.714V14.125H175.752V12.865H168.29V14.125Z" fill="white" />
  <path
    d="M176.355 22.987L177.251 20.467H181.507L182.417 22.987H183.859L180.149 12.865H178.623L174.927 22.987H176.355ZM179.211 15.049C179.281 14.839 179.351 14.601 179.379 14.461C179.407 14.615 179.477 14.853 179.547 15.049L181.101 19.277H177.671L179.211 15.049Z"
    fill="white" />
  <path d="M183.028 14.125H186.08V22.987H187.452V14.125H190.49V12.865H183.028V14.125Z" fill="white" />
  <path d="M192.962 12.865H191.59V22.987H192.962V12.865Z" fill="white" />
  <path
    d="M204.17 17.919C204.17 14.839 202.168 12.683 199.298 12.683C196.442 12.683 194.44 14.853 194.44 17.919C194.44 20.999 196.428 23.155 199.284 23.155C202.154 23.155 204.17 20.999 204.17 17.919ZM202.728 17.919C202.728 20.257 201.356 21.839 199.298 21.839C197.24 21.839 195.882 20.271 195.882 17.919C195.882 15.567 197.24 14.013 199.298 14.013C201.356 14.013 202.728 15.567 202.728 17.919Z"
    fill="white" />
  <path
    d="M207.017 22.987V15.161L212.197 22.987H213.569V12.865H212.197V20.691L207.017 12.865H205.645V22.987H207.017Z"
    fill="white" />
  <path d="M220.566 12.865H219.194V22.987H220.566V12.865Z" fill="white" />
  <path
    d="M222.059 15.595C222.059 17.051 222.913 18.003 224.565 18.381L226.231 18.759C227.197 18.983 227.631 19.487 227.631 20.285C227.631 21.293 226.777 21.923 225.433 21.923C224.159 21.923 223.347 21.307 223.319 20.341H221.919C222.003 22.077 223.375 23.155 225.433 23.155C227.589 23.155 229.003 21.993 229.003 20.173C229.003 18.745 228.163 17.849 226.511 17.471L224.845 17.079C223.893 16.855 223.431 16.365 223.431 15.553C223.431 14.559 224.257 13.915 225.531 13.915C226.665 13.915 227.379 14.503 227.449 15.511H228.835C228.723 13.761 227.477 12.683 225.545 12.683C223.459 12.683 222.059 13.859 222.059 15.595Z"
    fill="white" />
  <path
    d="M235.367 12.865H233.995V22.987H235.367V20.663L237.215 18.325L239.973 22.987H241.569L238.125 17.163L241.513 12.865H239.875L235.367 18.605V12.865Z"
    fill="white" />
  <path d="M244.083 12.865H242.711V22.987H244.083V12.865Z" fill="white" />
  <path
    d="M247.536 22.987V15.161L252.716 22.987H254.088V12.865H252.716V20.691L247.536 12.865H246.164V22.987H247.536Z"
    fill="white" />
  <path
    d="M260.505 13.985C261.849 13.985 262.969 14.629 263.347 15.917H264.803C264.467 13.971 262.745 12.697 260.533 12.697C257.551 12.697 255.563 14.881 255.563 17.961C255.563 21.083 257.537 23.155 260.407 23.155C261.891 23.155 263.123 22.511 263.669 21.629L263.767 23.001H264.915V17.415H260.239V18.633H263.627V18.927C263.627 20.971 262.241 21.853 260.519 21.853C258.433 21.853 257.005 20.439 257.005 17.989C257.005 15.595 258.321 13.985 260.505 13.985Z"
    fill="white" />
</svg>