<?xml version="1.0" encoding="UTF-8"?>
<svg viewBox="0 0 267 108" version="1.1" xmlns="http://www.w3.org/2000/svg"
    xmlns:xlink="http://www.w3.org/1999/xlink">
    <g stroke="none" stroke-width="1" fill="none" fill-rule="evenodd">
        <g id="Sender-svg" transform="translate(-1401.000000, -468.000000)" fill="#FFFFFF">
            <g id="2" transform="translate(240.000000, 468.000000)">
                <g id="logo-b/black" transform="translate(1161.000000, 0.000000)">
                    <path
                        d="M148.659968,61.1852167 C148.659968,61.6270178 148.626169,62.2557349 148.558573,63.0713679 L127.31643,63.0713679 C127.688209,65.0764656 128.659906,66.6652506 130.231521,67.837723 C131.803135,69.0101954 133.754979,69.5964316 136.087052,69.5964316 C139.06129,69.5964316 141.511657,68.6108751 143.438152,66.6397621 L146.834867,70.5649958 C145.618133,72.0263381 144.080317,73.1308411 142.221418,73.8785047 C140.362519,74.6261682 138.267033,75 135.93496,75 C132.960722,75 130.341365,74.4052676 128.076888,73.2158029 C125.812411,72.0263381 124.063357,70.3695837 122.829724,68.2455395 C121.596091,66.1214953 120.979275,63.7170773 120.979275,61.0322855 C120.979275,58.3814783 121.579192,55.9940527 122.779027,53.8700085 C123.978861,51.7459643 125.643421,50.0892099 127.772705,48.8997451 C129.901989,47.7102804 132.301658,47.115548 134.971713,47.115548 C137.607969,47.115548 139.965391,47.7017842 142.043978,48.8742566 C144.122565,50.046729 145.744876,51.6949873 146.910913,53.8190314 C148.076949,55.9430756 148.659968,58.3984707 148.659968,61.1852167 Z M134.971713,52.213254 C132.943823,52.213254 131.228567,52.8164826 129.825943,54.0229397 C128.423319,55.2293968 127.569916,56.8351742 127.265732,58.8402719 L142.626996,58.8402719 C142.356611,56.8691589 141.528556,55.2718777 140.142831,54.0484282 C138.757107,52.8249788 137.033401,52.213254 134.971713,52.213254 Z M168.916684,47.115548 C172.330298,47.115548 175.067949,48.1180969 177.129636,50.1231946 C179.191324,52.1282923 180.222168,55.1019541 180.222168,59.0441801 L180.222168,74.6431606 L173.885013,74.6431606 L173.885013,59.8598131 C173.885013,57.4808836 173.327343,55.6881903 172.212004,54.4817332 C171.096665,53.2752761 169.508151,52.6720476 167.446464,52.6720476 C165.114391,52.6720476 163.272391,53.3772302 161.920464,54.7875956 C160.568538,56.1979609 159.892575,58.2285472 159.892575,60.8793543 L159.892575,74.6431606 L153.55542,74.6431606 L153.55542,47.4214104 L159.588391,47.4214104 L159.588391,50.9388275 C160.636134,49.6813934 161.954263,48.7298216 163.542776,48.0841121 C165.13129,47.4384027 166.922592,47.115548 168.916684,47.115548 Z M213.862955,36.8181818 L213.862955,74.6431606 L207.779287,74.6431606 L207.779287,71.1257434 C206.731544,72.4171623 205.438764,73.3857264 203.900948,74.0314359 C202.363131,74.6771453 200.664774,75 198.805875,75 C196.203417,75 193.862894,74.42226 191.784307,73.2667799 C189.705721,72.1112999 188.074959,70.4715378 186.892024,68.3474936 C185.709088,66.2234494 185.11762,63.7850467 185.11762,61.0322855 C185.11762,58.2795242 185.709088,55.8496177 186.892024,53.7425658 C188.074959,51.635514 189.705721,50.0042481 191.784307,48.8487681 C193.862894,47.693288 196.203417,47.115548 198.805875,47.115548 C200.597178,47.115548 202.236388,47.4214104 203.723507,48.0331351 C205.210626,48.6448598 206.478057,49.5624469 207.5258,50.7858963 L207.5258,36.8181818 L213.862955,36.8181818 Z M199.566334,69.5454545 C201.087251,69.5454545 202.456076,69.1971113 203.67281,68.5004248 C204.889544,67.8037383 205.852791,66.8096856 206.562553,65.5182668 C207.272314,64.2268479 207.627195,62.7315208 207.627195,61.0322855 C207.627195,59.3330501 207.272314,57.837723 206.562553,56.5463042 C205.852791,55.2548853 204.889544,54.2608326 203.67281,53.5641461 C202.456076,52.8674596 201.087251,52.5191164 199.566334,52.5191164 C198.045417,52.5191164 196.676591,52.8674596 195.459857,53.5641461 C194.243124,54.2608326 193.279876,55.2548853 192.570115,56.5463042 C191.860353,57.837723 191.505473,59.3330501 191.505473,61.0322855 C191.505473,62.7315208 191.860353,64.2268479 192.570115,65.5182668 C193.279876,66.8096856 194.243124,67.8037383 195.459857,68.5004248 C196.676591,69.1971113 198.045417,69.5454545 199.566334,69.5454545 Z M246.439101,61.1852167 C246.439101,61.6270178 246.405302,62.2557349 246.337706,63.0713679 L225.095563,63.0713679 C225.467342,65.0764656 226.439039,66.6652506 228.010654,67.837723 C229.582268,69.0101954 231.534112,69.5964316 233.866185,69.5964316 C236.840423,69.5964316 239.29079,68.6108751 241.217285,66.6397621 L244.614,70.5649958 C243.397266,72.0263381 241.85945,73.1308411 240.000551,73.8785047 C238.141652,74.6261682 236.046166,75 233.714093,75 C230.739855,75 228.120498,74.4052676 225.856021,73.2158029 C223.591544,72.0263381 221.84249,70.3695837 220.608857,68.2455395 C219.375224,66.1214953 218.758408,63.7170773 218.758408,61.0322855 C218.758408,58.3814783 219.358325,55.9940527 220.55816,53.8700085 C221.757994,51.7459643 223.422554,50.0892099 225.551838,48.8997451 C227.681122,47.7102804 230.080791,47.115548 232.750846,47.115548 C235.387102,47.115548 237.744524,47.7017842 239.823111,48.8742566 C241.901698,50.046729 243.524009,51.6949873 244.690046,53.8190314 C245.856082,55.9430756 246.439101,58.3984707 246.439101,61.1852167 Z M232.750846,52.213254 C230.722956,52.213254 229.0077,52.8164826 227.605076,54.0229397 C226.202452,55.2293968 225.349049,56.8351742 225.044865,58.8402719 L240.406129,58.8402719 C240.135744,56.8691589 239.307689,55.2718777 237.921964,54.0484282 C236.53624,52.8249788 234.812534,52.213254 232.750846,52.213254 Z M257.367524,51.3976211 C259.192625,48.5429057 262.40345,47.115548 267,47.115548 L267,53.1818182 C266.459229,53.0798641 265.969156,53.028887 265.52978,53.028887 C263.062514,53.028887 261.136019,53.751062 259.750295,55.1954121 C258.36457,56.6397621 257.671708,58.7213254 257.671708,61.440102 L257.671708,74.6431606 L251.334553,74.6431606 L251.334553,47.4214104 L257.367524,47.4214104 L257.367524,51.3976211 Z M99.9173209,75 C96.8030625,75 93.794535,74.5527778 90.8917386,73.6583333 C87.9889421,72.7638889 85.6916959,71.5777778 84,70.1 L86.5952154,64.2083333 C88.2484637,65.5305556 90.2765764,66.6097222 92.6795536,67.4458333 C95.0825308,68.2819444 97.4951199,68.7 99.9173209,68.7 C102.916236,68.7 105.155811,68.2138889 106.636045,67.2416667 C108.116279,66.2694444 108.856396,64.9861111 108.856396,63.3916667 C108.856396,62.225 108.443084,61.2625 107.61646,60.5041667 C106.789836,59.7458333 105.742138,59.1527778 104.473366,58.725 C103.204594,58.2972222 101.47445,57.8111111 99.2829349,57.2666667 C96.2071241,56.5277778 93.7176398,55.7888889 91.8144818,55.05 C89.9113239,54.3111111 88.2772994,53.1541667 86.9124084,51.5791667 C85.5475173,50.0041667 84.8650718,47.875 84.8650718,45.1916667 C84.8650718,42.9361111 85.470622,40.8847222 86.6817225,39.0375 C87.892823,37.1902778 89.7190857,35.7222222 92.1605105,34.6333333 C94.6019354,33.5444444 97.591239,33 101.128421,33 C103.58907,33 106.011271,33.3111111 108.395024,33.9333333 C110.778778,34.5555556 112.835726,35.45 114.56587,36.6166667 L112.20134,42.5083333 C110.432749,41.4583333 108.587263,40.6611111 106.664881,40.1166667 C104.742499,39.5722222 102.877789,39.3 101.07075,39.3 C98.1102821,39.3 95.9091549,39.8055556 94.4673686,40.8166667 C93.0255823,41.8277778 92.3046892,43.1694444 92.3046892,44.8416667 C92.3046892,46.0083333 92.7180012,46.9611111 93.5446254,47.7 C94.3712495,48.4388889 95.4189476,49.0222222 96.6877196,49.45 C97.9564915,49.8777778 99.6866351,50.3638889 101.87815,50.9083333 C104.877066,51.6083333 107.337714,52.3375 109.260096,53.0958333 C111.182478,53.8541667 112.826114,55.0111111 114.191005,56.5666667 C115.555896,58.1222222 116.238342,60.2222222 116.238342,62.8666667 C116.238342,65.1222222 115.632792,67.1638889 114.421691,68.9916667 C113.210591,70.8194444 111.374716,72.2777778 108.914067,73.3666667 C106.453419,74.4555556 103.454503,75 99.9173209,75 Z"
                        fill-rule="nonzero"></path>
                    <path
                        d="M47.0303584,44.7388566 C48.635586,45.3251687 50.1097575,46.091225 51.4192904,47.0327914 C53.1619025,48.2855715 54.6127126,49.8504902 55.6881208,51.720433 C56.2411577,52.6820654 56.6751606,53.6889918 56.9937198,54.7317766 C57.3158938,55.7822725 57.5220093,56.8689832 57.616271,57.9821168 C58.2828328,65.8085593 53.4537614,74.9096997 44.8599316,81.6705677 L44.4719557,81.9722564 C42.9773632,83.1204604 41.3720953,84.1987928 39.6655289,85.1879265 L0.307532235,108 C-0.847419978,100.329149 1.2830728,92.4505304 6.15390238,86.3765836 C8.25959849,83.7497243 10.8776953,81.4608337 13.9643921,79.6717703 L36.9557031,66.345902 C40.0891215,64.5297585 42.0810124,61.4940724 42.6729398,58.1919345 C43.1440262,55.5661934 42.7301025,52.7726869 41.301512,50.2886231 C40.1527885,48.2911981 38.5031233,46.7639035 36.600481,45.7730364 C34.4379053,44.6451761 31.9477806,44.2105553 29.4957215,44.5661608 C29.6342389,44.500585 29.773199,44.4372041 29.9126018,44.3760182 C31.9991268,43.8580037 34.060524,43.5286154 36.0611043,43.3856575 C40.0540925,43.1012096 43.8052145,43.5592194 47.0303584,44.7388566 Z M59.6924678,0 C60.84742,7.67085123 58.7169272,15.5494696 53.8460976,21.6234164 C51.7404015,24.2502757 49.1223047,26.5391663 46.0356079,28.3282297 L23.0442969,41.654098 C19.9108785,43.4702415 17.9189876,46.5059276 17.3270602,49.8080655 C16.8559738,52.4338066 17.2698975,55.2273131 18.698488,57.7113769 C19.8472115,59.7088019 21.4968767,61.2360965 23.399519,62.2269636 C25.5620947,63.3548239 28.0522194,63.7894447 30.5042785,63.4338392 C30.3657611,63.499415 30.226801,63.5627959 30.0873982,63.6239818 C28.0008732,64.1419963 25.939476,64.4713846 23.9388957,64.6143425 C19.9459075,64.8987904 16.1947855,64.4407806 12.9696416,63.2611434 C11.364414,62.6748313 9.89024252,61.908775 8.58070961,60.9672086 C6.83809754,59.7144285 5.38728743,58.1495098 4.31187921,56.279567 C3.75884233,55.3179346 3.32483936,54.3110082 3.00628024,53.2682234 C2.68410615,52.2177275 2.47799069,51.1310168 2.38372905,50.0178832 C1.71716724,42.1914407 6.54623863,33.0903003 15.1400684,26.3294323 L15.5280443,26.0277436 C17.0226368,24.8795396 18.6279047,23.8012072 20.3344711,22.8120735 L59.6924678,0 Z"
                    ></path>
                </g>
            </g>
        </g>
    </g>
</svg>