<?xml version="1.0" encoding="UTF-8"?>
<!DOCTYPE svg PUBLIC "-//W3C//DTD SVG 1.1//EN" "http://www.w3.org/Graphics/SVG/1.1/DTD/svg11.dtd">
<svg viewBox="0 0 358 172" version="1.1" xmlns="http://www.w3.org/2000/svg">
  <g id="#52122fff">
    <path fill="#52122f" opacity="1.00"
      d=" M 220.85 5.78 C 224.11 0.71 231.33 0.48 236.41 2.65 C 240.30 4.98 241.94 9.58 242.18 13.91 C 242.17 16.24 244.07 17.84 245.40 19.54 C 248.53 23.08 250.93 27.47 255.16 29.87 C 259.09 32.12 262.76 35.04 265.01 39.04 C 268.25 42.52 270.75 46.59 272.59 50.97 C 276.79 50.71 280.81 49.26 284.99 48.86 C 288.63 49.20 292.23 50.06 295.73 51.12 C 297.74 51.90 299.79 50.06 301.80 50.84 C 304.74 51.89 307.57 53.25 310.33 54.71 C 311.41 55.98 311.92 57.62 312.68 59.09 C 317.86 57.27 323.10 54.98 328.72 55.39 C 337.56 57.12 346.40 62.47 350.03 71.00 C 352.16 77.96 352.69 85.47 356.01 92.05 C 357.22 94.16 356.36 96.66 356.42 98.94 C 356.04 102.83 356.53 107.40 353.20 110.16 C 349.46 116.28 343.94 121.45 336.84 123.27 C 333.26 120.77 329.13 119.26 324.86 118.46 C 320.42 118.80 315.05 121.27 311.25 117.83 C 307.96 114.65 303.09 115.79 299.00 115.87 C 294.59 116.43 290.95 112.10 286.53 113.44 C 284.89 115.18 284.83 117.78 284.33 120.00 C 283.82 123.98 281.64 127.42 279.72 130.84 C 277.64 134.50 271.89 134.22 270.43 138.34 C 269.89 143.92 270.45 150.05 266.87 154.81 C 265.72 157.77 262.55 158.65 260.06 160.14 C 253.11 163.96 245.07 166.62 237.07 165.22 C 230.98 163.88 226.16 159.74 220.60 157.22 C 203.42 147.26 193.45 128.39 189.35 109.50 C 184.46 107.24 179.05 108.53 174.01 109.37 C 169.88 108.46 165.40 108.64 161.66 106.43 C 157.72 105.29 153.79 107.33 149.90 107.82 C 144.79 108.44 139.92 110.18 134.97 111.45 C 131.76 112.24 127.30 109.84 124.99 112.92 C 123.19 117.91 123.21 123.39 121.32 128.38 C 120.01 133.02 115.79 136.29 115.03 141.13 C 114.55 140.69 113.60 139.80 113.12 139.35 C 108.02 143.77 104.60 150.39 98.07 153.03 C 93.30 154.80 88.73 157.56 83.51 157.69 C 79.41 157.90 75.25 158.29 71.17 157.67 C 66.63 156.43 62.24 154.68 57.75 153.27 C 51.92 151.33 47.20 147.28 42.49 143.48 C 38.58 140.25 35.87 135.93 33.24 131.67 C 32.20 129.30 28.82 129.87 27.14 131.19 C 22.99 133.56 22.95 140.52 26.93 143.06 C 33.39 147.68 38.65 154.80 39.08 162.96 C 38.55 165.14 37.41 167.16 35.89 168.81 C 30.75 172.27 23.60 170.85 19.04 166.98 C 16.76 165.12 14.03 163.97 11.63 162.30 C 5.95 157.56 1.14 150.70 1.58 142.99 C 1.22 139.02 3.05 135.36 3.53 131.50 C 4.48 122.77 10.89 115.61 18.15 111.22 C 22.09 109.04 25.90 106.54 30.22 105.17 C 39.88 102.03 48.87 97.04 57.12 91.18 C 61.82 89.40 66.91 88.14 71.98 88.43 C 77.54 88.52 82.74 90.97 88.33 90.88 C 88.32 88.59 88.79 86.23 87.96 84.02 C 86.10 78.40 85.47 72.40 83.01 66.98 C 81.15 62.77 78.99 58.70 76.76 54.68 C 73.54 62.15 70.56 69.98 65.06 76.12 C 60.00 78.88 54.19 78.98 48.73 77.55 C 47.28 73.31 43.54 70.20 42.49 65.81 C 42.29 56.73 45.41 47.93 50.29 40.36 C 52.76 37.06 55.84 34.15 59.68 32.53 C 64.00 30.56 65.04 25.48 66.50 21.44 C 68.51 15.12 73.93 10.06 80.26 8.22 C 84.84 7.83 89.73 10.21 91.58 14.56 C 93.40 17.29 93.50 20.61 93.72 23.77 C 95.81 24.22 98.05 25.08 100.14 24.15 C 109.13 21.45 117.00 14.69 126.80 15.40 C 130.22 18.32 133.16 22.23 132.92 26.98 C 132.45 33.36 127.29 37.79 123.03 41.99 C 120.65 44.80 116.00 42.83 113.82 45.89 C 113.21 48.06 113.26 50.33 113.19 52.56 C 115.57 51.87 117.76 50.66 120.14 49.96 C 126.50 49.04 133.20 49.62 139.24 47.10 C 144.14 46.04 148.93 44.00 154.05 44.52 C 157.77 44.98 161.33 42.48 164.98 43.84 C 169.94 44.86 173.65 49.00 175.56 53.51 C 180.50 62.95 183.69 73.13 187.87 82.89 C 189.69 82.51 192.32 83.27 193.32 81.26 C 195.02 78.31 195.46 74.86 196.72 71.73 C 197.52 69.29 198.65 66.86 198.68 64.25 C 195.37 58.19 190.11 53.24 184.07 49.93 C 175.00 43.30 176.03 28.26 185.10 22.09 C 188.50 19.05 193.28 19.79 197.47 19.50 C 203.02 19.28 208.15 21.63 213.45 22.86 C 216.34 17.34 216.62 10.60 220.85 5.78 M 221.59 9.50 C 218.31 14.31 220.37 20.43 218.66 25.68 C 217.30 26.56 215.64 26.53 214.12 26.16 C 206.97 24.40 199.77 21.59 192.28 22.56 C 181.33 24.07 177.12 41.37 186.70 47.24 C 191.17 50.38 194.87 54.44 198.89 58.12 C 201.28 60.42 203.75 63.49 203.37 67.01 C 201.78 71.38 198.26 75.06 197.85 79.85 C 197.67 81.06 198.67 81.96 199.20 82.93 C 199.07 83.27 198.79 83.93 198.65 84.26 C 196.41 86.52 196.13 89.89 195.41 92.82 C 194.27 97.89 195.12 103.07 195.57 108.16 C 196.53 117.12 201.15 125.03 204.80 133.08 C 205.70 135.26 207.28 137.03 209.42 138.05 C 211.83 141.70 214.76 145.03 218.22 147.73 C 224.07 152.68 230.70 157.06 238.36 158.52 C 245.25 160.36 252.61 157.43 257.41 152.40 C 260.59 148.95 263.53 144.48 262.30 139.56 C 260.10 138.80 259.46 140.22 259.50 142.13 C 254.72 143.33 252.01 147.57 248.51 150.61 C 245.33 152.26 241.62 152.70 238.47 154.50 C 238.79 155.26 239.43 156.78 239.75 157.54 C 234.48 156.20 229.10 154.69 224.52 151.67 C 225.10 150.38 225.68 149.10 226.26 147.82 C 222.66 142.15 217.98 137.28 214.40 131.60 C 213.17 129.59 211.77 127.21 212.53 124.77 C 213.19 123.64 214.38 122.96 215.35 122.13 C 215.92 122.77 216.50 123.42 217.08 124.07 C 217.73 123.73 218.38 123.41 219.05 123.10 C 223.63 126.58 227.89 131.02 233.82 132.05 C 237.98 133.38 242.36 132.07 246.01 129.97 C 248.42 128.36 247.58 125.09 247.63 122.66 C 246.82 123.28 246.05 123.95 245.34 124.67 C 244.65 123.40 243.98 122.13 243.30 120.86 C 246.23 120.01 249.23 118.12 252.35 118.84 C 257.74 121.47 260.12 127.66 265.18 130.73 C 267.36 131.79 269.87 131.70 272.22 132.01 L 272.47 131.09 C 274.40 130.36 276.93 130.14 277.97 128.07 C 280.59 123.53 280.60 118.11 282.09 113.19 C 282.80 110.52 284.93 108.63 286.72 106.65 C 289.49 108.46 292.21 110.42 295.29 111.70 C 298.06 112.89 301.09 112.00 303.97 111.94 C 308.83 111.54 313.29 114.28 318.14 114.06 C 320.74 114.00 323.35 113.37 325.95 113.79 C 328.42 114.45 330.80 115.46 333.32 115.98 C 334.33 117.20 335.62 118.14 336.84 119.15 C 345.25 117.06 350.85 109.46 353.29 101.54 C 354.53 96.51 352.50 91.55 351.04 86.82 C 348.95 79.90 347.98 72.32 343.58 66.37 C 338.25 60.63 329.90 58.47 322.28 59.19 C 318.74 60.05 315.91 62.57 312.87 64.45 C 310.68 61.62 308.97 58.17 305.81 56.28 C 301.53 54.30 296.74 53.96 292.17 53.02 C 287.43 52.31 282.10 51.15 277.78 53.90 C 276.09 54.56 273.78 56.79 272.17 54.83 C 267.55 50.12 265.72 43.48 261.44 38.51 C 257.72 34.32 251.66 33.27 247.99 29.02 C 245.70 26.29 243.73 23.32 241.45 20.59 C 238.37 17.06 237.62 12.27 235.22 8.34 L 234.93 7.09 C 231.37 2.09 224.26 5.20 221.59 9.50 M 72.59 16.55 C 69.09 20.63 69.39 26.39 67.05 31.01 C 64.33 34.17 60.09 35.36 56.90 37.94 C 52.57 41.18 50.28 46.25 48.14 51.06 C 45.96 55.95 44.97 61.49 45.99 66.80 C 47.10 71.12 50.88 74.76 55.30 75.52 C 59.77 75.87 63.95 72.99 66.33 69.37 C 70.59 63.42 70.16 55.36 74.98 49.69 C 77.24 51.18 79.66 52.68 81.00 55.14 C 86.23 64.16 89.11 74.25 91.63 84.30 C 90.62 85.86 89.67 87.46 88.75 89.08 C 89.45 89.48 90.85 90.27 91.55 90.67 C 91.99 92.51 93.40 94.61 91.98 96.37 C 87.42 96.50 83.27 94.30 78.94 93.21 C 69.31 90.92 58.56 92.53 50.65 98.71 C 41.86 105.80 30.24 107.70 21.07 114.15 C 17.65 116.41 14.13 118.83 12.10 122.51 C 11.78 122.78 11.14 123.30 10.82 123.56 C 10.34 123.89 9.96 124.31 9.66 124.82 C 7.36 128.04 5.14 131.66 5.30 135.79 C 4.55 140.51 8.70 144.27 7.92 149.05 C 8.12 149.31 8.51 149.81 8.70 150.07 C 9.78 153.87 11.96 157.54 15.68 159.24 C 16.72 160.85 18.47 161.85 20.42 161.69 C 24.17 163.95 28.60 166.21 33.02 164.37 C 33.26 161.76 33.88 159.09 33.32 156.48 C 30.55 149.05 21.38 146.08 19.55 138.12 C 17.36 130.46 26.60 122.48 33.75 126.04 C 37.45 129.30 38.71 134.41 41.94 138.07 C 47.43 144.49 54.69 149.40 62.66 152.19 C 71.60 155.09 81.35 155.09 90.48 153.04 C 97.55 151.14 102.46 145.37 107.31 140.29 C 111.13 136.13 115.44 132.30 118.33 127.39 C 120.84 122.31 119.81 116.44 120.91 111.03 C 121.32 108.73 123.21 107.18 124.68 105.52 C 127.93 106.63 131.32 107.84 134.82 107.43 C 141.42 106.66 147.91 105.11 154.25 103.12 C 157.28 102.10 160.56 102.07 163.65 102.84 C 170.69 104.55 178.29 105.59 185.36 103.53 C 188.88 102.59 190.25 99.02 191.58 96.02 C 190.55 95.14 189.52 94.26 188.50 93.39 L 188.91 92.77 C 188.24 92.27 187.58 91.76 186.92 91.25 C 186.33 86.42 183.16 82.52 181.87 77.91 C 179.55 69.36 175.03 61.63 171.22 53.69 C 169.78 50.14 166.15 48.29 162.44 48.36 C 157.61 48.21 152.77 48.35 147.94 48.42 C 143.56 48.34 140.37 52.20 136.06 52.38 C 131.41 52.65 126.74 51.96 122.10 52.52 C 118.76 53.01 116.02 55.20 112.87 56.26 C 111.43 56.84 109.58 56.72 108.78 55.21 C 106.83 52.43 105.43 48.54 107.04 45.30 C 111.30 42.40 116.71 41.82 120.95 38.85 C 124.39 36.42 127.49 33.20 129.06 29.24 C 130.41 25.76 128.50 22.27 127.16 19.12 L 126.98 19.97 C 124.25 19.67 121.44 19.21 118.72 19.87 C 112.22 21.46 107.20 26.61 100.55 27.80 C 96.81 28.83 92.53 28.07 89.67 25.36 C 88.90 21.44 89.94 16.47 86.36 13.66 C 81.96 10.84 75.66 12.44 72.59 16.55 Z" />
    <path fill="#52122f" opacity="1.00"
      d=" M 211.97 82.00 C 215.54 79.17 220.42 79.67 224.69 79.11 C 223.23 84.05 220.99 88.80 220.39 93.96 C 217.74 95.16 215.21 96.89 212.28 97.26 C 207.48 93.92 207.27 85.61 211.97 82.00 Z" />
    <path fill="#52122f" opacity="1.00"
      d=" M 221.61 116.23 C 223.34 114.27 225.94 112.40 228.65 112.66 C 233.79 114.64 237.95 118.46 242.15 121.91 C 239.52 123.04 236.84 124.51 233.88 124.29 C 230.73 124.11 227.62 123.50 224.49 123.17 C 223.43 120.93 221.61 118.80 221.61 116.23 Z" />
    <path fill="#52122f" opacity="1.00"
      d=" M 54.75 120.97 C 57.53 119.35 60.41 117.02 63.84 117.54 C 68.79 118.40 73.06 121.26 77.45 123.55 C 82.21 126.18 87.67 126.95 92.71 128.87 C 89.94 131.04 86.69 132.98 83.00 132.41 C 72.75 131.69 62.53 127.77 54.75 120.97 Z" />
  </g>
  <g id="#ae2b65ff">
    <path fill="#ae2b65" opacity="1.00"
      d=" M 221.59 9.50 C 224.26 5.20 231.37 2.09 234.93 7.09 C 230.62 7.42 225.54 9.04 223.55 13.12 C 222.90 19.96 228.95 25.20 229.62 31.81 C 229.63 34.84 229.29 37.86 229.16 40.88 C 227.32 38.21 225.11 35.81 222.61 33.75 C 220.40 36.43 218.17 39.10 215.99 41.81 C 219.66 46.87 222.75 52.34 225.44 57.98 C 221.74 55.48 218.13 52.80 214.06 50.93 C 208.48 48.23 202.04 46.96 197.43 42.56 C 194.38 39.98 192.19 36.58 190.65 32.93 C 197.68 35.88 204.13 41.00 212.00 41.34 C 216.14 40.47 217.81 35.87 220.29 32.89 C 217.66 32.76 215.02 32.78 212.43 32.39 C 205.22 31.11 199.47 25.61 192.14 24.78 C 189.80 25.69 188.40 28.01 186.99 29.97 C 183.98 34.54 185.76 40.44 188.18 44.86 C 192.30 51.61 199.70 55.41 206.82 58.25 C 211.53 59.99 215.82 62.71 219.34 66.30 C 213.40 67.01 207.14 68.50 203.25 73.45 C 206.96 71.43 210.49 68.42 214.92 68.35 C 217.25 68.20 219.37 69.31 221.50 70.10 C 215.98 72.79 209.60 72.82 204.12 75.63 C 201.11 76.78 200.69 80.46 199.20 82.93 C 198.67 81.96 197.67 81.06 197.85 79.85 C 198.26 75.06 201.78 71.38 203.37 67.01 C 203.75 63.49 201.28 60.42 198.89 58.12 C 194.87 54.44 191.17 50.38 186.70 47.24 C 177.12 41.37 181.33 24.07 192.28 22.56 C 199.77 21.59 206.97 24.40 214.12 26.16 C 215.64 26.53 217.30 26.56 218.66 25.68 C 220.37 20.43 218.31 14.31 221.59 9.50 Z" />
    <path fill="#ae2b65" opacity="1.00"
      d=" M 235.22 8.34 C 237.62 12.27 238.37 17.06 241.45 20.59 C 243.73 23.32 245.70 26.29 247.99 29.02 C 251.66 33.27 257.72 34.32 261.44 38.51 C 265.72 43.48 267.55 50.12 272.17 54.83 C 273.78 56.79 276.09 54.56 277.78 53.90 C 282.10 51.15 287.43 52.31 292.17 53.02 C 296.74 53.96 301.53 54.30 305.81 56.28 C 308.97 58.17 310.68 61.62 312.87 64.45 C 315.91 62.57 318.74 60.05 322.28 59.19 C 329.90 58.47 338.25 60.63 343.58 66.37 C 347.98 72.32 348.95 79.90 351.04 86.82 C 352.50 91.55 354.53 96.51 353.29 101.54 C 350.85 109.46 345.25 117.06 336.84 119.15 C 339.72 114.68 342.99 110.49 346.44 106.46 C 349.19 103.34 350.92 99.25 350.54 95.04 C 349.85 88.51 347.26 82.40 345.78 76.05 C 344.85 72.80 344.19 68.87 340.90 67.14 C 335.50 63.92 329.70 61.26 323.53 59.95 C 322.50 62.12 321.73 64.44 320.32 66.40 C 318.63 68.01 316.21 68.43 314.12 69.27 C 316.59 77.04 318.83 84.88 321.41 92.61 C 323.54 98.14 323.80 104.08 323.14 109.91 C 324.47 109.22 325.80 108.51 327.14 107.82 C 329.21 110.53 331.18 113.32 333.32 115.98 C 330.80 115.46 328.42 114.45 325.95 113.79 C 323.35 113.37 320.74 114.00 318.14 114.06 C 313.29 114.28 308.83 111.54 303.97 111.94 C 301.09 112.00 298.06 112.89 295.29 111.70 C 292.21 110.42 289.49 108.46 286.72 106.65 C 284.93 108.63 282.80 110.52 282.09 113.19 C 280.60 118.11 280.59 123.53 277.97 128.07 C 276.93 130.14 274.40 130.36 272.47 131.09 C 273.58 127.62 273.50 123.93 274.44 120.43 C 276.94 112.09 281.83 104.23 289.41 99.65 C 292.14 104.10 295.65 108.02 299.67 111.34 C 301.29 108.22 302.92 105.09 304.66 102.02 C 307.79 106.11 311.32 109.86 314.97 113.49 C 316.63 111.06 318.51 108.73 319.71 106.01 C 316.76 101.64 312.86 97.76 311.40 92.53 C 309.23 84.51 306.63 76.61 304.31 68.63 C 303.23 65.61 304.48 62.54 305.24 59.61 C 297.04 60.27 289.07 57.67 281.76 54.19 C 281.28 56.19 280.83 58.20 280.38 60.21 C 278.58 60.99 276.79 61.77 274.99 62.56 C 278.05 71.49 281.61 80.23 284.78 89.12 C 286.17 93.10 286.51 97.33 286.30 101.52 C 283.53 98.93 280.87 96.04 279.77 92.33 C 274.44 75.41 267.32 59.12 259.92 43.02 C 256.99 38.00 250.78 36.29 246.97 32.03 C 242.77 27.90 240.30 22.31 235.65 18.57 C 235.24 22.81 234.14 27.02 231.51 30.46 C 229.75 26.69 226.77 22.83 227.44 18.45 C 228.89 14.82 233.39 14.38 236.70 13.52 C 236.16 11.81 235.63 10.09 235.22 8.34 Z" />
    <path fill="#ae2b65" opacity="1.00"
      d=" M 72.59 16.55 C 75.66 12.44 81.96 10.84 86.36 13.66 C 89.94 16.47 88.90 21.44 89.67 25.36 C 92.53 28.07 96.81 28.83 100.55 27.80 C 107.20 26.61 112.22 21.46 118.72 19.87 C 121.44 19.21 124.25 19.67 126.98 19.97 C 120.76 24.73 113.05 26.70 105.62 28.69 C 96.62 30.71 87.39 31.36 78.28 32.72 C 78.57 27.81 79.50 22.53 83.85 19.52 C 82.75 17.27 81.62 15.03 80.51 12.77 C 77.91 15.50 74.62 18.16 73.98 22.10 C 73.76 25.86 75.25 29.42 76.18 33.00 C 70.10 34.59 63.59 35.73 58.33 39.35 C 54.54 43.72 53.47 49.69 50.67 54.66 C 48.96 58.35 45.73 62.65 48.15 66.76 C 50.53 70.75 55.73 71.10 59.87 71.69 C 61.94 65.77 64.47 60.03 67.15 54.36 C 63.30 54.73 59.38 54.45 56.02 52.33 C 63.31 47.50 71.78 45.11 80.27 43.42 C 82.43 47.96 84.23 52.65 85.90 57.39 C 88.60 64.45 91.64 71.43 93.51 78.77 C 94.12 80.84 92.58 82.62 91.63 84.30 C 89.11 74.25 86.23 64.16 81.00 55.14 C 79.66 52.68 77.24 51.18 74.98 49.69 C 70.16 55.36 70.59 63.42 66.33 69.37 C 63.95 72.99 59.77 75.87 55.30 75.52 C 50.88 74.76 47.10 71.12 45.99 66.80 C 44.97 61.49 45.96 55.95 48.14 51.06 C 50.28 46.25 52.57 41.18 56.90 37.94 C 60.09 35.36 64.33 34.17 67.05 31.01 C 69.39 26.39 69.09 20.63 72.59 16.55 Z" />
    <path fill="#ae2b65" opacity="1.00"
      d=" M 127.16 19.12 C 128.50 22.27 130.41 25.76 129.06 29.24 C 127.49 33.20 124.39 36.42 120.95 38.85 C 116.71 41.82 111.30 42.40 107.04 45.30 C 105.43 48.54 106.83 52.43 108.78 55.21 C 109.58 56.72 111.43 56.84 112.87 56.26 C 116.02 55.20 118.76 53.01 122.10 52.52 C 126.74 51.96 131.41 52.65 136.06 52.38 C 140.37 52.20 143.56 48.34 147.94 48.42 C 152.77 48.35 157.61 48.21 162.44 48.36 C 166.15 48.29 169.78 50.14 171.22 53.69 C 175.03 61.63 179.55 69.36 181.87 77.91 C 183.16 82.52 186.33 86.42 186.92 91.25 C 183.92 89.12 181.79 86.04 180.28 82.72 C 176.76 75.05 174.19 66.98 170.69 59.30 C 168.90 55.16 165.46 52.15 162.06 49.35 C 160.28 52.15 158.52 54.95 156.84 57.80 C 154.47 55.38 151.90 53.18 149.14 51.23 C 147.43 53.73 145.73 56.23 144.07 58.75 C 149.69 63.66 151.46 71.13 154.35 77.68 C 156.92 83.26 158.11 89.33 157.78 95.47 C 163.07 94.49 165.45 100.08 169.11 102.72 C 171.09 99.57 172.99 96.37 174.79 93.11 C 177.40 96.27 180.18 99.28 183.28 101.96 C 184.96 99.07 186.60 96.15 188.50 93.39 C 189.52 94.26 190.55 95.14 191.58 96.02 C 190.25 99.02 188.88 102.59 185.36 103.53 C 178.29 105.59 170.69 104.55 163.65 102.84 C 160.56 102.07 157.28 102.10 154.25 103.12 C 147.91 105.11 141.42 106.66 134.82 107.43 C 131.32 107.84 127.93 106.63 124.68 105.52 C 123.21 107.18 121.32 108.73 120.91 111.03 C 119.81 116.44 120.84 122.31 118.33 127.39 C 115.44 132.30 111.13 136.13 107.31 140.29 C 102.46 145.37 97.55 151.14 90.48 153.04 C 81.35 155.09 71.60 155.09 62.66 152.19 C 54.69 149.40 47.43 144.49 41.94 138.07 C 38.71 134.41 37.45 129.30 33.75 126.04 C 26.60 122.48 17.36 130.46 19.55 138.12 C 21.38 146.08 30.55 149.05 33.32 156.48 C 33.88 159.09 33.26 161.76 33.02 164.37 C 29.28 161.92 24.74 161.78 20.42 161.69 C 18.47 161.85 16.72 160.85 15.68 159.24 C 13.42 156.14 11.06 153.10 8.70 150.07 C 8.51 149.81 8.12 149.31 7.92 149.05 C 8.62 148.10 9.33 147.16 10.03 146.22 C 14.35 148.50 18.74 150.63 23.03 152.95 C 25.43 154.47 28.29 153.41 30.83 152.94 C 28.29 151.71 25.60 150.77 22.78 150.50 C 17.61 149.95 13.11 147.07 8.97 144.13 C 10.04 140.98 10.93 137.71 12.83 134.93 C 16.27 129.36 22.19 126.16 27.02 121.99 C 22.95 124.47 18.87 127.08 15.55 130.55 C 12.16 133.99 10.59 138.81 6.91 142.01 C 6.45 138.74 5.79 135.37 6.51 132.09 C 7.23 129.54 8.49 127.18 9.66 124.82 C 9.96 124.31 10.34 123.89 10.82 123.56 C 15.15 120.94 19.35 118.09 23.75 115.58 C 29.62 112.20 36.45 111.15 43.11 110.68 C 42.18 112.57 41.37 114.55 40.16 116.29 C 37.68 118.04 34.63 118.67 31.88 119.89 C 34.05 119.52 36.20 119.07 38.35 118.61 C 38.37 128.21 44.69 136.65 52.88 141.15 C 61.14 146.89 71.21 148.91 80.99 150.25 C 84.42 150.44 88.06 151.11 91.39 150.05 C 96.96 146.32 100.79 140.45 103.60 134.47 C 105.28 130.57 106.93 126.34 106.26 122.01 C 104.82 113.43 101.71 105.21 100.46 96.59 C 100.07 94.21 102.22 92.52 103.38 90.69 C 108.50 105.58 111.36 121.66 108.43 137.33 C 110.67 132.87 112.74 128.33 114.94 123.86 C 116.34 121.04 117.55 118.04 117.69 114.86 C 118.13 106.66 117.48 98.41 115.67 90.40 C 111.30 73.26 103.53 57.29 95.94 41.39 C 103.89 40.19 111.95 38.76 119.27 35.29 C 125.22 32.78 125.38 25.35 126.98 19.97 L 127.16 19.12 M 119.96 56.60 C 119.81 58.62 119.69 60.64 119.56 62.66 C 117.77 64.57 113.85 66.26 115.55 69.40 C 118.04 76.02 120.20 82.76 122.56 89.43 C 124.07 93.85 123.30 98.57 123.20 103.14 C 124.15 101.75 125.07 100.35 126.00 98.95 C 128.73 102.05 131.88 104.80 135.57 106.72 C 137.08 103.02 138.82 99.43 140.78 95.95 C 143.61 98.94 146.73 101.64 150.11 104.00 C 151.71 101.09 153.27 98.17 154.74 95.20 C 151.38 92.16 148.30 88.63 146.83 84.26 C 144.41 77.10 141.81 70.00 139.09 62.94 C 137.99 60.47 138.86 57.78 139.23 55.26 C 133.23 58.28 126.36 57.69 119.96 56.60 Z" />
    <path fill="#ae2b65" opacity="1.00"
      d=" M 236.49 40.12 C 238.05 38.11 239.90 36.35 241.74 34.60 C 241.73 36.10 241.72 37.59 241.70 39.09 C 244.59 41.30 247.22 43.91 248.78 47.25 C 256.04 60.73 262.02 74.94 266.24 89.67 C 267.00 92.36 266.79 95.18 266.44 97.92 C 269.34 101.40 271.90 105.15 274.04 109.15 C 269.83 106.38 265.76 103.34 262.02 99.98 C 259.45 96.32 258.14 91.97 256.32 87.93 C 257.90 84.74 260.21 81.77 260.84 78.20 C 258.27 74.19 252.99 73.47 249.64 70.35 C 247.29 67.01 246.37 62.95 244.65 59.29 C 241.94 52.91 237.98 46.94 236.49 40.12 Z" />
    <path fill="#ae2b65" opacity="1.00"
      d=" M 82.23 43.58 C 84.46 43.13 86.69 42.67 88.93 42.28 C 88.53 45.79 87.40 49.53 89.07 52.90 C 92.70 61.38 95.81 70.06 99.07 78.68 C 99.52 80.13 99.69 81.64 99.95 83.13 C 97.89 81.82 95.20 80.79 94.70 78.10 C 90.90 66.47 86.27 55.13 82.23 43.58 Z" />
    <path fill="#ae2b65" opacity="1.00"
      d=" M 233.51 51.71 C 232.86 48.60 233.81 45.47 234.89 42.58 C 237.94 47.05 239.84 52.16 242.06 57.07 C 243.98 61.71 246.27 66.24 247.71 71.06 C 247.15 74.33 243.91 76.71 243.63 79.93 C 247.41 82.63 252.17 84.17 255.05 87.99 C 256.68 90.90 257.46 94.19 258.51 97.34 C 254.01 95.07 250.21 91.72 246.02 88.98 C 242.45 86.57 238.59 84.62 235.03 82.21 C 238.06 79.17 242.47 75.99 241.64 71.08 C 240.37 64.11 235.64 58.39 233.51 51.71 Z" />
    <path fill="#ae2b65" opacity="1.00"
      d=" M 157.20 58.68 C 158.98 59.43 160.82 60.36 161.67 62.21 C 164.67 67.83 166.75 73.87 169.08 79.79 C 170.82 83.99 172.82 88.12 173.94 92.55 C 168.76 89.23 166.16 83.45 164.23 77.85 C 162.07 71.39 159.08 65.24 157.20 58.68 Z" />
    <path fill="#ae2b65" opacity="1.00"
      d=" M 226.27 59.63 C 229.22 66.08 231.09 72.95 232.88 79.78 C 230.15 79.53 227.43 79.19 224.69 79.11 C 220.42 79.67 215.54 79.17 211.97 82.00 C 207.27 85.61 207.48 93.92 212.28 97.26 C 215.21 96.89 217.74 95.16 220.39 93.96 C 220.17 95.67 220.01 97.39 219.85 99.10 C 221.17 96.83 222.47 94.55 223.82 92.30 C 228.31 93.55 232.83 94.90 236.88 97.27 C 247.00 103.06 256.61 109.87 264.80 118.21 C 268.51 122.06 269.61 127.48 272.22 132.01 C 269.87 131.70 267.36 131.79 265.18 130.73 C 260.12 127.66 257.74 121.47 252.35 118.84 C 249.23 118.12 246.23 120.01 243.30 120.86 C 243.98 122.13 244.65 123.40 245.34 124.67 C 244.23 126.52 243.43 128.54 242.17 130.29 C 239.72 131.57 236.80 131.61 234.11 131.44 C 228.66 129.87 224.34 126.03 219.86 122.76 C 219.65 122.84 219.25 123.02 219.05 123.10 C 218.38 123.41 217.73 123.73 217.08 124.07 C 216.50 123.42 215.92 122.77 215.35 122.13 C 214.38 122.96 213.19 123.64 212.53 124.77 C 211.77 127.21 213.17 129.59 214.40 131.60 C 217.98 137.28 222.66 142.15 226.26 147.82 C 225.68 149.10 225.10 150.38 224.52 151.67 C 218.00 147.59 213.24 141.50 208.22 135.81 C 208.52 136.37 209.12 137.49 209.42 138.05 C 207.28 137.03 205.70 135.26 204.80 133.08 C 201.15 125.03 196.53 117.12 195.57 108.16 C 195.12 103.07 194.27 97.89 195.41 92.82 C 196.13 89.89 196.41 86.52 198.65 84.26 C 201.72 81.37 203.85 77.39 207.77 75.49 C 211.54 73.42 215.91 73.24 220.11 73.14 C 220.49 74.48 220.87 75.82 221.26 77.16 C 224.31 71.77 225.05 65.59 226.27 59.63 M 218.52 111.57 C 221.38 108.81 223.82 103.31 228.64 104.63 C 234.71 106.54 239.04 111.57 243.93 115.39 C 245.31 112.32 246.71 109.26 248.00 106.15 C 241.03 101.55 233.82 95.39 224.86 96.47 C 221.90 101.08 218.99 105.98 218.52 111.57 M 221.61 116.23 C 221.61 118.80 223.43 120.93 224.49 123.17 C 227.62 123.50 230.73 124.11 233.88 124.29 C 236.84 124.51 239.52 123.04 242.15 121.91 C 237.95 118.46 233.79 114.64 228.65 112.66 C 225.94 112.40 223.34 114.27 221.61 116.23 Z" />
    <path fill="#ae2b65" opacity="1.00"
      d=" M 125.33 67.31 C 127.03 67.40 128.72 67.49 130.42 67.58 C 133.16 74.60 135.68 81.71 138.00 88.89 C 138.74 91.27 138.79 93.78 138.90 96.25 C 130.75 88.69 129.45 77.09 125.33 67.31 Z" />
    <path fill="#ae2b65" opacity="1.00"
      d=" M 287.28 66.92 C 289.77 68.11 293.33 68.68 293.94 71.89 C 296.99 81.31 301.55 90.43 302.37 100.41 C 298.38 96.48 295.78 91.42 294.00 86.17 C 291.81 79.73 289.44 73.36 287.28 66.92 Z" />
    <path fill="#ae2b65" opacity="1.00"
      d=" M 327.33 72.81 C 329.39 73.59 331.44 74.40 333.48 75.25 C 335.16 83.89 337.76 92.31 340.05 100.80 C 340.75 103.33 340.76 105.98 340.77 108.58 C 336.28 105.10 334.55 99.47 333.12 94.22 C 331.20 87.08 328.82 80.06 327.33 72.81 Z" />
    <path fill="#ae2b65" opacity="1.00"
      d=" M 91.55 90.67 C 94.29 92.38 98.27 93.48 99.01 97.09 C 100.53 103.24 101.63 109.49 103.42 115.57 C 105.20 121.87 104.92 130.01 99.36 134.36 C 94.36 137.51 87.91 136.96 82.43 135.54 C 73.50 132.77 64.25 130.56 56.02 125.99 C 52.17 123.93 49.31 120.53 47.12 116.81 C 51.85 116.27 56.61 116.05 61.33 115.38 C 56.37 115.18 51.41 115.51 46.45 115.22 C 47.22 113.76 47.51 111.62 49.35 111.10 C 51.78 110.37 54.38 110.69 56.87 110.91 C 64.52 112.00 72.18 113.65 79.26 116.83 C 83.03 118.45 85.50 121.86 88.53 124.47 C 91.32 117.19 89.12 108.99 92.78 101.99 C 87.69 99.19 82.30 96.80 76.54 95.81 C 67.64 94.30 57.70 94.63 50.18 100.22 C 46.82 102.15 45.45 105.88 44.21 109.32 C 39.71 110.14 35.12 110.62 30.78 112.11 C 23.91 114.27 17.84 118.28 12.10 122.51 C 14.13 118.83 17.65 116.41 21.07 114.15 C 30.24 107.70 41.86 105.80 50.65 98.71 C 58.56 92.53 69.31 90.92 78.94 93.21 C 83.27 94.30 87.42 96.50 91.98 96.37 C 93.40 94.61 91.99 92.51 91.55 90.67 M 54.75 120.97 C 62.53 127.77 72.75 131.69 83.00 132.41 C 86.69 132.98 89.94 131.04 92.71 128.87 C 87.67 126.95 82.21 126.18 77.45 123.55 C 73.06 121.26 68.79 118.40 63.84 117.54 C 60.41 117.02 57.53 119.35 54.75 120.97 M 72.30 116.99 C 72.47 120.33 75.27 115.44 72.30 116.99 Z" />
    <path fill="#ae2b65" opacity="1.00"
      d=" M 55.49 109.27 C 63.10 107.17 71.48 109.31 77.57 114.21 C 70.27 112.27 62.77 111.24 55.49 109.27 Z" />
    <path fill="#ae2b65" opacity="1.00"
      d=" M 248.51 150.61 C 252.01 147.57 254.72 143.33 259.50 142.13 C 259.03 145.13 259.16 148.55 256.94 150.93 C 253.03 156.20 246.00 157.87 239.75 157.54 C 239.43 156.78 238.79 155.26 238.47 154.50 C 241.62 152.70 245.33 152.26 248.51 150.61 Z" />
  </g>
  <g id="#fce8f3ff">
    <path fill="#fce8f3" opacity="1.00"
      d=" M 223.55 13.12 C 225.54 9.04 230.62 7.42 234.93 7.09 L 235.22 8.34 C 235.63 10.09 236.16 11.81 236.70 13.52 C 233.39 14.38 228.89 14.82 227.44 18.45 C 226.77 22.83 229.75 26.69 231.51 30.46 C 234.14 27.02 235.24 22.81 235.65 18.57 C 240.30 22.31 242.77 27.90 246.97 32.03 C 250.78 36.29 256.99 38.00 259.92 43.02 C 267.32 59.12 274.44 75.41 279.77 92.33 C 280.87 96.04 283.53 98.93 286.30 101.52 C 286.51 97.33 286.17 93.10 284.78 89.12 C 281.61 80.23 278.05 71.49 274.99 62.56 C 276.79 61.77 278.58 60.99 280.38 60.21 C 280.83 58.20 281.28 56.19 281.76 54.19 C 289.07 57.67 297.04 60.27 305.24 59.61 C 304.48 62.54 303.23 65.61 304.31 68.63 C 306.63 76.61 309.23 84.51 311.40 92.53 C 312.86 97.76 316.76 101.64 319.71 106.01 C 318.51 108.73 316.63 111.06 314.97 113.49 C 311.32 109.86 307.79 106.11 304.66 102.02 C 302.92 105.09 301.29 108.22 299.67 111.34 C 295.65 108.02 292.14 104.10 289.41 99.65 C 281.83 104.23 276.94 112.09 274.44 120.43 C 273.50 123.93 273.58 127.62 272.47 131.09 L 272.22 132.01 C 269.61 127.48 268.51 122.06 264.80 118.21 C 256.61 109.87 247.00 103.06 236.88 97.27 C 232.83 94.90 228.31 93.55 223.82 92.30 C 222.47 94.55 221.17 96.83 219.85 99.10 C 220.01 97.39 220.17 95.67 220.39 93.96 C 220.99 88.80 223.23 84.05 224.69 79.11 C 227.43 79.19 230.15 79.53 232.88 79.78 C 231.09 72.95 229.22 66.08 226.27 59.63 C 225.05 65.59 224.31 71.77 221.26 77.16 C 220.87 75.82 220.49 74.48 220.11 73.14 C 215.91 73.24 211.54 73.42 207.77 75.49 C 203.85 77.39 201.72 81.37 198.65 84.26 C 198.79 83.93 199.07 83.27 199.20 82.93 C 200.69 80.46 201.11 76.78 204.12 75.63 C 209.60 72.82 215.98 72.79 221.50 70.10 C 219.37 69.31 217.25 68.20 214.92 68.35 C 210.49 68.42 206.96 71.43 203.25 73.45 C 207.14 68.50 213.40 67.01 219.34 66.30 C 215.82 62.71 211.53 59.99 206.82 58.25 C 199.70 55.41 192.30 51.61 188.18 44.86 C 185.76 40.44 183.98 34.54 186.99 29.97 C 188.40 28.01 189.80 25.69 192.14 24.78 C 199.47 25.61 205.22 31.11 212.43 32.39 C 215.02 32.78 217.66 32.76 220.29 32.89 C 217.81 35.87 216.14 40.47 212.00 41.34 C 204.13 41.00 197.68 35.88 190.65 32.93 C 192.19 36.58 194.38 39.98 197.43 42.56 C 202.04 46.96 208.48 48.23 214.06 50.93 C 218.13 52.80 221.74 55.48 225.44 57.98 C 222.75 52.34 219.66 46.87 215.99 41.81 C 218.17 39.10 220.40 36.43 222.61 33.75 C 225.11 35.81 227.32 38.21 229.16 40.88 C 229.29 37.86 229.63 34.84 229.62 31.81 C 228.95 25.20 222.90 19.96 223.55 13.12 M 236.49 40.12 C 237.98 46.94 241.94 52.91 244.65 59.29 C 246.37 62.95 247.29 67.01 249.64 70.35 C 252.99 73.47 258.27 74.19 260.84 78.20 C 260.21 81.77 257.90 84.74 256.32 87.93 C 258.14 91.97 259.45 96.32 262.02 99.98 C 265.76 103.34 269.83 106.38 274.04 109.15 C 271.90 105.15 269.34 101.40 266.44 97.92 C 266.79 95.18 267.00 92.36 266.24 89.67 C 262.02 74.94 256.04 60.73 248.78 47.25 C 247.22 43.91 244.59 41.30 241.70 39.09 C 241.72 37.59 241.73 36.10 241.74 34.60 C 239.90 36.35 238.05 38.11 236.49 40.12 M 233.51 51.71 C 235.64 58.39 240.37 64.11 241.64 71.08 C 242.47 75.99 238.06 79.17 235.03 82.21 C 238.59 84.62 242.45 86.57 246.02 88.98 C 250.21 91.72 254.01 95.07 258.51 97.34 C 257.46 94.19 256.68 90.90 255.05 87.99 C 252.17 84.17 247.41 82.63 243.63 79.93 C 243.91 76.71 247.15 74.33 247.71 71.06 C 246.27 66.24 243.98 61.71 242.06 57.07 C 239.84 52.16 237.94 47.05 234.89 42.58 C 233.81 45.47 232.86 48.60 233.51 51.71 M 287.28 66.92 C 289.44 73.36 291.81 79.73 294.00 86.17 C 295.78 91.42 298.38 96.48 302.37 100.41 C 301.55 90.43 296.99 81.31 293.94 71.89 C 293.33 68.68 289.77 68.11 287.28 66.92 Z" />
    <path fill="#fce8f3" opacity="1.00"
      d=" M 73.98 22.10 C 74.62 18.16 77.91 15.50 80.51 12.77 C 81.62 15.03 82.75 17.27 83.85 19.52 C 79.50 22.53 78.57 27.81 78.28 32.72 C 87.39 31.36 96.62 30.71 105.62 28.69 C 113.05 26.70 120.76 24.73 126.98 19.97 C 125.38 25.35 125.22 32.78 119.27 35.29 C 111.95 38.76 103.89 40.19 95.94 41.39 C 103.53 57.29 111.30 73.26 115.67 90.40 C 117.48 98.41 118.13 106.66 117.69 114.86 C 117.55 118.04 116.34 121.04 114.94 123.86 C 112.74 128.33 110.67 132.87 108.43 137.33 C 111.36 121.66 108.50 105.58 103.38 90.69 C 102.22 92.52 100.07 94.21 100.46 96.59 C 101.71 105.21 104.82 113.43 106.26 122.01 C 106.93 126.34 105.28 130.57 103.60 134.47 C 100.79 140.45 96.96 146.32 91.39 150.05 C 88.06 151.11 84.42 150.44 80.99 150.25 C 71.21 148.91 61.14 146.89 52.88 141.15 C 44.69 136.65 38.37 128.21 38.35 118.61 C 36.20 119.07 34.05 119.52 31.88 119.89 C 34.63 118.67 37.68 118.04 40.16 116.29 C 41.37 114.55 42.18 112.57 43.11 110.68 C 36.45 111.15 29.62 112.20 23.75 115.58 C 19.35 118.09 15.15 120.94 10.82 123.56 C 11.14 123.30 11.78 122.78 12.10 122.51 C 17.84 118.28 23.91 114.27 30.78 112.11 C 35.12 110.62 39.71 110.14 44.21 109.32 C 45.45 105.88 46.82 102.15 50.18 100.22 C 57.70 94.63 67.64 94.30 76.54 95.81 C 82.30 96.80 87.69 99.19 92.78 101.99 C 89.12 108.99 91.32 117.19 88.53 124.47 C 85.50 121.86 83.03 118.45 79.26 116.83 C 72.18 113.65 64.52 112.00 56.87 110.91 C 54.38 110.69 51.78 110.37 49.35 111.10 C 47.51 111.62 47.22 113.76 46.45 115.22 C 51.41 115.51 56.37 115.18 61.33 115.38 C 56.61 116.05 51.85 116.27 47.12 116.81 C 49.31 120.53 52.17 123.93 56.02 125.99 C 64.25 130.56 73.50 132.77 82.43 135.54 C 87.91 136.96 94.36 137.51 99.36 134.36 C 104.92 130.01 105.20 121.87 103.42 115.57 C 101.63 109.49 100.53 103.24 99.01 97.09 C 98.27 93.48 94.29 92.38 91.55 90.67 C 90.85 90.27 89.45 89.48 88.75 89.08 C 89.67 87.46 90.62 85.86 91.63 84.30 C 92.58 82.62 94.12 80.84 93.51 78.77 C 91.64 71.43 88.60 64.45 85.90 57.39 C 84.23 52.65 82.43 47.96 80.27 43.42 C 71.78 45.11 63.31 47.50 56.02 52.33 C 59.38 54.45 63.30 54.73 67.15 54.36 C 64.47 60.03 61.94 65.77 59.87 71.69 C 55.73 71.10 50.53 70.75 48.15 66.76 C 45.73 62.65 48.96 58.35 50.67 54.66 C 53.47 49.69 54.54 43.72 58.33 39.35 C 63.59 35.73 70.10 34.59 76.18 33.00 C 75.25 29.42 73.76 25.86 73.98 22.10 M 82.23 43.58 C 86.27 55.13 90.90 66.47 94.70 78.10 C 95.20 80.79 97.89 81.82 99.95 83.13 C 99.69 81.64 99.52 80.13 99.07 78.68 C 95.81 70.06 92.70 61.38 89.07 52.90 C 87.40 49.53 88.53 45.79 88.93 42.28 C 86.69 42.67 84.46 43.13 82.23 43.58 M 55.49 109.27 C 62.77 111.24 70.27 112.27 77.57 114.21 C 71.48 109.31 63.10 107.17 55.49 109.27 Z" />
    <path fill="#fce8f3" opacity="1.00"
      d=" M 156.84 57.80 C 158.52 54.95 160.28 52.15 162.06 49.35 C 165.46 52.15 168.90 55.16 170.69 59.30 C 174.19 66.98 176.76 75.05 180.28 82.72 C 181.79 86.04 183.92 89.12 186.92 91.25 C 187.58 91.76 188.24 92.27 188.91 92.77 L 188.50 93.39 C 186.60 96.15 184.96 99.07 183.28 101.96 C 180.18 99.28 177.40 96.27 174.79 93.11 C 172.99 96.37 171.09 99.57 169.11 102.72 C 165.45 100.08 163.07 94.49 157.78 95.47 C 158.11 89.33 156.92 83.26 154.35 77.68 C 151.46 71.13 149.69 63.66 144.07 58.75 C 145.73 56.23 147.43 53.73 149.14 51.23 C 151.90 53.18 154.47 55.38 156.84 57.80 M 157.20 58.68 C 159.08 65.24 162.07 71.39 164.23 77.85 C 166.16 83.45 168.76 89.23 173.94 92.55 C 172.82 88.12 170.82 83.99 169.08 79.79 C 166.75 73.87 164.67 67.83 161.67 62.21 C 160.82 60.36 158.98 59.43 157.20 58.68 Z" />
    <path fill="#fce8f3" opacity="1.00"
      d=" M 119.96 56.60 C 126.36 57.69 133.23 58.28 139.23 55.26 C 138.86 57.78 137.99 60.47 139.09 62.94 C 141.81 70.00 144.41 77.10 146.83 84.26 C 148.30 88.63 151.38 92.16 154.74 95.20 C 153.27 98.17 151.71 101.09 150.11 104.00 C 146.73 101.64 143.61 98.94 140.78 95.95 C 138.82 99.43 137.08 103.02 135.57 106.72 C 131.88 104.80 128.73 102.05 126.00 98.95 C 125.07 100.35 124.15 101.75 123.20 103.14 C 123.30 98.57 124.07 93.85 122.56 89.43 C 120.20 82.76 118.04 76.02 115.55 69.40 C 113.85 66.26 117.77 64.57 119.56 62.66 C 119.69 60.64 119.81 58.62 119.96 56.60 M 125.33 67.31 C 129.45 77.09 130.75 88.69 138.90 96.25 C 138.79 93.78 138.74 91.27 138.00 88.89 C 135.68 81.71 133.16 74.60 130.42 67.58 C 128.72 67.49 127.03 67.40 125.33 67.31 Z" />
    <path fill="#fce8f3" opacity="1.00"
      d=" M 323.53 59.95 C 329.70 61.26 335.50 63.92 340.90 67.14 C 344.19 68.87 344.85 72.80 345.78 76.05 C 347.26 82.40 349.85 88.51 350.54 95.04 C 350.92 99.25 349.19 103.34 346.44 106.46 C 342.99 110.49 339.72 114.68 336.84 119.15 C 335.62 118.14 334.33 117.20 333.32 115.98 C 331.18 113.32 329.21 110.53 327.14 107.82 C 325.80 108.51 324.47 109.22 323.14 109.91 C 323.80 104.08 323.54 98.14 321.41 92.61 C 318.83 84.88 316.59 77.04 314.12 69.27 C 316.21 68.43 318.63 68.01 320.32 66.40 C 321.73 64.44 322.50 62.12 323.53 59.95 M 327.33 72.81 C 328.82 80.06 331.20 87.08 333.12 94.22 C 334.55 99.47 336.28 105.10 340.77 108.58 C 340.76 105.98 340.75 103.33 340.05 100.80 C 337.76 92.31 335.16 83.89 333.48 75.25 C 331.44 74.40 329.39 73.59 327.33 72.81 Z" />
    <path fill="#fce8f3" opacity="1.00"
      d=" M 218.52 111.57 C 218.99 105.98 221.90 101.08 224.86 96.47 C 233.82 95.39 241.03 101.55 248.00 106.15 C 246.71 109.26 245.31 112.32 243.93 115.39 C 239.04 111.57 234.71 106.54 228.64 104.63 C 223.82 103.31 221.38 108.81 218.52 111.57 Z" />
    <path fill="#fce8f3" opacity="1.00"
      d=" M 72.30 116.99 C 75.27 115.44 72.47 120.33 72.30 116.99 Z" />
    <path fill="#fce8f3" opacity="1.00"
      d=" M 15.55 130.55 C 18.87 127.08 22.95 124.47 27.02 121.99 C 22.19 126.16 16.27 129.36 12.83 134.93 C 10.93 137.71 10.04 140.98 8.97 144.13 C 13.11 147.07 17.61 149.95 22.78 150.50 C 25.60 150.77 28.29 151.71 30.83 152.94 C 28.29 153.41 25.43 154.47 23.03 152.95 C 18.74 150.63 14.35 148.50 10.03 146.22 C 9.33 147.16 8.62 148.10 7.92 149.05 C 8.70 144.27 4.55 140.51 5.30 135.79 C 5.14 131.66 7.36 128.04 9.66 124.82 C 8.49 127.18 7.23 129.54 6.51 132.09 C 5.79 135.37 6.45 138.74 6.91 142.01 C 10.59 138.81 12.16 133.99 15.55 130.55 Z" />
    <path fill="#fce8f3" opacity="1.00"
      d=" M 219.05 123.10 C 219.25 123.02 219.65 122.84 219.86 122.76 C 224.34 126.03 228.66 129.87 234.11 131.44 C 236.80 131.61 239.72 131.57 242.17 130.29 C 243.43 128.54 244.23 126.52 245.34 124.67 C 246.05 123.95 246.82 123.28 247.63 122.66 C 247.58 125.09 248.42 128.36 246.01 129.97 C 242.36 132.07 237.98 133.38 233.82 132.05 C 227.89 131.02 223.63 126.58 219.05 123.10 Z" />
    <path fill="#fce8f3" opacity="1.00"
      d=" M 208.22 135.81 C 213.24 141.50 218.00 147.59 224.52 151.67 C 229.10 154.69 234.48 156.20 239.75 157.54 C 246.00 157.87 253.03 156.20 256.94 150.93 C 259.16 148.55 259.03 145.13 259.50 142.13 C 259.46 140.22 260.10 138.80 262.30 139.56 C 263.53 144.48 260.59 148.95 257.41 152.40 C 252.61 157.43 245.25 160.36 238.36 158.52 C 230.70 157.06 224.07 152.68 218.22 147.73 C 214.76 145.03 211.83 141.70 209.42 138.05 C 209.12 137.49 208.52 136.37 208.22 135.81 Z" />
    <path fill="#fce8f3" opacity="1.00"
      d=" M 8.70 150.07 C 11.06 153.10 13.42 156.14 15.68 159.24 C 11.96 157.54 9.78 153.87 8.70 150.07 Z" />
    <path fill="#fce8f3" opacity="1.00"
      d=" M 20.42 161.69 C 24.74 161.78 29.28 161.92 33.02 164.37 C 28.60 166.21 24.17 163.95 20.42 161.69 Z" />
  </g>
</svg>