<?xml version="1.0" encoding="UTF-8"?>
<!DOCTYPE svg PUBLIC "-//W3C//DTD SVG 1.1//EN" "http://www.w3.org/Graphics/SVG/1.1/DTD/svg11.dtd">
<svg viewBox="0 0 600 600" version="1.1" xmlns="http://www.w3.org/2000/svg">
  <g id="#ceb520ff">
    <path fill="#ceb520" opacity="1.00"
      d=" M 279.49 7.74 C 300.31 6.70 321.29 6.97 341.91 10.26 C 401.73 18.85 458.52 47.04 501.63 89.37 C 525.76 112.75 545.66 140.44 560.31 170.66 C 591.48 234.70 597.67 310.33 577.50 378.61 C 565.98 418.30 545.69 455.41 518.63 486.63 C 490.53 519.18 455.10 545.38 415.69 562.61 C 377.50 579.33 335.66 587.74 293.97 586.74 C 249.64 586.25 205.52 575.00 166.16 554.65 C 103.91 522.73 54.11 467.42 28.98 402.12 C 8.07 348.46 3.69 288.53 16.59 232.41 C 26.22 189.70 45.80 149.30 73.30 115.25 C 94.38 88.98 120.12 66.47 148.92 49.00 C 188.30 25.04 233.51 10.83 279.49 7.74 M 283.41 20.43 C 229.88 23.25 177.42 42.38 134.45 74.40 C 79.22 115.07 39.96 176.93 27.23 244.38 C 18.28 290.34 21.28 338.56 35.86 383.05 C 51.06 429.60 78.95 471.94 115.64 504.35 C 147.39 532.50 185.65 553.33 226.62 564.39 C 270.03 576.22 316.32 577.25 360.20 567.29 C 396.15 559.26 430.40 543.80 460.32 522.33 C 490.02 501.02 515.52 473.86 534.78 442.79 C 556.18 408.47 569.79 369.37 574.46 329.20 C 578.35 295.03 576.07 260.11 567.30 226.83 C 558.12 191.60 541.81 158.27 519.70 129.35 C 492.74 93.92 457.17 65.07 416.86 46.13 C 375.44 26.67 329.09 17.61 283.41 20.43 Z" />
    <path fill="#ceb520" opacity="1.00"
      d=" M 279.26 39.36 C 283.65 37.87 288.33 37.57 292.93 37.28 C 301.35 37.17 309.93 36.87 318.15 39.00 C 320.52 39.58 322.49 41.32 323.54 43.50 C 324.61 47.41 322.71 51.24 322.04 55.04 C 320.70 61.91 322.34 68.85 322.25 75.75 C 324.12 80.33 324.87 85.27 323.45 90.09 C 326.17 94.63 326.24 99.98 325.28 105.06 C 326.97 109.02 327.69 113.40 326.52 117.63 C 325.38 121.33 327.40 125.19 326.08 128.87 C 325.48 131.37 323.60 133.66 324.45 136.34 C 325.26 140.05 323.67 143.54 322.36 146.90 C 323.26 151.11 323.41 155.51 321.45 159.47 C 320.84 165.90 321.64 172.46 321.75 178.94 C 331.84 178.91 341.94 178.90 352.03 178.93 C 362.20 179.15 373.03 181.27 380.94 188.09 C 387.01 193.22 389.94 201.23 390.32 209.01 C 390.47 212.80 389.65 217.04 386.60 219.58 C 381.57 223.39 374.30 223.09 369.10 219.79 C 366.93 218.59 365.40 216.37 365.00 213.94 C 364.18 209.34 365.87 204.71 365.20 200.09 C 363.00 195.56 357.71 193.52 353.01 192.79 C 344.88 192.43 336.73 192.83 328.60 192.59 C 330.22 209.26 331.12 226.00 331.76 242.73 C 393.51 242.63 455.26 242.73 517.00 242.68 C 520.43 242.76 524.06 242.13 527.19 243.95 C 526.02 245.15 524.88 246.61 523.01 246.14 C 374.99 246.09 226.98 246.13 78.97 246.12 C 76.99 246.10 75.03 245.96 73.06 245.82 C 73.13 245.07 73.27 243.57 73.34 242.82 C 137.97 242.57 202.60 242.69 267.23 242.76 C 267.25 233.45 267.80 224.16 268.21 214.87 C 271.40 214.91 274.59 214.91 277.77 215.02 C 276.68 210.59 277.28 205.98 277.23 201.47 C 275.10 201.53 272.97 201.59 270.85 201.69 C 270.87 198.66 270.88 195.64 270.90 192.62 C 262.58 192.69 254.25 192.62 245.94 192.75 C 236.40 192.54 226.49 190.13 218.92 184.09 C 211.67 178.15 208.48 168.24 209.30 159.08 C 209.42 156.57 210.73 154.23 212.56 152.55 C 218.62 147.18 229.25 148.80 233.69 155.47 C 236.49 161.03 232.57 167.48 234.95 173.08 C 237.73 176.70 242.49 178.61 246.97 178.90 C 256.86 179.00 266.76 178.82 276.66 178.98 C 277.46 171.23 277.54 163.39 276.57 155.65 C 276.11 153.12 277.53 150.40 275.95 148.10 C 273.88 143.99 273.96 139.26 274.82 134.85 C 272.82 130.65 271.15 125.97 272.39 121.28 C 273.30 118.73 271.74 116.32 271.62 113.78 C 271.18 109.66 273.65 105.78 272.60 101.67 C 271.88 98.03 273.47 94.61 274.51 91.23 C 273.77 87.03 274.26 82.83 275.86 78.89 C 275.16 74.76 275.32 70.59 276.53 66.56 C 278.36 60.21 275.96 53.82 274.68 47.61 C 273.95 44.25 275.91 40.43 279.26 39.36 M 280.49 42.35 C 278.26 43.10 276.92 45.49 277.88 47.73 C 279.64 52.79 279.77 58.16 280.59 63.37 C 283.22 65.29 286.16 66.78 289.17 68.00 C 294.99 70.02 301.29 69.58 307.27 70.87 C 311.40 71.55 315.32 73.04 319.36 74.10 C 319.18 69.73 318.09 65.44 318.22 61.05 C 318.33 56.41 319.61 51.92 320.64 47.43 C 321.52 44.96 319.28 42.59 317.01 42.01 C 310.83 40.27 304.33 40.26 297.96 40.20 C 292.10 40.39 286.09 40.42 280.49 42.35 M 279.58 66.88 C 278.88 69.98 278.50 73.14 278.49 76.32 C 283.88 79.58 289.47 83.36 295.98 83.59 C 304.40 83.98 312.72 85.80 320.52 88.99 C 321.60 85.43 321.84 80.75 319.04 78.01 C 311.82 74.72 303.86 73.24 295.96 72.89 C 290.04 72.54 284.54 69.98 279.58 66.88 M 278.76 80.72 C 277.47 83.38 276.62 86.41 277.42 89.35 C 281.54 92.62 286.23 95.31 291.28 96.88 C 295.06 98.09 299.09 97.74 302.98 98.32 C 309.74 98.99 316.12 101.50 322.50 103.67 C 322.72 99.92 324.03 94.12 319.68 92.27 C 312.44 89.28 304.75 87.40 296.91 87.09 C 290.33 86.88 284.35 83.93 278.76 80.72 M 276.80 93.67 C 275.83 96.62 275.57 99.70 275.65 102.78 C 281.14 106.08 286.45 110.09 292.87 111.35 C 297.22 112.54 301.77 112.03 306.16 112.95 C 312.08 113.86 317.64 116.16 323.23 118.21 C 324.60 114.82 324.21 111.25 323.25 107.82 C 317.51 105.54 311.74 103.09 305.60 102.14 C 299.89 101.10 293.96 101.34 288.41 99.52 C 284.25 98.17 280.69 95.56 276.80 93.67 M 275.66 106.93 C 274.70 109.89 274.51 113.01 274.60 116.11 C 279.01 118.92 283.36 121.90 288.17 124.02 C 292.46 125.93 297.23 126.12 301.85 126.42 C 308.86 127.17 315.58 129.40 322.16 131.83 C 323.20 128.64 323.65 125.32 323.38 121.98 C 316.29 118.94 308.93 116.35 301.22 115.55 C 297.14 115.13 292.94 115.16 289.01 113.79 C 284.27 112.13 279.94 109.53 275.66 106.93 M 275.60 120.96 C 274.85 124.53 274.83 128.74 277.15 131.74 C 280.42 134.40 284.30 136.24 288.09 138.02 C 292.67 140.20 297.82 140.12 302.76 140.59 C 308.73 141.18 314.37 143.34 320.12 144.92 C 321.09 141.79 321.63 138.54 321.37 135.26 C 315.44 132.84 309.32 130.70 302.94 129.88 C 299.32 129.34 295.60 129.65 292.04 128.74 C 286.03 127.42 280.81 124.05 275.60 120.96 M 277.72 136.55 C 277.28 140.31 276.58 145.31 280.13 147.83 C 283.71 150.20 287.59 152.22 291.75 153.35 C 295.79 154.58 300.06 154.19 304.19 154.94 C 309.06 155.49 313.73 157.00 318.32 158.66 C 319.98 155.57 320.20 152.06 319.69 148.64 C 312.47 145.86 304.94 143.68 297.16 143.56 C 290.08 143.27 283.74 139.97 277.72 136.55 M 217.46 153.41 C 213.87 154.55 212.19 158.44 212.34 161.96 C 212.59 169.57 215.59 177.54 221.94 182.11 C 229.61 187.96 239.55 189.41 248.94 189.63 C 282.97 189.60 317.01 189.65 351.04 189.61 C 357.08 189.58 363.67 191.75 367.27 196.86 C 370.11 201.85 367.33 207.56 368.04 212.87 C 370.46 220.91 384.90 221.51 386.85 212.79 C 387.83 205.34 385.25 197.41 380.12 191.92 C 373.02 184.87 362.71 182.66 353.06 182.15 C 318.02 182.13 282.97 182.14 247.93 182.15 C 242.24 182.13 236.22 179.96 232.54 175.50 C 228.70 170.08 232.85 163.17 230.80 157.30 C 228.09 153.02 222.03 151.77 217.46 153.41 M 279.59 151.97 C 280.07 160.77 280.94 169.61 279.67 178.39 C 292.64 178.92 305.64 178.63 318.62 178.54 C 318.14 173.10 318.21 167.63 318.26 162.18 C 311.23 159.50 303.81 157.76 296.28 157.52 C 290.26 157.33 284.91 154.46 279.59 151.97 M 274.08 192.66 C 274.07 194.59 274.07 196.51 274.07 198.44 C 276.12 198.40 278.18 198.35 280.24 198.26 C 280.21 202.38 280.24 206.51 280.15 210.63 C 284.20 211.64 287.93 214.06 289.02 218.34 C 283.07 218.43 277.13 218.00 271.18 218.12 C 270.59 226.31 270.73 234.53 270.54 242.74 C 279.85 242.62 289.16 242.66 298.47 242.71 C 298.28 226.02 298.74 209.33 298.67 192.64 C 290.48 192.74 282.28 192.71 274.08 192.66 M 300.56 192.50 C 300.76 209.26 300.62 226.02 300.50 242.78 C 309.93 242.69 319.35 242.74 328.77 242.75 C 328.16 225.98 326.94 209.25 325.65 192.52 C 317.28 192.60 308.92 192.64 300.56 192.50 Z" />
    <path fill="#ceb520" opacity="1.00"
      d=" M 283.26 47.51 C 293.92 44.85 305.12 44.75 315.76 47.62 C 315.72 48.85 315.66 50.09 315.60 51.33 C 310.39 50.73 305.28 49.31 299.99 49.37 C 294.58 49.13 289.34 50.63 284.01 51.26 C 282.48 50.66 281.97 48.61 283.26 47.51 Z" />
    <path fill="#ceb520" opacity="1.00"
      d=" M 338.98 80.21 C 339.10 78.67 340.13 77.53 341.02 76.37 C 341.35 77.77 341.96 79.19 341.60 80.66 C 340.75 85.03 340.10 89.44 339.27 93.82 C 338.64 94.27 337.38 95.18 336.76 95.63 C 336.94 90.43 338.11 85.32 338.98 80.21 Z" />
    <path fill="#ceb520" opacity="1.00"
      d=" M 369.46 104.79 C 370.28 105.14 371.10 105.49 371.93 105.85 C 367.92 118.04 362.91 129.87 358.62 141.96 C 357.77 141.72 356.94 141.48 356.11 141.24 C 360.23 128.97 365.47 117.11 369.46 104.79 Z" />
    <path fill="#ceb520" opacity="1.00"
      d=" M 408.63 105.29 C 409.31 105.28 410.69 105.26 411.38 105.25 C 408.45 112.20 404.00 118.36 400.51 125.02 C 399.82 124.86 398.44 124.55 397.75 124.39 C 401.25 117.96 405.09 111.71 408.63 105.29 Z" />
    <path fill="#ceb520" opacity="1.00"
      d=" M 196.60 106.48 C 197.85 107.16 199.35 107.68 199.94 109.12 C 204.44 116.90 208.86 124.72 213.44 132.46 C 214.68 134.31 215.06 136.50 215.20 138.69 C 214.07 137.87 212.78 137.15 212.16 135.83 C 207.64 128.03 203.17 120.20 198.62 112.42 C 197.47 110.63 196.88 108.57 196.60 106.48 Z" />
    <path fill="#ceb520" opacity="1.00"
      d=" M 236.14 110.80 C 237.00 110.46 237.86 110.13 238.73 109.80 C 239.90 112.71 240.94 115.68 241.88 118.68 C 241.22 118.73 239.90 118.84 239.24 118.90 C 238.23 116.19 237.23 113.48 236.14 110.80 Z" />
    <path fill="#ceb520" opacity="1.00"
      d=" M 166.54 129.44 C 167.28 129.35 168.76 129.17 169.51 129.08 C 171.46 132.72 176.81 135.17 175.58 139.87 C 172.03 136.91 168.95 133.38 166.54 129.44 Z" />
    <path fill="#ceb520" opacity="1.00"
      d=" M 243.83 131.28 C 244.50 131.22 245.84 131.10 246.51 131.03 C 250.18 141.67 254.43 152.10 258.13 162.72 C 258.71 164.26 258.73 165.92 258.85 167.54 C 257.53 166.75 256.09 165.88 255.75 164.26 C 252.09 153.15 247.42 142.41 243.83 131.28 Z" />
    <path fill="#ceb520" opacity="1.00"
      d=" M 384.93 146.95 C 387.15 143.28 388.93 139.32 391.55 135.89 C 391.93 136.41 392.69 137.44 393.07 137.96 C 387.15 149.30 380.02 159.95 373.73 171.08 C 373.11 170.40 372.49 169.71 371.88 169.03 C 375.90 161.48 380.56 154.30 384.93 146.95 Z" />
    <path fill="#ceb520" opacity="1.00"
      d=" M 179.65 144.16 C 183.04 144.62 184.93 147.63 186.97 150.03 C 189.78 153.59 192.95 156.86 195.60 160.55 C 195.62 161.30 195.66 162.82 195.68 163.58 C 191.51 160.67 188.81 156.27 185.40 152.58 C 183.31 149.91 180.57 147.55 179.65 144.16 Z" />
    <path fill="#ceb520" opacity="1.00"
      d=" M 347.39 165.43 C 350.00 159.44 350.98 152.53 355.09 147.31 C 356.50 150.49 354.42 153.56 353.49 156.55 C 352.11 159.88 351.33 163.48 349.53 166.62 C 348.77 166.97 346.57 166.65 347.39 165.43 Z" />
    <path fill="#ceb520" opacity="1.00"
      d=" M 413.79 156.77 C 416.79 153.51 419.07 149.25 423.32 147.41 C 423.07 151.03 420.15 153.39 418.07 156.06 C 415.08 159.22 412.86 163.18 409.13 165.59 C 408.45 161.82 411.71 159.40 413.79 156.77 Z" />
    <path fill="#ceb520" opacity="1.00"
      d=" M 154.03 165.72 C 157.51 165.93 159.80 168.65 162.21 170.80 C 174.65 181.50 187.36 191.87 199.96 202.37 C 199.87 203.13 199.67 204.67 199.58 205.44 C 186.79 195.27 174.30 184.72 161.84 174.15 C 159.13 171.44 155.23 169.63 154.03 165.72 Z" />
    <path fill="#ceb520" opacity="1.00"
      d=" M 439.65 177.46 C 439.81 172.91 444.39 169.62 448.50 168.66 C 447.35 172.92 443.07 175.17 439.65 177.46 Z" />
    <path fill="#ceb520" opacity="1.00"
      d=" M 395.96 177.88 C 397.38 176.05 399.17 174.56 401.21 173.46 C 400.67 178.43 396.43 182.04 392.75 185.00 C 391.97 182.07 394.39 180.00 395.96 177.88 Z" />
    <path fill="#ceb520" opacity="1.00"
      d=" M 425.41 187.44 C 428.15 184.69 430.52 181.20 434.44 180.06 C 434.06 181.88 433.40 183.68 431.91 184.89 C 423.87 192.81 416.76 201.69 408.19 209.06 C 407.87 208.53 407.25 207.48 406.94 206.95 C 413.13 200.47 419.57 194.24 425.41 187.44 Z" />
    <path fill="#ceb520" opacity="1.00"
      d=" M 472.45 191.52 C 474.20 190.23 476.38 190.10 478.47 189.88 C 475.22 194.10 470.03 195.86 465.62 198.53 C 460.81 200.96 456.38 204.09 451.47 206.30 C 451.83 204.87 451.80 203.08 453.39 202.39 C 459.53 198.40 466.20 195.33 472.45 191.52 Z" />
    <path fill="#ceb520" opacity="1.00"
      d=" M 133.43 193.16 C 137.45 192.61 140.64 195.40 143.95 197.18 C 145.76 198.10 147.04 199.68 148.20 201.29 C 145.22 201.79 142.91 199.74 140.47 198.43 C 137.93 196.95 135.13 195.68 133.43 193.16 Z" />
    <path fill="#ceb520" opacity="1.00"
      d=" M 229.62 202.59 C 233.44 204.18 235.32 208.10 238.09 210.94 C 240.02 213.63 243.42 215.85 242.85 219.58 C 238.67 217.00 236.14 212.66 232.85 209.15 C 231.08 207.36 229.72 205.17 229.62 202.59 Z" />
    <path fill="#ceb520" opacity="1.00"
      d=" M 156.40 205.56 C 160.31 205.96 163.42 208.50 166.75 210.31 C 170.71 212.73 175.10 214.61 178.41 217.96 C 177.83 218.23 176.67 218.76 176.09 219.03 C 170.51 215.52 164.70 212.39 159.03 209.05 C 157.55 208.43 157.07 206.87 156.40 205.56 Z" />
    <path fill="#ceb520" opacity="1.00"
      d=" M 349.44 207.94 C 350.12 208.12 351.48 208.49 352.16 208.67 C 349.66 212.27 348.53 217.24 344.39 219.38 C 344.12 214.97 347.64 211.67 349.44 207.94 Z" />
    <path fill="#ceb520" opacity="1.00"
      d=" M 204.57 208.59 C 205.35 208.65 206.90 208.79 207.67 208.86 C 210.83 211.24 213.71 213.98 216.88 216.37 C 216.81 217.15 216.67 218.70 216.60 219.48 C 212.20 216.35 207.68 213.08 204.57 208.59 Z" />
    <path fill="#ceb520" opacity="1.00"
      d=" M 429.07 216.43 C 433.17 214.44 436.77 210.96 441.57 210.89 C 439.02 215.37 433.47 216.69 429.34 219.35 C 429.28 218.62 429.14 217.16 429.07 216.43 Z" />
    <path fill="#ceb520" opacity="1.00"
      d=" M 85.56 257.57 C 88.12 258.31 90.19 260.56 92.98 260.44 C 109.01 260.46 125.05 260.41 141.08 260.47 C 144.73 260.99 147.43 257.91 151.00 257.76 C 149.61 265.05 147.99 272.33 147.33 279.74 C 145.83 279.76 144.34 279.78 142.85 279.82 C 142.54 275.60 143.01 270.50 139.72 267.30 C 135.05 264.35 129.20 265.96 124.00 265.60 C 120.36 286.46 115.91 307.18 112.40 328.05 C 111.47 333.93 118.85 334.37 122.98 334.55 C 122.85 335.80 122.72 337.05 122.59 338.31 C 109.74 338.37 96.89 338.24 84.04 338.38 C 84.15 337.15 84.27 335.92 84.39 334.70 C 88.07 334.21 92.53 334.24 94.97 330.93 C 97.36 327.55 97.58 323.23 98.40 319.30 C 101.87 301.38 105.36 283.47 108.83 265.55 C 103.64 265.88 97.98 264.61 93.20 267.18 C 88.95 270.24 86.59 275.13 84.38 279.73 C 82.87 279.71 81.37 279.71 79.86 279.71 C 82.18 272.44 83.92 265.01 85.56 257.57 Z" />
    <path fill="#ceb520" opacity="1.00"
      d=" M 158.16 260.38 C 168.79 260.54 179.43 260.36 190.07 260.47 C 199.74 260.81 209.87 262.36 217.92 268.14 C 225.88 273.62 230.03 283.45 229.85 292.95 C 230.30 306.39 224.60 320.46 213.34 328.25 C 203.42 335.48 190.98 338.05 178.92 338.31 C 167.03 338.38 155.14 338.22 143.25 338.39 C 143.64 337.13 144.02 335.88 144.38 334.62 C 148.23 334.30 153.00 333.69 154.79 329.69 C 156.48 325.64 156.94 321.21 157.85 316.95 C 160.64 302.41 163.54 287.89 166.35 273.35 C 166.61 271.50 166.90 269.55 166.35 267.72 C 164.37 264.60 160.19 264.94 156.98 264.59 C 157.39 263.19 157.78 261.79 158.16 260.38 M 186.25 265.92 C 183.16 266.68 182.46 270.14 181.80 272.79 C 178.61 289.64 175.09 306.42 171.97 323.28 C 170.88 327.23 173.10 331.99 177.30 332.85 C 187.10 335.05 197.78 330.64 203.61 322.55 C 210.18 313.88 212.92 302.76 212.53 292.00 C 212.79 284.83 211.22 277.17 206.43 271.62 C 201.54 265.93 193.32 264.50 186.25 265.92 Z" />
    <path fill="#ceb520" opacity="1.00"
      d=" M 240.66 260.39 C 252.74 260.46 264.81 260.50 276.89 260.37 C 276.52 261.77 276.17 263.17 275.84 264.59 C 271.65 264.65 266.52 265.52 264.88 270.01 C 262.14 278.58 261.33 287.63 259.36 296.39 C 266.49 294.37 271.63 288.80 277.16 284.22 C 281.06 280.79 284.65 277.01 288.47 273.47 C 290.63 271.35 292.90 269.13 293.72 266.11 C 291.20 265.25 288.58 264.73 285.93 264.54 C 286.33 263.15 286.73 261.77 287.12 260.38 C 296.77 260.46 306.42 260.52 316.06 260.35 C 315.80 261.71 315.55 263.08 315.30 264.46 C 305.06 264.54 297.78 272.43 290.62 278.64 C 285.04 283.28 279.90 288.43 274.25 293.00 C 280.74 304.62 287.74 315.94 294.82 327.21 C 296.16 329.16 297.41 331.32 299.48 332.60 C 301.92 334.19 304.91 334.25 307.70 334.72 C 307.25 335.99 306.67 337.19 305.97 338.33 C 298.63 338.31 291.29 338.38 283.95 338.28 C 281.82 336.22 280.78 333.34 279.26 330.85 C 274.04 321.71 269.09 312.41 263.63 303.42 C 262.68 301.48 260.65 300.71 258.79 299.96 C 256.86 307.95 255.70 316.11 254.01 324.16 C 253.67 326.78 252.77 329.96 254.81 332.15 C 257.43 334.18 260.88 334.26 264.04 334.57 C 263.57 335.83 263.11 337.10 262.67 338.38 C 250.44 338.29 238.21 338.27 225.98 338.39 C 226.35 337.13 226.71 335.87 227.07 334.61 C 230.70 334.23 235.30 333.82 237.13 330.11 C 239.46 325.38 239.55 319.96 240.82 314.91 C 243.54 300.21 246.66 285.58 249.17 270.85 C 250.08 265.54 243.59 264.52 239.71 264.57 C 240.03 263.17 240.35 261.78 240.66 260.39 Z" />
    <path fill="#ceb520" opacity="1.00"
      d=" M 328.32 260.34 C 340.38 260.50 352.45 260.52 364.51 260.32 C 364.19 261.74 363.88 263.16 363.59 264.59 C 360.53 264.75 357.21 264.84 354.64 266.72 C 352.89 268.33 352.43 270.80 351.89 273.01 C 348.67 289.51 345.49 306.02 342.29 322.52 C 341.79 325.53 340.96 328.69 341.90 331.70 C 344.42 334.23 348.22 334.22 351.53 334.40 C 351.19 335.71 350.87 337.02 350.55 338.33 C 338.21 338.34 325.87 338.26 313.53 338.37 C 313.81 337.07 314.08 335.76 314.36 334.46 C 317.11 334.17 320.12 334.15 322.47 332.49 C 324.82 330.73 325.60 327.72 326.19 324.99 C 329.49 307.95 332.92 290.93 336.19 273.88 C 336.45 271.72 337.24 269.32 336.09 267.29 C 333.95 264.50 330.03 264.97 326.93 264.60 C 327.41 263.18 327.88 261.76 328.32 260.34 Z" />
    <path fill="#ceb520" opacity="1.00"
      d=" M 373.69 260.35 C 385.82 260.49 397.97 260.52 410.11 260.33 C 409.87 261.73 409.65 263.14 409.44 264.55 C 404.86 264.50 398.90 265.44 397.83 270.80 C 394.40 287.20 391.40 303.69 388.04 320.11 C 387.55 323.34 386.58 326.56 386.80 329.85 C 387.51 332.08 389.59 333.66 391.97 333.36 C 398.68 333.23 406.46 334.76 412.04 330.04 C 416.39 326.22 419.57 321.28 422.73 316.47 C 424.09 317.01 425.47 317.53 426.85 318.06 C 424.09 324.64 422.17 331.61 418.64 337.83 L 417.96 338.27 C 398.33 338.43 378.68 338.20 359.05 338.38 C 359.26 337.14 359.48 335.90 359.70 334.66 C 364.21 334.49 370.01 333.36 370.93 328.05 C 374.95 309.08 378.46 289.99 382.13 270.95 C 383.24 265.50 376.58 264.50 372.66 264.57 C 373.00 263.16 373.34 261.75 373.69 260.35 Z" />
    <path fill="#ceb520" opacity="1.00"
      d=" M 443.16 260.38 C 455.35 260.46 467.54 260.52 479.73 260.34 C 479.39 261.76 479.06 263.18 478.77 264.60 C 475.30 264.80 471.03 264.69 468.68 267.72 C 466.52 271.28 466.30 275.58 465.47 279.57 C 462.79 292.86 460.30 306.18 457.57 319.46 C 456.89 323.32 455.75 327.36 456.73 331.27 C 458.25 333.70 461.46 333.33 463.94 333.45 C 469.76 333.36 476.34 334.22 481.22 330.28 C 485.73 326.51 488.91 321.43 492.00 316.50 C 493.35 316.99 494.72 317.48 496.09 317.98 C 493.78 324.92 491.13 331.76 487.98 338.36 C 468.07 338.29 448.16 338.29 428.25 338.37 C 428.63 337.09 429.00 335.82 429.38 334.55 C 432.36 334.27 435.73 334.25 438.06 332.07 C 440.45 329.80 440.65 326.29 441.42 323.28 C 444.42 307.99 447.37 292.69 450.34 277.40 C 450.96 274.10 452.07 270.63 451.06 267.29 C 448.81 264.67 445.05 264.90 441.93 264.57 C 442.35 263.18 442.76 261.78 443.16 260.38 Z" />
    <path fill="#ceb520" opacity="1.00"
      d=" M 507.40 321.28 C 511.41 319.68 517.10 320.84 518.69 325.28 C 521.11 330.40 518.69 337.22 513.31 339.28 C 510.29 340.15 506.49 340.26 504.13 337.83 C 499.09 333.23 501.06 323.66 507.40 321.28 Z" />
    <path fill="#ceb520" opacity="1.00"
      d=" M 88.34 357.06 C 89.46 356.15 90.39 354.50 92.05 354.68 C 224.70 354.68 357.35 354.68 490.00 354.68 C 496.58 354.74 503.17 354.53 509.75 354.82 C 509.78 355.58 509.85 357.09 509.88 357.85 C 485.93 358.38 461.96 357.93 438.00 358.08 C 402.78 358.10 367.55 358.05 332.33 358.11 C 331.08 382.00 329.35 405.91 325.45 429.54 C 322.14 450.18 317.50 470.82 308.93 489.98 C 306.83 494.35 304.97 499.10 301.09 502.26 C 304.31 508.83 307.12 515.62 309.25 522.63 C 310.98 528.48 310.64 535.60 306.18 540.20 C 303.33 543.50 298.23 544.66 294.32 542.60 C 290.72 540.94 288.62 537.22 287.57 533.56 C 286.16 527.34 288.34 521.19 290.53 515.45 C 292.28 510.86 294.18 506.32 296.43 501.95 C 292.17 496.90 290.01 490.55 287.57 484.53 C 279.74 462.69 276.26 439.61 273.34 416.69 C 271.15 397.22 269.57 377.68 268.63 358.10 C 210.40 358.07 152.16 358.08 93.93 358.10 C 92.01 358.17 90.15 357.63 88.34 357.06 M 271.81 358.11 C 272.77 373.07 273.69 388.04 275.15 402.97 C 278.00 429.05 281.26 455.35 289.57 480.35 C 291.81 486.35 293.89 492.55 297.57 497.85 C 298.06 473.57 297.81 449.28 297.86 425.00 C 298.32 402.71 297.97 380.41 298.11 358.12 C 289.34 358.06 280.58 358.08 271.81 358.11 M 300.52 358.15 C 300.41 405.12 300.01 452.10 300.16 499.06 C 306.34 489.45 310.19 478.56 313.56 467.70 C 323.81 432.10 327.07 394.96 329.01 358.11 C 319.51 358.12 310.02 358.06 300.52 358.15 M 289.49 524.57 C 287.16 530.94 290.41 539.24 297.19 541.18 C 301.83 542.14 305.76 538.33 307.43 534.36 C 309.75 529.37 307.74 523.82 306.15 518.94 C 303.92 513.45 301.95 507.80 298.79 502.76 C 294.30 509.32 291.91 517.07 289.49 524.57 Z" />
    <path fill="#ceb520" opacity="1.00"
      d=" M 131.56 390.74 C 132.31 386.30 137.53 384.33 141.54 384.04 C 139.66 387.86 135.27 389.32 131.56 390.74 Z" />
    <path fill="#ceb520" opacity="1.00"
      d=" M 183.51 391.98 C 184.00 387.73 188.35 384.13 192.55 384.03 C 190.53 387.59 187.29 390.42 183.51 391.98 Z" />
    <path fill="#ceb520" opacity="1.00"
      d=" M 214.85 393.85 C 218.14 390.32 220.61 385.82 224.96 383.44 C 225.34 387.15 221.99 389.35 220.06 392.05 C 216.74 395.54 214.26 399.90 210.16 402.58 C 209.54 398.85 212.82 396.48 214.85 393.85 Z" />
    <path fill="#ceb520" opacity="1.00"
      d=" M 247.48 384.18 C 248.20 384.23 249.64 384.33 250.36 384.38 C 249.23 387.39 247.56 390.19 245.12 392.32 C 244.79 389.34 245.97 386.66 247.48 384.18 Z" />
    <path fill="#ceb520" opacity="1.00"
      d=" M 356.06 384.95 C 356.87 384.56 357.68 384.18 358.51 383.81 C 360.07 386.42 362.66 389.08 361.12 392.32 C 359.05 390.14 357.47 387.58 356.06 384.95 Z" />
    <path fill="#ceb520" opacity="1.00"
      d=" M 380.58 384.47 C 381.32 384.38 382.81 384.18 383.55 384.09 C 387.35 389.03 391.58 393.61 395.47 398.47 C 396.45 399.62 396.72 401.14 397.17 402.56 C 393.61 402.01 392.11 398.48 389.86 396.14 C 386.81 392.21 383.20 388.72 380.58 384.47 Z" />
    <path fill="#ceb520" opacity="1.00"
      d=" M 413.82 384.30 C 417.23 383.56 419.41 386.61 421.89 388.36 C 421.80 389.13 421.61 390.67 421.52 391.44 C 418.59 389.49 415.56 387.45 413.82 384.30 Z" />
    <path fill="#ceb520" opacity="1.00"
      d=" M 464.59 384.34 C 467.76 383.60 470.34 385.65 472.92 387.13 C 475.65 388.84 479.05 389.93 480.47 393.11 C 476.10 393.02 472.72 390.01 469.01 388.11 C 467.23 387.24 465.78 385.90 464.59 384.34 Z" />
    <path fill="#ceb520" opacity="1.00"
      d=" M 158.19 410.53 C 165.08 405.38 170.93 398.78 178.49 394.59 C 178.35 396.96 176.96 398.79 175.09 400.13 C 169.51 404.43 164.51 409.47 158.67 413.42 C 158.55 412.70 158.31 411.25 158.19 410.53 Z" />
    <path fill="#ceb520" opacity="1.00"
      d=" M 341.28 395.36 C 344.95 398.14 345.54 403.28 346.25 407.53 C 342.03 405.38 341.11 399.69 341.28 395.36 Z" />
    <path fill="#ceb520" opacity="1.00"
      d=" M 429.53 395.52 C 437.47 400.78 444.19 407.70 451.73 413.51 C 451.70 414.25 451.64 415.75 451.61 416.50 C 443.56 411.21 436.85 404.15 429.15 398.39 C 429.24 397.67 429.43 396.24 429.53 395.52 Z" />
    <path fill="#ceb520" opacity="1.00"
      d=" M 238.69 399.74 C 239.28 398.21 240.93 397.89 242.26 397.27 C 241.82 399.06 241.30 400.85 240.33 402.44 C 234.07 413.16 227.89 423.93 221.69 434.69 C 219.82 437.82 218.35 441.31 215.50 443.73 C 215.40 442.14 214.89 440.37 215.98 438.99 C 223.60 425.94 231.11 412.82 238.69 399.74 Z" />
    <path fill="#ceb520" opacity="1.00"
      d=" M 364.73 397.22 C 368.48 398.89 369.57 403.14 371.65 406.33 C 377.73 417.53 384.51 428.37 390.38 439.67 C 389.69 439.71 388.32 439.79 387.63 439.83 C 380.30 427.32 373.21 414.66 366.05 402.05 C 365.19 400.57 365.06 398.84 364.73 397.22 Z" />
    <path fill="#ceb520" opacity="1.00"
      d=" M 197.48 414.48 C 199.38 412.24 201.20 409.43 204.46 409.29 C 202.59 413.80 198.73 417.03 195.85 420.87 C 191.81 425.51 188.41 430.83 183.41 434.55 C 183.39 433.80 183.36 432.31 183.35 431.56 C 188.03 425.85 192.88 420.27 197.48 414.48 Z" />
    <path fill="#ceb520" opacity="1.00"
      d=" M 257.66 412.08 C 258.28 412.17 259.52 412.37 260.15 412.46 C 258.71 417.05 257.28 421.69 254.98 425.94 C 254.51 425.59 253.56 424.90 253.09 424.56 C 254.52 420.36 256.14 416.24 257.66 412.08 Z" />
    <path fill="#ceb520" opacity="1.00"
      d=" M 405.60 413.34 C 408.82 413.52 410.50 416.38 412.35 418.60 C 420.87 428.75 429.84 438.53 437.93 449.04 C 439.00 450.30 439.04 452.01 439.37 453.56 C 438.12 452.85 436.74 452.25 435.92 451.04 C 427.13 439.61 417.40 428.98 408.12 417.98 C 406.95 416.62 406.20 415.00 405.60 413.34 Z" />
    <path fill="#ceb520" opacity="1.00"
      d=" M 348.57 417.46 C 349.22 417.80 350.53 418.48 351.19 418.82 C 354.51 427.55 357.46 436.43 360.71 445.20 C 361.99 449.26 364.44 453.17 363.72 457.61 C 362.48 456.37 361.27 455.04 360.78 453.33 C 357.25 443.52 353.73 433.70 350.19 423.89 C 349.43 421.81 348.86 419.65 348.57 417.46 Z" />
    <path fill="#ceb520" opacity="1.00"
      d=" M 248.39 437.79 C 249.18 438.12 249.96 438.47 250.75 438.82 C 245.76 450.85 241.96 463.33 237.46 475.54 C 236.75 475.78 235.33 476.24 234.62 476.47 C 235.80 471.33 237.97 466.50 239.57 461.50 C 242.38 453.55 244.89 445.47 248.39 437.79 Z" />
    <path fill="#ceb520" opacity="1.00"
      d=" M 205.44 457.03 C 206.18 457.12 207.64 457.30 208.38 457.38 C 206.40 461.01 203.93 464.34 201.93 467.96 C 199.95 471.25 198.70 475.05 195.80 477.71 C 195.58 476.36 195.02 474.94 195.86 473.70 C 198.51 467.85 201.99 462.43 205.44 457.03 Z" />
    <path fill="#ceb520" opacity="1.00"
      d=" M 331.63 459.69 C 331.00 458.13 331.97 456.78 333.01 455.71 C 335.66 464.30 336.74 473.33 338.02 482.21 C 337.39 482.02 336.12 481.64 335.48 481.46 C 334.32 474.18 332.83 466.96 331.63 459.69 Z" />
    <path fill="#ceb520" opacity="1.00"
      d=" M 399.83 458.42 C 401.01 459.14 402.42 459.68 403.08 461.01 C 405.49 464.91 407.59 469.00 409.99 472.92 C 409.66 473.54 409.00 474.79 408.67 475.41 C 405.88 471.74 403.75 467.64 401.42 463.68 C 400.39 462.10 400.10 460.24 399.83 458.42 Z" />
    <path fill="#ceb520" opacity="1.00"
      d=" M 365.89 462.30 C 368.27 465.09 370.57 468.88 369.16 472.65 C 366.71 469.90 364.32 466.06 365.89 462.30 Z" />
    <path fill="#ceb520" opacity="1.00"
      d=" M 269.41 476.23 C 269.84 476.18 270.69 476.09 271.12 476.05 C 272.05 478.44 270.78 480.98 270.55 483.41 C 269.91 483.59 268.62 483.95 267.98 484.13 C 268.27 481.46 268.53 478.77 269.41 476.23 Z" />
    <path fill="#ceb520" opacity="1.00"
      d=" M 337.04 489.83 C 337.66 489.74 338.89 489.55 339.51 489.45 C 340.06 492.17 340.63 494.91 340.47 497.71 C 337.46 496.17 337.49 492.73 337.04 489.83 Z" />
    <path fill="#ceb520" opacity="1.00"
      d=" M 266.57 491.19 C 267.18 491.26 268.40 491.41 269.01 491.49 C 268.02 498.45 266.69 505.35 265.44 512.27 C 264.85 512.51 263.67 512.98 263.08 513.21 C 263.43 505.76 265.45 498.53 266.57 491.19 Z" />
    <path fill="#ceb520" opacity="1.00"
      d=" M 302.85 518.12 C 306.08 523.77 307.30 531.20 303.46 536.89 C 302.10 536.77 300.75 536.64 299.41 536.49 C 299.05 533.54 299.64 530.62 301.03 528.01 C 302.73 524.97 302.14 521.40 302.85 518.12 Z" />
  </g>
</svg>