<?xml version="1.0" encoding="UTF-8"?>
<!DOCTYPE svg PUBLIC "-//W3C//DTD SVG 1.1//EN" "http://www.w3.org/Graphics/SVG/1.1/DTD/svg11.dtd">
<svg viewBox="0 0 732 759" version="1.1" xmlns="http://www.w3.org/2000/svg">
  <g id="#d63a17ff">
    <path fill="#d63a17" opacity="1.00"
      d=" M 257.02 60.95 C 294.25 41.35 336.91 32.22 378.89 34.64 C 432.52 37.26 484.87 59.29 524.42 95.57 C 567.01 134.13 594.79 188.80 600.04 246.07 C 600.55 249.43 598.86 252.47 597.37 255.33 C 592.90 263.75 586.87 271.38 579.39 277.32 C 573.60 282.16 566.77 285.48 560.34 289.36 C 541.84 299.97 523.41 310.71 504.91 321.31 C 458.96 275.32 412.97 229.36 367.00 183.39 C 320.76 229.61 274.55 275.84 228.31 322.07 C 206.06 309.22 183.80 296.39 161.57 283.51 C 148.67 276.11 138.29 264.46 132.46 250.77 C 131.51 248.59 131.98 246.17 132.06 243.89 C 136.47 202.75 152.04 162.87 176.73 129.67 C 197.83 101.09 225.51 77.38 257.02 60.95 M 352.38 154.50 C 356.87 159.00 361.34 163.52 365.88 167.97 C 370.42 163.44 374.95 158.89 379.50 154.36 C 375.00 149.86 370.50 145.36 366.00 140.87 C 361.46 145.41 356.91 149.94 352.38 154.50 M 408.37 152.03 C 399.98 160.38 391.63 168.76 383.26 177.13 C 391.65 185.49 400.01 193.88 408.39 202.25 C 416.73 193.84 425.15 185.53 433.47 177.10 C 425.11 168.74 416.77 160.35 408.37 152.03 M 299.74 177.13 C 308.12 185.50 316.50 193.88 324.87 202.26 C 333.23 193.88 341.65 185.54 349.97 177.12 C 341.61 168.75 333.25 160.39 324.88 152.03 C 316.45 160.35 308.12 168.77 299.74 177.13 Z" />
    <path fill="#d63a17" opacity="1.00"
      d=" M 340.09 257.04 C 349.04 247.96 358.29 239.17 366.97 229.83 C 372.49 235.34 378.00 240.85 383.51 246.37 C 383.50 293.77 383.51 341.17 383.51 388.57 C 378.65 389.69 373.69 390.18 368.75 390.81 C 368.76 382.33 368.73 373.86 368.77 365.38 C 347.14 365.10 325.86 355.63 310.91 340.05 C 301.40 330.20 295.04 317.23 294.13 303.48 C 309.36 287.91 324.90 272.65 340.09 257.04 Z" />
    <path fill="#d63a17" opacity="1.00"
      d=" M 426.25 289.13 C 430.85 293.69 435.42 298.28 440.00 302.85 C 440.00 321.52 440.00 340.18 440.00 358.84 C 435.42 361.51 430.76 364.05 426.25 366.83 C 426.24 340.93 426.23 315.03 426.25 289.13 Z" />
  </g>
  <g id="#dddedcff">
    <path fill="#dddedc" opacity="1.00"
      d=" M 352.38 154.50 C 356.91 149.94 361.46 145.41 366.00 140.87 C 370.50 145.36 375.00 149.86 379.50 154.36 C 374.95 158.89 370.42 163.44 365.88 167.97 C 361.34 163.52 356.87 159.00 352.38 154.50 Z" />
    <path fill="#dddedc" opacity="1.00"
      d=" M 408.37 152.03 C 416.77 160.35 425.11 168.74 433.47 177.10 C 425.15 185.53 416.73 193.84 408.39 202.25 C 400.01 193.88 391.65 185.49 383.26 177.13 C 391.63 168.76 399.98 160.38 408.37 152.03 Z" />
    <path fill="#dddedc" opacity="1.00"
      d=" M 299.74 177.13 C 308.12 168.77 316.45 160.35 324.88 152.03 C 333.25 160.39 341.61 168.75 349.97 177.12 C 341.65 185.54 333.23 193.88 324.87 202.26 C 316.50 193.88 308.12 185.50 299.74 177.13 Z" />
    <path fill="#dddedc" opacity="1.00"
      d=" M 228.31 322.07 C 274.55 275.84 320.76 229.61 367.00 183.39 C 412.97 229.36 458.96 275.32 504.91 321.31 C 518.46 334.81 531.96 348.36 545.50 361.87 C 537.76 369.63 530.00 377.36 522.26 385.13 C 509.09 371.96 495.93 358.79 482.75 345.63 C 482.75 363.08 482.75 380.54 482.75 398.00 C 468.50 398.00 454.25 398.00 440.00 398.00 C 440.00 384.95 440.00 371.89 440.00 358.84 C 440.00 340.18 440.00 321.52 440.00 302.85 C 435.42 298.28 430.85 293.69 426.25 289.13 C 426.23 315.03 426.24 340.93 426.25 366.83 C 426.25 377.22 426.25 387.61 426.25 398.00 C 412.00 398.00 397.75 398.00 383.50 398.00 C 383.50 394.86 383.50 391.71 383.51 388.57 C 383.51 341.17 383.50 293.77 383.51 246.37 C 378.00 240.85 372.49 235.34 366.97 229.83 C 358.29 239.17 349.04 247.96 340.09 257.04 C 324.90 272.65 309.36 287.91 294.13 303.48 C 295.04 317.23 301.40 330.20 310.91 340.05 C 325.86 355.63 347.14 365.10 368.77 365.38 C 368.73 373.86 368.76 382.33 368.75 390.81 C 368.75 393.30 368.75 395.81 368.74 398.31 C 346.60 398.11 324.42 391.49 306.38 378.51 C 301.31 375.00 296.75 370.85 292.24 366.68 C 292.26 377.12 292.25 387.56 292.25 398.00 C 278.00 398.00 263.75 398.00 249.50 398.00 C 249.50 381.13 249.51 364.25 249.50 347.38 C 235.74 361.12 222.00 374.87 208.25 388.62 C 200.51 380.87 192.73 373.16 185.03 365.37 C 199.44 350.91 213.89 336.50 228.31 322.07 Z" />
    <path fill="#dddedc" opacity="1.00"
      d=" M 153.40 435.19 C 159.53 434.63 165.55 437.96 171.58 436.15 C 178.33 435.95 185.09 435.66 191.85 435.85 C 195.78 435.63 199.74 435.06 203.69 435.43 C 203.85 435.68 204.18 436.17 204.34 436.42 C 204.62 441.18 204.61 445.97 205.29 450.71 C 204.95 451.03 204.28 451.66 203.94 451.97 C 200.49 449.22 196.06 450.60 192.04 450.39 C 190.07 450.20 188.12 450.56 186.20 450.96 C 185.58 455.34 184.68 459.87 185.79 464.25 C 185.09 474.48 186.26 484.73 185.90 494.96 C 184.98 500.98 186.18 507.03 185.74 513.07 C 185.75 518.02 185.70 522.96 185.53 527.91 C 185.95 530.76 187.21 533.43 187.90 536.23 C 181.54 536.68 175.12 536.64 168.75 536.24 C 169.70 532.61 170.93 528.99 170.58 525.18 C 170.51 518.42 170.59 511.67 170.59 504.92 C 170.00 497.51 171.01 490.08 170.39 482.68 C 170.34 481.19 170.56 479.71 170.72 478.24 C 170.19 470.83 170.62 463.32 170.68 455.88 C 170.66 453.35 169.19 450.53 166.35 450.50 C 161.16 449.98 155.93 450.62 150.73 450.24 C 151.14 445.71 152.08 441.23 152.07 436.67 C 152.40 436.30 153.07 435.56 153.40 435.19 Z" />
    <path fill="#dddedc" opacity="1.00"
      d=" M 209.47 435.44 C 215.79 434.56 222.18 435.40 228.53 435.12 C 225.19 441.93 226.90 449.72 226.54 457.03 C 227.34 461.95 226.58 466.89 226.64 471.81 C 231.19 477.23 238.56 473.56 244.43 473.79 C 245.14 472.83 245.93 471.93 246.50 470.89 C 245.44 459.03 248.90 446.69 244.83 435.17 C 250.86 434.92 256.90 434.97 262.93 435.34 C 261.65 442.20 262.66 449.19 262.19 456.10 C 260.88 471.37 262.63 486.73 261.59 501.99 C 262.19 508.36 261.36 514.76 262.02 521.14 C 262.32 524.90 260.39 528.95 262.52 532.45 C 262.93 533.74 264.28 535.17 263.09 536.45 C 256.81 535.98 250.51 536.72 244.25 536.09 C 244.97 533.74 247.13 531.67 246.60 529.08 C 245.99 524.80 246.21 520.46 246.67 516.18 C 247.31 509.27 245.41 502.35 246.79 495.48 C 247.52 492.76 246.25 490.27 244.12 488.65 C 240.04 489.98 235.85 489.21 231.70 489.01 C 229.30 488.70 226.53 490.49 226.56 493.06 C 226.43 498.06 226.02 503.06 226.55 508.05 C 227.03 513.03 225.82 518.01 226.41 522.99 C 226.71 525.03 226.46 527.09 226.25 529.13 C 227.26 531.33 228.23 533.55 229.05 535.83 C 222.56 537.11 215.92 535.78 209.36 536.41 C 210.01 532.93 211.68 529.63 211.51 526.04 C 211.39 496.94 211.65 467.85 211.49 438.76 C 210.79 437.66 210.12 436.55 209.47 435.44 Z" />
    <path fill="#dddedc" opacity="1.00"
      d=" M 269.16 435.88 C 270.76 434.62 272.95 435.33 274.82 435.10 C 289.48 435.39 304.20 434.52 318.83 435.31 C 320.41 440.78 320.63 446.64 321.09 452.33 C 313.97 449.53 306.34 450.97 298.93 450.70 C 295.43 450.23 291.91 450.31 288.39 450.33 C 287.65 451.33 286.92 452.32 286.18 453.32 C 286.77 457.28 285.56 461.25 286.20 465.21 C 286.53 467.41 286.31 469.63 286.33 471.85 C 288.00 475.00 292.00 474.54 295.01 474.44 C 299.32 474.61 303.41 473.11 307.60 472.35 C 307.90 478.77 307.75 485.21 307.70 491.64 C 301.37 489.12 294.48 488.79 287.77 489.55 C 287.17 490.50 286.57 491.46 285.97 492.41 C 286.05 500.00 285.95 507.59 286.01 515.19 C 285.89 517.29 287.00 519.14 287.88 520.96 C 296.60 520.38 305.34 521.07 314.06 520.75 C 316.51 520.77 318.74 519.64 321.09 519.14 C 320.71 524.83 320.23 530.54 318.89 536.10 C 302.30 536.54 285.73 536.27 269.14 536.25 C 269.42 533.78 270.68 531.50 270.68 529.00 C 270.18 520.72 271.22 512.43 270.53 504.16 C 270.79 496.76 270.80 489.35 270.73 481.95 C 270.22 469.62 270.75 457.29 270.76 444.96 C 270.93 441.83 269.84 438.88 269.16 435.88 Z" />
    <path fill="#dddedc" opacity="1.00"
      d=" M 356.51 442.81 C 360.42 440.36 362.51 434.35 367.86 434.99 C 378.27 435.22 388.68 434.86 399.09 435.05 C 401.23 435.13 401.82 437.75 402.55 439.36 C 407.47 440.91 407.79 446.65 407.43 450.97 C 406.91 454.83 406.69 458.72 406.63 462.61 C 406.92 463.80 407.19 465.00 407.46 466.21 C 408.35 467.18 409.18 468.19 409.97 469.25 C 405.40 470.90 400.59 469.45 395.90 470.04 C 394.13 469.75 391.52 470.73 390.46 468.85 C 392.32 463.42 391.76 457.64 391.63 452.00 C 385.99 449.19 379.62 451.26 373.62 450.79 C 372.43 453.00 371.38 455.35 370.95 457.84 C 371.69 460.19 372.55 462.53 372.29 465.05 C 371.65 480.68 372.58 496.31 372.24 511.96 C 372.41 514.83 371.50 518.48 374.03 520.61 C 379.19 521.01 384.40 520.47 389.57 521.01 C 393.12 518.40 391.38 513.66 391.76 509.94 C 392.13 507.10 389.92 504.78 390.17 501.96 C 391.63 500.91 393.40 501.57 395.03 501.57 C 397.58 501.63 400.19 501.29 402.64 502.24 C 404.01 501.81 405.40 501.42 406.80 501.06 C 407.34 501.41 408.42 502.11 408.96 502.46 C 406.59 507.02 407.97 512.17 407.09 517.04 C 406.21 521.05 408.49 525.19 407.10 529.11 C 405.00 532.27 401.07 533.58 398.69 536.54 C 387.75 536.08 376.80 536.24 365.86 536.43 C 364.35 536.72 363.45 535.35 362.55 534.44 C 360.51 532.01 356.85 530.50 356.84 526.85 C 356.75 521.18 356.53 515.50 357.20 509.87 C 356.41 502.33 356.25 494.71 356.68 487.14 C 357.92 479.74 356.58 472.25 357.09 464.81 C 356.74 457.48 356.43 450.15 356.51 442.81 Z" />
    <path fill="#dddedc" opacity="1.00"
      d=" M 415.34 435.06 C 421.90 435.08 428.49 434.90 435.03 435.36 C 433.93 438.49 432.44 441.58 432.50 444.97 C 432.60 458.92 432.31 472.88 432.80 486.83 C 432.22 497.38 433.21 507.94 432.49 518.50 C 433.48 519.37 434.47 520.25 435.46 521.14 C 443.37 520.37 451.34 520.83 459.27 520.84 C 462.18 521.18 464.80 519.55 467.65 519.25 C 473.28 493.94 478.49 468.57 484.19 443.28 C 484.97 440.69 482.89 437.04 484.97 435.13 C 491.37 435.41 498.03 434.27 504.28 435.86 C 503.98 438.24 503.56 440.68 504.30 443.03 C 506.82 453.81 508.93 464.68 511.29 475.50 C 513.22 482.18 514.01 489.10 515.55 495.87 C 516.36 500.27 517.52 504.64 517.62 509.14 C 519.87 514.09 520.65 519.47 521.47 524.80 C 521.65 528.35 524.41 530.94 525.58 534.16 C 526.32 532.95 527.08 531.76 527.86 530.58 C 527.97 520.38 527.02 510.21 527.25 500.01 C 527.11 488.64 527.55 477.27 527.06 465.92 C 527.68 459.21 526.53 452.35 527.96 445.74 C 527.73 442.15 527.06 438.62 525.75 435.28 C 530.80 434.27 535.95 435.66 541.07 435.06 C 544.59 434.38 546.15 438.16 546.87 440.89 C 555.01 458.79 561.77 477.38 569.61 495.36 C 571.02 485.67 569.95 475.78 570.25 466.00 C 569.68 459.09 569.53 452.15 570.18 445.23 C 570.85 441.69 568.59 438.65 568.00 435.30 C 574.42 434.74 580.90 435.04 587.35 435.07 C 585.50 439.24 585.39 443.69 585.72 448.16 C 584.60 457.03 585.76 465.93 585.55 474.83 C 585.16 486.62 585.04 498.45 585.63 510.25 C 585.49 513.40 584.48 516.49 584.67 519.67 C 584.33 523.88 584.99 528.09 584.76 532.31 C 585.40 533.30 586.68 535.29 587.32 536.28 C 582.04 536.24 576.77 536.43 571.50 536.44 C 563.64 519.31 556.73 501.76 549.37 484.41 C 547.98 479.56 544.49 474.93 545.41 469.71 C 544.57 469.36 542.89 468.65 542.05 468.30 C 542.25 474.87 541.96 481.45 542.78 487.97 C 542.19 497.93 542.93 507.93 542.15 517.87 C 543.38 524.06 540.71 531.01 545.10 536.34 C 532.21 536.26 519.34 536.39 506.46 536.18 C 507.75 529.80 506.14 523.37 503.99 517.36 C 500.14 516.04 496.01 517.03 492.03 516.74 C 489.29 516.84 485.51 516.20 483.95 519.10 C 482.20 524.67 481.20 530.51 482.03 536.36 C 459.74 536.57 437.47 536.07 415.20 536.44 C 418.20 531.02 417.19 524.89 417.42 519.00 C 416.50 510.96 417.89 502.85 416.96 494.80 C 416.57 492.13 416.99 489.45 417.27 486.80 C 417.13 471.32 417.50 455.76 416.59 440.28 C 416.21 438.53 415.72 436.80 415.34 435.06 M 487.75 499.33 C 488.54 500.14 489.34 500.95 490.15 501.76 C 493.21 501.74 496.27 501.77 499.33 501.70 C 499.83 499.83 500.29 497.88 499.73 495.97 C 498.03 487.40 496.02 478.89 494.34 470.32 C 491.38 479.80 490.66 489.82 487.75 499.33 Z" />
    <path fill="#dddedc" opacity="1.00"
      d=" M 319.33 550.68 C 319.73 550.23 320.53 549.34 320.93 548.89 C 324.21 549.65 327.50 550.55 330.91 550.51 C 334.21 550.14 336.46 552.92 338.87 554.68 C 341.58 551.09 346.10 549.45 350.42 551.01 C 349.74 552.86 347.05 554.42 348.18 556.60 C 350.03 561.54 349.00 566.89 349.26 572.04 C 349.49 575.06 348.01 577.86 348.02 580.87 C 348.12 586.36 346.79 591.72 346.22 597.16 C 346.82 598.38 347.61 599.55 347.94 600.90 C 347.88 617.34 348.29 633.81 347.66 650.26 C 348.29 661.93 347.97 673.62 347.65 685.29 C 348.71 692.16 347.65 699.13 348.02 706.07 C 348.65 710.16 345.18 713.05 342.67 715.74 C 339.88 718.29 337.24 721.13 334.01 723.11 C 330.41 723.95 326.65 723.31 322.99 723.49 C 318.79 723.28 314.57 724.11 310.42 723.30 C 307.96 723.23 305.61 724.37 303.15 724.18 C 300.06 723.89 297.01 723.33 293.94 722.96 C 290.95 722.29 288.18 724.07 285.21 724.02 C 282.85 724.20 280.54 723.73 278.30 723.07 C 277.42 723.32 276.54 723.58 275.67 723.85 C 270.77 719.42 265.21 715.44 261.56 709.86 C 261.33 704.52 261.97 699.17 261.15 693.87 C 261.31 670.30 261.22 646.71 261.18 623.13 C 261.62 611.04 260.50 598.84 262.03 586.84 C 260.87 580.25 261.41 573.57 261.08 566.93 C 260.96 563.06 263.45 558.78 260.82 555.35 C 260.18 553.85 258.11 552.08 260.02 550.69 C 262.80 551.42 265.50 552.45 268.33 553.07 C 274.67 549.03 282.79 549.18 290.01 549.83 C 289.76 552.84 287.11 555.06 286.90 558.15 C 285.31 563.71 289.36 569.10 287.52 574.65 C 287.57 580.74 287.22 586.85 287.25 592.97 C 286.63 606.23 287.79 619.52 287.03 632.79 C 287.59 643.86 286.42 654.96 287.60 666.01 C 288.05 674.36 286.96 682.71 286.14 691.01 C 286.55 694.05 289.87 695.47 292.46 696.38 C 302.30 699.99 312.39 695.24 322.01 693.11 C 320.91 682.43 321.75 671.68 321.81 660.98 C 322.36 653.33 321.05 645.69 321.70 638.04 C 321.66 627.65 322.39 617.27 321.71 606.88 C 321.17 601.57 322.45 596.27 321.77 590.97 C 321.20 582.58 323.30 574.11 321.64 565.80 C 321.36 560.67 322.14 555.31 319.33 550.68 Z" />
    <path fill="#dddedc" opacity="1.00"
      d=" M 376.62 550.61 C 381.05 547.72 386.36 550.39 391.20 549.11 C 391.85 549.64 392.52 550.17 393.18 550.70 C 391.35 553.81 388.64 557.13 389.50 560.98 C 390.54 565.61 389.32 570.32 389.71 575.00 C 390.16 578.04 388.83 581.02 389.35 584.08 C 390.42 591.67 390.20 599.40 389.32 606.99 C 389.22 612.29 390.70 617.60 389.54 622.88 C 389.04 632.57 389.46 642.27 389.98 651.96 C 390.32 655.27 388.90 658.55 389.73 661.85 C 390.90 668.95 388.28 676.05 389.58 683.16 C 390.12 685.79 389.96 688.48 389.27 691.08 C 389.75 692.42 390.23 693.78 390.71 695.14 C 389.89 696.19 389.08 697.24 388.28 698.31 C 388.79 703.05 389.28 707.80 389.80 712.55 C 390.11 716.24 392.57 719.32 393.11 722.95 C 392.32 724.71 390.40 724.25 388.87 724.12 C 385.15 723.29 381.14 725.39 377.71 723.09 C 376.01 723.91 374.25 724.00 372.69 722.78 C 369.20 725.12 364.70 724.40 360.81 723.63 C 361.85 717.08 364.41 710.73 364.03 704.01 C 363.43 688.72 364.09 673.36 362.93 658.12 C 363.96 650.78 364.32 643.33 363.74 635.94 C 363.24 629.90 365.35 623.80 363.78 617.83 C 362.48 612.97 364.14 608.05 363.86 603.14 C 364.02 595.30 364.19 587.44 363.69 579.61 C 364.36 571.40 363.58 563.19 364.01 554.98 C 362.84 553.70 361.56 552.49 360.64 551.01 C 362.23 549.10 364.77 549.51 366.96 549.47 C 370.20 549.58 373.64 548.99 376.62 550.61 Z" />
    <path fill="#dddedc" opacity="1.00"
      d=" M 516.29 550.70 C 519.52 548.49 523.45 550.36 527.00 549.34 C 542.36 549.98 557.71 549.42 573.08 549.52 C 577.93 549.51 581.09 553.80 583.74 557.30 C 585.67 560.01 589.40 561.50 590.12 565.02 C 589.81 569.58 591.23 574.12 590.19 578.65 C 588.82 586.39 590.44 594.37 588.41 602.01 C 588.74 603.65 589.66 605.14 590.26 606.71 C 589.45 619.43 589.81 632.20 589.08 644.93 C 591.44 666.74 588.46 688.73 590.04 710.60 C 585.30 715.05 580.86 719.86 575.94 724.10 C 566.66 724.58 557.35 723.60 548.06 724.15 C 534.34 723.66 520.62 724.57 506.91 724.16 C 504.31 724.05 501.59 724.62 499.18 723.39 C 502.39 715.72 503.95 707.28 502.87 699.00 C 502.49 680.14 503.05 661.26 502.56 642.42 C 503.16 625.62 502.03 608.84 502.75 592.06 C 502.62 583.38 503.16 574.66 502.24 566.01 C 502.43 560.51 502.52 554.95 500.03 549.87 C 502.59 549.33 505.22 549.48 507.77 550.04 C 510.64 549.41 513.66 549.14 516.29 550.70 M 531.79 576.74 C 529.03 580.51 528.78 585.50 528.75 590.02 C 528.96 595.16 527.05 600.38 528.81 605.43 C 530.00 608.32 529.41 611.32 528.51 614.20 C 527.11 618.21 529.88 622.10 529.63 626.14 C 528.54 637.39 531.04 648.80 528.82 659.97 C 529.71 670.29 528.31 680.64 528.82 690.98 C 529.04 694.50 532.24 697.98 535.94 697.56 C 544.00 697.53 552.07 697.45 560.13 697.83 C 562.38 694.29 564.27 690.33 564.01 686.02 C 563.80 666.08 564.44 646.11 563.57 626.18 C 564.38 610.87 563.85 595.52 564.00 580.20 C 562.36 578.75 560.65 577.40 558.85 576.17 C 553.67 575.99 548.44 576.62 543.31 575.81 C 539.54 576.88 535.60 576.18 531.79 576.74 Z" />
    <path fill="#dddedc" opacity="1.00"
      d=" M 171.97 551.85 C 173.39 550.56 175.32 550.14 177.07 549.49 C 180.64 550.78 184.32 549.15 187.99 549.48 C 197.99 549.23 207.98 549.95 217.98 549.69 C 218.76 549.89 220.31 550.29 221.09 550.49 C 224.85 549.17 229.04 549.17 232.90 549.83 C 236.77 552.27 239.99 555.61 243.34 558.70 C 247.31 562.29 246.79 568.16 246.48 572.99 C 246.81 580.35 246.76 587.72 246.75 595.09 C 246.65 599.55 248.81 603.57 249.79 607.82 C 249.54 608.21 249.06 608.98 248.82 609.37 C 238.71 609.60 228.60 609.39 218.49 609.49 C 218.14 608.99 217.44 608.01 217.09 607.52 C 218.09 604.36 219.64 601.41 220.65 598.27 C 220.99 592.08 220.42 585.86 221.08 579.68 C 219.46 578.68 217.93 577.53 216.50 576.28 C 208.06 575.95 199.62 576.35 191.18 576.61 C 189.28 577.56 187.66 579.00 185.89 580.18 C 187.23 587.01 185.96 594.02 186.81 600.91 C 186.29 615.93 186.25 630.98 186.20 646.02 C 185.49 654.35 186.11 662.68 185.79 671.02 C 186.63 678.57 186.49 686.17 186.22 693.75 C 187.73 695.00 189.23 696.25 190.75 697.50 C 199.39 697.49 208.03 697.52 216.67 697.48 C 218.22 696.03 219.98 694.58 220.57 692.45 C 221.40 682.57 219.76 672.50 221.52 662.70 C 216.08 663.13 210.63 663.39 205.18 663.20 C 203.02 654.24 201.62 645.15 200.32 636.04 C 200.66 635.42 201.33 634.17 201.67 633.55 C 205.20 634.82 208.57 636.54 212.16 637.68 C 219.45 636.86 226.76 638.29 234.05 637.38 C 239.33 638.00 244.69 636.54 249.89 637.90 C 249.69 643.42 246.23 648.34 246.73 653.94 C 246.93 672.44 246.38 690.96 247.15 709.44 C 245.17 713.43 241.51 716.22 238.44 719.34 C 236.26 721.09 234.37 723.84 231.32 723.94 C 219.18 724.35 207.03 724.32 194.89 724.05 C 186.99 723.85 178.55 725.56 171.13 722.06 C 167.24 718.28 163.58 714.24 160.16 710.03 C 161.15 697.58 158.79 684.99 160.80 672.60 C 159.07 642.83 160.59 612.95 159.82 583.15 C 159.39 576.53 160.43 569.92 159.74 563.32 C 163.43 559.10 167.71 555.47 171.97 551.85 Z" />
    <path fill="#dddedc" opacity="1.00"
      d=" M 405.76 549.76 C 412.17 548.95 418.62 550.33 425.04 549.61 C 429.82 550.32 434.70 548.80 439.37 550.50 C 438.37 553.21 437.01 555.79 436.49 558.66 C 436.23 558.90 435.73 559.39 435.47 559.64 C 435.11 566.48 434.62 573.36 435.31 580.22 C 434.64 599.38 435.01 618.64 435.65 637.77 C 434.58 656.42 436.14 675.08 435.16 693.73 C 436.99 695.23 438.81 696.75 440.67 698.22 C 442.75 697.78 444.85 697.41 446.99 697.48 C 459.84 697.54 472.71 697.41 485.55 697.60 C 488.76 696.80 493.13 693.44 495.95 696.26 C 494.45 705.16 493.27 714.13 492.54 723.13 C 491.08 723.56 489.64 724.17 488.11 724.23 C 475.40 723.73 462.68 724.11 449.97 724.22 C 445.98 724.02 441.99 723.18 438.03 724.13 C 427.27 724.20 416.50 723.68 405.74 724.25 C 405.86 721.88 406.84 719.75 408.15 717.82 C 410.43 710.60 408.43 703.10 409.32 695.72 C 409.67 692.73 408.92 689.78 408.53 686.84 C 407.90 683.57 409.21 680.35 409.01 677.07 C 408.79 668.43 409.52 659.74 408.37 651.15 C 407.44 643.65 410.79 636.14 408.42 628.75 C 409.40 618.89 408.87 608.90 409.00 598.98 C 408.87 592.40 409.43 585.78 408.34 579.26 C 408.59 572.84 408.13 566.42 408.30 560.00 C 407.58 556.55 406.16 553.27 405.76 549.76 Z" />
  </g>
</svg>