<?xml version="1.0" encoding="UTF-8"?>
<!DOCTYPE svg PUBLIC "-//W3C//DTD SVG 1.1//EN" "http://www.w3.org/Graphics/SVG/1.1/DTD/svg11.dtd">
<svg viewBox="0 0 1024 576" version="1.1" xmlns="http://www.w3.org/2000/svg">
  <g id="#ffffffff">
    <path fill="#ffffff" opacity="1.00"
      d=" M 313.45 151.58 C 315.97 143.94 323.75 137.67 332.00 138.35 C 342.61 137.69 351.64 147.70 351.51 158.00 C 351.49 204.67 351.52 251.33 351.52 298.00 C 351.43 303.88 351.71 309.77 351.34 315.64 C 361.09 316.04 370.98 314.73 380.60 316.63 C 387.01 319.11 392.85 324.90 393.77 331.91 C 393.77 334.53 393.87 337.17 393.56 339.78 C 391.61 346.34 386.80 352.33 379.94 354.07 C 370.54 356.19 360.85 354.70 351.32 355.32 C 351.66 367.88 351.39 380.44 351.48 393.00 C 351.37 397.48 351.99 402.14 350.32 406.43 C 348.86 410.50 345.66 413.67 342.30 416.25 C 338.49 419.15 333.48 418.86 328.96 418.70 C 324.19 418.53 320.18 415.40 317.08 412.02 C 314.23 408.32 312.32 403.69 312.35 398.97 C 312.24 386.99 312.47 375.00 312.22 363.03 C 312.14 360.47 312.86 357.70 311.80 355.29 C 303.23 355.05 294.61 355.75 286.07 354.96 C 280.91 354.58 276.42 351.75 273.02 348.00 C 268.51 342.58 267.09 334.58 270.10 328.11 C 272.70 321.31 279.61 316.17 286.95 316.02 C 295.20 315.36 303.50 315.86 311.77 315.70 C 311.90 315.28 312.16 314.43 312.29 314.00 C 312.33 264.01 312.26 214.01 312.25 164.01 C 312.38 159.86 311.78 155.51 313.45 151.58 Z" />
    <path fill="#ffffff" opacity="1.00"
      d=" M 947.64 223.60 C 949.30 220.91 952.90 220.88 955.66 221.43 C 959.13 222.34 960.44 226.59 960.02 229.79 C 954.70 238.33 948.29 246.15 942.19 254.15 C 940.20 257.10 936.49 257.99 933.16 257.19 C 928.88 255.19 927.98 249.36 930.90 245.86 C 936.41 238.39 942.17 231.10 947.64 223.60 Z" />
    <path fill="#ffffff" opacity="1.00"
      d=" M 659.07 238.15 C 666.54 234.72 675.79 241.05 675.80 249.17 C 675.85 250.21 675.01 252.75 676.79 252.65 C 677.73 252.05 678.15 250.95 678.78 250.07 C 681.80 245.72 684.68 240.50 690.09 238.85 C 696.13 237.08 702.73 242.79 701.90 249.01 C 700.61 255.27 695.20 259.58 691.77 264.71 C 689.20 267.58 687.74 271.28 684.95 273.94 C 683.06 275.81 682.00 278.30 680.32 280.33 C 678.96 282.29 677.07 283.94 676.21 286.20 C 675.34 290.94 676.46 295.84 675.44 300.56 C 673.96 304.30 671.31 308.35 666.96 308.87 C 663.04 310.10 659.07 308.49 656.01 306.07 C 650.97 301.43 652.33 294.16 652.15 288.00 C 651.75 275.33 651.74 262.64 651.81 249.96 C 651.84 245.05 654.53 240.24 659.07 238.15 Z" />
    <path fill="#ffffff" opacity="1.00"
      d=" M 717.38 237.56 C 719.49 237.26 721.65 237.32 723.78 237.47 C 728.82 239.11 732.33 244.06 732.73 249.35 C 732.81 249.98 732.97 251.26 733.05 251.89 C 734.39 252.80 735.31 250.94 735.74 249.95 C 738.81 246.03 741.12 240.72 746.27 239.13 C 752.05 236.79 759.19 241.72 758.82 248.04 C 759.09 251.75 756.33 254.58 754.38 257.42 C 751.82 261.13 748.82 264.50 746.20 268.17 C 743.06 271.49 741.34 275.84 738.18 279.14 C 736.46 281.45 734.34 283.56 733.09 286.18 C 731.79 292.19 734.59 299.25 730.46 304.51 C 726.53 310.01 717.80 310.85 712.95 306.11 C 709.27 302.77 708.81 297.66 708.86 292.99 C 708.80 278.99 708.69 264.99 708.67 250.99 C 708.59 245.39 711.76 239.26 717.38 237.56 Z" />
    <path fill="#ffffff" opacity="1.00"
      d=" M 956.53 262.00 C 957.16 246.00 974.37 233.40 989.82 237.30 C 996.97 238.39 1002.91 243.26 1007.00 249.01 C 1008.94 250.57 1008.86 253.22 1009.80 255.36 C 1010.81 259.46 1010.59 263.75 1010.09 267.90 C 1009.42 268.65 1008.74 269.38 1008.05 270.10 C 1003.71 272.32 998.73 271.20 995.30 267.91 C 995.20 267.47 995.00 266.58 994.89 266.13 C 994.42 261.86 993.17 256.95 988.81 255.09 C 984.32 252.17 977.32 254.18 975.13 259.03 C 976.37 261.71 979.99 262.43 982.60 263.39 C 985.45 266.14 989.71 266.96 992.91 269.37 C 994.77 270.84 996.77 272.13 998.96 273.05 C 1002.82 274.58 1005.65 277.73 1009.04 280.02 C 1011.03 284.12 1010.34 288.71 1010.04 293.08 C 1008.36 295.82 1008.21 299.49 1005.56 301.59 C 1002.60 303.91 1000.57 307.34 997.12 309.02 C 990.90 311.83 983.82 312.18 977.18 311.02 C 971.03 309.70 966.30 305.36 961.98 301.10 C 958.55 296.17 955.92 290.08 956.65 283.94 C 956.97 282.12 957.21 279.96 959.11 279.07 C 961.74 277.46 964.90 277.17 967.91 277.70 C 970.37 278.64 971.15 281.39 973.01 283.03 C 973.26 287.73 975.78 292.75 980.39 294.47 C 983.56 295.01 987.41 295.40 990.02 293.09 C 990.81 292.46 991.55 291.77 992.24 291.02 C 993.60 289.65 992.61 287.60 990.94 287.12 C 980.84 282.38 971.18 276.75 961.11 271.97 C 957.82 269.86 956.20 265.83 956.53 262.00 Z" />
    <path fill="#ffffff" opacity="1.00"
      d=" M 845.89 239.93 C 849.06 237.90 853.05 237.80 856.66 238.49 C 861.51 240.15 864.49 245.12 864.81 250.10 C 864.76 256.37 864.32 262.68 864.95 268.92 C 867.02 267.40 868.32 265.11 869.90 263.12 C 871.99 260.56 874.23 257.85 877.34 256.53 C 880.66 256.29 884.39 255.72 887.28 257.78 C 890.67 259.74 892.33 263.36 894.70 266.31 C 895.74 267.37 895.76 269.77 897.63 269.67 C 897.22 264.12 897.56 258.56 897.46 253.01 C 897.46 249.49 897.24 245.51 899.71 242.68 C 903.15 237.35 911.00 236.88 916.11 239.93 C 918.83 242.25 920.19 245.67 921.05 249.05 C 921.17 265.37 920.63 281.70 920.69 298.03 C 921.06 302.98 917.08 306.69 913.34 309.23 C 908.43 310.75 902.83 309.58 899.63 305.36 C 893.61 297.40 887.83 289.23 881.68 281.38 C 880.17 281.00 879.40 282.63 878.62 283.57 C 873.50 290.76 868.11 297.75 862.75 304.74 C 858.53 310.01 850.26 311.87 845.00 307.08 C 841.92 304.73 840.89 300.70 840.63 297.03 C 840.63 282.01 840.67 266.99 840.79 251.98 C 840.71 247.47 842.52 242.95 845.89 239.93 Z" />
    <path fill="#ffffff" opacity="1.00"
      d=" M 483.90 240.92 C 488.99 236.97 497.23 237.50 501.22 242.78 C 507.35 250.03 512.76 257.91 518.46 265.51 C 518.96 266.40 519.70 266.78 520.69 266.66 C 523.51 263.16 525.64 259.07 528.96 256.00 C 530.74 252.90 532.93 250.07 535.35 247.46 C 537.41 242.86 541.52 238.24 546.99 238.44 C 550.51 238.26 554.79 238.89 556.77 242.19 C 558.65 244.40 559.48 247.26 559.79 250.10 C 559.64 261.73 559.86 273.37 559.90 285.00 C 559.89 291.01 560.80 297.20 558.94 303.05 C 558.21 306.26 554.87 307.64 552.42 309.37 C 548.20 310.75 543.72 309.13 540.04 307.01 C 538.20 305.56 537.21 303.39 536.85 301.13 C 536.35 293.52 536.59 285.86 536.69 278.24 C 534.73 278.40 533.64 280.19 533.14 281.90 C 531.91 284.58 529.43 286.38 527.90 288.88 C 524.88 292.26 519.73 292.02 515.66 291.23 C 510.67 288.36 508.21 282.55 503.93 279.12 C 503.25 285.70 503.96 292.34 503.65 298.95 C 503.61 302.49 501.26 305.47 498.90 307.89 C 494.95 310.78 489.71 310.06 485.32 308.73 C 481.92 305.40 479.63 300.85 479.75 296.02 C 479.65 280.67 479.55 265.32 479.63 249.98 C 480.25 246.71 481.01 242.99 483.90 240.92 Z" />
    <path fill="#ffffff" opacity="1.00"
      d=" M 396.80 270.98 C 398.14 252.51 416.71 237.63 435.03 239.98 C 447.94 241.56 459.78 250.52 464.10 262.89 C 466.09 270.83 467.27 279.75 463.49 287.36 C 458.72 301.01 444.28 310.18 429.95 309.38 C 424.84 308.39 419.34 308.20 414.90 305.15 C 410.24 302.67 406.12 299.22 403.08 294.88 C 398.08 288.03 396.08 279.35 396.80 270.98 M 426.86 266.93 C 421.69 270.04 420.97 279.33 426.89 281.76 C 430.69 284.93 437.90 283.07 439.12 278.05 C 440.65 275.39 440.20 270.67 437.42 268.58 C 434.92 265.52 430.16 265.56 426.86 266.93 Z" />
    <path fill="#ffffff" opacity="1.00"
      d=" M 573.12 273.99 C 572.76 256.64 587.89 241.09 604.99 239.91 C 620.05 238.61 635.63 248.36 640.29 262.90 C 641.74 268.14 643.12 273.56 642.17 279.05 C 640.39 296.78 622.84 311.30 605.03 309.24 C 601.70 308.50 598.23 308.31 595.06 306.98 C 588.46 304.60 582.95 299.75 578.97 294.05 C 575.15 288.13 572.59 281.13 573.12 273.99 M 602.51 267.53 C 600.82 269.32 598.81 271.30 599.25 274.00 C 598.84 277.05 600.41 281.25 603.65 281.88 C 608.26 285.77 616.80 281.19 616.28 275.01 C 617.37 267.83 607.88 263.52 602.51 267.53 Z" />
    <path fill="#ffffff" opacity="1.00"
      d=" M 785.58 241.48 C 802.24 235.60 821.93 245.67 828.06 262.00 C 830.37 269.58 831.59 277.94 828.62 285.54 C 825.36 295.34 817.66 303.57 807.89 307.06 C 800.06 310.70 791.00 309.60 783.05 306.99 C 776.53 304.86 771.54 299.91 767.19 294.82 C 764.45 290.24 762.40 285.24 761.31 280.03 C 760.13 273.48 761.68 266.88 763.76 260.68 C 767.98 251.68 775.87 244.15 785.58 241.48 M 791.48 266.53 C 790.27 267.96 788.95 269.29 787.52 270.49 C 786.78 274.35 786.68 280.08 791.04 281.70 L 791.20 282.47 C 796.69 285.03 804.44 281.56 804.23 275.00 C 804.89 271.25 802.25 268.56 799.50 266.56 C 796.88 265.95 794.11 266.05 791.48 266.53 Z" />
    <path fill="#ffffff" opacity="1.00"
      d=" M 193.22 300.14 C 197.30 304.56 199.19 310.48 200.49 316.22 C 200.70 321.74 200.72 327.26 200.49 332.77 C 198.39 341.47 196.54 351.23 189.38 357.35 C 187.59 359.23 184.72 359.17 182.39 358.54 C 177.21 354.25 175.91 347.28 174.76 341.01 C 173.76 328.36 175.18 314.56 182.88 304.07 C 182.35 307.83 183.27 311.93 181.57 315.43 C 181.28 319.25 181.55 323.11 181.17 326.94 C 180.40 328.66 177.80 328.41 177.05 330.25 C 175.45 332.89 177.37 336.76 180.66 336.37 C 180.56 340.60 181.48 344.71 181.67 348.92 C 182.21 352.88 187.88 354.43 190.27 351.24 C 193.25 347.19 193.27 341.87 194.06 337.16 C 196.26 336.44 198.64 335.43 199.28 332.95 C 199.71 330.01 197.10 327.78 194.35 327.63 C 194.38 318.43 194.59 309.24 193.22 300.14 Z" />
    <path fill="#ffffff" opacity="1.00"
      d=" M 67.06 303.01 C 67.48 302.22 68.07 301.59 68.82 301.11 C 68.31 309.92 68.32 318.76 68.62 327.57 C 65.64 327.54 62.83 329.67 63.01 332.84 L 62.16 332.86 C 61.22 322.82 61.30 311.72 67.06 303.01 Z" />
    <path fill="#ffffff" opacity="1.00"
      d=" M 79.15 304.23 C 79.96 304.61 80.56 305.19 80.96 305.99 C 86.27 314.31 87.69 324.38 88.23 334.04 C 87.28 341.81 87.41 350.61 81.80 356.80 C 79.90 359.48 75.83 359.55 73.39 357.61 C 68.32 353.76 66.05 347.52 64.21 341.67 C 63.54 339.13 62.46 336.55 62.76 333.88 C 64.65 335.13 66.25 336.79 68.59 337.24 C 69.40 341.87 68.87 347.10 71.98 351.01 C 73.75 353.59 78.33 353.64 79.84 350.76 C 82.62 346.69 81.16 341.63 81.80 337.08 C 83.33 335.82 86.01 335.50 85.94 332.89 C 86.60 329.85 83.64 328.56 81.38 327.64 C 81.27 322.73 80.58 317.85 80.57 312.93 C 80.72 309.94 79.08 307.24 79.15 304.23 Z" />
    <path fill="#ffffff" opacity="1.00"
      d=" M 555.62 330.45 C 558.24 326.25 562.90 322.93 568.06 323.82 C 574.18 324.21 578.48 330.32 578.79 336.11 C 578.72 348.76 578.45 361.44 578.87 374.08 C 578.99 374.51 579.22 375.35 579.33 375.77 C 583.44 375.59 587.61 375.34 591.67 376.19 C 595.96 377.99 599.29 382.21 598.95 387.00 C 599.03 391.86 595.67 396.28 591.35 398.25 C 587.11 399.49 582.65 398.96 578.30 399.31 C 578.56 404.99 579.38 412.30 573.95 415.95 C 569.80 419.79 563.30 419.48 558.95 416.16 C 553.92 412.11 554.18 405.10 554.66 399.28 L 553.84 399.22 C 548.72 399.20 543.31 399.14 538.90 396.18 C 535.80 394.12 535.51 390.28 534.66 387.00 C 535.56 384.02 535.53 380.32 538.39 378.40 C 542.87 374.44 549.10 374.70 554.68 374.69 C 554.35 362.80 554.66 350.90 554.56 339.01 C 554.44 336.11 554.84 333.23 555.62 330.45 Z" />
    <path fill="#ffffff" opacity="1.00"
      d=" M 488.29 337.13 C 489.49 332.67 493.08 329.21 497.20 327.46 C 499.72 327.18 502.28 327.17 504.80 327.45 C 509.46 329.15 513.04 333.10 514.15 338.01 C 515.80 345.83 509.12 354.19 501.05 353.79 C 497.60 353.99 494.62 352.04 491.95 350.12 C 488.69 346.71 487.13 341.74 488.29 337.13 Z" />
    <path fill="#ffffff" opacity="1.00"
      d=" M 625.36 327.56 C 628.09 327.14 630.90 327.11 633.63 327.53 C 638.70 329.56 643.07 334.21 642.89 339.96 C 643.76 348.78 633.91 356.17 625.66 353.22 C 624.12 352.56 622.71 351.66 621.26 350.87 C 618.57 348.26 616.56 344.84 616.58 341.00 C 616.05 335.16 620.15 329.76 625.36 327.56 Z" />
    <path fill="#ffffff" opacity="1.00"
      d=" M 428.01 336.70 C 430.35 336.51 432.70 336.42 434.97 335.75 C 444.87 335.05 454.84 338.29 462.58 344.47 C 464.37 345.80 465.40 347.86 466.04 349.95 C 467.32 354.42 465.40 359.04 462.23 362.20 C 459.46 365.72 454.32 365.26 450.40 364.48 C 446.91 363.15 444.01 360.17 440.05 360.18 C 433.57 358.98 426.75 361.53 422.82 366.84 C 417.21 373.31 417.84 384.04 423.73 390.15 C 428.22 395.55 435.77 397.18 442.39 395.40 C 448.33 394.65 452.63 388.36 458.98 389.80 C 464.93 390.87 468.74 397.34 467.24 403.11 C 463.75 411.00 456.21 417.15 447.74 418.85 C 430.25 423.98 410.33 415.48 401.02 400.02 C 394.84 389.94 392.88 377.11 396.69 365.83 C 400.72 351.34 413.34 339.75 428.01 336.70 Z" />
    <path fill="#ffffff" opacity="1.00"
      d=" M 675.44 342.58 C 680.54 341.41 685.80 341.81 691.00 341.72 C 700.67 341.67 710.35 341.62 720.02 341.66 C 726.63 341.58 733.42 347.05 733.02 353.99 C 732.88 356.90 732.52 360.10 730.15 362.12 C 720.70 371.36 712.00 381.31 702.81 390.81 C 702.22 391.73 700.62 392.52 701.17 393.80 C 708.07 394.10 715.01 393.33 721.88 394.14 C 727.38 395.20 732.40 400.18 731.94 406.01 C 732.39 410.05 729.67 413.30 726.94 415.89 C 722.66 418.05 717.70 418.21 713.00 418.16 C 702.33 418.17 691.66 418.17 680.99 418.26 C 677.57 418.32 674.10 417.72 671.13 415.99 C 668.71 413.19 666.10 409.94 666.49 405.99 C 666.33 402.91 667.95 400.14 669.94 397.93 C 677.10 390.47 684.46 383.12 691.16 375.27 C 693.70 372.36 697.70 370.03 698.79 366.25 C 692.17 366.39 685.55 366.38 678.93 366.35 C 676.39 366.49 674.19 365.19 672.03 364.07 C 667.45 360.85 665.79 354.16 668.19 349.10 C 669.17 345.73 672.58 344.10 675.44 342.58 Z" />
    <path fill="#ffffff" opacity="1.00"
      d=" M 778.99 342.98 C 786.69 340.43 794.87 342.22 802.29 344.86 C 810.10 349.48 817.21 356.09 820.11 364.92 C 822.16 371.32 822.97 378.12 821.59 384.75 C 820.21 385.56 818.55 385.31 817.04 385.40 C 803.68 385.35 790.32 385.25 776.96 385.27 C 774.32 384.91 772.20 386.73 770.77 388.72 C 769.02 392.22 770.70 397.32 774.93 397.88 C 777.55 398.64 780.30 398.34 783.00 398.40 C 794.89 398.33 806.80 398.61 818.69 398.33 C 819.25 401.34 818.56 404.36 817.16 407.05 C 809.83 415.63 798.08 419.57 787.00 419.10 C 775.17 419.04 763.83 412.55 756.95 403.05 C 750.53 394.55 749.43 383.32 750.88 373.06 C 751.64 369.50 752.96 366.07 754.83 362.94 C 759.20 353.03 768.51 345.52 778.99 342.98 M 770.51 364.47 C 770.15 366.46 770.15 368.54 770.52 370.54 C 771.86 371.76 772.83 373.80 774.88 373.86 C 778.14 374.89 781.63 374.26 785.00 374.42 C 788.73 374.23 792.79 375.11 796.22 373.19 C 797.23 372.16 799.30 370.80 798.16 369.15 L 799.16 368.98 C 800.27 364.66 796.24 360.31 791.97 360.39 C 786.99 360.39 782.00 360.37 777.03 360.41 C 774.17 360.18 772.23 362.57 770.51 364.47 Z" />
    <path fill="#ffffff" opacity="1.00"
      d=" M 934.12 356.05 C 938.94 348.80 947.09 343.28 956.03 343.43 C 959.98 343.50 964.37 343.02 967.91 345.12 C 970.52 347.21 973.83 348.31 976.08 350.90 C 982.09 356.49 985.34 365.02 984.18 373.20 C 982.28 377.91 976.09 379.80 971.80 377.21 C 969.82 375.22 968.15 372.88 967.86 370.01 C 968.09 365.81 964.83 362.60 961.48 360.62 C 956.88 359.23 949.92 360.59 948.70 365.95 C 950.67 368.38 954.10 368.67 956.75 370.09 C 960.04 372.77 964.19 373.99 967.74 376.28 C 968.95 377.12 970.32 377.64 971.77 377.98 C 975.86 380.24 979.78 382.77 983.06 386.14 C 983.25 386.68 983.63 387.77 983.81 388.31 C 985.04 392.28 983.74 396.25 983.23 400.21 C 978.94 413.38 962.67 422.01 949.51 416.74 C 946.48 415.98 943.53 414.81 941.01 412.96 C 938.33 410.63 936.59 407.45 934.04 405.00 C 931.66 400.70 929.56 395.99 930.19 390.94 C 929.90 387.52 932.61 385.06 935.07 383.18 C 938.53 383.76 942.30 383.27 945.05 385.94 C 947.71 389.09 945.93 394.18 949.16 396.86 C 951.94 401.60 959.01 402.90 963.27 399.38 C 964.66 398.67 966.14 397.69 966.38 395.99 C 966.34 394.49 964.65 394.05 963.65 393.35 C 957.71 390.72 952.25 387.12 946.17 384.80 C 943.11 382.02 939.16 380.60 935.84 378.22 C 933.90 377.16 932.95 375.05 931.19 373.79 C 929.43 370.73 930.27 366.88 930.62 363.54 C 932.32 361.32 932.57 358.37 934.12 356.05 Z" />
    <path fill="#ffffff" opacity="1.00"
      d=" M 849.35 345.50 C 851.76 345.19 854.22 345.20 856.64 345.56 C 859.07 346.50 860.95 348.42 862.72 350.29 C 871.81 360.48 881.28 370.33 890.37 380.51 C 890.72 380.60 891.42 380.76 891.77 380.84 C 891.71 373.56 891.70 366.28 891.66 359.00 C 891.59 355.35 892.41 351.51 894.59 348.52 C 897.46 346.69 900.31 344.10 903.99 344.51 C 910.54 344.69 915.96 350.52 915.73 357.12 C 915.55 371.42 915.70 385.72 915.80 400.02 C 915.77 403.17 916.00 406.50 914.51 409.39 C 912.08 415.85 903.56 418.06 897.65 415.30 C 893.63 413.11 891.50 408.83 888.12 405.89 C 881.89 399.11 875.67 392.32 869.37 385.61 C 867.97 384.34 867.03 381.82 864.89 381.90 C 864.25 389.84 864.98 397.84 864.63 405.81 C 864.37 412.48 857.70 418.38 850.97 417.07 C 848.68 416.81 846.90 415.26 844.98 414.16 C 840.27 409.75 840.68 402.91 840.75 397.00 C 840.66 383.99 840.63 370.98 840.63 357.97 C 840.62 352.45 844.04 347.24 849.35 345.50 Z" />
    <path fill="#ffffff" opacity="1.00"
      d=" M 495.32 358.16 C 498.82 356.90 502.74 356.81 506.33 357.78 C 507.91 358.82 509.31 360.13 510.77 361.35 C 512.85 363.46 512.86 366.49 513.66 369.19 C 513.52 381.46 513.71 393.74 513.67 406.02 C 513.70 410.06 511.87 414.11 508.49 416.42 C 504.26 419.71 498.42 418.63 494.15 416.01 C 489.91 413.15 489.38 407.73 489.36 403.04 C 489.38 391.70 489.21 380.36 489.30 369.03 C 489.32 364.60 491.77 360.67 495.32 358.16 Z" />
    <path fill="#ffffff" opacity="1.00"
      d=" M 624.22 357.99 C 629.34 356.28 635.20 356.95 639.02 361.03 C 640.56 363.43 641.92 365.99 642.04 368.90 C 642.31 380.26 642.17 391.63 642.30 403.00 C 642.35 407.58 641.80 412.90 637.69 415.74 C 633.51 419.92 626.86 418.78 622.28 415.93 C 619.83 413.21 618.02 409.79 618.08 406.05 C 617.48 395.39 617.89 384.68 617.69 374.00 C 617.23 368.05 618.90 361.39 624.22 357.99 Z" />
  </g>
  <g id="#000000fe">
    <path fill="#000000" opacity="1.00"
      d=" M 351.94 155.98 C 354.90 156.92 354.86 160.69 355.60 163.20 C 355.77 213.74 355.59 264.29 355.75 314.83 C 354.60 315.56 353.34 315.66 351.96 315.12 C 351.45 312.78 351.74 310.37 351.68 308.00 C 351.68 269.33 351.68 230.67 351.67 192.00 C 351.85 180.00 351.30 167.96 351.94 155.98 Z" />
    <path fill="#000000" opacity="1.00"
      d=" M 675.80 249.17 C 676.79 249.40 677.78 249.70 678.78 250.07 C 678.15 250.95 677.73 252.05 676.79 252.65 C 675.01 252.75 675.85 250.21 675.80 249.17 Z" />
    <path fill="#000000" opacity="1.00"
      d=" M 732.73 249.35 C 733.73 249.45 734.73 249.65 735.74 249.95 C 735.31 250.94 734.39 252.80 733.05 251.89 C 732.97 251.26 732.81 249.98 732.73 249.35 Z" />
  </g>
  <g id="#000000ff">
    <path fill="#000000" opacity="1.00"
      d=" M 81.94 193.89 C 101.12 182.71 124.05 176.74 146.16 180.87 C 174.31 186.45 199.68 203.27 217.12 225.88 C 225.57 237.20 232.50 250.03 235.11 264.04 C 237.82 276.42 237.75 289.20 238.24 301.84 C 240.76 301.51 243.29 301.06 245.83 301.38 C 251.22 302.80 254.61 308.07 255.58 313.34 C 256.81 320.21 256.22 327.40 254.19 334.03 C 251.79 344.41 247.21 354.34 241.02 363.01 C 237.36 367.64 233.26 372.35 227.69 374.69 C 226.59 375.22 225.19 375.57 224.82 376.92 C 217.15 394.45 205.18 410.56 188.84 420.87 C 174.76 430.32 157.77 434.56 140.98 435.33 C 128.32 435.24 115.47 436.10 103.10 432.94 C 86.20 429.55 70.52 420.80 58.40 408.59 C 50.10 399.82 43.37 389.60 38.41 378.60 C 37.85 377.53 37.50 376.29 36.58 375.47 C 28.49 372.65 22.94 365.53 18.40 358.61 C 11.04 346.44 5.76 332.33 6.23 317.93 C 6.39 312.17 8.18 305.55 13.65 302.64 C 16.74 300.57 20.59 301.31 24.00 301.93 C 24.74 298.33 24.14 294.60 24.36 290.94 C 25.31 278.77 25.73 266.36 29.73 254.69 C 38.68 228.77 58.44 207.51 81.94 193.89 M 102.88 194.90 C 98.52 195.46 94.87 198.12 90.94 199.86 C 69.25 211.14 50.73 229.39 40.97 251.98 C 38.11 258.12 36.71 264.80 35.57 271.44 C 33.94 286.88 33.26 302.50 34.30 318.03 C 34.32 328.44 36.75 338.61 38.41 348.85 C 42.28 363.56 47.40 378.26 56.19 390.82 C 57.04 391.93 57.64 393.36 58.93 394.02 C 63.79 401.29 70.46 407.59 77.94 412.10 C 88.76 419.97 102.14 423.67 115.25 425.52 C 122.84 425.57 130.41 426.98 138.00 426.02 C 141.94 425.32 146.03 426.09 149.89 424.91 C 154.25 423.85 159.33 424.14 163.18 421.92 C 176.26 418.68 188.16 411.15 197.53 401.54 C 216.33 381.44 224.90 353.84 227.34 326.92 C 228.90 315.02 228.29 302.99 228.33 291.02 C 227.76 281.78 227.51 272.47 225.41 263.41 C 221.89 251.33 216.34 239.66 208.12 230.05 C 199.94 219.45 189.61 210.32 178.00 203.65 C 171.03 198.85 162.99 195.72 155.02 192.98 C 138.16 187.45 119.18 187.73 102.88 194.90 M 16.49 313.39 C 14.51 321.08 16.37 329.13 18.56 336.57 C 21.69 345.20 25.57 353.96 31.86 360.72 C 27.13 345.78 25.23 330.01 24.58 314.37 C 23.29 311.55 17.60 309.13 16.49 313.39 M 238.40 313.35 C 236.95 318.07 238.25 323.18 236.94 327.98 C 236.29 338.76 233.64 349.28 231.12 359.73 C 231.38 359.56 231.91 359.21 232.17 359.04 C 239.80 349.10 244.54 337.12 246.59 324.80 C 246.51 320.29 247.64 315.19 244.65 311.33 C 242.35 310.37 240.12 311.99 238.40 313.35 Z" />
    <path fill="#000000" opacity="1.00"
      d=" M 942.19 254.15 C 948.29 246.15 954.70 238.33 960.02 229.79 C 964.40 231.35 965.35 237.20 962.66 240.67 C 957.50 247.82 952.07 254.76 946.85 261.86 C 944.89 265.26 941.07 266.41 937.37 265.61 C 934.46 263.72 932.54 260.76 933.16 257.19 C 936.49 257.99 940.20 257.10 942.19 254.15 Z" />
    <path fill="#000000" opacity="1.00"
      d=" M 758.82 248.04 C 762.72 250.50 763.47 255.52 762.59 259.69 C 760.30 263.64 757.11 266.97 754.84 270.93 C 754.02 272.67 751.97 273.34 751.15 275.08 C 747.38 280.92 743.17 286.44 738.86 291.90 C 735.71 294.70 737.29 299.34 736.95 303.02 C 737.31 307.78 735.48 312.69 731.63 315.60 C 727.30 318.21 721.24 318.05 717.40 314.62 C 714.59 312.68 714.02 309.10 712.95 306.11 C 717.80 310.85 726.53 310.01 730.46 304.51 C 734.59 299.25 731.79 292.19 733.09 286.18 C 734.34 283.56 736.46 281.45 738.18 279.14 C 741.34 275.84 743.06 271.49 746.20 268.17 C 748.82 264.50 751.82 261.13 754.38 257.42 C 756.33 254.58 759.09 251.75 758.82 248.04 Z" />
    <path fill="#000000" opacity="1.00"
      d=" M 701.90 249.01 C 706.48 250.73 706.47 256.41 705.27 260.35 C 702.96 263.91 700.52 267.45 697.55 270.49 C 695.39 274.23 692.82 277.70 689.94 280.91 C 687.10 285.31 683.96 289.51 680.46 293.41 C 679.60 298.92 681.26 304.78 679.04 310.07 C 676.61 314.30 672.24 318.28 666.97 317.33 C 661.01 316.92 656.93 311.65 656.01 306.07 C 659.07 308.49 663.04 310.10 666.96 308.87 C 671.31 308.35 673.96 304.30 675.44 300.56 C 676.46 295.84 675.34 290.94 676.21 286.20 C 677.07 283.94 678.96 282.29 680.32 280.33 C 682.00 278.30 683.06 275.81 684.95 273.94 C 687.74 271.28 689.20 267.58 691.77 264.71 C 695.20 259.58 700.61 255.27 701.90 249.01 Z" />
    <path fill="#000000" opacity="1.00"
      d=" M 921.05 249.05 C 924.28 252.11 925.39 256.67 925.28 261.00 C 925.15 275.68 924.95 290.37 924.84 305.06 C 924.99 309.17 923.38 313.52 919.87 315.88 C 916.33 319.17 910.73 318.16 906.76 316.26 C 901.30 311.93 898.34 305.39 893.84 300.19 C 890.80 296.80 888.91 292.09 885.03 289.67 C 880.05 294.49 876.79 300.91 871.98 305.95 C 868.38 311.54 863.56 318.72 855.97 318.02 C 850.12 318.11 845.33 312.72 845.00 307.08 C 850.26 311.87 858.53 310.01 862.75 304.74 C 868.11 297.75 873.50 290.76 878.62 283.57 C 879.40 282.63 880.17 281.00 881.68 281.38 C 887.83 289.23 893.61 297.40 899.63 305.36 C 902.83 309.58 908.43 310.75 913.34 309.23 C 917.08 306.69 921.06 302.98 920.69 298.03 C 920.63 281.70 921.17 265.37 921.05 249.05 Z" />
    <path fill="#000000" opacity="1.00"
      d=" M 559.79 250.10 C 562.63 251.34 563.72 255.03 563.73 257.94 C 563.87 272.96 563.99 287.98 564.20 303.00 C 564.33 307.98 563.07 313.78 558.54 316.58 C 555.53 317.56 552.33 318.98 549.16 317.80 C 544.14 316.63 541.13 311.73 540.04 307.01 C 543.72 309.13 548.20 310.75 552.42 309.37 C 554.87 307.64 558.21 306.26 558.94 303.05 C 560.80 297.20 559.89 291.01 559.90 285.00 C 559.86 273.37 559.64 261.73 559.79 250.10 Z" />
    <path fill="#000000" opacity="1.00"
      d=" M 864.81 250.10 C 869.91 252.44 867.78 259.03 869.90 263.12 C 868.32 265.11 867.02 267.40 864.95 268.92 C 864.32 262.68 864.76 256.37 864.81 250.10 Z" />
    <path fill="#000000" opacity="1.00"
      d=" M 975.13 259.03 C 977.32 254.18 984.32 252.17 988.81 255.09 C 993.17 256.95 994.42 261.86 994.89 266.13 C 993.20 261.00 986.54 261.08 982.60 263.39 C 979.99 262.43 976.37 261.71 975.13 259.03 Z" />
    <path fill="#000000" opacity="1.00"
      d=" M 1012.06 259.93 C 1014.58 262.99 1014.99 267.21 1015.32 271.03 C 1015.56 274.46 1013.19 277.16 1010.64 279.11 C 1010.24 279.14 1009.43 279.20 1009.02 279.23 C 1007.66 276.64 1004.07 275.89 1003.22 273.10 C 1004.95 272.31 1006.85 271.68 1008.05 270.10 C 1008.74 269.38 1009.42 268.65 1010.09 267.90 C 1012.32 265.90 1012.23 262.67 1012.06 259.93 Z" />
    <path fill="#000000" opacity="1.00"
      d=" M 828.06 262.00 C 828.86 262.54 829.39 263.28 829.66 264.21 C 830.69 267.36 832.24 270.30 833.42 273.39 C 835.48 282.53 834.54 292.52 829.62 300.62 C 824.57 309.12 815.75 315.35 806.01 317.11 C 800.12 317.59 793.96 317.85 788.33 315.72 C 778.56 312.52 770.61 304.35 767.19 294.82 C 771.54 299.91 776.53 304.86 783.05 306.99 C 791.00 309.60 800.06 310.70 807.89 307.06 C 817.66 303.57 825.36 295.34 828.62 285.54 C 831.59 277.94 830.37 269.58 828.06 262.00 Z" />
    <path fill="#000000" opacity="1.00"
      d=" M 464.10 262.89 C 469.42 270.79 471.33 281.19 469.45 290.59 C 468.31 292.65 468.02 295.01 467.16 297.17 C 462.88 306.47 454.43 313.92 444.46 316.46 C 430.59 320.09 414.34 314.73 406.80 302.19 C 405.75 299.60 402.83 297.92 403.08 294.88 C 406.12 299.22 410.24 302.67 414.90 305.15 C 419.34 308.20 424.84 308.39 429.95 309.38 C 444.28 310.18 458.72 301.01 463.49 287.36 C 467.27 279.75 466.09 270.83 464.10 262.89 Z" />
    <path fill="#000000" opacity="1.00"
      d=" M 640.29 262.90 C 642.79 265.58 643.49 269.49 645.22 272.69 C 647.17 280.57 646.93 289.19 643.72 296.72 C 639.07 307.46 628.62 315.63 617.01 317.25 C 611.75 317.40 606.22 317.94 601.24 315.86 C 593.31 313.54 586.17 308.06 582.21 300.74 C 581.09 298.53 579.06 296.67 578.97 294.05 C 582.95 299.75 588.46 304.60 595.06 306.98 C 598.23 308.31 601.70 308.50 605.03 309.24 C 622.84 311.30 640.39 296.78 642.17 279.05 C 643.12 273.56 641.74 268.14 640.29 262.90 Z" />
    <path fill="#000000" opacity="1.00"
      d=" M 426.86 266.93 C 430.16 265.56 434.92 265.52 437.42 268.58 C 440.20 270.67 440.65 275.39 439.12 278.05 C 439.13 277.35 439.14 275.93 439.15 275.22 C 434.45 272.24 427.28 276.19 426.89 281.76 C 420.97 279.33 421.69 270.04 426.86 266.93 Z" />
    <path fill="#000000" opacity="1.00"
      d=" M 602.51 267.53 C 607.88 263.52 617.37 267.83 616.28 275.01 C 611.09 272.73 603.43 275.44 603.65 281.88 C 600.41 281.25 598.84 277.05 599.25 274.00 C 598.81 271.30 600.82 269.32 602.51 267.53 Z" />
    <path fill="#000000" opacity="1.00"
      d=" M 791.48 266.53 C 794.11 266.05 796.88 265.95 799.50 266.56 C 802.25 268.56 804.89 271.25 804.23 275.00 C 798.90 272.71 791.73 275.57 791.04 281.70 C 786.68 280.08 786.78 274.35 787.52 270.49 C 788.95 269.29 790.27 267.96 791.48 266.53 Z" />
    <path fill="#000000" opacity="1.00"
      d=" M 503.93 279.12 C 508.21 282.55 510.67 288.36 515.66 291.23 C 519.73 292.02 524.88 292.26 527.90 288.88 C 529.43 286.38 531.91 284.58 533.14 281.90 C 533.57 281.99 534.44 282.15 534.87 282.24 C 535.94 285.59 535.10 289.25 535.30 292.73 C 533.55 295.66 531.24 298.69 527.83 299.65 C 524.03 300.00 519.55 300.38 516.69 297.30 C 513.22 294.78 512.00 289.61 507.97 288.02 C 507.29 294.93 508.21 301.92 507.63 308.86 C 506.29 315.43 498.76 320.04 492.34 317.62 C 488.62 316.47 484.23 313.08 485.32 308.73 C 489.71 310.06 494.95 310.78 498.90 307.89 C 501.26 305.47 503.61 302.49 503.65 298.95 C 503.96 292.34 503.25 285.70 503.93 279.12 Z" />
    <path fill="#000000" opacity="1.00"
      d=" M 972.13 279.19 C 978.22 281.85 984.02 285.11 990.01 287.99 C 991.41 288.39 991.75 289.81 992.24 291.02 C 991.55 291.77 990.81 292.46 990.02 293.09 C 984.72 289.15 977.28 288.24 973.01 283.03 C 972.75 281.74 972.37 280.48 972.13 279.19 Z" />
    <path fill="#000000" opacity="1.00"
      d=" M 1011.33 287.01 C 1015.47 288.84 1015.83 294.10 1014.89 297.96 C 1013.98 304.72 1009.39 310.09 1005.11 315.06 C 998.52 318.63 990.89 321.69 983.30 319.71 C 979.81 318.60 976.10 317.85 972.91 316.04 C 968.94 311.32 963.31 307.52 961.98 301.10 C 966.30 305.36 971.03 309.70 977.18 311.02 C 983.82 312.18 990.90 311.83 997.12 309.02 C 1000.57 307.34 1002.60 303.91 1005.56 301.59 C 1008.21 299.49 1008.36 295.82 1010.04 293.08 C 1011.24 291.29 1011.02 289.04 1011.33 287.01 Z" />
    <path fill="#000000" opacity="1.00"
      d=" M 94.41 289.31 C 95.81 289.25 97.22 289.26 98.62 289.40 C 102.95 293.96 104.68 300.24 107.19 305.87 C 108.59 309.24 110.76 313.60 107.54 316.66 C 105.56 316.96 103.23 316.70 102.37 314.60 C 99.98 307.97 96.98 301.59 93.64 295.40 C 92.39 293.43 93.11 291.04 94.41 289.31 Z" />
    <path fill="#000000" opacity="1.00"
      d=" M 162.21 291.22 C 163.61 288.85 168.03 288.16 169.09 291.14 C 170.02 293.44 168.75 295.72 167.66 297.69 C 164.61 303.24 162.21 309.11 159.93 315.00 C 158.79 317.78 154.51 317.08 153.34 314.62 C 152.80 311.12 154.51 307.87 155.71 304.70 C 157.66 300.12 159.36 295.34 162.21 291.22 Z" />
    <path fill="#000000" opacity="1.00"
      d=" M 69.30 291.35 C 74.81 289.76 80.64 292.60 84.34 296.65 C 90.77 303.59 93.95 312.88 95.70 322.01 C 97.03 334.12 97.34 347.25 91.20 358.22 C 88.39 363.34 83.10 367.68 77.00 367.40 C 71.71 367.48 67.15 363.97 63.88 360.12 C 59.68 354.65 56.75 348.18 55.41 341.41 C 52.73 333.63 53.26 325.28 53.40 317.19 C 55.00 310.18 55.98 302.52 60.90 296.89 C 63.12 294.34 65.95 292.12 69.30 291.35 M 67.06 303.01 C 61.30 311.72 61.22 322.82 62.16 332.86 L 63.01 332.84 C 62.83 329.67 65.64 327.54 68.62 327.57 C 68.32 318.76 68.31 309.92 68.82 301.11 C 68.07 301.59 67.48 302.22 67.06 303.01 M 79.15 304.23 C 79.08 307.24 80.72 309.94 80.57 312.93 C 80.58 317.85 81.27 322.73 81.38 327.64 C 83.64 328.56 86.60 329.85 85.94 332.89 C 86.01 335.50 83.33 335.82 81.80 337.08 C 81.16 341.63 82.62 346.69 79.84 350.76 C 78.33 353.64 73.75 353.59 71.98 351.01 C 68.87 347.10 69.40 341.87 68.59 337.24 C 66.25 336.79 64.65 335.13 62.76 333.88 C 62.46 336.55 63.54 339.13 64.21 341.67 C 66.05 347.52 68.32 353.76 73.39 357.61 C 75.83 359.55 79.90 359.48 81.80 356.80 C 87.41 350.61 87.28 341.81 88.23 334.04 C 87.69 324.38 86.27 314.31 80.96 305.99 C 80.56 305.19 79.96 304.61 79.15 304.23 Z" />
    <path fill="#000000" opacity="1.00"
      d=" M 185.42 291.54 C 189.22 290.55 193.76 290.42 197.00 292.96 C 202.50 296.52 205.83 302.66 207.16 308.95 C 209.80 317.26 209.50 326.21 208.56 334.80 C 207.34 343.26 204.32 351.47 199.63 358.61 C 195.97 363.95 189.76 368.43 182.97 367.28 C 176.10 366.18 171.51 359.99 169.18 353.88 C 163.55 338.18 165.14 320.25 172.24 305.26 C 174.98 299.40 179.36 294.13 185.42 291.54 M 193.22 300.14 C 194.59 309.24 194.38 318.43 194.35 327.63 C 197.10 327.78 199.71 330.01 199.28 332.95 C 198.64 335.43 196.26 336.44 194.06 337.16 C 193.27 341.87 193.25 347.19 190.27 351.24 C 187.88 354.43 182.21 352.88 181.67 348.92 C 181.48 344.71 180.56 340.60 180.66 336.37 C 177.37 336.76 175.45 332.89 177.05 330.25 C 177.80 328.41 180.40 328.66 181.17 326.94 C 181.55 323.11 181.28 319.25 181.57 315.43 C 183.27 311.93 182.35 307.83 182.88 304.07 C 175.18 314.56 173.76 328.36 174.76 341.01 C 175.91 347.28 177.21 354.25 182.39 358.54 C 184.72 359.17 187.59 359.23 189.38 357.35 C 196.54 351.23 198.39 341.47 200.49 332.77 C 200.72 327.26 200.70 321.74 200.49 316.22 C 199.19 310.48 197.30 304.56 193.22 300.14 Z" />
    <path fill="#000000" opacity="1.00"
      d=" M 393.77 331.91 C 399.96 338.45 399.16 349.76 393.32 356.32 C 389.33 361.02 383.09 363.49 376.99 363.36 C 370.07 363.31 363.16 363.42 356.25 363.29 C 355.84 364.47 355.66 365.69 355.71 366.96 C 355.73 380.66 355.77 394.36 355.71 408.06 C 355.98 413.73 352.77 419.00 348.68 422.69 C 343.51 427.14 336.10 428.11 329.67 426.24 C 323.67 423.80 318.12 418.58 317.08 412.02 C 320.18 415.40 324.19 418.53 328.96 418.70 C 333.48 418.86 338.49 419.15 342.30 416.25 C 345.66 413.67 348.86 410.50 350.32 406.43 C 351.99 402.14 351.37 397.48 351.48 393.00 C 351.39 380.44 351.66 367.88 351.32 355.32 C 360.85 354.70 370.54 356.19 379.94 354.07 C 386.80 352.33 391.61 346.34 393.56 339.78 C 393.87 337.17 393.77 334.53 393.77 331.91 Z" />
    <path fill="#000000" opacity="1.00"
      d=" M 578.79 336.11 C 581.07 336.74 581.69 339.42 582.54 341.35 C 583.20 352.31 582.27 363.34 582.97 374.31 C 581.59 374.30 580.23 374.22 578.87 374.08 C 578.45 361.44 578.72 348.76 578.79 336.11 Z" />
    <path fill="#000000" opacity="1.00"
      d=" M 514.15 338.01 C 516.43 341.61 519.02 345.52 518.34 350.02 C 518.24 354.98 514.51 358.64 510.77 361.35 C 509.31 360.13 507.91 358.82 506.33 357.78 C 502.74 356.81 498.82 356.90 495.32 358.16 C 494.12 355.51 492.83 352.89 491.95 350.12 C 494.62 352.04 497.60 353.99 501.05 353.79 C 509.12 354.19 515.80 345.83 514.15 338.01 Z" />
    <path fill="#000000" opacity="1.00"
      d=" M 642.89 339.96 C 650.29 345.09 647.12 358.08 639.02 361.03 C 635.20 356.95 629.34 356.28 624.22 357.99 C 623.14 355.66 620.90 353.63 621.26 350.87 C 622.71 351.66 624.12 352.56 625.66 353.22 C 633.91 356.17 643.76 348.78 642.89 339.96 Z" />
    <path fill="#000000" opacity="1.00"
      d=" M 273.02 348.00 C 276.42 351.75 280.91 354.58 286.07 354.96 C 294.61 355.75 303.23 355.05 311.80 355.29 C 312.86 357.70 312.14 360.47 312.22 363.03 C 308.89 363.82 305.40 363.16 302.00 363.37 C 296.11 363.16 289.90 364.24 284.35 361.66 C 278.56 359.31 274.64 353.90 273.02 348.00 Z" />
    <path fill="#000000" opacity="1.00"
      d=" M 466.04 349.95 L 466.67 350.49 C 466.41 354.15 470.49 356.24 470.34 359.98 C 471.49 367.06 465.17 374.02 457.99 373.34 C 452.40 373.53 448.65 367.97 443.06 368.27 C 436.00 367.34 428.77 371.15 425.37 377.35 C 422.96 381.17 423.56 385.87 423.73 390.15 C 417.84 384.04 417.21 373.31 422.82 366.84 C 426.75 361.53 433.57 358.98 440.05 360.18 C 444.01 360.17 446.91 363.15 450.40 364.48 C 454.32 365.26 459.46 365.72 462.23 362.20 C 465.40 359.04 467.32 354.42 466.04 349.95 Z" />
    <path fill="#000000" opacity="1.00"
      d=" M 733.02 353.99 C 735.27 354.76 736.11 357.18 736.66 359.29 C 737.98 363.52 736.34 368.22 733.33 371.33 C 726.93 377.27 721.39 384.04 715.24 390.23 C 714.50 391.15 713.29 391.84 713.09 393.09 C 715.90 393.76 718.81 393.28 721.68 393.31 L 721.88 394.14 C 715.01 393.33 708.07 394.10 701.17 393.80 C 700.62 392.52 702.22 391.73 702.81 390.81 C 712.00 381.31 720.70 371.36 730.15 362.12 C 732.52 360.10 732.88 356.90 733.02 353.99 Z" />
    <path fill="#000000" opacity="1.00"
      d=" M 915.73 357.12 C 918.25 357.76 919.14 360.89 919.63 363.15 C 919.66 379.45 919.90 395.75 919.90 412.05 C 920.17 415.82 918.11 419.10 916.11 422.09 C 911.06 425.17 903.76 426.40 899.28 421.73 C 890.04 411.96 881.14 401.87 871.86 392.13 C 870.96 391.37 870.27 390.04 868.96 390.04 C 868.14 398.87 869.38 407.80 868.53 416.64 C 866.89 421.09 863.03 425.18 858.03 425.33 C 851.58 426.14 845.21 420.59 844.98 414.16 C 846.90 415.26 848.68 416.81 850.97 417.07 C 857.70 418.38 864.37 412.48 864.63 405.81 C 864.98 397.84 864.25 389.84 864.89 381.90 C 867.03 381.82 867.97 384.34 869.37 385.61 C 875.67 392.32 881.89 399.11 888.12 405.89 C 891.50 408.83 893.63 413.11 897.65 415.30 C 903.56 418.06 912.08 415.85 914.51 409.39 C 916.00 406.50 915.77 403.17 915.80 400.02 C 915.70 385.72 915.55 371.42 915.73 357.12 Z" />
    <path fill="#000000" opacity="1.00"
      d=" M 770.51 364.47 C 772.23 362.57 774.17 360.18 777.03 360.41 C 782.00 360.37 786.99 360.39 791.97 360.39 C 796.24 360.31 800.27 364.66 799.16 368.98 L 798.16 369.15 C 792.81 368.21 787.34 368.75 781.94 368.71 C 778.75 368.63 775.46 370.56 774.88 373.86 C 772.83 373.80 771.86 371.76 770.52 370.54 C 770.15 368.54 770.15 366.46 770.51 364.47 Z" />
    <path fill="#000000" opacity="1.00"
      d=" M 948.70 365.95 C 949.92 360.59 956.88 359.23 961.48 360.62 C 964.83 362.60 968.09 365.81 967.86 370.01 C 965.11 368.02 961.58 368.02 958.36 368.43 C 957.96 368.84 957.15 369.67 956.75 370.09 C 954.10 368.67 950.67 368.38 948.70 365.95 Z" />
    <path fill="#000000" opacity="1.00"
      d=" M 672.03 364.07 C 674.19 365.19 676.39 366.49 678.93 366.35 C 685.55 366.38 692.17 366.39 698.79 366.25 C 697.70 370.03 693.70 372.36 691.16 375.27 C 686.82 373.55 681.72 376.07 677.70 373.25 C 674.48 371.61 670.99 367.85 672.03 364.07 Z" />
    <path fill="#000000" opacity="1.00"
      d=" M 820.11 364.92 C 821.89 366.08 821.74 368.46 822.83 370.12 C 826.37 376.08 826.71 383.31 826.19 390.06 C 825.83 391.24 826.03 393.13 824.63 393.65 C 810.08 393.67 795.53 393.58 780.98 393.65 C 778.23 393.49 775.45 395.04 774.93 397.88 C 770.70 397.32 769.02 392.22 770.77 388.72 C 772.20 386.73 774.32 384.91 776.96 385.27 C 790.32 385.25 803.68 385.35 817.04 385.40 C 818.55 385.31 820.21 385.56 821.59 384.75 C 822.97 378.12 822.16 371.32 820.11 364.92 Z" />
    <path fill="#000000" opacity="1.00"
      d=" M 984.91 364.91 C 987.22 366.75 986.96 370.06 988.47 372.42 C 988.73 376.09 989.88 380.92 986.50 383.54 C 985.43 384.50 984.57 385.87 983.06 386.14 C 979.78 382.77 975.86 380.24 971.77 377.98 L 971.80 377.21 C 976.09 379.80 982.28 377.91 984.18 373.20 C 985.56 370.66 984.95 367.67 984.91 364.91 Z" />
    <path fill="#000000" opacity="1.00"
      d=" M 513.66 369.19 C 515.84 370.26 516.48 373.26 517.51 375.38 C 517.85 388.60 517.58 401.84 517.69 415.07 C 517.84 420.17 513.89 424.34 509.58 426.51 C 506.31 426.68 502.55 427.40 499.77 425.22 C 496.86 423.06 493.76 419.95 494.15 416.01 C 498.42 418.63 504.26 419.71 508.49 416.42 C 511.87 414.11 513.70 410.06 513.67 406.02 C 513.71 393.74 513.52 381.46 513.66 369.19 Z" />
    <path fill="#000000" opacity="1.00"
      d=" M 642.04 368.90 C 645.56 371.31 646.09 376.06 646.22 379.99 C 646.31 391.33 646.40 402.68 646.31 414.02 C 646.36 418.28 644.30 422.35 640.80 424.79 C 637.98 427.39 633.91 426.75 630.42 426.51 C 626.49 424.37 622.28 420.72 622.28 415.93 C 626.86 418.78 633.51 419.92 637.69 415.74 C 641.80 412.90 642.35 407.58 642.30 403.00 C 642.17 391.63 642.31 380.26 642.04 368.90 Z" />
    <path fill="#000000" opacity="1.00"
      d=" M 945.05 385.94 C 945.33 385.65 945.89 385.09 946.17 384.80 C 952.25 387.12 957.71 390.72 963.65 393.35 C 964.65 394.05 966.34 394.49 966.38 395.99 C 966.14 397.69 964.66 398.67 963.27 399.38 C 958.87 397.11 954.58 394.49 949.92 392.83 L 948.99 393.01 C 948.94 394.29 949.00 395.57 949.16 396.86 C 945.93 394.18 947.71 389.09 945.05 385.94 Z" />
    <path fill="#000000" opacity="1.00"
      d=" M 598.95 387.00 C 603.26 389.48 603.55 395.22 602.49 399.58 C 600.65 403.26 597.31 406.59 593.05 407.01 C 589.81 407.61 586.52 407.27 583.25 407.29 C 581.60 411.19 583.92 415.89 581.62 419.66 C 580.31 422.80 577.54 424.97 574.60 426.51 C 571.07 426.88 566.90 427.56 564.00 425.01 C 560.98 423.12 559.18 419.67 558.95 416.16 C 563.30 419.48 569.80 419.79 573.95 415.95 C 579.38 412.30 578.56 404.99 578.30 399.31 C 582.65 398.96 587.11 399.49 591.35 398.25 C 595.67 396.28 599.03 391.86 598.95 387.00 Z" />
    <path fill="#000000" opacity="1.00"
      d=" M 985.10 391.95 C 989.62 395.00 989.07 400.87 988.47 405.59 C 986.70 410.66 984.61 415.94 980.49 419.53 C 978.76 422.05 975.52 422.53 973.06 424.08 C 965.66 427.21 956.53 427.57 949.38 423.58 C 946.98 421.58 943.72 420.74 942.05 417.94 C 938.42 414.30 936.07 409.62 934.04 405.00 C 936.59 407.45 938.33 410.63 941.01 412.96 C 943.53 414.81 946.48 415.98 949.51 416.74 C 962.67 422.01 978.94 413.38 983.23 400.21 C 985.52 398.10 984.69 394.72 985.10 391.95 Z" />
    <path fill="#000000" opacity="1.00"
      d=" M 538.90 396.18 C 543.31 399.14 548.72 399.20 553.84 399.22 C 554.63 401.72 554.47 404.51 554.02 407.09 C 547.03 408.68 539.31 403.56 538.90 396.18 Z" />
    <path fill="#000000" opacity="1.00"
      d=" M 401.02 400.02 C 410.33 415.48 430.25 423.98 447.74 418.85 C 456.21 417.15 463.75 411.00 467.24 403.11 C 467.46 402.63 467.91 401.68 468.14 401.21 C 471.46 402.87 472.45 407.83 471.30 411.35 C 469.03 417.22 464.09 421.65 458.70 424.68 C 450.48 428.55 441.00 429.23 432.13 427.63 C 428.41 426.00 424.22 425.51 420.79 423.21 C 413.84 419.46 408.09 413.60 404.35 406.66 C 403.19 404.46 401.01 402.68 401.02 400.02 Z" />
    <path fill="#000000" opacity="1.00"
      d=" M 756.95 403.05 C 763.83 412.55 775.17 419.04 787.00 419.10 C 798.08 419.57 809.83 415.63 817.16 407.05 C 818.94 406.52 821.07 406.34 822.81 407.14 C 823.91 409.87 822.37 412.77 821.16 415.19 C 816.96 420.79 810.23 424.23 803.47 425.55 C 803.24 425.79 802.76 426.25 802.52 426.48 C 793.50 428.02 783.88 427.61 775.60 423.43 C 768.36 420.18 762.36 414.30 758.70 407.31 C 757.76 406.04 756.98 404.65 756.95 403.05 Z" />
    <path fill="#000000" opacity="1.00"
      d=" M 731.94 406.01 C 736.56 407.97 736.35 413.65 735.65 417.83 C 734.04 422.67 729.22 426.32 724.04 426.21 C 710.36 426.51 696.66 426.27 682.98 426.34 C 677.27 426.54 670.97 422.07 671.13 415.99 C 674.10 417.72 677.57 418.32 680.99 418.26 C 691.66 418.17 702.33 418.17 713.00 418.16 C 717.70 418.21 722.66 418.05 726.94 415.89 C 729.67 413.30 732.39 410.05 731.94 406.01 Z" />
  </g>
  <g id="#ff3145ff">
    <path fill="#ff3145" opacity="1.00"
      d=" M 102.88 194.90 C 119.18 187.73 138.16 187.45 155.02 192.98 C 162.99 195.72 171.03 198.85 178.00 203.65 C 175.47 204.93 176.30 208.29 176.52 210.59 C 178.09 215.21 182.63 217.76 185.81 221.19 C 189.59 224.40 192.63 228.47 196.76 231.26 C 200.30 233.59 205.12 233.00 208.12 230.05 C 216.34 239.66 221.89 251.33 225.41 263.41 C 227.51 272.47 227.76 281.78 228.33 291.02 C 228.29 302.99 228.90 315.02 227.34 326.92 C 224.90 353.84 216.33 381.44 197.53 401.54 C 188.16 411.15 176.26 418.68 163.18 421.92 C 160.41 418.22 156.40 415.29 151.82 414.40 C 147.24 414.22 142.58 414.06 138.10 415.18 C 132.47 416.30 126.70 416.18 121.00 416.32 C 111.17 416.62 101.51 414.06 92.42 410.52 C 87.76 408.57 81.82 408.45 77.94 412.10 C 70.46 407.59 63.79 401.29 58.93 394.02 C 60.92 393.07 63.48 392.25 64.07 389.83 C 65.10 386.46 62.98 383.30 61.66 380.34 C 49.86 352.94 44.66 322.66 47.27 292.91 C 49.15 273.60 54.65 254.43 64.84 237.82 C 73.63 223.52 86.58 211.43 102.36 205.32 C 106.75 203.53 106.64 197.31 102.88 194.90 M 94.41 289.31 C 93.11 291.04 92.39 293.43 93.64 295.40 C 96.98 301.59 99.98 307.97 102.37 314.60 C 103.23 316.70 105.56 316.96 107.54 316.66 C 110.76 313.60 108.59 309.24 107.19 305.87 C 104.68 300.24 102.95 293.96 98.62 289.40 C 97.22 289.26 95.81 289.25 94.41 289.31 M 162.21 291.22 C 159.36 295.34 157.66 300.12 155.71 304.70 C 154.51 307.87 152.80 311.12 153.34 314.62 C 154.51 317.08 158.79 317.78 159.93 315.00 C 162.21 309.11 164.61 303.24 167.66 297.69 C 168.75 295.72 170.02 293.44 169.09 291.14 C 168.03 288.16 163.61 288.85 162.21 291.22 M 69.30 291.35 C 65.95 292.12 63.12 294.34 60.90 296.89 C 55.98 302.52 55.00 310.18 53.40 317.19 C 53.26 325.28 52.73 333.63 55.41 341.41 C 56.75 348.18 59.68 354.65 63.88 360.12 C 67.15 363.97 71.71 367.48 77.00 367.40 C 83.10 367.68 88.39 363.34 91.20 358.22 C 97.34 347.25 97.03 334.12 95.70 322.01 C 93.95 312.88 90.77 303.59 84.34 296.65 C 80.64 292.60 74.81 289.76 69.30 291.35 M 185.42 291.54 C 179.36 294.13 174.98 299.40 172.24 305.26 C 165.14 320.25 163.55 338.18 169.18 353.88 C 171.51 359.99 176.10 366.18 182.97 367.28 C 189.76 368.43 195.97 363.95 199.63 358.61 C 204.32 351.47 207.34 343.26 208.56 334.80 C 209.50 326.21 209.80 317.26 207.16 308.95 C 205.83 302.66 202.50 296.52 197.00 292.96 C 193.76 290.42 189.22 290.55 185.42 291.54 Z" />
    <path fill="#ff3145" opacity="1.00"
      d=" M 238.40 313.35 C 240.12 311.99 242.35 310.37 244.65 311.33 C 247.64 315.19 246.51 320.29 246.59 324.80 C 244.54 337.12 239.80 349.10 232.17 359.04 C 231.91 359.21 231.38 359.56 231.12 359.73 C 233.64 349.28 236.29 338.76 236.94 327.98 C 238.25 323.18 236.95 318.07 238.40 313.35 Z" />
  </g>
  <g id="#ffced3ff">
    <path fill="#ffced3" opacity="1.00"
      d=" M 90.94 199.86 C 94.87 198.12 98.52 195.46 102.88 194.90 C 106.64 197.31 106.75 203.53 102.36 205.32 C 86.58 211.43 73.63 223.52 64.84 237.82 C 54.65 254.43 49.15 273.60 47.27 292.91 C 44.66 322.66 49.86 352.94 61.66 380.34 C 62.98 383.30 65.10 386.46 64.07 389.83 C 63.48 392.25 60.92 393.07 58.93 394.02 C 57.64 393.36 57.04 391.93 56.19 390.82 C 47.40 378.26 42.28 363.56 38.41 348.85 C 36.75 338.61 34.32 328.44 34.30 318.03 C 33.26 302.50 33.94 286.88 35.57 271.44 C 36.71 264.80 38.11 258.12 40.97 251.98 C 50.73 229.39 69.25 211.14 90.94 199.86 Z" />
    <path fill="#ffced3" opacity="1.00"
      d=" M 176.52 210.59 C 176.30 208.29 175.47 204.93 178.00 203.65 C 189.61 210.32 199.94 219.45 208.12 230.05 C 205.12 233.00 200.30 233.59 196.76 231.26 C 192.63 228.47 189.59 224.40 185.81 221.19 C 182.63 217.76 178.09 215.21 176.52 210.59 Z" />
    <path fill="#ffced3" opacity="1.00"
      d=" M 77.94 412.10 C 81.82 408.45 87.76 408.57 92.42 410.52 C 101.51 414.06 111.17 416.62 121.00 416.32 C 126.70 416.18 132.47 416.30 138.10 415.18 C 142.58 414.06 147.24 414.22 151.82 414.40 C 156.40 415.29 160.41 418.22 163.18 421.92 C 159.33 424.14 154.25 423.85 149.89 424.91 C 146.03 426.09 141.94 425.32 138.00 426.02 C 130.41 426.98 122.84 425.57 115.25 425.52 C 102.14 423.67 88.76 419.97 77.94 412.10 Z" />
  </g>
  <g id="#414141ff">
    <path fill="#414141" opacity="1.00"
      d=" M 1009.80 255.36 C 1011.57 255.56 1011.19 258.57 1012.06 259.93 C 1012.23 262.67 1012.32 265.90 1010.09 267.90 C 1010.59 263.75 1010.81 259.46 1009.80 255.36 Z" />
    <path fill="#414141" opacity="1.00"
      d=" M 961.11 271.97 C 971.18 276.75 980.84 282.38 990.94 287.12 C 992.61 287.60 993.60 289.65 992.24 291.02 C 991.75 289.81 991.41 288.39 990.01 287.99 C 984.02 285.11 978.22 281.85 972.13 279.19 C 972.37 280.48 972.75 281.74 973.01 283.03 C 971.15 281.39 970.37 278.64 967.91 277.70 C 964.90 277.17 961.74 277.46 959.11 279.07 C 961.06 277.11 961.93 274.75 961.11 271.97 Z" />
    <path fill="#414141" opacity="1.00"
      d=" M 533.14 281.90 C 533.64 280.19 534.73 278.40 536.69 278.24 C 536.59 285.86 536.35 293.52 536.85 301.13 C 535.17 298.98 536.41 295.38 535.30 292.73 C 535.10 289.25 535.94 285.59 534.87 282.24 C 534.44 282.15 533.57 281.99 533.14 281.90 Z" />
  </g>
  <g id="#838383dc">
    <path fill="#838383" opacity="0.86"
      d=" M 995.30 267.91 C 998.73 271.20 1003.71 272.32 1008.05 270.10 C 1006.85 271.68 1004.95 272.31 1003.22 273.10 C 1004.07 275.89 1007.66 276.64 1009.02 279.23 L 1009.04 280.02 C 1005.65 277.73 1002.82 274.58 998.96 273.05 C 996.77 272.13 994.77 270.84 992.91 269.37 C 993.51 269.01 994.70 268.28 995.30 267.91 Z" />
  </g>
  <g id="#929292c9">
    <path fill="#929292" opacity="0.79"
      d=" M 1009.02 279.23 C 1009.43 279.20 1010.24 279.14 1010.64 279.11 C 1010.46 281.77 1011.66 284.34 1011.33 287.01 C 1011.02 289.04 1011.24 291.29 1010.04 293.08 C 1010.34 288.71 1011.03 284.12 1009.04 280.02 L 1009.02 279.23 Z" />
  </g>
  <g id="#ffdfe2ff">
    <path fill="#ffdfe2" opacity="1.00"
      d=" M 16.49 313.39 C 17.60 309.13 23.29 311.55 24.58 314.37 C 25.23 330.01 27.13 345.78 31.86 360.72 C 25.57 353.96 21.69 345.20 18.56 336.57 C 16.37 329.13 14.51 321.08 16.49 313.39 Z" />
  </g>
  <g id="#7c7c7c9a">
    <path fill="#7c7c7c" opacity="0.60"
      d=" M 967.91 345.12 C 973.62 345.75 977.76 350.59 981.01 354.93 C 982.61 358.11 984.61 361.27 984.91 364.91 C 984.95 367.67 985.56 370.66 984.18 373.20 C 985.34 365.02 982.09 356.49 976.08 350.90 C 973.83 348.31 970.52 347.21 967.91 345.12 Z" />
  </g>
  <g id="#808080a6">
    <path fill="#808080" opacity="0.65"
      d=" M 578.87 374.08 C 580.23 374.22 581.59 374.30 582.97 374.31 C 585.92 374.17 588.85 374.44 591.66 375.41 L 591.67 376.19 C 587.61 375.34 583.44 375.59 579.33 375.77 C 579.22 375.35 578.99 374.51 578.87 374.08 Z" />
  </g>
  <g id="#363636ff">
    <path fill="#363636" opacity="1.00"
      d=" M 931.19 373.79 C 932.95 375.05 933.90 377.16 935.84 378.22 C 939.16 380.60 943.11 382.02 946.17 384.80 C 945.89 385.09 945.33 385.65 945.05 385.94 C 942.30 383.27 938.53 383.76 935.07 383.18 C 935.27 379.40 932.26 377.02 931.19 373.79 Z" />
  </g>
  <g id="#838383da">
    <path fill="#838383" opacity="0.85"
      d=" M 983.81 388.31 L 984.66 388.26 C 984.87 389.47 985.02 390.70 985.10 391.95 C 984.69 394.72 985.52 398.10 983.23 400.21 C 983.74 396.25 985.04 392.28 983.81 388.31 Z" />
  </g>
</svg>