<?xml version="1.0" encoding="utf-8"?>
<svg version="1.1" xmlns="http://www.w3.org/2000/svg" xmlns:xlink="http://www.w3.org/1999/xlink"
  x="0px" y="0px"
  viewBox="0 0 365.5 452.5" style="enable-background:new 0 0 365.5 452.5;" xml:space="preserve">
<style type="text/css">
	.st0{opacity:0.964;fill-rule:evenodd;clip-rule:evenodd;fill:#EAFB8E;enable-background:new    ;}
	.st1{opacity:0.967;fill-rule:evenodd;clip-rule:evenodd;fill:#F1FC8B;enable-background:new    ;}
	.st2{opacity:0.97;fill-rule:evenodd;clip-rule:evenodd;fill:#F8FC87;enable-background:new    ;}
	.st3{opacity:0.994;fill-rule:evenodd;clip-rule:evenodd;fill:#50DED6;enable-background:new    ;}
	.st4{opacity:0.95;fill-rule:evenodd;clip-rule:evenodd;fill:#E4FB92;enable-background:new    ;}
	.st5{opacity:0.942;fill-rule:evenodd;clip-rule:evenodd;fill:#DFFB94;enable-background:new    ;}
	.st6{opacity:0.936;fill-rule:evenodd;clip-rule:evenodd;fill:#DCFB96;enable-background:new    ;}
	.st7{opacity:0.982;fill-rule:evenodd;clip-rule:evenodd;fill:#55E4D7;enable-background:new    ;}
	.st8{opacity:0.928;fill-rule:evenodd;clip-rule:evenodd;fill:#D6FA99;enable-background:new    ;}
	.st9{opacity:0.921;fill-rule:evenodd;clip-rule:evenodd;fill:#D2FA9B;enable-background:new    ;}
	.st10{opacity:0.952;fill-rule:evenodd;clip-rule:evenodd;fill:#56EBD9;enable-background:new    ;}
	.st11{opacity:0.896;fill-rule:evenodd;clip-rule:evenodd;fill:#C4F9A3;enable-background:new    ;}
	.st12{opacity:0.887;fill-rule:evenodd;clip-rule:evenodd;fill:#BEF8A6;enable-background:new    ;}
	.st13{opacity:0.876;fill-rule:evenodd;clip-rule:evenodd;fill:#B8F8A9;enable-background:new    ;}
	.st14{opacity:0.867;fill-rule:evenodd;clip-rule:evenodd;fill:#B2F8AC;enable-background:new    ;}
	.st15{opacity:0.913;fill-rule:evenodd;clip-rule:evenodd;fill:#CDFA9E;enable-background:new    ;}
	.st16{opacity:0.853;fill-rule:evenodd;clip-rule:evenodd;fill:#ABF7B0;enable-background:new    ;}
	.st17{opacity:0.841;fill-rule:evenodd;clip-rule:evenodd;fill:#A5F7B3;enable-background:new    ;}
	.st18{opacity:0.829;fill-rule:evenodd;clip-rule:evenodd;fill:#9FF7B7;enable-background:new    ;}
	.st19{opacity:0.821;fill-rule:evenodd;clip-rule:evenodd;fill:#99F6BA;enable-background:new    ;}
	.st20{opacity:0.906;fill-rule:evenodd;clip-rule:evenodd;fill:#C9F9A0;enable-background:new    ;}
	.st21{opacity:0.81;fill-rule:evenodd;clip-rule:evenodd;fill:#92F6BE;enable-background:new    ;}
	.st22{opacity:0.874;fill-rule:evenodd;clip-rule:evenodd;fill:#4EEEE0;enable-background:new    ;}
	.st23{opacity:0.787;fill-rule:evenodd;clip-rule:evenodd;fill:#86F5C4;enable-background:new    ;}
	.st24{opacity:0.797;fill-rule:evenodd;clip-rule:evenodd;fill:#8CF5C1;enable-background:new    ;}
	.st25{fill-rule:evenodd;clip-rule:evenodd;fill:#B9F9BA;}
	.st26{opacity:0.999;fill-rule:evenodd;clip-rule:evenodd;fill:#A6F8CB;enable-background:new    ;}
	.st27{opacity:0.773;fill-rule:evenodd;clip-rule:evenodd;fill:#80F5C8;enable-background:new    ;}
	.st28{opacity:0.866;fill-rule:evenodd;clip-rule:evenodd;fill:#46EEE4;enable-background:new    ;}
	.st29{opacity:0.76;fill-rule:evenodd;clip-rule:evenodd;fill:#79F5CB;enable-background:new    ;}
	.st30{opacity:0.941;fill-rule:evenodd;clip-rule:evenodd;fill:#FEFEFE;enable-background:new    ;}
	.st31{opacity:0.837;fill-rule:evenodd;clip-rule:evenodd;fill:#ACF8B0;enable-background:new    ;}
	.st32{opacity:0.943;fill-rule:evenodd;clip-rule:evenodd;fill:#FDFEFE;enable-background:new    ;}
	.st33{opacity:0.75;fill-rule:evenodd;clip-rule:evenodd;fill:#72F4CF;enable-background:new    ;}
	.st34{opacity:0.745;fill-rule:evenodd;clip-rule:evenodd;fill:#6DF3D2;enable-background:new    ;}
	.st35{opacity:0.85;fill-rule:evenodd;clip-rule:evenodd;fill:#40EDE8;enable-background:new    ;}
	.st36{opacity:0.836;fill-rule:evenodd;clip-rule:evenodd;fill:#A5F7B3;enable-background:new    ;}
	.st37{opacity:0.824;fill-rule:evenodd;clip-rule:evenodd;fill:#9FF7B7;enable-background:new    ;}
	.st38{opacity:0.818;fill-rule:evenodd;clip-rule:evenodd;fill:#99F6BA;enable-background:new    ;}
	.st39{opacity:0.87;fill-rule:evenodd;clip-rule:evenodd;fill:#3BEBEA;enable-background:new    ;}
	.st40{opacity:0.801;fill-rule:evenodd;clip-rule:evenodd;fill:#92F6BE;enable-background:new    ;}
	.st41{opacity:0.796;fill-rule:evenodd;clip-rule:evenodd;fill:#8BF5C1;enable-background:new    ;}
	.st42{opacity:0.785;fill-rule:evenodd;clip-rule:evenodd;fill:#86F5C4;enable-background:new    ;}
	.st43{opacity:0.764;fill-rule:evenodd;clip-rule:evenodd;fill:#79F5CB;enable-background:new    ;}
	.st44{opacity:0.774;fill-rule:evenodd;clip-rule:evenodd;fill:#80F5C8;enable-background:new    ;}
	.st45{opacity:0.87;fill-rule:evenodd;clip-rule:evenodd;fill:#37E9EA;enable-background:new    ;}
	.st46{opacity:0.712;fill-rule:evenodd;clip-rule:evenodd;fill:#5AF2DC;enable-background:new    ;}
	.st47{opacity:0.689;fill-rule:evenodd;clip-rule:evenodd;fill:#4EF2E2;enable-background:new    ;}
	.st48{opacity:0.834;fill-rule:evenodd;clip-rule:evenodd;fill:#2FEBF0;enable-background:new    ;}
	.st49{opacity:0.679;fill-rule:evenodd;clip-rule:evenodd;fill:#47F1E6;enable-background:new    ;}
	.st50{opacity:0.667;fill-rule:evenodd;clip-rule:evenodd;fill:#41F1E9;enable-background:new    ;}
	.st51{opacity:0.731;fill-rule:evenodd;clip-rule:evenodd;fill:#67F3D5;enable-background:new    ;}
	.st52{opacity:0.723;fill-rule:evenodd;clip-rule:evenodd;fill:#61F3D8;enable-background:new    ;}
	.st53{opacity:0.641;fill-rule:evenodd;clip-rule:evenodd;fill:#36F0EF;enable-background:new    ;}
	.st54{opacity:0.704;fill-rule:evenodd;clip-rule:evenodd;fill:#54F2DF;enable-background:new    ;}
	.st55{opacity:0.786;fill-rule:evenodd;clip-rule:evenodd;fill:#25EDF7;enable-background:new    ;}
	.st56{opacity:0.659;fill-rule:evenodd;clip-rule:evenodd;fill:#3BF0EC;enable-background:new    ;}
	.st57{opacity:0.623;fill-rule:evenodd;clip-rule:evenodd;fill:#2AF0F5;enable-background:new    ;}
	.st58{opacity:0.645;fill-rule:evenodd;clip-rule:evenodd;fill:#35F0F0;enable-background:new    ;}
	.st59{opacity:0.721;fill-rule:evenodd;clip-rule:evenodd;fill:#66F3D5;enable-background:new    ;}
	.st60{opacity:0.63;fill-rule:evenodd;clip-rule:evenodd;fill:#2EF0F3;enable-background:new    ;}
	.st61{opacity:0.623;fill-rule:evenodd;clip-rule:evenodd;fill:#28EFF6;enable-background:new    ;}
	.st62{opacity:0.612;fill-rule:evenodd;clip-rule:evenodd;fill:#22EFFA;enable-background:new    ;}
	.st63{opacity:0.571;fill-rule:evenodd;clip-rule:evenodd;fill:#1DEFFD;enable-background:new    ;}
</style>
<g>
	<path class="st0" d="M153.5-0.5c2.3,0,4.7,0,7,0c1.5,3,3.6,4.4,6.5,4c2.4,1.6,5,3.6,8,6c2.3-0.7,4,0.3,5,3c4.1,0.1,7.5,2.1,10,6
		c3.6,0.3,6.9,2,10,5c0.3-0.3,0.7-0.7,1-1c1.7,1.7,3.3,3.3,5,5c0.4-0.5,0.9-0.8,1.5-1c4.3,2.1,8.5,5.1,12.5,9c0.3-0.3,0.7-0.7,1-1
		c16.6,9.8,32.6,19.4,48,29c0.3-0.3,0.7-0.7,1-1c1.7,1.3,3.3,2.7,5,4c0.3-0.3,0.7-0.7,1-1c0.4,0.9,0.9,1.7,1.5,2.5
		c1.9,0.2,3.4,1,4.5,2.5c0.3-0.3,0.7-0.7,1-1c1.2,2.1,2.9,3.8,5,5c0.4-0.5,0.9-0.8,1.5-1c2.2,2,4.5,3.9,7,5.5c0.9,0.5,1.9,0.6,3,0.5
		c3.1,6.5,6.4,12.8,10,19c-5.1-2.4-10.1-4.9-15-7.5c0.3-0.3,0.7-0.7,1-1c-4.2-0.5-7.6-2.5-10-6c-7.2-2.7-13.3-6.2-18.5-10.5
		c-0.3,0.3-0.7,0.7-1,1c-0.7-1.3-1.7-2.3-3-3c-1,0-2,0-3,0c-0.9-1.2-2.1-2-3.5-2.5c0.3-0.3,0.7-0.7,1-1c-1.8-0.3-3.3-1.1-4.5-2.5
		c-0.3,0.3-0.7,0.7-1,1c-0.5-2.4-1.7-3.1-3.5-2c-1.2-0.3-1.2-0.8,0-1.5c-5-1.5-9-3.8-12-7c-0.9-0.6-1.8-0.5-2.5,0.5
		c-1-1.7-2.3-3-4-4c-1.1,0.8-2.2,0.6-3.5-0.5c0.3-0.3,0.7-0.7,1-1c-1.3-1.1-2.4-1.3-3.5-0.5c-5.1-4.6-10.6-7.6-16.5-9
		c0.4-2.4-0.3-3.1-2-2c-8.6-4.9-17.3-9.7-26-14.5c0.3-0.3,0.7-0.7,1-1c-2.5-0.5-4.7-1.7-6.5-3.5c-0.9,1.2-1.7,1-2.5-0.5
		c0.8-1.7,0.3-1.8-1.5-0.5c-2-1-3.6-2.3-5-4c-0.3,0.3-0.7,0.7-1,1c-0.5-0.9-0.6-1.9-0.5-3c-1.3-0.2-2.5,0.2-3.5,1
		c-0.5-0.9-0.6-1.9-0.5-3c-2.1-0.2-4.1-0.7-6-1.5c0.3-0.3,0.7-0.7,1-1c-1.3-1.1-2.4-1.3-3.5-0.5c-1-0.9-1.9-1.9-2.5-3
		C150.5,3.7,152.2,1.7,153.5-0.5z"/>
</g>
<g>
	<path class="st1" d="M160.5-0.5c9,0,18,0,27,0c0.2,2.7,1.4,3.3,3.5,2c1,1.1,1.8,2.2,2.5,3.5c2.5,0.7,4.7,1.8,6.5,3.5
		c0.3-0.3,0.7-0.7,1-1c2.6,3,5.3,5.3,8,7c1-1.1,1.7-0.8,2,1c3.4-0.6,6,0.7,8,4c0.3-0.3,0.7-0.7,1-1c3,3.6,6.8,5.8,11.5,6.5
		c0.6,0.8,1.1,1.6,1.5,2.5c0.3-0.3,0.7-0.7,1-1c2.1,2.2,4.4,4.2,7,6c0.3-0.3,0.7-0.7,1-1c5.3,4,11.2,7.1,17.5,9.5
		c-1.4,2.1-1,2.6,1,1.5c5.5,3.5,11.2,6.6,17,9.5c1.9,2.4,4.1,3.5,6.5,3.5c0.8,1.3,2,2,3.5,2c4,7.3,8,14.6,12,22
		c-1.1,0.1-2.1,0-3-0.5c-2.5-1.6-4.8-3.5-7-5.5c-0.6,0.2-1.1,0.5-1.5,1c-2.1-1.2-3.8-2.9-5-5c-0.3,0.3-0.7,0.7-1,1
		c-1.1-1.5-2.6-2.3-4.5-2.5c-0.6-0.8-1.1-1.6-1.5-2.5c-0.3,0.3-0.7,0.7-1,1c-1.7-1.3-3.3-2.7-5-4c-0.3,0.3-0.7,0.7-1,1
		c-15.4-9.6-31.4-19.2-48-29c-0.3,0.3-0.7,0.7-1,1c-4-3.9-8.2-6.9-12.5-9c-0.6,0.2-1.1,0.5-1.5,1c-1.7-1.7-3.3-3.3-5-5
		c-0.3,0.3-0.7,0.7-1,1c-3.1-3-6.4-4.7-10-5c-2.5-3.9-5.9-5.9-10-6c-1-2.7-2.7-3.7-5-3c-3-2.4-5.6-4.4-8-6
		C164.1,3.9,162,2.5,160.5-0.5z"/>
</g>
<g>
	<path class="st2" d="M187.5-0.5c12,0,24,0,36,0c19.1,17,38.5,33.8,58,50.5c2.6,2.1,4.6,4.6,6,7.5c-1.5,0-2.7-0.7-3.5-2
		c-2.4,0-4.6-1.1-6.5-3.5c-5.8-2.9-11.5-6-17-9.5c-2,1.1-2.4,0.6-1-1.5c-6.3-2.4-12.2-5.5-17.5-9.5c-0.3,0.3-0.7,0.7-1,1
		c-2.6-1.8-4.9-3.8-7-6c-0.3,0.3-0.7,0.7-1,1c-0.4-0.9-0.9-1.7-1.5-2.5c-4.7-0.7-8.5-2.9-11.5-6.5c-0.3,0.3-0.7,0.7-1,1
		c-2-3.3-4.6-4.6-8-4c-0.3-1.8-1-2.1-2-1c-2.7-1.7-5.4-4-8-7c-0.3,0.3-0.7,0.7-1,1c-1.8-1.7-4-2.8-6.5-3.5c-0.7-1.3-1.5-2.4-2.5-3.5
		C188.9,2.8,187.7,2.2,187.5-0.5z"/>
</g>
<g>
	<path class="st3" d="M141.5-0.5c4,0,8,0,12,0c-1.3,2.2-3,4.2-5,6c-3,2.7-6,5.3-9,8c-1.3,0.7-2.3,1.7-3,3c-2.7,2-5,4.3-7,7
		c-2.9,1.3-5.3,3.3-7,6c-0.3,0-0.7,0-1,0c-0.5-0.1-0.9-0.4-1-1c1.7-3.3,2.3-6.7,2-10c-2.4,2.4-5.1,4.4-8,6
		C123.2,15.8,132.2,7.5,141.5-0.5z"/>
</g>
<g>
	<path class="st4" d="M148.5,5.5c0.6,1.1,1.5,2.1,2.5,3c1.1-0.8,2.2-0.6,3.5,0.5c-0.3,0.3-0.7,0.7-1,1c1.9,0.8,3.9,1.3,6,1.5
		c-0.1,1.1,0,2.1,0.5,3c1-0.8,2.2-1.2,3.5-1c-0.1,1.1,0,2.1,0.5,3c0.3-0.3,0.7-0.7,1-1c1.4,1.7,3,3,5,4c1.8-1.3,2.3-1.2,1.5,0.5
		c0.8,1.5,1.6,1.7,2.5,0.5c1.8,1.8,4,3,6.5,3.5c-0.3,0.3-0.7,0.7-1,1c8.7,4.8,17.4,9.6,26,14.5c1.7-1.1,2.4-0.4,2,2
		c5.9,1.4,11.4,4.4,16.5,9c1.1-0.8,2.2-0.6,3.5,0.5c-0.3,0.3-0.7,0.7-1,1c1.3,1.1,2.4,1.3,3.5,0.5c1.7,1,3,2.3,4,4
		c0.7-1,1.6-1.1,2.5-0.5c3,3.2,7,5.5,12,7c-1.2,0.7-1.2,1.2,0,1.5c1.8-1.1,3-0.4,3.5,2c0.3-0.3,0.7-0.7,1-1c1.2,1.4,2.7,2.2,4.5,2.5
		c-0.3,0.3-0.7,0.7-1,1c1.4,0.5,2.6,1.3,3.5,2.5c1,0,2,0,3,0c1.3,0.7,2.3,1.7,3,3c0.3-0.3,0.7-0.7,1-1c5.2,4.3,11.3,7.8,18.5,10.5
		c2.4,3.5,5.8,5.5,10,6c-0.3,0.3-0.7,0.7-1,1c4.9,2.6,9.9,5.1,15,7.5c3,6,6,12,9,18c-0.1,0.5-0.4,0.9-1,1c-1.3-1.5-3-2.2-5-2
		c0-2.9-1.2-3.9-3.5-3c-1.6-2.5-3.6-3.5-6-3c-1.2-1.7-2.7-3-4.5-4c-0.6,0.2-1.1,0.5-1.5,1c-1-1.3-2-2.7-3-4c-1,1.1-1.7,0.8-2-1
		c-0.3,0.3-0.7,0.7-1,1c-0.9-2.1-2.3-2.8-4-2c-2.3-1-4.3-3-6-6c-0.3,0.3-0.7,0.7-1,1c-2.3-1.7-4.7-3.3-7-5c-2,0.7-3.5-0.1-4.5-2.5
		c-2.9-0.5-5.5-1.5-8-3c-2.4-2.4-4.9-4.5-7.5-6.5c-1.8,1.3-2.3,1.2-1.5-0.5c-4.8-0.4-8.1-2.3-10-5.5c-0.6,0.2-1.1,0.5-1.5,1
		c-1.3-1.3-2.7-2.7-4-4c-0.3,0.3-0.7,0.7-1,1c-2.7-2-5.3-4-8-6c-0.3,0.3-0.7,0.7-1,1c-2.6-2.1-5.4-3.9-8.5-5.5c0.3-0.3,0.7-0.7,1-1
		c-1.6-0.7-3.1-0.6-4.5,0.5c-0.6-0.9-0.5-1.8,0.5-2.5c-2.4-0.8-4.6-2-6.5-3.5c-0.3,0.3-0.7,0.7-1,1c-0.3-1-0.7-2-1-3
		c-1.9,0.6-3.5-0.1-5-2c-0.3,0.3-0.7,0.7-1,1c-0.1-2.4-0.9-3-2.5-2c-2.5-1.4-4.8-3.1-7-5c-1.8,1.1-3,0.4-3.5-2
		c-1.8,1.3-2.3,1.2-1.5-0.5c-0.8-1.5-1.6-1.7-2.5-0.5c-0.3-1.8-1-2.1-2-1c-1.4-1.1-2.4-2.4-3-4c-0.3,0.7-0.7,1.3-1,2
		c-4.2-2.8-8.2-5.8-12-9c-0.4,0.5-0.9,0.8-1.5,1c-2.3-1.1-4.1-2.8-5.5-5c-0.3,0.3-0.7,0.7-1,1c-6.2-3.6-12.1-7.6-17.5-12
		C142.5,10.8,145.5,8.2,148.5,5.5z"/>
</g>
<g>
	<path class="st5" d="M139.5,13.5c5.4,4.4,11.3,8.4,17.5,12c0.3-0.3,0.7-0.7,1-1c1.4,2.2,3.2,3.9,5.5,5c0.6-0.2,1.1-0.5,1.5-1
		c3.8,3.2,7.8,6.2,12,9c0.3-0.7,0.7-1.3,1-2c0.6,1.6,1.6,2.9,3,4c1-1.1,1.7-0.8,2,1c0.9-1.2,1.7-1,2.5,0.5c-0.8,1.7-0.3,1.8,1.5,0.5
		c0.5,2.4,1.7,3.1,3.5,2c2.2,1.9,4.5,3.6,7,5c1.6-1,2.4-0.4,2.5,2c0.3-0.3,0.7-0.7,1-1c1.5,1.9,3.1,2.6,5,2c0.3,1,0.7,2,1,3
		c0.3-0.3,0.7-0.7,1-1c1.9,1.5,4.1,2.7,6.5,3.5c-1,0.7-1.1,1.6-0.5,2.5c1.4-1.1,2.9-1.2,4.5-0.5c-0.3,0.3-0.7,0.7-1,1
		c3.1,1.6,5.9,3.4,8.5,5.5c0.3-0.3,0.7-0.7,1-1c2.7,2,5.3,4,8,6c0.3-0.3,0.7-0.7,1-1c1.3,1.3,2.7,2.7,4,4c0.4-0.5,0.9-0.8,1.5-1
		c1.9,3.2,5.2,5.1,10,5.5c-0.8,1.7-0.3,1.8,1.5,0.5c2.6,2,5.1,4.1,7.5,6.5c2.5,1.5,5.1,2.5,8,3c1,2.4,2.5,3.2,4.5,2.5
		c2.3,1.7,4.7,3.3,7,5c0.3-0.3,0.7-0.7,1-1c1.7,3,3.7,5,6,6c1.7-0.8,3.1-0.1,4,2c0.3-0.3,0.7-0.7,1-1c0.3,1.8,1,2.1,2,1
		c1,1.3,2,2.7,3,4c0.4-0.5,0.9-0.8,1.5-1c1.8,1,3.3,2.3,4.5,4c2.4-0.5,4.4,0.5,6,3c2.3-0.9,3.5,0.1,3.5,3c2-0.2,3.7,0.5,5,2
		c0.6-0.1,0.9-0.5,1-1c2.2,3,3.8,6.3,5,10c-2.4-0.7-3.9-2.4-4.5-5c-1,1.1-1.7,0.8-2-1c-0.9,0.9-1.9,0.9-3,0c-4.5-4.1-9.3-7-14.5-8.5
		c0.3-0.3,0.7-0.7,1-1c-2.4-0.7-4.6-1.9-6.5-3.5c-1,0.3-2,0.7-3,1c-0.7-1.3-1.3-2.7-2-4c-1.3,0-2.7,0-4,0c-0.8-0.6-1.6-1.1-2.5-1.5
		c0.3-0.3,0.7-0.7,1-1c-1.7-0.5-3.4-1.1-5-2c0.3-0.3,0.7-0.7,1-1c-1.8-0.3-3.3-1.1-4.5-2.5c-0.3,0.7-0.7,1.3-1,2
		c-1.6-2.3-3.8-3.8-6.5-4.5c0.3-0.3,0.7-0.7,1-1c-1.5-1.4-3-1.5-4.5-0.5c-0.4-0.9-0.9-1.7-1.5-2.5c-4.6-2.3-8.9-4.9-13-8
		c-0.9-0.6-1.8-0.5-2.5,0.5c-0.6-2-1.6-2.3-3-1c-1.2-2.2-3.1-3.7-5.5-4.5c0.3-0.3,0.7-0.7,1-1c-1.4-0.6-2.7-0.4-4,0.5
		c-2.5-4.2-6-6.2-10.5-6c-0.4-2.8-1.8-3.8-4-3c-1.8-0.8-3.7-2.3-5.5-4.5c-1.3-0.3-2.4-0.8-3.5-1.5c-0.3,0.3-0.7,0.7-1,1
		c-1.7-2.1-3.9-3.6-6.5-4.5c1.3-0.7,1.3-1.3,0-2c-1.5-1.4-3-1.5-4.5-0.5c-0.4-3-1-3.4-2-1c-0.3-1.8-1-2.1-2-1
		c-1.3-2-3.2-3.2-5.5-3.5c-0.7-1.1-1.2-2.2-1.5-3.5c-0.3,1-0.7,2-1,3c-0.3-1.3-0.8-2.4-1.5-3.5c-2.4-0.3-4.3-1.5-5.5-3.5
		c-0.4,0.5-0.9,0.8-1.5,1c-0.7-1-1.3-2-2-3c-0.6,0.2-1.1,0.5-1.5,1c-1-1.1-1.8-2.2-2.5-3.5c-2.7-0.8-5.2-1.9-7.5-3.5
		c-0.3,0.7-0.7,1.3-1,2c-2-2.3-4.2-4.4-6.5-6.5c-0.9-0.6-1.8-0.5-2.5,0.5c-1.5-2.2-3.3-4-5.5-5.5c-0.9-0.6-1.8-0.5-2.5,0.5
		c-3.2-1.7-6.4-3.5-9.5-5.5c-1.3-0.8-2-2-2-3.5C137.2,15.2,138.2,14.2,139.5,13.5z"/>
</g>
<g>
	<path class="st6" d="M136.5,16.5c0,1.5,0.7,2.7,2,3.5c3.1,2,6.3,3.8,9.5,5.5c0.7-1,1.6-1.1,2.5-0.5c2.2,1.5,4,3.3,5.5,5.5
		c0.7-1,1.6-1.1,2.5-0.5c2.3,2.1,4.5,4.2,6.5,6.5c0.3-0.7,0.7-1.3,1-2c2.3,1.6,4.8,2.7,7.5,3.5c0.7,1.3,1.5,2.4,2.5,3.5
		c0.4-0.5,0.9-0.8,1.5-1c0.7,1,1.3,2,2,3c0.6-0.2,1.1-0.5,1.5-1c1.2,2,3.1,3.2,5.5,3.5c0.7,1.1,1.2,2.2,1.5,3.5c0.3-1,0.7-2,1-3
		c0.3,1.3,0.8,2.4,1.5,3.5c2.3,0.3,4.2,1.5,5.5,3.5c1-1.1,1.7-0.8,2,1c1-2.4,1.6-2,2,1c1.5-1,3-0.9,4.5,0.5c1.3,0.7,1.3,1.3,0,2
		c2.6,0.9,4.8,2.4,6.5,4.5c0.3-0.3,0.7-0.7,1-1c1.1,0.7,2.2,1.2,3.5,1.5c1.8,2.2,3.7,3.7,5.5,4.5c2.2-0.8,3.6,0.2,4,3
		c4.5-0.2,8,1.8,10.5,6c1.3-0.9,2.6-1.1,4-0.5c-0.3,0.3-0.7,0.7-1,1c2.4,0.8,4.3,2.3,5.5,4.5c1.4-1.3,2.4-1,3,1
		c0.7-1,1.6-1.1,2.5-0.5c4.1,3.1,8.4,5.7,13,8c0.6,0.8,1.1,1.6,1.5,2.5c1.5-1,3-0.9,4.5,0.5c-0.3,0.3-0.7,0.7-1,1
		c2.7,0.7,4.9,2.2,6.5,4.5c0.3-0.7,0.7-1.3,1-2c1.2,1.4,2.7,2.2,4.5,2.5c-0.3,0.3-0.7,0.7-1,1c1.6,0.9,3.3,1.5,5,2
		c-0.3,0.3-0.7,0.7-1,1c0.9,0.4,1.8,0.9,2.5,1.5c1.3,0,2.7,0,4,0c0.7,1.3,1.3,2.7,2,4c1-0.3,2-0.7,3-1c1.9,1.6,4.1,2.8,6.5,3.5
		c-0.3,0.3-0.7,0.7-1,1c5.2,1.5,10,4.4,14.5,8.5c1.1,0.9,2.1,0.9,3,0c0.3,1.8,1,2.1,2,1c0.6,2.6,2.1,4.3,4.5,5c2.8,3.6,5.2,7.6,7,12
		c-2.6-1-4.7-2.7-6.5-5c-0.8,2.4-1.6,2.2-2.5-0.5c-2.5-1.7-5.8-3.2-10-4.5c-2-2.8-4.5-4.8-7.5-6c-0.3,0.3-0.7,0.7-1,1
		c-0.8-1-1.7-2-2.5-3c-0.6,0.2-1.1,0.5-1.5,1c-1.6-1.7-3.3-3.3-5-5c-0.3,0.3-0.7,0.7-1,1c-4.1-2.2-7.7-4.9-11-8
		c-0.3,0.3-0.7,0.7-1,1c-3-2.3-6-4.7-9-7c-0.3,0.7-0.7,1.3-1,2c-5.4-3.1-10.6-6.6-15.5-10.5c-4.2-1.1-7.7-3.3-10.5-6.5
		c-1.7,1.1-2.7,0.4-3-2c-0.3,0.3-0.7,0.7-1,1c-1.5-1.9-3.1-2.6-5-2c-0.5-0.9-0.6-1.9-0.5-3c-1.7,0.2-3.4,0-5-0.5
		c0.7-0.3,1.3-0.7,2-1c-2.6-0.6-4.9-1.8-7-3.5c-1.8,1.1-3,0.4-3.5-2c-0.3,0.3-0.7,0.7-1,1c-1.4-1-2.9-1.8-4.5-2.5
		c-1.3-0.7-1.3-1.3,0-2c-2.5-0.1-4.7-0.9-6.5-2.5c-1.7,0.8-1.8,0.3-0.5-1.5c-0.9-0.6-1.8-0.5-2.5,0.5c-0.6-2-1.6-2.3-3-1
		c-0.5-0.9-0.6-1.9-0.5-3c-5.4-3.7-11.4-6.5-18-8.5c-1-1.8-2.1-2.3-3.5-1.5c-1.2-2-3.1-3.2-5.5-3.5c0.3-0.3,0.7-0.7,1-1
		c-2.6,0.2-4.9-0.8-7-3c-0.6-0.8-1.1-1.6-1.5-2.5c-1.2-0.3-2.5-0.3-4,0c-1.3-1.3-2.7-2.7-4-4c-0.3,0.3-0.7,0.7-1,1
		c-3-1.9-6.4-4.3-10-7c-6.2-3.8-13-7.5-20.5-11C131.5,20.8,133.8,18.5,136.5,16.5z"/>
</g>
<g>
	<path class="st7" d="M121.5,29.5c-1.3,1.7-2.7,3.3-4,5c-2.9,1.3-5.3,3.3-7,6c-2.3,2-4.7,4-7,6c-2.3,1.7-4.3,3.7-6,6
		c-0.7,0.3-1.3,0.7-2,1c-0.7,0.1-1.4,0-2-0.5c-0.2-1.1-0.2-2.2,0-3.5c-0.3-1.2-0.8-1.2-1.5,0c-1.2-1-1.7-2-1.5-3
		c-1.8,1.8-3.8,3.1-6,4c9.6-9.1,19.6-17.8,30-26c2.9-1.6,5.6-3.6,8-6c0.3,3.3-0.3,6.7-2,10C120.6,29.1,121,29.4,121.5,29.5z"/>
</g>
<g>
	<path class="st8" d="M129.5,23.5c7.5,3.5,14.3,7.2,20.5,11c3.6,2.7,7,5.1,10,7c0.3-0.3,0.7-0.7,1-1c1.3,1.3,2.7,2.7,4,4
		c1.5-0.3,2.8-0.3,4,0c0.4,0.9,0.9,1.7,1.5,2.5c2.1,2.2,4.4,3.2,7,3c-0.3,0.3-0.7,0.7-1,1c2.4,0.3,4.3,1.5,5.5,3.5
		c1.4-0.8,2.5-0.3,3.5,1.5c6.6,2,12.6,4.8,18,8.5c-0.1,1.1,0,2.1,0.5,3c1.4-1.3,2.4-1,3,1c0.7-1,1.6-1.1,2.5-0.5
		c-1.3,1.8-1.2,2.3,0.5,1.5c1.8,1.6,4,2.4,6.5,2.5c-1.3,0.7-1.3,1.3,0,2c1.6,0.7,3.1,1.5,4.5,2.5c0.3-0.3,0.7-0.7,1-1
		c0.5,2.4,1.7,3.1,3.5,2c2.1,1.7,4.4,2.9,7,3.5c-0.7,0.3-1.3,0.7-2,1c1.6,0.5,3.3,0.7,5,0.5c-0.1,1.1,0,2.1,0.5,3
		c1.9-0.6,3.5,0.1,5,2c0.3-0.3,0.7-0.7,1-1c0.3,2.4,1.3,3.1,3,2c2.8,3.2,6.3,5.4,10.5,6.5c4.9,3.9,10.1,7.4,15.5,10.5
		c0.3-0.7,0.7-1.3,1-2c3,2.3,6,4.7,9,7c0.3-0.3,0.7-0.7,1-1c3.3,3.1,6.9,5.8,11,8c0.3-0.3,0.7-0.7,1-1c1.7,1.7,3.4,3.3,5,5
		c0.4-0.5,0.9-0.8,1.5-1c0.8,1,1.7,2,2.5,3c0.3-0.3,0.7-0.7,1-1c3,1.2,5.5,3.2,7.5,6c4.2,1.3,7.5,2.8,10,4.5
		c0.9,2.7,1.7,2.9,2.5,0.5c1.8,2.3,3.9,4,6.5,5c3.1,5.1,5.8,10.4,8,16c-2.1-0.1-3.6-1.1-4.5-3c-1,1.1-1.7,0.8-2-1
		c-1.7,1.1-2.7,0.4-3-2c-0.3,0.3-0.7,0.7-1,1c-4-2.9-8.2-5.5-12.5-8c-1.6,1.1-2.4,0.4-2.5-2c-1.3,0-2.7,0-4,0
		c-0.5-1.4-1.3-2.6-2.5-3.5c-3.3-1-6.6-2.7-10-5c-1.5-1.5-3-3-4.5-4.5c-0.4,0.5-0.9,0.8-1.5,1c-4.1-2.8-8.3-5.5-12.5-8
		c-0.7,1-1.6,1.1-2.5,0.5c-1.8-1.8-3.7-3.7-5.5-5.5c-2.1,1.3-3.4,0.6-4-2c-1.4,0.8-2.5,0.3-3.5-1.5c-1.3-0.3-2.7-0.7-4-1
		c0.3-0.3,0.7-0.7,1-1c-4.1-1.3-7.6-3.4-10.5-6.5c-0.4,0.5-0.9,0.8-1.5,1c-2.2-1.8-4.3-3.4-6.5-5c-0.3,0.3-0.7,0.7-1,1
		c-0.4-0.9-0.9-1.7-1.5-2.5c-4.4-0.7-8.4-2.2-12-4.5c0-1,0-2,0-3c-7.4-2.6-14.3-6.3-20.5-11c-1.9,0.5-3.3-0.5-4-3
		c-0.3,0.7-0.7,1.3-1,2c-2.1-3-4.7-5.4-8-7c-0.3,0.3-0.7,0.7-1,1c-3.1-2.8-6.4-5.1-10-7c-0.3,0.3-0.7,0.7-1,1c-2.1-2.5-4.4-3.8-7-4
		c-3-2.3-6-4.7-9-7c-4.5-1.3-9-3.5-13.5-6.5c0.8-1.7,0.3-1.8-1.5-0.5c-1.2-2.3-2.9-3-5-2c-4.4-3.9-9.1-6.6-14-8
		c-1.1-1.9-2.4-3.5-4-5c-1,1.1-1.7,0.8-2-1c-0.3,0.7-0.7,1.3-1,2c-0.8-1.2-1.3-2.6-1.5-4C124.2,26.8,126.6,24.8,129.5,23.5z"/>
</g>
<g>
	<path class="st9" d="M121.5,29.5c0.3,0,0.7,0,1,0c0.2,1.4,0.7,2.8,1.5,4c0.3-0.7,0.7-1.3,1-2c0.3,1.8,1,2.1,2,1
		c1.6,1.5,2.9,3.1,4,5c4.9,1.4,9.6,4.1,14,8c2.1-1,3.8-0.3,5,2c1.8-1.3,2.3-1.2,1.5,0.5c4.5,3,9,5.2,13.5,6.5c3,2.3,6,4.7,9,7
		c2.6,0.2,4.9,1.5,7,4c0.3-0.3,0.7-0.7,1-1c3.6,1.9,6.9,4.2,10,7c0.3-0.3,0.7-0.7,1-1c3.3,1.6,5.9,4,8,7c0.3-0.7,0.7-1.3,1-2
		c0.7,2.5,2.1,3.5,4,3c6.2,4.7,13.1,8.4,20.5,11c0,1,0,2,0,3c3.6,2.3,7.6,3.8,12,4.5c0.6,0.8,1.1,1.6,1.5,2.5c0.3-0.3,0.7-0.7,1-1
		c2.2,1.6,4.3,3.2,6.5,5c0.6-0.2,1.1-0.5,1.5-1c2.9,3.1,6.4,5.2,10.5,6.5c-0.3,0.3-0.7,0.7-1,1c1.3,0.3,2.7,0.7,4,1
		c1,1.8,2.1,2.3,3.5,1.5c0.6,2.6,1.9,3.3,4,2c1.8,1.8,3.7,3.7,5.5,5.5c0.9,0.6,1.8,0.5,2.5-0.5c4.2,2.5,8.4,5.2,12.5,8
		c0.6-0.2,1.1-0.5,1.5-1c1.5,1.5,3,3,4.5,4.5c3.4,2.3,6.7,4,10,5c1.2,0.9,2,2.1,2.5,3.5c1.3,0,2.7,0,4,0c0.1,2.4,0.9,3.1,2.5,2
		c4.3,2.5,8.5,5.1,12.5,8c0.3-0.3,0.7-0.7,1-1c0.3,2.4,1.3,3.1,3,2c0.3,1.8,1,2.1,2,1c0.9,1.9,2.4,2.9,4.5,3c2.1,2.2,3.1,4.9,3,8
		c-1.9-0.7-3.8-1.7-5.5-3c-0.3,0.3-0.7,0.7-1,1c-1.7-1.7-3.3-3.3-5-5c-1.3,0.5-2.8,0.5-4.5,0c0-1,0-2,0-3c-3.7-0.3-6.5-1.9-8.5-5
		c-1.9,0.6-3.5-0.1-5-2c-0.3,0.3-0.7,0.7-1,1c-4.3-2.5-8.2-5-11.5-7.5c-1.3-0.5-2.6-0.7-4-0.5c0.1-1.1,0-2.1-0.5-3
		c-2.5,0.7-4.5-0.3-6-3c-0.3,0.3-0.7,0.7-1,1c-1.5-1.5-3.3-2.3-5.5-2.5c1.1-1,0.8-1.7-1-2c1.4-2.1,1-2.6-1-1.5
		c-1.9-1.1-3.9-1.9-6-2.5c0.1-1.3-0.4-2.4-1.5-3.5c-0.3,0.7-0.7,1.3-1,2c-2.5-1.9-5.2-3.6-8-5c-0.3,0.3-0.7,0.7-1,1
		c-0.3-1-0.7-2-1-3c-2-1.3-4-2.7-6-4c-1.5,2.8-2.7,2.6-3.5-0.5c-3.1-1.1-6.1-2.4-9-4c0.7-0.3,1.3-0.7,2-1c-2.8-0.5-5.4-1.4-8-2.5
		c-2-2.1-4.2-4.1-6.5-6c-0.4,0.5-0.9,0.8-1.5,1c-3.2-2.1-6.2-4.4-9-7c-1,2.5-1.9,2.5-2.5,0c-0.3,0.3-0.7,0.7-1,1
		c-2-2.1-4.2-4.1-6.5-6c-1.6,1.1-2.4,0.4-2.5-2c-0.3,0.3-0.7,0.7-1,1c-4.7-2.9-9.7-6.2-15-10c-0.3,0.3-0.7,0.7-1,1c-0.4-3-1-3.4-2-1
		c-3.2-2.4-6.9-5.1-11-8c-1.6,0.6-2.9-0.1-4-2c-0.3,0.3-0.7,0.7-1,1c-2.5-2.8-5.3-4.3-8.5-4.5c0.3-0.3,0.7-0.7,1-1
		c-3.1-1.9-6.4-3.2-10-4c0.3-0.3,0.7-0.7,1-1c-4.7-3.2-9.7-5.9-15-8c-3.4-1.7-6.4-3.8-9-6.5c-0.3,0.7-0.7,1.3-1,2
		c-1.1-1.2-1.9-2.5-2.5-4c-1.1,0.8-2.2,0.6-3.5-0.5c0.3-0.3,0.7-0.7,1-1c-1.5-0.6-2.8-1.5-4-2.5c-1,0.8-2,1-3,0.5
		c1.2-3.1,0.7-3.3-1.5-0.5c-0.5-0.6-0.6-1.3-0.5-2C118.8,32.8,120.2,31.2,121.5,29.5z"/>
</g>
<g>
	<path class="st10" d="M95.5,53.5c-1,1.8-2.5,3.2-4.5,4c-0.8,1.9-1.3,3.9-1.5,6c-1.6,2.7-2.6,5.7-3,9c-1.7,3.4-3,7.1-4,11
		c-1.7,4.2-3.1,8.5-4,13c-1.6,2.7-2.6,5.7-3,9c-1.7,3.4-3,7.1-4,11c-1.7,4.2-3.1,8.5-4,13c-0.3,0-0.7,0-1,0c-1.2-5.2-1.9-5.2-2,0
		c-2.6,0.1-4.6,1.3-6,3.5c2.8,0.1,3.3,1,1.5,2.5c-2.2-1.1-3.9-0.4-5,2c-1.3,0.4-2.8,0.4-4.5,0c-0.6-2.1-0.3-4.3,1-6.5
		c-3.7-2-3.7-3.6,0-5c-2.2-1.9-2.5-4-1-6.5c-1.6-1.7-2.3-3.7-2-6c10.1-19.6,20.3-39.3,30.5-59c1.5-2,3.3-3.3,5.5-4
		c2.2-0.9,4.2-2.2,6-4c-0.2,1,0.3,2,1.5,3c0.7-1.2,1.2-1.2,1.5,0c-0.2,1.3-0.2,2.4,0,3.5C94.1,53.5,94.8,53.6,95.5,53.5z"/>
</g>
<g>
	<path class="st11" d="M103.5,46.5c0.8,2,1.9,2.7,3.5,2c0.3,0.8,0.8,1.5,1.5,2c1-0.8,2-1,3-0.5c0.3,1,0.7,2,1,3c2.3,0.8,4.6,1.5,7,2
		c1.4,2.4,3.4,4.3,6,5.5c0.7-0.3,1.3-0.7,2-1c0.6,2.3,2.6,3.3,6,3c-0.2,1.2,0.1,2.2,1,3c5.9,3.2,11.7,6.5,17.5,10
		c2.1,0.4,4.1,1.8,6,4c1-0.3,2-0.7,3-1c0.3,1.7,0.7,3.3,1,5c5.5,0,10.4,2.2,14.5,6.5c1.3,0.7,2.5,0.5,3.5-0.5
		c0.5,1.4,1.3,2.6,2.5,3.5c4.1,2.4,8.4,4.4,13,6c3.7,1.7,6.9,4.2,9.5,7.5c0.3-0.3,0.7-0.7,1-1c4,3.3,8,5.6,12,7
		c4.6,3.6,9.1,6.6,13.5,9c0.6-0.2,1.1-0.5,1.5-1c4.9,2.5,8.9,5.5,12,9c0.4-0.5,0.9-0.8,1.5-1c1.7,1.5,3.5,2.9,5.5,4
		c0.3-0.3,0.7-0.7,1-1c1.3,2.6,3.5,4.1,6.5,4.5c3.2,3.6,6.8,5.6,11,6c-0.3,0.3-0.7,0.7-1,1c7,3.9,14.3,7.9,22,12
		c0.7,1.1,1.2,2.2,1.5,3.5c3.9-0.7,7.2,0.7,10,4c1.7-1.1,2.7-0.4,3,2c0.3-0.3,0.7-0.7,1-1c8.9,5.1,17.5,10.4,26,16c1,0,2,0,3,0
		c0.9,2.5,2.8,3.5,5.5,3c0,3.7,0,7.3,0,11c-3.4-2.4-7.1-3.7-11-4c0-1,0-2,0-3c-1.3-0.2-2.5,0.2-3.5,1c-0.7-1.5-1.9-2.1-3.5-2
		c0-1,0-2,0-3c-1.3-0.2-2.5,0.2-3.5,1c-3.6-3-7.3-6-11-9c-0.3,0.3-0.7,0.7-1,1c-1.4-0.7-2.9-1.2-4.5-1.5c2.1-0.6,2.3-1.1,0.5-1.5
		c-0.8,0.1-1.4,0.5-2,1c-3.7-3.7-8.2-7-13.5-10c-2,1.3-3.2,0.6-3.5-2c-0.3,0.3-0.7,0.7-1,1c-5.1-3.5-10.1-7.2-15-11
		c-0.3,0.7-0.7,1.3-1,2c-3.2-1.9-6-4.2-8.5-7c-0.7,0.5-1.2,1.2-1.5,2c-1.7-3-3.7-5-6-6c-0.3,0.3-0.7,0.7-1,1c-1.4-1.5-2.9-2.9-4.5-4
		c-0.6,0.2-1.1,0.5-1.5,1c-5.7-4.9-11.6-8.9-17.5-12c-0.6,0.2-1.1,0.5-1.5,1c-3.9-3.1-7.9-6.1-12-9c-1.6,0.6-2.9-0.1-4-2
		c-0.3,0.3-0.7,0.7-1,1c-4-4-8.5-7.1-13.5-9.5c-1.3-0.7-2.5-0.5-3.5,0.5c-2-2.7-4.2-4.8-6.5-6.5c-4.2-1.3-8.3-3.5-12.5-6.5
		c-0.9,1.2-1.7,1-2.5-0.5c0.3-0.3,0.7-0.7,1-1c-5-1.9-9.4-4.2-13-7c-5.2-1-9.5-3.5-13-7.5c-1.8,0.9-3.2,0.3-4-2
		c-3.4-0.1-6.2-1.8-8.5-5c-0.3,0.3-0.7,0.7-1,1c-2.2-2.2-4.5-4.2-7-6c-1,2.3-1.8,2-2.5-1c-3.9-2.1-7.9-3.9-12-5.5
		c0.3-0.3,0.7-0.7,1-1c-2.1-1.8-5.1-3.1-9-4c-1.5-0.8-2.7-2-3.5-3.5c-0.3,0.3-0.7,0.7-1,1c-0.5-0.9-0.6-1.9-0.5-3
		C99.2,50.2,101.2,48.2,103.5,46.5z"/>
</g>
<g>
	<path class="st12" d="M97.5,52.5c-0.1,1.1,0,2.1,0.5,3c0.3-0.3,0.7-0.7,1-1c0.8,1.5,2,2.7,3.5,3.5c3.9,0.9,6.9,2.2,9,4
		c-0.3,0.3-0.7,0.7-1,1c4.1,1.6,8.1,3.4,12,5.5c0.7,3,1.5,3.3,2.5,1c2.5,1.8,4.8,3.8,7,6c0.3-0.3,0.7-0.7,1-1c2.3,3.2,5.1,4.9,8.5,5
		c0.8,2.3,2.2,2.9,4,2c3.5,4,7.8,6.5,13,7.5c3.6,2.8,8,5.1,13,7c-0.3,0.3-0.7,0.7-1,1c0.8,1.5,1.6,1.7,2.5,0.5
		c4.2,3,8.3,5.2,12.5,6.5c2.3,1.7,4.5,3.8,6.5,6.5c1-1,2.2-1.2,3.5-0.5c5,2.4,9.5,5.5,13.5,9.5c0.3-0.3,0.7-0.7,1-1
		c1.1,1.9,2.4,2.6,4,2c4.1,2.9,8.1,5.9,12,9c0.4-0.5,0.9-0.8,1.5-1c5.9,3.1,11.8,7.1,17.5,12c0.4-0.5,0.9-0.8,1.5-1
		c1.6,1.1,3.1,2.5,4.5,4c0.3-0.3,0.7-0.7,1-1c2.3,1,4.3,3,6,6c0.3-0.8,0.8-1.5,1.5-2c2.5,2.8,5.3,5.1,8.5,7c0.3-0.7,0.7-1.3,1-2
		c4.9,3.8,9.9,7.5,15,11c0.3-0.3,0.7-0.7,1-1c0.3,2.6,1.5,3.3,3.5,2c5.3,3,9.8,6.3,13.5,10c0.6-0.5,1.2-0.9,2-1
		c1.8,0.4,1.6,0.9-0.5,1.5c1.6,0.3,3.1,0.8,4.5,1.5c0.3-0.3,0.7-0.7,1-1c3.7,3,7.4,6,11,9c1-0.8,2.2-1.2,3.5-1c0,1,0,2,0,3
		c1.6-0.1,2.8,0.5,3.5,2c1-0.8,2.2-1.2,3.5-1c0,1,0,2,0,3c3.9,0.3,7.6,1.6,11,4c0,5,0,10,0,15c-1.7-0.8-2.8-2.2-3.5-4
		c-0.3,0.7-0.7,1.3-1,2c-0.7-2.8-2.2-3.6-4.5-2.5c1.2-0.9,1-1.7-0.5-2.5c-4.1-1.4-8.1-3.7-12-7c-0.3,0.7-0.7,1.3-1,2
		c-0.5-2-1.7-3.5-3.5-4.5c-6.2-3.2-12.3-6.3-18.5-9.5c-0.8,0.1-1.4,0.5-2,1c-0.7-2.1-1.8-3.7-3.5-5c-3.5-1.4-6.7-3.4-9.5-6
		c-0.3,0.7-0.7,1.3-1,2c-0.4-2.8-1.8-3.8-4-3c-1.4-1.2-2.5-2.5-3.5-4c-0.6,0.2-1.1,0.5-1.5,1c-1.3-1.8-2.9-3.1-5-4
		c-0.3,0.3-0.7,0.7-1,1c-1-1.7-2.3-3-4-4c-4.8-2.1-9.5-5.1-14-9c-4.3-0.3-7.9-2.3-11-6c-0.3,0.3-0.7,0.7-1,1c-3.2-2.6-6.5-4.9-10-7
		c-0.3,1-0.7,2-1,3c-0.5-2.3-1.5-4.3-3-6c-0.7,0.7-1.3,1.3-2,2c-3-3.3-6-6-9-8c-0.7,1-1.6,1.1-2.5,0.5c-3-3.2-6.7-5.3-11-6.5
		c-0.8-1-1.7-2-2.5-3c-0.3,0.7-0.7,1.3-1,2c-1.2-1.5-2.7-2.7-4.5-3.5c0.3-0.3,0.7-0.7,1-1c-2.1-1.2-4.1-1.5-6-1
		c1.2-0.9,1-1.7-0.5-2.5c-0.3,0.7-0.7,1.3-1,2c-2.4-1.3-4.6-3.4-6.5-6.5c-4.3-1.4-8.1-3.6-11.5-6.5c-1,0.3-2,0.7-3,1
		c-0.6-1.5-1.4-2.8-2.5-4c-1.8,0.9-3.2,0.3-4-2c-1.7,1.1-2.4,0.4-2-2c-1.3-0.2-2.5,0.2-3.5,1c-1-1.7-2.3-3-4-4c-0.3,0.3-0.7,0.7-1,1
		c-0.3-1.5-1-2.9-2-4c-0.3,0.3-0.7,0.7-1,1c-2.3-1.7-4.7-3.3-7-5c-0.3,0.3-0.7,0.7-1,1c-1.3-1.3-2.7-2.7-4-4c-0.3,0.3-0.7,0.7-1,1
		c-2.1-1.2-3.8-2.9-5-5c-0.3,0.3-0.7,0.7-1,1c-3.9-1.3-7.1-3.4-9.5-6.5c-2.4-0.3-4.3-1.5-5.5-3.5c-3.1,0.2-6.1-1.4-9-5
		c-2.2,2.8-2.7,2.6-1.5-0.5c-1.7-1.9-2.9-1.7-3.5,0.5c-1.3-1.7-2.8-3-4.5-4c0.2-2.1,0.7-4.1,1.5-6c2-0.8,3.5-2.2,4.5-4
		C96.2,53.2,96.8,52.8,97.5,52.5z"/>
</g>
<g>
	<path class="st13" d="M89.5,63.5c1.7,1,3.2,2.3,4.5,4c0.6-2.2,1.8-2.4,3.5-0.5c-1.2,3.1-0.7,3.3,1.5,0.5c2.9,3.6,5.9,5.2,9,5
		c1.2,2,3.1,3.2,5.5,3.5c2.4,3.1,5.6,5.2,9.5,6.5c0.3-0.3,0.7-0.7,1-1c1.2,2.1,2.9,3.8,5,5c0.3-0.3,0.7-0.7,1-1c1.3,1.3,2.7,2.7,4,4
		c0.3-0.3,0.7-0.7,1-1c2.3,1.7,4.7,3.3,7,5c0.3-0.3,0.7-0.7,1-1c1,1.1,1.7,2.5,2,4c0.3-0.3,0.7-0.7,1-1c1.7,1,3,2.3,4,4
		c1-0.8,2.2-1.2,3.5-1c-0.4,2.4,0.3,3.1,2,2c0.8,2.3,2.2,2.9,4,2c1.1,1.2,1.9,2.5,2.5,4c1-0.3,2-0.7,3-1c3.4,2.9,7.2,5.1,11.5,6.5
		c1.9,3.1,4.1,5.2,6.5,6.5c0.3-0.7,0.7-1.3,1-2c1.5,0.8,1.7,1.6,0.5,2.5c1.9-0.5,3.9-0.2,6,1c-0.3,0.3-0.7,0.7-1,1
		c1.8,0.8,3.3,2,4.5,3.5c0.3-0.7,0.7-1.3,1-2c0.8,1,1.7,2,2.5,3c4.3,1.2,8,3.3,11,6.5c0.9,0.6,1.8,0.5,2.5-0.5c3,2,6,4.7,9,8
		c0.7-0.7,1.3-1.3,2-2c1.5,1.7,2.5,3.7,3,6c0.3-1,0.7-2,1-3c3.5,2.1,6.8,4.4,10,7c0.3-0.3,0.7-0.7,1-1c3.1,3.7,6.7,5.7,11,6
		c4.5,3.9,9.2,6.9,14,9c1.7,1,3,2.3,4,4c0.3-0.3,0.7-0.7,1-1c2.1,0.9,3.7,2.2,5,4c0.4-0.5,0.9-0.8,1.5-1c1,1.5,2.1,2.8,3.5,4
		c2.2-0.8,3.6,0.2,4,3c0.3-0.7,0.7-1.3,1-2c2.8,2.6,6,4.6,9.5,6c1.7,1.3,2.8,2.9,3.5,5c0.6-0.5,1.2-0.9,2-1
		c6.2,3.2,12.3,6.3,18.5,9.5c1.8,1,3,2.5,3.5,4.5c0.3-0.7,0.7-1.3,1-2c3.9,3.3,7.9,5.6,12,7c1.5,0.8,1.7,1.6,0.5,2.5
		c2.3-1.1,3.8-0.3,4.5,2.5c0.3-0.7,0.7-1.3,1-2c0.7,1.8,1.8,3.2,3.5,4c0,3.7,0,7.3,0,11c-16.9-9-33.4-18.7-49.5-29
		c-0.3,0.3-0.7,0.7-1,1c-3.7-2.3-7.3-4.7-11-7c-0.3,0.3-0.7,0.7-1,1c-1.6-1.5-2.9-3.1-4-5c-0.3,0.3-0.7,0.7-1,1
		c-8.2-6.1-16.9-11.4-26-16c-6.1-2.8-12.3-6.5-18.5-11c-0.6,0.2-1.1,0.5-1.5,1c-5.4-4.8-11.3-8.3-17.5-10.5c-2.4-1.7-5.4-3.4-9-5
		c0.3-0.3,0.7-0.7,1-1c-2.1-0.8-3.9-2-5.5-3.5c-0.3,0.3-0.7,0.7-1,1c-0.7-1.3-1.7-2.3-3-3c-1.3,0.5-2.8,0.5-4.5,0c0-1,0-2,0-3
		c-2-0.3-4-0.7-6-1c0.1-1.1,0-2.1-0.5-3c-0.3,0.3-0.7,0.7-1,1c-10.8-6.9-21.9-13.1-33.5-18.5c0.3-0.3,0.7-0.7,1-1
		c-1.7-0.3-3.3-0.7-5-1c-10.8-7.6-21.7-14.5-32.5-20.5c-1.2-0.3-2.5-0.3-4,0c-4.2-4.1-8.8-7.4-14-10c-0.3,0.3-0.7,0.7-1,1
		c-1.8-1.8-3.6-3.5-5.5-5C86.9,69.2,87.9,66.2,89.5,63.5z"/>
</g>
<g>
	<path class="st14" d="M86.5,72.5c1.9,1.5,3.7,3.2,5.5,5c0.3-0.3,0.7-0.7,1-1c5.2,2.6,9.8,5.9,14,10c1.5-0.3,2.8-0.3,4,0
		c10.8,6,21.7,12.9,32.5,20.5c1.7,0.3,3.3,0.7,5,1c-0.3,0.3-0.7,0.7-1,1c11.6,5.4,22.7,11.6,33.5,18.5c0.3-0.3,0.7-0.7,1-1
		c0.5,0.9,0.6,1.9,0.5,3c2,0.3,4,0.7,6,1c0,1,0,2,0,3c1.7,0.5,3.2,0.5,4.5,0c1.3,0.7,2.3,1.7,3,3c0.3-0.3,0.7-0.7,1-1
		c1.6,1.5,3.4,2.7,5.5,3.5c-0.3,0.3-0.7,0.7-1,1c3.6,1.6,6.6,3.3,9,5c6.2,2.2,12.1,5.7,17.5,10.5c0.4-0.5,0.9-0.8,1.5-1
		c6.2,4.5,12.4,8.2,18.5,11c9.1,4.6,17.8,9.9,26,16c0.3-0.3,0.7-0.7,1-1c1.1,1.9,2.4,3.5,4,5c0.3-0.3,0.7-0.7,1-1
		c3.7,2.3,7.3,4.7,11,7c0.3-0.3,0.7-0.7,1-1c16.1,10.3,32.6,20,49.5,29c0,4,0,8,0,12c-3.1,0.1-3.4-0.4-1-1.5
		c-2.4-0.3-4.3-1.5-5.5-3.5c-0.4,0.5-0.9,0.8-1.5,1c-1.6-0.7-3.3-1.2-5-1.5c0.3-0.3,0.7-0.7,1-1c-1.1-0.6-2.1-1.5-3-2.5
		c-2.3,0.9-3.5-0.1-3.5-3c-1,2.4-1.6,2-2-1c-0.3,0.7-0.7,1.3-1,2c-0.5-2.4-1.7-3.1-3.5-2c-0.8-0.9-1.3-1.9-1.5-3
		c-1.5-0.4-3.2-0.4-5,0c-3-3.6-6.8-6.1-11.5-7.5c-1.7-1.5-3.3-3-5-4.5c-1.2-1.2-2.4-1.2-3.5,0c-3-2.7-5.6-5-8-7c-1.7,0-3.3,0-5,0
		c-1-1.1-1.7-2.5-2-4c-0.3,0.3-0.7,0.7-1,1c-3.9-2-7-4-9.5-6c-0.6,0.2-1.1,0.5-1.5,1c-0.9-2.6-2.8-4.1-5.5-4.5
		c1.2-0.9,1-1.7-0.5-2.5c-0.7,2.7-1.3,2.7-2,0c-1.6,0.6-2.9-0.1-4-2c-0.3,0.3-0.7,0.7-1,1c-0.6-1.5-1.4-2.8-2.5-4c-1,0.8-2,1-3,0.5
		c0.3-0.3,0.7-0.7,1-1c-1.7-1.5-3.7-2.5-6-3c0.8-1.3,0.5-2.5-1-3.5c-4.1-9.2-11.1-12.2-21-9c-1.9-0.4-3.4-1.4-4.5-3
		c-0.7,1-1.6,1.1-2.5,0.5c-1.2-1.5-2.3-3-3.5-4.5c-0.3,0.3-0.7,0.7-1,1c-1.1-1.5-2.6-2.2-4.5-2c0.4-2.4-0.3-3.1-2-2
		c-2.3-0.6-3.5-1.6-3.5-3c-0.8,0.1-1.4,0.5-2,1c-0.7-2.5-2.1-3.5-4-3c-1.1-0.7-2.2-1.2-3.5-1.5c2.4-0.5,2.6-1.3,0.5-2.5
		c-0.7,0.7-1.3,1.3-2,2c-1.1-3-2.9-4.3-5.5-4c-2.9-1.2-5.1-3.2-6.5-6c-0.6,0.5-1.2,0.9-2,1c-1.3-1.3-2.7-2.6-4-4
		c-1.7,1.1-2.7,0.4-3-2c-0.3,0.3-0.7,0.7-1,1c-2.1-1.2-3.8-2.9-5-5c-0.6,2.2-1.8,2.4-3.5,0.5c0.8-1.7,0.3-1.8-1.5-0.5
		c-2.3-1.5-4.5-3.1-6.5-5c-1.8,1.1-3,0.4-3.5-2c-1.1,1-2.1,0.6-3-1c-0.4-3-1-3.4-2-1c-1.5-0.8-2.8-1.8-4-3c-1,1.1-1.7,0.8-2-1
		c-1.8,1.3-2.3,1.2-1.5-0.5c-0.7-2.1-1.9-2.6-3.5-1.5c-0.3-0.7-0.7-1.3-1-2c-1.3,0-2.7,0-4,0c-1.6-2.6-3.6-5-6-7
		c-0.3,0.7-0.7,1.3-1,2c-1-2-2.3-3.6-4-5c-1.5,2.8-2.7,2.6-3.5-0.5c-4-2-8-4-12-6c1.2-0.9,1-1.7-0.5-2.5c-0.4,0.5-0.9,0.8-1.5,1
		c-3.7-2.1-7.4-4.1-11-6C83.5,79.6,84.8,75.9,86.5,72.5z"/>
</g>
<g>
	<path class="st15" d="M117.5,34.5c-0.1,0.7,0,1.4,0.5,2c2.2-2.8,2.7-2.6,1.5,0.5c1,0.5,2,0.3,3-0.5c1.2,1,2.5,1.9,4,2.5
		c-0.3,0.3-0.7,0.7-1,1c1.3,1.1,2.4,1.3,3.5,0.5c0.6,1.5,1.4,2.8,2.5,4c0.3-0.7,0.7-1.3,1-2c2.6,2.7,5.6,4.8,9,6.5
		c5.3,2.1,10.3,4.8,15,8c-0.3,0.3-0.7,0.7-1,1c3.6,0.8,6.9,2.1,10,4c-0.3,0.3-0.7,0.7-1,1c3.2,0.2,6,1.7,8.5,4.5
		c0.3-0.3,0.7-0.7,1-1c1.1,1.9,2.4,2.6,4,2c4.1,2.9,7.8,5.6,11,8c1-2.4,1.6-2,2,1c0.3-0.3,0.7-0.7,1-1c5.3,3.8,10.3,7.1,15,10
		c0.3-0.3,0.7-0.7,1-1c0.1,2.4,0.9,3.1,2.5,2c2.3,1.9,4.5,3.9,6.5,6c0.3-0.3,0.7-0.7,1-1c0.6,2.5,1.5,2.5,2.5,0c2.8,2.6,5.8,4.9,9,7
		c0.6-0.2,1.1-0.5,1.5-1c2.3,1.9,4.5,3.9,6.5,6c2.6,1.1,5.2,2,8,2.5c-0.7,0.3-1.3,0.7-2,1c2.9,1.6,5.9,2.9,9,4
		c0.8,3.1,2,3.3,3.5,0.5c2,1.3,4,2.7,6,4c0.3,1,0.7,2,1,3c0.3-0.3,0.7-0.7,1-1c2.8,1.4,5.5,3.1,8,5c0.3-0.7,0.7-1.3,1-2
		c1.1,1.1,1.6,2.2,1.5,3.5c2.1,0.6,4.1,1.4,6,2.5c2-1.1,2.4-0.6,1,1.5c1.8,0.3,2.1,1,1,2c2.2,0.2,4,1,5.5,2.5c0.3-0.3,0.7-0.7,1-1
		c1.5,2.7,3.5,3.7,6,3c0.5,0.9,0.6,1.9,0.5,3c1.4-0.2,2.7,0,4,0.5c3.3,2.5,7.2,5,11.5,7.5c0.3-0.3,0.7-0.7,1-1c1.5,1.9,3.1,2.6,5,2
		c2,3.1,4.8,4.7,8.5,5c0,1,0,2,0,3c1.7,0.5,3.2,0.5,4.5,0c1.7,1.7,3.3,3.3,5,5c0.3-0.3,0.7-0.7,1-1c1.7,1.3,3.6,2.3,5.5,3
		c0,4,0,8,0,12c-1.2-2.4-2.4-2.4-3.5,0c-2.8-1.4-3-2.9-0.5-4.5c-1.8-1.5-3.6-1.7-5.5-0.5c-0.6-0.9-0.5-1.8,0.5-2.5
		c-3-0.7-5.5-2.2-7.5-4.5c-2.1,3.5-3.4,2.9-4-2c-0.9,0.9-1.9,0.9-3,0c-0.9,0.4-1.6,1.1-2,2c-1.9-3.3-4.6-6-8-8
		c-2.2,4-2.7,3.9-1.5-0.5c-1.9-3.3-3.6-3.1-5,0.5c-1.3-0.8-2.5-1.8-3.5-3c-0.7,1-1.6,1.1-2.5,0.5c0-1.3,0-2.7,0-4
		c-1.6-0.7-2.8-0.2-3.5,1.5c-2.7-4.9-6.4-8.9-11-12c-0.3,0.8-0.8,1.5-1.5,2c-2.1-1.8-4.2-2.1-6.5-1c-0.8-0.6-1.6-1.1-2.5-1.5
		c1.1-0.2,2.1-0.7,3-1.5c-0.3-1.2-0.8-1.2-1.5,0c-0.7-3.3-2.6-4.3-5.5-3c-1.1-1.4-2.1-2.9-3-4.5c-1.6-0.3-2.7-1.2-3.5-2.5
		c-1.7,1.1-2.7,0.4-3-2c-0.3,1.7-1.3,2.7-3,3c-1.3-0.3-1.6-1-1-2c0.9,1.2,1.7,1,2.5-0.5c-1.6-0.7-3.1-1.5-4.5-2.5
		c-0.3,0.3-0.7,0.7-1,1c-0.6-3.2-1.6-3.5-3-1c-0.3-1-0.7-2-1-3c-0.3,0.3-0.7,0.7-1,1c-1.2-3-3.2-4-6-3c-3-3.7-6.9-6.2-11.5-7.5
		c0.8-1.7,0.3-1.8-1.5-0.5c-1.3-1.3-2.7-2.7-4-4c-0.6,0.5-1.2,0.9-2,1c-1.7-1.2-3.2-2.5-4.5-4c-1.3,0.2-2.4,0.2-3.5,0
		c-1.5-0.8-1.7-1.6-0.5-2.5c-2.1-0.7-3.7-1.8-5-3.5c-1,0.8-2,1-3,0.5c0.3-0.3,0.7-0.7,1-1c-2.3-0.8-4.2-2.3-5.5-4.5
		c-0.7,0.7-1.3,1.3-2,2c-1.6-1.5-2.9-3.1-4-5c-1.1,2.2-2.3,2.3-3.5,0.5c2.5-2.4,2-2.9-1.5-1.5c-2.1-1.3-4.3-2.5-6.5-3.5
		c0.3-0.3,0.7-0.7,1-1c-3.2-1.1-6.2-2.4-9-4c-2.2-1.5-4-3.3-5.5-5.5c-0.3,0.8-0.8,1.5-1.5,2c-1.7-1.4-3.7-2.3-6-2.5
		c0.5-0.4,0.8-0.9,1-1.5c-1-0.9-1.9-1.9-2.5-3c-0.3,1-0.7,2-1,3c0-2.9-1.2-3.9-3.5-3c-1.2-1.3-2.6-2.4-4-3.5c0.3-0.3,0.7-0.7,1-1
		c-1.3-0.7-2.5-0.5-3.5,0.5c-1.6-3.2-3.4-3.5-5.5-1c-1.6-1.6-2.4-3.3-2.5-5c-1,1.1-1.7,0.8-2-1c-1.1,2.2-2.3,2.3-3.5,0.5
		c0.7-0.7,1.3-1.3,2-2c-1.9-0.2-3.4-1-4.5-2.5c-1.7,1.1-2.7,0.4-3-2c-0.3,0.3-0.7,0.7-1,1c-1.7-1.3-3.3-2.7-5-4
		c-1.7,1.1-3.6,1.2-5.5,0.5c0.8-0.9,1.8-1.6,3-2c-3-0.4-3.4-1-1-2c-1.6-0.7-2.8-0.2-3.5,1.5c-0.3-1-0.7-2-1-3c-0.3,0.3-0.7,0.7-1,1
		c-1-1.3-2.2-2.3-3.5-3C112.2,37.8,114.6,35.8,117.5,34.5z"/>
</g>
<g>
	<path class="st16" d="M82.5,83.5c3.6,1.9,7.3,3.9,11,6c0.6-0.2,1.1-0.5,1.5-1c1.5,0.8,1.7,1.6,0.5,2.5c4,2,8,4,12,6
		c0.8,3.1,2,3.3,3.5,0.5c1.7,1.4,3,3,4,5c0.3-0.7,0.7-1.3,1-2c2.4,2,4.4,4.4,6,7c1.3,0,2.7,0,4,0c0.3,0.7,0.7,1.3,1,2
		c1.6-1.1,2.8-0.6,3.5,1.5c-0.8,1.7-0.3,1.8,1.5,0.5c0.3,1.8,1,2.1,2,1c1.2,1.2,2.5,2.2,4,3c1-2.4,1.6-2,2,1c0.9,1.6,1.9,2,3,1
		c0.5,2.4,1.7,3.1,3.5,2c2,1.9,4.2,3.5,6.5,5c1.8-1.3,2.3-1.2,1.5,0.5c1.7,1.9,2.9,1.7,3.5-0.5c1.2,2.1,2.9,3.8,5,5
		c0.3-0.3,0.7-0.7,1-1c0.3,2.4,1.3,3.1,3,2c1.3,1.4,2.7,2.7,4,4c0.8-0.1,1.4-0.5,2-1c1.4,2.8,3.6,4.8,6.5,6c2.6-0.3,4.4,1,5.5,4
		c0.7-0.7,1.3-1.3,2-2c2.1,1.2,1.9,2-0.5,2.5c1.3,0.3,2.4,0.8,3.5,1.5c1.9-0.5,3.3,0.5,4,3c0.6-0.5,1.2-0.9,2-1c0,1.4,1.2,2.4,3.5,3
		c1.7-1.1,2.4-0.4,2,2c1.9-0.2,3.4,0.5,4.5,2c0.3-0.3,0.7-0.7,1-1c1.2,1.5,2.3,3,3.5,4.5c0.9,0.6,1.8,0.5,2.5-0.5
		c1.1,1.6,2.6,2.6,4.5,3c-3.8,3-6.2,7-7,12c-1.8-0.6-3-2-3.5-4c-0.4,1.5-1.3,2-2.5,1.5c-4.2-4.2-8.8-6.9-14-8
		c-1.3-1.4-2.5-2.9-3.5-4.5c-1,1-2.2,1.2-3.5,0.5c-5.4-3.6-10.3-7.1-14.5-10.5c-0.3,0.3-0.7,0.7-1,1c-3.9-1.9-7.6-4.3-11-7
		c-0.3,0.3-0.7,0.7-1,1c-1.3-1.3-2.7-2.7-4-4c-0.3,0.3-0.7,0.7-1,1c-4.1-3.4-8.4-6.4-13-9c-0.3,0.3-0.7,0.7-1,1
		c-0.6-3.1-2.3-4.1-5-3c-0.3-1-0.7-2-1-3c-1.3,0-2.7,0-4,0c-2.5-2.1-5.2-4.1-8-6c-0.3,0.3-0.7,0.7-1,1c-2-1.3-3.7-3-5-5
		c-1.6,0.8-2.6,0.2-3-2c-0.7,1-1.6,1.1-2.5,0.5c-5-3.6-10.3-6.6-16-9c-2-2.1-4.7-3.8-8-5c1.2-0.9,1-1.7-0.5-2.5
		c-0.4,0.5-0.9,0.8-1.5,1c-0.8-1.8-1.8-2.5-3-2C79.4,92,80.8,87.7,82.5,83.5z"/>
</g>
<g>
	<path class="st17" d="M78.5,96.5c1.2-0.5,2.2,0.2,3,2c0.6-0.2,1.1-0.5,1.5-1c1.5,0.8,1.7,1.6,0.5,2.5c3.3,1.2,6,2.9,8,5
		c5.7,2.4,11,5.4,16,9c0.9,0.6,1.8,0.5,2.5-0.5c0.4,2.2,1.4,2.8,3,2c1.3,2,3,3.7,5,5c0.3-0.3,0.7-0.7,1-1c2.8,1.9,5.5,3.9,8,6
		c1.3,0,2.7,0,4,0c0.3,1,0.7,2,1,3c2.7-1.1,4.4-0.1,5,3c0.3-0.3,0.7-0.7,1-1c4.6,2.6,8.9,5.6,13,9c0.3-0.3,0.7-0.7,1-1
		c1.3,1.3,2.7,2.7,4,4c0.3-0.3,0.7-0.7,1-1c3.4,2.7,7.1,5.1,11,7c0.3-0.3,0.7-0.7,1-1c4.2,3.4,9.1,6.9,14.5,10.5
		c1.3,0.7,2.5,0.5,3.5-0.5c1,1.6,2.2,3.1,3.5,4.5c5.2,1.1,9.8,3.8,14,8c1.2,0.5,2.1,0,2.5-1.5c0.5,2,1.7,3.4,3.5,4c0,1.3,0,2.7,0,4
		c-9.2-2-18.5-3-28-3c3.1-0.6,3.5-1.8,1-3.5c-5.9-3.2-12.4-7.1-19.5-11.5c-0.3,0.3-0.7,0.7-1,1c-0.5-0.9-0.6-1.9-0.5-3
		c-2,0.3-3.5-0.4-4.5-2c-0.3,0.3-0.7,0.7-1,1c-2.8-2.6-5.9-4.6-9.5-6c-1.3-1.2-2.4-2.6-3.5-4c-1.2,2.3-2.2,2-3-1
		c-0.3,0.3-0.7,0.7-1,1c-4.6-3.2-9.3-6.2-14-9c-0.3,0.3-0.7,0.7-1,1c-2.1-1.9-4.1-3.9-6-6c-0.3,0.3-0.7,0.7-1,1c-0.3-1-0.7-2-1-3
		c-1,0.3-2,0.7-3,1c-3.2-2.5-6.6-4.8-10-7c-0.3,0.3-0.7,0.7-1,1c-7.9-6.2-16.1-11-24.5-14.5c-1.4-1.3-2.4-2.8-3-4.5
		C75.9,102.2,76.9,99.2,78.5,96.5z"/>
</g>
<g>
	<path class="st18" d="M75.5,105.5c0.6,1.7,1.6,3.2,3,4.5c8.4,3.5,16.6,8.3,24.5,14.5c0.3-0.3,0.7-0.7,1-1c3.4,2.2,6.8,4.5,10,7
		c1-0.3,2-0.7,3-1c0.3,1,0.7,2,1,3c0.3-0.3,0.7-0.7,1-1c1.9,2.1,3.9,4.1,6,6c0.3-0.3,0.7-0.7,1-1c4.7,2.8,9.4,5.8,14,9
		c0.3-0.3,0.7-0.7,1-1c0.8,3,1.8,3.3,3,1c1.1,1.4,2.2,2.8,3.5,4c3.6,1.4,6.7,3.4,9.5,6c0.3-0.3,0.7-0.7,1-1c1,1.6,2.5,2.3,4.5,2
		c-0.1,1.1,0,2.1,0.5,3c0.3-0.3,0.7-0.7,1-1c7.1,4.4,13.6,8.3,19.5,11.5c2.5,1.7,2.1,2.9-1,3.5c-4.4-0.3-8.8,0.1-13,1
		c0.1-1.1,0-2.1-0.5-3c-4.9-0.6-9.2-3-13-7c-1.7,1.1-2.7,0.4-3-2c-1.4-0.6-3.1-0.6-5,0c-1-1.3-2-2.7-3-4c-1.8,1.3-2.3,1.2-1.5-0.5
		c-3.4-1.4-6.6-3.3-9.5-5.5c-0.3,0.3-0.7,0.7-1,1c-2.1-1.9-4.1-3.9-6-6c-1.5,0.3-2.8,0.3-4,0c-1.4-1.1-2.4-2.4-3-4
		c-0.3,0.3-0.7,0.7-1,1c-4-1.8-7.6-4.2-11-7c-0.3,0.3-0.7,0.7-1,1c-2.3-2.2-4.8-4.2-7.5-6c-1,0.8-2,1-3,0.5
		c-5.2-4.2-10.9-7.7-17-10.5c-0.8-1-1.7-2-2.5-3c-0.3,0.3-0.7,0.7-1,1c-1.7-1.2-3.2-2.5-4.5-4C72.5,112.6,73.8,108.9,75.5,105.5z"/>
</g>
<g>
	<path class="st19" d="M71.5,116.5c1.3,1.5,2.8,2.8,4.5,4c0.3-0.3,0.7-0.7,1-1c0.8,1,1.7,2,2.5,3c6.1,2.8,11.8,6.3,17,10.5
		c1,0.5,2,0.3,3-0.5c2.7,1.8,5.2,3.8,7.5,6c0.3-0.3,0.7-0.7,1-1c3.4,2.8,7,5.2,11,7c0.3-0.3,0.7-0.7,1-1c0.6,1.6,1.6,2.9,3,4
		c1.2,0.3,2.5,0.3,4,0c1.9,2.1,3.9,4.1,6,6c0.3-0.3,0.7-0.7,1-1c2.9,2.2,6.1,4.1,9.5,5.5c-0.8,1.7-0.3,1.8,1.5,0.5c1,1.3,2,2.7,3,4
		c1.9-0.6,3.6-0.6,5,0c0.3,2.4,1.3,3.1,3,2c3.8,4,8.1,6.4,13,7c0.5,0.9,0.6,1.9,0.5,3c-8.5,0.9-16.9,2.5-25,5c2-11.6-2.6-18.6-14-21
		c-3.8,0.4-7.1,1.7-10,4c0-1.5-0.7-2.7-2-3.5c-3.9-1.4-7.1-3.3-9.5-5.5c-0.3,0.3-0.7,0.7-1,1c-3.9-4.4-8.7-7.4-14.5-9
		c-2.4-1.4-4.5-3.1-6.5-5c-0.3,0.3-0.7,0.7-1,1c-3-3-6.5-5.2-10.5-6.5c-2.6-2.1-5.2-3.9-8-5.5C68.4,125,69.8,120.7,71.5,116.5z"/>
</g>
<g>
	<path class="st20" d="M110.5,40.5c1.3,0.7,2.5,1.7,3.5,3c0.3-0.3,0.7-0.7,1-1c0.3,1,0.7,2,1,3c0.7-1.7,1.9-2.2,3.5-1.5
		c-2.4,1-2,1.6,1,2c-1.2,0.4-2.2,1.1-3,2c1.9,0.7,3.8,0.6,5.5-0.5c1.7,1.3,3.3,2.7,5,4c0.3-0.3,0.7-0.7,1-1c0.3,2.4,1.3,3.1,3,2
		c1.1,1.5,2.6,2.3,4.5,2.5c-0.7,0.7-1.3,1.3-2,2c1.2,1.8,2.4,1.7,3.5-0.5c0.3,1.8,1,2.1,2,1c0.1,1.7,0.9,3.4,2.5,5
		c2.1-2.5,3.9-2.2,5.5,1c1-1,2.2-1.2,3.5-0.5c-0.3,0.3-0.7,0.7-1,1c1.4,1.1,2.8,2.2,4,3.5c2.3-0.9,3.5,0.1,3.5,3c0.3-1,0.7-2,1-3
		c0.6,1.1,1.5,2.1,2.5,3c-0.2,0.6-0.5,1.1-1,1.5c2.3,0.2,4.3,1.1,6,2.5c0.7-0.5,1.2-1.2,1.5-2c1.5,2.2,3.3,4,5.5,5.5
		c2.8,1.6,5.8,2.9,9,4c-0.3,0.3-0.7,0.7-1,1c2.2,1,4.4,2.2,6.5,3.5c3.5-1.4,4-0.9,1.5,1.5c1.2,1.8,2.4,1.7,3.5-0.5
		c1.1,1.9,2.4,3.5,4,5c0.7-0.7,1.3-1.3,2-2c1.3,2.2,3.2,3.7,5.5,4.5c-0.3,0.3-0.7,0.7-1,1c1,0.5,2,0.3,3-0.5c1.3,1.7,2.9,2.8,5,3.5
		c-1.2,0.9-1,1.7,0.5,2.5c1.1,0.2,2.2,0.2,3.5,0c1.3,1.5,2.8,2.8,4.5,4c0.8-0.1,1.4-0.5,2-1c1.3,1.3,2.7,2.7,4,4
		c1.8-1.3,2.3-1.2,1.5,0.5c4.6,1.3,8.5,3.8,11.5,7.5c2.8-1,4.8,0,6,3c0.3-0.3,0.7-0.7,1-1c0.3,1,0.7,2,1,3c1.4-2.5,2.4-2.2,3,1
		c0.3-0.3,0.7-0.7,1-1c1.4,1,2.9,1.8,4.5,2.5c-0.8,1.5-1.6,1.7-2.5,0.5c-0.6,1-0.3,1.7,1,2c1.7-0.3,2.7-1.3,3-3c0.3,2.4,1.3,3.1,3,2
		c0.8,1.3,1.9,2.2,3.5,2.5c0.9,1.6,1.9,3.1,3,4.5c2.9-1.3,4.8-0.3,5.5,3c0.7-1.2,1.2-1.2,1.5,0c-0.9,0.8-1.9,1.3-3,1.5
		c0.9,0.4,1.8,0.9,2.5,1.5c2.3-1.1,4.4-0.8,6.5,1c0.7-0.5,1.2-1.2,1.5-2c4.6,3.1,8.3,7.1,11,12c0.7-1.7,1.9-2.2,3.5-1.5
		c0,1.3,0,2.7,0,4c0.9,0.6,1.8,0.5,2.5-0.5c1,1.2,2.2,2.2,3.5,3c1.4-3.6,3.1-3.8,5-0.5c-1.2,4.4-0.7,4.5,1.5,0.5c3.4,2,6.1,4.7,8,8
		c0.4-0.9,1.1-1.6,2-2c1.1,0.9,2.1,0.9,3,0c0.6,4.9,1.9,5.5,4,2c2,2.3,4.5,3.8,7.5,4.5c-1,0.7-1.1,1.6-0.5,2.5
		c1.9-1.2,3.7-1,5.5,0.5c-2.5,1.6-2.3,3.1,0.5,4.5c1.1-2.4,2.3-2.4,3.5,0c0,2.7,0,5.3,0,8c-2.7,0.5-4.6-0.5-5.5-3c-1,0-2,0-3,0
		c-8.5-5.6-17.1-10.9-26-16c-0.3,0.3-0.7,0.7-1,1c-0.3-2.4-1.3-3.1-3-2c-2.8-3.3-6.1-4.7-10-4c-0.3-1.3-0.8-2.4-1.5-3.5
		c-7.7-4.1-15-8.1-22-12c0.3-0.3,0.7-0.7,1-1c-4.2-0.4-7.8-2.4-11-6c-3-0.4-5.2-1.9-6.5-4.5c-0.3,0.3-0.7,0.7-1,1
		c-2-1.1-3.8-2.5-5.5-4c-0.6,0.2-1.1,0.5-1.5,1c-3.1-3.5-7.1-6.5-12-9c-0.4,0.5-0.9,0.8-1.5,1c-4.4-2.4-8.9-5.4-13.5-9
		c-4-1.4-8-3.7-12-7c-0.3,0.3-0.7,0.7-1,1c-2.6-3.3-5.8-5.8-9.5-7.5c-4.6-1.6-8.9-3.6-13-6c-1.2-0.9-2-2.1-2.5-3.5
		c-1,1-2.2,1.2-3.5,0.5c-4.1-4.3-9-6.5-14.5-6.5c-0.3-1.7-0.7-3.3-1-5c-1,0.3-2,0.7-3,1c-1.9-2.2-3.9-3.6-6-4
		c-5.8-3.5-11.6-6.8-17.5-10c-0.9-0.8-1.2-1.8-1-3c-3.4,0.3-5.4-0.7-6-3c-0.7,0.3-1.3,0.7-2,1c-2.6-1.2-4.6-3.1-6-5.5
		c-2.4-0.5-4.7-1.2-7-2c-0.3-1-0.7-2-1-3c-1-0.5-2-0.3-3,0.5c-0.7-0.5-1.2-1.2-1.5-2c-1.6,0.7-2.7,0-3.5-2
		C105.8,44.5,108.2,42.5,110.5,40.5z"/>
</g>
<g>
	<path class="st21" d="M66.5,129.5c0.3,0,0.7,0,1,0c2.8,1.6,5.4,3.4,8,5.5c4,1.3,7.5,3.5,10.5,6.5c0.3-0.3,0.7-0.7,1-1
		c2,1.9,4.1,3.6,6.5,5c5.8,1.6,10.6,4.6,14.5,9c0.3-0.3,0.7-0.7,1-1c2.4,2.2,5.6,4.1,9.5,5.5c1.3,0.8,2,2,2,3.5
		c-2.3,2.6-3.6,5.6-4,9c-1.1-1.6-2.4-3.1-4-4.5c-7.8-4.5-15.7-9-23.5-13.5c-0.3,0.3-0.7,0.7-1,1c-6.2-5.7-13-9.5-20.5-11.5
		c0.3-0.3,0.7-0.7,1-1c-1.8-0.7-3.2-1.8-4-3.5C64.8,135.4,65.4,132.4,66.5,129.5z"/>
</g>
<g>
	<path class="st22" d="M48.5,113.5c-0.3,2.3,0.4,4.3,2,6c-1.5,2.5-1.2,4.6,1,6.5c-3.7,1.4-3.7,3,0,5c-1.3,2.2-1.6,4.4-1,6.5
		c1.7,0.4,3.2,0.4,4.5,0c1.1-2.4,2.8-3.1,5-2c1.8-1.5,1.3-2.4-1.5-2.5c1.4-2.2,3.4-3.4,6-3.5c0.1-5.2,0.8-5.2,2,0
		c-1.1,2.9-1.7,5.9-2,9c-1,1.4-1.7,3.1-2,5c-2.2,4.7-3.9,9.7-5,15c-1.9,3.7-3.2,7.7-4,12c-2.9,0-5.7,1-8.5,3c-0.3-0.3-0.7-0.7-1-1
		c-1,1-2,2-3,3c-1.1-0.8-2.3-1.5-3.5-2c-1.2,0.8-1.2,1.6,0,2.5c-3.9-1-6.4,0.5-7.5,4.5c-0.3-1-0.7-2-1-3c-0.2,2.2-1.2,3.8-3,5
		c-1.5-7.5-2-15.2-1.5-23C32,143.8,40,128.5,48.5,113.5z"/>
</g>
<g>
	<path class="st23" d="M62.5,143.5c2.3,1.6,2.3,3.1,0,4.5c0.9,0.5,1.9,0.6,3,0.5c-0.1-1.1,0-2.1,0.5-3c0.3,1.6,1.2,2.7,2.5,3.5
		c-0.8,0.3-1.5,0.8-2,1.5c1.2,1.5,1.2,3,0,4.5c1.5,1.4,3,1.5,4.5,0.5c0.4,2.8,1.8,3.8,4,3c3.8,3.9,7.6,6.1,11.5,6.5
		c-0.3,0.3-0.7,0.7-1,1c3,1,5.7,2.7,8,5c1.3,0,2.7,0,4,0c-0.3,0.3-0.7,0.7-1,1c1.5,1.8,3.2,2.3,5,1.5c0.6,3.3,1.8,3.6,3.5,1
		c2.4,3.3,5.4,5,9,5c1,2,1.9,4,2.5,6c0,1,0,2,0,3c0,0.3,0,0.7,0,1c-1.6,0.9-3.2,1.6-5,2c-2.3-2.6-5.2-4.6-8.5-6
		c-2.4,0.6-4.2-0.4-5.5-3c-1.7,1.1-2.4,0.4-2-2c-4.2-0.5-8.2-2.5-12-6c-0.6,0.2-1.1,0.5-1.5,1c-3.1-3.4-7.1-6.4-12-9
		c-0.3,0.3-0.7,0.7-1,1c-0.4-2.2-1.4-2.8-3-2c-2.3-1.9-4.8-3.4-7.5-4.5c-0.8-0.7-1.1-1.5-1-2.5C58.6,153.2,60.3,148.2,62.5,143.5z"
		/>
</g>
<g>
	<path class="st24" d="M64.5,138.5c0.8,1.7,2.2,2.8,4,3.5c-0.3,0.3-0.7,0.7-1,1c7.5,2,14.3,5.8,20.5,11.5c0.3-0.3,0.7-0.7,1-1
		c7.8,4.5,15.7,9,23.5,13.5c1.6,1.4,2.9,2.9,4,4.5c0,4.7,0,9.3,0,14c-0.6-2-1.5-4-2.5-6c-3.6,0-6.6-1.7-9-5c-1.7,2.6-2.9,2.3-3.5-1
		c-1.8,0.8-3.5,0.3-5-1.5c0.3-0.3,0.7-0.7,1-1c-1.3,0-2.7,0-4,0c-2.3-2.3-5-4-8-5c0.3-0.3,0.7-0.7,1-1c-3.9-0.4-7.7-2.6-11.5-6.5
		c-2.2,0.8-3.6-0.2-4-3c-1.5,1-3,0.9-4.5-0.5c1.2-1.5,1.2-3,0-4.5c0.5-0.7,1.2-1.2,2-1.5c-1.3-0.8-2.2-1.9-2.5-3.5
		c-0.5,0.9-0.6,1.9-0.5,3c-1.1,0.1-2.1,0-3-0.5c2.3-1.4,2.3-2.9,0-4.5C62.8,141.6,63.5,139.9,64.5,138.5z"/>
</g>
<g>
	<path class="st25" d="M238.5,169.5c0.4,5,0.7,10,1,15c-9.3-3.9-19-6.5-29-8c0-1.3,0-2.7,0-4c0.8-5,3.2-9,7-12
		C227.4,157.3,234.4,160.3,238.5,169.5z"/>
</g>
<g>
	<path class="st26" d="M144.5,179.5c-9.7,1.9-19,4.9-28,9c0-1,0-2,0-3c0-4.7,0-9.3,0-14c0.4-3.4,1.7-6.4,4-9c2.9-2.3,6.2-3.6,10-4
		C141.9,160.9,146.5,167.9,144.5,179.5z"/>
</g>
<g>
	<path class="st27" d="M57.5,158.5c-0.1,1,0.2,1.8,1,2.5c2.7,1.1,5.2,2.6,7.5,4.5c1.6-0.8,2.6-0.2,3,2c0.3-0.3,0.7-0.7,1-1
		c4.9,2.6,8.9,5.6,12,9c0.4-0.5,0.9-0.8,1.5-1c3.8,3.5,7.8,5.5,12,6c-0.4,2.4,0.3,3.1,2,2c1.3,2.6,3.1,3.6,5.5,3
		c3.3,1.4,6.2,3.4,8.5,6c-4.1,2.6-8.5,4.9-13,7c-4.2-2.6-8.9-5.5-14-8.5c0.3-0.3,0.7-0.7,1-1c-1.4-0.6-2.7-0.4-4,0.5
		c-1.2-0.3-1.2-0.8,0-1.5c-2.5-2.4-5.1-3.4-8-3c-2.7-2.3-5.3-4.4-8-6.5c-4-1.2-7.5-3.2-10.5-6c-0.4,0.6-0.9,0.9-1.5,1c0-1,0-2,0-3
		C54.3,166.2,55.6,162.2,57.5,158.5z"/>
</g>
<g>
	<path class="st28" d="M24.5,159.5c-0.5,7.8,0,15.5,1.5,23c1.8-1.2,2.8-2.8,3-5c0.3,1,0.7,2,1,3c1.1-4,3.6-5.5,7.5-4.5
		c-1.2-0.9-1.2-1.7,0-2.5c1.2,0.5,2.4,1.2,3.5,2c1-1,2-2,3-3c0.3,0.3,0.7,0.7,1,1c2.8-2,5.6-3,8.5-3c0,1,0,2,0,3c0,3.7,0,7.3,0,11
		c0,4.3,0,8.7,0,13c-1.7-0.3-3.2-0.9-4.5-2c-0.7,1.3-1.3,1.3-2,0c-0.7,2.7-1.3,2.7-2,0c0.9,2.5,1.7,5,2.5,7.5
		c-2.6,3.7-4.1,7.9-4.5,12.5c-0.3-2-0.7-4-1-6c-1-1.3-2-1.3-3,0c-0.6-2-1.6-2.3-3-1c-0.8-3.4-1.7-3.6-2.5-0.5c-0.1,1.7,0.6,3,2,4
		c-0.8,0.8-1.7,1.7-2.5,2.5c-0.8-2.3-1.5-4.6-2-7c-1.6,1.6-2,3.2-1,5c-0.8-0.8-1.7-1.7-2.5-2.5c1.2-1.2,1.2-2.3,0-3.5
		c0.4,1.3-0.3,2.4-2,3.5c1.2,1.1,0.9,1.6-1,1.5c0.3-7.9,0-15.5-1-23C23.2,178.7,23.5,169,24.5,159.5z"/>
</g>
<g>
	<path class="st29" d="M98.5,198.5c0,5,0,10,0,15c-1.7-4.4-5-7.2-10-8.5c0.3-0.3,0.7-0.7,1-1c-1.3-0.7-2.5-0.5-3.5,0.5
		c-0.5-0.9-0.6-1.9-0.5-3c-1.7-0.5-3.2-0.5-4.5,0c-0.3-1.8-1-2.1-2-1c-1-1.3-2-2.7-3-4c-1,0-2,0-3,0c-3.9-3.4-8.4-5.9-13.5-7.5
		c0.8-1.7,0.3-1.8-1.5-0.5c-1.7-1.2-3.2-2.5-4.5-4c0-3.7,0-7.3,0-11c0.6-0.1,1.1-0.4,1.5-1c3,2.8,6.5,4.8,10.5,6
		c2.7,2.1,5.3,4.2,8,6.5c2.9-0.4,5.5,0.6,8,3c-1.2,0.7-1.2,1.2,0,1.5c1.3-0.9,2.6-1.1,4-0.5c-0.3,0.3-0.7,0.7-1,1
		C89.6,193,94.3,195.9,98.5,198.5z"/>
</g>
<g>
	<path class="st30" d="M210.5,176.5c10,1.5,19.7,4.1,29,8c-0.9,10.4-6.6,15.2-17,14.5c-5.7-1-9.5-4.2-11.5-9.5
		C210.5,185.2,210.3,180.8,210.5,176.5z"/>
</g>
<g>
	<path class="st31" d="M238.5,169.5c1.5,1,1.8,2.2,1,3.5c2.3,0.5,4.3,1.5,6,3c-0.3,0.3-0.7,0.7-1,1c1,0.5,2,0.3,3-0.5
		c1.1,1.2,1.9,2.5,2.5,4c0.3-0.3,0.7-0.7,1-1c1.1,1.9,2.4,2.6,4,2c0.7,2.7,1.3,2.7,2,0c1.5,0.8,1.7,1.6,0.5,2.5
		c2.7,0.4,4.6,1.9,5.5,4.5c0.4-0.5,0.9-0.8,1.5-1c2.5,2,5.6,4,9.5,6c0.3-0.3,0.7-0.7,1-1c0.3,1.5,1,2.9,2,4c1.7,0,3.3,0,5,0
		c2.4,2,5,4.3,8,7c1.1-1.2,2.3-1.2,3.5,0c1.7,1.5,3.3,3,5,4.5c4.7,1.4,8.5,3.9,11.5,7.5c1.8-0.4,3.5-0.4,5,0c0.2,1.1,0.7,2.1,1.5,3
		c1.8-1.1,3-0.4,3.5,2c0.3-0.7,0.7-1.3,1-2c0.4,3,1,3.4,2,1c0,2.9,1.2,3.9,3.5,3c0.9,1,1.9,1.9,3,2.5c-0.3,0.3-0.7,0.7-1,1
		c1.7,0.3,3.4,0.8,5,1.5c0.6-0.2,1.1-0.5,1.5-1c1.2,2,3.1,3.2,5.5,3.5c-2.4,1.1-2.1,1.6,1,1.5c0.7,5.6-1.3,9.9-6,13
		c-2.6-0.2-2.6-0.7,0-1.5c-2.1-0.4-4.1-1-6-2c-3.4-2.7-6.9-5.2-10.5-7.5c-0.3,0.7-0.7,1.3-1,2c-0.4-2.2-1.4-2.8-3-2
		c-5.2-2.9-9.9-6.6-14-11c-0.3,0.7-0.7,1.3-1,2c-2.5-2.1-5.3-3.6-8.5-4.5c-1.4-3.8-3.9-5.3-7.5-4.5c-0.8-2.9-2.5-3.9-5-3
		c-2.7-2-5.3-4-8-6c-0.4,0.6-0.9,0.9-1.5,1c0.3-3.3,0-6.4-1-9.5c-9.4-5-19.1-9.5-29-13.5C239.2,179.5,238.9,174.5,238.5,169.5z"/>
</g>
<g>
	<path class="st32" d="M144.5,179.5c1,14.8-5.6,21-20,18.5c-3.5-2-6.2-4.9-8-8.5c0-0.3,0-0.7,0-1
		C125.5,184.4,134.8,181.4,144.5,179.5z"/>
</g>
<g>
	<path class="st33" d="M53.5,184.5c1.3,1.5,2.8,2.8,4.5,4c1.8-1.3,2.3-1.2,1.5,0.5c5.1,1.6,9.6,4.1,13.5,7.5c1,0,2,0,3,0
		c1,1.3,2,2.7,3,4c1-1.1,1.7-0.8,2,1c1.3-0.5,2.8-0.5,4.5,0c-0.1,1.1,0,2.1,0.5,3c1-1,2.2-1.2,3.5-0.5c-0.3,0.3-0.7,0.7-1,1
		c5,1.3,8.3,4.1,10,8.5c0.6,3.5,2.6,6,6,7.5c16.7,9.7,34.4,16.5,53,20.5c-2,0.4-2.3,1.4-1,3c0.7-0.5,1.2-1.2,1.5-2
		c2.4,4.3,5.4,6.3,9,6c4.1,3.2,8.3,6.3,12.5,9.5c0.9,0.6,1.8,0.5,2.5-0.5c6.3,4.8,13.3,9.1,21,13c0.3-0.3,0.7-0.7,1-1
		c5.2,2.4,10,5.9,14.5,10.5c0.9,0.6,1.8,0.5,2.5-0.5c4.5,3.6,9.1,6.9,14,10c0.3-0.3,0.7-0.7,1-1c10.3,5.6,20.2,11.7,29.5,18.5
		c0.9,0.6,1.8,0.5,2.5-0.5c7.7,5.4,15.8,10.3,24.5,14.5c-0.3,0.3-0.7,0.7-1,1c6.6,3,13.4,6.8,20.5,11.5c0.8-0.1,1.4-0.5,2-1
		c1.4,2.7,3.4,4.7,6,6c1,0,2,0,3,0c3.4,2.6,6.9,4.9,10.5,7c-5.4,6.4-11.4,12-18,17c-0.1-2.1-0.6-4.1-1.5-6c-1.1,1.8-2.6,2.3-4.5,1.5
		c-2.7-2.3-5.5-4.5-8.5-6.5c-1,1-2.2,1.2-3.5,0.5c1-1.1,0.6-2.1-1-3c2.4-1.6,2.4-2.3,0-2c-0.5,0.9-1.2,1.8-2,2.5
		c-1.9-1.4-3.6-3.1-5-5c-0.6,0.2-1.1,0.5-1.5,1c-1.9-2.3-4.1-3.6-6.5-4c-3.5-7.6-7-15.3-10.5-23c-0.5,2-0.7,4-0.5,6
		c-1.7-2.9-4.1-5.4-7-7.5c-3.2-1.6-6.5-2.6-10-3c0.3-0.3,0.7-0.7,1-1c-1.5-1-2.8-2.1-4-3.5c-0.6,0.2-1.1,0.5-1.5,1
		c-6.7-4.1-13.2-8.4-19.5-13c-8.3-4.2-16.7-8.3-25-12.5c0.3-0.3,0.7-0.7,1-1c-1.3-0.3-2.7-0.7-4-1c0.3-0.3,0.7-0.7,1-1
		c-1.3-0.7-2.5-0.5-3.5,0.5c-2.5-3.8-6-6-10.5-6.5c-1.5-1.7-3.2-3.2-5-4.5c-10.7-5.1-20.9-11.1-30.5-18c-0.4,0.5-0.9,0.8-1.5,1
		c-2.1-1.8-4.2-3.5-6.5-5c-1,0-2,0-3,0c-5.6-4-11.3-8-17-12c-1.6,0.6-2.9-0.1-4-2c-1,0-2,0-3,0c-10.8-6.8-21.6-13.6-32.5-20.5
		c-0.9-0.6-1.8-0.5-2.5,0.5c-1.9-2-3.9-4-6-6c-0.8,2.4-1.6,2.2-2.5-0.5c-0.9-0.6-1.8-0.5-2.5,0.5c-2.1-2.7-4.7-4.7-8-6
		c-0.3,0.3-0.7,0.7-1,1c-1.2-1.4-2.7-2.2-4.5-2.5c0.7-0.3,1.3-0.7,2-1c-2.4-0.7-4.7-1.6-7-2.5c0-0.3,0-0.7,0-1
		C53.5,193.2,53.5,188.8,53.5,184.5z"/>
</g>
<g>
	<path class="st34" d="M53.5,198.5c2.3,0.9,4.6,1.8,7,2.5c-0.7,0.3-1.3,0.7-2,1c1.8,0.3,3.3,1.1,4.5,2.5c0.3-0.3,0.7-0.7,1-1
		c3.3,1.3,5.9,3.3,8,6c0.7-1,1.6-1.1,2.5-0.5c0.9,2.7,1.7,2.9,2.5,0.5c2.1,2,4.1,4,6,6c0.7-1,1.6-1.1,2.5-0.5
		c10.9,6.9,21.7,13.7,32.5,20.5c1,0,2,0,3,0c1.1,1.9,2.4,2.6,4,2c5.7,4,11.4,8,17,12c1,0,2,0,3,0c2.3,1.5,4.4,3.2,6.5,5
		c0.6-0.2,1.1-0.5,1.5-1c9.6,6.9,19.8,12.9,30.5,18c1.8,1.3,3.5,2.8,5,4.5c4.5,0.5,8,2.7,10.5,6.5c1-1,2.2-1.2,3.5-0.5
		c-0.3,0.3-0.7,0.7-1,1c1.3,0.3,2.7,0.7,4,1c-0.3,0.3-0.7,0.7-1,1c8.3,4.2,16.7,8.3,25,12.5c6.3,4.6,12.8,8.9,19.5,13
		c0.4-0.5,0.9-0.8,1.5-1c1.2,1.4,2.5,2.5,4,3.5c-0.3,0.3-0.7,0.7-1,1c3.5,0.4,6.8,1.4,10,3c2.9,2.1,5.3,4.6,7,7.5
		c-0.3,2.7-0.7,5.3-1,8c-0.6,0.1-1.1,0.4-1.5,1c-2-2.2-4.5-3.7-7.5-4.5c-0.6-0.8-1.1-1.6-1.5-2.5c-1.9,0.2-3.7,0.2-5.5,0
		c-0.8-0.9-1.3-1.9-1.5-3c-1,0-2,0-3,0c-1.2-1.7-2.7-3-4.5-4c-0.6,0.2-1.1,0.5-1.5,1c-2.5-2.5-5.2-4.8-8-7c-4.6-0.2-8.3-2.5-11-7
		c-0.3,0.3-0.7,0.7-1,1c-1.6-1.4-3.4-2.4-5.5-3c-0.4-2.3-1.4-3-3-2c-1-2.5-1.9-2.5-2.5,0c-2.8-3-6.2-5.4-10-7c-0.3,0.3-0.7,0.7-1,1
		c-6.8-4.7-13.8-9.7-21-15c-0.7,1-1.6,1.1-2.5,0.5c-2.7-1.3-4.9-3.1-6.5-5.5c-1,0.3-2,0.7-3,1c-0.1-2.4-0.9-3-2.5-2
		c-3.1-1.5-5.7-3.5-8-6c-2.3,1.5-3,1.2-2-1c-2.1-2.5-4.6-3.5-7.5-3c-1.1-1.9-2.4-2.6-4-2c-0.4-2.2-1.4-2.8-3-2
		c-2.7-4.1-6.5-6.2-11.5-6.5c-1.7-1.8-3.7-3.2-6-4c-0.7-1.1-1.2-2.2-1.5-3.5c-0.3,0.8-0.8,1.5-1.5,2c-1.1-1.2-2.4-2.1-4-2.5
		c2.4-0.8,2.2-1.6-0.5-2.5c-0.4,0.5-0.9,0.8-1.5,1c-1.2-1.1-2.6-2.1-4-3c1.1-0.9,1.1-1.8,0-2.5c-1.5-0.5-2.7,0-3.5,1.5
		c-1.1-1.9-2.4-2.2-4-1c-0.5-0.9-0.6-1.9-0.5-3c-1.6,0.1-2.8-0.5-3.5-2c-0.7,1-1.6,1.1-2.5,0.5c-1.3-3.9-3.3-4.7-6-2.5
		c-1.2-0.8-1.2-1.6,0-2.5c-1.8-0.8-3.3-2-4.5-3.5c-0.4,0.5-0.9,0.8-1.5,1c-0.8-1-1.7-2-2.5-3c-1.7,0-3.3,0-5,0c0.2-1.9-0.8-3.6-3-5
		c-0.3,0.8-0.8,1.5-1.5,2c-1.7-1.8-3.5-3.5-5.5-5c-0.3,0.3-0.7,0.7-1,1c-3.7-1.8-6.8-4.3-9.5-7.5c-0.9-0.5-1.9-0.6-3-0.5
		C53.5,206.5,53.5,202.5,53.5,198.5z"/>
</g>
<g>
	<path class="st35" d="M53.5,197.5c0,0.3,0,0.7,0,1c0,4,0,8,0,12s0,8,0,12c0,2,0,4,0,6c-1.5-0.7-2.4-2.1-2.5-4c-0.6,3.6-1.9,3.9-4,1
		c-2.1,1.2-1.9,2,0.5,2.5c-0.7,1.3-1.8,2.5-3.5,3.5c-0.5-1.2-1.3-2-2.5-2.5c1.2-0.4,2.2-1.1,3-2c-2.6-0.9-4.8-2.4-6.5-4.5
		c-0.7,2.7-1.3,2.7-2,0c-2.2,2.5-1.7,4.3,1.5,5.5c-0.3,0.2-0.7,0.3-1,0.5c-0.9-1.1-1.8-1.1-2.5,0c-2.7-2.8-5.9-4.8-9.5-6
		c0-3.7,0-7.3,0-11c1.9,0.1,2.2-0.4,1-1.5c1.7-1.1,2.4-2.2,2-3.5c1.2,1.2,1.2,2.3,0,3.5c0.8,0.8,1.7,1.7,2.5,2.5c-1-1.8-0.6-3.4,1-5
		c0.5,2.4,1.2,4.7,2,7c0.8-0.8,1.7-1.7,2.5-2.5c-1.4-1-2.1-2.3-2-4c0.8-3.1,1.7-2.9,2.5,0.5c1.4-1.3,2.4-1,3,1c1-1.3,2-1.3,3,0
		c0.3,2,0.7,4,1,6c0.4-4.6,1.9-8.8,4.5-12.5c-0.8-2.5-1.6-5-2.5-7.5c0.7,2.7,1.3,2.7,2,0c0.7,1.3,1.3,1.3,2,0
		C50.3,196.6,51.8,197.2,53.5,197.5z"/>
</g>
<g>
	<path class="st36" d="M335.5,244.5c-2,3.3-4.3,6.3-7,9c-6.7-4.3-13.7-8.3-21-12c-2.1-2.4-4.8-3.9-8-4.5c-1.5-1-2.8-2.1-4-3.5
		c-0.6,0.2-1.1,0.5-1.5,1c-2.1-2.5-4.4-3.8-7-4c-0.1-2.4-0.9-3.1-2.5-2c-5.5-3.5-10.8-7.2-16-11c0.9-3.2,1.2-6.6,1-10
		c0.6-0.1,1.1-0.4,1.5-1c2.7,2,5.3,4,8,6c2.5-0.9,4.2,0.1,5,3c3.6-0.8,6.1,0.7,7.5,4.5c3.2,0.9,6,2.4,8.5,4.5c0.3-0.7,0.7-1.3,1-2
		c4.1,4.4,8.8,8.1,14,11c1.6-0.8,2.6-0.2,3,2c0.3-0.7,0.7-1.3,1-2c3.6,2.3,7.1,4.8,10.5,7.5c1.9,1,3.9,1.6,6,2
		C332.9,243.8,332.9,244.3,335.5,244.5z"/>
</g>
<g>
	<path class="st37" d="M268.5,217.5c5.2,3.8,10.5,7.5,16,11c1.6-1.1,2.4-0.4,2.5,2c2.6,0.2,4.9,1.5,7,4c0.4-0.5,0.9-0.8,1.5-1
		c1.2,1.4,2.5,2.5,4,3.5c3.2,0.6,5.9,2.1,8,4.5c7.3,3.7,14.3,7.7,21,12c-1.3,2.6-3,5-5,7c-2.5-0.5-4.9-1.5-7-3c-1.6,1-2.4,0.4-2.5-2
		c-0.7,1-1.6,1.1-2.5,0.5c1.3-0.7,1.3-1.3,0-2c-2.9-0.1-5.6-1.5-8-4c-1.3-0.3-2.7-0.7-4-1c0.7-0.3,1.3-0.7,2-1c-3.5-1-6.8-2.4-10-4
		c-2.5-3.8-5.8-5.5-10-5c0.3-0.3,0.7-0.7,1-1c-1.8-0.8-3.3-2-4.5-3.5c-0.4,0.5-0.9,0.8-1.5,1c-1.4-1.3-3.1-2.1-5-2.5
		c-0.9-1.6-2.2-2.6-4-3c0.3-0.3,0.7-0.7,1-1c-4-1.3-7.7-3.1-11-5.5C261,221.2,264.7,219.2,268.5,217.5z"/>
</g>
<g>
	<path class="st38" d="M257.5,223.5c3.3,2.4,7,4.2,11,5.5c-0.3,0.3-0.7,0.7-1,1c1.8,0.4,3.1,1.4,4,3c1.9,0.4,3.6,1.2,5,2.5
		c0.6-0.2,1.1-0.5,1.5-1c1.2,1.5,2.7,2.7,4.5,3.5c-0.3,0.3-0.7,0.7-1,1c4.2-0.5,7.5,1.2,10,5c3.2,1.6,6.5,3,10,4
		c-0.7,0.3-1.3,0.7-2,1c1.3,0.3,2.7,0.7,4,1c2.4,2.5,5.1,3.9,8,4c1.3,0.7,1.3,1.3,0,2c0.9,0.6,1.8,0.5,2.5-0.5c0.1,2.4,0.9,3,2.5,2
		c2.1,1.5,4.5,2.5,7,3c-2.7,4-5.7,7.6-9,11c-23.7-14.8-47.7-28.5-72-41C247.6,228.4,252.6,226.1,257.5,223.5z"/>
</g>
<g>
	<path class="st39" d="M23.5,188.5c1,7.5,1.3,15.1,1,23c0,3.7,0,7.3,0,11c3.6,1.2,6.8,3.2,9.5,6c0.7-1.1,1.6-1.1,2.5,0
		c0.3-0.2,0.7-0.3,1-0.5c-3.2-1.2-3.7-3-1.5-5.5c0.7,2.7,1.3,2.7,2,0c1.7,2.1,3.9,3.6,6.5,4.5c-0.8,0.9-1.8,1.6-3,2
		c1.2,0.5,2,1.3,2.5,2.5c1.7-1,2.8-2.2,3.5-3.5c-2.4-0.5-2.6-1.3-0.5-2.5c2.1,2.9,3.4,2.6,4-1c0.1,1.9,1,3.3,2.5,4
		c-1.2,5.3,0.5,9.3,5,12c7.7,9,15.7,17.7,24,26c0.3,0.7,0.7,1.3,1,2c-1.3,0.6-2.3,1.6-3,3c0.7,2.5,1.4,5,2,7.5c-1.4,3.2-3.1,3.2-5,0
		c1-1,1.2-2.2,0.5-3.5c-1.5,1-3,0.9-4.5-0.5c3.7-2.5,3.1-3.7-2-3.5c-0.1-5.2-0.7-5.2-2,0c-2.1-2-4.1-4.2-6-6.5
		c0.5-0.4,0.8-0.9,1-1.5c-1.2-1.2-2.3-1.2-3.5,0c-1.4-1.9-1.9-3.7-1.5-5.5c-0.7-0.7-1.3-0.7-2,0c-0.9,1.7-2.2,2.9-4,3.5
		c-1.2-0.3-1.2-0.8,0-1.5c-1.6-0.3-2.9-1.2-4-2.5c0.9-0.8,1.9-1.3,3-1.5c-1.9-1.1-3.7-1.3-5.5-0.5c-0.5-1-0.3-2,0.5-3
		c-0.8-0.9-1.8-1.2-3-1c-0.4,6.2-2.2,6.5-5.5,1c-0.5,1.3-0.7,2.6-0.5,4c-5-5.8-9.8-11.8-14.5-18C23.5,221.8,23.3,205.2,23.5,188.5z"
		/>
</g>
<g>
	<path class="st40" d="M242.5,230.5c24.3,12.5,48.3,26.2,72,41c-0.4,1.9-1.4,3.4-3,4.5c5.9,4.4,11.5,8.9,17,13.5
		c-0.2,2.6-0.7,2.6-1.5,0c-0.7,1-1.6,1.1-2.5,0.5c-5.5-3.1-11-6.9-16.5-11.5c-1.3,0-2.7,0-4,0c-2.8-3.2-6.3-5.4-10.5-6.5
		c0.3-0.3,0.7-0.7,1-1c-6.7-2.7-12.9-6.2-18.5-10.5c-7-2.8-13.8-6.6-20.5-11.5c-1.3-0.5-2.6-0.7-4-0.5c0.1-3.1-0.4-3.4-1.5-1
		c-1.2-1.1-1.7-2.4-1.5-4c-2.7-0.2-5-1.2-7-3c-1.3,1-2.6,0.8-4-0.5c0.3-0.3,0.7-0.7,1-1c-2.9-0.1-5.2-1.3-7-3.5
		C235,233.7,238.7,232,242.5,230.5z"/>
</g>
<g>
	<path class="st41" d="M231.5,235.5c1.8,2.2,4.1,3.4,7,3.5c-0.3,0.3-0.7,0.7-1,1c1.4,1.3,2.7,1.5,4,0.5c2,1.8,4.3,2.8,7,3
		c-0.2,1.6,0.3,2.9,1.5,4c1.1-2.4,1.6-2.1,1.5,1c1.4-0.2,2.7,0,4,0.5c6.7,4.9,13.5,8.7,20.5,11.5c5.6,4.3,11.8,7.8,18.5,10.5
		c-0.3,0.3-0.7,0.7-1,1c4.2,1.1,7.7,3.3,10.5,6.5c1.3,0,2.7,0,4,0c5.5,4.6,11,8.4,16.5,11.5c0.9,0.6,1.8,0.5,2.5-0.5
		c0.8,2.6,1.3,2.6,1.5,0c12.3,8.6,24.6,17.3,37,26c0,0.7,0,1.3,0,2c-1.7,1.3-3.3,2.7-5,4c-1.3-1.7-2.8-2.1-4.5-1
		c-2.1-0.6-2.9-1.6-2.5-3c-1.3,2.4-2.6,2.2-4-0.5c0.3-0.3,0.7-0.7,1-1c-3.9,0.1-6.9-1.6-9-5c-1.6-0.3-3.1-0.8-4.5-1.5
		c-0.9,1.2-1.7,1-2.5-0.5c0.3-0.3,0.7-0.7,1-1c-1.1-0.6-2.1-1.5-3-2.5c-1.3,0.9-2.6,1.1-4,0.5c-1.2-1.5-2.3-3-3.5-4.5
		c-0.3,0.3-0.7,0.7-1,1c-1.6-2.1-3.6-3.8-6-5c-0.3,0.7-0.7,1.3-1,2c-2.7-2-5-4.3-7-7c-0.4,0.5-0.9,0.8-1.5,1c-1.6-1.9-3.6-2.9-6-3
		c0.4-2.4-0.3-3.1-2-2c-3.2-0.4-5.4-2-6.5-5c-0.3,0.3-0.7,0.7-1,1c-3.6-3.3-7.6-5.9-12-8c-1,1.1-1.7,0.8-2-1c-0.3,0.3-0.7,0.7-1,1
		c-3-2.9-6.5-4.9-10.5-6c-1.2-1.1-2.1-2.4-2.5-4c-1.4-0.6-3.1-0.6-5,0c-1.8-1-2.3-2.1-1.5-3.5c-4.7-3.4-9.7-5.7-15-7
		c0.8-1.7,0.3-1.8-1.5-0.5c-2-1-3.6-2.3-5-4c-1,1.1-1.7,0.8-2-1c-0.3,0.3-0.7,0.7-1,1c-2.8-1.9-5.1-4.2-7-7c-2,2.4-3.5,1.9-4.5-1.5
		c-2.2-0.9-4.2-2.1-6-3.5C221.5,238,226.5,236.7,231.5,235.5z"/>
</g>
<g>
	<path class="st42" d="M216.5,239.5c1.8,1.4,3.8,2.6,6,3.5c1,3.4,2.5,3.9,4.5,1.5c1.9,2.8,4.2,5.1,7,7c0.3-0.3,0.7-0.7,1-1
		c0.3,1.8,1,2.1,2,1c1.4,1.7,3,3,5,4c1.8-1.3,2.3-1.2,1.5,0.5c5.3,1.3,10.3,3.6,15,7c-0.8,1.4-0.3,2.5,1.5,3.5c1.9-0.6,3.6-0.6,5,0
		c0.4,1.6,1.3,2.9,2.5,4c4,1.1,7.5,3.1,10.5,6c0.3-0.3,0.7-0.7,1-1c0.3,1.8,1,2.1,2,1c4.4,2.1,8.4,4.7,12,8c0.3-0.3,0.7-0.7,1-1
		c1.1,3,3.3,4.6,6.5,5c1.7-1.1,2.4-0.4,2,2c2.4,0.1,4.4,1.1,6,3c0.6-0.2,1.1-0.5,1.5-1c2,2.7,4.3,5,7,7c0.3-0.7,0.7-1.3,1-2
		c2.4,1.2,4.4,2.9,6,5c0.3-0.3,0.7-0.7,1-1c1.2,1.5,2.3,3,3.5,4.5c1.4,0.6,2.7,0.4,4-0.5c0.9,1,1.9,1.9,3,2.5c-0.3,0.3-0.7,0.7-1,1
		c0.8,1.5,1.6,1.7,2.5,0.5c1.4,0.7,2.9,1.2,4.5,1.5c2.1,3.4,5.1,5.1,9,5c-0.3,0.3-0.7,0.7-1,1c1.4,2.7,2.7,2.9,4,0.5
		c-0.4,1.4,0.4,2.4,2.5,3c1.7-1.1,3.2-0.7,4.5,1c-3.6,3.3-7.3,6.6-11,10c1.7-2.2,1.3-4-1-5.5c-2.5-1.3-5-2.5-7.5-3.5
		c-0.3,0.3-0.7,0.7-1,1c-1.5-3.7-4-5.4-7.5-5c-2.5-2.1-5-4.1-7.5-6c-0.3,0.3-0.7,0.7-1,1c-0.6-2.6-1.9-3.3-4-2c-0.9-2.1-2.3-2.8-4-2
		c-0.9-1.2-2.1-2-3.5-2.5c0.3-0.3,0.7-0.7,1-1c-3.4-0.5-6.4-1.9-9-4c0.3-0.3,0.7-0.7,1-1c-1.3-0.7-2.5-0.5-3.5,0.5
		c-2.2-1.4-4.6-3.4-7-6c-0.3,0.3-0.7,0.7-1,1c-1.2-1.7-2.7-3-4.5-4c-0.6,0.2-1.1,0.5-1.5,1c-1.9-2-3.9-4-6-6c-1.3,0-2.7,0-4,0
		c-1.9-2.1-3.9-4.1-6-6c-1.5,0.3-2.8,0.3-4,0c-8-5.8-16.3-11.2-25-16c-1,1-2.2,1.2-3.5,0.5c1.3-1.8,1.2-2.3-0.5-1.5
		c-2.5-2.5-5.4-3.7-8.5-3.5c0.3-0.3,0.7-0.7,1-1c-1.5-1.4-3.2-2.5-5-3.5c-0.6,0.2-1.1,0.5-1.5,1c-1.2-2.2-3.1-3.7-5.5-4.5
		c0.3-0.3,0.7-0.7,1-1c-1.3-0.7-2.5-0.5-3.5,0.5c-2.5-2.2-5.5-4.5-9-7c-0.3,0.3-0.7,0.7-1,1c-2.1-1.6-4.3-3-6.5-4
		C205.9,241.7,211.2,240.7,216.5,239.5z"/>
</g>
<g>
	<path class="st43" d="M157.5,241.5c5.7,0.4,11.4,1,17,2c1.8,0.8,3.8,1.4,6,2c0.7,1.9,1.7,2.2,3,1c1.3,0.8,2.5,1.8,3.5,3
		c0.3-0.3,0.7-0.7,1-1c2,1.1,3.4,2.7,4,5c0.3-0.7,0.7-1.3,1-2c1.7,1.3,3.3,2.7,5,4c0.4-0.5,0.9-0.8,1.5-1c0.3,4.2,1.8,4.9,4.5,2
		c1.7,4.1,4.6,6,8.5,5.5c-0.7,0.3-1.3,0.7-2,1c3.3,0.3,5.8,1.8,7.5,4.5c0.3-0.3,0.7-0.7,1-1c1.3,2.1,3,2.8,5,2
		c2.3,2.2,4.8,4.2,7.5,6c0.6-0.2,1.1-0.5,1.5-1c2,3.3,4.3,5.7,7,7c0.3-0.7,0.7-1.3,1-2c3.4,4.6,7.9,7.5,13.5,8.5
		c1.2,0.9,2,2.1,2.5,3.5c0.3-0.3,0.7-0.7,1-1c4.2,2.4,8.2,5.1,12,8c0.3-0.7,0.7-1.3,1-2c1,1.3,2,2.7,3,4c2.8-1.2,4.3-0.2,4.5,3
		c5.2,1.6,9.9,4.3,14,8c2-0.8,3.7-0.2,5,2c1.6-1,2.4-0.4,2.5,2c0.3-0.3,0.7-0.7,1-1c2.2,1.4,4.2,3.1,6,5c1-2.2,2.1-2,3.5,0.5
		c-0.3,0.3-0.7,0.7-1,1c5.5,0.8,10,3.7,13.5,8.5c0.8-2.4,1.6-2.2,2.5,0.5c1.7,0.3,3.3,0.7,5,1c-1.2,0.9-1,1.7,0.5,2.5
		c0.3-0.3,0.7-0.7,1-1c3,2.8,6.5,4.8,10.5,6c-2.4,3.4-5.4,6-9,8c-3.6-2.1-7.1-4.4-10.5-7c-1,0-2,0-3,0c-2.6-1.3-4.6-3.3-6-6
		c-0.6,0.5-1.2,0.9-2,1c-7.1-4.7-13.9-8.5-20.5-11.5c0.3-0.3,0.7-0.7,1-1c-8.7-4.2-16.8-9.1-24.5-14.5c-0.7,1-1.6,1.1-2.5,0.5
		c-9.3-6.8-19.2-12.9-29.5-18.5c-0.3,0.3-0.7,0.7-1,1c-4.9-3.1-9.5-6.4-14-10c-0.7,1-1.6,1.1-2.5,0.5c-4.5-4.6-9.3-8.1-14.5-10.5
		c-0.3,0.3-0.7,0.7-1,1c-7.7-3.9-14.7-8.2-21-13c-0.7,1-1.6,1.1-2.5,0.5c-4.2-3.2-8.4-6.3-12.5-9.5c-3.6,0.3-6.6-1.7-9-6
		c-0.3,0.8-0.8,1.5-1.5,2C155.2,242.9,155.5,241.9,157.5,241.5z"/>
</g>
<g>
	<path class="st44" d="M200.5,242.5c2.2,1,4.4,2.4,6.5,4c0.3-0.3,0.7-0.7,1-1c3.5,2.5,6.5,4.8,9,7c1-1,2.2-1.2,3.5-0.5
		c-0.3,0.3-0.7,0.7-1,1c2.4,0.8,4.3,2.3,5.5,4.5c0.4-0.5,0.9-0.8,1.5-1c1.8,1,3.5,2.1,5,3.5c-0.3,0.3-0.7,0.7-1,1
		c3.1-0.2,6,1,8.5,3.5c1.7-0.8,1.8-0.3,0.5,1.5c1.3,0.7,2.5,0.5,3.5-0.5c8.7,4.8,17,10.2,25,16c1.2,0.3,2.5,0.3,4,0
		c2.1,1.9,4.1,3.9,6,6c1.3,0,2.7,0,4,0c2.1,2,4.1,4,6,6c0.4-0.5,0.9-0.8,1.5-1c1.8,1,3.3,2.3,4.5,4c0.3-0.3,0.7-0.7,1-1
		c2.4,2.6,4.8,4.6,7,6c1-1,2.2-1.2,3.5-0.5c-0.3,0.3-0.7,0.7-1,1c2.6,2.1,5.6,3.5,9,4c-0.3,0.3-0.7,0.7-1,1c1.4,0.5,2.6,1.3,3.5,2.5
		c1.7-0.8,3.1-0.1,4,2c2.1-1.3,3.4-0.6,4,2c0.3-0.3,0.7-0.7,1-1c2.5,1.9,5,3.9,7.5,6c3.5-0.4,6,1.3,7.5,5c0.3-0.3,0.7-0.7,1-1
		c2.5,1,5,2.2,7.5,3.5c2.3,1.5,2.7,3.3,1,5.5c-2.1,2.2-4.4,4.2-7,6c-4-1.2-7.5-3.2-10.5-6c-0.3,0.3-0.7,0.7-1,1
		c-1.5-0.8-1.7-1.6-0.5-2.5c-1.7-0.3-3.3-0.7-5-1c-0.9-2.7-1.7-2.9-2.5-0.5c-3.5-4.8-8-7.7-13.5-8.5c0.3-0.3,0.7-0.7,1-1
		c-1.4-2.5-2.5-2.7-3.5-0.5c-1.8-1.9-3.8-3.6-6-5c-0.3,0.3-0.7,0.7-1,1c-0.1-2.4-0.9-3-2.5-2c-1.3-2.2-3-2.8-5-2
		c-4.1-3.7-8.8-6.4-14-8c-0.2-3.2-1.7-4.2-4.5-3c-1-1.3-2-2.7-3-4c-0.3,0.7-0.7,1.3-1,2c-3.8-2.9-7.8-5.6-12-8c-0.3,0.3-0.7,0.7-1,1
		c-0.5-1.4-1.3-2.6-2.5-3.5c-5.6-1-10.1-3.9-13.5-8.5c-0.3,0.7-0.7,1.3-1,2c-2.7-1.3-5-3.7-7-7c-0.4,0.5-0.9,0.8-1.5,1
		c-2.7-1.8-5.2-3.8-7.5-6c-2,0.8-3.7,0.1-5-2c-0.3,0.3-0.7,0.7-1,1c-1.7-2.7-4.2-4.2-7.5-4.5c0.7-0.3,1.3-0.7,2-1
		c-3.9,0.5-6.8-1.4-8.5-5.5c-2.7,2.9-4.2,2.2-4.5-2c-0.6,0.2-1.1,0.5-1.5,1c-1.7-1.3-3.3-2.7-5-4c-0.3,0.7-0.7,1.3-1,2
		c-0.6-2.3-2-3.9-4-5c-0.3,0.3-0.7,0.7-1,1c-1-1.2-2.2-2.2-3.5-3c-1.3,1.2-2.3,0.9-3-1c-2.2-0.6-4.2-1.2-6-2
		C183.2,243.6,191.9,243.3,200.5,242.5z"/>
</g>
<g>
	<path class="st45" d="M83.5,268.5c3.7,4,7.3,8,11,12c-2.2,4.5-5.2,8.5-9,12c-3,2.3-5.7,5-8,8c-2.6,3-5.3,6-8,9c-0.3,0-0.7,0-1,0
		c-1.2-1.2-1.2-2.4,0-3.5c-1.8-0.9-2.2-2.1-1-3.5c-0.5-1-1.1-1.8-2-2.5c1-1.1,0.6-2.1-1-3c1-1,1.2-2.2,0.5-3.5
		c-1.2,0.8-2.4,0.5-3.5-1c0.3-1.2,0.8-1.2,1.5,0c0.7-0.7,0.7-1.3,0-2c-1.7-0.5-3.2-1.1-4.5-2c0.9-0.8,1.9-1.3,3-1.5
		c-2-0.6-2.3-1.6-1-3c-0.9-0.6-1.8-0.5-2.5,0.5c-0.2,2.1-0.7,4.1-1.5,6c-1-0.5-2-1-3-1.5c0.6-2.1,1.6-2.9,3-2.5
		c-5.2-2.2-5.9-5.4-2-9.5c-0.2-0.4-0.6-0.6-1-0.5c-5-6.7-10-13.3-15-20c-0.2-1.4,0-2.7,0.5-4c3.3,5.5,5.1,5.2,5.5-1
		c1.2-0.2,2.2,0.1,3,1c-0.8,1-1,2-0.5,3c1.8-0.8,3.6-0.6,5.5,0.5c-1.1,0.2-2.1,0.7-3,1.5c1.1,1.3,2.4,2.2,4,2.5
		c-1.2,0.7-1.2,1.2,0,1.5c1.8-0.6,3.1-1.8,4-3.5c0.7-0.7,1.3-0.7,2,0c-0.4,1.8,0.1,3.6,1.5,5.5c1.2-1.2,2.3-1.2,3.5,0
		c-0.2,0.6-0.5,1.1-1,1.5c1.9,2.3,3.9,4.5,6,6.5c1.3-5.2,1.9-5.2,2,0c5.1-0.2,5.7,1,2,3.5c1.5,1.4,3,1.5,4.5,0.5
		c0.7,1.3,0.5,2.5-0.5,3.5c1.9,3.2,3.6,3.2,5,0c-0.6-2.5-1.3-5-2-7.5C81.2,270.1,82.2,269.1,83.5,268.5z"/>
</g>
<g>
	<path class="st46" d="M58.5,240.5c3-0.2,5,1.2,6,4c1.3-0.2,2.4-0.2,3.5,0c2.9,1.8,5.4,4,7.5,6.5c0.9,0.6,1.8,0.5,2.5-0.5
		c0.7,1.6,0.6,3.1-0.5,4.5c0.5,0.5,1,1,1.5,1.5c0.2-1.8,1-3.1,2.5-4c1.2,0.8,1.2,1.6,0,2.5c3.2,0,5.8,1,8,3c-0.7,1.3-1.7,2.3-3,3
		c3.8,1.2,5.3,0,4.5-3.5c0.8,0.6,1.6,1.1,2.5,1.5c-0.3,0.3-0.7,0.7-1,1c3.2,0.3,3.6,1.1,1,2.5c1.5,3.6,2.8,3.3,4-1
		c2.4,1.4,4.6,3.1,6.5,5c0.3-0.3,0.7-0.7,1-1c1.3,3.8,3.5,6.9,6.5,9.5c-0.7,0.3-1.3,0.7-2,1c1.4,0.6,2.7,0.4,4-0.5
		c1.3,0.6,2.1,1.6,2.5,3c0.3-0.7,0.7-1.3,1-2c0.5,1,1.4,1.7,2.5,2c3.2-1.3,6.2-0.8,9,1.5c-1,0.7-1.1,1.6-0.5,2.5
		c2.1,2.8,4.8,4.8,8,6c0.3-0.7,0.7-1.3,1-2c2.1,0.8,4.1,1.8,6,3c0.3-0.7,0.7-1.3,1-2c1,1.5,1.5,3.2,1.5,5c-3.7,0-3.9,0.6-0.5,2
		c1.5-0.8,2.8-1.8,4-3c0.3,1.8,1,2.1,2,1c0.8,0.6,1.6,1.1,2.5,1.5c-1.4,0.2-2.8,0.7-4,1.5c0.4,1,1.1,1,2,0c0.7,1,1.3,2,2,3
		c0.9-1.1,1.8-1.1,2.5,0c0.5,2.3,1.2,4.6,2,7c1-2.4,1.6-2,2,1c2.2-2.8,1.7-4.2-1.5-4c0-1,0-2,0-3c2.1,0.8,4.1,0.9,6,0.5
		c1.9,1.1,2.6,2.4,2,4c5.1-0.3,9.1,1.9,12,6.5c0.2-1.1,0.4-2.4,0.5-4c1,2,2,4,3,6c0.3-0.7,0.7-1.3,1-2c0.4,4.4,1.1,4.7,2,1
		c2,1.3,3,2.9,3,5c-0.9-1.2-1.7-1-2.5,0.5c2.1,1.6,4.5,2.3,7,2c-1.1-3.1-0.5-3.2,2-0.5c-1.4,1.5-1.2,2.9,0.5,4c0.3-2,0.7-4,1-6
		c2,3.3,4.3,6.3,7,9c0.3-0.7,0.7-1.3,1-2c2.1,0.9,3.7,2.2,5,4c0.3-0.7,0.7-1.3,1-2c0.5,1.8,1.7,3,3.5,3.5c-2.3,1.9-1.9,3.5,1,5
		c-1.1,1-0.8,1.7,1,2c-1.2,0.9-1,1.7,0.5,2.5c1.4-1.5,1.5-3,0.5-4.5c1-0.3,2-0.7,3-1c-0.8-1.7-0.3-1.8,1.5-0.5c0.1,2.5,0.8,4.9,2,7
		c0.3-1,0.7-2,1-3c0.3,1.6,1.2,2.7,2.5,3.5c-1.5,0.8-2,2-1.5,3.5c2.2-1.1,4.2-2.4,6-4c2.2,0.8,4.3,1.6,6.5,2.5
		c-2.1,1.4-3.3,3.3-3.5,5.5c0.7-0.7,1.3-1.3,2-2c1,1.8,1.6,3.4,2,5c2.3-1.4,4.3-1.1,6,1c3-3.9,5.7-3.5,8,1c0.3-0.3,0.7-0.7,1-1
		c1,1.1,1.7,2.5,2,4c0.3-1,0.7-2,1-3c3.2,3,6.7,5.3,10.5,7c0,3,0,6,0,9c-2.7-2.4-5.5-2.4-8.5,0c-0.6-1.8-1.8-3.1-3.5-4
		c1.4-1.2,1.2-1.9-0.5-2c-0.9,0.4-1.6,1.1-2,2c-1.6-1.7-3.1-3.4-4.5-5c0.2,1-0.3,2-1.5,3c-1.1-1.3-1.3-2.4-0.5-3.5
		c-1.9,0.4-3.9,0.3-6-0.5c0.2-1.3-0.2-2.5-1-3.5c-6.7-3.6-13-7.1-19-10.5c-0.6,0.2-1.1,0.5-1.5,1c-0.5-1.2-1.3-2-2.5-2.5
		c0.3-0.3,0.7-0.7,1-1c-3.9-1.3-7.9-3.1-12-5.5c-1.9-1.4-3.6-3.1-5-5c-0.7,0.7-1.3,1.3-2,2c-1.8-3.4-4-4-6.5-2
		c-1.8-0.4-1.6-0.9,0.5-1.5c-2.8-1.4-4.8-3.6-6-6.5c-2.2-1.3-4.4-1.3-6.5,0c-0.5-1.2-1.3-2-2.5-2.5c0.7-0.3,1.3-0.7,2-1
		c-1.6-0.3-3.1-0.8-4.5-1.5c-0.3,0.3-0.7,0.7-1,1c-0.6-2-1.6-2.3-3-1c-0.3-1.3-0.8-2.4-1.5-3.5c-4-2-8-4-12-6c-1.3-0.7-1.3-1.3,0-2
		c-2.8,1-5.1,0.1-7-2.5c-0.6,0.2-1.1,0.5-1.5,1c-0.3-1.3-0.8-2.4-1.5-3.5c-2.3-0.5-4.6-1.1-7-2c1.5-0.4,2-1.3,1.5-2.5
		c-1.4,1.3-2.4,1-3-1c-0.4,1.2-1.1,2.2-2,3c-0.8-1.5-2-2.7-3.5-3.5c0.7-0.3,1.3-0.7,2-1c-1.9-0.3-3.6-1.1-5-2.5
		c-0.6,0.2-1.1,0.5-1.5,1c-3.5-3.3-7.3-6-11.5-8c-0.3,0.7-0.7,1.3-1,2c-1-2.1-2.4-3.1-4-3c2.3-2,1.8-2.3-1.5-1c-0.3-1-0.7-2-1-3
		c-1.3,0.1-2.6,0.4-4,1c-1.5-0.8-1.7-1.6-0.5-2.5c-2.8-1.5-5.5-3.2-8-5c-1.3-0.7-2.5-0.5-3.5,0.5c-1.5-0.8-1.7-1.6-0.5-2.5
		c-3-0.8-3.3-1.8-1-3c-1.9-0.7-3.4-0.2-4.5,1.5c-0.3-1.8-1.1-3.3-2.5-4.5c-0.9-0.7-1.6-0.5-2,0.5C74.2,258.2,66.2,249.5,58.5,240.5z
		"/>
</g>
<g>
	<path class="st47" d="M94.5,280.5c2.5,3.4,5.8,5.7,10,7c0.4,2.3,1.4,3,3,2c1,0.5,2,1,3,1.5c-0.3,0.3-0.7,0.7-1,1
		c1.5,1.8,3.2,3.5,5,5c-0.3,0.3-0.7,0.7-1,1c1.6,0.3,3.1,0.8,4.5,1.5c1.7-1.5,3.3-2.2,5-2c1.2,2,3.1,3.2,5.5,3.5
		c-0.5,0.4-0.8,0.9-1,1.5c3.2,1,6,2.7,8.5,5c0.3-0.3,0.7-0.7,1-1c3.3,1.6,6,4,8,7c0.4-0.5,0.9-0.8,1.5-1c1.7,1.5,3.5,2.9,5.5,4
		c0.3-0.3,0.7-0.7,1-1c3.3,2.6,6.7,5.3,10,8c0.3-0.3,0.7-0.7,1-1c3.7,2.8,7.6,4.7,11.5,5.5c-0.3,0.3-0.7,0.7-1,1
		c1.2,0.9,2,2.1,2.5,3.5c1.1-1.5,2.6-2.2,4.5-2c0.2,2.3,1.3,4,3.5,5c1.7-1.1,2.7-0.4,3,2c1.1-1.6,2.4-2.9,4-4
		c0.7,1.3,0.5,2.5-0.5,3.5c1.2,0.9,2,2.1,2.5,3.5c1.3,1.3,2.7,1.3,4,0c0.3,1,0.7,2,1,3c0.3-0.3,0.7-0.7,1-1c0.9,1.2,2.1,2,3.5,2.5
		c-2.1,0.6-2.3,1.1-0.5,1.5c0.9-0.4,1.6-1.1,2-2c1.1,1.9,2.4,2.6,4,2c0.9,3.2,2.7,4.3,5.5,3.5c1.2,2.5,3,4.3,5.5,5.5
		c1.3,0,2.7,0,4,0c1,1.1,1.7,2.5,2,4c0.3-0.7,0.7-1.3,1-2c3.5,2.8,6.5,6.1,9,10c1.1-0.8,2.2-0.6,3.5,0.5c-1.4,2.1-1,2.6,1,1.5
		c2,1.3,4,2.7,6,4c1.3-1.4,2.2-1.1,2.5,1c1.5,0.4,2.7-0.2,3.5-2c2.8,1.5,4.5,3.8,5,7c2.6,1.5,4.9,2.5,7,3c0,4.7-0.4,9.4-1,14
		c-2-0.2-2.4-1-1-2.5c-1.8-0.3-3.3-1.1-4.5-2.5c-1,1-2.2,1.2-3.5,0.5c2.4-0.5,2.6-1.3,0.5-2.5c-2-0.4-4.2-0.4-6.5,0
		c-1.4-2.3-3.3-3-5.5-2c-0.6-0.9-0.5-1.8,0.5-2.5c-1.3-0.3-2.7-0.7-4-1c0.9-1.5,0.4-2.6-1.5-3.5c-1.2-1.1-2.4-1.1-3.5,0
		c-0.9-2.5-2.4-3.2-4.5-2c-0.7-1.3-1.4-2.6-2-4c-1.1,2.3-2.6,2.4-4.5,0.5c-1.3-0.9-2.6-1.8-4-2.5c1.7-1.7,1.3-2.7-1-3
		c-3.7,1.7-4.4,1.2-2-1.5c-0.3-0.2-0.7-0.3-1-0.5c-1.6,1-3.3,1.2-5,0.5c1.2-0.9,1.2-1.7,0-2.5c-0.6,0.2-1.1,0.5-1.5,1
		c-1-2.3-2.7-4-5-5c-0.4,0.5-0.9,0.8-1.5,1c-2-2.2-4.2-4.2-6.5-6c-1.8,2.8-2.8,2.4-3-1c-0.7,1-1.6,1.1-2.5,0.5c-0.7-1.3-1.3-2.7-2-4
		c-2-0.2-4,0-6,0.5c0-4.4-0.5-4.7-1.5-1c-0.3-1.3-0.7-2.7-1-4c-0.6,0.5-1.2,0.9-2,1c-2.3-1.6-4.8-2.7-7.5-3.5c1.8-0.5,2.1-1.4,1-2.5
		c-1.6,0.7-3.1,1-4.5,1c-0.2-2.3-1.6-4.3-4-6c-0.3,0.8-0.8,1.5-1.5,2c-1.2-0.3-1.2-0.8,0-1.5c-0.8-1.7-1.8-1.9-3-0.5
		c-0.7-2-1.9-3.6-3.5-5c-1.8,1-3.4,0.6-5-1c-0.7,1-1.6,1.1-2.5,0.5c0.4-1.5-0.1-3-1.5-4.5c-0.7,2.7-1.3,2.7-2,0
		c-0.3,0.3-0.7,0.7-1,1c-1.6-1.6-3.1-3.2-4.5-5c-1,0.8-2,1-3,0.5c0.3-0.3,0.7-0.7,1-1c-1.8-0.5-3-1.7-3.5-3.5c-1.5-0.4-3.2-0.4-5,0
		c-2.4-2.3-5.2-3.8-8.5-4.5c0.3-0.3,0.7-0.7,1-1c-2-0.6-3.5-1.7-4.5-3.5c-1,1.1-1.7,0.8-2-1c-0.3,0.7-0.7,1.3-1,2
		c-0.9-1.3-1.8-2.6-2.5-4c-0.7,0.5-1.2,1.2-1.5,2c-1.7-3.7-4.5-5.8-8.5-6.5c-0.8-0.8-1.7-1.7-2.5-2.5c-1.8,1.3-2.3,1.2-1.5-0.5
		c-2.1-1.1-4-2.6-5.5-4.5c-1,2.2-2.1,2-3.5-0.5c0.3-0.3,0.7-0.7,1-1c-1.2-0.2-2.2-0.7-3-1.5C89.3,289,92.3,285,94.5,280.5z"/>
</g>
<g>
	<path class="st48" d="M53.5,276.5c0.4-0.1,0.8,0.1,1,0.5c-3.9,4.1-3.2,7.3,2,9.5c-1.4-0.4-2.4,0.4-3,2.5c1,0.5,2,1,3,1.5
		c0.8-1.9,1.3-3.9,1.5-6c0.7-1,1.6-1.1,2.5-0.5c-1.3,1.4-1,2.4,1,3c-1.1,0.2-2.1,0.7-3,1.5c1.3,0.9,2.8,1.5,4.5,2
		c0.7,0.7,0.7,1.3,0,2c-0.7-1.2-1.2-1.2-1.5,0c1.1,1.5,2.3,1.8,3.5,1c0.7,1.3,0.5,2.5-0.5,3.5c1.6,0.9,2,1.9,1,3
		c0.9,0.7,1.5,1.5,2,2.5c-1.2,1.4-0.8,2.6,1,3.5c-1.2,1.1-1.2,2.3,0,3.5c-5.7,6.1-11.4,12.1-17,18c-0.3-4.2-1.8-4.8-4.5-2
		c0.2-1.6,0.2-3.3,0-5c-0.3,0.7-0.7,1.3-1,2c-0.6-2.2-1.6-4.2-3-6c-1,0-2,0-3,0c0.3-4.3-0.7-4.7-3-1c-0.3-1.7-0.7-3.3-1-5
		c-0.6,2.7-1.8,3.2-3.5,1.5c2.2-1,2-2.1-0.5-3.5c-0.7,0.7-1.3,1.3-2,2c0.3-1.9,0.3-3.9,0-6c-1.1,1.1-2,0.8-2.5-1
		c1.8-0.9,2.2-2.1,1-3.5c0.8-2.6,2.1-5,4-7c-0.2-0.4-0.6-0.6-1-0.5C38.5,286.8,45.9,281.5,53.5,276.5z"/>
</g>
<g>
	<path class="st49" d="M85.5,292.5c0.8,0.8,1.8,1.3,3,1.5c-0.3,0.3-0.7,0.7-1,1c1.4,2.5,2.5,2.7,3.5,0.5c1.5,1.9,3.4,3.4,5.5,4.5
		c-0.8,1.7-0.3,1.8,1.5,0.5c0.8,0.8,1.7,1.7,2.5,2.5c4,0.7,6.8,2.8,8.5,6.5c0.3-0.8,0.8-1.5,1.5-2c0.7,1.4,1.6,2.7,2.5,4
		c0.3-0.7,0.7-1.3,1-2c0.3,1.8,1,2.1,2,1c1,1.8,2.5,2.9,4.5,3.5c-0.3,0.3-0.7,0.7-1,1c3.3,0.7,6.1,2.2,8.5,4.5c1.8-0.4,3.5-0.4,5,0
		c0.5,1.8,1.7,3,3.5,3.5c-0.3,0.3-0.7,0.7-1,1c1,0.5,2,0.3,3-0.5c1.4,1.8,2.9,3.4,4.5,5c0.3-0.3,0.7-0.7,1-1c0.7,2.7,1.3,2.7,2,0
		c1.4,1.5,1.9,3,1.5,4.5c0.9,0.6,1.8,0.5,2.5-0.5c1.6,1.6,3.2,2,5,1c1.6,1.4,2.8,3,3.5,5c1.2-1.4,2.2-1.2,3,0.5
		c-1.2,0.7-1.2,1.2,0,1.5c0.7-0.5,1.2-1.2,1.5-2c2.4,1.7,3.8,3.7,4,6c1.4,0,2.9-0.3,4.5-1c1.1,1.1,0.8,2-1,2.5
		c2.7,0.8,5.2,1.9,7.5,3.5c0.8-0.1,1.4-0.5,2-1c0.3,1.3,0.7,2.7,1,4c1-3.7,1.5-3.4,1.5,1c2-0.5,4-0.7,6-0.5c0.7,1.3,1.3,2.7,2,4
		c0.9,0.6,1.8,0.5,2.5-0.5c0.2,3.4,1.2,3.8,3,1c2.3,1.8,4.5,3.8,6.5,6c0.6-0.2,1.1-0.5,1.5-1c2.3,1,4,2.7,5,5c0.4-0.5,0.9-0.8,1.5-1
		c1.2,0.8,1.2,1.6,0,2.5c1.7,0.7,3.4,0.5,5-0.5c0.3,0.2,0.7,0.3,1,0.5c-2.4,2.7-1.7,3.2,2,1.5c2.3,0.3,2.7,1.3,1,3
		c1.4,0.7,2.7,1.6,4,2.5c1.9,1.9,3.4,1.8,4.5-0.5c0.6,1.4,1.3,2.7,2,4c2.1-1.2,3.6-0.5,4.5,2c1.1-1.1,2.3-1.1,3.5,0
		c1.9,0.9,2.4,2,1.5,3.5c1.3,0.3,2.7,0.7,4,1c-1,0.7-1.1,1.6-0.5,2.5c2.2-1,4.1-0.3,5.5,2c2.3-0.4,4.5-0.4,6.5,0
		c2.1,1.2,1.9,2-0.5,2.5c1.3,0.7,2.5,0.5,3.5-0.5c1.2,1.4,2.7,2.2,4.5,2.5c-1.4,1.5-1,2.3,1,2.5c0.2,1.9-0.5,3.4-2,4.5
		c-2.6,1.8-5.2,3.3-8,4.5c0.1-0.6,0.4-1.1,1-1.5c-1.3,0-2.7,0-4,0c-1.1-4.8-4-6.6-8.5-5.5c-1-2.4-2.8-3.6-5.5-3.5
		c-1-1.8-2.1-2.3-3.5-1.5c-1.7-1.7-3.9-3.2-6.5-4.5c-0.6-1.2-1.2-2.4-2-3.5c-1.7,0.5-3.2,0.5-4.5,0c-2.3-1.7-4.7-3.3-7-5
		c-0.3,0.3-0.7,0.7-1,1c-1.2-1.2-2.3-2.3-3.5-3.5c-1.3-0.7-2.5-0.5-3.5,0.5c-0.8-1.8-2-3.3-3.5-4.5c2.4-0.5,2.6-1.3,0.5-2.5
		c-1.6,0.8-2.6,0.2-3-2c-0.4,4.4-1.1,4.7-2,1c-0.3,0.7-0.7,1.3-1,2c-0.4-2.8-1.4-4.8-3-6c-1.9,1.8-4,1.8-6.5,0
		c-1.1-1.2-2.4-2.1-4-2.5c0.8-1.1,0.6-2.2-0.5-3.5c-1.9,3.9-3.2,3.5-4-1c-2.1,1-3.8,0.3-5-2c-0.3,0.3-0.7,0.7-1,1
		c-0.7-2.5-2.1-3.5-4-3c-0.3-1.8-1-2.1-2-1c-2.2-2.2-4.1-4.1-5.5-5.5c-1.3-0.7-2.5-0.5-3.5,0.5c-3.2-3.5-6.7-6.2-10.5-8
		c-2.6,0.8-4.4-0.2-5.5-3c-1.1,0.8-2.2,0.6-3.5-0.5c-0.9-1.7-1.8-3.6-2.5-5.5c-0.3,1.5-1,2.9-2,4c-1.6-1.7-3.5-3.2-5.5-4.5
		c1.5-1.2,1.3-2-0.5-2.5c-0.9,0.2-1.7,0.6-2.5,1c-3.6-3.9-7.7-5.9-12.5-6c-2.5-1.6-3-3.5-1.5-5.5c-1.3-1.1-2.4-1.3-3.5-0.5
		c-0.7-2.7-1.3-2.7-2,0c-2-1.7-3.7-3.7-5-6c-0.7,1.3-1.3,2.7-2,4c-2.2-3.1-4.6-5.4-7-7c-2.8,0.9-5-0.1-6.5-3c-1.9-0.8-3.9-1.3-6-1.5
		c0.7-0.3,1.3-0.7,2-1c-1.9-0.4-2.9-1.6-3-3.5C79.8,297.5,82.5,294.8,85.5,292.5z"/>
</g>
<g>
	<path class="st50" d="M77.5,300.5c0.1,1.9,1.1,3.1,3,3.5c-0.7,0.3-1.3,0.7-2,1c2.1,0.2,4.1,0.7,6,1.5c1.5,2.9,3.7,3.9,6.5,3
		c2.4,1.6,4.8,3.9,7,7c0.7-1.3,1.3-2.7,2-4c1.3,2.3,3,4.3,5,6c0.7-2.7,1.3-2.7,2,0c1.1-0.8,2.2-0.6,3.5,0.5c-1.5,2-1,3.9,1.5,5.5
		c4.8,0.1,8.9,2.1,12.5,6c0.8-0.4,1.6-0.8,2.5-1c1.8,0.5,2,1.3,0.5,2.5c2,1.3,3.9,2.8,5.5,4.5c1-1.1,1.7-2.5,2-4
		c0.7,1.9,1.6,3.8,2.5,5.5c1.3,1.1,2.4,1.3,3.5,0.5c1.1,2.8,2.9,3.8,5.5,3c3.8,1.8,7.3,4.5,10.5,8c1-1,2.2-1.2,3.5-0.5
		c1.4,1.4,3.3,3.3,5.5,5.5c1-1.1,1.7-0.8,2,1c1.9-0.5,3.3,0.5,4,3c0.3-0.3,0.7-0.7,1-1c1.2,2.3,2.9,3,5,2c0.8,4.5,2.1,4.9,4,1
		c1.1,1.3,1.3,2.4,0.5,3.5c1.6,0.4,2.9,1.3,4,2.5c2.5,1.8,4.6,1.8,6.5,0c1.6,1.2,2.6,3.2,3,6c0.3-0.7,0.7-1.3,1-2
		c0.9,3.7,1.6,3.4,2-1c0.4,2.2,1.4,2.8,3,2c2.1,1.2,1.9,2-0.5,2.5c1.5,1.2,2.7,2.7,3.5,4.5c1-1,2.2-1.2,3.5-0.5
		c1.2,1.2,2.3,2.3,3.5,3.5c0.3-0.3,0.7-0.7,1-1c2.3,1.7,4.7,3.3,7,5c1.3,0.5,2.8,0.5,4.5,0c0.8,1.1,1.4,2.3,2,3.5
		c2.6,1.3,4.8,2.8,6.5,4.5c1.4-0.8,2.5-0.3,3.5,1.5c2.7-0.1,4.5,1.1,5.5,3.5c4.5-1.1,7.4,0.7,8.5,5.5c1.3,0,2.7,0,4,0
		c-0.6,0.4-0.9,0.9-1,1.5c-2.4,2.4-5,4.4-8,6c-0.4-0.7-1.1-1.2-2-1.5c0.8-1.7,0.3-1.8-1.5-0.5c-1.4-1.1-2.4-2.4-3-4
		c-1,2.4-1.6,2-2-1c-1.5,0.3-2.8,0.3-4,0c-1.7-1.9-3.9-3.1-6.5-3.5c0.8-1.7,0.3-1.8-1.5-0.5c-1.4-2.4-3.4-4-6-5
		c-0.3,0.3-0.7,0.7-1,1c-0.4-2.2-1.4-2.8-3-2c-1.4-1-2.9-1.8-4.5-2.5c0.3-0.3,0.7-0.7,1-1c-1.1-0.6-2.1-1.5-3-2.5
		c-0.6,0.2-1.1,0.5-1.5,1c-1.6-2.3-3.8-3.8-6.5-4.5c0.3-0.3,0.7-0.7,1-1c-1.9-0.7-3.8-0.6-5.5,0.5c-0.8-1.8-2-3.3-3.5-4.5
		c-2.4-0.3-4.3-1.5-5.5-3.5c-1,1-2.2,1.2-3.5,0.5c0.8-1.4,0.3-2.5-1.5-3.5c-0.3,0.3-0.7,0.7-1,1c-2.7-2-5.3-4-8-6
		c-0.4,0.5-0.9,0.8-1.5,1c-1.4-1.4-3.1-2.2-5-2.5c1.3-1.8,1.2-2.3-0.5-1.5c-1.8-1.7-4-2.8-6.5-3.5c-1.4-1.6-2.9-3.1-4.5-4.5
		c-0.3,0.3-0.7,0.7-1,1c-1.8-1.2-3.5-2.5-5-4c-0.3,0.7-0.7,1.3-1,2c-0.7-2.5-2.1-3.5-4-3c-11.7-7.7-24-15-37-22
		c-0.3,0.3-0.7,0.7-1,1c-0.1-2.4-0.9-3-2.5-2c-1.6-2.6-3.9-4-7-4c0.2-2.4,0-4.7-0.5-7c-0.9,2.2-2.1,4.2-3.5,6c0-2.2-0.9-2.9-2.5-2
		c-2.3-2.3-4.6-4.6-7-7c-2.3,0.8-4.1,0-5.5-2.5c-1.3-0.3-2.4-0.8-3.5-1.5c-0.3,0.3-0.7,0.7-1,1c-0.1-2.4-0.9-3-2.5-2
		c-0.8-0.5-1.1-1.1-1-2C72.2,306.5,74.9,303.5,77.5,300.5z"/>
</g>
<g>
	<path class="st51" d="M53.5,210.5c1.1-0.1,2.1,0,3,0.5c2.7,3.2,5.8,5.7,9.5,7.5c0.3-0.3,0.7-0.7,1-1c2,1.5,3.8,3.2,5.5,5
		c0.7-0.5,1.2-1.2,1.5-2c2.2,1.4,3.2,3.1,3,5c1.7,0,3.3,0,5,0c0.8,1,1.7,2,2.5,3c0.6-0.2,1.1-0.5,1.5-1c1.2,1.5,2.7,2.7,4.5,3.5
		c-1.2,0.9-1.2,1.7,0,2.5c2.7-2.2,4.7-1.4,6,2.5c0.9,0.6,1.8,0.5,2.5-0.5c0.7,1.5,1.9,2.1,3.5,2c-0.1,1.1,0,2.1,0.5,3
		c1.6-1.2,2.9-0.9,4,1c0.8-1.5,2-2,3.5-1.5c1.1,0.7,1.1,1.6,0,2.5c1.4,0.9,2.8,1.9,4,3c0.6-0.2,1.1-0.5,1.5-1
		c2.7,0.9,2.9,1.7,0.5,2.5c1.6,0.4,2.9,1.3,4,2.5c0.7-0.5,1.2-1.2,1.5-2c0.3,1.3,0.8,2.4,1.5,3.5c2.3,0.8,4.3,2.2,6,4
		c5,0.3,8.8,2.4,11.5,6.5c1.6-0.8,2.6-0.2,3,2c1.6-0.6,2.9,0.1,4,2c2.9-0.5,5.4,0.5,7.5,3c-1,2.2-0.3,2.5,2,1c2.3,2.5,4.9,4.5,8,6
		c1.6-1,2.4-0.4,2.5,2c1-0.3,2-0.7,3-1c1.6,2.4,3.8,4.2,6.5,5.5c0.9,0.6,1.8,0.5,2.5-0.5c7.2,5.3,14.2,10.3,21,15
		c0.3-0.3,0.7-0.7,1-1c3.8,1.6,7.2,4,10,7c0.6-2.5,1.5-2.5,2.5,0c1.6-1,2.6-0.3,3,2c2.1,0.6,3.9,1.6,5.5,3c0.3-0.3,0.7-0.7,1-1
		c2.7,4.5,6.4,6.8,11,7c2.8,2.2,5.5,4.5,8,7c0.4-0.5,0.9-0.8,1.5-1c1.8,1,3.3,2.3,4.5,4c1,0,2,0,3,0c0.2,1.1,0.7,2.1,1.5,3
		c1.8,0.2,3.6,0.2,5.5,0c0.4,0.9,0.9,1.8,1.5,2.5c3,0.8,5.5,2.3,7.5,4.5c0.4-0.6,0.9-0.9,1.5-1c-0.4,4.3-0.8,8.7-1,13
		c-0.8-0.9-1.6-1.9-2.5-3c-0.7,2.7-1.3,2.7-2,0c-1.4,0.6-2.7,0.9-4,1c-0.3-1.3-0.7-2.7-1-4c-1.8,1.3-2.3,1.2-1.5-0.5
		c-3.6-0.6-4.3-2-2-4c-1.2-1.7-2.3-1.5-3.5,0.5c-2.8-0.7-3-1.6-0.5-2.5c-1.2-0.5-2-1.3-2.5-2.5c-0.3,1.3-0.7,2.7-1,4
		c-1.4-0.7-2.9-1.2-4.5-1.5c-0.5-0.6-0.9-1.2-1-2c0.4-1,1.1-1.5,2-1.5c-0.8-0.9-1.8-1.2-3-1c-0.9,5.3-2,5.3-3.5,0
		c-3.1-0.1-5.4-1.7-7-5c-0.3,1.8-1,2.1-2,1c-0.7-1.3-0.5-2.5,0.5-3.5c-1.2-1.8-2.4-1.7-3.5,0.5c-0.7-2.7-1.3-2.7-2,0
		c-0.3-1-0.7-2-1-3c-0.4,1.5-1.3,2-2.5,1.5c-1.4-1.9-2.9-3.8-4.5-5.5c-3.8,2.5-5.1,1.5-4-3c-1.3-0.6-2.5-0.9-3.5-1
		c2.2-0.8,2.4-1.8,0.5-3c-0.3,0.3-0.7,0.7-1,1c-2.9-4.1-4.2-3.5-4,2c-1.7-1.2-2.7-2.9-3-5c-0.1,3.3-1.3,3.8-3.5,1.5
		c2.5-2.4,2-2.9-1.5-1.5c-0.9-1.6-1.9-2-3-1c-2.7-1.6-5.2-3.5-7.5-5.5c-1.3-0.7-1.3-1.3,0-2c-1-0.5-2-0.3-3,0.5
		c-0.8-0.9-1.3-1.9-1.5-3c-0.7,1.3-1.3,1.3-2,0c-1,2.3-1.8,2-2.5-1c0.2-0.6,0.5-1.1,1-1.5c-1.3-0.1-2.4,0.4-3.5,1.5
		c-0.9-0.2-1.7-0.6-2.5-1c-1-2.1-2.6-3.3-5-3.5c1.2-0.9,1-1.7-0.5-2.5c-0.3,0.7-0.7,1.3-1,2c-2.1-1.1-3.4-2.8-4-5
		c-0.7,0.7-1.3,1.3-2,2c-0.2-4.5-1.9-5.2-5-2c-0.5-2.1-1.4-4.1-2.5-6c-2.6,0.6-4.8-0.4-6.5-3c-1.4,0.6-2.7,0.9-4,1
		c-0.6-2-0.1-3.6,1.5-5c-0.3-1.2-0.8-1.2-1.5,0c-1.1-3.6-2.1-3.3-3,1c-0.7-2.7-1.3-2.7-2,0c-1.3-1.7-1.1-3.5,0.5-5.5
		c-2.3-0.1-3.8,1.1-4.5,3.5c-1.2-0.6-2.4-1.2-3.5-2c0-1.5-0.5-2.8-1.5-4c-2.7,1-4.7,0-6-3c-1,2.4-1.6,2-2-1c-0.7,2.7-1.3,2.7-2,0
		c-0.9,1.2-1.7,1-2.5-0.5c2.4-0.5,2.6-1.3,0.5-2.5c-1,1.1-1.7,0.8-2-1c-0.7,1.1-1.7,1.7-3,2c-1.6-1.5-3.4-2.7-5.5-3.5
		c4.2-0.8,4.7-2.3,1.5-4.5c-1.1,1.9-2.4,2.6-4,2c-1.6-1.4-3.4-2.4-5.5-3c0.5-1,1.1-1.8,2-2.5c-2.1-2.1-3.9-2-5.5,0.5
		c-3.8-1.6-7.6-3.6-11.5-6c0-1.9-0.8-3.2-2.5-4c-1.5,1.2-3,1.2-4.5,0c-0.6-1.5-1.4-2.8-2.5-4c-0.3,0.7-0.7,1.3-1,2
		c-0.7-1.9-0.2-3.4,1.5-4.5c-1.8-0.4-3.1-1.4-4-3c-1.9-0.4-3.1,0.4-3.5,2.5c-1.5-2.2-3.3-2.9-5.5-2c-1.3-1.7-2.3-3.5-3-5.5
		c-1.1-0.5-2.1-0.3-3,0.5C53.5,218.5,53.5,214.5,53.5,210.5z"/>
</g>
<g>
	<path class="st52" d="M268.5,345.5c-0.4,4.8-1.1,9.5-2,14c-3.8-1.7-7.3-4-10.5-7c-0.3,1-0.7,2-1,3c-0.3-1.5-1-2.9-2-4
		c-0.3,0.3-0.7,0.7-1,1c-2.3-4.5-5-4.9-8-1c-1.7-2.1-3.7-2.4-6-1c-0.4-1.6-1-3.2-2-5c-0.7,0.7-1.3,1.3-2,2c0.2-2.2,1.4-4.1,3.5-5.5
		c-2.2-0.9-4.3-1.7-6.5-2.5c-1.8,1.6-3.8,2.9-6,4c-0.5-1.5,0-2.7,1.5-3.5c-1.3-0.8-2.2-1.9-2.5-3.5c-0.3,1-0.7,2-1,3
		c-1.2-2.1-1.9-4.5-2-7c-1.8-1.3-2.3-1.2-1.5,0.5c-1,0.3-2,0.7-3,1c1,1.5,0.9,3-0.5,4.5c-1.5-0.8-1.7-1.6-0.5-2.5
		c-1.8-0.3-2.1-1-1-2c-2.9-1.5-3.3-3.1-1-5c-1.8-0.5-3-1.7-3.5-3.5c-0.3,0.7-0.7,1.3-1,2c-1.3-1.8-2.9-3.1-5-4c-0.3,0.7-0.7,1.3-1,2
		c-2.7-2.7-5-5.7-7-9c-0.3,2-0.7,4-1,6c-1.7-1.1-1.9-2.5-0.5-4c-2.5-2.7-3.1-2.6-2,0.5c-2.5,0.3-4.9-0.4-7-2
		c0.8-1.5,1.6-1.7,2.5-0.5c0-2.1-1-3.7-3-5c-0.9,3.7-1.6,3.4-2-1c-0.3,0.7-0.7,1.3-1,2c-1-2-2-4-3-6c-0.1,1.6-0.3,2.9-0.5,4
		c-2.9-4.6-6.9-6.8-12-6.5c0.6-1.6-0.1-2.9-2-4c-1.9,0.4-3.9,0.3-6-0.5c0,1,0,2,0,3c3.2-0.2,3.7,1.2,1.5,4c-0.4-3-1-3.4-2-1
		c-0.8-2.4-1.5-4.7-2-7c-0.7-1.1-1.6-1.1-2.5,0c-0.7-1-1.3-2-2-3c-0.9,1-1.6,1-2,0c1.2-0.8,2.6-1.3,4-1.5c-0.9-0.4-1.8-0.9-2.5-1.5
		c-1,1.1-1.7,0.8-2-1c-1.2,1.2-2.5,2.2-4,3c-3.4-1.4-3.2-2,0.5-2c0-1.8-0.5-3.5-1.5-5c-0.3,0.7-0.7,1.3-1,2c-1.9-1.2-3.9-2.2-6-3
		c-0.3,0.7-0.7,1.3-1,2c-3.2-1.2-5.9-3.2-8-6c-0.6-0.9-0.5-1.8,0.5-2.5c-2.8-2.3-5.8-2.8-9-1.5c-1.1-0.3-2-1-2.5-2
		c-0.3,0.7-0.7,1.3-1,2c-0.4-1.4-1.2-2.4-2.5-3c-1.3,0.9-2.6,1.1-4,0.5c0.7-0.3,1.3-0.7,2-1c-3-2.6-5.2-5.7-6.5-9.5
		c-0.3,0.3-0.7,0.7-1,1c-1.9-1.9-4.1-3.6-6.5-5c-1.2,4.3-2.5,4.6-4,1c2.6-1.4,2.2-2.2-1-2.5c0.3-0.3,0.7-0.7,1-1
		c-0.9-0.4-1.7-0.9-2.5-1.5c0.8,3.5-0.7,4.7-4.5,3.5c1.3-0.7,2.3-1.7,3-3c-2.2-2-4.8-3-8-3c1.2-0.9,1.2-1.7,0-2.5
		c-1.5,0.9-2.3,2.2-2.5,4c-0.5-0.5-1-1-1.5-1.5c1.1-1.4,1.2-2.9,0.5-4.5c-0.7,1-1.6,1.1-2.5,0.5c-2.1-2.5-4.6-4.7-7.5-6.5
		c-1.1-0.2-2.2-0.2-3.5,0c-1-2.8-3-4.2-6-4c-4.5-2.7-6.2-6.7-5-12c0-2,0-4,0-6c0.9-0.8,1.9-1,3-0.5c0.7,2,1.7,3.8,3,5.5
		c2.2-0.9,4-0.2,5.5,2c0.4-2.1,1.6-2.9,3.5-2.5c0.9,1.6,2.2,2.6,4,3c-1.7,1.1-2.2,2.6-1.5,4.5c0.3-0.7,0.7-1.3,1-2
		c1.1,1.2,1.9,2.5,2.5,4c1.5,1.2,3,1.2,4.5,0c1.7,0.8,2.5,2.1,2.5,4c3.9,2.4,7.7,4.4,11.5,6c1.6-2.5,3.4-2.6,5.5-0.5
		c-0.9,0.7-1.5,1.5-2,2.5c2.1,0.6,3.9,1.6,5.5,3c1.6,0.6,2.9-0.1,4-2c3.2,2.2,2.7,3.7-1.5,4.5c2.1,0.8,3.9,2,5.5,3.5
		c1.3-0.3,2.3-0.9,3-2c0.3,1.8,1,2.1,2,1c2.1,1.2,1.9,2-0.5,2.5c0.8,1.5,1.6,1.7,2.5,0.5c0.7,2.7,1.3,2.7,2,0c0.4,3,1,3.4,2,1
		c1.3,3,3.3,4,6,3c1,1.2,1.5,2.5,1.5,4c1.1,0.8,2.3,1.4,3.5,2c0.7-2.4,2.2-3.6,4.5-3.5c-1.6,2-1.8,3.8-0.5,5.5c0.7-2.7,1.3-2.7,2,0
		c0.9-4.3,1.9-4.6,3-1c0.7-1.2,1.2-1.2,1.5,0c-1.6,1.4-2.1,3-1.5,5c1.3-0.1,2.6-0.4,4-1c1.7,2.6,3.9,3.6,6.5,3c1.1,1.9,2,3.9,2.5,6
		c3.1-3.2,4.8-2.5,5,2c0.7-0.7,1.3-1.3,2-2c0.6,2.2,1.9,3.9,4,5c0.3-0.7,0.7-1.3,1-2c1.5,0.8,1.7,1.6,0.5,2.5c2.4,0.2,4,1.4,5,3.5
		c0.8,0.4,1.6,0.8,2.5,1c1.1-1.1,2.2-1.6,3.5-1.5c-0.5,0.4-0.8,0.9-1,1.5c0.7,3,1.5,3.3,2.5,1c0.7,1.3,1.3,1.3,2,0
		c0.2,1.1,0.7,2.1,1.5,3c1-0.8,2-1,3-0.5c-1.3,0.7-1.3,1.3,0,2c2.3,2,4.8,3.9,7.5,5.5c1.1-1,2.1-0.6,3,1c3.5-1.4,4-0.9,1.5,1.5
		c2.2,2.3,3.4,1.8,3.5-1.5c0.3,2.1,1.3,3.8,3,5c-0.2-5.5,1.1-6.1,4-2c0.3-0.3,0.7-0.7,1-1c1.9,1.2,1.7,2.2-0.5,3
		c1,0.1,2.2,0.4,3.5,1c-1.1,4.5,0.2,5.5,4,3c1.6,1.7,3.1,3.6,4.5,5.5c1.2,0.5,2.1,0,2.5-1.5c0.3,1,0.7,2,1,3c0.7-2.7,1.3-2.7,2,0
		c1.1-2.2,2.3-2.3,3.5-0.5c-1,1-1.2,2.2-0.5,3.5c1,1.1,1.7,0.8,2-1c1.6,3.3,3.9,4.9,7,5c1.5,5.3,2.6,5.3,3.5,0c1.2-0.2,2.2,0.1,3,1
		c-0.9,0-1.6,0.5-2,1.5c0.1,0.8,0.5,1.4,1,2c1.6,0.3,3.1,0.8,4.5,1.5c0.3-1.3,0.7-2.7,1-4c0.5,1.2,1.3,2,2.5,2.5
		c-2.5,0.9-2.3,1.8,0.5,2.5c1.2-2,2.3-2.2,3.5-0.5c-2.3,2-1.6,3.4,2,4c-0.8,1.7-0.3,1.8,1.5,0.5c0.3,1.3,0.7,2.7,1,4
		c1.3-0.1,2.6-0.4,4-1c0.7,2.7,1.3,2.7,2,0C266.9,343.6,267.7,344.6,268.5,345.5z"/>
</g>
<g>
	<path class="st53" d="M68.5,309.5c0.3,0,0.7,0,1,0c-0.1,0.9,0.2,1.5,1,2c1.6-1,2.4-0.4,2.5,2c0.3-0.3,0.7-0.7,1-1
		c1.1,0.7,2.2,1.2,3.5,1.5c1.4,2.5,3.2,3.3,5.5,2.5c2.4,2.4,4.7,4.7,7,7c1.6-0.9,2.5-0.2,2.5,2c-3,7.2-6.3,14.2-10,21
		c-0.3-0.7-0.6-1.5-1-2.5c-1.7-0.5-3.4-1.1-5-2c0.3-0.3,0.7-0.7,1-1c-2-0.7-4-1.3-6-2c-0.7-1.1-1.2-2.2-1.5-3.5
		c-2.1,0.3-4.1,0.3-6,0c-1.9-2.6-4.4-4.4-7.5-5.5c-2-0.5-4-0.7-6-0.5c0.3-0.7,0.7-1.3,1-2C57.1,321.6,62.8,315.6,68.5,309.5z"/>
</g>
<g>
	<path class="st54" d="M266.5,368.5c-0.7,4.7-1.3,9.3-2,14c-2.1-0.5-4.4-1.5-7-3c-0.5-3.2-2.2-5.5-5-7c-0.8,1.8-2,2.4-3.5,2
		c-0.3-2.1-1.2-2.4-2.5-1c-2-1.3-4-2.7-6-4c-2,1.1-2.4,0.6-1-1.5c-1.3-1.1-2.4-1.3-3.5-0.5c-2.5-3.9-5.5-7.2-9-10
		c-0.3,0.7-0.7,1.3-1,2c-0.3-1.5-1-2.9-2-4c-1.3,0-2.7,0-4,0c-2.5-1.2-4.3-3-5.5-5.5c-2.8,0.8-4.6-0.3-5.5-3.5c-1.6,0.6-2.9-0.1-4-2
		c-0.4,0.9-1.1,1.6-2,2c-1.8-0.4-1.6-0.9,0.5-1.5c-1.4-0.5-2.6-1.3-3.5-2.5c-0.3,0.3-0.7,0.7-1,1c-0.3-1-0.7-2-1-3
		c-1.3,1.3-2.7,1.3-4,0c-0.5-1.4-1.3-2.6-2.5-3.5c1-1,1.2-2.2,0.5-3.5c-1.6,1.1-2.9,2.4-4,4c-0.3-2.4-1.3-3.1-3-2
		c-2.2-1-3.3-2.7-3.5-5c-1.9-0.2-3.4,0.5-4.5,2c-0.5-1.4-1.3-2.6-2.5-3.5c0.3-0.3,0.7-0.7,1-1c-3.9-0.8-7.8-2.7-11.5-5.5
		c-0.3,0.3-0.7,0.7-1,1c-3.3-2.7-6.7-5.4-10-8c-0.3,0.3-0.7,0.7-1,1c-2-1.1-3.8-2.5-5.5-4c-0.6,0.2-1.1,0.5-1.5,1c-2-3-4.7-5.4-8-7
		c-0.3,0.3-0.7,0.7-1,1c-2.5-2.3-5.3-4-8.5-5c0.2-0.6,0.5-1.1,1-1.5c-2.4-0.3-4.3-1.5-5.5-3.5c-1.7-0.2-3.3,0.5-5,2
		c-1.4-0.7-2.9-1.2-4.5-1.5c0.3-0.3,0.7-0.7,1-1c-1.8-1.5-3.5-3.2-5-5c0.3-0.3,0.7-0.7,1-1c-1-0.5-2-1-3-1.5c-1.6,1-2.6,0.3-3-2
		c-4.2-1.3-7.5-3.6-10-7c-3.7-4-7.3-8-11-12c-0.3-0.7-0.7-1.3-1-2c0.4-1,1.1-1.2,2-0.5c1.4,1.2,2.2,2.7,2.5,4.5
		c1.1-1.7,2.6-2.2,4.5-1.5c-2.3,1.2-2,2.2,1,3c-1.2,0.9-1,1.7,0.5,2.5c1-1,2.2-1.2,3.5-0.5c2.5,1.8,5.2,3.5,8,5
		c-1.2,0.9-1,1.7,0.5,2.5c1.4-0.6,2.7-0.9,4-1c0.3,1,0.7,2,1,3c3.3-1.3,3.8-1,1.5,1c1.6-0.1,3,0.9,4,3c0.3-0.7,0.7-1.3,1-2
		c4.2,2,8,4.7,11.5,8c0.4-0.5,0.9-0.8,1.5-1c1.4,1.4,3.1,2.2,5,2.5c-0.7,0.3-1.3,0.7-2,1c1.5,0.8,2.7,2,3.5,3.5c0.9-0.8,1.6-1.8,2-3
		c0.6,2,1.6,2.3,3,1c0.5,1.2,0,2.1-1.5,2.5c2.4,0.9,4.7,1.5,7,2c0.7,1.1,1.2,2.2,1.5,3.5c0.4-0.5,0.9-0.8,1.5-1
		c1.9,2.6,4.2,3.5,7,2.5c-1.3,0.7-1.3,1.3,0,2c4,2,8,4,12,6c0.7,1.1,1.2,2.2,1.5,3.5c1.4-1.3,2.4-1,3,1c0.3-0.3,0.7-0.7,1-1
		c1.4,0.7,2.9,1.2,4.5,1.5c-0.7,0.3-1.3,0.7-2,1c1.2,0.5,2,1.3,2.5,2.5c2.1-1.3,4.3-1.3,6.5,0c1.2,2.9,3.2,5.1,6,6.5
		c-2.1,0.6-2.3,1.1-0.5,1.5c2.5-2,4.7-1.4,6.5,2c0.7-0.7,1.3-1.3,2-2c1.4,1.9,3.1,3.6,5,5c4.1,2.4,8.1,4.2,12,5.5
		c-0.3,0.3-0.7,0.7-1,1c1.2,0.5,2,1.3,2.5,2.5c0.4-0.5,0.9-0.8,1.5-1c6,3.4,12.3,6.9,19,10.5c0.8,1,1.2,2.2,1,3.5
		c2.1,0.8,4.1,0.9,6,0.5c-0.8,1.1-0.6,2.2,0.5,3.5c1.2-1,1.7-2,1.5-3c1.4,1.6,2.9,3.3,4.5,5c0.4-0.9,1.1-1.6,2-2
		c1.7,0.1,1.9,0.8,0.5,2c1.7,0.9,2.9,2.2,3.5,4C261,366.1,263.8,366.1,266.5,368.5z"/>
</g>
<g>
	<path class="st55" d="M31.5,292.5c0.4-0.1,0.8,0.1,1,0.5c-1.9,2-3.2,4.4-4,7c1.2,1.4,0.8,2.6-1,3.5c0.5,1.8,1.4,2.1,2.5,1
		c0.3,2.1,0.3,4.1,0,6c0.7-0.7,1.3-1.3,2-2c2.5,1.4,2.7,2.5,0.5,3.5c1.7,1.7,2.9,1.2,3.5-1.5c0.3,1.7,0.7,3.3,1,5
		c2.3-3.7,3.3-3.3,3,1c1,0,2,0,3,0c1.4,1.8,2.4,3.8,3,6c0.3-0.7,0.7-1.3,1-2c0.2,1.7,0.2,3.4,0,5c2.7-2.8,4.2-2.2,4.5,2
		c-0.3,0.7-0.7,1.3-1,2c-4.6,4-9,8.3-13,13c3.2,0.5,5.8,2.3,8,5.5c2.3,0.8,4.6,1.5,7,2c-1.2,0.9-1,1.7,0.5,2.5c0.3-0.3,0.7-0.7,1-1
		c1.6,1.1,2.9,2.4,4,4c0.3-0.3,0.7-0.7,1-1c1.6,1.1,3.5,2,5.5,2.5c-0.7,0.3-1.3,0.7-2,1c5.5,0.8,9.1,3.6,11,8.5
		c-1.4,3.9-3.2,7.6-5.5,11c-22.7-20.2-45.5-40.2-68.5-60c0-0.7,0-1.3,0-2C10.2,307.8,20.8,300.2,31.5,292.5z"/>
</g>
<g>
	<path class="st56" d="M96.5,326.5c3.1,0,5.4,1.4,7,4c1.6-1,2.4-0.4,2.5,2c0.3-0.3,0.7-0.7,1-1c13,7,25.3,14.3,37,22
		c1.9-0.5,3.3,0.5,4,3c0.3-0.7,0.7-1.3,1-2c1.5,1.5,3.2,2.8,5,4c0.3-0.3,0.7-0.7,1-1c1.6,1.4,3.1,2.9,4.5,4.5
		c2.5,0.7,4.7,1.8,6.5,3.5c1.7-0.8,1.8-0.3,0.5,1.5c1.9,0.3,3.6,1.1,5,2.5c0.6-0.2,1.1-0.5,1.5-1c2.7,2,5.3,4,8,6
		c0.3-0.3,0.7-0.7,1-1c1.8,1,2.3,2.1,1.5,3.5c1.3,0.7,2.5,0.5,3.5-0.5c1.2,2,3.1,3.2,5.5,3.5c1.5,1.2,2.7,2.7,3.5,4.5
		c1.7-1.1,3.6-1.2,5.5-0.5c-0.3,0.3-0.7,0.7-1,1c2.7,0.7,4.9,2.2,6.5,4.5c0.4-0.5,0.9-0.8,1.5-1c0.9,1,1.9,1.9,3,2.5
		c-0.3,0.3-0.7,0.7-1,1c1.6,0.7,3.1,1.5,4.5,2.5c1.6-0.8,2.6-0.2,3,2c0.3-0.3,0.7-0.7,1-1c2.6,1,4.6,2.6,6,5
		c1.8-1.3,2.3-1.2,1.5,0.5c2.6,0.4,4.8,1.6,6.5,3.5c1.2,0.3,2.5,0.3,4,0c0.4,3,1,3.4,2,1c0.6,1.6,1.6,2.9,3,4
		c1.8-1.3,2.3-1.2,1.5,0.5c0.9,0.3,1.6,0.8,2,1.5c-2.7,1.7-5.3,3.3-8,5c-1,0.1-1.8-0.2-2.5-1c-0.3,0.7-0.7,1.3-1,2
		c-1.6-1.7-3.1-3.6-4.5-5.5c-1.9-0.7-3.8-0.6-5.5,0.5c-0.1-1.6-0.3-2.9-0.5-4c-0.8,0.9-1.3,1.9-1.5,3c-1.7-0.8-1.9-1.8-0.5-3
		c-1.9-0.8-3.9-1.3-6-1.5c1.2-0.9,1-1.7-0.5-2.5c-1.1,2.4-1.6,2.1-1.5-1c-1.6,0.1-2.8-0.5-3.5-2c-0.3,1-0.7,2-1,3
		c-2.1-1.4-3.1-3-3-5c-1.9,1.2-3.4,0.7-4.5-1.5c0.8-1.4,0.3-2.5-1.5-3.5c-2,0.8-3.7,0.1-5-2c-0.7,0.9-1.5,1.5-2.5,2
		c-1-1.4-2.4-2-4-2c0.2-1.2-0.1-2.2-1-3c-1.8-1-3.3-2.3-4.5-4c-0.3,1-0.7,2-1,3c-1.6-1.4-2.8-3-3.5-5c-3.9-2.5-7.8-5.2-11.5-8
		c-0.3,0.7-0.7,1.3-1,2c-1.4-0.7-2.9-1.2-4.5-1.5c-0.6-1.2-1.2-2.4-2-3.5c-1.2,1.4-2.2,1.2-3-0.5c0.3-0.3,0.7-0.7,1-1
		c-2.3-0.3-4.2-1.5-5.5-3.5c-0.3,0.3-0.7,0.7-1,1c-0.7-1.1-1.7-1.7-3-2c-1.5,0.8-3,1-4.5,0.5c1-1,1.2-2.2,0.5-3.5
		c-0.4,1.5-1.3,2-2.5,1.5c0.5-0.4,0.8-0.9,1-1.5c-2.4-1.3-4.6-3-6.5-5c-1.3,1.3-2.5,1.1-3.5-0.5c0.3-0.3,0.7-0.7,1-1
		c-2.6-0.6-4.9-1.8-7-3.5c-1.6,1-2.4,0.4-2.5-2c-0.3,0.3-0.7,0.7-1,1c-2.1-0.8-4.2-1.3-6.5-1.5c1-0.3,2-0.7,3-1
		c-1.3-0.7-2.3-1.7-3-3c-1.6-0.3-3.1-0.8-4.5-1.5c-1.1,0.8-2.2,0.6-3.5-0.5c2.1-0.6,2.3-1.1,0.5-1.5c-2,1.4-3,0.7-3-2
		c-1,0.7-2,1.3-3,2c-1.4-1.5-2.9-2.8-4.5-4C97.9,335.1,97.2,330.8,96.5,326.5z"/>
</g>
<g>
	<path class="st57" d="M50.5,329.5c2-0.2,4,0,6,0.5c3.1,1.1,5.6,2.9,7.5,5.5c1.9,0.3,3.9,0.3,6,0c0.3,1.3,0.8,2.4,1.5,3.5
		c2,0.7,4,1.3,6,2c-0.3,0.3-0.7,0.7-1,1c1.6,0.9,3.3,1.5,5,2c0.4,1,0.7,1.8,1,2.5c-2.5,6.9-5.5,13.6-9,20c-1.9-4.9-5.5-7.7-11-8.5
		c0.7-0.3,1.3-0.7,2-1c-2-0.5-3.9-1.4-5.5-2.5c-0.3,0.3-0.7,0.7-1,1c-1.1-1.6-2.4-2.9-4-4c-0.3,0.3-0.7,0.7-1,1
		c-1.5-0.8-1.7-1.6-0.5-2.5c-2.4-0.5-4.7-1.2-7-2c-2.2-3.2-4.8-5-8-5.5C41.5,337.8,45.9,333.5,50.5,329.5z"/>
</g>
<g>
	<path class="st58" d="M98.5,339.5c1.6,1.2,3.1,2.5,4.5,4c1-0.7,2-1.3,3-2c0,2.7,1,3.4,3,2c1.8,0.4,1.6,0.9-0.5,1.5
		c1.3,1.1,2.4,1.3,3.5,0.5c1.4,0.7,2.9,1.2,4.5,1.5c0.7,1.3,1.7,2.3,3,3c-1,0.3-2,0.7-3,1c2.3,0.2,4.4,0.7,6.5,1.5
		c0.3-0.3,0.7-0.7,1-1c0.1,2.4,0.9,3,2.5,2c2.1,1.7,4.4,2.9,7,3.5c-0.3,0.3-0.7,0.7-1,1c1,1.6,2.2,1.8,3.5,0.5c1.9,2,4.1,3.7,6.5,5
		c-0.2,0.6-0.5,1.1-1,1.5c1.2,0.5,2.1,0,2.5-1.5c0.7,1.3,0.5,2.5-0.5,3.5c1.5,0.5,3,0.3,4.5-0.5c1.3,0.3,2.3,0.9,3,2
		c0.3-0.3,0.7-0.7,1-1c1.3,2,3.2,3.2,5.5,3.5c-0.3,0.3-0.7,0.7-1,1c0.8,1.7,1.8,1.9,3,0.5c0.8,1.1,1.4,2.3,2,3.5
		c1.6,0.3,3.1,0.8,4.5,1.5c0.3-0.7,0.7-1.3,1-2c3.7,2.8,7.6,5.5,11.5,8c0.7,2,1.9,3.6,3.5,5c0.3-1,0.7-2,1-3c1.2,1.7,2.7,3,4.5,4
		c0.9,0.8,1.2,1.8,1,3c1.6,0,3,0.6,4,2c1-0.5,1.8-1.1,2.5-2c1.3,2.1,3,2.8,5,2c1.8,1,2.3,2.1,1.5,3.5c1.1,2.2,2.6,2.7,4.5,1.5
		c-0.1,2,0.9,3.6,3,5c0.3-1,0.7-2,1-3c0.7,1.5,1.9,2.1,3.5,2c-0.1,3.1,0.4,3.4,1.5,1c1.5,0.8,1.7,1.6,0.5,2.5c2.1,0.2,4.1,0.7,6,1.5
		c-1.4,1.2-1.2,2.2,0.5,3c0.2-1.1,0.7-2.1,1.5-3c0.2,1.1,0.4,2.4,0.5,4c1.7-1.1,3.6-1.2,5.5-0.5c1.4,1.9,2.9,3.8,4.5,5.5
		c0.3-0.7,0.7-1.3,1-2c0.7,0.8,1.5,1.1,2.5,1c-4.3,3.5-9,6.5-14,9c-0.7-0.6-1.3-1.3-2-2c-1,0.8-2,1-3,0.5c0.3-0.3,0.7-0.7,1-1
		c-6.4-2.7-12.2-6.2-17.5-10.5c-0.3,0.3-0.7,0.7-1,1c-1.4-1.7-3.3-2.3-5.5-2c-1-4.3-2.5-4.6-4.5-1c-0.7-1.3-0.5-2.5,0.5-3.5
		c-0.9-0.6-1.8-0.5-2.5,0.5c-0.3-1-0.7-2-1-3c-7.1-1.9-13.6-5.5-19.5-11c-2.1-0.6-3.9-1.6-5.5-3c-0.3,0.3-0.7,0.7-1,1
		c-0.3-1-0.7-2-1-3c-0.3,0.3-0.7,0.7-1,1c-3.8-2.4-7.6-4.8-11.5-7c-1.8,1.1-3,0.4-3.5-2c-0.3,0.3-0.7,0.7-1,1
		c-0.7-1.5-1.9-2.1-3.5-2c0.4-2.4-0.3-3.1-2-2c-1.8-1-3.3-2.3-4.5-4c-0.3,0.3-0.7,0.7-1,1c-0.3-1-0.7-2-1-3c-0.3,0.3-0.7,0.7-1,1
		c-3.2-2.5-7.4-4.7-12.5-6.5c-2-2.2-4.1-3.4-6.5-3.5c-1.9-2.9-4.2-3.6-7-2c-1.2-0.9-2.6-1.9-4-3c-0.5,0.6-0.6,1.3-0.5,2
		C99.3,353,98.6,346.4,98.5,339.5z"/>
</g>
<g>
	<path class="st59" d="M281.5,341.5c2.4,0.4,4.6,1.7,6.5,4c0.4-0.5,0.9-0.8,1.5-1c1.4,1.9,3.1,3.6,5,5c0.8-0.7,1.5-1.6,2-2.5
		c2.4-0.3,2.4,0.4,0,2c1.6,0.9,2,1.9,1,3c1.3,0.7,2.5,0.5,3.5-0.5c3,2,5.8,4.2,8.5,6.5c1.9,0.8,3.4,0.3,4.5-1.5
		c0.9,1.9,1.4,3.9,1.5,6c-5.3,5.1-10.8,10.1-16.5,15C292.9,365.6,287.1,353.6,281.5,341.5z"/>
</g>
<g>
	<path class="st60" d="M223.5,425.5c-3.5,2.9-7.1,5.6-11,8c0.2-1.2-0.1-2.2-1-3c-1.5-0.6-2.8-1.4-4-2.5c0.3-0.3,0.7-0.7,1-1
		c-2-0.3-4-0.7-6-1c-2.2-3-4.7-4.1-7.5-3.5c-5.3-4.4-11.4-8.1-18.5-11c-0.8-0.9-1.3-1.9-1.5-3c-1.7,0-3.3,0-5,0
		c-1.5-0.8-1.7-1.6-0.5-2.5c-2.9-2.3-6.3-3.6-10-4c0.7-0.3,1.3-0.7,2-1c-2.9-1.3-5.9-2.3-9-3c1-0.7,1.1-1.6,0.5-2.5
		c-0.9,0.9-1.9,0.9-3,0c-2.9-1.9-5.8-3.9-8.5-6c-2.3,0.9-3.5-0.1-3.5-3c-0.3,0.7-0.7,1.3-1,2c-0.1-3.1-1.4-4.1-4-3
		c-1-3.2-2.3-3.5-4-1c-1.5-2.2-3.3-4-5.5-5.5c-0.9-0.6-1.8-0.5-2.5,0.5c-4.5-4.3-9.3-7.6-14.5-10c-0.3,0.7-0.7,1.3-1,2
		c-0.9-1.6-1.8-3.3-2.5-5c-0.5,1-1,2-1.5,3c-1-3.1-1.3-6.5-1-10c-0.1-0.7,0-1.4,0.5-2c1.4,1.1,2.8,2.1,4,3c2.8-1.6,5.1-0.9,7,2
		c2.4,0.1,4.5,1.3,6.5,3.5c5.1,1.8,9.3,4,12.5,6.5c0.3-0.3,0.7-0.7,1-1c0.3,1,0.7,2,1,3c0.3-0.3,0.7-0.7,1-1c1.2,1.7,2.7,3,4.5,4
		c1.7-1.1,2.4-0.4,2,2c1.6-0.1,2.8,0.5,3.5,2c0.3-0.3,0.7-0.7,1-1c0.5,2.4,1.7,3.1,3.5,2c3.9,2.2,7.7,4.6,11.5,7
		c0.3-0.3,0.7-0.7,1-1c0.3,1,0.7,2,1,3c0.3-0.3,0.7-0.7,1-1c1.6,1.4,3.4,2.4,5.5,3c5.9,5.5,12.4,9.1,19.5,11c0.3,1,0.7,2,1,3
		c0.7-1,1.6-1.1,2.5-0.5c-1,1-1.2,2.2-0.5,3.5c2-3.6,3.5-3.3,4.5,1c2.2-0.3,4.1,0.3,5.5,2c0.3-0.3,0.7-0.7,1-1
		c5.3,4.3,11.1,7.8,17.5,10.5c-0.3,0.3-0.7,0.7-1,1c1,0.5,2,0.3,3-0.5C222.2,424.2,222.8,424.9,223.5,425.5z"/>
</g>
<g>
	<path class="st61" d="M212.5,433.5c-2.2,1.6-4.5,2.9-7,4c-4.4-0.8-8.9-3.2-13.5-7c-0.3,0.3-0.7,0.7-1,1c-3.4-2.3-6.9-4.5-10.5-6.5
		c0.8-1.7,0.3-1.8-1.5-0.5c-0.9-0.8-1.6-1.8-2-3c-3.7-0.8-7.2-2.6-10.5-5.5c-1.7-0.3-3.3-0.7-5-1c0.3-0.3,0.7-0.7,1-1
		c-2.5-1.6-5.1-2.6-8-3c0.3-0.3,0.7-0.7,1-1c-2.2-0.9-4.2-2.1-6-3.5c-1.7,1.1-2.4,0.4-2-2c-5.5-1.3-10.5-4.3-15-9
		c-0.6,0.2-1.1,0.5-1.5,1c-2.3-1.3-4.3-3-6-5c-0.3,0.3-0.7,0.7-1,1c-5.3-3.2-10.5-6.6-15.5-10c-0.6,0.2-1.1,0.5-1.5,1
		c-0.7-2.9-2.2-3.6-4.5-2c-0.9-3.9-1.3-7.9-1-12c0.5-1,1-2,1.5-3c0.7,1.7,1.6,3.4,2.5,5c0.3-0.7,0.7-1.3,1-2c5.2,2.4,10,5.7,14.5,10
		c0.7-1,1.6-1.1,2.5-0.5c2.2,1.5,4,3.3,5.5,5.5c1.7-2.5,3-2.2,4,1c2.6-1.1,3.9-0.1,4,3c0.3-0.7,0.7-1.3,1-2c0,2.9,1.2,3.9,3.5,3
		c2.7,2.1,5.6,4.1,8.5,6c1.1,0.9,2.1,0.9,3,0c0.6,0.9,0.5,1.8-0.5,2.5c3.1,0.7,6.1,1.7,9,3c-0.7,0.3-1.3,0.7-2,1
		c3.7,0.4,7.1,1.7,10,4c-1.2,0.9-1,1.7,0.5,2.5c1.7,0,3.3,0,5,0c0.2,1.1,0.7,2.1,1.5,3c7.1,2.9,13.2,6.6,18.5,11
		c2.8-0.6,5.3,0.5,7.5,3.5c2,0.3,4,0.7,6,1c-0.3,0.3-0.7,0.7-1,1c1.2,1.1,2.5,1.9,4,2.5C212.4,431.3,212.7,432.3,212.5,433.5z"/>
</g>
<g>
	<path class="st62" d="M205.5,437.5c-3.7,3-7.7,5.7-12,8c-1.6-0.8-2.8-2.1-3.5-4c-0.3,0.7-0.7,1.3-1,2c-2.2-4.2-5.7-6.3-10.5-6.5
		c0.3-0.3,0.7-0.7,1-1c-1.6-0.3-2.7-1.2-3.5-2.5c-0.3,0.3-0.7,0.7-1,1c-2.9-3.6-6.8-5.7-11.5-6.5c0.3-0.3,0.7-0.7,1-1
		c-1.8-2.1-3.3-1.9-4.5,0.5c-0.6-0.9-0.5-1.8,0.5-2.5c-1.3-0.3-2.7-0.7-4-1c0.3-0.3,0.7-0.7,1-1c-1.3-1.1-2.4-1.3-3.5-0.5
		c-0.6-2.6-1.9-3.3-4-2c-0.5-0.9-0.6-1.9-0.5-3c-1.4,0.2-2.7,0-4-0.5c-6-4.4-12.5-8.3-19.5-11.5c-0.8,0.1-1.4,0.5-2,1
		c-2.6-3-5.7-5.2-9.5-6.5c-1.5-1.2-2.7-2.7-3.5-4.5c-0.4,0.5-0.9,0.8-1.5,1c-1.6-1.8-3.6-2.8-6-3c-0.8-4-1.1-8-1-12
		c2.3-1.6,3.8-0.9,4.5,2c0.4-0.5,0.9-0.8,1.5-1c5,3.4,10.2,6.8,15.5,10c0.3-0.3,0.7-0.7,1-1c1.7,2,3.7,3.7,6,5
		c0.4-0.5,0.9-0.8,1.5-1c4.5,4.7,9.5,7.7,15,9c-0.4,2.4,0.3,3.1,2,2c1.8,1.4,3.8,2.6,6,3.5c-0.3,0.3-0.7,0.7-1,1
		c2.9,0.4,5.5,1.4,8,3c-0.3,0.3-0.7,0.7-1,1c1.7,0.3,3.3,0.7,5,1c3.3,2.9,6.8,4.7,10.5,5.5c0.4,1.2,1.1,2.2,2,3
		c1.8-1.3,2.3-1.2,1.5,0.5c3.6,2,7.1,4.2,10.5,6.5c0.3-0.3,0.7-0.7,1-1C196.6,434.3,201.1,436.7,205.5,437.5z"/>
</g>
<g>
	<path class="st63" d="M103.5,393.5c2.4,0.2,4.4,1.2,6,3c0.6-0.2,1.1-0.5,1.5-1c0.8,1.8,2,3.3,3.5,4.5c3.8,1.3,6.9,3.5,9.5,6.5
		c0.6-0.5,1.2-0.9,2-1c7,3.2,13.5,7.1,19.5,11.5c1.3,0.5,2.6,0.7,4,0.5c-0.1,1.1,0,2.1,0.5,3c2.1-1.3,3.4-0.6,4,2
		c1.1-0.8,2.2-0.6,3.5,0.5c-0.3,0.3-0.7,0.7-1,1c1.3,0.3,2.7,0.7,4,1c-1,0.7-1.1,1.6-0.5,2.5c1.2-2.4,2.7-2.6,4.5-0.5
		c-0.3,0.3-0.7,0.7-1,1c4.7,0.8,8.6,2.9,11.5,6.5c0.3-0.3,0.7-0.7,1-1c0.8,1.3,1.9,2.2,3.5,2.5c-0.3,0.3-0.7,0.7-1,1
		c4.8,0.2,8.3,2.3,10.5,6.5c0.3-0.7,0.7-1.3,1-2c0.7,1.9,1.9,3.2,3.5,4c-3.2,2.1-6.2,4.4-9,7c-0.7,0-1.3,0-2,0
		c-26-17.8-52.2-35.4-78.5-53C103.5,397.5,103.3,395.5,103.5,393.5z"/>
</g>
</svg>