<?xml version="1.0" encoding="UTF-8"?>
<!DOCTYPE svg PUBLIC "-//W3C//DTD SVG 1.1//EN" "http://www.w3.org/Graphics/SVG/1.1/DTD/svg11.dtd">
<svg viewBox="0 0 400 400" version="1.1" xmlns="http://www.w3.org/2000/svg">
  <g id="#ff00fdff">
    <path fill="#ff00fd" opacity="1.00"
      d=" M 0.00 0.00 L 248.21 0.00 C 249.32 5.65 250.96 11.65 255.54 15.53 C 261.42 19.93 269.82 21.19 276.44 17.65 C 283.04 14.42 287.03 7.29 286.89 0.00 L 400.00 0.00 L 400.00 400.00 L 0.00 400.00 L 0.00 0.00 M 128.88 17.38 C 122.50 19.13 117.30 24.23 115.23 30.49 C 111.86 40.46 118.79 52.21 128.97 54.48 C 133.25 54.98 137.85 55.15 141.80 53.16 C 147.90 50.22 152.45 43.82 152.50 36.96 C 153.17 30.33 149.36 23.92 144.36 19.84 C 139.71 17.44 134.06 15.61 128.88 17.38 M 353.16 63.74 C 347.43 64.97 342.85 69.64 340.55 74.91 C 335.49 84.54 342.04 97.51 352.29 100.35 C 363.78 104.88 378.07 94.47 376.75 82.03 C 377.48 75.45 373.33 69.49 368.09 65.95 C 363.80 62.84 358.15 63.32 353.16 63.74 M 32.19 70.45 C 25.49 71.29 19.51 76.31 17.13 82.60 C 13.28 91.97 18.65 103.74 28.16 107.11 C 38.07 111.46 50.60 104.92 53.37 94.64 C 54.15 90.14 54.15 85.32 52.08 81.14 C 48.75 73.75 40.22 69.10 32.19 70.45 M 124.12 75.17 C 117.09 76.34 110.05 77.39 103.08 78.81 C 103.22 84.62 104.37 90.33 105.37 96.05 C 116.23 164.76 127.57 233.39 138.46 302.10 C 140.31 313.59 151.03 323.63 163.00 322.76 C 172.46 323.56 180.92 316.94 184.92 308.79 C 186.81 304.73 187.32 300.23 188.10 295.87 C 191.20 278.58 194.14 261.27 197.29 243.98 C 198.11 239.50 198.53 234.91 200.15 230.62 C 205.16 254.69 208.97 279.01 213.66 303.15 C 215.47 312.63 223.42 320.81 233.00 322.45 C 239.14 323.27 245.87 322.86 251.07 319.14 C 257.04 315.27 260.73 308.59 261.68 301.63 C 264.02 286.27 266.77 270.97 268.87 255.58 C 268.13 255.44 266.65 255.16 265.91 255.02 C 271.49 256.57 277.23 253.96 281.56 250.55 C 288.22 245.04 289.92 234.75 285.76 227.28 C 283.80 222.83 279.50 219.88 275.15 218.03 C 281.58 177.35 288.27 136.73 294.67 96.05 C 295.70 90.33 296.80 84.59 296.94 78.75 C 281.13 76.17 265.38 73.13 249.48 71.15 C 248.05 76.91 247.61 82.85 246.52 88.68 C 244.04 104.68 241.29 120.64 239.06 136.68 C 238.15 141.64 237.80 146.74 236.05 151.51 C 234.49 147.37 233.71 143.00 232.80 138.68 C 229.70 122.77 226.81 106.80 223.02 91.03 C 219.32 78.57 204.04 70.82 191.93 75.96 C 183.47 79.06 177.55 87.07 175.82 95.76 C 171.48 111.63 169.75 128.06 165.70 143.98 C 164.03 142.56 162.29 141.18 160.24 140.36 L 161.47 140.78 C 157.99 117.57 154.26 94.39 150.34 71.25 C 141.51 71.86 132.84 73.78 124.12 75.17 M 48.33 198.40 C 43.81 199.49 39.99 202.53 36.98 205.96 C 34.05 209.08 33.48 213.62 33.49 217.73 C 33.33 225.89 39.72 233.13 47.30 235.43 C 53.27 236.52 60.06 235.92 64.83 231.82 C 67.46 229.13 69.99 226.06 70.79 222.29 C 73.08 215.46 70.68 207.53 65.25 202.88 C 60.86 198.49 54.24 197.55 48.33 198.40 M 315.26 198.76 C 308.61 200.32 303.29 205.80 301.55 212.33 C 301.06 215.85 301.10 219.47 301.76 222.96 C 304.16 230.70 311.88 236.46 320.01 236.41 C 330.10 236.45 339.66 227.35 338.74 217.00 C 339.62 205.00 326.54 195.48 315.26 198.76 M 39.19 251.75 C 35.00 253.30 31.02 255.98 28.89 260.02 C 22.43 269.91 27.85 285.36 39.57 288.19 C 45.12 288.98 51.71 289.39 56.23 285.44 C 60.79 282.11 64.20 276.80 64.18 271.03 C 64.85 263.89 60.60 256.88 54.54 253.32 C 50.01 250.39 44.26 251.12 39.19 251.75 M 209.26 334.67 C 199.19 336.63 192.15 348.05 195.16 357.89 C 196.95 364.69 202.66 370.41 209.63 371.74 C 220.85 374.79 233.20 364.54 232.59 353.00 C 232.92 347.76 230.43 342.82 226.64 339.34 C 222.40 334.50 215.31 333.39 209.26 334.67 M 316.19 338.60 C 309.51 340.12 303.33 345.22 301.64 352.03 C 301.18 355.50 301.06 359.07 301.65 362.54 C 303.75 370.88 312.37 377.26 321.02 376.44 C 326.91 376.52 332.03 372.81 335.64 368.46 C 338.90 363.67 339.21 357.63 338.34 352.07 C 335.81 342.81 325.58 336.68 316.19 338.60 M 128.14 353.51 C 118.15 355.62 111.22 366.84 114.11 376.70 C 115.77 383.11 120.97 388.42 127.26 390.38 C 131.78 390.98 136.74 391.32 140.94 389.18 C 148.09 385.93 152.46 377.70 151.59 369.97 C 151.20 364.78 148.01 360.24 144.26 356.84 C 139.76 353.13 133.68 352.85 128.14 353.51 Z" />
  </g>
  <g id="#010101ff">
    <path fill="#010101" opacity="1.00"
      d=" M 248.21 0.00 L 286.89 0.00 C 287.03 7.29 283.04 14.42 276.44 17.65 C 269.82 21.19 261.42 19.93 255.54 15.53 C 250.96 11.65 249.32 5.65 248.21 0.00 Z" />
    <path fill="#010101" opacity="1.00"
      d=" M 128.88 17.38 C 134.06 15.61 139.71 17.44 144.36 19.84 C 149.36 23.92 153.17 30.33 152.50 36.96 C 152.45 43.82 147.90 50.22 141.80 53.16 C 137.85 55.15 133.25 54.98 128.97 54.48 C 118.79 52.21 111.86 40.46 115.23 30.49 C 117.30 24.23 122.50 19.13 128.88 17.38 Z" />
    <path fill="#010101" opacity="1.00"
      d=" M 353.16 63.74 C 358.15 63.32 363.80 62.84 368.09 65.95 C 373.33 69.49 377.48 75.45 376.75 82.03 C 378.07 94.47 363.78 104.88 352.29 100.35 C 342.04 97.51 335.49 84.54 340.55 74.91 C 342.85 69.64 347.43 64.97 353.16 63.74 Z" />
    <path fill="#010101" opacity="1.00"
      d=" M 32.19 70.45 C 40.22 69.10 48.75 73.75 52.08 81.14 C 54.15 85.32 54.15 90.14 53.37 94.64 C 50.60 104.92 38.07 111.46 28.16 107.11 C 18.65 103.74 13.28 91.97 17.13 82.60 C 19.51 76.31 25.49 71.29 32.19 70.45 Z" />
    <path fill="#010101" opacity="1.00"
      d=" M 128.29 88.08 C 133.36 86.90 138.87 87.96 143.22 90.81 C 148.87 94.47 152.10 101.35 151.61 108.03 C 151.23 116.05 145.13 123.33 137.34 125.21 C 127.65 127.95 116.71 121.63 114.19 111.90 C 111.02 101.81 117.97 90.20 128.29 88.08 Z" />
    <path fill="#010101" opacity="1.00"
      d=" M 194.41 88.44 C 204.94 84.83 217.26 92.48 218.81 103.46 C 221.09 114.30 212.00 125.58 200.95 125.77 C 190.12 126.65 180.21 116.78 180.88 105.97 C 181.14 98.06 186.78 90.64 194.41 88.44 Z" />
    <path fill="#010101" opacity="1.00"
      d=" M 261.42 88.58 C 271.54 84.87 283.64 91.62 285.96 102.09 C 288.87 112.38 281.31 123.95 270.76 125.51 C 261.68 127.32 251.94 121.49 249.25 112.64 C 245.93 103.05 251.61 91.46 261.42 88.58 Z" />
    <path fill="#010101" opacity="1.00"
      d=" M 145.91 139.85 C 150.52 138.04 155.71 138.56 160.24 140.36 C 162.29 141.18 164.03 142.56 165.70 143.98 C 168.71 147.30 171.00 151.43 171.36 155.98 C 172.17 162.91 168.63 170.03 162.81 173.81 C 156.32 178.16 147.11 177.88 140.91 173.11 C 135.45 169.10 132.42 162.03 133.44 155.31 C 134.25 148.36 139.26 142.10 145.91 139.85 Z" />
    <path fill="#010101" opacity="1.00"
      d=" M 48.33 198.40 C 54.24 197.55 60.86 198.49 65.25 202.88 C 70.68 207.53 73.08 215.46 70.79 222.29 C 69.99 226.06 67.46 229.13 64.83 231.82 C 60.06 235.92 53.27 236.52 47.30 235.43 C 39.72 233.13 33.33 225.89 33.49 217.73 C 33.48 213.62 34.05 209.08 36.98 205.96 C 39.99 202.53 43.81 199.49 48.33 198.40 Z" />
    <path fill="#010101" opacity="1.00"
      d=" M 315.26 198.76 C 326.54 195.48 339.62 205.00 338.74 217.00 C 339.66 227.35 330.10 236.45 320.01 236.41 C 311.88 236.46 304.16 230.70 301.76 222.96 C 301.10 219.47 301.06 215.85 301.55 212.33 C 303.29 205.80 308.61 200.32 315.26 198.76 Z" />
    <path fill="#010101" opacity="1.00"
      d=" M 259.56 219.57 C 264.25 216.86 270.01 216.55 275.15 218.03 C 279.50 219.88 283.80 222.83 285.76 227.28 C 289.92 234.75 288.22 245.04 281.56 250.55 C 277.23 253.96 271.49 256.57 265.91 255.02 C 258.15 253.93 251.50 247.51 250.16 239.79 C 248.52 231.96 252.53 223.37 259.56 219.57 Z" />
    <path fill="#010101" opacity="1.00"
      d=" M 39.19 251.75 C 44.26 251.12 50.01 250.39 54.54 253.32 C 60.60 256.88 64.85 263.89 64.18 271.03 C 64.20 276.80 60.79 282.11 56.23 285.44 C 51.71 289.39 45.12 288.98 39.57 288.19 C 27.85 285.36 22.43 269.91 28.89 260.02 C 31.02 255.98 35.00 253.30 39.19 251.75 Z" />
    <path fill="#010101" opacity="1.00"
      d=" M 160.36 274.52 C 165.57 273.41 171.26 274.20 175.68 277.28 C 183.08 282.11 185.97 292.41 182.48 300.47 C 179.33 308.43 170.39 313.42 161.97 311.94 C 153.59 310.80 146.64 303.43 145.88 295.02 C 144.70 285.82 151.34 276.52 160.36 274.52 Z" />
    <path fill="#010101" opacity="1.00"
      d=" M 232.45 274.60 C 242.05 271.93 253.06 277.80 255.72 287.49 C 259.16 297.63 252.23 309.49 241.80 311.66 C 231.60 314.39 220.27 306.94 218.64 296.53 C 216.67 287.03 223.13 277.01 232.45 274.60 Z" />
    <path fill="#010101" opacity="1.00"
      d=" M 209.26 334.67 C 215.31 333.39 222.40 334.50 226.64 339.34 C 230.43 342.82 232.92 347.76 232.59 353.00 C 233.20 364.54 220.85 374.79 209.63 371.74 C 202.66 370.41 196.95 364.69 195.16 357.89 C 192.15 348.05 199.19 336.63 209.26 334.67 Z" />
    <path fill="#010101" opacity="1.00"
      d=" M 316.19 338.60 C 325.58 336.68 335.81 342.81 338.34 352.07 C 339.21 357.63 338.90 363.67 335.64 368.46 C 332.03 372.81 326.91 376.52 321.02 376.44 C 312.37 377.26 303.75 370.88 301.65 362.54 C 301.06 359.07 301.18 355.50 301.64 352.03 C 303.33 345.22 309.51 340.12 316.19 338.60 Z" />
    <path fill="#010101" opacity="1.00"
      d=" M 128.14 353.51 C 133.68 352.85 139.76 353.13 144.26 356.84 C 148.01 360.24 151.20 364.78 151.59 369.97 C 152.46 377.70 148.09 385.93 140.94 389.18 C 136.74 391.32 131.78 390.98 127.26 390.38 C 120.97 388.42 115.77 383.11 114.11 376.70 C 111.22 366.84 118.15 355.62 128.14 353.51 Z" />
  </g>
  <g id="#ffffffff">
    <path fill="#ffffff" opacity="1.00"
      d=" M 124.12 75.17 C 132.84 73.78 141.51 71.86 150.34 71.25 C 154.26 94.39 157.99 117.57 161.47 140.78 L 160.24 140.36 C 155.71 138.56 150.52 138.04 145.91 139.85 C 139.26 142.10 134.25 148.36 133.44 155.31 C 132.42 162.03 135.45 169.10 140.91 173.11 C 147.11 177.88 156.32 178.16 162.81 173.81 C 168.63 170.03 172.17 162.91 171.36 155.98 C 171.00 151.43 168.71 147.30 165.70 143.98 C 169.75 128.06 171.48 111.63 175.82 95.76 C 177.55 87.07 183.47 79.06 191.93 75.96 C 204.04 70.82 219.32 78.57 223.02 91.03 C 226.81 106.80 229.70 122.77 232.80 138.68 C 233.71 143.00 234.49 147.37 236.05 151.51 C 237.80 146.74 238.15 141.64 239.06 136.68 C 241.29 120.64 244.04 104.68 246.52 88.68 C 247.61 82.85 248.05 76.91 249.48 71.15 C 265.38 73.13 281.13 76.17 296.94 78.75 C 296.80 84.59 295.70 90.33 294.67 96.05 C 288.27 136.73 281.58 177.35 275.15 218.03 C 270.01 216.55 264.25 216.86 259.56 219.57 C 252.53 223.37 248.52 231.96 250.16 239.79 C 251.50 247.51 258.15 253.93 265.91 255.02 C 266.65 255.16 268.13 255.44 268.87 255.58 C 266.77 270.97 264.02 286.27 261.68 301.63 C 260.73 308.59 257.04 315.27 251.07 319.14 C 245.87 322.86 239.14 323.27 233.00 322.45 C 223.42 320.81 215.47 312.63 213.66 303.15 C 208.97 279.01 205.16 254.69 200.15 230.62 C 198.53 234.91 198.11 239.50 197.29 243.98 C 194.14 261.27 191.20 278.58 188.10 295.87 C 187.32 300.23 186.81 304.73 184.92 308.79 C 180.92 316.94 172.46 323.56 163.00 322.76 C 151.03 323.63 140.31 313.59 138.46 302.10 C 127.57 233.39 116.23 164.76 105.37 96.05 C 104.37 90.33 103.22 84.62 103.08 78.81 C 110.05 77.39 117.09 76.34 124.12 75.17 M 128.29 88.08 C 117.97 90.20 111.02 101.81 114.19 111.90 C 116.71 121.63 127.65 127.95 137.34 125.21 C 145.13 123.33 151.23 116.05 151.61 108.03 C 152.10 101.35 148.87 94.47 143.22 90.81 C 138.87 87.96 133.36 86.90 128.29 88.08 M 194.41 88.44 C 186.78 90.64 181.14 98.06 180.88 105.97 C 180.21 116.78 190.12 126.65 200.95 125.77 C 212.00 125.58 221.09 114.30 218.81 103.46 C 217.26 92.48 204.94 84.83 194.41 88.44 M 261.42 88.58 C 251.61 91.46 245.93 103.05 249.25 112.64 C 251.94 121.49 261.68 127.32 270.76 125.51 C 281.31 123.95 288.87 112.38 285.96 102.09 C 283.64 91.62 271.54 84.87 261.42 88.58 M 160.36 274.52 C 151.34 276.52 144.70 285.82 145.88 295.02 C 146.64 303.43 153.59 310.80 161.97 311.94 C 170.39 313.42 179.33 308.43 182.48 300.47 C 185.97 292.41 183.08 282.11 175.68 277.28 C 171.26 274.20 165.57 273.41 160.36 274.52 M 232.45 274.60 C 223.13 277.01 216.67 287.03 218.64 296.53 C 220.27 306.94 231.60 314.39 241.80 311.66 C 252.23 309.49 259.16 297.63 255.72 287.49 C 253.06 277.80 242.05 271.93 232.45 274.60 Z" />
  </g>
</svg>