<svg width="545" height="486" viewBox="0 0 545 486" fill="none" xmlns="http://www.w3.org/2000/svg">
<path d="M-29.6809 485.542L-22.3729 446.546C-15.065 407.55 -0.448975 329.558 47.3851 287.694C95.2192 245.831 176.271 238.949 243.372 217.157C310.472 195.365 362.957 158.663 410.791 116.226C458.625 74.3628 501.809 27.3381 523.733 3.25227L544.992 -20.2601L374.916 -203.771L348.341 -185.42C321.767 -167.069 269.282 -129.793 216.797 -93.091C164.313 -56.3888 111.164 -18.5397 58.6792 18.1626C6.19464 54.8648 -46.29 92.1404 -99.4389 129.416C-152.588 166.692 -204.408 203.394 -230.983 222.319L-257.557 240.67L-29.6809 485.542Z" fill="#5F8AFA" fill-opacity="0.149"/>
<path d="M-78.179 435.077L-68.8779 398.375C-59.5769 361.672 -40.3104 288.841 8.18808 246.978C56.6865 205.114 134.417 195.365 199.524 171.853C264.632 148.341 317.116 111.065 365.615 69.7751C414.113 28.4851 458.626 -17.9662 480.55 -40.9051L502.474 -63.8439L352.328 -225.563L325.753 -207.212C299.179 -188.861 246.694 -151.585 194.209 -114.309C142.389 -77.6073 89.2402 -40.3316 36.7556 -3.62939C-15.729 33.0728 -68.2136 70.922 -120.698 107.624C-173.183 144.326 -226.332 182.176 -252.242 200.527L-278.816 218.878L-78.179 435.077Z" fill="#5F8AFA" fill-opacity="0.749"/>
<path d="M-121.363 392.64L-112.062 355.938C-102.096 319.809 -82.8296 246.404 -34.9955 205.114C12.8386 163.824 91.2333 153.502 156.341 129.99C221.448 106.477 274.597 69.2015 322.431 27.9116C370.93 -13.3784 415.442 -59.8297 437.366 -82.7685L459.29 -105.707L309.144 -268L282.57 -249.649C255.995 -231.298 203.51 -194.022 151.026 -156.746C98.5413 -119.471 46.0567 -82.7685 -7.09232 -45.4929C-60.2413 -8.21716 -111.397 28.485 -163.882 65.1872C-216.366 101.889 -269.515 139.739 -295.426 158.09L-322 176.441L-121.363 392.64Z" fill="#5F8AFA"/>
</svg>
