<svg width="517" height="500" viewBox="0 0 517 500" fill="none" xmlns="http://www.w3.org/2000/svg">
<path d="M575.352 0.884277L568.044 39.8804C560.736 78.8765 546.12 156.869 498.286 198.732C450.452 240.596 369.4 247.477 302.299 269.269C235.199 291.061 182.714 327.763 134.88 370.2C87.0459 412.064 43.8623 459.662 21.9384 483.174L0.678711 506.687L171.42 690.771L197.994 672.42C224.569 654.069 277.053 616.793 329.538 580.091C382.023 542.815 434.507 506.113 487.656 468.838C540.805 431.562 592.625 394.86 645.774 357.584C698.923 320.308 750.744 283.606 777.318 265.255L803.893 246.904L575.352 0.884277Z" fill="#5F8AFA" fill-opacity="0.149"/>
<path d="M623.85 51.3499L614.549 88.0521C605.248 124.754 585.982 197.585 537.483 239.449C488.985 280.739 411.254 291.061 346.147 314.574C281.039 338.086 228.555 375.362 180.056 416.652C131.558 457.942 87.0457 504.393 65.1217 527.332L43.1978 550.271L193.344 712.563L219.918 694.212C246.493 675.861 298.977 638.585 351.462 601.31C403.946 564.034 456.431 527.332 509.58 490.056C562.065 452.78 614.549 416.078 667.698 378.802C720.183 341.527 772.667 304.825 799.242 285.9L825.816 267.549L623.85 51.3499Z" fill="#5F8AFA" fill-opacity="0.749"/>
<path d="M667.033 93.7868L657.732 130.489C648.431 167.191 629.165 240.022 580.666 281.886C532.168 323.176 454.437 333.498 389.33 357.01C324.222 380.523 271.738 417.799 223.239 459.089C174.741 500.379 130.229 546.83 108.305 569.769L86.3809 592.707L236.527 755L263.101 736.649C289.676 718.298 342.16 681.022 394.645 643.746C447.129 606.471 499.614 569.769 552.763 532.493C605.248 495.217 657.732 458.515 710.881 421.239C763.366 383.964 815.851 347.261 842.425 328.337L869 309.986L667.033 93.7868Z" fill="#5F8AFA"/>
</svg>
