<svg width="149" height="701" viewBox="0 0 149 701" fill="none" xmlns="http://www.w3.org/2000/svg">
<path d="M575.352 -53.1157L568.044 -14.1196C560.736 24.8765 546.12 102.869 498.286 144.732C450.452 186.596 369.4 193.477 302.299 215.269C235.199 237.061 182.714 273.763 134.88 316.2C87.0459 358.064 43.8623 405.662 21.9384 429.174L0.678711 452.687L171.42 636.771L197.994 618.42C224.569 600.069 277.053 562.793 329.538 526.091C382.023 488.815 434.507 452.113 487.656 414.838C540.805 377.562 592.625 340.86 645.774 303.584C698.923 266.308 750.744 229.606 777.318 211.255L803.893 192.904L575.352 -53.1157Z" fill="#5F8AFA" fill-opacity="0.149"/>
<path d="M623.85 -2.65016L614.549 34.0521C605.248 70.7543 585.982 143.585 537.483 185.449C488.985 226.739 411.254 237.061 346.147 260.574C281.039 284.086 228.555 321.362 180.056 362.652C131.558 403.942 87.0457 450.393 65.1217 473.332L43.1978 496.271L193.344 658.563L219.918 640.212C246.493 621.861 298.977 584.585 351.462 547.309C403.946 510.034 456.431 473.332 509.58 436.056C562.065 398.78 614.549 362.078 667.698 324.802C720.183 287.527 772.667 250.825 799.242 231.9L825.816 213.549L623.85 -2.65016Z" fill="#5F8AFA" fill-opacity="0.749"/>
<path d="M667.033 39.7868L657.732 76.489C648.431 113.191 629.165 186.022 580.666 227.886C532.168 269.176 454.437 279.498 389.33 303.01C324.222 326.523 271.738 363.799 223.239 405.088C174.741 446.379 130.229 492.83 108.305 515.769L86.3809 538.707L236.527 701L263.101 682.649C289.676 664.298 342.16 627.022 394.645 589.746C447.129 552.471 499.614 515.769 552.763 478.493C605.248 441.217 657.732 404.515 710.881 367.239C763.366 329.964 815.851 293.261 842.425 274.337L869 255.986L667.033 39.7868Z" fill="#5F8AFA"/>
</svg>
