<svg width="867" height="132" viewBox="0 0 867 132" fill="none" xmlns="http://www.w3.org/2000/svg">
<path d="M292.319 131.542L299.627 92.5461C306.935 53.55 321.551 -24.4421 369.385 -66.3056C417.219 -108.169 498.271 -115.051 565.372 -136.843C632.472 -158.635 684.957 -195.337 732.791 -237.774C780.625 -279.637 823.809 -326.662 845.733 -350.748L866.992 -374.26L696.915 -557.771L670.341 -539.42C643.766 -521.069 591.282 -483.793 538.797 -447.091C486.313 -410.389 433.164 -372.54 380.679 -335.837C328.194 -299.135 275.71 -261.86 222.561 -224.584C169.412 -187.308 117.592 -150.606 91.0171 -131.681L64.4426 -113.33L292.319 131.542Z" fill="#5F8AFA" fill-opacity="0.149"/>
<path d="M243.821 81.0767L253.122 44.3745C262.423 7.6723 281.69 -65.1587 330.188 -107.022C378.686 -148.886 456.417 -158.635 521.524 -182.147C586.632 -205.659 639.116 -242.935 687.615 -284.225C736.113 -325.515 780.626 -371.966 802.55 -394.905L824.474 -417.844L674.328 -579.563L647.753 -561.212C621.179 -542.861 568.694 -505.585 516.209 -468.309C464.389 -431.607 411.24 -394.332 358.756 -357.629C306.271 -320.927 253.786 -283.078 201.302 -246.376C148.817 -209.674 95.6682 -171.824 69.7581 -153.473L43.1836 -135.122L243.821 81.0767Z" fill="#5F8AFA" fill-opacity="0.749"/>
<path d="M200.637 38.6398L209.938 1.93756C219.904 -34.1912 239.17 -107.596 287.004 -148.886C334.839 -190.176 413.233 -200.498 478.341 -224.01C543.448 -247.523 596.597 -284.798 644.431 -326.088C692.93 -367.378 737.442 -413.83 759.366 -436.769L781.29 -459.707L631.144 -622L604.57 -603.649C577.995 -585.298 525.51 -548.022 473.026 -510.746C420.541 -473.471 368.057 -436.769 314.908 -399.493C261.759 -362.217 210.603 -325.515 158.118 -288.813C105.634 -252.111 52.4846 -214.261 26.5745 -195.91L0 -177.559L200.637 38.6398Z" fill="#5F8AFA"/>
</svg>
