<svg width="438" height="174" viewBox="0 0 438 174" fill="none" xmlns="http://www.w3.org/2000/svg">
<g clip-path="url(#clip0_3326_4077)">
<rect y="42" width="438" height="132" rx="32" fill="#F64B3C"/>
<path d="M392.939 84.9393C392.354 85.5251 392.354 86.4749 392.939 87.0607C393.525 87.6464 394.475 87.6464 395.061 87.0607L402 80.1213L408.939 87.0607C409.525 87.6465 410.475 87.6465 411.061 87.0607C411.646 86.4749 411.646 85.5251 411.061 84.9393L404.121 78L411.061 71.0607C411.646 70.4749 411.646 69.5251 411.061 68.9393C410.475 68.3536 409.525 68.3536 408.939 68.9393L402 75.8787L395.061 68.9393C394.475 68.3536 393.525 68.3536 392.939 68.9393C392.354 69.5251 392.354 70.4749 392.939 71.0607L399.879 78L392.939 84.9393Z" fill="white"/>
<path d="M143.328 99.238C141.129 99.238 139.101 98.728 137.242 97.708C135.406 96.6653 133.944 95.226 132.856 93.39C131.791 91.5313 131.258 89.446 131.258 87.134C131.258 84.822 131.791 82.748 132.856 80.912C133.944 79.076 135.406 77.648 137.242 76.628C139.101 75.5853 141.129 75.064 143.328 75.064C145.549 75.064 147.578 75.5853 149.414 76.628C151.273 77.648 152.735 79.076 153.8 80.912C154.865 82.748 155.398 84.822 155.398 87.134C155.398 89.446 154.865 91.5313 153.8 93.39C152.735 95.226 151.273 96.6653 149.414 97.708C147.578 98.728 145.549 99.238 143.328 99.238ZM143.328 95.872C144.892 95.872 146.286 95.5207 147.51 94.818C148.734 94.0927 149.686 93.0727 150.366 91.758C151.069 90.4207 151.42 88.8793 151.42 87.134C151.42 85.3887 151.069 83.8587 150.366 82.544C149.686 81.2293 148.734 80.2207 147.51 79.518C146.286 78.8153 144.892 78.464 143.328 78.464C141.764 78.464 140.37 78.8153 139.146 79.518C137.922 80.2207 136.959 81.2293 136.256 82.544C135.576 83.8587 135.236 85.3887 135.236 87.134C135.236 88.8793 135.576 90.4207 136.256 91.758C136.959 93.0727 137.922 94.0927 139.146 94.818C140.37 95.5207 141.764 95.872 143.328 95.872ZM166.148 99.306C164.38 99.306 162.782 98.9093 161.354 98.116C159.926 97.3 158.804 96.1667 157.988 94.716C157.172 93.2427 156.764 91.5427 156.764 89.616C156.764 87.712 157.183 86.0233 158.022 84.55C158.861 83.0767 160.005 81.9433 161.456 81.15C162.907 80.3567 164.527 79.96 166.318 79.96C168.109 79.96 169.729 80.3567 171.18 81.15C172.631 81.9433 173.775 83.0767 174.614 84.55C175.453 86.0233 175.872 87.712 175.872 89.616C175.872 91.52 175.441 93.2087 174.58 94.682C173.719 96.1553 172.54 97.3 171.044 98.116C169.571 98.9093 167.939 99.306 166.148 99.306ZM166.148 95.94C167.145 95.94 168.075 95.702 168.936 95.226C169.82 94.75 170.534 94.036 171.078 93.084C171.622 92.132 171.894 90.976 171.894 89.616C171.894 88.256 171.633 87.1113 171.112 86.182C170.591 85.23 169.899 84.516 169.038 84.04C168.177 83.564 167.247 83.326 166.25 83.326C165.253 83.326 164.323 83.564 163.462 84.04C162.623 84.516 161.955 85.23 161.456 86.182C160.957 87.1113 160.708 88.256 160.708 89.616C160.708 91.6333 161.218 93.1973 162.238 94.308C163.281 95.396 164.584 95.94 166.148 95.94ZM182.39 83.02C183.047 82.1587 183.942 81.4333 185.076 80.844C186.209 80.2547 187.49 79.96 188.918 79.96C190.55 79.96 192.034 80.368 193.372 81.184C194.732 81.9773 195.797 83.0993 196.568 84.55C197.338 86.0007 197.724 87.6667 197.724 89.548C197.724 91.4293 197.338 93.118 196.568 94.614C195.797 96.0873 194.732 97.2433 193.372 98.082C192.034 98.898 190.55 99.306 188.918 99.306C187.49 99.306 186.22 99.0227 185.11 98.456C183.999 97.8667 183.092 97.1413 182.39 96.28V107.908H178.514V80.266H182.39V83.02ZM193.78 89.548C193.78 88.256 193.508 87.1453 192.964 86.216C192.442 85.264 191.74 84.55 190.856 84.074C189.994 83.5753 189.065 83.326 188.068 83.326C187.093 83.326 186.164 83.5753 185.28 84.074C184.418 84.5727 183.716 85.298 183.172 86.25C182.65 87.202 182.39 88.324 182.39 89.616C182.39 90.908 182.65 92.0413 183.172 93.016C183.716 93.968 184.418 94.6933 185.28 95.192C186.164 95.6907 187.093 95.94 188.068 95.94C189.065 95.94 189.994 95.6907 190.856 95.192C191.74 94.6707 192.442 93.9227 192.964 92.948C193.508 91.9733 193.78 90.84 193.78 89.548ZM207.167 99.306C205.693 99.306 204.367 99.0453 203.189 98.524C202.033 97.98 201.115 97.2547 200.435 96.348C199.755 95.4187 199.392 94.3873 199.347 93.254H203.359C203.427 94.0473 203.801 94.716 204.481 95.26C205.183 95.7813 206.056 96.042 207.099 96.042C208.187 96.042 209.025 95.838 209.615 95.43C210.227 94.9993 210.533 94.4553 210.533 93.798C210.533 93.0953 210.193 92.574 209.513 92.234C208.855 91.894 207.801 91.52 206.351 91.112C204.945 90.7267 203.801 90.3527 202.917 89.99C202.033 89.6273 201.262 89.072 200.605 88.324C199.97 87.576 199.653 86.59 199.653 85.366C199.653 84.3687 199.947 83.462 200.537 82.646C201.126 81.8073 201.965 81.15 203.053 80.674C204.163 80.198 205.433 79.96 206.861 79.96C208.991 79.96 210.703 80.504 211.995 81.592C213.309 82.6573 214.012 84.1193 214.103 85.978H210.227C210.159 85.1393 209.819 84.4707 209.207 83.972C208.595 83.4733 207.767 83.224 206.725 83.224C205.705 83.224 204.923 83.4167 204.379 83.802C203.835 84.1873 203.563 84.6973 203.563 85.332C203.563 85.8307 203.744 86.25 204.107 86.59C204.469 86.93 204.911 87.202 205.433 87.406C205.954 87.5873 206.725 87.8253 207.745 88.12C209.105 88.4827 210.215 88.8567 211.077 89.242C211.961 89.6047 212.72 90.1487 213.355 90.874C213.989 91.5993 214.318 92.5627 214.341 93.764C214.341 94.8293 214.046 95.7813 213.457 96.62C212.867 97.4587 212.029 98.116 210.941 98.592C209.875 99.068 208.617 99.306 207.167 99.306ZM222.201 75.37L221.759 91.86H218.529L218.087 75.37H222.201ZM220.263 99.238C219.56 99.238 218.971 99 218.495 98.524C218.019 98.048 217.781 97.4587 217.781 96.756C217.781 96.0533 218.019 95.464 218.495 94.988C218.971 94.512 219.56 94.274 220.263 94.274C220.943 94.274 221.521 94.512 221.997 94.988C222.473 95.464 222.711 96.0533 222.711 96.756C222.711 97.4587 222.473 98.048 221.997 98.524C221.521 99 220.943 99.238 220.263 99.238Z" fill="white"/>
<path d="M134.172 125.098C133.528 125.098 132.949 124.986 132.436 124.762C131.932 124.529 131.535 124.211 131.246 123.81C130.957 123.399 130.807 122.928 130.798 122.396H132.156C132.203 122.853 132.389 123.241 132.716 123.558C133.052 123.866 133.537 124.02 134.172 124.02C134.779 124.02 135.255 123.871 135.6 123.572C135.955 123.264 136.132 122.872 136.132 122.396C136.132 122.023 136.029 121.719 135.824 121.486C135.619 121.253 135.362 121.075 135.054 120.954C134.746 120.833 134.331 120.702 133.808 120.562C133.164 120.394 132.646 120.226 132.254 120.058C131.871 119.89 131.54 119.629 131.26 119.274C130.989 118.91 130.854 118.425 130.854 117.818C130.854 117.286 130.989 116.815 131.26 116.404C131.531 115.993 131.909 115.676 132.394 115.452C132.889 115.228 133.453 115.116 134.088 115.116C135.003 115.116 135.749 115.345 136.328 115.802C136.916 116.259 137.247 116.866 137.322 117.622H135.922C135.875 117.249 135.679 116.922 135.334 116.642C134.989 116.353 134.531 116.208 133.962 116.208C133.43 116.208 132.996 116.348 132.66 116.628C132.324 116.899 132.156 117.281 132.156 117.776C132.156 118.131 132.254 118.42 132.45 118.644C132.655 118.868 132.903 119.041 133.192 119.162C133.491 119.274 133.906 119.405 134.438 119.554C135.082 119.731 135.6 119.909 135.992 120.086C136.384 120.254 136.72 120.52 137 120.884C137.28 121.239 137.42 121.724 137.42 122.34C137.42 122.816 137.294 123.264 137.042 123.684C136.79 124.104 136.417 124.445 135.922 124.706C135.427 124.967 134.844 125.098 134.172 125.098ZM142.921 125.126C142.202 125.126 141.549 124.963 140.961 124.636C140.382 124.309 139.925 123.847 139.589 123.25C139.262 122.643 139.099 121.943 139.099 121.15C139.099 120.366 139.267 119.675 139.603 119.078C139.948 118.471 140.415 118.009 141.003 117.692C141.591 117.365 142.249 117.202 142.977 117.202C143.705 117.202 144.363 117.365 144.951 117.692C145.539 118.009 146.001 118.467 146.337 119.064C146.682 119.661 146.855 120.357 146.855 121.15C146.855 121.943 146.677 122.643 146.323 123.25C145.977 123.847 145.506 124.309 144.909 124.636C144.311 124.963 143.649 125.126 142.921 125.126ZM142.921 124.006C143.378 124.006 143.807 123.899 144.209 123.684C144.61 123.469 144.932 123.147 145.175 122.718C145.427 122.289 145.553 121.766 145.553 121.15C145.553 120.534 145.431 120.011 145.189 119.582C144.946 119.153 144.629 118.835 144.237 118.63C143.845 118.415 143.42 118.308 142.963 118.308C142.496 118.308 142.067 118.415 141.675 118.63C141.292 118.835 140.984 119.153 140.751 119.582C140.517 120.011 140.401 120.534 140.401 121.15C140.401 121.775 140.513 122.303 140.737 122.732C140.97 123.161 141.278 123.483 141.661 123.698C142.043 123.903 142.463 124.006 142.921 124.006ZM158.036 117.188C158.633 117.188 159.165 117.314 159.632 117.566C160.099 117.809 160.467 118.177 160.738 118.672C161.009 119.167 161.144 119.769 161.144 120.478V125H159.884V120.66C159.884 119.895 159.693 119.311 159.31 118.91C158.937 118.499 158.428 118.294 157.784 118.294C157.121 118.294 156.594 118.509 156.202 118.938C155.81 119.358 155.614 119.969 155.614 120.772V125H154.354V120.66C154.354 119.895 154.163 119.311 153.78 118.91C153.407 118.499 152.898 118.294 152.254 118.294C151.591 118.294 151.064 118.509 150.672 118.938C150.28 119.358 150.084 119.969 150.084 120.772V125H148.81V117.328H150.084V118.434C150.336 118.033 150.672 117.725 151.092 117.51C151.521 117.295 151.993 117.188 152.506 117.188C153.15 117.188 153.719 117.333 154.214 117.622C154.709 117.911 155.077 118.336 155.32 118.896C155.535 118.355 155.889 117.935 156.384 117.636C156.879 117.337 157.429 117.188 158.036 117.188ZM170.514 120.87C170.514 121.113 170.5 121.369 170.472 121.64H164.34C164.386 122.396 164.643 122.989 165.11 123.418C165.586 123.838 166.16 124.048 166.832 124.048C167.382 124.048 167.84 123.922 168.204 123.67C168.577 123.409 168.838 123.063 168.988 122.634H170.36C170.154 123.371 169.744 123.973 169.128 124.44C168.512 124.897 167.746 125.126 166.832 125.126C166.104 125.126 165.45 124.963 164.872 124.636C164.302 124.309 163.854 123.847 163.528 123.25C163.201 122.643 163.038 121.943 163.038 121.15C163.038 120.357 163.196 119.661 163.514 119.064C163.831 118.467 164.274 118.009 164.844 117.692C165.422 117.365 166.085 117.202 166.832 117.202C167.56 117.202 168.204 117.361 168.764 117.678C169.324 117.995 169.753 118.434 170.052 118.994C170.36 119.545 170.514 120.17 170.514 120.87ZM169.198 120.604C169.198 120.119 169.09 119.703 168.876 119.358C168.661 119.003 168.367 118.737 167.994 118.56C167.63 118.373 167.224 118.28 166.776 118.28C166.132 118.28 165.581 118.485 165.124 118.896C164.676 119.307 164.419 119.876 164.354 120.604H169.198ZM174.029 118.378V122.9C174.029 123.273 174.109 123.539 174.267 123.698C174.426 123.847 174.701 123.922 175.093 123.922H176.031V125H174.883C174.174 125 173.642 124.837 173.287 124.51C172.933 124.183 172.755 123.647 172.755 122.9V118.378H171.761V117.328H172.755V115.396H174.029V117.328H176.031V118.378H174.029ZM181.663 117.188C182.242 117.188 182.764 117.314 183.231 117.566C183.698 117.809 184.062 118.177 184.323 118.672C184.594 119.167 184.729 119.769 184.729 120.478V125H183.469V120.66C183.469 119.895 183.278 119.311 182.895 118.91C182.512 118.499 181.99 118.294 181.327 118.294C180.655 118.294 180.118 118.504 179.717 118.924C179.325 119.344 179.129 119.955 179.129 120.758V125H177.855V114.64H179.129V118.42C179.381 118.028 179.726 117.725 180.165 117.51C180.613 117.295 181.112 117.188 181.663 117.188ZM187.748 116.082C187.505 116.082 187.3 115.998 187.132 115.83C186.964 115.662 186.88 115.457 186.88 115.214C186.88 114.971 186.964 114.766 187.132 114.598C187.3 114.43 187.505 114.346 187.748 114.346C187.981 114.346 188.177 114.43 188.336 114.598C188.504 114.766 188.588 114.971 188.588 115.214C188.588 115.457 188.504 115.662 188.336 115.83C188.177 115.998 187.981 116.082 187.748 116.082ZM188.364 117.328V125H187.09V117.328H188.364ZM194.553 117.188C195.487 117.188 196.243 117.473 196.821 118.042C197.4 118.602 197.689 119.414 197.689 120.478V125H196.429V120.66C196.429 119.895 196.238 119.311 195.855 118.91C195.473 118.499 194.95 118.294 194.287 118.294C193.615 118.294 193.079 118.504 192.677 118.924C192.285 119.344 192.089 119.955 192.089 120.758V125H190.815V117.328H192.089V118.42C192.341 118.028 192.682 117.725 193.111 117.51C193.55 117.295 194.031 117.188 194.553 117.188ZM203.214 117.202C203.877 117.202 204.456 117.347 204.95 117.636C205.454 117.925 205.828 118.289 206.07 118.728V117.328H207.358V125.168C207.358 125.868 207.209 126.489 206.91 127.03C206.612 127.581 206.182 128.01 205.622 128.318C205.072 128.626 204.428 128.78 203.69 128.78C202.682 128.78 201.842 128.542 201.17 128.066C200.498 127.59 200.102 126.941 199.98 126.12H201.24C201.38 126.587 201.67 126.96 202.108 127.24C202.547 127.529 203.074 127.674 203.69 127.674C204.39 127.674 204.96 127.455 205.398 127.016C205.846 126.577 206.07 125.961 206.07 125.168V123.558C205.818 124.006 205.445 124.379 204.95 124.678C204.456 124.977 203.877 125.126 203.214 125.126C202.533 125.126 201.912 124.958 201.352 124.622C200.802 124.286 200.368 123.815 200.05 123.208C199.733 122.601 199.574 121.911 199.574 121.136C199.574 120.352 199.733 119.666 200.05 119.078C200.368 118.481 200.802 118.019 201.352 117.692C201.912 117.365 202.533 117.202 203.214 117.202ZM206.07 121.15C206.07 120.571 205.954 120.067 205.72 119.638C205.487 119.209 205.17 118.882 204.768 118.658C204.376 118.425 203.942 118.308 203.466 118.308C202.99 118.308 202.556 118.42 202.164 118.644C201.772 118.868 201.46 119.195 201.226 119.624C200.993 120.053 200.876 120.557 200.876 121.136C200.876 121.724 200.993 122.237 201.226 122.676C201.46 123.105 201.772 123.437 202.164 123.67C202.556 123.894 202.99 124.006 203.466 124.006C203.942 124.006 204.376 123.894 204.768 123.67C205.17 123.437 205.487 123.105 205.72 122.676C205.954 122.237 206.07 121.729 206.07 121.15ZM224.024 117.328L221.63 125H220.314L218.466 118.91L216.618 125H215.302L212.894 117.328H214.196L215.96 123.768L217.864 117.328H219.166L221.028 123.782L222.764 117.328H224.024ZM232.568 120.87C232.568 121.113 232.554 121.369 232.526 121.64H226.394C226.441 122.396 226.697 122.989 227.164 123.418C227.64 123.838 228.214 124.048 228.886 124.048C229.437 124.048 229.894 123.922 230.258 123.67C230.631 123.409 230.893 123.063 231.042 122.634H232.414C232.209 123.371 231.798 123.973 231.182 124.44C230.566 124.897 229.801 125.126 228.886 125.126C228.158 125.126 227.505 124.963 226.926 124.636C226.357 124.309 225.909 123.847 225.582 123.25C225.255 122.643 225.092 121.943 225.092 121.15C225.092 120.357 225.251 119.661 225.568 119.064C225.885 118.467 226.329 118.009 226.898 117.692C227.477 117.365 228.139 117.202 228.886 117.202C229.614 117.202 230.258 117.361 230.818 117.678C231.378 117.995 231.807 118.434 232.106 118.994C232.414 119.545 232.568 120.17 232.568 120.87ZM231.252 120.604C231.252 120.119 231.145 119.703 230.93 119.358C230.715 119.003 230.421 118.737 230.048 118.56C229.684 118.373 229.278 118.28 228.83 118.28C228.186 118.28 227.635 118.485 227.178 118.896C226.73 119.307 226.473 119.876 226.408 120.604H231.252ZM238.268 117.188C239.201 117.188 239.957 117.473 240.536 118.042C241.114 118.602 241.404 119.414 241.404 120.478V125H240.144V120.66C240.144 119.895 239.952 119.311 239.57 118.91C239.187 118.499 238.664 118.294 238.002 118.294C237.33 118.294 236.793 118.504 236.392 118.924C236 119.344 235.804 119.955 235.804 120.758V125H234.53V117.328H235.804V118.42C236.056 118.028 236.396 117.725 236.826 117.51C237.264 117.295 237.745 117.188 238.268 117.188ZM245.319 118.378V122.9C245.319 123.273 245.398 123.539 245.557 123.698C245.716 123.847 245.991 123.922 246.383 123.922H247.321V125H246.173C245.464 125 244.932 124.837 244.577 124.51C244.222 124.183 244.045 123.647 244.045 122.9V118.378H243.051V117.328H244.045V115.396H245.319V117.328H247.321V118.378H245.319ZM263.377 117.328L260.983 125H259.667L257.819 118.91L255.971 125H254.655L252.247 117.328H253.549L255.313 123.768L257.217 117.328H258.519L260.381 123.782L262.117 117.328H263.377ZM266.195 118.574C266.419 118.135 266.737 117.795 267.147 117.552C267.567 117.309 268.076 117.188 268.673 117.188V118.504H268.337C266.909 118.504 266.195 119.279 266.195 120.828V125H264.921V117.328H266.195V118.574ZM273.77 125.126C273.051 125.126 272.398 124.963 271.81 124.636C271.231 124.309 270.774 123.847 270.438 123.25C270.111 122.643 269.948 121.943 269.948 121.15C269.948 120.366 270.116 119.675 270.452 119.078C270.797 118.471 271.264 118.009 271.852 117.692C272.44 117.365 273.098 117.202 273.826 117.202C274.554 117.202 275.212 117.365 275.8 117.692C276.388 118.009 276.85 118.467 277.186 119.064C277.531 119.661 277.704 120.357 277.704 121.15C277.704 121.943 277.527 122.643 277.172 123.25C276.827 123.847 276.355 124.309 275.758 124.636C275.161 124.963 274.498 125.126 273.77 125.126ZM273.77 124.006C274.227 124.006 274.657 123.899 275.058 123.684C275.459 123.469 275.781 123.147 276.024 122.718C276.276 122.289 276.402 121.766 276.402 121.15C276.402 120.534 276.281 120.011 276.038 119.582C275.795 119.153 275.478 118.835 275.086 118.63C274.694 118.415 274.269 118.308 273.812 118.308C273.345 118.308 272.916 118.415 272.524 118.63C272.141 118.835 271.833 119.153 271.6 119.582C271.367 120.011 271.25 120.534 271.25 121.15C271.25 121.775 271.362 122.303 271.586 122.732C271.819 123.161 272.127 123.483 272.51 123.698C272.893 123.903 273.313 124.006 273.77 124.006ZM283.397 117.188C284.33 117.188 285.086 117.473 285.665 118.042C286.244 118.602 286.533 119.414 286.533 120.478V125H285.273V120.66C285.273 119.895 285.082 119.311 284.699 118.91C284.316 118.499 283.794 118.294 283.131 118.294C282.459 118.294 281.922 118.504 281.521 118.924C281.129 119.344 280.933 119.955 280.933 120.758V125H279.659V117.328H280.933V118.42C281.185 118.028 281.526 117.725 281.955 117.51C282.394 117.295 282.874 117.188 283.397 117.188ZM292.058 117.202C292.721 117.202 293.299 117.347 293.794 117.636C294.298 117.925 294.671 118.289 294.914 118.728V117.328H296.202V125.168C296.202 125.868 296.053 126.489 295.754 127.03C295.455 127.581 295.026 128.01 294.466 128.318C293.915 128.626 293.271 128.78 292.534 128.78C291.526 128.78 290.686 128.542 290.014 128.066C289.342 127.59 288.945 126.941 288.824 126.12H290.084C290.224 126.587 290.513 126.96 290.952 127.24C291.391 127.529 291.918 127.674 292.534 127.674C293.234 127.674 293.803 127.455 294.242 127.016C294.69 126.577 294.914 125.961 294.914 125.168V123.558C294.662 124.006 294.289 124.379 293.794 124.678C293.299 124.977 292.721 125.126 292.058 125.126C291.377 125.126 290.756 124.958 290.196 124.622C289.645 124.286 289.211 123.815 288.894 123.208C288.577 122.601 288.418 121.911 288.418 121.136C288.418 120.352 288.577 119.666 288.894 119.078C289.211 118.481 289.645 118.019 290.196 117.692C290.756 117.365 291.377 117.202 292.058 117.202ZM294.914 121.15C294.914 120.571 294.797 120.067 294.564 119.638C294.331 119.209 294.013 118.882 293.612 118.658C293.22 118.425 292.786 118.308 292.31 118.308C291.834 118.308 291.4 118.42 291.008 118.644C290.616 118.868 290.303 119.195 290.07 119.624C289.837 120.053 289.72 120.557 289.72 121.136C289.72 121.724 289.837 122.237 290.07 122.676C290.303 123.105 290.616 123.437 291.008 123.67C291.4 123.894 291.834 124.006 292.31 124.006C292.786 124.006 293.22 123.894 293.612 123.67C294.013 123.437 294.331 123.105 294.564 122.676C294.797 122.237 294.914 121.729 294.914 121.15ZM299.041 125.084C298.798 125.084 298.593 125 298.425 124.832C298.257 124.664 298.173 124.459 298.173 124.216C298.173 123.973 298.257 123.768 298.425 123.6C298.593 123.432 298.798 123.348 299.041 123.348C299.274 123.348 299.47 123.432 299.629 123.6C299.797 123.768 299.881 123.973 299.881 124.216C299.881 124.459 299.797 124.664 299.629 124.832C299.47 125 299.274 125.084 299.041 125.084ZM312.391 118.098C312.391 118.91 312.111 119.587 311.551 120.128C311 120.66 310.156 120.926 309.017 120.926H307.141V125H305.867V115.242H309.017C310.118 115.242 310.954 115.508 311.523 116.04C312.102 116.572 312.391 117.258 312.391 118.098ZM309.017 119.876C309.726 119.876 310.249 119.722 310.585 119.414C310.921 119.106 311.089 118.667 311.089 118.098C311.089 116.894 310.398 116.292 309.017 116.292H307.141V119.876H309.017ZM315.528 114.64V125H314.254V114.64H315.528ZM324.98 120.87C324.98 121.113 324.966 121.369 324.938 121.64H318.806C318.852 122.396 319.109 122.989 319.576 123.418C320.052 123.838 320.626 124.048 321.298 124.048C321.848 124.048 322.306 123.922 322.67 123.67C323.043 123.409 323.304 123.063 323.454 122.634H324.826C324.62 123.371 324.21 123.973 323.594 124.44C322.978 124.897 322.212 125.126 321.298 125.126C320.57 125.126 319.916 124.963 319.338 124.636C318.768 124.309 318.32 123.847 317.994 123.25C317.667 122.643 317.504 121.943 317.504 121.15C317.504 120.357 317.662 119.661 317.98 119.064C318.297 118.467 318.74 118.009 319.31 117.692C319.888 117.365 320.551 117.202 321.298 117.202C322.026 117.202 322.67 117.361 323.23 117.678C323.79 117.995 324.219 118.434 324.518 118.994C324.826 119.545 324.98 120.17 324.98 120.87ZM323.664 120.604C323.664 120.119 323.556 119.703 323.342 119.358C323.127 119.003 322.833 118.737 322.46 118.56C322.096 118.373 321.69 118.28 321.242 118.28C320.598 118.28 320.047 118.485 319.59 118.896C319.142 119.307 318.885 119.876 318.82 120.604H323.664ZM326.465 121.136C326.465 120.352 326.624 119.666 326.941 119.078C327.259 118.481 327.693 118.019 328.243 117.692C328.803 117.365 329.424 117.202 330.105 117.202C330.777 117.202 331.361 117.347 331.855 117.636C332.35 117.925 332.719 118.289 332.961 118.728V117.328H334.249V125H332.961V123.572C332.709 124.02 332.331 124.393 331.827 124.692C331.333 124.981 330.754 125.126 330.091 125.126C329.41 125.126 328.794 124.958 328.243 124.622C327.693 124.286 327.259 123.815 326.941 123.208C326.624 122.601 326.465 121.911 326.465 121.136ZM332.961 121.15C332.961 120.571 332.845 120.067 332.611 119.638C332.378 119.209 332.061 118.882 331.659 118.658C331.267 118.425 330.833 118.308 330.357 118.308C329.881 118.308 329.447 118.42 329.055 118.644C328.663 118.868 328.351 119.195 328.117 119.624C327.884 120.053 327.767 120.557 327.767 121.136C327.767 121.724 327.884 122.237 328.117 122.676C328.351 123.105 328.663 123.437 329.055 123.67C329.447 123.894 329.881 124.006 330.357 124.006C330.833 124.006 331.267 123.894 331.659 123.67C332.061 123.437 332.378 123.105 332.611 122.676C332.845 122.237 332.961 121.729 332.961 121.15ZM339.398 125.126C338.81 125.126 338.283 125.028 337.816 124.832C337.35 124.627 336.981 124.347 336.71 123.992C336.44 123.628 336.29 123.213 336.262 122.746H337.578C337.616 123.129 337.793 123.441 338.11 123.684C338.437 123.927 338.862 124.048 339.384 124.048C339.87 124.048 340.252 123.941 340.532 123.726C340.812 123.511 340.952 123.241 340.952 122.914C340.952 122.578 340.803 122.331 340.504 122.172C340.206 122.004 339.744 121.841 339.118 121.682C338.549 121.533 338.082 121.383 337.718 121.234C337.364 121.075 337.056 120.847 336.794 120.548C336.542 120.24 336.416 119.839 336.416 119.344C336.416 118.952 336.533 118.593 336.766 118.266C337 117.939 337.331 117.683 337.76 117.496C338.19 117.3 338.68 117.202 339.23 117.202C340.08 117.202 340.766 117.417 341.288 117.846C341.811 118.275 342.091 118.863 342.128 119.61H340.854C340.826 119.209 340.663 118.887 340.364 118.644C340.075 118.401 339.683 118.28 339.188 118.28C338.731 118.28 338.367 118.378 338.096 118.574C337.826 118.77 337.69 119.027 337.69 119.344C337.69 119.596 337.77 119.806 337.928 119.974C338.096 120.133 338.302 120.263 338.544 120.366C338.796 120.459 339.142 120.567 339.58 120.688C340.131 120.837 340.579 120.987 340.924 121.136C341.27 121.276 341.564 121.491 341.806 121.78C342.058 122.069 342.189 122.447 342.198 122.914C342.198 123.334 342.082 123.712 341.848 124.048C341.615 124.384 341.284 124.65 340.854 124.846C340.434 125.033 339.949 125.126 339.398 125.126ZM351.277 120.87C351.277 121.113 351.263 121.369 351.235 121.64H345.103C345.149 122.396 345.406 122.989 345.873 123.418C346.349 123.838 346.923 124.048 347.595 124.048C348.145 124.048 348.603 123.922 348.967 123.67C349.34 123.409 349.601 123.063 349.751 122.634H351.123C350.917 123.371 350.507 123.973 349.891 124.44C349.275 124.897 348.509 125.126 347.595 125.126C346.867 125.126 346.213 124.963 345.635 124.636C345.065 124.309 344.617 123.847 344.291 123.25C343.964 122.643 343.801 121.943 343.801 121.15C343.801 120.357 343.959 119.661 344.277 119.064C344.594 118.467 345.037 118.009 345.607 117.692C346.185 117.365 346.848 117.202 347.595 117.202C348.323 117.202 348.967 117.361 349.527 117.678C350.087 117.995 350.516 118.434 350.815 118.994C351.123 119.545 351.277 120.17 351.277 120.87ZM349.961 120.604C349.961 120.119 349.853 119.703 349.639 119.358C349.424 119.003 349.13 118.737 348.757 118.56C348.393 118.373 347.987 118.28 347.539 118.28C346.895 118.28 346.344 118.485 345.887 118.896C345.439 119.307 345.182 119.876 345.117 120.604H349.961ZM132.632 136.378V140.9C132.632 141.273 132.711 141.539 132.87 141.698C133.029 141.847 133.304 141.922 133.696 141.922H134.634V143H133.486C132.777 143 132.245 142.837 131.89 142.51C131.535 142.183 131.358 141.647 131.358 140.9V136.378H130.364V135.328H131.358V133.396H132.632V135.328H134.634V136.378H132.632ZM137.732 136.574C137.956 136.135 138.273 135.795 138.684 135.552C139.104 135.309 139.612 135.188 140.21 135.188V136.504H139.874C138.446 136.504 137.732 137.279 137.732 138.828V143H136.458V135.328H137.732V136.574ZM148.568 135.328L143.948 146.612H142.632L144.144 142.916L141.05 135.328H142.464L144.872 141.544L147.252 135.328H148.568ZM153.665 139.136C153.665 138.352 153.824 137.666 154.141 137.078C154.459 136.481 154.893 136.019 155.443 135.692C156.003 135.365 156.624 135.202 157.305 135.202C157.977 135.202 158.561 135.347 159.055 135.636C159.55 135.925 159.919 136.289 160.161 136.728V135.328H161.449V143H160.161V141.572C159.909 142.02 159.531 142.393 159.027 142.692C158.533 142.981 157.954 143.126 157.291 143.126C156.61 143.126 155.994 142.958 155.443 142.622C154.893 142.286 154.459 141.815 154.141 141.208C153.824 140.601 153.665 139.911 153.665 139.136ZM160.161 139.15C160.161 138.571 160.045 138.067 159.811 137.638C159.578 137.209 159.261 136.882 158.859 136.658C158.467 136.425 158.033 136.308 157.557 136.308C157.081 136.308 156.647 136.42 156.255 136.644C155.863 136.868 155.551 137.195 155.317 137.624C155.084 138.053 154.967 138.557 154.967 139.136C154.967 139.724 155.084 140.237 155.317 140.676C155.551 141.105 155.863 141.437 156.255 141.67C156.647 141.894 157.081 142.006 157.557 142.006C158.033 142.006 158.467 141.894 158.859 141.67C159.261 141.437 159.578 141.105 159.811 140.676C160.045 140.237 160.161 139.729 160.161 139.15ZM167.046 135.202C167.709 135.202 168.288 135.347 168.782 135.636C169.286 135.925 169.66 136.289 169.902 136.728V135.328H171.19V143.168C171.19 143.868 171.041 144.489 170.742 145.03C170.444 145.581 170.014 146.01 169.454 146.318C168.904 146.626 168.26 146.78 167.522 146.78C166.514 146.78 165.674 146.542 165.002 146.066C164.33 145.59 163.934 144.941 163.812 144.12H165.072C165.212 144.587 165.502 144.96 165.94 145.24C166.379 145.529 166.906 145.674 167.522 145.674C168.222 145.674 168.792 145.455 169.23 145.016C169.678 144.577 169.902 143.961 169.902 143.168V141.558C169.65 142.006 169.277 142.379 168.782 142.678C168.288 142.977 167.709 143.126 167.046 143.126C166.365 143.126 165.744 142.958 165.184 142.622C164.634 142.286 164.2 141.815 163.882 141.208C163.565 140.601 163.406 139.911 163.406 139.136C163.406 138.352 163.565 137.666 163.882 137.078C164.2 136.481 164.634 136.019 165.184 135.692C165.744 135.365 166.365 135.202 167.046 135.202ZM169.902 139.15C169.902 138.571 169.786 138.067 169.552 137.638C169.319 137.209 169.002 136.882 168.6 136.658C168.208 136.425 167.774 136.308 167.298 136.308C166.822 136.308 166.388 136.42 165.996 136.644C165.604 136.868 165.292 137.195 165.058 137.624C164.825 138.053 164.708 138.557 164.708 139.136C164.708 139.724 164.825 140.237 165.058 140.676C165.292 141.105 165.604 141.437 165.996 141.67C166.388 141.894 166.822 142.006 167.298 142.006C167.774 142.006 168.208 141.894 168.6 141.67C169.002 141.437 169.319 141.105 169.552 140.676C169.786 140.237 169.902 139.729 169.902 139.15ZM173.147 139.136C173.147 138.352 173.306 137.666 173.623 137.078C173.941 136.481 174.375 136.019 174.925 135.692C175.485 135.365 176.106 135.202 176.787 135.202C177.459 135.202 178.043 135.347 178.537 135.636C179.032 135.925 179.401 136.289 179.643 136.728V135.328H180.931V143H179.643V141.572C179.391 142.02 179.013 142.393 178.509 142.692C178.015 142.981 177.436 143.126 176.773 143.126C176.092 143.126 175.476 142.958 174.925 142.622C174.375 142.286 173.941 141.815 173.623 141.208C173.306 140.601 173.147 139.911 173.147 139.136ZM179.643 139.15C179.643 138.571 179.527 138.067 179.293 137.638C179.06 137.209 178.743 136.882 178.341 136.658C177.949 136.425 177.515 136.308 177.039 136.308C176.563 136.308 176.129 136.42 175.737 136.644C175.345 136.868 175.033 137.195 174.799 137.624C174.566 138.053 174.449 138.557 174.449 139.136C174.449 139.724 174.566 140.237 174.799 140.676C175.033 141.105 175.345 141.437 175.737 141.67C176.129 141.894 176.563 142.006 177.039 142.006C177.515 142.006 177.949 141.894 178.341 141.67C178.743 141.437 179.06 141.105 179.293 140.676C179.527 140.237 179.643 139.729 179.643 139.15ZM184.022 134.082C183.78 134.082 183.574 133.998 183.406 133.83C183.238 133.662 183.154 133.457 183.154 133.214C183.154 132.971 183.238 132.766 183.406 132.598C183.574 132.43 183.78 132.346 184.022 132.346C184.256 132.346 184.452 132.43 184.61 132.598C184.778 132.766 184.862 132.971 184.862 133.214C184.862 133.457 184.778 133.662 184.61 133.83C184.452 133.998 184.256 134.082 184.022 134.082ZM184.638 135.328V143H183.364V135.328H184.638ZM190.827 135.188C191.761 135.188 192.517 135.473 193.095 136.042C193.674 136.602 193.963 137.414 193.963 138.478V143H192.703V138.66C192.703 137.895 192.512 137.311 192.129 136.91C191.747 136.499 191.224 136.294 190.561 136.294C189.889 136.294 189.353 136.504 188.951 136.924C188.559 137.344 188.363 137.955 188.363 138.758V143H187.089V135.328H188.363V136.42C188.615 136.028 188.956 135.725 189.385 135.51C189.824 135.295 190.305 135.188 190.827 135.188ZM196.731 143.084C196.488 143.084 196.283 143 196.115 142.832C195.947 142.664 195.863 142.459 195.863 142.216C195.863 141.973 195.947 141.768 196.115 141.6C196.283 141.432 196.488 141.348 196.731 141.348C196.964 141.348 197.16 141.432 197.319 141.6C197.487 141.768 197.571 141.973 197.571 142.216C197.571 142.459 197.487 142.664 197.319 142.832C197.16 143 196.964 143.084 196.731 143.084ZM206.65 143.098C206.006 143.098 205.428 142.986 204.914 142.762C204.41 142.529 204.014 142.211 203.724 141.81C203.435 141.399 203.286 140.928 203.276 140.396H204.634C204.681 140.853 204.868 141.241 205.194 141.558C205.53 141.866 206.016 142.02 206.65 142.02C207.257 142.02 207.733 141.871 208.078 141.572C208.433 141.264 208.61 140.872 208.61 140.396C208.61 140.023 208.508 139.719 208.302 139.486C208.097 139.253 207.84 139.075 207.532 138.954C207.224 138.833 206.809 138.702 206.286 138.562C205.642 138.394 205.124 138.226 204.732 138.058C204.35 137.89 204.018 137.629 203.738 137.274C203.468 136.91 203.332 136.425 203.332 135.818C203.332 135.286 203.468 134.815 203.738 134.404C204.009 133.993 204.387 133.676 204.872 133.452C205.367 133.228 205.932 133.116 206.566 133.116C207.481 133.116 208.228 133.345 208.806 133.802C209.394 134.259 209.726 134.866 209.8 135.622H208.4C208.354 135.249 208.158 134.922 207.812 134.642C207.467 134.353 207.01 134.208 206.44 134.208C205.908 134.208 205.474 134.348 205.138 134.628C204.802 134.899 204.634 135.281 204.634 135.776C204.634 136.131 204.732 136.42 204.928 136.644C205.134 136.868 205.381 137.041 205.67 137.162C205.969 137.274 206.384 137.405 206.916 137.554C207.56 137.731 208.078 137.909 208.47 138.086C208.862 138.254 209.198 138.52 209.478 138.884C209.758 139.239 209.898 139.724 209.898 140.34C209.898 140.816 209.772 141.264 209.52 141.684C209.268 142.104 208.895 142.445 208.4 142.706C207.906 142.967 207.322 143.098 206.65 143.098ZM218.857 135.328V143H217.583V141.866C217.341 142.258 217 142.566 216.561 142.79C216.132 143.005 215.656 143.112 215.133 143.112C214.536 143.112 213.999 142.991 213.523 142.748C213.047 142.496 212.669 142.123 212.389 141.628C212.119 141.133 211.983 140.531 211.983 139.822V135.328H213.243V139.654C213.243 140.41 213.435 140.993 213.817 141.404C214.2 141.805 214.723 142.006 215.385 142.006C216.067 142.006 216.603 141.796 216.995 141.376C217.387 140.956 217.583 140.345 217.583 139.542V135.328H218.857ZM222.562 136.742C222.814 136.303 223.188 135.939 223.682 135.65C224.186 135.351 224.77 135.202 225.432 135.202C226.114 135.202 226.73 135.365 227.28 135.692C227.84 136.019 228.279 136.481 228.596 137.078C228.914 137.666 229.072 138.352 229.072 139.136C229.072 139.911 228.914 140.601 228.596 141.208C228.279 141.815 227.84 142.286 227.28 142.622C226.73 142.958 226.114 143.126 225.432 143.126C224.779 143.126 224.2 142.981 223.696 142.692C223.202 142.393 222.824 142.025 222.562 141.586V146.64H221.288V135.328H222.562V136.742ZM227.77 139.136C227.77 138.557 227.654 138.053 227.42 137.624C227.187 137.195 226.87 136.868 226.468 136.644C226.076 136.42 225.642 136.308 225.166 136.308C224.7 136.308 224.266 136.425 223.864 136.658C223.472 136.882 223.155 137.213 222.912 137.652C222.679 138.081 222.562 138.581 222.562 139.15C222.562 139.729 222.679 140.237 222.912 140.676C223.155 141.105 223.472 141.437 223.864 141.67C224.266 141.894 224.7 142.006 225.166 142.006C225.642 142.006 226.076 141.894 226.468 141.67C226.87 141.437 227.187 141.105 227.42 140.676C227.654 140.237 227.77 139.724 227.77 139.136ZM232.303 136.742C232.555 136.303 232.929 135.939 233.423 135.65C233.927 135.351 234.511 135.202 235.173 135.202C235.855 135.202 236.471 135.365 237.021 135.692C237.581 136.019 238.02 136.481 238.337 137.078C238.655 137.666 238.813 138.352 238.813 139.136C238.813 139.911 238.655 140.601 238.337 141.208C238.02 141.815 237.581 142.286 237.021 142.622C236.471 142.958 235.855 143.126 235.173 143.126C234.52 143.126 233.941 142.981 233.437 142.692C232.943 142.393 232.565 142.025 232.303 141.586V146.64H231.029V135.328H232.303V136.742ZM237.511 139.136C237.511 138.557 237.395 138.053 237.161 137.624C236.928 137.195 236.611 136.868 236.209 136.644C235.817 136.42 235.383 136.308 234.907 136.308C234.441 136.308 234.007 136.425 233.605 136.658C233.213 136.882 232.896 137.213 232.653 137.652C232.42 138.081 232.303 138.581 232.303 139.15C232.303 139.729 232.42 140.237 232.653 140.676C232.896 141.105 233.213 141.437 233.605 141.67C234.007 141.894 234.441 142.006 234.907 142.006C235.383 142.006 235.817 141.894 236.209 141.67C236.611 141.437 236.928 141.105 237.161 140.676C237.395 140.237 237.511 139.724 237.511 139.136ZM244.116 143.126C243.398 143.126 242.744 142.963 242.156 142.636C241.578 142.309 241.12 141.847 240.784 141.25C240.458 140.643 240.294 139.943 240.294 139.15C240.294 138.366 240.462 137.675 240.798 137.078C241.144 136.471 241.61 136.009 242.198 135.692C242.786 135.365 243.444 135.202 244.172 135.202C244.9 135.202 245.558 135.365 246.146 135.692C246.734 136.009 247.196 136.467 247.532 137.064C247.878 137.661 248.05 138.357 248.05 139.15C248.05 139.943 247.873 140.643 247.518 141.25C247.173 141.847 246.702 142.309 246.104 142.636C245.507 142.963 244.844 143.126 244.116 143.126ZM244.116 142.006C244.574 142.006 245.003 141.899 245.404 141.684C245.806 141.469 246.128 141.147 246.37 140.718C246.622 140.289 246.748 139.766 246.748 139.15C246.748 138.534 246.627 138.011 246.384 137.582C246.142 137.153 245.824 136.835 245.432 136.63C245.04 136.415 244.616 136.308 244.158 136.308C243.692 136.308 243.262 136.415 242.87 136.63C242.488 136.835 242.18 137.153 241.946 137.582C241.713 138.011 241.596 138.534 241.596 139.15C241.596 139.775 241.708 140.303 241.932 140.732C242.166 141.161 242.474 141.483 242.856 141.698C243.239 141.903 243.659 142.006 244.116 142.006ZM251.279 136.574C251.503 136.135 251.821 135.795 252.231 135.552C252.651 135.309 253.16 135.188 253.757 135.188V136.504H253.421C251.993 136.504 251.279 137.279 251.279 138.828V143H250.005V135.328H251.279V136.574ZM257.062 136.378V140.9C257.062 141.273 257.141 141.539 257.3 141.698C257.459 141.847 257.734 141.922 258.126 141.922H259.064V143H257.916C257.207 143 256.675 142.837 256.32 142.51C255.965 142.183 255.788 141.647 255.788 140.9V136.378H254.794V135.328H255.788V133.396H257.062V135.328H259.064V136.378H257.062Z" fill="white"/>
<path d="M202.478 144.4H259.526V145.1H202.478V144.4Z" fill="white"/>
<a href="https://discord.gg/QdQdHm5Tvm">
<rect fill="black" fill-opacity="0" x="72.4784" y="16.5" width="57.0475" height="21"/>
</a>
<circle cx="33.9429" cy="123.829" r="6.82918" fill="#C81912"/>
<circle cx="79" cy="114" r="13" fill="#C81912"/>
<path fill-rule="evenodd" clip-rule="evenodd" d="M32.5511 136.439C32.4191 135.778 31.9357 135.243 31.2918 135.044C30.5686 134.821 29.7827 135.065 29.3124 135.658L26.6097 139.065C24.7585 141.398 21.7904 142.502 18.8235 142.237C11.5519 141.589 4.04597 142.17 -3.42021 144.141C-37.9518 153.255 -58.5567 188.637 -49.4425 223.168C-40.3282 257.7 -4.9463 278.305 29.5853 269.191C64.1169 260.077 84.7218 224.695 75.6076 190.163C70.3813 170.362 56.5177 155.14 39.13 147.475C36.2342 146.198 34.0008 143.697 33.3809 140.593L32.5511 136.439Z" fill="#C81912"/>
<circle cx="21.5475" cy="91.5475" r="3.49096" transform="rotate(-22.0902 21.5475 91.5475)" fill="#C81912"/>
</g>
<path fill-rule="evenodd" clip-rule="evenodd" d="M67.8057 67.6794C68.1346 67.4706 68.4935 67.3124 68.8667 67.2006C83.012 62.9621 93.3202 49.8448 93.3202 34.32C93.3202 15.3656 77.9546 0 59.0002 0C40.0458 0 24.6802 15.3656 24.6802 34.32C24.6802 47.8227 32.478 59.5042 43.816 65.1068C43.8288 65.1132 43.8236 65.1326 43.8093 65.1315C43.8002 65.1308 43.7932 65.1396 43.796 65.1483L46.904 74.9903C47.6949 77.4949 50.644 78.5705 52.8616 77.1631L67.8057 67.6794Z" fill="#C81912"/>
<path d="M68.8137 27.6379C69.6421 26.8095 69.6421 25.4664 68.8137 24.638L68.3622 24.1865C67.5338 23.3581 66.1907 23.3581 65.3623 24.1865L59.0002 30.5486L52.6381 24.1865C51.8097 23.3581 50.4666 23.3581 49.6382 24.1865L49.1867 24.638C48.3583 25.4664 48.3583 26.8095 49.1867 27.6379L55.5488 34L49.1867 40.3621C48.3583 41.1905 48.3583 42.5336 49.1867 43.362L49.6382 43.8135C50.4666 44.6419 51.8097 44.6419 52.6381 43.8135L59.0002 37.4514L65.3623 43.8135C66.1907 44.6419 67.5338 44.6419 68.3622 43.8135L68.8137 43.362C69.6421 42.5336 69.6421 41.1905 68.8137 40.3621L62.4516 34L68.8137 27.6379Z" fill="white"/>
<defs>
<clipPath id="clip0_3326_4077">
<rect y="42" width="438" height="132" rx="32" fill="white"/>
</clipPath>
</defs>
</svg>
