<svg width="62" height="12" viewBox="0 0 62 12" fill="none" xmlns="http://www.w3.org/2000/svg">
<path d="M4.13672 5.6543H1.85742V4.73438H4.13672C4.57812 4.73438 4.93555 4.66406 5.20898 4.52344C5.48242 4.38281 5.68164 4.1875 5.80664 3.9375C5.93555 3.6875 6 3.40234 6 3.08203C6 2.78906 5.93555 2.51367 5.80664 2.25586C5.68164 1.99805 5.48242 1.79102 5.20898 1.63477C4.93555 1.47461 4.57812 1.39453 4.13672 1.39453H2.12109V9H0.990234V0.46875H4.13672C4.78125 0.46875 5.32617 0.580078 5.77148 0.802734C6.2168 1.02539 6.55469 1.33398 6.78516 1.72852C7.01562 2.11914 7.13086 2.56641 7.13086 3.07031C7.13086 3.61719 7.01562 4.08398 6.78516 4.4707C6.55469 4.85742 6.2168 5.15234 5.77148 5.35547C5.32617 5.55469 4.78125 5.6543 4.13672 5.6543ZM8.02734 5.90039V5.76562C8.02734 5.30859 8.09375 4.88477 8.22656 4.49414C8.35938 4.09961 8.55078 3.75781 8.80078 3.46875C9.05078 3.17578 9.35352 2.94922 9.70898 2.78906C10.0645 2.625 10.4629 2.54297 10.9043 2.54297C11.3496 2.54297 11.75 2.625 12.1055 2.78906C12.4648 2.94922 12.7695 3.17578 13.0195 3.46875C13.2734 3.75781 13.4668 4.09961 13.5996 4.49414C13.7324 4.88477 13.7988 5.30859 13.7988 5.76562V5.90039C13.7988 6.35742 13.7324 6.78125 13.5996 7.17188C13.4668 7.5625 13.2734 7.9043 13.0195 8.19727C12.7695 8.48633 12.4668 8.71289 12.1113 8.87695C11.7598 9.03711 11.3613 9.11719 10.916 9.11719C10.4707 9.11719 10.0703 9.03711 9.71484 8.87695C9.35938 8.71289 9.05469 8.48633 8.80078 8.19727C8.55078 7.9043 8.35938 7.5625 8.22656 7.17188C8.09375 6.78125 8.02734 6.35742 8.02734 5.90039ZM9.11133 5.76562V5.90039C9.11133 6.2168 9.14844 6.51562 9.22266 6.79688C9.29688 7.07422 9.4082 7.32031 9.55664 7.53516C9.70898 7.75 9.89844 7.91992 10.125 8.04492C10.3516 8.16602 10.6152 8.22656 10.916 8.22656C11.2129 8.22656 11.4727 8.16602 11.6953 8.04492C11.9219 7.91992 12.1094 7.75 12.2578 7.53516C12.4062 7.32031 12.5176 7.07422 12.5918 6.79688C12.6699 6.51562 12.709 6.2168 12.709 5.90039V5.76562C12.709 5.45312 12.6699 5.1582 12.5918 4.88086C12.5176 4.59961 12.4043 4.35156 12.252 4.13672C12.1035 3.91797 11.916 3.74609 11.6895 3.62109C11.4668 3.49609 11.2051 3.43359 10.9043 3.43359C10.6074 3.43359 10.3457 3.49609 10.1191 3.62109C9.89648 3.74609 9.70898 3.91797 9.55664 4.13672C9.4082 4.35156 9.29688 4.59961 9.22266 4.88086C9.14844 5.1582 9.11133 5.45312 9.11133 5.76562ZM16.7637 7.875L18.3926 2.66016H19.1074L18.9668 3.69727L17.3086 9H16.6113L16.7637 7.875ZM15.668 2.66016L17.0566 7.93359L17.1562 9H16.4238L14.584 2.66016H15.668ZM20.666 7.89258L21.9902 2.66016H23.0684L21.2285 9H20.502L20.666 7.89258ZM19.2656 2.66016L20.8594 7.78711L21.041 9H20.3496L18.6445 3.68555L18.5039 2.66016H19.2656ZM26.8125 9.11719C26.3711 9.11719 25.9707 9.04297 25.6113 8.89453C25.2559 8.74219 24.9492 8.5293 24.6914 8.25586C24.4375 7.98242 24.2422 7.6582 24.1055 7.2832C23.9688 6.9082 23.9004 6.49805 23.9004 6.05273V5.80664C23.9004 5.29102 23.9766 4.83203 24.1289 4.42969C24.2812 4.02344 24.4883 3.67969 24.75 3.39844C25.0117 3.11719 25.3086 2.9043 25.6406 2.75977C25.9727 2.61523 26.3164 2.54297 26.6719 2.54297C27.125 2.54297 27.5156 2.62109 27.8438 2.77734C28.1758 2.93359 28.4473 3.15234 28.6582 3.43359C28.8691 3.71094 29.0254 4.03906 29.127 4.41797C29.2285 4.79297 29.2793 5.20312 29.2793 5.64844V6.13477H24.5449V5.25H28.1953V5.16797C28.1797 4.88672 28.1211 4.61328 28.0195 4.34766C27.9219 4.08203 27.7656 3.86328 27.5508 3.69141C27.3359 3.51953 27.043 3.43359 26.6719 3.43359C26.4258 3.43359 26.1992 3.48633 25.9922 3.5918C25.7852 3.69336 25.6074 3.8457 25.459 4.04883C25.3105 4.25195 25.1953 4.5 25.1133 4.79297C25.0312 5.08594 24.9902 5.42383 24.9902 5.80664V6.05273C24.9902 6.35352 25.0312 6.63672 25.1133 6.90234C25.1992 7.16406 25.3223 7.39453 25.4824 7.59375C25.6465 7.79297 25.8438 7.94922 26.0742 8.0625C26.3086 8.17578 26.5742 8.23242 26.8711 8.23242C27.2539 8.23242 27.5781 8.1543 27.8438 7.99805C28.1094 7.8418 28.3418 7.63281 28.541 7.37109L29.1973 7.89258C29.0605 8.09961 28.8867 8.29688 28.6758 8.48438C28.4648 8.67188 28.2051 8.82422 27.8965 8.94141C27.5918 9.05859 27.2305 9.11719 26.8125 9.11719ZM31.6289 3.65625V9H30.5449V2.66016H31.5996L31.6289 3.65625ZM33.6094 2.625L33.6035 3.63281C33.5137 3.61328 33.4277 3.60156 33.3457 3.59766C33.2676 3.58984 33.1777 3.58594 33.0762 3.58594C32.8262 3.58594 32.6055 3.625 32.4141 3.70312C32.2227 3.78125 32.0605 3.89062 31.9277 4.03125C31.7949 4.17188 31.6895 4.33984 31.6113 4.53516C31.5371 4.72656 31.4883 4.9375 31.4648 5.16797L31.1602 5.34375C31.1602 4.96094 31.1973 4.60156 31.2715 4.26562C31.3496 3.92969 31.4688 3.63281 31.6289 3.375C31.7891 3.11328 31.9922 2.91016 32.2383 2.76562C32.4883 2.61719 32.7852 2.54297 33.1289 2.54297C33.207 2.54297 33.2969 2.55273 33.3984 2.57227C33.5 2.58789 33.5703 2.60547 33.6094 2.625ZM37.125 9.11719C36.6836 9.11719 36.2832 9.04297 35.9238 8.89453C35.5684 8.74219 35.2617 8.5293 35.0039 8.25586C34.75 7.98242 34.5547 7.6582 34.418 7.2832C34.2812 6.9082 34.2129 6.49805 34.2129 6.05273V5.80664C34.2129 5.29102 34.2891 4.83203 34.4414 4.42969C34.5938 4.02344 34.8008 3.67969 35.0625 3.39844C35.3242 3.11719 35.6211 2.9043 35.9531 2.75977C36.2852 2.61523 36.6289 2.54297 36.9844 2.54297C37.4375 2.54297 37.8281 2.62109 38.1562 2.77734C38.4883 2.93359 38.7598 3.15234 38.9707 3.43359C39.1816 3.71094 39.3379 4.03906 39.4395 4.41797C39.541 4.79297 39.5918 5.20312 39.5918 5.64844V6.13477H34.8574V5.25H38.5078V5.16797C38.4922 4.88672 38.4336 4.61328 38.332 4.34766C38.2344 4.08203 38.0781 3.86328 37.8633 3.69141C37.6484 3.51953 37.3555 3.43359 36.9844 3.43359C36.7383 3.43359 36.5117 3.48633 36.3047 3.5918C36.0977 3.69336 35.9199 3.8457 35.7715 4.04883C35.623 4.25195 35.5078 4.5 35.4258 4.79297C35.3438 5.08594 35.3027 5.42383 35.3027 5.80664V6.05273C35.3027 6.35352 35.3438 6.63672 35.4258 6.90234C35.5117 7.16406 35.6348 7.39453 35.7949 7.59375C35.959 7.79297 36.1562 7.94922 36.3867 8.0625C36.6211 8.17578 36.8867 8.23242 37.1836 8.23242C37.5664 8.23242 37.8906 8.1543 38.1562 7.99805C38.4219 7.8418 38.6543 7.63281 38.8535 7.37109L39.5098 7.89258C39.373 8.09961 39.1992 8.29688 38.9883 8.48438C38.7773 8.67188 38.5176 8.82422 38.209 8.94141C37.9043 9.05859 37.543 9.11719 37.125 9.11719ZM44.8535 7.76953V0H45.9434V9H44.9473L44.8535 7.76953ZM40.5879 5.90039V5.77734C40.5879 5.29297 40.6465 4.85352 40.7637 4.45898C40.8848 4.06055 41.0547 3.71875 41.2734 3.43359C41.4961 3.14844 41.7598 2.92969 42.0645 2.77734C42.373 2.62109 42.7168 2.54297 43.0957 2.54297C43.4941 2.54297 43.8418 2.61328 44.1387 2.75391C44.4395 2.89062 44.6934 3.0918 44.9004 3.35742C45.1113 3.61914 45.2773 3.93555 45.3984 4.30664C45.5195 4.67773 45.6035 5.09766 45.6504 5.56641V6.10547C45.6074 6.57031 45.5234 6.98828 45.3984 7.35938C45.2773 7.73047 45.1113 8.04688 44.9004 8.30859C44.6934 8.57031 44.4395 8.77148 44.1387 8.91211C43.8379 9.04883 43.4863 9.11719 43.084 9.11719C42.7129 9.11719 42.373 9.03711 42.0645 8.87695C41.7598 8.7168 41.4961 8.49219 41.2734 8.20312C41.0547 7.91406 40.8848 7.57422 40.7637 7.18359C40.6465 6.78906 40.5879 6.36133 40.5879 5.90039ZM41.6777 5.77734V5.90039C41.6777 6.2168 41.709 6.51367 41.7715 6.79102C41.8379 7.06836 41.9395 7.3125 42.0762 7.52344C42.2129 7.73438 42.3867 7.90039 42.5977 8.02148C42.8086 8.13867 43.0605 8.19727 43.3535 8.19727C43.7129 8.19727 44.0078 8.12109 44.2383 7.96875C44.4727 7.81641 44.6602 7.61523 44.8008 7.36523C44.9414 7.11523 45.0508 6.84375 45.1289 6.55078V5.13867C45.082 4.92383 45.0137 4.7168 44.9238 4.51758C44.8379 4.31445 44.7246 4.13477 44.584 3.97852C44.4473 3.81836 44.2773 3.69141 44.0742 3.59766C43.875 3.50391 43.6387 3.45703 43.3652 3.45703C43.0684 3.45703 42.8125 3.51953 42.5977 3.64453C42.3867 3.76562 42.2129 3.93359 42.0762 4.14844C41.9395 4.35938 41.8379 4.60547 41.7715 4.88672C41.709 5.16406 41.6777 5.46094 41.6777 5.77734ZM50.6016 0H51.6914V7.76953L51.5977 9H50.6016V0ZM55.9746 5.77734V5.90039C55.9746 6.36133 55.9199 6.78906 55.8105 7.18359C55.7012 7.57422 55.541 7.91406 55.3301 8.20312C55.1191 8.49219 54.8613 8.7168 54.5566 8.87695C54.252 9.03711 53.9023 9.11719 53.5078 9.11719C53.1055 9.11719 52.752 9.04883 52.4473 8.91211C52.1465 8.77148 51.8926 8.57031 51.6855 8.30859C51.4785 8.04688 51.3125 7.73047 51.1875 7.35938C51.0664 6.98828 50.9824 6.57031 50.9355 6.10547V5.56641C50.9824 5.09766 51.0664 4.67773 51.1875 4.30664C51.3125 3.93555 51.4785 3.61914 51.6855 3.35742C51.8926 3.0918 52.1465 2.89062 52.4473 2.75391C52.748 2.61328 53.0977 2.54297 53.4961 2.54297C53.8945 2.54297 54.248 2.62109 54.5566 2.77734C54.8652 2.92969 55.123 3.14844 55.3301 3.43359C55.541 3.71875 55.7012 4.06055 55.8105 4.45898C55.9199 4.85352 55.9746 5.29297 55.9746 5.77734ZM54.8848 5.90039V5.77734C54.8848 5.46094 54.8555 5.16406 54.7969 4.88672C54.7383 4.60547 54.6445 4.35938 54.5156 4.14844C54.3867 3.93359 54.2168 3.76562 54.0059 3.64453C53.7949 3.51953 53.5352 3.45703 53.2266 3.45703C52.9531 3.45703 52.7148 3.50391 52.5117 3.59766C52.3125 3.69141 52.1426 3.81836 52.002 3.97852C51.8613 4.13477 51.7461 4.31445 51.6562 4.51758C51.5703 4.7168 51.5059 4.92383 51.4629 5.13867V6.55078C51.5254 6.82422 51.627 7.08789 51.7676 7.3418C51.9121 7.5918 52.1035 7.79688 52.3418 7.95703C52.584 8.11719 52.8828 8.19727 53.2383 8.19727C53.5312 8.19727 53.7812 8.13867 53.9883 8.02148C54.1992 7.90039 54.3691 7.73438 54.498 7.52344C54.6309 7.3125 54.7285 7.06836 54.791 6.79102C54.8535 6.51367 54.8848 6.2168 54.8848 5.90039ZM59.0566 8.34375L60.8203 2.66016H61.9805L59.4375 9.97852C59.3789 10.1348 59.3008 10.3027 59.2031 10.4824C59.1094 10.666 58.9883 10.8398 58.8398 11.0039C58.6914 11.168 58.5117 11.3008 58.3008 11.4023C58.0938 11.5078 57.8457 11.5605 57.5566 11.5605C57.4707 11.5605 57.3613 11.5488 57.2285 11.5254C57.0957 11.502 57.002 11.4824 56.9473 11.4668L56.9414 10.5879C56.9727 10.5918 57.0215 10.5957 57.0879 10.5996C57.1582 10.6074 57.207 10.6113 57.2344 10.6113C57.4805 10.6113 57.6895 10.5781 57.8613 10.5117C58.0332 10.4492 58.1777 10.3418 58.2949 10.1895C58.416 10.041 58.5195 9.83594 58.6055 9.57422L59.0566 8.34375ZM57.7617 2.66016L59.4082 7.58203L59.6895 8.72461L58.9102 9.12305L56.5781 2.66016H57.7617Z" fill="black"/>
</svg>
