<svg width="438" height="174" viewBox="0 0 438 174" fill="none" xmlns="http://www.w3.org/2000/svg">
<g clip-path="url(#clip0_3326_3395)">
<rect y="42" width="438" height="132" rx="32" fill="#76BF4C"/>
<path d="M392.939 84.9393C392.354 85.5251 392.354 86.4749 392.939 87.0607C393.525 87.6464 394.475 87.6464 395.061 87.0607L402 80.1213L408.939 87.0607C409.525 87.6465 410.475 87.6465 411.061 87.0607C411.646 86.4749 411.646 85.5251 411.061 84.9393L404.121 78L411.061 71.0607C411.646 70.4749 411.646 69.5251 411.061 68.9393C410.475 68.3536 409.525 68.3536 408.939 68.9393L402 75.8787L395.061 68.9393C394.475 68.3536 393.525 68.3536 392.939 68.9393C392.354 69.5251 392.354 70.4749 392.939 71.0607L399.879 78L392.939 84.9393Z" fill="white"/>
<circle cx="20.6075" cy="108.295" r="9.29547" fill="#055816"/>
<circle cx="80.0986" cy="146.717" r="3.71819" fill="#055816"/>
<path d="M79.4438 110.025C82.4971 117.548 78.8737 126.122 71.3507 129.175C70.5208 129.512 69.6781 129.768 68.8315 129.946C64.1204 130.937 58.8591 132.284 56.3382 136.386C53.3951 141.174 55.0036 147.393 59.3496 150.957C68.015 158.064 75.0268 167.432 79.3829 178.619C92.9059 213.348 75.7149 252.464 40.9856 265.987C6.25636 279.51 -32.8599 262.319 -46.3829 227.59C-59.9059 192.861 -42.7149 153.745 -7.98562 140.222C7.18342 134.315 23.1894 134.268 37.5341 138.982C42.7299 140.69 48.6536 139.072 51.5174 134.413L52.5823 132.68C54.694 129.244 53.7172 124.819 52.2006 121.082C49.1473 113.559 52.7707 104.985 60.2937 101.932C67.8167 98.8789 76.3906 102.502 79.4438 110.025Z" fill="#055816"/>
<path d="M163.32 66.37L156.316 90H151.93L146.966 72.116L141.696 90L137.344 90.034L130.646 66.37H134.76L139.656 85.614L144.96 66.37H149.312L154.242 85.512L159.172 66.37H163.32ZM182.497 80.174C182.497 80.8767 182.451 81.5113 182.361 82.078H168.047C168.16 83.574 168.715 84.7753 169.713 85.682C170.71 86.5887 171.934 87.042 173.385 87.042C175.47 87.042 176.943 86.1693 177.805 84.424H181.987C181.42 86.1467 180.389 87.5633 178.893 88.674C177.419 89.762 175.583 90.306 173.385 90.306C171.594 90.306 169.985 89.9093 168.557 89.116C167.151 88.3 166.041 87.1667 165.225 85.716C164.431 84.2427 164.035 82.5427 164.035 80.616C164.035 78.6893 164.42 77.0007 165.191 75.55C165.984 74.0767 167.083 72.9433 168.489 72.15C169.917 71.3567 171.549 70.96 173.385 70.96C175.153 70.96 176.728 71.3453 178.111 72.116C179.493 72.8867 180.57 73.9747 181.341 75.38C182.111 76.7627 182.497 78.3607 182.497 80.174ZM178.451 78.95C178.428 77.522 177.918 76.3773 176.921 75.516C175.923 74.6547 174.688 74.224 173.215 74.224C171.877 74.224 170.733 74.6547 169.781 75.516C168.829 76.3547 168.262 77.4993 168.081 78.95H178.451ZM188.997 64.84V90H185.121V64.84H188.997ZM196.772 64.84V90H192.896V64.84H196.772ZM207.021 80.548C207.021 78.6667 207.406 77.0007 208.177 75.55C208.97 74.0993 210.036 72.9773 211.373 72.184C212.733 71.368 214.24 70.96 215.895 70.96C217.119 70.96 218.32 71.232 219.499 71.776C220.7 72.2973 221.652 73 222.355 73.884V64.84H226.265V90H222.355V87.178C221.72 88.0847 220.836 88.8327 219.703 89.422C218.592 90.0113 217.312 90.306 215.861 90.306C214.229 90.306 212.733 89.898 211.373 89.082C210.036 88.2433 208.97 87.0873 208.177 85.614C207.406 84.118 207.021 82.4293 207.021 80.548ZM222.355 80.616C222.355 79.324 222.083 78.202 221.539 77.25C221.018 76.298 220.326 75.5727 219.465 75.074C218.604 74.5753 217.674 74.326 216.677 74.326C215.68 74.326 214.75 74.5753 213.889 75.074C213.028 75.55 212.325 76.264 211.781 77.216C211.26 78.1453 210.999 79.256 210.999 80.548C210.999 81.84 211.26 82.9733 211.781 83.948C212.325 84.9227 213.028 85.6707 213.889 86.192C214.773 86.6907 215.702 86.94 216.677 86.94C217.674 86.94 218.604 86.6907 219.465 86.192C220.326 85.6933 221.018 84.968 221.539 84.016C222.083 83.0413 222.355 81.908 222.355 80.616ZM238.292 90.306C236.524 90.306 234.926 89.9093 233.498 89.116C232.07 88.3 230.948 87.1667 230.132 85.716C229.316 84.2427 228.908 82.5427 228.908 80.616C228.908 78.712 229.327 77.0233 230.166 75.55C231.005 74.0767 232.149 72.9433 233.6 72.15C235.051 71.3567 236.671 70.96 238.462 70.96C240.253 70.96 241.873 71.3567 243.324 72.15C244.775 72.9433 245.919 74.0767 246.758 75.55C247.597 77.0233 248.016 78.712 248.016 80.616C248.016 82.52 247.585 84.2087 246.724 85.682C245.863 87.1553 244.684 88.3 243.188 89.116C241.715 89.9093 240.083 90.306 238.292 90.306ZM238.292 86.94C239.289 86.94 240.219 86.702 241.08 86.226C241.964 85.75 242.678 85.036 243.222 84.084C243.766 83.132 244.038 81.976 244.038 80.616C244.038 79.256 243.777 78.1113 243.256 77.182C242.735 76.23 242.043 75.516 241.182 75.04C240.321 74.564 239.391 74.326 238.394 74.326C237.397 74.326 236.467 74.564 235.606 75.04C234.767 75.516 234.099 76.23 233.6 77.182C233.101 78.1113 232.852 79.256 232.852 80.616C232.852 82.6333 233.362 84.1973 234.382 85.308C235.425 86.396 236.728 86.94 238.292 86.94ZM260.109 70.96C261.583 70.96 262.897 71.266 264.053 71.878C265.232 72.49 266.15 73.3967 266.807 74.598C267.465 75.7993 267.794 77.25 267.794 78.95V90H263.951V79.528C263.951 77.8507 263.532 76.57 262.693 75.686C261.855 74.7793 260.71 74.326 259.259 74.326C257.809 74.326 256.653 74.7793 255.791 75.686C254.953 76.57 254.533 77.8507 254.533 79.528V90H250.657V71.266H254.533V73.408C255.168 72.6373 255.973 72.0367 256.947 71.606C257.945 71.1753 258.999 70.96 260.109 70.96ZM288.718 80.174C288.718 80.8767 288.672 81.5113 288.582 82.078H274.268C274.381 83.574 274.936 84.7753 275.934 85.682C276.931 86.5887 278.155 87.042 279.606 87.042C281.691 87.042 283.164 86.1693 284.026 84.424H288.208C287.641 86.1467 286.61 87.5633 285.114 88.674C283.64 89.762 281.804 90.306 279.606 90.306C277.815 90.306 276.206 89.9093 274.778 89.116C273.372 88.3 272.262 87.1667 271.446 85.716C270.652 84.2427 270.256 82.5427 270.256 80.616C270.256 78.6893 270.641 77.0007 271.412 75.55C272.205 74.0767 273.304 72.9433 274.71 72.15C276.138 71.3567 277.77 70.96 279.606 70.96C281.374 70.96 282.949 71.3453 284.332 72.116C285.714 72.8867 286.791 73.9747 287.562 75.38C288.332 76.7627 288.718 78.3607 288.718 80.174ZM284.672 78.95C284.649 77.522 284.139 76.3773 283.142 75.516C282.144 74.6547 280.909 74.224 279.436 74.224C278.098 74.224 276.954 74.6547 276.002 75.516C275.05 76.3547 274.483 77.4993 274.302 78.95H284.672ZM296.204 66.37L295.762 82.86H292.532L292.09 66.37H296.204ZM294.266 90.238C293.563 90.238 292.974 90 292.498 89.524C292.022 89.048 291.784 88.4587 291.784 87.756C291.784 87.0533 292.022 86.464 292.498 85.988C292.974 85.512 293.563 85.274 294.266 85.274C294.946 85.274 295.524 85.512 296 85.988C296.476 86.464 296.714 87.0533 296.714 87.756C296.714 88.4587 296.476 89.048 296 89.524C295.524 90 294.946 90.238 294.266 90.238Z" fill="white"/>
<path d="M143.342 106.242L140.514 116H139.086L136.818 108.146L134.466 116L133.052 116.014L130.322 106.242H131.68L133.808 114.516L136.16 106.242H137.588L139.828 114.488L141.97 106.242H143.342ZM144.54 112.136C144.54 111.352 144.699 110.666 145.016 110.078C145.334 109.481 145.768 109.019 146.318 108.692C146.878 108.365 147.499 108.202 148.18 108.202C148.852 108.202 149.436 108.347 149.93 108.636C150.425 108.925 150.794 109.289 151.036 109.728V108.328H152.324V116H151.036V114.572C150.784 115.02 150.406 115.393 149.902 115.692C149.408 115.981 148.829 116.126 148.166 116.126C147.485 116.126 146.869 115.958 146.318 115.622C145.768 115.286 145.334 114.815 145.016 114.208C144.699 113.601 144.54 112.911 144.54 112.136ZM151.036 112.15C151.036 111.571 150.92 111.067 150.686 110.638C150.453 110.209 150.136 109.882 149.734 109.658C149.342 109.425 148.908 109.308 148.432 109.308C147.956 109.308 147.522 109.42 147.13 109.644C146.738 109.868 146.426 110.195 146.192 110.624C145.959 111.053 145.842 111.557 145.842 112.136C145.842 112.724 145.959 113.237 146.192 113.676C146.426 114.105 146.738 114.437 147.13 114.67C147.522 114.894 147.956 115.006 148.432 115.006C148.908 115.006 149.342 114.894 149.734 114.67C150.136 114.437 150.453 114.105 150.686 113.676C150.92 113.237 151.036 112.729 151.036 112.15ZM156.031 105.64V116H154.757V105.64H156.031ZM159.756 105.64V116H158.482V105.64H159.756ZM169.208 111.87C169.208 112.113 169.194 112.369 169.166 112.64H163.034C163.08 113.396 163.337 113.989 163.804 114.418C164.28 114.838 164.854 115.048 165.526 115.048C166.076 115.048 166.534 114.922 166.898 114.67C167.271 114.409 167.532 114.063 167.682 113.634H169.054C168.848 114.371 168.438 114.973 167.822 115.44C167.206 115.897 166.44 116.126 165.526 116.126C164.798 116.126 164.144 115.963 163.566 115.636C162.996 115.309 162.548 114.847 162.222 114.25C161.895 113.643 161.732 112.943 161.732 112.15C161.732 111.357 161.89 110.661 162.208 110.064C162.525 109.467 162.968 109.009 163.538 108.692C164.116 108.365 164.779 108.202 165.526 108.202C166.254 108.202 166.898 108.361 167.458 108.678C168.018 108.995 168.447 109.434 168.746 109.994C169.054 110.545 169.208 111.17 169.208 111.87ZM167.892 111.604C167.892 111.119 167.784 110.703 167.57 110.358C167.355 110.003 167.061 109.737 166.688 109.56C166.324 109.373 165.918 109.28 165.47 109.28C164.826 109.28 164.275 109.485 163.818 109.896C163.37 110.307 163.113 110.876 163.048 111.604H167.892ZM172.723 109.378V113.9C172.723 114.273 172.803 114.539 172.961 114.698C173.12 114.847 173.395 114.922 173.787 114.922H174.725V116H173.577C172.868 116 172.336 115.837 171.981 115.51C171.627 115.183 171.449 114.647 171.449 113.9V109.378H170.455V108.328H171.449V106.396H172.723V108.328H174.725V109.378H172.723ZM181.219 107.082C180.977 107.082 180.771 106.998 180.603 106.83C180.435 106.662 180.351 106.457 180.351 106.214C180.351 105.971 180.435 105.766 180.603 105.598C180.771 105.43 180.977 105.346 181.219 105.346C181.453 105.346 181.649 105.43 181.807 105.598C181.975 105.766 182.059 105.971 182.059 106.214C182.059 106.457 181.975 106.662 181.807 106.83C181.649 106.998 181.453 107.082 181.219 107.082ZM181.835 108.328V116H180.561V108.328H181.835ZM187.003 116.126C186.415 116.126 185.887 116.028 185.421 115.832C184.954 115.627 184.585 115.347 184.315 114.992C184.044 114.628 183.895 114.213 183.867 113.746H185.183C185.22 114.129 185.397 114.441 185.715 114.684C186.041 114.927 186.466 115.048 186.989 115.048C187.474 115.048 187.857 114.941 188.137 114.726C188.417 114.511 188.557 114.241 188.557 113.914C188.557 113.578 188.407 113.331 188.109 113.172C187.81 113.004 187.348 112.841 186.723 112.682C186.153 112.533 185.687 112.383 185.323 112.234C184.968 112.075 184.66 111.847 184.399 111.548C184.147 111.24 184.021 110.839 184.021 110.344C184.021 109.952 184.137 109.593 184.371 109.266C184.604 108.939 184.935 108.683 185.365 108.496C185.794 108.3 186.284 108.202 186.835 108.202C187.684 108.202 188.37 108.417 188.893 108.846C189.415 109.275 189.695 109.863 189.733 110.61H188.459C188.431 110.209 188.267 109.887 187.969 109.644C187.679 109.401 187.287 109.28 186.793 109.28C186.335 109.28 185.971 109.378 185.701 109.574C185.43 109.77 185.295 110.027 185.295 110.344C185.295 110.596 185.374 110.806 185.533 110.974C185.701 111.133 185.906 111.263 186.149 111.366C186.401 111.459 186.746 111.567 187.185 111.688C187.735 111.837 188.183 111.987 188.529 112.136C188.874 112.276 189.168 112.491 189.411 112.78C189.663 113.069 189.793 113.447 189.803 113.914C189.803 114.334 189.686 114.712 189.453 115.048C189.219 115.384 188.888 115.65 188.459 115.846C188.039 116.033 187.553 116.126 187.003 116.126ZM195.418 112.15C195.418 111.357 195.576 110.666 195.894 110.078C196.211 109.481 196.65 109.019 197.21 108.692C197.779 108.365 198.428 108.202 199.156 108.202C200.098 108.202 200.873 108.431 201.48 108.888C202.096 109.345 202.502 109.98 202.698 110.792H201.326C201.195 110.325 200.938 109.957 200.556 109.686C200.182 109.415 199.716 109.28 199.156 109.28C198.428 109.28 197.84 109.532 197.392 110.036C196.944 110.531 196.72 111.235 196.72 112.15C196.72 113.074 196.944 113.788 197.392 114.292C197.84 114.796 198.428 115.048 199.156 115.048C199.716 115.048 200.182 114.917 200.556 114.656C200.929 114.395 201.186 114.021 201.326 113.536H202.698C202.492 114.32 202.082 114.95 201.466 115.426C200.85 115.893 200.08 116.126 199.156 116.126C198.428 116.126 197.779 115.963 197.21 115.636C196.65 115.309 196.211 114.847 195.894 114.25C195.576 113.653 195.418 112.953 195.418 112.15ZM208.024 116.126C207.305 116.126 206.652 115.963 206.064 115.636C205.485 115.309 205.028 114.847 204.692 114.25C204.365 113.643 204.202 112.943 204.202 112.15C204.202 111.366 204.37 110.675 204.706 110.078C205.051 109.471 205.518 109.009 206.106 108.692C206.694 108.365 207.352 108.202 208.08 108.202C208.808 108.202 209.466 108.365 210.054 108.692C210.642 109.009 211.104 109.467 211.44 110.064C211.785 110.661 211.958 111.357 211.958 112.15C211.958 112.943 211.78 113.643 211.426 114.25C211.08 114.847 210.609 115.309 210.012 115.636C209.414 115.963 208.752 116.126 208.024 116.126ZM208.024 115.006C208.481 115.006 208.91 114.899 209.312 114.684C209.713 114.469 210.035 114.147 210.278 113.718C210.53 113.289 210.656 112.766 210.656 112.15C210.656 111.534 210.534 111.011 210.292 110.582C210.049 110.153 209.732 109.835 209.34 109.63C208.948 109.415 208.523 109.308 208.066 109.308C207.599 109.308 207.17 109.415 206.778 109.63C206.395 109.835 206.087 110.153 205.854 110.582C205.62 111.011 205.504 111.534 205.504 112.15C205.504 112.775 205.616 113.303 205.84 113.732C206.073 114.161 206.381 114.483 206.764 114.698C207.146 114.903 207.566 115.006 208.024 115.006ZM217.651 108.188C218.584 108.188 219.34 108.473 219.919 109.042C220.497 109.602 220.787 110.414 220.787 111.478V116H219.527V111.66C219.527 110.895 219.335 110.311 218.953 109.91C218.57 109.499 218.047 109.294 217.385 109.294C216.713 109.294 216.176 109.504 215.775 109.924C215.383 110.344 215.187 110.955 215.187 111.758V116H213.913V108.328H215.187V109.42C215.439 109.028 215.779 108.725 216.209 108.51C216.647 108.295 217.128 108.188 217.651 108.188ZM226.886 108.188C227.819 108.188 228.575 108.473 229.154 109.042C229.732 109.602 230.022 110.414 230.022 111.478V116H228.762V111.66C228.762 110.895 228.57 110.311 228.188 109.91C227.805 109.499 227.282 109.294 226.62 109.294C225.948 109.294 225.411 109.504 225.01 109.924C224.618 110.344 224.422 110.955 224.422 111.758V116H223.148V108.328H224.422V109.42C224.674 109.028 225.014 108.725 225.444 108.51C225.882 108.295 226.363 108.188 226.886 108.188ZM239.383 111.87C239.383 112.113 239.369 112.369 239.341 112.64H233.209C233.255 113.396 233.512 113.989 233.979 114.418C234.455 114.838 235.029 115.048 235.701 115.048C236.251 115.048 236.709 114.922 237.073 114.67C237.446 114.409 237.707 114.063 237.857 113.634H239.229C239.023 114.371 238.613 114.973 237.997 115.44C237.381 115.897 236.615 116.126 235.701 116.126C234.973 116.126 234.319 115.963 233.741 115.636C233.171 115.309 232.723 114.847 232.397 114.25C232.07 113.643 231.907 112.943 231.907 112.15C231.907 111.357 232.065 110.661 232.383 110.064C232.7 109.467 233.143 109.009 233.713 108.692C234.291 108.365 234.954 108.202 235.701 108.202C236.429 108.202 237.073 108.361 237.633 108.678C238.193 108.995 238.622 109.434 238.921 109.994C239.229 110.545 239.383 111.17 239.383 111.87ZM238.067 111.604C238.067 111.119 237.959 110.703 237.745 110.358C237.53 110.003 237.236 109.737 236.863 109.56C236.499 109.373 236.093 109.28 235.645 109.28C235.001 109.28 234.45 109.485 233.993 109.896C233.545 110.307 233.288 110.876 233.223 111.604H238.067ZM240.868 112.15C240.868 111.357 241.027 110.666 241.344 110.078C241.662 109.481 242.1 109.019 242.66 108.692C243.23 108.365 243.878 108.202 244.606 108.202C245.549 108.202 246.324 108.431 246.93 108.888C247.546 109.345 247.952 109.98 248.148 110.792H246.776C246.646 110.325 246.389 109.957 246.006 109.686C245.633 109.415 245.166 109.28 244.606 109.28C243.878 109.28 243.29 109.532 242.842 110.036C242.394 110.531 242.17 111.235 242.17 112.15C242.17 113.074 242.394 113.788 242.842 114.292C243.29 114.796 243.878 115.048 244.606 115.048C245.166 115.048 245.633 114.917 246.006 114.656C246.38 114.395 246.636 114.021 246.776 113.536H248.148C247.943 114.32 247.532 114.95 246.916 115.426C246.3 115.893 245.53 116.126 244.606 116.126C243.878 116.126 243.23 115.963 242.66 115.636C242.1 115.309 241.662 114.847 241.344 114.25C241.027 113.653 240.868 112.953 240.868 112.15ZM251.682 109.378V113.9C251.682 114.273 251.762 114.539 251.92 114.698C252.079 114.847 252.354 114.922 252.746 114.922H253.684V116H252.536C251.827 116 251.295 115.837 250.94 115.51C250.586 115.183 250.408 114.647 250.408 113.9V109.378H249.414V108.328H250.408V106.396H251.682V108.328H253.684V109.378H251.682ZM262.508 111.87C262.508 112.113 262.494 112.369 262.466 112.64H256.334C256.381 113.396 256.637 113.989 257.104 114.418C257.58 114.838 258.154 115.048 258.826 115.048C259.377 115.048 259.834 114.922 260.198 114.67C260.571 114.409 260.833 114.063 260.982 113.634H262.354C262.149 114.371 261.738 114.973 261.122 115.44C260.506 115.897 259.741 116.126 258.826 116.126C258.098 116.126 257.445 115.963 256.866 115.636C256.297 115.309 255.849 114.847 255.522 114.25C255.195 113.643 255.032 112.943 255.032 112.15C255.032 111.357 255.191 110.661 255.508 110.064C255.825 109.467 256.269 109.009 256.838 108.692C257.417 108.365 258.079 108.202 258.826 108.202C259.554 108.202 260.198 108.361 260.758 108.678C261.318 108.995 261.747 109.434 262.046 109.994C262.354 110.545 262.508 111.17 262.508 111.87ZM261.192 111.604C261.192 111.119 261.085 110.703 260.87 110.358C260.655 110.003 260.361 109.737 259.988 109.56C259.624 109.373 259.218 109.28 258.77 109.28C258.126 109.28 257.575 109.485 257.118 109.896C256.67 110.307 256.413 110.876 256.348 111.604H261.192ZM263.994 112.136C263.994 111.352 264.152 110.666 264.47 110.078C264.787 109.481 265.221 109.019 265.772 108.692C266.332 108.365 266.957 108.202 267.648 108.202C268.245 108.202 268.8 108.342 269.314 108.622C269.827 108.893 270.219 109.252 270.49 109.7V105.64H271.778V116H270.49V114.558C270.238 115.015 269.864 115.393 269.37 115.692C268.875 115.981 268.296 116.126 267.634 116.126C266.952 116.126 266.332 115.958 265.772 115.622C265.221 115.286 264.787 114.815 264.47 114.208C264.152 113.601 263.994 112.911 263.994 112.136ZM270.49 112.15C270.49 111.571 270.373 111.067 270.14 110.638C269.906 110.209 269.589 109.882 269.188 109.658C268.796 109.425 268.362 109.308 267.886 109.308C267.41 109.308 266.976 109.42 266.584 109.644C266.192 109.868 265.879 110.195 265.646 110.624C265.412 111.053 265.296 111.557 265.296 112.136C265.296 112.724 265.412 113.237 265.646 113.676C265.879 114.105 266.192 114.437 266.584 114.67C266.976 114.894 267.41 115.006 267.886 115.006C268.362 115.006 268.796 114.894 269.188 114.67C269.589 114.437 269.906 114.105 270.14 113.676C270.373 113.237 270.49 112.729 270.49 112.15ZM274.617 116.084C274.374 116.084 274.169 116 274.001 115.832C273.833 115.664 273.749 115.459 273.749 115.216C273.749 114.973 273.833 114.768 274.001 114.6C274.169 114.432 274.374 114.348 274.617 114.348C274.85 114.348 275.046 114.432 275.205 114.6C275.373 114.768 275.457 114.973 275.457 115.216C275.457 115.459 275.373 115.664 275.205 115.832C275.046 116 274.85 116.084 274.617 116.084ZM137.602 127.098C137.602 127.91 137.322 128.587 136.762 129.128C136.211 129.66 135.367 129.926 134.228 129.926H132.352V134H131.078V124.242H134.228C135.329 124.242 136.165 124.508 136.734 125.04C137.313 125.572 137.602 126.258 137.602 127.098ZM134.228 128.876C134.937 128.876 135.46 128.722 135.796 128.414C136.132 128.106 136.3 127.667 136.3 127.098C136.3 125.894 135.609 125.292 134.228 125.292H132.352V128.876H134.228ZM140.739 123.64V134H139.465V123.64H140.739ZM150.191 129.87C150.191 130.113 150.177 130.369 150.149 130.64H144.017C144.063 131.396 144.32 131.989 144.787 132.418C145.263 132.838 145.837 133.048 146.509 133.048C147.059 133.048 147.517 132.922 147.881 132.67C148.254 132.409 148.515 132.063 148.665 131.634H150.037C149.831 132.371 149.421 132.973 148.805 133.44C148.189 133.897 147.423 134.126 146.509 134.126C145.781 134.126 145.127 133.963 144.549 133.636C143.979 133.309 143.531 132.847 143.205 132.25C142.878 131.643 142.715 130.943 142.715 130.15C142.715 129.357 142.873 128.661 143.191 128.064C143.508 127.467 143.951 127.009 144.521 126.692C145.099 126.365 145.762 126.202 146.509 126.202C147.237 126.202 147.881 126.361 148.441 126.678C149.001 126.995 149.43 127.434 149.729 127.994C150.037 128.545 150.191 129.17 150.191 129.87ZM148.875 129.604C148.875 129.119 148.767 128.703 148.553 128.358C148.338 128.003 148.044 127.737 147.671 127.56C147.307 127.373 146.901 127.28 146.453 127.28C145.809 127.28 145.258 127.485 144.801 127.896C144.353 128.307 144.096 128.876 144.031 129.604H148.875ZM151.676 130.136C151.676 129.352 151.835 128.666 152.152 128.078C152.47 127.481 152.904 127.019 153.454 126.692C154.014 126.365 154.635 126.202 155.316 126.202C155.988 126.202 156.572 126.347 157.066 126.636C157.561 126.925 157.93 127.289 158.172 127.728V126.328H159.46V134H158.172V132.572C157.92 133.02 157.542 133.393 157.038 133.692C156.544 133.981 155.965 134.126 155.302 134.126C154.621 134.126 154.005 133.958 153.454 133.622C152.904 133.286 152.47 132.815 152.152 132.208C151.835 131.601 151.676 130.911 151.676 130.136ZM158.172 130.15C158.172 129.571 158.056 129.067 157.822 128.638C157.589 128.209 157.272 127.882 156.87 127.658C156.478 127.425 156.044 127.308 155.568 127.308C155.092 127.308 154.658 127.42 154.266 127.644C153.874 127.868 153.562 128.195 153.328 128.624C153.095 129.053 152.978 129.557 152.978 130.136C152.978 130.724 153.095 131.237 153.328 131.676C153.562 132.105 153.874 132.437 154.266 132.67C154.658 132.894 155.092 133.006 155.568 133.006C156.044 133.006 156.478 132.894 156.87 132.67C157.272 132.437 157.589 132.105 157.822 131.676C158.056 131.237 158.172 130.729 158.172 130.15ZM164.609 134.126C164.021 134.126 163.494 134.028 163.027 133.832C162.561 133.627 162.192 133.347 161.921 132.992C161.651 132.628 161.501 132.213 161.473 131.746H162.789C162.827 132.129 163.004 132.441 163.321 132.684C163.648 132.927 164.073 133.048 164.595 133.048C165.081 133.048 165.463 132.941 165.743 132.726C166.023 132.511 166.163 132.241 166.163 131.914C166.163 131.578 166.014 131.331 165.715 131.172C165.417 131.004 164.955 130.841 164.329 130.682C163.76 130.533 163.293 130.383 162.929 130.234C162.575 130.075 162.267 129.847 162.005 129.548C161.753 129.24 161.627 128.839 161.627 128.344C161.627 127.952 161.744 127.593 161.977 127.266C162.211 126.939 162.542 126.683 162.971 126.496C163.401 126.3 163.891 126.202 164.441 126.202C165.291 126.202 165.977 126.417 166.499 126.846C167.022 127.275 167.302 127.863 167.339 128.61H166.065C166.037 128.209 165.874 127.887 165.575 127.644C165.286 127.401 164.894 127.28 164.399 127.28C163.942 127.28 163.578 127.378 163.307 127.574C163.037 127.77 162.901 128.027 162.901 128.344C162.901 128.596 162.981 128.806 163.139 128.974C163.307 129.133 163.513 129.263 163.755 129.366C164.007 129.459 164.353 129.567 164.791 129.688C165.342 129.837 165.79 129.987 166.135 130.136C166.481 130.276 166.775 130.491 167.017 130.78C167.269 131.069 167.4 131.447 167.409 131.914C167.409 132.334 167.293 132.712 167.059 133.048C166.826 133.384 166.495 133.65 166.065 133.846C165.645 134.033 165.16 134.126 164.609 134.126ZM176.488 129.87C176.488 130.113 176.474 130.369 176.446 130.64H170.314C170.36 131.396 170.617 131.989 171.084 132.418C171.56 132.838 172.134 133.048 172.806 133.048C173.356 133.048 173.814 132.922 174.178 132.67C174.551 132.409 174.812 132.063 174.962 131.634H176.334C176.128 132.371 175.718 132.973 175.102 133.44C174.486 133.897 173.72 134.126 172.806 134.126C172.078 134.126 171.424 133.963 170.846 133.636C170.276 133.309 169.828 132.847 169.502 132.25C169.175 131.643 169.012 130.943 169.012 130.15C169.012 129.357 169.17 128.661 169.488 128.064C169.805 127.467 170.248 127.009 170.818 126.692C171.396 126.365 172.059 126.202 172.806 126.202C173.534 126.202 174.178 126.361 174.738 126.678C175.298 126.995 175.727 127.434 176.026 127.994C176.334 128.545 176.488 129.17 176.488 129.87ZM175.172 129.604C175.172 129.119 175.064 128.703 174.85 128.358C174.635 128.003 174.341 127.737 173.968 127.56C173.604 127.373 173.198 127.28 172.75 127.28C172.106 127.28 171.555 127.485 171.098 127.896C170.65 128.307 170.393 128.876 170.328 129.604H175.172ZM185.626 126.202C186.288 126.202 186.867 126.347 187.362 126.636C187.866 126.925 188.239 127.289 188.482 127.728V126.328H189.77V134.168C189.77 134.868 189.62 135.489 189.322 136.03C189.023 136.581 188.594 137.01 188.034 137.318C187.483 137.626 186.839 137.78 186.102 137.78C185.094 137.78 184.254 137.542 183.582 137.066C182.91 136.59 182.513 135.941 182.392 135.12H183.652C183.792 135.587 184.081 135.96 184.52 136.24C184.958 136.529 185.486 136.674 186.102 136.674C186.802 136.674 187.371 136.455 187.81 136.016C188.258 135.577 188.482 134.961 188.482 134.168V132.558C188.23 133.006 187.856 133.379 187.362 133.678C186.867 133.977 186.288 134.126 185.626 134.126C184.944 134.126 184.324 133.958 183.764 133.622C183.213 133.286 182.779 132.815 182.462 132.208C182.144 131.601 181.986 130.911 181.986 130.136C181.986 129.352 182.144 128.666 182.462 128.078C182.779 127.481 183.213 127.019 183.764 126.692C184.324 126.365 184.944 126.202 185.626 126.202ZM188.482 130.15C188.482 129.571 188.365 129.067 188.132 128.638C187.898 128.209 187.581 127.882 187.18 127.658C186.788 127.425 186.354 127.308 185.878 127.308C185.402 127.308 184.968 127.42 184.576 127.644C184.184 127.868 183.871 128.195 183.638 128.624C183.404 129.053 183.288 129.557 183.288 130.136C183.288 130.724 183.404 131.237 183.638 131.676C183.871 132.105 184.184 132.437 184.576 132.67C184.968 132.894 185.402 133.006 185.878 133.006C186.354 133.006 186.788 132.894 187.18 132.67C187.581 132.437 187.898 132.105 188.132 131.676C188.365 131.237 188.482 130.729 188.482 130.15ZM195.549 134.126C194.83 134.126 194.177 133.963 193.589 133.636C193.01 133.309 192.553 132.847 192.217 132.25C191.89 131.643 191.727 130.943 191.727 130.15C191.727 129.366 191.895 128.675 192.231 128.078C192.576 127.471 193.043 127.009 193.631 126.692C194.219 126.365 194.877 126.202 195.605 126.202C196.333 126.202 196.991 126.365 197.579 126.692C198.167 127.009 198.629 127.467 198.965 128.064C199.31 128.661 199.483 129.357 199.483 130.15C199.483 130.943 199.305 131.643 198.951 132.25C198.605 132.847 198.134 133.309 197.537 133.636C196.939 133.963 196.277 134.126 195.549 134.126ZM195.549 133.006C196.006 133.006 196.435 132.899 196.837 132.684C197.238 132.469 197.56 132.147 197.803 131.718C198.055 131.289 198.181 130.766 198.181 130.15C198.181 129.534 198.059 129.011 197.817 128.582C197.574 128.153 197.257 127.835 196.865 127.63C196.473 127.415 196.048 127.308 195.591 127.308C195.124 127.308 194.695 127.415 194.303 127.63C193.92 127.835 193.612 128.153 193.379 128.582C193.145 129.011 193.029 129.534 193.029 130.15C193.029 130.775 193.141 131.303 193.365 131.732C193.598 132.161 193.906 132.483 194.289 132.698C194.671 132.903 195.091 133.006 195.549 133.006ZM206.724 127.756C206.986 127.299 207.368 126.925 207.872 126.636C208.376 126.347 208.95 126.202 209.594 126.202C210.285 126.202 210.906 126.365 211.456 126.692C212.007 127.019 212.441 127.481 212.758 128.078C213.076 128.666 213.234 129.352 213.234 130.136C213.234 130.911 213.076 131.601 212.758 132.208C212.441 132.815 212.002 133.286 211.442 133.622C210.892 133.958 210.276 134.126 209.594 134.126C208.932 134.126 208.348 133.981 207.844 133.692C207.35 133.403 206.976 133.034 206.724 132.586V134H205.45V123.64H206.724V127.756ZM211.932 130.136C211.932 129.557 211.816 129.053 211.582 128.624C211.349 128.195 211.032 127.868 210.63 127.644C210.238 127.42 209.804 127.308 209.328 127.308C208.862 127.308 208.428 127.425 208.026 127.658C207.634 127.882 207.317 128.213 207.074 128.652C206.841 129.081 206.724 129.581 206.724 130.15C206.724 130.729 206.841 131.237 207.074 131.676C207.317 132.105 207.634 132.437 208.026 132.67C208.428 132.894 208.862 133.006 209.328 133.006C209.804 133.006 210.238 132.894 210.63 132.67C211.032 132.437 211.349 132.105 211.582 131.676C211.816 131.237 211.932 130.724 211.932 130.136ZM214.715 130.136C214.715 129.352 214.874 128.666 215.191 128.078C215.509 127.481 215.943 127.019 216.493 126.692C217.053 126.365 217.674 126.202 218.355 126.202C219.027 126.202 219.611 126.347 220.105 126.636C220.6 126.925 220.969 127.289 221.211 127.728V126.328H222.499V134H221.211V132.572C220.959 133.02 220.581 133.393 220.077 133.692C219.583 133.981 219.004 134.126 218.341 134.126C217.66 134.126 217.044 133.958 216.493 133.622C215.943 133.286 215.509 132.815 215.191 132.208C214.874 131.601 214.715 130.911 214.715 130.136ZM221.211 130.15C221.211 129.571 221.095 129.067 220.861 128.638C220.628 128.209 220.311 127.882 219.909 127.658C219.517 127.425 219.083 127.308 218.607 127.308C218.131 127.308 217.697 127.42 217.305 127.644C216.913 127.868 216.601 128.195 216.367 128.624C216.134 129.053 216.017 129.557 216.017 130.136C216.017 130.724 216.134 131.237 216.367 131.676C216.601 132.105 216.913 132.437 217.305 132.67C217.697 132.894 218.131 133.006 218.607 133.006C219.083 133.006 219.517 132.894 219.909 132.67C220.311 132.437 220.628 132.105 220.861 131.676C221.095 131.237 221.211 130.729 221.211 130.15ZM224.456 130.15C224.456 129.357 224.615 128.666 224.932 128.078C225.249 127.481 225.688 127.019 226.248 126.692C226.817 126.365 227.466 126.202 228.194 126.202C229.137 126.202 229.911 126.431 230.518 126.888C231.134 127.345 231.54 127.98 231.736 128.792H230.364C230.233 128.325 229.977 127.957 229.594 127.686C229.221 127.415 228.754 127.28 228.194 127.28C227.466 127.28 226.878 127.532 226.43 128.036C225.982 128.531 225.758 129.235 225.758 130.15C225.758 131.074 225.982 131.788 226.43 132.292C226.878 132.796 227.466 133.048 228.194 133.048C228.754 133.048 229.221 132.917 229.594 132.656C229.967 132.395 230.224 132.021 230.364 131.536H231.736C231.531 132.32 231.12 132.95 230.504 133.426C229.888 133.893 229.118 134.126 228.194 134.126C227.466 134.126 226.817 133.963 226.248 133.636C225.688 133.309 225.249 132.847 224.932 132.25C224.615 131.653 224.456 130.953 224.456 130.15ZM238 134L234.99 130.612V134H233.716V123.64H234.99V129.73L237.944 126.328H239.722L236.11 130.15L239.736 134H238ZM246.768 127.378V131.9C246.768 132.273 246.847 132.539 247.006 132.698C247.164 132.847 247.44 132.922 247.832 132.922H248.77V134H247.622C246.912 134 246.38 133.837 246.026 133.51C245.671 133.183 245.494 132.647 245.494 131.9V127.378H244.5V126.328H245.494V124.396H246.768V126.328H248.77V127.378H246.768ZM253.939 134.126C253.22 134.126 252.567 133.963 251.979 133.636C251.4 133.309 250.943 132.847 250.607 132.25C250.28 131.643 250.117 130.943 250.117 130.15C250.117 129.366 250.285 128.675 250.621 128.078C250.966 127.471 251.433 127.009 252.021 126.692C252.609 126.365 253.267 126.202 253.995 126.202C254.723 126.202 255.381 126.365 255.969 126.692C256.557 127.009 257.019 127.467 257.355 128.064C257.7 128.661 257.873 129.357 257.873 130.15C257.873 130.943 257.696 131.643 257.341 132.25C256.996 132.847 256.524 133.309 255.927 133.636C255.33 133.963 254.667 134.126 253.939 134.126ZM253.939 133.006C254.396 133.006 254.826 132.899 255.227 132.684C255.628 132.469 255.95 132.147 256.193 131.718C256.445 131.289 256.571 130.766 256.571 130.15C256.571 129.534 256.45 129.011 256.207 128.582C255.964 128.153 255.647 127.835 255.255 127.63C254.863 127.415 254.438 127.308 253.981 127.308C253.514 127.308 253.085 127.415 252.693 127.63C252.31 127.835 252.002 128.153 251.769 128.582C251.536 129.011 251.419 129.534 251.419 130.15C251.419 130.775 251.531 131.303 251.755 131.732C251.988 132.161 252.296 132.483 252.679 132.698C253.062 132.903 253.482 133.006 253.939 133.006ZM266.879 124.242C267.943 124.242 268.862 124.443 269.637 124.844C270.421 125.236 271.018 125.801 271.429 126.538C271.849 127.275 272.059 128.143 272.059 129.142C272.059 130.141 271.849 131.009 271.429 131.746C271.018 132.474 270.421 133.034 269.637 133.426C268.862 133.809 267.943 134 266.879 134H263.841V124.242H266.879ZM266.879 132.95C268.139 132.95 269.1 132.619 269.763 131.956C270.425 131.284 270.757 130.346 270.757 129.142C270.757 127.929 270.421 126.981 269.749 126.3C269.086 125.619 268.129 125.278 266.879 125.278H265.115V132.95H266.879ZM274.677 125.082C274.434 125.082 274.229 124.998 274.061 124.83C273.893 124.662 273.809 124.457 273.809 124.214C273.809 123.971 273.893 123.766 274.061 123.598C274.229 123.43 274.434 123.346 274.677 123.346C274.91 123.346 275.106 123.43 275.265 123.598C275.433 123.766 275.517 123.971 275.517 124.214C275.517 124.457 275.433 124.662 275.265 124.83C275.106 124.998 274.91 125.082 274.677 125.082ZM275.293 126.328V134H274.019V126.328H275.293ZM280.46 134.126C279.872 134.126 279.345 134.028 278.878 133.832C278.412 133.627 278.043 133.347 277.772 132.992C277.502 132.628 277.352 132.213 277.324 131.746H278.64C278.678 132.129 278.855 132.441 279.172 132.684C279.499 132.927 279.924 133.048 280.446 133.048C280.932 133.048 281.314 132.941 281.594 132.726C281.874 132.511 282.014 132.241 282.014 131.914C282.014 131.578 281.865 131.331 281.566 131.172C281.268 131.004 280.806 130.841 280.18 130.682C279.611 130.533 279.144 130.383 278.78 130.234C278.426 130.075 278.118 129.847 277.856 129.548C277.604 129.24 277.478 128.839 277.478 128.344C277.478 127.952 277.595 127.593 277.828 127.266C278.062 126.939 278.393 126.683 278.822 126.496C279.252 126.3 279.742 126.202 280.292 126.202C281.142 126.202 281.828 126.417 282.35 126.846C282.873 127.275 283.153 127.863 283.19 128.61H281.916C281.888 128.209 281.725 127.887 281.426 127.644C281.137 127.401 280.745 127.28 280.25 127.28C279.793 127.28 279.429 127.378 279.158 127.574C278.888 127.77 278.752 128.027 278.752 128.344C278.752 128.596 278.832 128.806 278.99 128.974C279.158 129.133 279.364 129.263 279.606 129.366C279.858 129.459 280.204 129.567 280.642 129.688C281.193 129.837 281.641 129.987 281.986 130.136C282.332 130.276 282.626 130.491 282.868 130.78C283.12 131.069 283.251 131.447 283.26 131.914C283.26 132.334 283.144 132.712 282.91 133.048C282.677 133.384 282.346 133.65 281.916 133.846C281.496 134.033 281.011 134.126 280.46 134.126ZM284.863 130.15C284.863 129.357 285.022 128.666 285.339 128.078C285.656 127.481 286.095 127.019 286.655 126.692C287.224 126.365 287.873 126.202 288.601 126.202C289.544 126.202 290.318 126.431 290.925 126.888C291.541 127.345 291.947 127.98 292.143 128.792H290.771C290.64 128.325 290.384 127.957 290.001 127.686C289.628 127.415 289.161 127.28 288.601 127.28C287.873 127.28 287.285 127.532 286.837 128.036C286.389 128.531 286.165 129.235 286.165 130.15C286.165 131.074 286.389 131.788 286.837 132.292C287.285 132.796 287.873 133.048 288.601 133.048C289.161 133.048 289.628 132.917 290.001 132.656C290.374 132.395 290.631 132.021 290.771 131.536H292.143C291.938 132.32 291.527 132.95 290.911 133.426C290.295 133.893 289.525 134.126 288.601 134.126C287.873 134.126 287.224 133.963 286.655 133.636C286.095 133.309 285.656 132.847 285.339 132.25C285.022 131.653 284.863 130.953 284.863 130.15ZM297.469 134.126C296.75 134.126 296.097 133.963 295.509 133.636C294.93 133.309 294.473 132.847 294.137 132.25C293.81 131.643 293.647 130.943 293.647 130.15C293.647 129.366 293.815 128.675 294.151 128.078C294.496 127.471 294.963 127.009 295.551 126.692C296.139 126.365 296.797 126.202 297.525 126.202C298.253 126.202 298.911 126.365 299.499 126.692C300.087 127.009 300.549 127.467 300.885 128.064C301.23 128.661 301.403 129.357 301.403 130.15C301.403 130.943 301.225 131.643 300.871 132.25C300.525 132.847 300.054 133.309 299.457 133.636C298.859 133.963 298.197 134.126 297.469 134.126ZM297.469 133.006C297.926 133.006 298.355 132.899 298.757 132.684C299.158 132.469 299.48 132.147 299.723 131.718C299.975 131.289 300.101 130.766 300.101 130.15C300.101 129.534 299.979 129.011 299.737 128.582C299.494 128.153 299.177 127.835 298.785 127.63C298.393 127.415 297.968 127.308 297.511 127.308C297.044 127.308 296.615 127.415 296.223 127.63C295.84 127.835 295.532 128.153 295.299 128.582C295.065 129.011 294.949 129.534 294.949 130.15C294.949 130.775 295.061 131.303 295.285 131.732C295.518 132.161 295.826 132.483 296.209 132.698C296.591 132.903 297.011 133.006 297.469 133.006ZM304.632 127.574C304.856 127.135 305.173 126.795 305.584 126.552C306.004 126.309 306.513 126.188 307.11 126.188V127.504H306.774C305.346 127.504 304.632 128.279 304.632 129.828V134H303.358V126.328H304.632V127.574ZM308.385 130.136C308.385 129.352 308.543 128.666 308.861 128.078C309.178 127.481 309.612 127.019 310.163 126.692C310.723 126.365 311.348 126.202 312.039 126.202C312.636 126.202 313.191 126.342 313.705 126.622C314.218 126.893 314.61 127.252 314.881 127.7V123.64H316.169V134H314.881V132.558C314.629 133.015 314.255 133.393 313.761 133.692C313.266 133.981 312.687 134.126 312.025 134.126C311.343 134.126 310.723 133.958 310.163 133.622C309.612 133.286 309.178 132.815 308.861 132.208C308.543 131.601 308.385 130.911 308.385 130.136ZM314.881 130.15C314.881 129.571 314.764 129.067 314.531 128.638C314.297 128.209 313.98 127.882 313.579 127.658C313.187 127.425 312.753 127.308 312.277 127.308C311.801 127.308 311.367 127.42 310.975 127.644C310.583 127.868 310.27 128.195 310.037 128.624C309.803 129.053 309.687 129.557 309.687 130.136C309.687 130.724 309.803 131.237 310.037 131.676C310.27 132.105 310.583 132.437 310.975 132.67C311.367 132.894 311.801 133.006 312.277 133.006C312.753 133.006 313.187 132.894 313.579 132.67C313.98 132.437 314.297 132.105 314.531 131.676C314.764 131.237 314.881 130.729 314.881 130.15ZM322.138 130.136C322.138 129.352 322.297 128.666 322.614 128.078C322.931 127.481 323.365 127.019 323.916 126.692C324.476 126.365 325.097 126.202 325.778 126.202C326.45 126.202 327.033 126.347 327.528 126.636C328.023 126.925 328.391 127.289 328.634 127.728V126.328H329.922V134H328.634V132.572C328.382 133.02 328.004 133.393 327.5 133.692C327.005 133.981 326.427 134.126 325.764 134.126C325.083 134.126 324.467 133.958 323.916 133.622C323.365 133.286 322.931 132.815 322.614 132.208C322.297 131.601 322.138 130.911 322.138 130.136ZM328.634 130.15C328.634 129.571 328.517 129.067 328.284 128.638C328.051 128.209 327.733 127.882 327.332 127.658C326.94 127.425 326.506 127.308 326.03 127.308C325.554 127.308 325.12 127.42 324.728 127.644C324.336 127.868 324.023 128.195 323.79 128.624C323.557 129.053 323.44 129.557 323.44 130.136C323.44 130.724 323.557 131.237 323.79 131.676C324.023 132.105 324.336 132.437 324.728 132.67C325.12 132.894 325.554 133.006 326.03 133.006C326.506 133.006 326.94 132.894 327.332 132.67C327.733 132.437 328.051 132.105 328.284 131.676C328.517 131.237 328.634 130.729 328.634 130.15ZM336.093 126.188C337.026 126.188 337.782 126.473 338.361 127.042C338.939 127.602 339.229 128.414 339.229 129.478V134H337.969V129.66C337.969 128.895 337.777 128.311 337.395 127.91C337.012 127.499 336.489 127.294 335.827 127.294C335.155 127.294 334.618 127.504 334.217 127.924C333.825 128.344 333.629 128.955 333.629 129.758V134H332.355V126.328H333.629V127.42C333.881 127.028 334.221 126.725 334.651 126.51C335.089 126.295 335.57 126.188 336.093 126.188ZM341.114 130.136C341.114 129.352 341.273 128.666 341.59 128.078C341.907 127.481 342.341 127.019 342.892 126.692C343.452 126.365 344.077 126.202 344.768 126.202C345.365 126.202 345.921 126.342 346.434 126.622C346.947 126.893 347.339 127.252 347.61 127.7V123.64H348.898V134H347.61V132.558C347.358 133.015 346.985 133.393 346.49 133.692C345.995 133.981 345.417 134.126 344.754 134.126C344.073 134.126 343.452 133.958 342.892 133.622C342.341 133.286 341.907 132.815 341.59 132.208C341.273 131.601 341.114 130.911 341.114 130.136ZM347.61 130.15C347.61 129.571 347.493 129.067 347.26 128.638C347.027 128.209 346.709 127.882 346.308 127.658C345.916 127.425 345.482 127.308 345.006 127.308C344.53 127.308 344.096 127.42 343.704 127.644C343.312 127.868 342.999 128.195 342.766 128.624C342.533 129.053 342.416 129.557 342.416 130.136C342.416 130.724 342.533 131.237 342.766 131.676C342.999 132.105 343.312 132.437 343.704 132.67C344.096 132.894 344.53 133.006 345.006 133.006C345.482 133.006 345.916 132.894 346.308 132.67C346.709 132.437 347.027 132.105 347.26 131.676C347.493 131.237 347.61 130.729 347.61 130.15ZM130.602 148.15C130.602 147.357 130.761 146.666 131.078 146.078C131.395 145.481 131.834 145.019 132.394 144.692C132.963 144.365 133.612 144.202 134.34 144.202C135.283 144.202 136.057 144.431 136.664 144.888C137.28 145.345 137.686 145.98 137.882 146.792H136.51C136.379 146.325 136.123 145.957 135.74 145.686C135.367 145.415 134.9 145.28 134.34 145.28C133.612 145.28 133.024 145.532 132.576 146.036C132.128 146.531 131.904 147.235 131.904 148.15C131.904 149.074 132.128 149.788 132.576 150.292C133.024 150.796 133.612 151.048 134.34 151.048C134.9 151.048 135.367 150.917 135.74 150.656C136.113 150.395 136.37 150.021 136.51 149.536H137.882C137.677 150.32 137.266 150.95 136.65 151.426C136.034 151.893 135.264 152.126 134.34 152.126C133.612 152.126 132.963 151.963 132.394 151.636C131.834 151.309 131.395 150.847 131.078 150.25C130.761 149.653 130.602 148.953 130.602 148.15ZM143.67 144.188C144.249 144.188 144.771 144.314 145.238 144.566C145.705 144.809 146.069 145.177 146.33 145.672C146.601 146.167 146.736 146.769 146.736 147.478V152H145.476V147.66C145.476 146.895 145.285 146.311 144.902 145.91C144.519 145.499 143.997 145.294 143.334 145.294C142.662 145.294 142.125 145.504 141.724 145.924C141.332 146.344 141.136 146.955 141.136 147.758V152H139.862V141.64H141.136V145.42C141.388 145.028 141.733 144.725 142.172 144.51C142.62 144.295 143.119 144.188 143.67 144.188ZM156.097 147.87C156.097 148.113 156.083 148.369 156.055 148.64H149.923C149.97 149.396 150.226 149.989 150.693 150.418C151.169 150.838 151.743 151.048 152.415 151.048C152.966 151.048 153.423 150.922 153.787 150.67C154.16 150.409 154.422 150.063 154.571 149.634H155.943C155.738 150.371 155.327 150.973 154.711 151.44C154.095 151.897 153.33 152.126 152.415 152.126C151.687 152.126 151.034 151.963 150.455 151.636C149.886 151.309 149.438 150.847 149.111 150.25C148.784 149.643 148.621 148.943 148.621 148.15C148.621 147.357 148.78 146.661 149.097 146.064C149.414 145.467 149.858 145.009 150.427 144.692C151.006 144.365 151.668 144.202 152.415 144.202C153.143 144.202 153.787 144.361 154.347 144.678C154.907 144.995 155.336 145.434 155.635 145.994C155.943 146.545 156.097 147.17 156.097 147.87ZM154.781 147.604C154.781 147.119 154.674 146.703 154.459 146.358C154.244 146.003 153.95 145.737 153.577 145.56C153.213 145.373 152.807 145.28 152.359 145.28C151.715 145.28 151.164 145.485 150.707 145.896C150.259 146.307 150.002 146.876 149.937 147.604H154.781ZM157.583 148.15C157.583 147.357 157.741 146.666 158.059 146.078C158.376 145.481 158.815 145.019 159.375 144.692C159.944 144.365 160.593 144.202 161.321 144.202C162.263 144.202 163.038 144.431 163.645 144.888C164.261 145.345 164.667 145.98 164.863 146.792H163.491C163.36 146.325 163.103 145.957 162.721 145.686C162.347 145.415 161.881 145.28 161.321 145.28C160.593 145.28 160.005 145.532 159.557 146.036C159.109 146.531 158.885 147.235 158.885 148.15C158.885 149.074 159.109 149.788 159.557 150.292C160.005 150.796 160.593 151.048 161.321 151.048C161.881 151.048 162.347 150.917 162.721 150.656C163.094 150.395 163.351 150.021 163.491 149.536H164.863C164.657 150.32 164.247 150.95 163.631 151.426C163.015 151.893 162.245 152.126 161.321 152.126C160.593 152.126 159.944 151.963 159.375 151.636C158.815 151.309 158.376 150.847 158.059 150.25C157.741 149.653 157.583 148.953 157.583 148.15ZM171.127 152L168.117 148.612V152H166.843V141.64H168.117V147.73L171.071 144.328H172.849L169.237 148.15L172.863 152H171.127ZM184.948 144.328L180.328 155.612H179.012L180.524 151.916L177.43 144.328H178.844L181.252 150.544L183.632 144.328H184.948ZM189.855 152.126C189.136 152.126 188.483 151.963 187.895 151.636C187.316 151.309 186.859 150.847 186.523 150.25C186.196 149.643 186.033 148.943 186.033 148.15C186.033 147.366 186.201 146.675 186.537 146.078C186.882 145.471 187.349 145.009 187.937 144.692C188.525 144.365 189.183 144.202 189.911 144.202C190.639 144.202 191.297 144.365 191.885 144.692C192.473 145.009 192.935 145.467 193.271 146.064C193.616 146.661 193.789 147.357 193.789 148.15C193.789 148.943 193.611 149.643 193.257 150.25C192.911 150.847 192.44 151.309 191.843 151.636C191.245 151.963 190.583 152.126 189.855 152.126ZM189.855 151.006C190.312 151.006 190.741 150.899 191.143 150.684C191.544 150.469 191.866 150.147 192.109 149.718C192.361 149.289 192.487 148.766 192.487 148.15C192.487 147.534 192.365 147.011 192.123 146.582C191.88 146.153 191.563 145.835 191.171 145.63C190.779 145.415 190.354 145.308 189.897 145.308C189.43 145.308 189.001 145.415 188.609 145.63C188.226 145.835 187.918 146.153 187.685 146.582C187.451 147.011 187.335 147.534 187.335 148.15C187.335 148.775 187.447 149.303 187.671 149.732C187.904 150.161 188.212 150.483 188.595 150.698C188.977 150.903 189.397 151.006 189.855 151.006ZM202.548 144.328V152H201.274V150.866C201.031 151.258 200.69 151.566 200.252 151.79C199.822 152.005 199.346 152.112 198.824 152.112C198.226 152.112 197.69 151.991 197.214 151.748C196.738 151.496 196.36 151.123 196.08 150.628C195.809 150.133 195.674 149.531 195.674 148.822V144.328H196.934V148.654C196.934 149.41 197.125 149.993 197.508 150.404C197.89 150.805 198.413 151.006 199.076 151.006C199.757 151.006 200.294 150.796 200.686 150.376C201.078 149.956 201.274 149.345 201.274 148.542V144.328H202.548ZM206.253 145.574C206.477 145.135 206.794 144.795 207.205 144.552C207.625 144.309 208.134 144.188 208.731 144.188V145.504H208.395C206.967 145.504 206.253 146.279 206.253 147.828V152H204.979V144.328H206.253V145.574ZM215.768 145.574C215.992 145.135 216.309 144.795 216.72 144.552C217.14 144.309 217.649 144.188 218.246 144.188V145.504H217.91C216.482 145.504 215.768 146.279 215.768 147.828V152H214.494V144.328H215.768V145.574ZM223.343 152.126C222.624 152.126 221.971 151.963 221.383 151.636C220.804 151.309 220.347 150.847 220.011 150.25C219.684 149.643 219.521 148.943 219.521 148.15C219.521 147.366 219.689 146.675 220.025 146.078C220.37 145.471 220.837 145.009 221.425 144.692C222.013 144.365 222.671 144.202 223.399 144.202C224.127 144.202 224.785 144.365 225.373 144.692C225.961 145.009 226.423 145.467 226.759 146.064C227.104 146.661 227.277 147.357 227.277 148.15C227.277 148.943 227.099 149.643 226.745 150.25C226.399 150.847 225.928 151.309 225.331 151.636C224.733 151.963 224.071 152.126 223.343 152.126ZM223.343 151.006C223.8 151.006 224.229 150.899 224.631 150.684C225.032 150.469 225.354 150.147 225.597 149.718C225.849 149.289 225.975 148.766 225.975 148.15C225.975 147.534 225.853 147.011 225.611 146.582C225.368 146.153 225.051 145.835 224.659 145.63C224.267 145.415 223.842 145.308 223.385 145.308C222.918 145.308 222.489 145.415 222.097 145.63C221.714 145.835 221.406 146.153 221.173 146.582C220.939 147.011 220.823 147.534 220.823 148.15C220.823 148.775 220.935 149.303 221.159 149.732C221.392 150.161 221.7 150.483 222.083 150.698C222.465 150.903 222.885 151.006 223.343 151.006ZM230.506 141.64V152H229.232V141.64H230.506ZM239.957 147.87C239.957 148.113 239.943 148.369 239.915 148.64H233.783C233.83 149.396 234.086 149.989 234.553 150.418C235.029 150.838 235.603 151.048 236.275 151.048C236.826 151.048 237.283 150.922 237.647 150.67C238.02 150.409 238.282 150.063 238.431 149.634H239.803C239.598 150.371 239.187 150.973 238.571 151.44C237.955 151.897 237.19 152.126 236.275 152.126C235.547 152.126 234.894 151.963 234.315 151.636C233.746 151.309 233.298 150.847 232.971 150.25C232.644 149.643 232.481 148.943 232.481 148.15C232.481 147.357 232.64 146.661 232.957 146.064C233.274 145.467 233.718 145.009 234.287 144.692C234.866 144.365 235.528 144.202 236.275 144.202C237.003 144.202 237.647 144.361 238.207 144.678C238.767 144.995 239.196 145.434 239.495 145.994C239.803 146.545 239.957 147.17 239.957 147.87ZM238.641 147.604C238.641 147.119 238.534 146.703 238.319 146.358C238.104 146.003 237.81 145.737 237.437 145.56C237.073 145.373 236.667 145.28 236.219 145.28C235.575 145.28 235.024 145.485 234.567 145.896C234.119 146.307 233.862 146.876 233.797 147.604H238.641ZM244.635 152.126C244.047 152.126 243.519 152.028 243.053 151.832C242.586 151.627 242.217 151.347 241.947 150.992C241.676 150.628 241.527 150.213 241.499 149.746H242.815C242.852 150.129 243.029 150.441 243.347 150.684C243.673 150.927 244.098 151.048 244.621 151.048C245.106 151.048 245.489 150.941 245.769 150.726C246.049 150.511 246.189 150.241 246.189 149.914C246.189 149.578 246.039 149.331 245.741 149.172C245.442 149.004 244.98 148.841 244.355 148.682C243.785 148.533 243.319 148.383 242.955 148.234C242.6 148.075 242.292 147.847 242.031 147.548C241.779 147.24 241.653 146.839 241.653 146.344C241.653 145.952 241.769 145.593 242.003 145.266C242.236 144.939 242.567 144.683 242.997 144.496C243.426 144.3 243.916 144.202 244.467 144.202C245.316 144.202 246.002 144.417 246.525 144.846C247.047 145.275 247.327 145.863 247.365 146.61H246.091C246.063 146.209 245.899 145.887 245.601 145.644C245.311 145.401 244.919 145.28 244.425 145.28C243.967 145.28 243.603 145.378 243.333 145.574C243.062 145.77 242.927 146.027 242.927 146.344C242.927 146.596 243.006 146.806 243.165 146.974C243.333 147.133 243.538 147.263 243.781 147.366C244.033 147.459 244.378 147.567 244.817 147.688C245.367 147.837 245.815 147.987 246.161 148.136C246.506 148.276 246.8 148.491 247.043 148.78C247.295 149.069 247.425 149.447 247.435 149.914C247.435 150.334 247.318 150.712 247.085 151.048C246.851 151.384 246.52 151.65 246.091 151.846C245.671 152.033 245.185 152.126 244.635 152.126ZM251.165 142.242L251.011 149.242H249.947L249.793 142.242H251.165ZM250.535 152.084C250.292 152.084 250.087 152 249.919 151.832C249.751 151.664 249.667 151.459 249.667 151.216C249.667 150.973 249.751 150.768 249.919 150.6C250.087 150.432 250.292 150.348 250.535 150.348C250.768 150.348 250.964 150.432 251.123 150.6C251.291 150.768 251.375 150.973 251.375 151.216C251.375 151.459 251.291 151.664 251.123 151.832C250.964 152 250.768 152.084 250.535 152.084ZM258.381 152.084C258.139 152.084 257.933 152 257.765 151.832C257.597 151.664 257.513 151.459 257.513 151.216C257.513 150.973 257.597 150.768 257.765 150.6C257.933 150.432 258.139 150.348 258.381 150.348C258.615 150.348 258.811 150.432 258.969 150.6C259.137 150.768 259.221 150.973 259.221 151.216C259.221 151.459 259.137 151.664 258.969 151.832C258.811 152 258.615 152.084 258.381 152.084ZM258.381 146.092C258.139 146.092 257.933 146.008 257.765 145.84C257.597 145.672 257.513 145.467 257.513 145.224C257.513 144.981 257.597 144.776 257.765 144.608C257.933 144.44 258.139 144.356 258.381 144.356C258.615 144.356 258.811 144.44 258.969 144.608C259.137 144.776 259.221 144.981 259.221 145.224C259.221 145.467 259.137 145.672 258.969 145.84C258.811 146.008 258.615 146.092 258.381 146.092ZM260.83 154.604V154.478C261.791 153.489 262.519 152.336 263.014 151.02C263.518 149.704 263.77 148.323 263.77 146.876C263.77 145.392 263.504 143.964 262.972 142.592C262.449 141.211 261.665 140.03 260.62 139.05V138.924H261.95C262.93 139.829 263.681 140.982 264.204 142.382C264.736 143.773 265.002 145.271 265.002 146.876C265.002 148.444 264.75 149.905 264.246 151.258C263.751 152.611 263.056 153.727 262.16 154.604H260.83Z" fill="white"/>
</g>
<path fill-rule="evenodd" clip-rule="evenodd" d="M59.0002 68.64C77.9546 68.64 93.3202 53.2744 93.3202 34.32C93.3202 15.3656 77.9546 0 59.0002 0C40.0458 0 24.6802 15.3656 24.6802 34.32C24.6802 44.9926 29.5517 54.5274 37.1925 60.822C37.2047 60.832 37.1939 60.8515 37.1789 60.8464C37.1698 60.8433 37.1602 60.8501 37.1602 60.8598V71.5042C37.1602 74.4834 40.3004 76.4171 42.9607 75.076L54.9722 69.0212C55.6356 68.6867 56.3788 68.5494 57.1207 68.5894C57.743 68.623 58.3696 68.64 59.0002 68.64Z" fill="#055816"/>
<path fill-rule="evenodd" clip-rule="evenodd" d="M70.3012 24.3463C71.3603 25.1584 71.5625 26.6744 70.7531 27.7356L58.7428 43.4829C58.3193 44.0381 57.6774 44.3832 56.9817 44.4295C56.2861 44.4757 55.6044 44.2188 55.1114 43.7245L47.4884 36.0814C46.5456 35.1362 46.5456 33.6063 47.4884 32.6611C48.4346 31.7124 49.9715 31.7124 50.9177 32.6611L56.5784 38.3367L66.9033 24.7994C67.7155 23.7344 69.2382 23.5313 70.3012 24.3463Z" fill="white"/>
<defs>
<clipPath id="clip0_3326_3395">
<rect y="42" width="438" height="132" rx="32" fill="white"/>
</clipPath>
</defs>
</svg>
