<?xml version="1.0" encoding="UTF-8"?>
<svg width="16px" height="16px" viewBox="0 0 16 16" version="1.1" xmlns="http://www.w3.org/2000/svg" xmlns:xlink="http://www.w3.org/1999/xlink">
    <title>logo-ins</title>
    <defs>
        <polygon id="path-1" points="0 0 16 0 16 16 0 16"></polygon>
    </defs>
    <g id="页面-1" stroke="none" stroke-width="1" fill="none" fill-rule="evenodd">
        <g id="nepbot改版" transform="translate(-1506.000000, -34.000000)">
            <g id="编组-3" transform="translate(360.000000, 32.000000)">
                <g id="logo-ins" transform="translate(1144.000000, 0.000000)">
                    <rect id="矩形" x="0" y="0" width="20" height="20"></rect>
                    <g id="instagram-fill" transform="translate(2.000000, 2.000000)">
                        <mask id="mask-2" fill="white">
                            <use xlink:href="#path-1"></use>
                        </mask>
                        <g id="Clip-2"></g>
                        <path d="M7.99708852,5.33222452 C6.52800883,5.33222452 5.32905726,6.53098581 5.32905726,8.00005504 C5.32905726,9.46899919 6.52800883,10.6677605 7.99708852,10.6677605 C9.46616822,10.6677605 10.6651198,9.46899919 10.6651198,8.00005504 C10.6651198,6.53098581 9.46616822,5.33222452 7.99708852,5.33222452 Z" id="Fill-1" fill="#FFFFFF" mask="url(#mask-2)"></path>
                        <path d="M15.9991058,8.00005504 C15.9991058,6.89528236 16.0091633,5.80051645 15.9471167,4.69782017 C15.885045,3.41685324 15.5928503,2.28015895 14.6560959,1.34350004 C13.717415,0.404864797 12.5825616,0.114618365 11.3016234,0.0526764439 C10.1967926,-0.00939056161 9.10191932,0.000591193804 7.99914006,0.000591193804 C6.89430927,0.000591193804 5.79943597,-0.00939056161 4.69665672,0.0526764439 C3.41561842,0.114618365 2.2788386,0.406916185 1.3420842,1.34350004 C0.403403345,2.28211027 0.113135073,3.41685324 0.0511634731,4.69782017 C-0.0108831838,5.80256784 -0.00092569609,6.8972587 -0.00092569609,8.00005504 C-0.00092569609,9.10275132 -0.0108831838,10.1994936 0.0511634731,11.3022899 C0.113135073,12.5831318 0.405454887,13.7198261 1.3420842,14.65651 C2.28079007,15.5951202 3.41561842,15.8853666 4.69665672,15.9474086 C5.80148751,16.0094756 6.89626074,15.9993938 7.99914006,15.9993938 C9.10397086,15.9993938 10.1987441,16.0094756 11.3016234,15.9474086 C12.5825616,15.8853666 13.7193665,15.5931689 14.6560959,14.65651 C15.5948017,13.7178747 15.885045,12.5831318 15.9471167,11.3022899 C16.0111148,10.1994936 15.9991058,9.10480271 15.9991058,8.00005504 Z M7.99708852,12.104783 C5.72535526,12.104783 3.89205168,10.2714923 3.89205168,8.00005504 C3.89205168,5.7284927 5.72535526,3.89522699 7.99708852,3.89522699 C10.2688218,3.89522699 12.1022254,5.7284927 12.1022254,8.00005504 C12.1022254,10.2714923 10.2688218,12.104783 7.99708852,12.104783 Z M12.2703268,4.68578702 C11.739953,4.68578702 11.3116059,4.25747215 11.3116059,3.72713823 C11.3116059,3.19680432 11.739953,2.76846443 12.2703268,2.76846443 C12.8007007,2.76846443 13.2290478,3.19680432 13.2290478,3.72713823 C13.2269962,4.25952354 12.8007007,4.68578702 12.2703268,4.68578702 Z" id="Fill-3" fill="#FFFFFF" mask="url(#mask-2)"></path>
                    </g>
                </g>
            </g>
        </g>
    </g>
</svg>