<?xml version="1.0" encoding="UTF-8"?>
<svg viewBox="0 0 16 16" version="1.1" xmlns="http://www.w3.org/2000/svg"
    xmlns:xlink="http://www.w3.org/1999/xlink">
    <title>logo-popula</title>
    <g stroke="none" stroke-width="1" fill="none" fill-rule="evenodd">
        <g transform="translate(-1398.000000, -34.000000)">
            <g transform="translate(360.000000, 32.000000)">
                <g id="logo-popula" transform="translate(1036.000000, 0.000000)">
                    <path
                        d="M5.56730769,2 C7.53747733,2 9.13461538,3.59713806 9.13461538,5.56730769 L9.13461538,9.13461538 L5.56730769,9.13461538 C3.59713806,9.13461538 2,7.53747733 2,5.56730769 C2,3.59713806 3.59713806,2 5.56730769,2 Z M5.56730769,3.62564103 C4.4949548,3.62564103 3.62564103,4.4949548 3.62564103,5.56730769 C3.62564103,6.63966058 4.4949548,7.50897436 5.56730769,7.50897436 L7.50897436,7.50897436 L7.50897436,5.56730769 C7.50897436,4.4949548 6.63966058,3.62564103 5.56730769,3.62564103 Z M14.4326923,2 C16.4028619,2 18,3.59713806 18,5.56730769 C18,7.53747733 16.4028619,9.13461538 14.4326923,9.13461538 C12.4625227,9.13461538 10.8653846,7.53747733 10.8653846,5.56730769 C10.8653846,3.59713806 12.4625227,2 14.4326923,2 Z M14.4326923,18 C12.4625227,18 10.8653846,16.4028619 10.8653846,14.4326923 L10.8653846,10.8653846 L14.4326923,10.8653846 C16.4028619,10.8653846 18,12.4625227 18,14.4326923 C18,16.4028619 16.4028619,18 14.4326923,18 Z M14.4326923,16.374359 C15.5050452,16.374359 16.374359,15.5050452 16.374359,14.4326923 C16.374359,13.3603394 15.5050452,12.4910256 14.4326923,12.4910256 L12.4910256,12.4910256 L12.4910256,14.4326923 C12.4910256,15.5050452 13.3603394,16.374359 14.4326923,16.374359 Z M2.33974359,15.1513846 L4.84674359,17.6593846 L2.33974359,17.6602564 L2.33974359,15.1513846 Z M3.36428313,11.8313715 L8.16766427,16.6367043 C7.81659128,16.9960952 7.38646342,17.2779243 6.90539421,17.4540781 L2.54592192,13.0946058 C2.72223701,12.6130961 3.00442103,12.182621 3.36428313,11.8313715 Z M5.73717949,10.8653846 C7.61353152,10.8653846 9.13461538,12.3864685 9.13461538,14.2628205 C9.13461538,14.590542 9.08821363,14.9074259 9.00162168,15.2072604 L4.79273962,10.9983783 C5.09257415,10.9117864 5.40945796,10.8653846 5.73717949,10.8653846 Z"
                        fill="#FFFFFF"></path>
                </g>
            </g>
        </g>
    </g>
</svg>