<?xml version="1.0" encoding="UTF-8"?>
<svg width="16px" height="14px" viewBox="0 0 16 14" version="1.1" xmlns="http://www.w3.org/2000/svg" xmlns:xlink="http://www.w3.org/1999/xlink">
    <title>logo-twitter</title>
    <g id="页面-1" stroke="none" stroke-width="1" fill="none" fill-rule="evenodd">
        <g id="nepbot改版" transform="translate(-1434.000000, -35.000000)">
            <g id="编组-3" transform="translate(360.000000, 32.000000)">
                <g id="logo-twitter" transform="translate(1072.000000, 0.000000)">
                    <rect id="矩形" x="0" y="0" width="20" height="20"></rect>
                    <path d="M17.5736127,3.72947444 C17.5736127,3.72947444 16.081257,4.53241855 15.4949744,4.58594817 C14.162514,2.49829346 9.09916447,3.40829679 9.95193913,7.42301739 C5.52817057,7.47654699 3.12974183,4.10418169 3.12974183,4.10418169 C3.12974183,4.10418169 1.63738617,6.51301404 4.08911332,8.49360953 C3.60942757,8.54713915 2.7033545,8.22596149 2.7033545,8.22596149 C2.7033545,8.22596149 2.33026559,10.3136162 5.20838007,11.3306788 C4.94188799,11.705386 3.76932284,11.437738 3.76932284,11.437738 C3.76932284,11.437738 4.08911333,13.2577446 6.70073573,13.7395111 C4.88858958,15.398929 1.79728143,14.9171625 2.01047509,15.0777513 C4.62209749,17.4865837 16.1878539,18.0218797 16.2944507,6.88772131 C16.9340317,6.67360287 18,5.06771464 18,5.06771464 C18,5.06771464 16.3477491,5.54948111 16.2411523,5.4959515 C17.5203143,4.74653699 17.5736127,3.72947444 17.5736127,3.72947444" id="路径" fill="#FFFFFF" fill-rule="nonzero"></path>
                </g>
            </g>
        </g>
    </g>
</svg>