<?xml version="1.0" encoding="UTF-8"?>
<svg width="18px" height="18px" viewBox="0 0 18 18" version="1.1" xmlns="http://www.w3.org/2000/svg" xmlns:xlink="http://www.w3.org/1999/xlink">
    <title>logo-facebook</title>
    <defs>
        <polygon id="path-1" points="0 0 20 0 20 20 0 20"></polygon>
    </defs>
    <g id="页面-1" stroke="none" stroke-width="1" fill="none" fill-rule="evenodd">
        <g id="nepbot改版" transform="translate(-1469.000000, -33.000000)">
            <g id="编组-3" transform="translate(360.000000, 32.000000)">
                <g id="logo-facebook" transform="translate(1108.000000, 0.000000)">
                    <rect id="矩形" x="0" y="0" width="20" height="20"></rect>
                    <g id="facebookfacebook52">
                        <mask id="mask-2" fill="white">
                            <use xlink:href="#path-1"></use>
                        </mask>
                        <g id="Clip-2"></g>
                        <path d="M18.5,10.0000519 C18.5,5.30572608 14.6943569,1.5 10.0000519,1.5 C5.30572608,1.5 1.5,5.30572608 1.5,10.0000519 C1.5,14.6943569 5.30572608,18.5 10.0000519,18.5 C14.6943569,18.5 18.5,14.6943569 18.5,10.0000519 Z M7.71739651,10.0000519 L7.71739651,8.37344955 L8.71423854,8.37344955 L8.71423854,7.38974352 C8.71423854,6.06292427 9.11062208,5.1071089 10.5633436,5.1071089 L12.2911118,5.1071089 L12.2911118,6.7298306 L11.0748591,6.7298306 C10.4651867,6.7298306 10.3268955,7.13472245 10.3268955,7.5589344 L10.3268955,8.37344955 L12.2015463,8.37344955 L11.9456951,10.0000519 L10.3268955,10.0000519 L10.3268955,14.9061101 L8.71423854,14.9061101 L8.71423854,10.0000519 L7.71739651,10.0000519 Z" id="Fill-1" fill="#FFFFFF" mask="url(#mask-2)"></path>
                    </g>
                </g>
            </g>
        </g>
    </g>
</svg>