<?xml version="1.0" encoding="utf-8"?>
<svg version="1.1" id="Layer_1" xmlns="http://www.w3.org/2000/svg"
  xmlns:xlink="http://www.w3.org/1999/xlink" x="0px" y="0px"
  viewBox="0 0 1441 351" style="enable-background:new 0 0 1441 351;" xml:space="preserve">
<style type="text/css">
	.st0{fill:#FFFFFF;}
</style>
<g>
	<path class="st0" d="M596.4,49.7c-26.6,0-46,6.3-62.4,20.8l-29,25.1c-2.4,1.9-7.3,3.4-10.6,0.5c-3.4-2.9-3.9-6.8-1-10.6l15.5-23.2
		c2.4-3.4,0.5-7.7-3.9-7.7h-37.2c-4.3,0-7.7,3.4-7.7,7.7v226.4c0,4.4,3.4,7.7,7.7,7.7h38.7c4.3,0,7.7-3.4,7.7-7.7V161
		c0-58.5,48.9-67.7,67.2-67.7c39.2,0,53.2,28.1,53.2,49.3v146.1c0,4.4,3.4,7.7,7.7,7.7h38.7c4.3,0,7.7-3.4,7.7-7.7V137.8
		C688.8,83.6,653.5,49.7,596.4,49.7L596.4,49.7z"/>
	<path class="st0" d="M846.5,48.8c-75,0-122.9,46-122.9,108.4v34.4c0,65.8,47.9,110.8,122.9,110.8c66.3,0,112.7-34.4,117.6-80.8
		c0.5-4.8-2.9-8.2-7.7-8.2h-37.7c-3.4,0-6.3,1.9-7.3,5.3c-4.8,15.5-27.6,38.7-64.8,38.7s-72.1-27.1-71.6-65.8l0.5-43
		c0.5-32.4,34.3-54.7,71.1-54.7c33.4,0,65.8,18.9,69.2,49.8l0,0c0.3,3.6-2.2,6.8-5.7,7.5l-108.5,21c-4.3,1-7.7,4.8-7.7,9.7v0.5
		c0,4.4,4.3,8.2,10.6,8.2h155.8c4.3,0,7.7-3.5,7.7-7.7v-30.5C967.9,94.7,918.1,48.8,846.5,48.8L846.5,48.8z"/>
	<path class="st0" d="M1116.4,48.8c-60.5,0-112.7,35.3-112.7,81.8c0,3.9,3.4,6.8,7.7,6.8h39.2c3.9,0,6.8-2.9,7.3-6.8
		c3.9-21.3,29.5-36.8,57.1-36.8c32.9,0,55.2,20.3,55.2,55.2V191c0,43-31.9,64.8-71.6,64.8c-31,0-48.9-11.6-48.9-30.5
		c0-16.5,8.7-30.5,44.5-38.7l51.8-14c5.3-1.5,7.3-5.8,6.3-10.6c-0.5-3.9-4.8-5.8-8.7-5.8h-53.7c-45.5,0-91.4,29-91.4,71.6v6.8
		c0,43.5,41.1,66.3,88,66.3c30,0,55.6-11.6,71.6-25.1l23.7-20.3c3.9-3.4,7.7-3.4,11.1,0c2.9,2.9,1.9,7.3-0.5,10.6l-14.5,22.7
		c-2.4,3.4-0.5,7.7,3.9,7.7h34.8c4.3,0,7.7-3.4,7.7-7.7V142.1C1224.3,86,1184.1,48.7,1116.4,48.8L1116.4,48.8z"/>
	<path class="st0" d="M1433.3,54.6h-54.2c-18.9,0-37.2,11.6-50.3,22.7l-21.3,18.4c-2.4,1.9-6.8,3.4-9.7,1c-3.4-2.4-4.8-7.3-1.9-11.1
		l15.5-23.2c2.4-3.4,0.5-7.7-3.9-7.7h-36.3c-4.3,0-7.7,3.4-7.7,7.7v226.4c0,4.4,3.4,7.7,7.7,7.7h39.7c4.3,0,7.7-3.4,7.7-7.7V172.6
		c0-49.8,20.3-72.1,64.3-72.1h50.3c4.3,0,7.7-3.4,7.7-7.7V62.3C1441,57.9,1437.6,54.6,1433.3,54.6L1433.3,54.6z"/>
</g>
<path class="st0" d="M314.6,0c-13,0-25.1,6.7-31.9,17.8l-73.4,108.9c-2.4,3.6-1.4,8.4,2.2,10.8c2.9,1.9,6.8,1.7,9.4-0.6l72.2-62.6
	c1.2-1.1,3-1,4.1,0.2c0.5,0.6,0.8,1.3,0.8,2v196.1c0,1.6-1.3,2.9-2.9,2.9c-0.9,0-1.7-0.4-2.2-1L74.6,13.2C67.4,4.8,57,0,46,0h-7.6
	C17.7,0,1,16.7,1,37.4v276.2C1,334.3,17.7,351,38.4,351c13,0,25.1-6.7,31.9-17.8l73.4-108.9c2.4-3.6,1.4-8.4-2.2-10.8
	c-2.9-1.9-6.8-1.7-9.4,0.6l-72.2,62.6c-1.2,1.1-3.1,1-4.1-0.2c-0.5-0.5-0.8-1.3-0.7-2V78.3c0-1.6,1.3-2.9,2.9-2.9
	c0.9,0,1.7,0.4,2.2,1.1l218.3,261.4c7.1,8.4,17.5,13.2,28.5,13.2h7.6c20.6,0,37.4-16.7,37.4-37.4V37.4C352,16.7,335.3,0,314.6,0
	L314.6,0z"/>
</svg>