<svg viewBox="0 0 192 40" version="1.1" xmlns="http://www.w3.org/2000/svg"
    xmlns:xlink="http://www.w3.org/1999/xlink">
    <g stroke="none" stroke-width="1" fill="none" fill-rule="evenodd">
        <path
            d="M8.91826923,0 C13.8436933,-9.04785727e-16 17.8365385,3.99284514 17.8365385,8.91826923 L17.8365385,17.8365385 L8.91826923,17.8365385 C3.99284514,17.8365385 6.03190485e-16,13.8436933 0,8.91826923 C-6.03190485e-16,3.99284514 3.99284514,-8.71571112e-16 8.91826923,0 Z M8.91826923,4.06410256 C6.23738701,4.06410256 4.06410256,6.23738701 4.06410256,8.91826923 C4.06410256,11.5991515 6.23738701,13.7724359 8.91826923,13.7724359 L13.7724359,13.7724359 L13.7724359,8.91826923 C13.7724359,6.23738701 11.5991515,4.06410256 8.91826923,4.06410256 Z M31.0817308,0 C36.0071549,-9.04785727e-16 40,3.99284514 40,8.91826923 C40,13.8436933 36.0071549,17.8365385 31.0817308,17.8365385 C26.1563067,17.8365385 22.1634615,13.8436933 22.1634615,8.91826923 C22.1634615,3.99284514 26.1563067,2.68114257e-15 31.0817308,0 Z M31.0817308,40 C26.1563067,40 22.1634615,36.0071549 22.1634615,31.0817308 L22.1634615,22.1634615 L31.0817308,22.1634615 C36.0071549,22.1634615 40,26.1563067 40,31.0817308 C40,36.0071549 36.0071549,40 31.0817308,40 Z M31.0817308,35.9358974 C33.762613,35.9358974 35.9358974,33.762613 35.9358974,31.0817308 C35.9358974,28.4008485 33.762613,26.2275641 31.0817308,26.2275641 L26.2275641,26.2275641 L26.2275641,31.0817308 C26.2275641,33.762613 28.4008485,35.9358974 31.0817308,35.9358974 Z M0.849358974,32.8784615 L7.12035897,39.1504615 L0.849358974,39.150641 L0.849358974,32.8784615 Z M3.40835135,24.5807297 L15.4201856,36.5907114 C14.5422623,37.4897438 13.4664965,38.1947247 12.2632669,38.6352752 L1.36472475,27.7367331 C1.80512224,26.5339217 2.50976623,25.4584855 3.40835135,24.5807297 Z M9.34294872,22.1634615 C14.0338288,22.1634615 17.8365385,25.9661712 17.8365385,30.6570513 C17.8365385,31.4764062 17.7205196,32.2686636 17.5040137,33.0182913 L6.98170865,22.4959863 C7.73133644,22.2794804 8.52359375,22.1634615 9.34294872,22.1634615 Z"
            fill="#FFFFFF"></path>
        <path
            d="M57.3674379,17.434388 C57.8042112,11.9672478 62.3820235,7.66666667 67.9649123,7.66666667 C73.8395167,7.66666667 78.5964912,12.4236412 78.5964912,18.2916667 C78.5964912,24.1596921 73.8395167,28.9166667 67.9714912,28.9166667 L62.2943333,28.9156667 L62.2947368,36 L57.3333333,36 L57.3333333,18.2916667 L57.3371549,18.0103879 C57.3422395,17.8191017 57.3523767,17.629075 57.3674379,17.4404361 Z M67.9649123,12.625 L67.7474184,12.6290944 C64.9077324,12.7361901 62.6025365,14.9315566 62.3231615,17.7238635 C62.304261,17.9105044 62.2947368,18.099974 62.2947368,18.2916667 C62.2947368,21.4212802 64.8333609,23.9583333 67.9649123,23.9583333 C71.0964637,23.9583333 73.6350877,21.4212802 73.6350877,18.2916667 C73.6350877,15.1620531 71.0964637,12.625 67.9649123,12.625 Z M106.981473,17.434388 C107.418246,11.9672478 111.996059,7.66666667 117.578947,7.66666667 C123.453552,7.66666667 128.210526,12.4236412 128.210526,18.2916667 C128.210526,24.1596921 123.453552,28.9166667 117.585526,28.9166667 L111.908368,28.9156667 L111.908772,36 L106.947368,36 L106.947368,18.2916667 L106.95119,18.0103879 C106.956275,17.8191017 106.966412,17.629075 106.981473,17.4404361 Z M117.578947,12.625 L117.361454,12.6290944 C114.521767,12.7361901 112.216572,14.9315566 111.937197,17.7238635 C111.918296,17.9105044 111.908772,18.099974 111.908772,18.2916667 C111.908772,21.4212802 114.447396,23.9583333 117.578947,23.9583333 C120.710499,23.9583333 123.249123,21.4212802 123.249123,18.2916667 C123.249123,15.1620531 120.710499,12.625 117.578947,12.625 Z M138.133333,18.9964912 C138.133333,22.1280427 140.671957,24.6666667 143.803509,24.6666667 C146.93506,24.6666667 149.473684,22.1280427 149.473684,18.9964912 L149.473684,9.79166667 L154.435088,9.79166667 L154.435088,18.9934211 C154.435088,24.86508 149.675168,29.625 143.803509,29.625 C137.93185,29.625 133.17193,24.86508 133.17193,18.9934211 L133.17193,9.79166667 L138.133333,9.79166667 Z M92.7719298,7.66666667 C98.6435887,7.66666667 103.403509,12.4236412 103.403509,18.2916667 C103.403509,24.1596921 98.6435887,28.9166667 92.7719298,28.9166667 C86.9002709,28.9166667 82.1403509,24.1596921 82.1403509,18.2916667 C82.1403509,12.4236412 86.9002709,7.66666667 92.7719298,7.66666667 Z M92.7719298,12.625 C89.6403784,12.625 87.1017544,15.1620531 87.1017544,18.2916667 C87.1017544,21.4212802 89.6403784,23.9583333 92.7719298,23.9583333 C95.9034812,23.9583333 98.4421053,21.4212802 98.4421053,18.2916667 C98.4421053,15.1620531 95.9034812,12.625 92.7719298,12.625 Z M160.105263,1.33333333 L165.066667,1.33333333 L165.066667,28.9166667 L160.105263,28.9166667 L160.105263,1.33333333 Z M181.007237,29.2708333 C174.943611,29.2708333 170.02807,24.355293 170.02807,18.2916667 C170.02807,12.2280404 174.943611,7.3125 181.007237,7.3125 C186.856924,7.3125 191.634454,11.8710219 191.979991,17.6235142 C191.993144,17.8470134 192,18.0719385 192,18.2984649 L192,29.2708333 L181.007237,29.2708333 Z M181.014035,12.2708333 C177.686762,12.2708333 174.989474,14.9664522 174.989474,18.2916667 C174.989474,21.6168811 177.686762,24.3125 181.014035,24.3125 C184.341308,24.3125 187.038596,21.6168811 187.038596,18.2916667 C187.038596,18.0981176 187.029458,17.9067016 187.011589,17.717826 C186.720538,14.661472 184.146468,12.2708333 181.014035,12.2708333 Z"
            fill="#FFFFFF" />
    </g>
</svg>