<?xml version="1.0" encoding="UTF-8" ?>
<!DOCTYPE svg PUBLIC "-//W3C//DTD SVG 1.1//EN" "http://www.w3.org/Graphics/SVG/1.1/DTD/svg11.dtd">
<svg width="240pt" height="240pt" viewBox="0 0 240 240" version="1.1" xmlns="http://www.w3.org/2000/svg">
<g id="#53557380">
<path fill="#535573" opacity="0.50" d=" M 59.96 33.97 C 69.10 29.72 79.42 31.26 89.16 31.04 C 94.68 32.17 94.01 39.51 96.97 42.97 C 112.34 43.28 127.77 43.04 143.16 43.09 C 145.02 39.80 145.67 35.89 147.75 32.71 C 149.51 30.49 152.56 31.05 155.03 31.00 C 163.60 31.21 172.55 29.99 180.65 33.50 C 190.46 37.30 198.14 45.81 201.31 55.80 C 205.22 68.96 208.66 82.27 212.59 95.42 C 216.08 96.20 219.83 96.26 223.01 98.09 C 227.27 100.42 230.00 105.16 230.05 110.00 C 230.36 118.32 230.68 126.64 230.98 134.96 C 231.35 140.15 228.57 145.44 223.98 147.94 C 221.64 149.15 219.23 150.22 216.80 151.23 C 213.29 147.20 208.97 143.90 204.14 141.61 C 207.34 133.10 207.63 123.60 205.24 114.84 C 200.19 96.92 195.19 78.97 190.09 61.06 C 187.97 53.48 182.15 47.05 174.72 44.40 C 168.04 42.08 160.84 43.21 153.92 42.98 C 151.80 47.30 150.73 53.68 144.96 54.49 C 129.33 54.92 113.66 54.54 98.01 54.68 C 94.72 54.93 91.23 53.40 89.63 50.43 C 88.41 48.18 87.66 45.71 86.71 43.33 L 86.09 42.98 C 79.37 43.14 72.29 42.09 65.96 44.92 C 59.11 47.76 53.92 53.93 51.87 61.01 C 46.77 79.12 41.67 97.23 36.59 115.34 C 33.17 127.29 35.13 140.68 42.04 151.04 C 45.66 156.32 49.50 161.46 53.27 166.64 C 58.09 173.14 65.96 177.24 74.07 177.35 C 79.65 177.37 85.23 177.37 90.81 177.33 C 90.98 181.54 90.87 185.77 90.87 189.98 C 79.70 189.61 67.82 191.65 57.39 186.56 C 49.60 183.17 43.85 176.64 39.24 169.70 C 35.50 164.42 31.43 159.34 28.29 153.66 C 22.62 150.42 15.33 149.30 11.39 143.64 C 9.60 141.14 8.86 137.98 9.02 134.93 C 9.37 126.25 9.60 117.57 10.04 108.89 C 10.44 102.92 15.22 97.62 21.11 96.56 C 23.79 95.73 27.09 96.12 29.42 94.64 C 32.96 82.09 36.44 69.53 40.02 57.00 C 42.91 46.91 50.24 38.07 59.96 33.97 Z" />
<path fill="#535573" opacity="0.50" d=" M 61.08 94.05 C 67.24 84.95 78.00 79.12 89.02 79.05 C 109.68 79.02 130.34 79.02 151.00 79.06 C 166.14 79.07 180.25 90.31 183.86 104.97 C 185.32 111.91 187.63 118.98 186.23 126.14 C 185.52 130.65 183.51 134.83 181.04 138.64 C 172.80 140.17 165.23 144.55 159.59 150.72 C 134.37 150.86 109.16 150.74 83.94 150.78 C 76.80 150.90 69.47 148.64 64.10 143.83 C 56.04 137.44 51.93 126.58 53.65 116.44 C 55.12 108.72 56.31 100.56 61.08 94.05 M 86.52 103.45 C 88.29 105.89 90.77 107.70 92.73 109.99 C 90.76 112.22 88.33 114.02 86.52 116.38 C 84.87 118.85 87.00 122.55 89.96 122.37 C 92.19 122.35 93.53 120.35 95.02 119.01 C 97.31 116.62 99.89 114.51 101.96 111.93 C 103.46 109.41 101.38 106.98 99.55 105.41 C 96.96 103.00 94.68 100.24 91.90 98.07 C 88.66 95.98 84.44 100.24 86.52 103.45 M 147.47 98.53 C 144.42 101.40 141.45 104.37 138.55 107.39 C 137.01 108.95 137.32 111.70 138.97 113.07 C 142.02 116.00 144.86 119.18 148.14 121.85 C 151.17 123.81 155.19 120.25 153.81 116.99 C 152.16 114.23 149.35 112.43 147.29 110.01 C 149.25 107.45 152.28 105.73 153.75 102.82 C 155.28 99.26 150.24 95.79 147.47 98.53 M 115.44 124.57 C 111.95 125.45 108.37 127.25 106.39 130.35 C 104.56 133.74 109.20 137.70 112.18 135.23 C 115.49 132.05 120.83 130.97 124.98 133.08 C 126.71 133.94 127.85 136.09 130.01 135.95 C 133.01 136.14 135.16 132.20 133.27 129.80 C 129.22 124.44 121.68 123.08 115.44 124.57 Z" />
<path fill="#535573" opacity="0.50" d=" M 99.45 172.89 C 99.22 170.35 101.37 167.86 103.98 168.05 C 106.64 168.13 108.00 170.70 109.64 172.40 C 117.78 181.62 125.72 191.03 134.00 200.12 C 134.65 192.86 134.27 185.25 134.20 177.88 C 130.85 179.54 128.44 182.78 125.05 184.39 C 123.20 183.86 124.82 182.18 125.29 181.30 C 127.81 177.49 130.21 173.60 132.76 169.80 C 134.92 166.62 140.44 168.27 140.52 172.11 C 140.61 183.10 140.54 194.09 140.55 205.08 C 140.77 207.62 138.61 210.22 135.96 209.94 C 133.07 209.80 131.69 206.82 129.86 205.02 C 121.80 196.03 114.13 186.58 105.83 177.87 C 105.65 185.24 105.47 192.77 105.92 200.10 C 108.85 198.29 111.52 196.09 114.43 194.24 C 114.73 194.28 115.32 194.36 115.62 194.40 C 115.64 194.70 115.70 195.30 115.72 195.60 C 112.89 199.82 110.09 204.06 107.17 208.22 C 104.99 211.27 99.68 209.66 99.50 205.94 C 99.37 194.92 99.48 183.90 99.45 172.89 Z" />
<path fill="#535573" opacity="0.50" d=" M 149.29 177.41 L 150.03 177.07 C 150.18 181.47 151.06 185.84 152.65 189.95 C 151.77 189.96 150.01 189.98 149.12 189.99 C 149.20 185.80 148.87 181.57 149.29 177.41 Z" />
</g>
<g id="#0d0e1cff">
<path fill="#0d0e1c" opacity="1.00" d=" M 86.52 103.45 C 84.44 100.24 88.66 95.98 91.90 98.07 C 94.68 100.24 96.96 103.00 99.55 105.41 C 101.38 106.98 103.46 109.41 101.96 111.93 C 99.89 114.51 97.31 116.62 95.02 119.01 C 93.53 120.35 92.19 122.35 89.96 122.37 C 87.00 122.55 84.87 118.85 86.52 116.38 C 88.33 114.02 90.76 112.22 92.73 109.99 C 90.77 107.70 88.29 105.89 86.52 103.45 Z" />
<path fill="#0d0e1c" opacity="1.00" d=" M 147.47 98.53 C 150.24 95.79 155.28 99.26 153.75 102.82 C 152.28 105.73 149.25 107.45 147.29 110.01 C 149.35 112.43 152.16 114.23 153.81 116.99 C 155.19 120.25 151.17 123.81 148.14 121.85 C 144.86 119.18 142.02 116.00 138.97 113.07 C 137.32 111.70 137.01 108.95 138.55 107.39 C 141.45 104.37 144.42 101.40 147.47 98.53 Z" />
<path fill="#0d0e1c" opacity="1.00" d=" M 115.44 124.57 C 121.68 123.08 129.22 124.44 133.27 129.80 C 135.16 132.20 133.01 136.14 130.01 135.95 C 127.85 136.09 126.71 133.94 124.98 133.08 C 120.83 130.97 115.49 132.05 112.18 135.23 C 109.20 137.70 104.56 133.74 106.39 130.35 C 108.37 127.25 111.95 125.45 115.44 124.57 Z" />
<path fill="#0d0e1c" opacity="1.00" d=" M 159.59 150.72 C 165.23 144.55 172.80 140.17 181.04 138.64 C 188.81 137.25 196.99 138.24 204.14 141.61 C 208.97 143.90 213.29 147.20 216.80 151.23 C 223.97 159.52 227.28 171.00 225.52 181.83 C 223.90 192.84 217.08 202.90 207.52 208.57 C 198.79 213.88 187.87 215.35 178.03 212.64 C 166.61 209.63 156.96 200.92 152.65 189.95 C 151.06 185.84 150.18 181.47 150.03 177.07 C 149.71 167.47 153.29 157.93 159.59 150.72 M 184.16 144.25 C 170.36 145.72 158.41 157.25 156.42 170.98 C 154.57 181.84 158.91 193.50 167.51 200.40 C 175.68 207.74 187.93 209.83 198.25 206.30 C 205.41 203.95 211.41 198.75 215.43 192.45 C 220.53 184.07 221.39 173.31 217.74 164.22 C 212.61 151.10 198.24 142.25 184.16 144.25 Z" />
<path fill="#0d0e1c" opacity="1.00" d=" M 175.82 168.96 C 174.43 165.91 178.00 162.39 181.02 163.85 C 183.78 165.45 185.48 168.36 188.06 170.19 C 190.52 168.24 192.27 165.41 195.03 163.85 C 198.04 162.39 201.58 165.98 200.17 168.99 C 198.62 171.77 195.61 173.40 193.90 176.03 C 195.68 178.61 198.66 180.25 200.16 183.05 C 201.57 186.00 198.10 189.53 195.12 188.19 C 192.27 186.74 190.66 183.67 188.04 181.94 C 185.35 183.58 183.76 186.71 180.91 188.20 C 177.88 189.53 174.44 186.02 175.82 183.02 C 177.35 180.24 180.39 178.63 182.05 176.00 C 180.38 173.36 177.32 171.75 175.82 168.96 Z" />
</g>
<g id="#ff7a7aff">
<path fill="#ff7a7a" opacity="1.00" d=" M 184.16 144.25 C 198.24 142.25 212.61 151.10 217.74 164.22 C 221.39 173.31 220.53 184.07 215.43 192.45 C 211.41 198.75 205.41 203.95 198.25 206.30 C 187.93 209.83 175.68 207.74 167.51 200.40 C 158.91 193.50 154.57 181.84 156.42 170.98 C 158.41 157.25 170.36 145.72 184.16 144.25 M 175.82 168.96 C 177.32 171.75 180.38 173.36 182.05 176.00 C 180.39 178.63 177.35 180.24 175.82 183.02 C 174.44 186.02 177.88 189.53 180.91 188.20 C 183.76 186.71 185.35 183.58 188.04 181.94 C 190.66 183.67 192.27 186.74 195.12 188.19 C 198.10 189.53 201.57 186.00 200.16 183.05 C 198.66 180.25 195.68 178.61 193.90 176.03 C 195.61 173.40 198.62 171.77 200.17 168.99 C 201.58 165.98 198.04 162.39 195.03 163.85 C 192.27 165.41 190.52 168.24 188.06 170.19 C 185.48 168.36 183.78 165.45 181.02 163.85 C 178.00 162.39 174.43 165.91 175.82 168.96 Z" />
</g>
</svg>
