<?xml version="1.0" encoding="UTF-8" ?>
<!DOCTYPE svg PUBLIC "-//W3C//DTD SVG 1.1//EN" "http://www.w3.org/Graphics/SVG/1.1/DTD/svg11.dtd">
<svg width="1080pt" height="1080pt" viewBox="0 0 1080 1080" version="1.1" xmlns="http://www.w3.org/2000/svg">
<g id="#bcbee9ff">
<path fill="#bcbee9" opacity="1.00" d=" M 306.89 105.54 C 332.93 105.12 358.98 105.49 385.03 105.34 C 391.83 105.05 398.87 107.41 403.66 112.36 C 408.25 116.81 409.35 123.41 412.00 129.00 C 417.17 140.57 421.22 152.59 425.97 164.33 C 501.99 164.38 578.01 164.38 654.02 164.33 C 660.14 148.41 666.27 132.49 673.00 116.83 C 677.02 109.39 685.63 105.16 693.94 105.35 C 711.96 105.37 729.98 105.35 748.00 105.36 C 766.42 105.58 785.04 104.35 803.22 108.04 C 815.80 110.19 828.26 113.57 839.73 119.26 C 848.33 122.97 856.88 126.97 864.52 132.45 C 870.04 136.63 876.36 139.77 881.13 144.90 C 888.71 150.93 895.20 158.14 901.86 165.13 C 905.27 168.85 907.75 173.28 910.88 177.23 C 914.74 182.14 917.97 187.50 920.93 192.99 C 925.74 202.40 930.78 211.78 933.83 221.96 C 938.48 237.98 943.59 253.89 947.60 270.10 C 951.90 286.58 957.31 302.75 961.42 319.29 C 965.31 334.51 970.50 349.36 974.18 364.64 C 978.85 382.79 984.87 400.56 989.30 418.78 C 1005.72 422.52 1023.46 422.19 1038.53 430.56 C 1043.90 433.61 1049.48 436.61 1053.76 441.17 C 1058.47 446.52 1063.72 451.60 1066.74 458.18 C 1071.54 467.98 1074.69 478.85 1074.59 489.82 C 1075.96 500.18 1074.63 510.68 1076.10 521.03 C 1076.93 530.34 1075.86 539.74 1077.12 549.03 C 1077.89 557.21 1077.29 565.45 1077.70 573.65 C 1078.43 580.07 1078.62 586.53 1078.54 592.99 C 1078.61 596.77 1077.96 600.81 1080.00 604.24 L 1080.00 620.89 C 1078.06 625.95 1078.00 631.52 1075.90 636.54 C 1072.29 645.41 1068.02 654.29 1061.07 661.07 C 1047.72 675.73 1027.72 680.46 1010.77 689.48 C 1004.86 692.41 998.54 694.49 992.79 697.72 C 988.30 704.65 985.14 712.46 980.15 719.12 C 975.87 724.60 972.76 730.91 968.20 736.18 C 963.61 741.67 959.71 747.69 955.21 753.26 C 948.48 761.59 942.54 770.51 935.63 778.69 C 931.05 785.97 924.97 792.10 920.25 799.28 C 906.10 818.50 889.25 836.12 868.89 848.80 C 860.95 854.85 851.66 858.64 842.74 862.95 C 830.51 868.87 817.20 872.12 803.93 874.76 C 781.59 879.38 758.67 878.08 736.00 878.27 C 718.16 878.16 700.32 878.47 682.49 878.12 C 682.42 857.92 682.45 837.73 682.47 817.53 C 712.64 817.47 742.82 817.61 772.99 817.46 C 790.91 815.91 809.01 811.86 824.73 802.82 C 842.99 793.81 858.25 779.56 870.43 763.40 C 875.27 757.53 879.22 750.98 884.33 745.32 C 887.74 741.31 890.29 736.66 893.67 732.62 C 899.29 726.15 903.85 718.86 909.32 712.26 C 915.53 704.43 921.21 696.19 927.32 688.29 C 932.72 678.95 938.97 670.05 943.19 660.08 C 946.79 651.29 950.87 642.67 953.73 633.59 C 957.75 619.50 960.76 605.09 962.19 590.49 C 963.15 576.56 963.11 562.54 962.17 548.61 C 960.64 534.59 957.73 520.75 954.09 507.14 C 950.34 493.87 946.01 480.77 942.77 467.37 C 938.97 452.16 933.84 437.34 929.98 422.15 C 925.67 404.53 919.63 387.39 915.35 369.76 C 912.53 358.00 908.46 346.59 905.40 334.90 C 902.31 324.04 899.77 313.02 896.36 302.25 C 888.97 278.97 884.69 254.68 874.98 232.16 C 871.55 223.77 866.22 216.37 861.13 208.94 C 855.58 202.18 849.93 195.38 842.97 190.00 C 835.65 183.23 826.82 178.51 818.19 173.66 C 805.91 167.71 792.49 164.30 778.99 162.60 C 754.04 161.90 729.06 162.39 704.10 162.26 C 700.84 169.15 698.51 176.44 695.26 183.35 C 692.15 190.88 689.94 199.13 684.23 205.23 C 678.13 211.53 670.40 216.57 661.71 218.34 C 652.18 219.47 642.57 219.07 633.00 219.13 C 573.66 219.13 514.33 219.13 455.00 219.13 C 443.14 218.92 431.21 219.73 419.41 218.30 C 406.40 215.21 394.73 205.84 389.97 193.18 C 386.23 182.75 381.73 172.62 377.56 162.35 C 358.56 162.19 339.55 162.16 320.55 162.37 C 305.17 162.03 290.00 165.95 275.79 171.59 C 267.59 175.45 259.75 180.10 252.32 185.29 C 238.85 195.54 227.44 208.49 219.04 223.19 C 214.51 232.37 210.18 241.71 207.30 251.56 C 203.63 265.38 200.14 279.27 195.66 292.85 C 191.68 307.05 188.33 321.43 183.87 335.49 C 178.54 352.59 174.88 370.17 169.19 387.16 C 164.98 401.64 161.69 416.38 157.11 430.75 C 152.27 446.36 148.69 462.32 143.92 477.95 C 140.87 486.94 138.69 496.20 136.21 505.36 C 132.89 518.13 128.93 530.80 127.27 543.93 C 124.93 558.47 125.01 573.27 125.68 587.94 C 126.75 606.65 131.30 624.95 137.01 642.75 C 140.30 654.01 146.17 664.23 151.11 674.80 C 155.53 683.13 161.21 690.69 166.26 698.63 C 168.94 702.87 172.50 706.46 175.23 710.67 C 180.25 718.55 186.39 725.63 191.56 733.41 C 195.98 740.23 201.48 746.27 205.77 753.17 C 208.29 757.21 211.54 760.73 214.33 764.58 C 219.20 771.92 225.64 778.02 231.80 784.25 C 238.57 789.52 244.92 795.52 252.63 799.44 C 261.04 804.03 269.48 808.84 278.77 811.45 C 289.55 814.74 300.71 816.78 311.95 817.49 C 340.47 817.58 368.99 817.47 397.50 817.54 C 397.51 837.77 397.61 858.00 397.45 878.23 C 372.97 878.31 348.48 878.24 324.00 878.26 C 316.89 878.20 309.74 878.57 302.67 877.64 C 287.99 877.39 273.61 874.04 259.45 870.40 C 254.21 868.87 249.00 867.15 243.97 865.02 C 233.31 859.86 222.07 855.58 212.59 848.34 C 200.92 841.04 190.39 832.03 180.95 822.05 C 174.67 816.26 169.95 809.10 164.46 802.62 C 161.22 798.73 158.94 794.17 155.82 790.20 C 149.86 783.06 145.10 775.05 139.35 767.75 C 134.12 761.21 130.06 753.83 124.59 747.47 C 121.03 742.96 118.28 737.86 114.63 733.41 C 106.48 723.15 100.97 711.08 93.56 700.38 C 85.02 695.97 75.82 692.89 67.25 688.49 C 55.76 682.48 43.19 678.68 32.18 671.73 C 17.47 663.31 7.54 648.35 2.76 632.35 C 1.73 628.56 1.50 624.56 0.00 620.90 L 0.00 604.23 C 0.73 602.56 1.57 600.87 1.44 599.00 C 1.48 590.54 1.26 582.06 2.31 573.65 C 2.73 564.27 1.97 554.83 3.26 545.50 C 3.96 535.90 2.95 526.22 4.39 516.67 C 4.95 507.43 4.32 498.14 5.46 488.94 C 5.23 479.94 7.92 471.19 11.05 462.86 C 14.70 453.41 21.58 445.77 28.72 438.80 C 37.82 431.75 48.35 426.14 59.76 424.05 C 72.85 421.54 86.14 420.09 99.15 417.27 C 103.26 405.70 105.75 393.65 109.13 381.88 C 112.37 370.18 116.21 358.65 119.13 346.86 C 123.28 330.33 128.75 314.18 132.95 297.68 C 136.20 284.58 140.28 271.71 144.02 258.75 C 147.98 244.03 151.38 229.09 157.26 214.98 C 160.57 205.58 164.89 196.54 170.34 188.18 C 174.58 180.15 180.27 173.02 185.97 165.98 C 199.22 149.77 215.89 136.63 233.90 126.09 C 238.90 123.67 243.91 121.27 248.99 119.02 C 267.05 110.47 287.06 106.73 306.89 105.54 Z" />
<path fill="#bcbee9" opacity="1.00" d=" M 378.40 339.46 C 427.59 339.07 476.80 339.41 526.00 339.30 C 583.34 339.29 640.68 339.30 698.03 339.29 C 712.19 340.34 726.44 342.32 739.85 347.24 C 751.36 351.56 763.29 355.45 773.37 362.69 C 793.30 373.82 810.05 390.09 823.69 408.27 C 829.70 417.74 836.35 426.91 840.45 437.43 C 843.24 444.91 846.88 452.09 848.84 459.87 C 852.05 470.65 853.46 481.85 856.10 492.77 C 858.19 504.55 862.20 516.01 862.81 528.02 C 864.08 533.26 863.65 538.66 863.70 544.00 C 863.68 548.67 864.00 553.42 862.86 558.01 C 862.05 571.29 857.76 584.03 853.30 596.47 C 850.67 603.14 847.78 609.76 843.67 615.67 C 832.16 636.59 814.32 653.52 794.30 666.26 C 783.28 671.95 772.31 678.11 760.16 681.07 C 747.09 684.80 733.52 686.25 720.01 687.21 C 599.67 687.21 479.33 687.25 359.00 687.20 C 343.09 686.10 327.11 683.95 311.98 678.73 C 302.75 675.56 294.30 670.60 285.60 666.28 C 265.44 653.37 247.48 636.26 235.81 615.21 C 228.75 605.00 225.19 592.94 221.31 581.29 C 218.50 572.77 217.48 563.85 216.31 555.02 C 216.26 547.32 216.32 539.63 216.29 531.93 C 217.48 515.71 222.36 500.07 225.39 484.14 C 227.95 471.11 230.21 457.82 235.81 445.68 C 239.75 435.78 243.78 425.76 250.18 417.15 C 254.79 409.34 260.31 402.12 266.39 395.40 C 270.62 391.33 273.94 386.35 278.74 382.88 C 284.23 377.59 290.40 373.10 296.46 368.50 C 300.88 365.53 305.75 363.29 310.05 360.12 C 318.13 355.31 326.95 351.91 335.76 348.66 C 349.34 343.17 363.91 340.83 378.40 339.46 Z" />
<path fill="#bcbee9" opacity="1.00" d=" M 452.13 774.33 C 459.68 770.55 470.03 771.73 475.60 778.40 C 480.25 783.41 485.13 788.23 489.18 793.75 C 491.97 797.58 495.91 800.38 498.69 804.22 C 501.44 807.80 504.23 811.36 507.52 814.48 C 511.70 818.37 514.55 823.41 518.59 827.43 C 524.64 833.42 529.53 840.45 535.50 846.52 C 543.89 856.45 552.70 866.00 561.01 875.99 C 564.58 879.43 567.72 883.26 570.80 887.13 C 574.13 891.76 578.88 895.14 582.06 899.91 C 585.93 905.63 591.68 909.73 595.57 915.43 C 598.79 920.09 603.28 923.64 606.71 928.12 C 607.72 929.22 608.57 931.04 610.39 930.82 C 610.44 892.81 610.60 854.80 610.31 816.80 C 608.45 817.66 606.64 818.68 605.12 820.07 C 596.44 827.46 587.03 833.93 578.43 841.41 C 574.09 844.16 570.38 847.80 566.01 850.48 C 562.71 850.66 559.94 846.68 561.96 843.83 C 566.13 836.82 570.47 829.90 575.26 823.28 C 581.59 812.11 589.49 801.92 595.81 790.73 C 599.37 785.99 602.14 780.59 606.44 776.46 C 612.21 772.08 620.37 771.10 626.99 774.12 C 632.84 776.13 636.65 781.68 638.39 787.39 C 639.51 793.86 639.06 800.46 639.14 807.00 C 639.15 845.67 639.14 884.33 639.15 923.00 C 638.93 934.67 639.63 946.38 638.69 958.03 C 638.40 963.32 635.01 967.79 631.06 971.07 C 623.20 977.58 610.03 976.56 603.78 968.27 C 596.80 961.53 591.17 953.61 584.44 946.66 C 571.03 931.06 557.31 915.74 543.95 900.11 C 538.55 895.11 534.83 888.63 529.46 883.61 C 525.06 879.58 522.10 874.29 517.83 870.14 C 512.66 865.25 508.91 859.11 503.64 854.32 C 499.11 848.88 494.65 843.41 489.68 838.37 C 484.69 831.73 478.71 825.96 473.48 819.53 C 472.45 818.29 471.21 817.22 469.70 816.62 C 469.34 836.07 469.65 855.54 469.55 875.00 C 469.63 893.10 469.36 911.21 469.68 929.30 C 472.15 929.10 473.88 927.24 475.81 925.92 C 488.65 917.22 501.03 907.86 513.99 899.39 C 516.12 899.01 517.45 900.90 518.41 902.51 C 519.40 904.73 517.61 906.80 516.53 908.61 C 513.22 913.31 510.38 918.34 506.84 922.88 C 503.08 927.62 500.47 933.14 496.84 937.97 C 489.51 947.72 483.73 958.55 476.02 968.02 C 472.53 972.00 467.41 974.83 462.02 974.66 C 453.84 975.29 445.87 969.90 442.59 962.52 C 440.88 958.94 441.13 954.85 440.85 951.00 C 440.86 902.66 440.85 854.33 440.86 806.00 C 440.90 799.79 440.55 793.54 441.60 787.40 C 443.17 781.92 446.72 776.60 452.13 774.33 Z" />
</g>
</svg>
