<?xml version="1.0" encoding="UTF-8" ?>
<!DOCTYPE svg PUBLIC "-//W3C//DTD SVG 1.1//EN" "http://www.w3.org/Graphics/SVG/1.1/DTD/svg11.dtd">
<svg width="240pt" height="240pt" viewBox="0 0 240 240" version="1.1" xmlns="http://www.w3.org/2000/svg">
<g id="#28283136">
<path fill="#282831" opacity="0.21" d=" M 204.64 20.56 C 206.88 17.88 208.01 14.44 210.11 11.63 C 211.92 14.57 213.14 17.90 215.37 20.57 C 218.11 22.47 221.21 23.79 224.06 25.52 C 221.20 27.26 218.08 28.56 215.33 30.48 C 213.18 32.97 212.19 36.22 210.34 38.91 C 207.27 37.10 207.14 32.16 204.06 30.04 C 201.42 28.41 198.60 27.10 195.94 25.50 C 198.80 23.78 201.90 22.47 204.64 20.56 Z" />
<path fill="#282831" opacity="0.21" d=" M 16.60 172.48 C 19.64 168.60 21.25 163.80 24.06 159.76 C 26.69 163.89 28.40 168.61 31.40 172.49 C 35.38 175.15 39.81 177.08 43.94 179.51 C 39.82 181.95 35.39 183.87 31.41 186.53 C 28.41 190.45 26.65 195.18 24.01 199.35 C 21.33 195.19 19.59 190.43 16.57 186.51 C 12.60 183.86 8.18 181.95 4.06 179.52 C 8.18 177.07 12.62 175.15 16.60 172.48 Z" />
</g>
<g id="#bcbee9ff">
<path fill="#bcbee9" opacity="1.00" d=" M 64.06 33.39 C 71.12 31.05 78.65 31.87 85.95 31.70 C 88.45 31.74 91.68 31.32 93.22 33.81 C 94.96 36.99 95.97 40.50 97.39 43.83 C 112.94 43.84 128.48 43.83 144.03 43.83 C 146.09 39.98 146.31 34.58 150.24 32.11 C 156.41 31.21 162.76 31.94 169.00 31.73 C 183.75 31.74 197.53 42.18 201.90 56.20 C 205.86 69.46 209.41 82.84 213.23 96.15 C 217.30 96.93 221.77 97.12 225.18 99.76 C 228.69 102.30 230.72 106.56 230.77 110.87 C 231.09 119.27 231.42 127.68 231.68 136.09 C 231.89 140.69 229.66 145.32 225.84 147.92 C 222.14 150.36 217.75 151.48 213.99 153.77 C 211.81 157.01 209.90 160.45 207.40 163.47 C 203.13 168.83 199.35 174.59 194.67 179.60 C 187.99 186.45 178.58 190.53 169.01 190.69 C 162.62 190.78 156.22 190.70 149.84 190.72 C 149.84 186.51 149.83 182.29 149.84 178.08 C 159.55 177.51 170.04 179.86 179.03 175.12 C 184.04 172.68 187.67 168.34 190.85 163.91 C 195.63 157.32 201.39 151.24 204.40 143.55 C 208.10 134.54 208.48 124.31 205.80 114.97 C 200.83 97.32 195.90 79.67 190.89 62.04 C 188.72 53.97 182.36 47.13 174.31 44.75 C 167.87 42.91 161.10 43.93 154.51 43.66 C 152.69 48.36 151.02 54.99 144.86 55.30 C 129.58 55.52 114.29 55.31 99.00 55.40 C 96.00 55.56 92.73 54.60 90.95 52.03 C 89.24 49.48 88.41 46.48 87.24 43.66 C 80.44 43.89 73.27 42.78 66.83 45.57 C 59.90 48.39 54.62 54.61 52.58 61.77 C 47.50 79.72 42.46 97.69 37.42 115.65 C 34.65 125.20 35.13 135.69 39.06 144.85 C 41.85 151.61 46.75 157.15 50.86 163.11 C 54.06 167.80 57.73 172.43 62.93 175.01 C 71.73 179.80 82.05 177.56 91.60 178.08 C 91.59 182.30 91.60 186.51 91.60 190.72 C 80.11 190.32 67.82 192.43 57.21 186.85 C 49.01 183.08 43.49 175.69 38.54 168.44 C 35.22 163.83 31.72 159.31 29.00 154.30 C 23.20 151.14 15.77 149.91 11.92 144.04 C 10.08 141.43 9.60 138.13 9.76 135.00 C 10.12 126.67 10.31 118.33 10.73 110.00 C 10.97 104.39 15.03 99.21 20.42 97.66 C 23.56 96.80 26.81 96.43 30.00 95.84 C 33.67 82.98 37.16 70.08 40.91 57.24 C 44.13 46.15 52.98 36.82 64.06 33.39 Z" />
<path fill="#bcbee9" opacity="1.00" d=" M 82.37 80.65 C 85.84 79.84 89.41 79.72 92.95 79.75 C 112.64 79.80 132.32 79.70 152.01 79.79 C 167.15 79.91 181.17 91.31 184.65 106.00 C 186.03 112.57 188.16 119.24 187.07 126.02 C 185.51 137.70 176.24 147.91 164.78 150.61 C 159.95 151.82 154.93 151.44 150.01 151.49 C 127.34 151.43 104.67 151.61 82.01 151.40 C 65.77 150.91 52.09 135.05 54.15 118.89 C 55.42 111.52 56.42 103.82 60.24 97.24 C 64.88 88.94 73.15 82.88 82.37 80.65 M 90.23 100.31 C 85.67 102.69 84.04 108.25 83.77 113.05 C 83.46 118.83 83.82 125.50 88.26 129.78 C 90.37 131.97 94.04 132.33 96.44 130.39 C 100.15 127.49 101.49 122.55 101.68 118.03 C 101.95 112.59 101.55 106.51 97.76 102.23 C 95.96 100.13 92.82 99.01 90.23 100.31 M 144.48 108.64 C 141.28 109.58 138.20 111.50 136.40 114.36 C 134.91 117.19 137.87 120.69 140.92 119.89 C 143.58 118.51 145.68 115.64 149.02 116.02 C 152.06 115.72 154.17 118.07 156.48 119.59 C 158.88 120.92 162.16 118.64 161.95 115.95 C 161.98 114.12 160.52 112.81 159.27 111.71 C 155.28 108.23 149.51 107.27 144.48 108.64 Z" />
<path fill="#bcbee9" opacity="1.00" d=" M 100.22 173.08 C 100.06 169.91 103.93 167.65 106.62 169.32 C 108.38 170.57 109.65 172.36 111.08 173.95 C 119.05 183.10 127.05 192.23 135.04 201.36 C 135.04 193.63 135.05 185.91 135.03 178.18 C 132.00 180.42 129.24 183.03 126.04 185.04 C 123.92 185.16 125.50 182.85 125.99 182.05 C 128.69 178.09 131.02 173.86 133.93 170.05 C 136.34 167.36 141.33 169.38 141.20 172.98 C 141.37 183.70 141.23 194.42 141.27 205.13 C 141.50 207.45 140.32 210.17 137.81 210.57 C 135.80 211.14 134.02 209.77 132.83 208.32 C 124.02 198.23 115.21 188.15 106.39 178.07 C 106.39 185.74 106.39 193.41 106.39 201.08 C 109.67 198.90 112.67 196.27 116.25 194.57 C 116.80 196.47 115.28 197.92 114.40 199.40 C 111.99 202.67 110.04 206.28 107.41 209.39 C 104.82 212.18 99.81 209.63 100.19 205.95 C 100.15 194.99 100.09 184.03 100.22 173.08 Z" />
</g>
<g id="#7b7d9aa8">
<path fill="#7b7d9a" opacity="0.66" d=" M 222.71 55.83 C 224.15 53.87 225.16 51.64 226.36 49.54 C 227.55 51.65 228.52 53.92 230.00 55.87 C 231.96 57.33 234.22 58.33 236.36 59.52 C 234.22 60.70 231.96 61.69 230.00 63.17 C 228.51 65.12 227.54 67.40 226.35 69.53 C 225.15 67.41 224.17 65.14 222.70 63.19 C 220.76 61.69 218.46 60.72 216.33 59.52 C 218.47 58.31 220.76 57.34 222.71 55.83 Z" />
</g>
<g id="#0d0e1cff">
<path fill="#0d0e1c" opacity="1.00" d=" M 90.23 100.31 C 92.82 99.01 95.96 100.13 97.76 102.23 C 101.55 106.51 101.95 112.59 101.68 118.03 C 101.49 122.55 100.15 127.49 96.44 130.39 C 94.04 132.33 90.37 131.97 88.26 129.78 C 83.82 125.50 83.46 118.83 83.77 113.05 C 84.04 108.25 85.67 102.69 90.23 100.31 Z" />
<path fill="#0d0e1c" opacity="1.00" d=" M 144.48 108.64 C 149.51 107.27 155.28 108.23 159.27 111.71 C 160.52 112.81 161.98 114.12 161.95 115.95 C 162.16 118.64 158.88 120.92 156.48 119.59 C 154.17 118.07 152.06 115.72 149.02 116.02 C 145.68 115.64 143.58 118.51 140.92 119.89 C 137.87 120.69 134.91 117.19 136.40 114.36 C 138.20 111.50 141.28 109.58 144.48 108.64 Z" />
</g>
</svg>
