<?xml version="1.0" encoding="utf-8"?>
<svg version="1.1" xmlns="http://www.w3.org/2000/svg" xmlns:xlink="http://www.w3.org/1999/xlink"
	x="0px" y="0px"
	viewBox="0 0 34 29" style="enable-background:new 0 0 34 29;" xml:space="preserve">
<style type="text/css">
	path {
		fill: #000000;
		}
		@media (prefers-color-scheme: dark) {
		path {
		fill: #ffffff;
		}
	}
</style>
<g>
	<g transform="translate(-23.000000, -27.000000)">
		<g transform="translate(23.000000, 27.000000)">
			<path class="st0" d="M14.5,22.2c0.2,0,0.3,0.1,0.5,0.2l0,0l4.2,5v-3.8l-1.3,1.1c-0.1,0.1-0.2,0-0.2,0
				c0-0.1,0-0.1,0-0.2l1.3-2.2c0.1-0.2,0.3-0.2,0.5-0.2c0.4,0,0.6,0.3,0.7,0.7l0,0v5.4c0,0.2-0.1,0.4-0.2,0.5
				c-0.3,0.2-0.7,0.2-0.9,0l0,0l-4.2-5v3.7l1.3-1c0.1-0.1,0.2,0,0.2,0c0,0.1,0,0.1,0,0.2L15,28.7c-0.2,0.3-0.7,0.3-0.9,0.1
				c-0.1-0.1-0.2-0.3-0.2-0.5l0,0v-5.4C13.9,22.5,14.2,22.2,14.5,22.2z M12.2,0c0.3,0,0.6,0.2,0.7,0.5L13.4,2h7.1l0.5-1.5
				C21.2,0.2,21.5,0,21.8,0l0.1,0h2.5c2.4,0,4.5,1.7,5.2,4.2l1.7,6.2l0.9,0.2c1,0.2,1.7,1,1.7,2L34,17c0,0.8-0.4,1.6-1.2,2l-1.5,0.7
				c-0.2,0.4-0.5,0.9-0.8,1.3l-1.7,2.4c-1.1,1.5-2.8,2.4-4.5,2.4l-2.8,0v-1.6l2.8,0c1.2,0,2.4-0.6,3.2-1.6l0.1-0.2l1.7-2.4
				c1.3-1.8,1.7-4.2,1.1-6.3l-2.4-9c-0.5-1.8-2-3-3.7-3h-2l-0.4,1.1l0,0l0,0c-0.2,0.5-0.7,0.8-1.2,0.8h-7.4l0,0l-0.1,0
				c-0.5,0-0.9-0.4-1.1-0.9l-0.4-1.1H9.9c-1.7,0-3.2,1.2-3.7,2.9l0,0.1l-2.4,9.1c-0.6,2.1-0.2,4.4,1,6.2l1.6,2.3
				c0.8,1.2,2.1,1.9,3.4,1.9l2.8,0v1.6l-2.8,0c-1.7,0-3.4-0.9-4.5-2.3l-0.2-0.2L3.6,21c-0.2-0.3-0.5-0.7-0.6-1.1L1.2,19
				C0.4,18.7,0,17.9,0,17l0.2-4.4c0-1,0.8-1.8,1.7-2l1.2-0.2l1.6-6.2C5.4,1.7,7.5,0,9.9,0H12.2z M21.6,7.8c2.5,0,4.7,1.8,5.2,4.3
				l0.3,1.5c0.5,2.6-1.2,5.2-3.8,5.7c-0.3,0.1-0.6,0.1-1,0.1H11.6c-2.7,0-4.9-2.2-4.9-4.9c0-0.3,0-0.6,0.1-0.9l0.3-1.5
				c0.5-2.5,2.7-4.3,5.2-4.3H21.6z M12.6,10.9c-0.8,0-1.5,1.1-1.5,2.5v0.5c0,1.4,0.7,2.5,1.5,2.5c0.8,0,1.5-1.1,1.5-2.5v-0.5
				C14,12,13.4,10.9,12.6,10.9z M21.5,10.9c-0.8,0-1.4,1.1-1.4,2.5v0.5c0,1.4,0.6,2.5,1.4,2.5s1.4-1.1,1.4-2.5v-0.5
				C22.9,12,22.3,10.9,21.5,10.9z"/>
		</g>
	</g>
</g>
</svg>