<?xml version="1.0" encoding="UTF-8" ?>
<!DOCTYPE svg PUBLIC "-//W3C//DTD SVG 1.1//EN" "http://www.w3.org/Graphics/SVG/1.1/DTD/svg11.dtd">
<svg width="1200pt" height="1200pt" viewBox="0 0 1200 1200" version="1.1" xmlns="http://www.w3.org/2000/svg">
<g id="#000000ff">
<path fill="#000000" opacity="1.00" d=" M 0.00 0.00 L 1200.00 0.00 L 1200.00 1200.00 L 0.00 1200.00 L 0.00 0.00 M 286.43 518.16 C 286.48 524.25 286.43 530.34 286.58 536.43 C 291.86 536.59 297.14 536.52 302.42 536.60 C 302.61 578.64 302.47 620.69 302.50 662.73 C 296.39 663.73 290.19 663.33 284.04 663.32 C 283.99 669.63 283.93 675.95 284.17 682.26 C 292.78 682.23 301.40 682.44 310.00 681.79 C 320.29 681.18 330.60 683.16 340.85 681.70 C 341.80 675.65 341.43 669.51 341.31 663.43 C 334.41 663.21 327.47 663.81 320.62 662.76 C 320.51 652.17 320.54 641.57 320.56 630.98 C 320.82 614.37 329.92 598.81 342.76 588.67 C 346.49 585.69 351.23 584.19 355.99 584.36 C 361.26 584.47 366.96 583.62 371.77 586.31 C 376.50 589.01 378.63 594.74 378.59 599.98 C 378.52 608.98 379.02 618.04 377.65 626.98 C 377.41 638.83 377.62 650.70 377.58 662.57 C 371.66 663.64 365.63 663.39 359.64 663.35 C 359.41 669.44 359.46 675.53 359.54 681.62 C 368.32 682.70 377.19 682.11 386.02 682.24 C 396.55 682.08 407.11 682.65 417.62 681.85 C 418.69 675.51 418.69 669.01 417.49 662.69 C 411.19 662.69 404.89 662.78 398.60 662.63 C 398.57 640.73 398.58 618.83 398.60 596.93 C 398.61 583.42 388.32 571.58 375.97 567.12 C 364.17 563.17 350.81 563.12 339.39 568.36 C 332.55 570.95 327.17 576.07 320.77 579.45 C 320.31 559.02 320.62 538.58 320.62 518.15 C 309.22 517.91 297.82 517.90 286.43 518.16 M 467.62 523.52 C 460.23 527.76 454.96 535.25 453.25 543.57 C 451.46 551.91 450.37 560.46 450.59 569.01 C 450.67 592.02 450.54 615.04 450.67 638.06 C 450.57 640.46 450.89 643.02 449.94 645.31 C 442.66 657.88 432.67 668.72 425.68 681.49 C 432.21 682.08 439.04 683.21 445.45 681.36 C 449.95 676.42 452.68 670.12 457.33 665.28 C 460.65 668.30 463.97 671.41 467.92 673.62 C 477.81 679.45 489.83 680.31 501.00 678.82 C 509.98 677.70 518.73 673.68 524.90 666.98 C 531.52 659.32 533.51 648.85 534.28 639.05 C 534.32 611.32 534.28 583.60 534.29 555.87 C 534.04 552.52 536.11 549.76 537.87 547.13 C 544.47 537.52 550.91 527.80 557.81 518.40 C 551.33 518.01 544.76 517.51 538.32 518.35 C 534.35 522.61 531.92 528.15 527.37 531.95 C 521.38 525.50 513.93 519.99 505.12 518.39 C 498.05 517.79 490.95 517.96 483.87 518.09 C 478.02 518.07 472.60 520.71 467.62 523.52 M 593.36 519.32 C 587.47 521.61 581.61 524.56 577.34 529.34 C 571.00 536.22 568.38 545.79 568.40 554.99 C 568.46 580.66 568.37 606.33 568.45 631.99 C 568.41 636.21 568.93 640.73 566.81 644.59 C 563.84 650.17 559.77 655.07 556.31 660.36 C 551.74 667.40 546.21 673.85 542.62 681.50 C 548.85 682.10 555.31 683.07 561.48 681.61 C 566.59 676.76 569.11 669.77 574.30 664.92 C 577.20 667.58 579.97 670.44 583.21 672.71 C 587.71 675.84 593.12 677.26 598.45 678.25 C 603.61 678.89 608.85 679.84 614.06 678.94 C 622.62 678.13 631.56 675.97 638.14 670.11 C 646.60 663.06 650.09 651.71 650.48 641.04 C 650.47 612.99 650.48 584.94 650.46 556.89 C 650.21 552.58 653.30 549.25 655.50 545.88 C 661.74 536.68 667.99 527.48 674.48 518.45 C 667.94 517.76 661.37 518.04 654.81 517.99 C 651.80 522.65 648.96 527.47 645.38 531.72 C 642.68 531.01 640.70 528.91 638.59 527.23 C 633.97 523.23 628.49 520.16 622.59 518.55 C 616.77 517.71 610.85 518.05 604.99 518.00 C 601.10 518.16 597.03 517.79 593.36 519.32 M 682.40 518.08 C 682.51 523.73 682.07 529.39 682.60 535.03 C 682.91 535.37 683.55 536.06 683.86 536.41 C 688.01 536.79 692.18 536.50 696.35 536.62 C 696.52 578.60 696.36 620.58 696.43 662.56 C 690.33 663.86 684.08 662.90 677.96 663.76 C 677.06 669.65 677.42 675.72 678.33 681.61 C 682.86 682.17 687.45 682.46 692.02 682.05 C 699.00 681.37 706.00 682.79 712.99 682.07 C 720.17 681.26 727.37 682.90 734.53 681.76 C 734.61 675.63 734.61 669.51 734.58 663.39 C 728.51 663.44 722.39 663.63 716.42 662.35 C 717.00 651.29 715.58 640.11 717.28 629.13 C 719.54 629.50 722.16 629.35 723.97 631.03 C 726.31 633.03 728.19 635.49 730.19 637.83 C 740.38 649.63 750.36 661.61 760.61 673.37 C 766.34 679.22 774.94 684.41 783.33 681.37 C 788.77 679.34 794.92 676.57 797.16 670.76 C 798.89 665.17 794.89 658.91 789.35 657.52 C 784.33 656.64 779.68 660.63 774.72 659.34 C 771.56 657.20 769.21 654.11 766.77 651.23 C 760.89 643.86 754.66 636.79 748.26 629.89 C 745.51 626.66 742.43 623.61 740.47 619.82 C 743.10 613.78 748.29 609.33 752.13 604.06 C 756.68 598.27 761.10 592.36 765.81 586.70 C 767.65 584.60 769.90 582.18 772.97 582.48 C 778.11 582.48 783.32 582.78 788.31 581.29 C 787.11 575.71 787.56 569.97 787.46 564.31 C 784.35 563.75 781.19 563.47 778.03 563.52 C 765.00 563.57 751.96 563.55 738.93 563.51 C 736.78 563.67 733.33 563.39 732.91 566.19 C 732.03 571.52 732.46 577.03 733.10 582.38 C 736.67 582.44 740.25 582.50 743.83 582.72 C 740.10 589.41 734.61 594.84 730.08 600.95 C 727.14 604.87 724.09 608.75 720.35 611.94 C 718.69 611.46 717.05 610.97 715.42 610.47 C 715.65 579.69 715.40 548.92 715.54 518.14 C 704.50 517.88 693.44 517.98 682.40 518.08 M 875.74 518.25 C 875.72 535.28 875.87 552.30 875.66 569.33 C 867.49 566.04 858.96 562.78 850.00 563.31 C 828.68 561.88 808.58 577.34 802.06 597.25 C 798.31 608.74 796.61 621.15 798.69 633.14 C 800.76 648.23 807.69 663.64 820.62 672.41 C 828.34 677.89 837.57 681.22 846.97 682.20 C 859.03 682.65 870.34 677.36 880.20 670.89 C 883.98 675.74 888.18 681.82 894.95 682.12 C 901.71 681.63 908.25 679.57 914.94 678.53 C 913.96 672.02 912.22 665.66 910.38 659.35 C 906.38 660.11 902.35 660.68 898.28 660.78 C 895.68 652.08 896.54 642.94 896.43 634.00 C 896.40 601.80 896.48 569.60 896.39 537.41 C 902.36 536.15 908.49 536.55 914.56 536.59 C 914.70 530.40 914.66 524.22 914.67 518.03 C 901.70 518.10 888.71 517.72 875.74 518.25 Z" />
<path fill="#000000" opacity="1.00" d=" M 471.45 551.89 C 471.45 542.77 480.29 535.38 489.08 535.27 C 492.78 535.23 496.55 535.01 500.21 535.76 C 505.77 537.37 510.73 541.40 512.99 546.80 C 514.34 549.93 513.96 553.72 511.88 556.46 C 499.16 574.52 486.36 592.53 474.00 610.85 C 473.35 610.43 472.04 609.58 471.38 609.16 C 471.58 590.07 471.41 570.98 471.45 551.89 Z" />
<path fill="#000000" opacity="1.00" d=" M 595.68 538.48 C 600.62 534.77 607.07 535.11 612.91 535.28 C 619.07 535.42 624.95 538.95 628.22 544.14 C 630.09 546.82 631.55 550.30 630.31 553.55 C 628.53 557.13 625.89 560.19 623.63 563.48 C 615.87 574.41 608.26 585.45 600.61 596.46 C 596.72 601.93 593.21 607.71 588.64 612.66 C 587.90 609.49 587.38 606.28 587.46 603.03 C 587.54 586.99 587.47 570.96 587.49 554.92 C 587.37 548.51 590.35 542.14 595.68 538.48 Z" />
<path fill="#000000" opacity="1.00" d=" M 630.08 582.27 C 630.69 585.46 631.38 588.66 631.38 591.93 C 631.34 607.97 631.32 624.01 631.38 640.05 C 631.43 645.55 630.23 651.38 626.45 655.58 C 622.23 660.61 615.29 662.17 609.01 662.32 C 601.96 661.93 593.84 659.89 590.15 653.25 C 588.61 650.30 586.28 646.48 588.48 643.28 C 602.33 622.94 616.71 602.94 630.08 582.27 Z" />
<path fill="#000000" opacity="1.00" d=" M 820.46 605.46 C 824.62 592.68 836.85 581.22 851.00 582.62 C 860.23 584.02 869.10 587.73 876.60 593.32 C 876.55 608.54 876.62 623.77 876.59 639.00 C 876.69 644.17 873.51 648.60 870.45 652.48 C 864.08 660.41 853.01 664.37 843.10 661.90 C 828.55 658.26 819.17 643.35 818.40 628.96 C 818.54 621.11 817.40 612.92 820.46 605.46 Z" />
<path fill="#000000" opacity="1.00" d=" M 505.83 593.85 C 508.17 590.35 510.81 587.06 513.64 583.94 C 514.16 586.57 514.52 589.25 514.49 591.95 C 514.43 608.67 514.43 625.38 514.50 642.10 C 514.85 651.74 506.70 661.19 496.89 661.50 C 491.62 661.50 486.03 662.22 481.09 659.94 C 476.42 657.81 472.86 653.43 471.56 648.49 C 470.72 645.16 472.82 642.14 474.50 639.48 C 484.96 624.28 495.53 609.16 505.83 593.85 Z" />
</g>
<g id="#f8f8f8ff">
<path fill="#f8f8f8" opacity="1.00" d=" M 286.43 518.16 C 297.82 517.90 309.22 517.91 320.62 518.15 C 320.62 538.58 320.31 559.02 320.77 579.45 C 327.17 576.07 332.55 570.95 339.39 568.36 C 350.81 563.12 364.17 563.17 375.97 567.12 C 388.32 571.58 398.61 583.42 398.60 596.93 C 398.58 618.83 398.57 640.73 398.60 662.63 C 404.89 662.78 411.19 662.69 417.49 662.69 C 418.69 669.01 418.69 675.51 417.62 681.85 C 407.11 682.65 396.55 682.08 386.02 682.24 C 377.19 682.11 368.32 682.70 359.54 681.62 C 359.46 675.53 359.41 669.44 359.64 663.35 C 365.63 663.39 371.66 663.64 377.58 662.57 C 377.62 650.70 377.41 638.83 377.65 626.98 C 379.02 618.04 378.52 608.98 378.59 599.98 C 378.63 594.74 376.50 589.01 371.77 586.31 C 366.96 583.62 361.26 584.47 355.99 584.36 C 351.23 584.19 346.49 585.69 342.76 588.67 C 329.92 598.81 320.82 614.37 320.56 630.98 C 320.54 641.57 320.51 652.17 320.62 662.76 C 327.47 663.81 334.41 663.21 341.31 663.43 C 341.43 669.51 341.80 675.65 340.85 681.70 C 330.60 683.16 320.29 681.18 310.00 681.79 C 301.40 682.44 292.78 682.23 284.17 682.26 C 283.93 675.95 283.99 669.63 284.04 663.32 C 290.19 663.33 296.39 663.73 302.50 662.73 C 302.47 620.69 302.61 578.64 302.42 536.60 C 297.14 536.52 291.86 536.59 286.58 536.43 C 286.43 530.34 286.48 524.25 286.43 518.16 Z" />
<path fill="#f8f8f8" opacity="1.00" d=" M 467.62 523.52 C 472.60 520.71 478.02 518.07 483.87 518.09 C 490.95 517.96 498.05 517.79 505.12 518.39 C 513.93 519.99 521.38 525.50 527.37 531.95 C 531.92 528.15 534.35 522.61 538.32 518.35 C 544.76 517.51 551.33 518.01 557.81 518.40 C 550.91 527.80 544.47 537.52 537.87 547.13 C 536.11 549.76 534.04 552.52 534.29 555.87 C 534.28 583.60 534.32 611.32 534.28 639.05 C 533.51 648.85 531.52 659.32 524.90 666.98 C 518.73 673.68 509.98 677.70 501.00 678.82 C 489.83 680.31 477.81 679.45 467.92 673.62 C 463.97 671.41 460.65 668.30 457.33 665.28 C 452.68 670.12 449.95 676.42 445.45 681.36 C 439.04 683.21 432.21 682.08 425.68 681.49 C 432.67 668.72 442.66 657.88 449.94 645.31 C 450.89 643.02 450.57 640.46 450.67 638.06 C 450.54 615.04 450.67 592.02 450.59 569.01 C 450.37 560.46 451.46 551.91 453.25 543.57 C 454.96 535.25 460.23 527.76 467.62 523.52 M 471.45 551.89 C 471.41 570.98 471.58 590.07 471.38 609.16 C 472.04 609.58 473.35 610.43 474.00 610.85 C 486.36 592.53 499.16 574.52 511.88 556.46 C 513.96 553.72 514.34 549.93 512.99 546.80 C 510.73 541.40 505.77 537.37 500.21 535.76 C 496.55 535.01 492.78 535.23 489.08 535.27 C 480.29 535.38 471.45 542.77 471.45 551.89 M 505.83 593.85 C 495.53 609.16 484.96 624.28 474.50 639.48 C 472.82 642.14 470.72 645.16 471.56 648.49 C 472.86 653.43 476.42 657.81 481.09 659.94 C 486.03 662.22 491.62 661.50 496.89 661.50 C 506.70 661.19 514.85 651.74 514.50 642.10 C 514.43 625.38 514.43 608.67 514.49 591.95 C 514.52 589.25 514.16 586.57 513.64 583.94 C 510.81 587.06 508.17 590.35 505.83 593.85 Z" />
<path fill="#f8f8f8" opacity="1.00" d=" M 593.36 519.32 C 597.03 517.79 601.10 518.16 604.99 518.00 C 610.85 518.05 616.77 517.71 622.59 518.55 C 628.49 520.16 633.97 523.23 638.59 527.23 C 640.70 528.91 642.68 531.01 645.38 531.72 C 648.96 527.47 651.80 522.65 654.81 517.99 C 661.37 518.04 667.94 517.76 674.48 518.45 C 667.99 527.48 661.74 536.68 655.50 545.88 C 653.30 549.25 650.21 552.58 650.46 556.89 C 650.48 584.94 650.47 612.99 650.48 641.04 C 650.09 651.71 646.60 663.06 638.14 670.11 C 631.56 675.97 622.62 678.13 614.06 678.94 C 608.85 679.84 603.61 678.89 598.45 678.25 C 593.12 677.26 587.71 675.84 583.21 672.71 C 579.97 670.44 577.20 667.58 574.30 664.92 C 569.11 669.77 566.59 676.76 561.48 681.61 C 555.31 683.07 548.85 682.10 542.62 681.50 C 546.21 673.85 551.74 667.40 556.31 660.36 C 559.77 655.07 563.84 650.17 566.81 644.59 C 568.93 640.73 568.41 636.21 568.45 631.99 C 568.37 606.33 568.46 580.66 568.40 554.99 C 568.38 545.79 571.00 536.22 577.34 529.34 C 581.61 524.56 587.47 521.61 593.36 519.32 M 595.68 538.48 C 590.35 542.14 587.37 548.51 587.49 554.92 C 587.47 570.96 587.54 586.99 587.46 603.03 C 587.38 606.28 587.90 609.49 588.64 612.66 C 593.21 607.71 596.72 601.93 600.61 596.46 C 608.26 585.45 615.87 574.41 623.63 563.48 C 625.89 560.19 628.53 557.13 630.31 553.55 C 631.55 550.30 630.09 546.82 628.22 544.14 C 624.95 538.95 619.07 535.42 612.91 535.28 C 607.07 535.11 600.62 534.77 595.68 538.48 M 630.08 582.27 C 616.71 602.94 602.33 622.94 588.48 643.28 C 586.28 646.48 588.61 650.30 590.15 653.25 C 593.84 659.89 601.96 661.93 609.01 662.32 C 615.29 662.17 622.23 660.61 626.45 655.58 C 630.23 651.38 631.43 645.55 631.38 640.05 C 631.32 624.01 631.34 607.97 631.38 591.93 C 631.38 588.66 630.69 585.46 630.08 582.27 Z" />
<path fill="#f8f8f8" opacity="1.00" d=" M 682.40 518.08 C 693.44 517.98 704.50 517.88 715.54 518.14 C 715.40 548.92 715.65 579.69 715.42 610.47 C 717.05 610.97 718.69 611.46 720.35 611.94 C 724.09 608.75 727.14 604.87 730.08 600.95 C 734.61 594.84 740.10 589.41 743.83 582.72 C 740.25 582.50 736.67 582.44 733.10 582.38 C 732.46 577.03 732.03 571.52 732.91 566.19 C 733.33 563.39 736.78 563.67 738.93 563.51 C 751.96 563.55 765.00 563.57 778.03 563.52 C 781.19 563.47 784.35 563.75 787.46 564.31 C 787.56 569.97 787.11 575.71 788.31 581.29 C 783.32 582.78 778.11 582.48 772.97 582.48 C 769.90 582.18 767.65 584.60 765.81 586.70 C 761.10 592.36 756.68 598.27 752.13 604.06 C 748.29 609.33 743.10 613.78 740.47 619.82 C 742.43 623.61 745.51 626.66 748.26 629.89 C 754.66 636.79 760.89 643.86 766.77 651.23 C 769.21 654.11 771.56 657.20 774.72 659.34 C 779.68 660.63 784.33 656.64 789.35 657.52 C 794.89 658.91 798.89 665.17 797.16 670.76 C 794.92 676.57 788.77 679.34 783.33 681.37 C 774.94 684.41 766.34 679.22 760.61 673.37 C 750.36 661.61 740.38 649.63 730.19 637.83 C 728.19 635.49 726.31 633.03 723.97 631.03 C 722.16 629.35 719.54 629.50 717.28 629.13 C 715.58 640.11 717.00 651.29 716.42 662.35 C 722.39 663.63 728.51 663.44 734.58 663.39 C 734.61 669.51 734.61 675.63 734.53 681.76 C 727.37 682.90 720.17 681.26 712.99 682.07 C 706.00 682.79 699.00 681.37 692.02 682.05 C 687.45 682.46 682.86 682.17 678.33 681.61 C 677.42 675.72 677.06 669.65 677.96 663.76 C 684.08 662.90 690.33 663.86 696.43 662.56 C 696.36 620.58 696.52 578.60 696.35 536.62 C 692.18 536.50 688.01 536.79 683.86 536.41 C 683.55 536.06 682.91 535.37 682.60 535.03 C 682.07 529.39 682.51 523.73 682.40 518.08 Z" />
<path fill="#f8f8f8" opacity="1.00" d=" M 875.74 518.25 C 888.71 517.72 901.70 518.10 914.67 518.03 C 914.66 524.22 914.70 530.40 914.56 536.59 C 908.49 536.55 902.36 536.15 896.39 537.41 C 896.48 569.60 896.40 601.80 896.43 634.00 C 896.54 642.94 895.68 652.08 898.28 660.78 C 902.35 660.68 906.38 660.11 910.38 659.35 C 912.22 665.66 913.96 672.02 914.94 678.53 C 908.25 679.57 901.71 681.63 894.95 682.12 C 888.18 681.82 883.98 675.74 880.20 670.89 C 870.34 677.36 859.03 682.65 846.97 682.20 C 837.57 681.22 828.34 677.89 820.62 672.41 C 807.69 663.64 800.76 648.23 798.69 633.14 C 796.61 621.15 798.31 608.74 802.06 597.25 C 808.58 577.34 828.68 561.88 850.00 563.31 C 858.96 562.78 867.49 566.04 875.66 569.33 C 875.87 552.30 875.72 535.28 875.74 518.25 M 820.46 605.46 C 817.40 612.92 818.54 621.11 818.40 628.96 C 819.17 643.35 828.55 658.26 843.10 661.90 C 853.01 664.37 864.08 660.41 870.45 652.48 C 873.51 648.60 876.69 644.17 876.59 639.00 C 876.62 623.77 876.55 608.54 876.60 593.32 C 869.10 587.73 860.23 584.02 851.00 582.62 C 836.85 581.22 824.62 592.68 820.46 605.46 Z" />
</g>
</svg>
