<?xml version="1.0" encoding="UTF-8" ?>
<!DOCTYPE svg PUBLIC "-//W3C//DTD SVG 1.1//EN" "http://www.w3.org/Graphics/SVG/1.1/DTD/svg11.dtd">
<svg width="250pt" height="250pt" viewBox="0 0 250 250" version="1.1" xmlns="http://www.w3.org/2000/svg">
<g id="#070c2bff">
<path fill="#070c2b" opacity="1.00" d=" M 0.00 0.00 L 250.00 0.00 L 250.00 250.00 L 0.00 250.00 L 0.00 0.00 M 122.21 61.91 C 121.53 70.86 128.31 79.51 137.07 81.22 C 142.34 82.43 147.90 81.03 152.30 77.98 C 152.17 87.24 152.26 96.50 152.24 105.77 C 137.50 105.80 122.76 105.71 108.02 105.80 C 98.58 106.03 90.14 114.42 90.16 123.92 C 90.14 138.59 90.14 153.26 90.17 167.94 C 83.76 168.23 76.94 166.95 70.92 169.78 C 64.03 172.86 59.44 180.49 60.24 188.05 C 60.56 196.66 67.78 203.77 76.04 205.32 C 83.78 206.62 92.03 202.66 95.63 195.64 C 99.01 189.52 97.40 182.31 97.75 175.65 C 107.13 175.61 116.51 175.70 125.89 175.60 C 121.75 181.09 120.99 188.84 124.01 195.01 C 127.18 201.70 134.56 206.15 141.98 205.59 C 151.59 205.40 160.11 196.67 159.87 187.01 C 160.30 177.21 151.80 168.28 142.03 168.04 C 127.28 167.75 112.52 168.00 97.77 167.92 C 97.72 158.56 97.85 149.19 97.69 139.83 C 102.13 142.75 107.62 144.30 112.88 143.05 C 121.20 141.41 127.85 133.58 127.81 125.04 C 128.04 120.86 126.50 116.83 124.15 113.44 C 133.52 113.51 142.89 113.42 152.26 113.49 C 152.57 120.16 151.00 127.40 154.43 133.52 C 158.20 140.74 166.97 144.87 174.94 143.06 C 183.64 141.39 190.48 132.90 189.88 123.99 C 189.86 115.22 182.74 107.25 174.09 106.01 C 169.37 105.46 164.59 105.91 159.85 105.76 C 159.84 91.15 159.88 76.54 159.83 61.92 C 159.77 52.17 150.73 43.65 140.99 44.10 C 131.27 43.66 122.35 52.21 122.21 61.91 Z" />
<path fill="#070c2b" opacity="1.00" d=" M 136.46 52.65 C 142.40 49.61 150.24 53.52 151.82 59.88 C 154.02 66.64 148.02 74.21 141.00 73.92 C 135.12 74.06 129.92 68.85 129.80 63.02 C 129.78 58.67 132.45 54.40 136.46 52.65 Z" />
<path fill="#070c2b" opacity="1.00" d=" M 104.37 114.46 C 112.19 110.38 122.20 118.54 119.88 127.00 C 118.44 134.84 107.82 138.65 101.89 133.18 C 95.44 128.41 97.03 117.46 104.37 114.46 Z" />
<path fill="#070c2b" opacity="1.00" d=" M 166.38 114.52 C 172.48 111.34 180.52 115.46 181.96 122.06 C 183.81 128.74 177.91 135.99 171.04 135.75 C 164.83 135.92 159.39 130.03 159.87 123.87 C 160.21 119.90 162.73 116.17 166.38 114.52 Z" />
<path fill="#070c2b" opacity="1.00" d=" M 74.44 176.67 C 80.41 173.68 88.26 177.64 89.75 184.06 C 91.79 190.70 85.96 198.22 79.03 197.95 C 73.39 198.30 68.34 193.54 67.77 188.04 C 67.25 183.35 70.08 178.50 74.44 176.67 Z" />
<path fill="#070c2b" opacity="1.00" d=" M 136.45 176.71 C 142.44 173.65 150.36 177.61 151.86 184.07 C 153.91 190.78 148.00 198.29 141.01 197.95 C 135.11 198.14 129.94 192.87 129.81 187.06 C 129.79 182.72 132.43 178.44 136.45 176.71 Z" />
</g>
<g id="#fe2424ff">
<path fill="#fe2424" opacity="1.00" d=" M 122.21 61.91 C 122.35 52.21 131.27 43.66 140.99 44.10 C 150.73 43.65 159.77 52.17 159.83 61.92 C 159.88 76.54 159.84 91.15 159.85 105.76 C 164.59 105.91 169.37 105.46 174.09 106.01 C 182.74 107.25 189.86 115.22 189.88 123.99 C 190.48 132.90 183.64 141.39 174.94 143.06 C 166.97 144.87 158.20 140.74 154.43 133.52 C 151.00 127.40 152.57 120.16 152.26 113.49 C 142.89 113.42 133.52 113.51 124.15 113.44 C 126.50 116.83 128.04 120.86 127.81 125.04 C 127.85 133.58 121.20 141.41 112.88 143.05 C 107.62 144.30 102.13 142.75 97.69 139.83 C 97.85 149.19 97.72 158.56 97.77 167.92 C 112.52 168.00 127.28 167.75 142.03 168.04 C 151.80 168.28 160.30 177.21 159.87 187.01 C 160.11 196.67 151.59 205.40 141.98 205.59 C 134.56 206.15 127.18 201.70 124.01 195.01 C 120.99 188.84 121.75 181.09 125.89 175.60 C 116.51 175.70 107.13 175.61 97.75 175.65 C 97.40 182.31 99.01 189.52 95.63 195.64 C 92.03 202.66 83.78 206.62 76.04 205.32 C 67.78 203.77 60.56 196.66 60.24 188.05 C 59.44 180.49 64.03 172.86 70.92 169.78 C 76.94 166.95 83.76 168.23 90.17 167.94 C 90.14 153.26 90.14 138.59 90.16 123.92 C 90.14 114.42 98.58 106.03 108.02 105.80 C 122.76 105.71 137.50 105.80 152.24 105.77 C 152.26 96.50 152.17 87.24 152.30 77.98 C 147.90 81.03 142.34 82.43 137.07 81.22 C 128.31 79.51 121.53 70.86 122.21 61.91 M 136.46 52.65 C 132.45 54.40 129.78 58.67 129.80 63.02 C 129.92 68.85 135.12 74.06 141.00 73.92 C 148.02 74.21 154.02 66.64 151.82 59.88 C 150.24 53.52 142.40 49.61 136.46 52.65 M 104.37 114.46 C 97.03 117.46 95.44 128.41 101.89 133.18 C 107.82 138.65 118.44 134.84 119.88 127.00 C 122.20 118.54 112.19 110.38 104.37 114.46 M 166.38 114.52 C 162.73 116.17 160.21 119.90 159.87 123.87 C 159.39 130.03 164.83 135.92 171.04 135.75 C 177.91 135.99 183.81 128.74 181.96 122.06 C 180.52 115.46 172.48 111.34 166.38 114.52 M 74.44 176.67 C 70.08 178.50 67.25 183.35 67.77 188.04 C 68.34 193.54 73.39 198.30 79.03 197.95 C 85.96 198.22 91.79 190.70 89.75 184.06 C 88.26 177.64 80.41 173.68 74.44 176.67 M 136.45 176.71 C 132.43 178.44 129.79 182.72 129.81 187.06 C 129.94 192.87 135.11 198.14 141.01 197.95 C 148.00 198.29 153.91 190.78 151.86 184.07 C 150.36 177.61 142.44 173.65 136.45 176.71 Z" />
</g>
</svg>
