<?xml version="1.0" encoding="UTF-8" ?>
<!DOCTYPE svg PUBLIC "-//W3C//DTD SVG 1.1//EN" "http://www.w3.org/Graphics/SVG/1.1/DTD/svg11.dtd">
<svg width="864pt" height="864pt" viewBox="0 0 864 864" version="1.1" xmlns="http://www.w3.org/2000/svg">
<g id="#ffffffff">
<path fill="#ffffff" opacity="1.00" d=" M 0.00 0.00 L 864.00 0.00 L 864.00 864.00 L 0.00 864.00 L 0.00 0.00 M 253.47 216.63 C 233.32 220.07 216.92 238.36 216.01 258.83 C 215.99 374.29 215.99 489.76 216.01 605.22 C 216.74 618.33 223.60 630.93 234.11 638.79 C 242.04 644.82 252.03 648.29 262.03 648.02 C 276.49 648.36 290.82 641.02 299.26 629.33 C 330.00 583.69 360.77 538.06 391.50 492.41 C 393.76 489.41 394.18 485.10 392.17 481.86 C 389.56 476.90 382.31 475.07 377.88 478.72 C 347.97 504.49 318.22 530.46 288.32 556.25 C 286.07 558.69 282.11 556.08 282.51 553.09 C 282.50 473.08 282.50 393.06 282.51 313.04 C 282.01 309.68 286.56 307.27 288.71 310.15 C 376.11 414.83 463.52 519.49 550.92 624.17 C 554.59 628.49 558.00 633.07 562.28 636.83 C 568.28 642.07 575.67 645.73 583.49 647.24 C 589.56 648.54 595.79 647.80 601.94 648.01 C 621.26 648.64 639.82 635.16 645.70 616.82 C 649.09 607.92 647.74 598.30 648.00 589.01 C 647.99 478.94 648.01 368.87 647.99 258.80 C 647.26 245.62 640.34 232.97 629.75 225.11 C 619.15 216.94 604.91 214.13 591.91 216.96 C 581.11 219.33 571.19 225.71 564.72 234.69 C 534.00 280.31 503.25 325.91 472.54 371.53 C 470.25 374.53 469.83 378.80 471.77 382.08 C 474.38 387.05 481.61 388.95 486.08 385.31 C 515.99 359.53 545.76 333.58 575.65 307.78 C 577.89 305.30 581.88 307.89 581.49 310.90 C 581.50 390.91 581.50 470.92 581.49 550.92 C 582.00 554.25 577.50 556.73 575.33 553.89 C 488.06 449.39 400.80 344.88 313.53 240.38 C 309.25 235.35 305.31 229.94 300.11 225.81 C 291.92 219.33 281.47 215.62 271.00 215.99 C 265.16 216.19 259.25 215.50 253.47 216.63 Z" />
</g>
<g id="#000000ff">
<path fill="#000000" opacity="1.00" d=" M 253.47 216.63 C 259.25 215.50 265.16 216.19 271.00 215.99 C 281.47 215.62 291.92 219.33 300.11 225.81 C 305.31 229.94 309.25 235.35 313.53 240.38 C 400.80 344.88 488.06 449.39 575.33 553.89 C 577.50 556.73 582.00 554.25 581.49 550.92 C 581.50 470.92 581.50 390.91 581.49 310.90 C 581.88 307.89 577.89 305.30 575.65 307.78 C 545.76 333.58 515.99 359.53 486.08 385.31 C 481.61 388.95 474.38 387.05 471.77 382.08 C 469.83 378.80 470.25 374.53 472.54 371.53 C 503.25 325.91 534.00 280.31 564.72 234.69 C 571.19 225.71 581.11 219.33 591.91 216.96 C 604.91 214.13 619.15 216.94 629.75 225.11 C 640.34 232.97 647.26 245.62 647.99 258.80 C 648.01 368.87 647.99 478.94 648.00 589.01 C 647.74 598.30 649.09 607.92 645.70 616.82 C 639.82 635.16 621.26 648.64 601.94 648.01 C 595.79 647.80 589.56 648.54 583.49 647.24 C 575.67 645.73 568.28 642.07 562.28 636.83 C 558.00 633.07 554.59 628.49 550.92 624.17 C 463.52 519.49 376.11 414.83 288.71 310.15 C 286.56 307.27 282.01 309.68 282.51 313.04 C 282.50 393.06 282.50 473.08 282.51 553.09 C 282.11 556.08 286.07 558.69 288.32 556.25 C 318.22 530.46 347.97 504.49 377.88 478.72 C 382.31 475.07 389.56 476.90 392.17 481.86 C 394.18 485.10 393.76 489.41 391.50 492.41 C 360.77 538.06 330.00 583.69 299.26 629.33 C 290.82 641.02 276.49 648.36 262.03 648.02 C 252.03 648.29 242.04 644.82 234.11 638.79 C 223.60 630.93 216.74 618.33 216.01 605.22 C 215.99 489.76 215.99 374.29 216.01 258.83 C 216.92 238.36 233.32 220.07 253.47 216.63 Z" />
</g>
</svg>
