<?xml version="1.0" encoding="UTF-8" ?>
<!DOCTYPE svg PUBLIC "-//W3C//DTD SVG 1.1//EN" "http://www.w3.org/Graphics/SVG/1.1/DTD/svg11.dtd">
<svg width="900pt" height="900pt" viewBox="0 0 900 900" version="1.1" xmlns="http://www.w3.org/2000/svg">
<g id="#0945a5ff">
<path fill="#0945a5" opacity="1.00" d=" M 0.00 0.00 L 900.00 0.00 L 900.00 900.00 L 0.00 900.00 L 0.00 0.00 M 424.34 160.30 C 393.54 162.83 363.21 171.54 335.82 185.88 C 286.71 211.22 247.24 254.52 226.51 305.73 C 216.44 330.05 210.94 356.16 209.41 382.39 C 209.16 428.95 209.39 475.51 209.29 522.07 C 208.92 535.13 220.94 547.05 233.98 546.67 C 242.21 547.17 250.47 542.91 255.18 536.22 C 259.06 530.98 260.06 524.36 260.22 518.01 C 260.31 473.00 260.12 427.99 260.32 382.99 C 263.14 329.99 290.78 279.04 333.32 247.37 C 358.33 228.33 388.37 216.01 419.53 211.90 C 431.58 209.98 443.84 210.38 456.00 210.61 C 484.25 212.51 512.07 220.94 536.49 235.33 C 569.93 254.74 596.86 285.00 612.40 320.40 C 620.59 338.92 625.44 358.82 627.43 378.94 C 627.82 392.62 627.58 406.31 627.65 420.00 C 627.64 453.35 627.66 486.70 627.63 520.06 C 627.66 529.61 632.54 539.40 641.30 543.77 C 646.51 546.99 652.83 547.09 658.73 546.33 C 670.02 543.79 679.36 532.84 678.59 521.03 C 678.49 475.02 678.72 429.00 678.46 382.99 C 676.17 334.73 658.47 287.34 628.55 249.39 C 606.34 221.23 577.77 198.05 545.38 182.58 C 508.01 164.42 465.70 156.84 424.34 160.30 M 373.29 325.81 C 359.66 328.01 347.77 338.45 344.13 351.80 C 339.81 365.60 345.55 381.38 356.93 390.03 C 367.64 398.54 383.36 399.93 395.41 393.41 C 410.33 385.93 418.36 367.33 413.38 351.36 C 408.68 334.51 390.58 322.83 373.29 325.81 M 503.32 325.87 C 489.47 328.10 477.47 338.95 474.13 352.61 C 471.96 361.98 473.24 372.29 478.45 380.49 C 486.20 393.05 502.03 400.10 516.50 396.70 C 525.75 394.73 534.03 388.98 539.21 381.08 C 545.86 371.01 546.74 357.45 541.72 346.53 C 535.34 332.18 518.86 323.08 503.32 325.87 M 542.43 472.77 C 534.83 474.60 528.14 480.10 525.19 487.39 C 523.03 491.60 523.41 496.42 523.39 501.00 C 523.49 535.00 523.24 569.00 523.52 603.00 C 524.83 626.76 532.69 651.12 549.51 668.49 C 562.44 682.07 580.38 690.49 598.98 692.45 C 604.98 692.67 611.01 692.69 617.02 692.43 C 629.96 690.89 642.70 687.33 654.43 681.62 C 665.00 676.58 670.74 663.26 667.06 652.13 C 665.06 645.34 660.04 639.57 653.72 636.45 C 648.42 633.69 642.14 634.02 636.42 634.84 C 628.49 637.66 620.71 641.95 612.04 641.67 C 597.59 642.86 583.85 632.99 578.34 619.95 C 574.51 610.85 573.22 600.82 573.49 591.00 C 573.49 559.99 573.50 528.99 573.49 497.98 C 573.87 488.64 568.53 479.24 560.15 475.01 C 554.81 471.91 548.36 471.98 542.43 472.77 M 330.59 473.62 C 321.04 477.02 313.94 486.74 314.41 496.98 C 314.42 553.99 314.41 611.01 314.42 668.02 C 313.86 681.10 325.89 693.26 339.00 692.65 C 352.36 693.47 364.30 681.19 364.25 668.02 C 364.35 613.01 364.25 558.01 364.30 503.00 C 364.34 498.26 364.50 493.38 362.79 488.88 C 359.95 480.73 352.63 474.06 344.06 472.60 C 339.58 472.25 334.86 471.95 330.59 473.62 M 437.28 472.95 C 426.67 475.75 418.85 486.04 418.55 496.95 C 418.54 571.32 418.55 645.69 418.55 720.06 C 418.70 730.30 425.21 740.24 434.96 743.74 C 444.51 747.74 456.12 744.41 462.88 736.79 C 467.04 731.91 469.34 725.48 469.35 719.08 C 469.30 645.03 469.36 570.98 469.32 496.92 C 468.96 487.93 463.73 479.34 455.78 475.06 C 450.23 471.83 443.43 471.87 437.28 472.95 Z" />
</g>
<g id="#ffffffff">
<path fill="#ffffff" opacity="1.00" d=" M 424.34 160.30 C 465.70 156.84 508.01 164.42 545.38 182.58 C 577.77 198.05 606.34 221.23 628.55 249.39 C 658.47 287.34 676.17 334.73 678.46 382.99 C 678.72 429.00 678.49 475.02 678.59 521.03 C 679.36 532.84 670.02 543.79 658.73 546.33 C 652.83 547.09 646.51 546.99 641.30 543.77 C 632.54 539.40 627.66 529.61 627.63 520.06 C 627.66 486.70 627.64 453.35 627.65 420.00 C 627.58 406.31 627.82 392.62 627.43 378.94 C 625.44 358.82 620.59 338.92 612.40 320.40 C 596.86 285.00 569.93 254.74 536.49 235.33 C 512.07 220.94 484.25 212.51 456.00 210.61 C 443.84 210.38 431.58 209.98 419.53 211.90 C 388.37 216.01 358.33 228.33 333.32 247.37 C 290.78 279.04 263.14 329.99 260.32 382.99 C 260.12 427.99 260.31 473.00 260.22 518.01 C 260.06 524.36 259.06 530.98 255.18 536.22 C 250.47 542.91 242.21 547.17 233.98 546.67 C 220.94 547.05 208.92 535.13 209.29 522.07 C 209.39 475.51 209.16 428.95 209.41 382.39 C 210.94 356.16 216.44 330.05 226.51 305.73 C 247.24 254.52 286.71 211.22 335.82 185.88 C 363.21 171.54 393.54 162.83 424.34 160.30 Z" />
<path fill="#ffffff" opacity="1.00" d=" M 373.29 325.81 C 390.58 322.83 408.68 334.51 413.38 351.36 C 418.36 367.33 410.33 385.93 395.41 393.41 C 383.36 399.93 367.64 398.54 356.93 390.03 C 345.55 381.38 339.81 365.60 344.13 351.80 C 347.77 338.45 359.66 328.01 373.29 325.81 Z" />
<path fill="#ffffff" opacity="1.00" d=" M 503.32 325.87 C 518.86 323.08 535.34 332.18 541.72 346.53 C 546.74 357.45 545.86 371.01 539.21 381.08 C 534.03 388.98 525.75 394.73 516.50 396.70 C 502.03 400.10 486.20 393.05 478.45 380.49 C 473.24 372.29 471.96 361.98 474.13 352.61 C 477.47 338.95 489.47 328.10 503.32 325.87 Z" />
<path fill="#ffffff" opacity="1.00" d=" M 542.43 472.77 C 548.36 471.98 554.81 471.91 560.15 475.01 C 568.53 479.24 573.87 488.64 573.49 497.98 C 573.50 528.99 573.49 559.99 573.49 591.00 C 573.22 600.82 574.51 610.85 578.34 619.95 C 583.85 632.99 597.59 642.86 612.04 641.67 C 620.71 641.95 628.49 637.66 636.42 634.84 C 642.14 634.02 648.42 633.69 653.72 636.45 C 660.04 639.57 665.06 645.34 667.06 652.13 C 670.74 663.26 665.00 676.58 654.43 681.62 C 642.70 687.33 629.96 690.89 617.02 692.43 C 611.01 692.69 604.98 692.67 598.98 692.45 C 580.38 690.49 562.44 682.07 549.51 668.49 C 532.69 651.12 524.83 626.76 523.52 603.00 C 523.24 569.00 523.49 535.00 523.39 501.00 C 523.41 496.42 523.03 491.60 525.19 487.39 C 528.14 480.10 534.83 474.60 542.43 472.77 Z" />
<path fill="#ffffff" opacity="1.00" d=" M 330.59 473.62 C 334.86 471.95 339.58 472.25 344.06 472.60 C 352.63 474.06 359.95 480.73 362.79 488.88 C 364.50 493.38 364.34 498.26 364.30 503.00 C 364.25 558.01 364.35 613.01 364.25 668.02 C 364.30 681.19 352.36 693.47 339.00 692.65 C 325.89 693.26 313.86 681.10 314.42 668.02 C 314.41 611.01 314.42 553.99 314.41 496.98 C 313.94 486.74 321.04 477.02 330.59 473.62 Z" />
<path fill="#ffffff" opacity="1.00" d=" M 437.28 472.95 C 443.43 471.87 450.23 471.83 455.78 475.06 C 463.73 479.34 468.96 487.93 469.32 496.92 C 469.36 570.98 469.30 645.03 469.35 719.08 C 469.34 725.48 467.04 731.91 462.88 736.79 C 456.12 744.41 444.51 747.74 434.96 743.74 C 425.21 740.24 418.70 730.30 418.55 720.06 C 418.55 645.69 418.54 571.32 418.55 496.95 C 418.85 486.04 426.67 475.75 437.28 472.95 Z" />
</g>
</svg>
