<?xml version="1.0" encoding="UTF-8" ?>
<!DOCTYPE svg PUBLIC "-//W3C//DTD SVG 1.1//EN" "http://www.w3.org/Graphics/SVG/1.1/DTD/svg11.dtd">
<svg width="256pt" height="256pt" viewBox="0 0 256 256" version="1.1" xmlns="http://www.w3.org/2000/svg">
<g id="#0000baff">
<path fill="#0000ba" opacity="1.00" d=" M 0.00 0.00 L 256.00 0.00 L 256.00 256.00 L 0.00 256.00 L 0.00 0.00 M 66.19 54.54 C 69.36 79.04 72.66 103.52 75.92 128.00 C 79.48 152.61 82.12 177.34 85.98 201.90 C 97.31 202.22 108.66 202.09 120.00 201.98 C 118.18 190.25 115.34 178.69 113.56 166.95 C 126.06 166.61 138.57 166.98 151.07 166.80 C 158.33 166.65 165.76 165.59 172.33 162.30 C 177.04 159.96 180.85 155.99 183.20 151.30 C 187.99 142.33 189.73 132.10 190.24 122.04 C 190.64 110.81 189.39 99.33 185.13 88.86 C 183.38 84.65 181.14 80.36 177.26 77.73 C 171.98 74.13 165.54 73.05 159.44 71.61 C 143.97 67.91 128.24 65.46 112.58 62.68 C 97.08 60.16 81.71 56.94 66.19 54.54 Z" />
<path fill="#0000ba" opacity="1.00" d=" M 96.95 85.09 C 107.15 86.66 117.26 88.74 127.46 90.37 C 136.34 91.93 145.36 93.14 153.93 96.06 C 159.89 98.03 161.78 104.72 162.89 110.21 C 164.31 119.31 164.02 129.24 159.43 137.45 C 156.37 142.87 149.88 144.68 144.05 144.88 C 132.25 145.49 120.32 145.35 108.61 143.68 C 104.89 124.12 100.29 104.72 96.95 85.09 Z" />
</g>
<g id="#ffffffff">
<path fill="#ffffff" opacity="1.00" d=" M 66.19 54.54 C 81.71 56.94 97.08 60.16 112.58 62.68 C 128.24 65.46 143.97 67.91 159.44 71.61 C 165.54 73.05 171.98 74.13 177.26 77.73 C 181.14 80.36 183.38 84.65 185.13 88.86 C 189.39 99.33 190.64 110.81 190.24 122.04 C 189.73 132.10 187.99 142.33 183.20 151.30 C 180.85 155.99 177.04 159.96 172.33 162.30 C 165.76 165.59 158.33 166.65 151.07 166.80 C 138.57 166.98 126.06 166.61 113.56 166.95 C 115.34 178.69 118.18 190.25 120.00 201.98 C 108.66 202.09 97.31 202.22 85.98 201.90 C 82.12 177.34 79.48 152.61 75.92 128.00 C 72.66 103.52 69.36 79.04 66.19 54.54 M 96.95 85.09 C 100.29 104.72 104.89 124.12 108.61 143.68 C 120.32 145.35 132.25 145.49 144.05 144.88 C 149.88 144.68 156.37 142.87 159.43 137.45 C 164.02 129.24 164.31 119.31 162.89 110.21 C 161.78 104.72 159.89 98.03 153.93 96.06 C 145.36 93.14 136.34 91.93 127.46 90.37 C 117.26 88.74 107.15 86.66 96.95 85.09 Z" />
</g>
</svg>
