<svg width="863" height="231" viewBox="0 0 863 231" fill="none" xmlns="http://www.w3.org/2000/svg">
<rect width="862.167" height="230.306" rx="24" fill="#6B6EF9"/>
<path d="M171.185 118.777C171.185 119.01 171.11 119.21 170.96 119.377C170.827 119.543 170.669 119.668 170.485 119.752C170.052 119.452 169.544 119.168 168.96 118.902C168.377 118.635 167.619 118.502 166.685 118.502C165.919 118.502 165.21 118.635 164.56 118.902C163.91 119.168 163.344 119.56 162.86 120.077C162.377 120.593 161.994 121.243 161.71 122.027C161.444 122.81 161.31 123.71 161.31 124.727C161.31 125.76 161.444 126.66 161.71 127.427C161.977 128.193 162.344 128.835 162.81 129.352C163.294 129.868 163.869 130.26 164.535 130.527C165.202 130.777 165.944 130.902 166.76 130.902C167.627 130.902 168.377 130.785 169.01 130.552C169.66 130.302 170.202 130.01 170.635 129.677C170.802 129.743 170.96 129.868 171.11 130.052C171.26 130.218 171.335 130.418 171.335 130.652C171.335 131.002 171.135 131.318 170.735 131.602C170.352 131.868 169.827 132.102 169.16 132.302C168.494 132.518 167.644 132.627 166.61 132.627C165.56 132.627 164.585 132.46 163.685 132.127C162.785 131.793 162.002 131.302 161.335 130.652C160.685 129.985 160.169 129.16 159.785 128.177C159.402 127.193 159.21 126.043 159.21 124.727C159.21 123.41 159.402 122.26 159.785 121.277C160.185 120.277 160.719 119.443 161.385 118.777C162.052 118.11 162.827 117.61 163.71 117.277C164.61 116.943 165.552 116.777 166.535 116.777C167.219 116.777 167.844 116.835 168.41 116.952C168.994 117.068 169.485 117.227 169.885 117.427C170.302 117.61 170.619 117.827 170.835 118.077C171.069 118.31 171.185 118.543 171.185 118.777ZM175.882 132.252C175.799 132.285 175.674 132.318 175.507 132.352C175.341 132.402 175.157 132.427 174.957 132.427C174.241 132.427 173.882 132.127 173.882 131.527V116.102C173.966 116.068 174.091 116.035 174.257 116.002C174.441 115.952 174.624 115.927 174.807 115.927C175.524 115.927 175.882 116.227 175.882 116.827V132.252ZM183.21 131.002C183.91 131.002 184.485 130.935 184.935 130.802C185.402 130.652 185.735 130.51 185.935 130.377V126.752L182.835 127.077C181.968 127.16 181.327 127.36 180.91 127.677C180.493 127.977 180.285 128.427 180.285 129.027C180.285 129.66 180.527 130.152 181.01 130.502C181.493 130.835 182.227 131.002 183.21 131.002ZM183.185 120.427C184.635 120.427 185.785 120.752 186.635 121.402C187.485 122.052 187.91 123.077 187.91 124.477V130.402C187.91 130.768 187.835 131.052 187.685 131.252C187.552 131.435 187.343 131.61 187.06 131.777C186.66 132.01 186.127 132.21 185.46 132.377C184.81 132.56 184.06 132.652 183.21 132.652C181.643 132.652 180.427 132.343 179.56 131.727C178.71 131.11 178.285 130.218 178.285 129.052C178.285 127.952 178.643 127.127 179.36 126.577C180.077 126.01 181.085 125.66 182.385 125.527L185.935 125.177V124.477C185.935 123.643 185.685 123.035 185.185 122.652C184.685 122.268 184.01 122.077 183.16 122.077C182.46 122.077 181.802 122.177 181.185 122.377C180.568 122.577 180.018 122.802 179.535 123.052C179.402 122.935 179.277 122.802 179.16 122.652C179.06 122.502 179.01 122.335 179.01 122.152C179.01 121.918 179.068 121.727 179.185 121.577C179.302 121.427 179.485 121.285 179.735 121.152C180.185 120.918 180.702 120.743 181.285 120.627C181.868 120.493 182.502 120.427 183.185 120.427ZM192.935 132.252C192.852 132.285 192.727 132.318 192.56 132.352C192.394 132.402 192.21 132.427 192.01 132.427C191.294 132.427 190.935 132.127 190.935 131.527V120.802C191.019 120.768 191.144 120.735 191.31 120.702C191.494 120.652 191.685 120.627 191.885 120.627C192.585 120.627 192.935 120.935 192.935 121.552V132.252ZM190.635 117.102C190.635 116.752 190.752 116.46 190.985 116.227C191.235 115.977 191.552 115.852 191.935 115.852C192.319 115.852 192.627 115.977 192.86 116.227C193.094 116.46 193.21 116.752 193.21 117.102C193.21 117.452 193.094 117.752 192.86 118.002C192.627 118.235 192.319 118.352 191.935 118.352C191.552 118.352 191.235 118.235 190.985 118.002C190.752 117.752 190.635 117.452 190.635 117.102ZM210.741 124.452C210.741 123.635 210.507 123.035 210.041 122.652C209.574 122.268 208.949 122.077 208.166 122.077C207.082 122.077 206.116 122.46 205.266 123.227C205.366 123.56 205.416 123.918 205.416 124.302V132.252C205.332 132.285 205.199 132.318 205.016 132.352C204.849 132.402 204.674 132.427 204.491 132.427C203.774 132.427 203.416 132.127 203.416 131.527V124.452C203.416 123.635 203.182 123.035 202.716 122.652C202.249 122.268 201.616 122.077 200.816 122.077C200.282 122.077 199.774 122.16 199.291 122.327C198.824 122.493 198.424 122.685 198.091 122.902V132.252C198.007 132.285 197.882 132.318 197.716 132.352C197.549 132.402 197.366 132.427 197.166 132.427C196.449 132.427 196.091 132.127 196.091 131.527V123.002C196.091 122.668 196.157 122.393 196.291 122.177C196.441 121.943 196.691 121.71 197.041 121.477C197.491 121.193 198.057 120.952 198.741 120.752C199.441 120.535 200.141 120.427 200.841 120.427C201.657 120.427 202.382 120.552 203.016 120.802C203.649 121.035 204.132 121.36 204.466 121.777C204.899 121.393 205.441 121.077 206.091 120.827C206.741 120.56 207.482 120.427 208.316 120.427C209.666 120.427 210.741 120.752 211.541 121.402C212.341 122.035 212.741 123.018 212.741 124.352V132.252C212.657 132.285 212.524 132.318 212.341 132.352C212.174 132.402 211.999 132.427 211.816 132.427C211.099 132.427 210.741 132.127 210.741 131.527V124.452ZM223.956 132.627C222.789 132.627 221.839 132.368 221.106 131.852C220.389 131.335 220.031 130.477 220.031 129.277V117.402C220.114 117.368 220.239 117.335 220.406 117.302C220.589 117.252 220.781 117.227 220.981 117.227C221.681 117.227 222.031 117.527 222.031 118.127V121.002H226.131C226.181 121.085 226.231 121.202 226.281 121.352C226.331 121.485 226.356 121.635 226.356 121.802C226.356 122.368 226.106 122.652 225.606 122.652H222.031V129.152C222.031 129.818 222.214 130.293 222.581 130.577C222.964 130.843 223.497 130.977 224.181 130.977C224.464 130.977 224.781 130.927 225.131 130.827C225.481 130.727 225.772 130.61 226.006 130.477C226.106 130.577 226.197 130.702 226.281 130.852C226.364 131.002 226.406 131.177 226.406 131.377C226.406 131.743 226.189 132.043 225.756 132.277C225.322 132.51 224.722 132.627 223.956 132.627ZM230.607 132.252C230.524 132.285 230.399 132.318 230.232 132.352C230.066 132.402 229.882 132.427 229.682 132.427C228.966 132.427 228.607 132.127 228.607 131.527V116.102C228.691 116.068 228.816 116.035 228.982 116.002C229.166 115.952 229.357 115.927 229.557 115.927C230.257 115.927 230.607 116.227 230.607 116.827V121.327C231.007 121.093 231.474 120.885 232.007 120.702C232.557 120.518 233.174 120.427 233.857 120.427C234.557 120.427 235.191 120.518 235.757 120.702C236.341 120.885 236.841 121.168 237.257 121.552C237.674 121.918 237.999 122.393 238.232 122.977C238.466 123.543 238.582 124.21 238.582 124.977V132.252C238.499 132.285 238.366 132.318 238.182 132.352C238.016 132.402 237.841 132.427 237.657 132.427C236.941 132.427 236.582 132.127 236.582 131.527V125.027C236.582 124.027 236.307 123.285 235.757 122.802C235.207 122.318 234.482 122.077 233.582 122.077C232.999 122.077 232.449 122.185 231.932 122.402C231.432 122.602 230.991 122.852 230.607 123.152V132.252ZM243.002 127.702C243.452 129.885 244.885 130.977 247.302 130.977C248.002 130.977 248.635 130.86 249.202 130.627C249.769 130.393 250.219 130.143 250.552 129.877C250.952 130.11 251.152 130.427 251.152 130.827C251.152 131.06 251.044 131.285 250.827 131.502C250.627 131.718 250.344 131.91 249.977 132.077C249.627 132.243 249.21 132.377 248.727 132.477C248.26 132.577 247.752 132.627 247.202 132.627C245.269 132.627 243.735 132.102 242.602 131.052C241.485 130.002 240.927 128.468 240.927 126.452C240.927 125.502 241.06 124.66 241.327 123.927C241.61 123.177 241.994 122.543 242.477 122.027C242.977 121.51 243.569 121.118 244.252 120.852C244.935 120.568 245.677 120.427 246.477 120.427C247.227 120.427 247.919 120.552 248.552 120.802C249.185 121.052 249.727 121.41 250.177 121.877C250.644 122.327 251.002 122.868 251.252 123.502C251.519 124.118 251.652 124.802 251.652 125.552C251.652 125.918 251.569 126.185 251.402 126.352C251.235 126.502 251.002 126.593 250.702 126.627L243.002 127.702ZM246.452 122.052C245.435 122.052 244.594 122.41 243.927 123.127C243.26 123.827 242.91 124.835 242.877 126.152L249.752 125.202C249.669 124.285 249.344 123.535 248.777 122.952C248.227 122.352 247.452 122.052 246.452 122.052ZM262.171 131.002C262.871 131.002 263.446 130.935 263.896 130.802C264.362 130.652 264.696 130.51 264.896 130.377V126.752L261.796 127.077C260.929 127.16 260.287 127.36 259.871 127.677C259.454 127.977 259.246 128.427 259.246 129.027C259.246 129.66 259.487 130.152 259.971 130.502C260.454 130.835 261.187 131.002 262.171 131.002ZM262.146 120.427C263.596 120.427 264.746 120.752 265.596 121.402C266.446 122.052 266.871 123.077 266.871 124.477V130.402C266.871 130.768 266.796 131.052 266.646 131.252C266.512 131.435 266.304 131.61 266.021 131.777C265.621 132.01 265.087 132.21 264.421 132.377C263.771 132.56 263.021 132.652 262.171 132.652C260.604 132.652 259.387 132.343 258.521 131.727C257.671 131.11 257.246 130.218 257.246 129.052C257.246 127.952 257.604 127.127 258.321 126.577C259.037 126.01 260.046 125.66 261.346 125.527L264.896 125.177V124.477C264.896 123.643 264.646 123.035 264.146 122.652C263.646 122.268 262.971 122.077 262.121 122.077C261.421 122.077 260.762 122.177 260.146 122.377C259.529 122.577 258.979 122.802 258.496 123.052C258.362 122.935 258.237 122.802 258.121 122.652C258.021 122.502 257.971 122.335 257.971 122.152C257.971 121.918 258.029 121.727 258.146 121.577C258.262 121.427 258.446 121.285 258.696 121.152C259.146 120.918 259.662 120.743 260.246 120.627C260.829 120.493 261.462 120.427 262.146 120.427ZM271.896 132.252C271.813 132.285 271.688 132.318 271.521 132.352C271.355 132.402 271.171 132.427 270.971 132.427C270.255 132.427 269.896 132.127 269.896 131.527V120.802C269.98 120.768 270.105 120.735 270.271 120.702C270.455 120.652 270.646 120.627 270.846 120.627C271.546 120.627 271.896 120.935 271.896 121.552V132.252ZM269.596 117.102C269.596 116.752 269.713 116.46 269.946 116.227C270.196 115.977 270.513 115.852 270.896 115.852C271.28 115.852 271.588 115.977 271.821 116.227C272.055 116.46 272.171 116.752 272.171 117.102C272.171 117.452 272.055 117.752 271.821 118.002C271.588 118.235 271.28 118.352 270.896 118.352C270.513 118.352 270.196 118.235 269.946 118.002C269.713 117.752 269.596 117.452 269.596 117.102ZM277.052 132.252C276.968 132.285 276.843 132.318 276.677 132.352C276.51 132.402 276.327 132.427 276.127 132.427C275.41 132.427 275.052 132.127 275.052 131.527V123.052C275.052 122.668 275.118 122.368 275.252 122.152C275.402 121.918 275.643 121.693 275.977 121.477C276.41 121.193 276.993 120.952 277.727 120.752C278.477 120.535 279.318 120.427 280.252 120.427C281.585 120.427 282.252 120.76 282.252 121.427C282.252 121.593 282.227 121.752 282.177 121.902C282.127 122.035 282.06 122.152 281.977 122.252C281.81 122.218 281.593 122.185 281.327 122.152C281.06 122.118 280.793 122.102 280.527 122.102C279.76 122.102 279.085 122.185 278.502 122.352C277.918 122.502 277.435 122.685 277.052 122.902V132.252ZM293.478 130.402C293.478 130.735 293.403 130.993 293.253 131.177C293.12 131.36 292.903 131.543 292.603 131.727C292.27 131.943 291.795 132.143 291.178 132.327C290.562 132.527 289.853 132.627 289.053 132.627C288.153 132.627 287.328 132.51 286.578 132.277C285.828 132.043 285.178 131.685 284.628 131.202C284.095 130.702 283.678 130.077 283.378 129.327C283.095 128.56 282.953 127.643 282.953 126.577C282.953 125.493 283.103 124.568 283.403 123.802C283.703 123.018 284.103 122.377 284.603 121.877C285.12 121.377 285.72 121.01 286.403 120.777C287.103 120.543 287.845 120.427 288.628 120.427C289.162 120.427 289.678 120.493 290.178 120.627C290.678 120.76 291.112 120.927 291.478 121.127V116.102C291.562 116.068 291.687 116.035 291.853 116.002C292.037 115.952 292.22 115.927 292.403 115.927C293.12 115.927 293.478 116.227 293.478 116.827V130.402ZM291.478 122.927C291.145 122.693 290.762 122.493 290.328 122.327C289.895 122.16 289.395 122.077 288.828 122.077C288.312 122.077 287.82 122.16 287.353 122.327C286.903 122.477 286.503 122.735 286.153 123.102C285.803 123.452 285.52 123.918 285.303 124.502C285.103 125.085 285.003 125.793 285.003 126.627C285.003 128.16 285.37 129.268 286.103 129.952C286.837 130.635 287.812 130.977 289.028 130.977C289.612 130.977 290.087 130.918 290.453 130.802C290.837 130.668 291.178 130.51 291.478 130.327V122.927ZM298.525 132.252C298.442 132.285 298.317 132.318 298.15 132.352C297.984 132.402 297.8 132.427 297.6 132.427C296.884 132.427 296.525 132.127 296.525 131.527V123.052C296.525 122.668 296.592 122.368 296.725 122.152C296.875 121.918 297.117 121.693 297.45 121.477C297.884 121.193 298.467 120.952 299.2 120.752C299.95 120.535 300.792 120.427 301.725 120.427C303.059 120.427 303.725 120.76 303.725 121.427C303.725 121.593 303.7 121.752 303.65 121.902C303.6 122.035 303.534 122.152 303.45 122.252C303.284 122.218 303.067 122.185 302.8 122.152C302.534 122.118 302.267 122.102 302 122.102C301.234 122.102 300.559 122.185 299.975 122.352C299.392 122.502 298.909 122.685 298.525 122.902V132.252ZM315.802 126.527C315.802 127.46 315.669 128.302 315.402 129.052C315.135 129.802 314.752 130.443 314.252 130.977C313.769 131.51 313.177 131.918 312.477 132.202C311.777 132.485 310.994 132.627 310.127 132.627C309.26 132.627 308.477 132.485 307.777 132.202C307.077 131.918 306.477 131.51 305.977 130.977C305.477 130.443 305.094 129.802 304.827 129.052C304.56 128.302 304.427 127.46 304.427 126.527C304.427 125.593 304.56 124.752 304.827 124.002C305.11 123.252 305.502 122.61 306.002 122.077C306.502 121.543 307.102 121.135 307.802 120.852C308.502 120.568 309.277 120.427 310.127 120.427C310.977 120.427 311.752 120.568 312.452 120.852C313.152 121.135 313.744 121.543 314.227 122.077C314.727 122.61 315.11 123.252 315.377 124.002C315.66 124.752 315.802 125.593 315.802 126.527ZM310.127 122.077C308.994 122.077 308.102 122.468 307.452 123.252C306.802 124.035 306.477 125.127 306.477 126.527C306.477 127.943 306.794 129.043 307.427 129.827C308.077 130.593 308.977 130.977 310.127 130.977C311.277 130.977 312.169 130.585 312.802 129.802C313.435 129.018 313.752 127.927 313.752 126.527C313.752 125.127 313.427 124.035 312.777 123.252C312.144 122.468 311.26 122.077 310.127 122.077ZM323.07 132.627C322.487 132.627 321.937 132.56 321.42 132.427C320.904 132.293 320.479 132.135 320.145 131.952V136.802C320.062 136.835 319.937 136.868 319.77 136.902C319.604 136.952 319.42 136.977 319.22 136.977C318.504 136.977 318.145 136.668 318.145 136.052V122.852C318.145 122.518 318.204 122.252 318.32 122.052C318.437 121.852 318.679 121.643 319.045 121.427C319.495 121.177 320.029 120.952 320.645 120.752C321.279 120.535 321.995 120.427 322.795 120.427C323.612 120.427 324.379 120.543 325.095 120.777C325.829 121.01 326.454 121.377 326.97 121.877C327.504 122.36 327.92 122.985 328.22 123.752C328.537 124.518 328.695 125.435 328.695 126.502C328.695 127.535 328.554 128.435 328.27 129.202C328.004 129.968 327.62 130.61 327.12 131.127C326.62 131.627 326.02 132.002 325.32 132.252C324.637 132.502 323.887 132.627 323.07 132.627ZM322.795 130.977C323.962 130.977 324.895 130.627 325.595 129.927C326.312 129.21 326.67 128.068 326.67 126.502C326.67 125.685 326.562 124.993 326.345 124.427C326.145 123.86 325.862 123.402 325.495 123.052C325.145 122.702 324.737 122.452 324.27 122.302C323.804 122.152 323.312 122.077 322.795 122.077C322.195 122.077 321.687 122.152 321.27 122.302C320.854 122.452 320.479 122.618 320.145 122.802V130.177C320.462 130.41 320.837 130.602 321.27 130.752C321.704 130.902 322.212 130.977 322.795 130.977ZM346.023 126.527C346.023 127.46 345.889 128.302 345.623 129.052C345.356 129.802 344.973 130.443 344.473 130.977C343.989 131.51 343.398 131.918 342.698 132.202C341.998 132.485 341.214 132.627 340.348 132.627C339.481 132.627 338.698 132.485 337.998 132.202C337.298 131.918 336.698 131.51 336.198 130.977C335.698 130.443 335.314 129.802 335.048 129.052C334.781 128.302 334.648 127.46 334.648 126.527C334.648 125.593 334.781 124.752 335.048 124.002C335.331 123.252 335.723 122.61 336.223 122.077C336.723 121.543 337.323 121.135 338.023 120.852C338.723 120.568 339.498 120.427 340.348 120.427C341.198 120.427 341.973 120.568 342.673 120.852C343.373 121.135 343.964 121.543 344.448 122.077C344.948 122.61 345.331 123.252 345.598 124.002C345.881 124.752 346.023 125.593 346.023 126.527ZM340.348 122.077C339.214 122.077 338.323 122.468 337.673 123.252C337.023 124.035 336.698 125.127 336.698 126.527C336.698 127.943 337.014 129.043 337.648 129.827C338.298 130.593 339.198 130.977 340.348 130.977C341.498 130.977 342.389 130.585 343.023 129.802C343.656 129.018 343.973 127.927 343.973 126.527C343.973 125.127 343.648 124.035 342.998 123.252C342.364 122.468 341.481 122.077 340.348 122.077ZM356.366 124.777C356.366 123.843 356.099 123.16 355.566 122.727C355.049 122.293 354.349 122.077 353.466 122.077C352.799 122.077 352.208 122.16 351.691 122.327C351.174 122.493 350.733 122.685 350.366 122.902V132.252C350.283 132.285 350.158 132.318 349.991 132.352C349.824 132.402 349.641 132.427 349.441 132.427C348.724 132.427 348.366 132.127 348.366 131.527V123.002C348.366 122.652 348.433 122.368 348.566 122.152C348.716 121.918 348.966 121.693 349.316 121.477C349.749 121.21 350.324 120.968 351.041 120.752C351.758 120.535 352.566 120.427 353.466 120.427C354.983 120.427 356.174 120.768 357.041 121.452C357.924 122.135 358.366 123.21 358.366 124.677V132.252C358.283 132.285 358.149 132.318 357.966 132.352C357.799 132.402 357.624 132.427 357.441 132.427C356.724 132.427 356.366 132.127 356.366 131.527V124.777ZM371.291 118.827V132.252C371.208 132.285 371.074 132.318 370.891 132.352C370.724 132.402 370.549 132.427 370.366 132.427C369.633 132.427 369.266 132.118 369.266 131.502V118.827H364.591C364.541 118.743 364.491 118.635 364.441 118.502C364.391 118.352 364.366 118.185 364.366 118.002C364.366 117.718 364.433 117.502 364.566 117.352C364.699 117.185 364.891 117.102 365.141 117.102H375.966C376.016 117.185 376.066 117.302 376.116 117.452C376.166 117.585 376.191 117.735 376.191 117.902C376.191 118.185 376.124 118.41 375.991 118.577C375.858 118.743 375.666 118.827 375.416 118.827H371.291ZM377.741 127.702C378.191 129.885 379.625 130.977 382.041 130.977C382.741 130.977 383.375 130.86 383.941 130.627C384.508 130.393 384.958 130.143 385.291 129.877C385.691 130.11 385.891 130.427 385.891 130.827C385.891 131.06 385.783 131.285 385.566 131.502C385.366 131.718 385.083 131.91 384.716 132.077C384.366 132.243 383.95 132.377 383.466 132.477C383 132.577 382.491 132.627 381.941 132.627C380.008 132.627 378.475 132.102 377.341 131.052C376.225 130.002 375.666 128.468 375.666 126.452C375.666 125.502 375.8 124.66 376.066 123.927C376.35 123.177 376.733 122.543 377.216 122.027C377.716 121.51 378.308 121.118 378.991 120.852C379.675 120.568 380.416 120.427 381.216 120.427C381.966 120.427 382.658 120.552 383.291 120.802C383.925 121.052 384.466 121.41 384.916 121.877C385.383 122.327 385.741 122.868 385.991 123.502C386.258 124.118 386.391 124.802 386.391 125.552C386.391 125.918 386.308 126.185 386.141 126.352C385.975 126.502 385.741 126.593 385.441 126.627L377.741 127.702ZM381.191 122.052C380.175 122.052 379.333 122.41 378.666 123.127C378 123.827 377.65 124.835 377.616 126.152L384.491 125.202C384.408 124.285 384.083 123.535 383.516 122.952C382.966 122.352 382.191 122.052 381.191 122.052ZM396.827 129.227C396.827 130.293 396.435 131.127 395.652 131.727C394.868 132.327 393.735 132.627 392.252 132.627C391.618 132.627 391.035 132.568 390.502 132.452C389.968 132.352 389.51 132.218 389.127 132.052C388.76 131.868 388.468 131.668 388.252 131.452C388.052 131.218 387.952 130.985 387.952 130.752C387.952 130.552 388.002 130.36 388.102 130.177C388.218 129.993 388.385 129.835 388.602 129.702C389.052 130.035 389.577 130.335 390.177 130.602C390.777 130.852 391.46 130.977 392.227 130.977C393.96 130.977 394.827 130.393 394.827 129.227C394.827 128.277 394.252 127.66 393.102 127.377L391.027 126.827C390.01 126.56 389.268 126.177 388.802 125.677C388.335 125.16 388.102 124.502 388.102 123.702C388.102 123.268 388.185 122.852 388.352 122.452C388.535 122.052 388.81 121.702 389.177 121.402C389.543 121.102 389.993 120.868 390.527 120.702C391.077 120.518 391.718 120.427 392.452 120.427C393.618 120.427 394.56 120.602 395.277 120.952C395.993 121.285 396.352 121.677 396.352 122.127C396.352 122.343 396.293 122.535 396.177 122.702C396.077 122.868 395.935 122.993 395.752 123.077C395.452 122.877 395.027 122.66 394.477 122.427C393.927 122.193 393.277 122.077 392.527 122.077C391.777 122.077 391.177 122.218 390.727 122.502C390.293 122.785 390.077 123.185 390.077 123.702C390.077 124.085 390.202 124.41 390.452 124.677C390.702 124.943 391.118 125.143 391.702 125.277L393.427 125.702C394.56 125.985 395.41 126.41 395.977 126.977C396.543 127.527 396.827 128.277 396.827 129.227ZM403.058 132.627C401.892 132.627 400.942 132.368 400.208 131.852C399.492 131.335 399.133 130.477 399.133 129.277V117.402C399.217 117.368 399.342 117.335 399.508 117.302C399.692 117.252 399.883 117.227 400.083 117.227C400.783 117.227 401.133 117.527 401.133 118.127V121.002H405.233C405.283 121.085 405.333 121.202 405.383 121.352C405.433 121.485 405.458 121.635 405.458 121.802C405.458 122.368 405.208 122.652 404.708 122.652H401.133V129.152C401.133 129.818 401.317 130.293 401.683 130.577C402.067 130.843 402.6 130.977 403.283 130.977C403.567 130.977 403.883 130.927 404.233 130.827C404.583 130.727 404.875 130.61 405.108 130.477C405.208 130.577 405.3 130.702 405.383 130.852C405.467 131.002 405.508 131.177 405.508 131.377C405.508 131.743 405.292 132.043 404.858 132.277C404.425 132.51 403.825 132.627 403.058 132.627ZM415.66 124.777C415.66 123.843 415.393 123.16 414.86 122.727C414.343 122.293 413.643 122.077 412.76 122.077C412.093 122.077 411.502 122.16 410.985 122.327C410.468 122.493 410.027 122.685 409.66 122.902V132.252C409.577 132.285 409.452 132.318 409.285 132.352C409.118 132.402 408.935 132.427 408.735 132.427C408.018 132.427 407.66 132.127 407.66 131.527V123.002C407.66 122.652 407.727 122.368 407.86 122.152C408.01 121.918 408.26 121.693 408.61 121.477C409.043 121.21 409.618 120.968 410.335 120.752C411.052 120.535 411.86 120.427 412.76 120.427C414.277 120.427 415.468 120.768 416.335 121.452C417.218 122.135 417.66 123.21 417.66 124.677V132.252C417.577 132.285 417.443 132.318 417.26 132.352C417.093 132.402 416.918 132.427 416.735 132.427C416.018 132.427 415.66 132.127 415.66 131.527V124.777ZM422.08 127.702C422.53 129.885 423.963 130.977 426.38 130.977C427.08 130.977 427.713 130.86 428.28 130.627C428.847 130.393 429.297 130.143 429.63 129.877C430.03 130.11 430.23 130.427 430.23 130.827C430.23 131.06 430.122 131.285 429.905 131.502C429.705 131.718 429.422 131.91 429.055 132.077C428.705 132.243 428.288 132.377 427.805 132.477C427.338 132.577 426.83 132.627 426.28 132.627C424.347 132.627 422.813 132.102 421.68 131.052C420.563 130.002 420.005 128.468 420.005 126.452C420.005 125.502 420.138 124.66 420.405 123.927C420.688 123.177 421.072 122.543 421.555 122.027C422.055 121.51 422.647 121.118 423.33 120.852C424.013 120.568 424.755 120.427 425.555 120.427C426.305 120.427 426.997 120.552 427.63 120.802C428.263 121.052 428.805 121.41 429.255 121.877C429.722 122.327 430.08 122.868 430.33 123.502C430.597 124.118 430.73 124.802 430.73 125.552C430.73 125.918 430.647 126.185 430.48 126.352C430.313 126.502 430.08 126.593 429.78 126.627L422.08 127.702ZM425.53 122.052C424.513 122.052 423.672 122.41 423.005 123.127C422.338 123.827 421.988 124.835 421.955 126.152L428.83 125.202C428.747 124.285 428.422 123.535 427.855 122.952C427.305 122.352 426.53 122.052 425.53 122.052ZM436.819 132.627C435.652 132.627 434.702 132.368 433.969 131.852C433.252 131.335 432.894 130.477 432.894 129.277V117.402C432.977 117.368 433.102 117.335 433.269 117.302C433.452 117.252 433.644 117.227 433.844 117.227C434.544 117.227 434.894 117.527 434.894 118.127V121.002H438.994C439.044 121.085 439.094 121.202 439.144 121.352C439.194 121.485 439.219 121.635 439.219 121.802C439.219 122.368 438.969 122.652 438.469 122.652H434.894V129.152C434.894 129.818 435.077 130.293 435.444 130.577C435.827 130.843 436.361 130.977 437.044 130.977C437.327 130.977 437.644 130.927 437.994 130.827C438.344 130.727 438.636 130.61 438.869 130.477C438.969 130.577 439.061 130.702 439.144 130.852C439.227 131.002 439.269 131.177 439.269 131.377C439.269 131.743 439.052 132.043 438.619 132.277C438.186 132.51 437.586 132.627 436.819 132.627ZM449.626 132.627C448.459 132.627 447.509 132.368 446.776 131.852C446.059 131.335 445.701 130.477 445.701 129.277V117.402C445.784 117.368 445.909 117.335 446.076 117.302C446.259 117.252 446.451 117.227 446.651 117.227C447.351 117.227 447.701 117.527 447.701 118.127V121.002H451.801C451.851 121.085 451.901 121.202 451.951 121.352C452.001 121.485 452.026 121.635 452.026 121.802C452.026 122.368 451.776 122.652 451.276 122.652H447.701V129.152C447.701 129.818 447.884 130.293 448.251 130.577C448.634 130.843 449.167 130.977 449.851 130.977C450.134 130.977 450.451 130.927 450.801 130.827C451.151 130.727 451.442 130.61 451.676 130.477C451.776 130.577 451.867 130.702 451.951 130.852C452.034 131.002 452.076 131.177 452.076 131.377C452.076 131.743 451.859 132.043 451.426 132.277C450.992 132.51 450.392 132.627 449.626 132.627ZM464.586 126.527C464.586 127.46 464.453 128.302 464.186 129.052C463.92 129.802 463.536 130.443 463.036 130.977C462.553 131.51 461.961 131.918 461.261 132.202C460.561 132.485 459.778 132.627 458.911 132.627C458.045 132.627 457.261 132.485 456.561 132.202C455.861 131.918 455.261 131.51 454.761 130.977C454.261 130.443 453.878 129.802 453.611 129.052C453.345 128.302 453.211 127.46 453.211 126.527C453.211 125.593 453.345 124.752 453.611 124.002C453.895 123.252 454.286 122.61 454.786 122.077C455.286 121.543 455.886 121.135 456.586 120.852C457.286 120.568 458.061 120.427 458.911 120.427C459.761 120.427 460.536 120.568 461.236 120.852C461.936 121.135 462.528 121.543 463.011 122.077C463.511 122.61 463.895 123.252 464.161 124.002C464.445 124.752 464.586 125.593 464.586 126.527ZM458.911 122.077C457.778 122.077 456.886 122.468 456.236 123.252C455.586 124.035 455.261 125.127 455.261 126.527C455.261 127.943 455.578 129.043 456.211 129.827C456.861 130.593 457.761 130.977 458.911 130.977C460.061 130.977 460.953 130.585 461.586 129.802C462.22 129.018 462.536 127.927 462.536 126.527C462.536 125.127 462.211 124.035 461.561 123.252C460.928 122.468 460.045 122.077 458.911 122.077ZM475.134 132.627C473.968 132.627 473.018 132.368 472.284 131.852C471.568 131.335 471.209 130.477 471.209 129.277V117.402C471.293 117.368 471.418 117.335 471.584 117.302C471.768 117.252 471.959 117.227 472.159 117.227C472.859 117.227 473.209 117.527 473.209 118.127V121.002H477.309C477.359 121.085 477.409 121.202 477.459 121.352C477.509 121.485 477.534 121.635 477.534 121.802C477.534 122.368 477.284 122.652 476.784 122.652H473.209V129.152C473.209 129.818 473.393 130.293 473.759 130.577C474.143 130.843 474.676 130.977 475.359 130.977C475.643 130.977 475.959 130.927 476.309 130.827C476.659 130.727 476.951 130.61 477.184 130.477C477.284 130.577 477.376 130.702 477.459 130.852C477.543 131.002 477.584 131.177 477.584 131.377C477.584 131.743 477.368 132.043 476.934 132.277C476.501 132.51 475.901 132.627 475.134 132.627ZM480.795 127.702C481.245 129.885 482.678 130.977 485.095 130.977C485.795 130.977 486.428 130.86 486.995 130.627C487.562 130.393 488.012 130.143 488.345 129.877C488.745 130.11 488.945 130.427 488.945 130.827C488.945 131.06 488.837 131.285 488.62 131.502C488.42 131.718 488.137 131.91 487.77 132.077C487.42 132.243 487.003 132.377 486.52 132.477C486.053 132.577 485.545 132.627 484.995 132.627C483.062 132.627 481.528 132.102 480.395 131.052C479.278 130.002 478.72 128.468 478.72 126.452C478.72 125.502 478.853 124.66 479.12 123.927C479.403 123.177 479.787 122.543 480.27 122.027C480.77 121.51 481.362 121.118 482.045 120.852C482.728 120.568 483.47 120.427 484.27 120.427C485.02 120.427 485.712 120.552 486.345 120.802C486.978 121.052 487.52 121.41 487.97 121.877C488.437 122.327 488.795 122.868 489.045 123.502C489.312 124.118 489.445 124.802 489.445 125.552C489.445 125.918 489.362 126.185 489.195 126.352C489.028 126.502 488.795 126.593 488.495 126.627L480.795 127.702ZM484.245 122.052C483.228 122.052 482.387 122.41 481.72 123.127C481.053 123.827 480.703 124.835 480.67 126.152L487.545 125.202C487.462 124.285 487.137 123.535 486.57 122.952C486.02 122.352 485.245 122.052 484.245 122.052ZM499.88 129.227C499.88 130.293 499.489 131.127 498.705 131.727C497.922 132.327 496.789 132.627 495.305 132.627C494.672 132.627 494.089 132.568 493.555 132.452C493.022 132.352 492.564 132.218 492.18 132.052C491.814 131.868 491.522 131.668 491.305 131.452C491.105 131.218 491.005 130.985 491.005 130.752C491.005 130.552 491.055 130.36 491.155 130.177C491.272 129.993 491.439 129.835 491.655 129.702C492.105 130.035 492.63 130.335 493.23 130.602C493.83 130.852 494.514 130.977 495.28 130.977C497.014 130.977 497.88 130.393 497.88 129.227C497.88 128.277 497.305 127.66 496.155 127.377L494.08 126.827C493.064 126.56 492.322 126.177 491.855 125.677C491.389 125.16 491.155 124.502 491.155 123.702C491.155 123.268 491.239 122.852 491.405 122.452C491.589 122.052 491.864 121.702 492.23 121.402C492.597 121.102 493.047 120.868 493.58 120.702C494.13 120.518 494.772 120.427 495.505 120.427C496.672 120.427 497.614 120.602 498.33 120.952C499.047 121.285 499.405 121.677 499.405 122.127C499.405 122.343 499.347 122.535 499.23 122.702C499.13 122.868 498.989 122.993 498.805 123.077C498.505 122.877 498.08 122.66 497.53 122.427C496.98 122.193 496.33 122.077 495.58 122.077C494.83 122.077 494.23 122.218 493.78 122.502C493.347 122.785 493.13 123.185 493.13 123.702C493.13 124.085 493.255 124.41 493.505 124.677C493.755 124.943 494.172 125.143 494.755 125.277L496.48 125.702C497.614 125.985 498.464 126.41 499.03 126.977C499.597 127.527 499.88 128.277 499.88 129.227ZM506.112 132.627C504.945 132.627 503.995 132.368 503.262 131.852C502.545 131.335 502.187 130.477 502.187 129.277V117.402C502.27 117.368 502.395 117.335 502.562 117.302C502.745 117.252 502.937 117.227 503.137 117.227C503.837 117.227 504.187 117.527 504.187 118.127V121.002H508.287C508.337 121.085 508.387 121.202 508.437 121.352C508.487 121.485 508.512 121.635 508.512 121.802C508.512 122.368 508.262 122.652 507.762 122.652H504.187V129.152C504.187 129.818 504.37 130.293 504.737 130.577C505.12 130.843 505.654 130.977 506.337 130.977C506.62 130.977 506.937 130.927 507.287 130.827C507.637 130.727 507.929 130.61 508.162 130.477C508.262 130.577 508.354 130.702 508.437 130.852C508.52 131.002 508.562 131.177 508.562 131.377C508.562 131.743 508.345 132.043 507.912 132.277C507.479 132.51 506.879 132.627 506.112 132.627ZM517.094 132.252C517.01 132.285 516.885 132.318 516.719 132.352C516.552 132.402 516.369 132.427 516.169 132.427C515.452 132.427 515.094 132.127 515.094 131.527V120.802C515.177 120.768 515.302 120.735 515.469 120.702C515.652 120.652 515.844 120.627 516.044 120.627C516.744 120.627 517.094 120.935 517.094 121.552V132.252ZM514.794 117.102C514.794 116.752 514.91 116.46 515.144 116.227C515.394 115.977 515.71 115.852 516.094 115.852C516.477 115.852 516.785 115.977 517.019 116.227C517.252 116.46 517.369 116.752 517.369 117.102C517.369 117.452 517.252 117.752 517.019 118.002C516.785 118.235 516.477 118.352 516.094 118.352C515.71 118.352 515.394 118.235 515.144 118.002C514.91 117.752 514.794 117.452 514.794 117.102ZM528.249 124.777C528.249 123.843 527.982 123.16 527.449 122.727C526.932 122.293 526.232 122.077 525.349 122.077C524.682 122.077 524.091 122.16 523.574 122.327C523.057 122.493 522.616 122.685 522.249 122.902V132.252C522.166 132.285 522.041 132.318 521.874 132.352C521.707 132.402 521.524 132.427 521.324 132.427C520.607 132.427 520.249 132.127 520.249 131.527V123.002C520.249 122.652 520.316 122.368 520.449 122.152C520.599 121.918 520.849 121.693 521.199 121.477C521.632 121.21 522.207 120.968 522.924 120.752C523.641 120.535 524.449 120.427 525.349 120.427C526.866 120.427 528.057 120.768 528.924 121.452C529.807 122.135 530.249 123.21 530.249 124.677V132.252C530.166 132.285 530.032 132.318 529.849 132.352C529.682 132.402 529.507 132.427 529.324 132.427C528.607 132.427 528.249 132.127 528.249 131.527V124.777ZM539.849 129.727C539.632 129.327 539.382 128.818 539.099 128.202C538.816 127.585 538.516 126.893 538.199 126.127C537.899 125.36 537.591 124.552 537.274 123.702C536.957 122.835 536.657 121.96 536.374 121.077C536.491 120.91 536.641 120.777 536.824 120.677C537.024 120.577 537.232 120.527 537.449 120.527C537.732 120.527 537.957 120.602 538.124 120.752C538.307 120.902 538.466 121.152 538.599 121.502C539.099 122.918 539.616 124.31 540.149 125.677C540.699 127.043 541.316 128.477 541.999 129.977H542.099C542.366 129.46 542.641 128.835 542.924 128.102C543.207 127.352 543.482 126.56 543.749 125.727C544.032 124.893 544.291 124.052 544.524 123.202C544.774 122.335 544.991 121.51 545.174 120.727C545.291 120.677 545.416 120.635 545.549 120.602C545.682 120.552 545.841 120.527 546.024 120.527C546.307 120.527 546.541 120.602 546.724 120.752C546.907 120.885 546.999 121.093 546.999 121.377C546.999 121.71 546.882 122.318 546.649 123.202C546.416 124.085 546.107 125.077 545.724 126.177C545.357 127.277 544.932 128.41 544.449 129.577C543.966 130.727 543.474 131.752 542.974 132.652C542.191 134.068 541.482 135.152 540.849 135.902C540.232 136.668 539.657 137.052 539.124 137.052C538.741 137.052 538.441 136.952 538.224 136.752C538.024 136.552 537.899 136.318 537.849 136.052C538.116 135.818 538.416 135.518 538.749 135.152C539.082 134.785 539.416 134.385 539.749 133.952C540.082 133.535 540.399 133.102 540.699 132.652C540.999 132.202 541.249 131.768 541.449 131.352C541.166 131.268 540.899 131.127 540.649 130.927C540.416 130.71 540.149 130.31 539.849 129.727ZM559.51 126.527C559.51 127.46 559.377 128.302 559.11 129.052C558.843 129.802 558.46 130.443 557.96 130.977C557.477 131.51 556.885 131.918 556.185 132.202C555.485 132.485 554.702 132.627 553.835 132.627C552.968 132.627 552.185 132.485 551.485 132.202C550.785 131.918 550.185 131.51 549.685 130.977C549.185 130.443 548.802 129.802 548.535 129.052C548.268 128.302 548.135 127.46 548.135 126.527C548.135 125.593 548.268 124.752 548.535 124.002C548.818 123.252 549.21 122.61 549.71 122.077C550.21 121.543 550.81 121.135 551.51 120.852C552.21 120.568 552.985 120.427 553.835 120.427C554.685 120.427 555.46 120.568 556.16 120.852C556.86 121.135 557.452 121.543 557.935 122.077C558.435 122.61 558.818 123.252 559.085 124.002C559.368 124.752 559.51 125.593 559.51 126.527ZM553.835 122.077C552.702 122.077 551.81 122.468 551.16 123.252C550.51 124.035 550.185 125.127 550.185 126.527C550.185 127.943 550.502 129.043 551.135 129.827C551.785 130.593 552.685 130.977 553.835 130.977C554.985 130.977 555.877 130.585 556.51 129.802C557.143 129.018 557.46 127.927 557.46 126.527C557.46 125.127 557.135 124.035 556.485 123.252C555.852 122.468 554.968 122.077 553.835 122.077ZM561.853 120.802C561.937 120.768 562.062 120.735 562.228 120.702C562.412 120.652 562.603 120.627 562.803 120.627C563.503 120.627 563.853 120.935 563.853 121.552V127.977C563.853 129.06 564.137 129.835 564.703 130.302C565.27 130.752 566.053 130.977 567.053 130.977C567.72 130.977 568.287 130.91 568.753 130.777C569.22 130.627 569.587 130.477 569.853 130.327V120.802C569.937 120.768 570.062 120.735 570.228 120.702C570.412 120.652 570.595 120.627 570.778 120.627C571.495 120.627 571.853 120.935 571.853 121.552V130.252C571.853 130.602 571.803 130.885 571.703 131.102C571.62 131.302 571.403 131.502 571.053 131.702C570.67 131.918 570.137 132.127 569.453 132.327C568.787 132.527 567.978 132.627 567.028 132.627C565.362 132.627 564.078 132.26 563.178 131.527C562.295 130.793 561.853 129.643 561.853 128.077V120.802ZM576.849 132.252C576.765 132.285 576.64 132.318 576.474 132.352C576.307 132.402 576.124 132.427 575.924 132.427C575.207 132.427 574.849 132.127 574.849 131.527V123.052C574.849 122.668 574.915 122.368 575.049 122.152C575.199 121.918 575.44 121.693 575.774 121.477C576.207 121.193 576.79 120.952 577.524 120.752C578.274 120.535 579.115 120.427 580.049 120.427C581.382 120.427 582.049 120.76 582.049 121.427C582.049 121.593 582.024 121.752 581.974 121.902C581.924 122.035 581.857 122.152 581.774 122.252C581.607 122.218 581.39 122.185 581.124 122.152C580.857 122.118 580.59 122.102 580.324 122.102C579.557 122.102 578.882 122.185 578.299 122.352C577.715 122.502 577.232 122.685 576.849 122.902V132.252ZM598.624 126.527C598.624 127.46 598.491 128.302 598.224 129.052C597.958 129.802 597.574 130.443 597.074 130.977C596.591 131.51 595.999 131.918 595.299 132.202C594.599 132.485 593.816 132.627 592.949 132.627C592.083 132.627 591.299 132.485 590.599 132.202C589.899 131.918 589.299 131.51 588.799 130.977C588.299 130.443 587.916 129.802 587.649 129.052C587.383 128.302 587.249 127.46 587.249 126.527C587.249 125.593 587.383 124.752 587.649 124.002C587.933 123.252 588.324 122.61 588.824 122.077C589.324 121.543 589.924 121.135 590.624 120.852C591.324 120.568 592.099 120.427 592.949 120.427C593.799 120.427 594.574 120.568 595.274 120.852C595.974 121.135 596.566 121.543 597.049 122.077C597.549 122.61 597.933 123.252 598.199 124.002C598.483 124.752 598.624 125.593 598.624 126.527ZM592.949 122.077C591.816 122.077 590.924 122.468 590.274 123.252C589.624 124.035 589.299 125.127 589.299 126.527C589.299 127.943 589.616 129.043 590.249 129.827C590.899 130.593 591.799 130.977 592.949 130.977C594.099 130.977 594.991 130.585 595.624 129.802C596.258 129.018 596.574 127.927 596.574 126.527C596.574 125.127 596.249 124.035 595.599 123.252C594.966 122.468 594.083 122.077 592.949 122.077ZM608.096 123.702C607.863 124.485 607.621 125.277 607.371 126.077C607.138 126.877 606.896 127.643 606.646 128.377C606.396 129.11 606.155 129.802 605.921 130.452C605.688 131.102 605.471 131.677 605.271 132.177C605.138 132.26 604.988 132.327 604.821 132.377C604.655 132.427 604.43 132.452 604.146 132.452C603.88 132.452 603.63 132.402 603.396 132.302C603.18 132.218 603.03 132.077 602.946 131.877C602.746 131.46 602.505 130.81 602.221 129.927C601.955 129.043 601.671 128.077 601.371 127.027C601.088 125.96 600.813 124.893 600.546 123.827C600.296 122.743 600.088 121.802 599.921 121.002C600.038 120.885 600.18 120.777 600.346 120.677C600.53 120.577 600.746 120.527 600.996 120.527C601.313 120.527 601.546 120.618 601.696 120.802C601.846 120.968 601.963 121.243 602.046 121.627C602.196 122.327 602.371 123.127 602.571 124.027C602.771 124.91 602.971 125.777 603.171 126.627C603.371 127.477 603.555 128.252 603.721 128.952C603.905 129.652 604.038 130.168 604.121 130.502H604.221C604.321 130.202 604.463 129.752 604.646 129.152C604.846 128.552 605.071 127.868 605.321 127.102C605.571 126.318 605.846 125.477 606.146 124.577C606.446 123.677 606.746 122.777 607.046 121.877C607.346 121.71 607.705 121.627 608.121 121.627C608.738 121.627 609.121 121.843 609.271 122.277C609.571 123.143 609.855 124.01 610.121 124.877C610.405 125.727 610.663 126.518 610.896 127.252C611.13 127.985 611.33 128.643 611.496 129.227C611.663 129.793 611.796 130.227 611.896 130.527H612.021C612.405 129.027 612.821 127.435 613.271 125.752C613.721 124.068 614.088 122.402 614.371 120.752C614.605 120.602 614.888 120.527 615.221 120.527C615.505 120.527 615.73 120.593 615.896 120.727C616.063 120.86 616.146 121.068 616.146 121.352C616.146 121.535 616.088 121.893 615.971 122.427C615.871 122.943 615.73 123.552 615.546 124.252C615.363 124.935 615.155 125.677 614.921 126.477C614.705 127.26 614.48 128.027 614.246 128.777C614.013 129.51 613.788 130.185 613.571 130.802C613.371 131.402 613.196 131.86 613.046 132.177C612.963 132.243 612.821 132.302 612.621 132.352C612.438 132.418 612.221 132.452 611.971 132.452C611.655 132.452 611.388 132.41 611.171 132.327C610.971 132.26 610.838 132.143 610.771 131.977C610.588 131.527 610.388 130.993 610.171 130.377C609.971 129.76 609.755 129.093 609.521 128.377C609.288 127.643 609.046 126.877 608.796 126.077C608.563 125.277 608.33 124.485 608.096 123.702ZM626.284 124.777C626.284 123.843 626.017 123.16 625.484 122.727C624.967 122.293 624.267 122.077 623.384 122.077C622.717 122.077 622.126 122.16 621.609 122.327C621.092 122.493 620.651 122.685 620.284 122.902V132.252C620.201 132.285 620.076 132.318 619.909 132.352C619.742 132.402 619.559 132.427 619.359 132.427C618.642 132.427 618.284 132.127 618.284 131.527V123.002C618.284 122.652 618.351 122.368 618.484 122.152C618.634 121.918 618.884 121.693 619.234 121.477C619.667 121.21 620.242 120.968 620.959 120.752C621.676 120.535 622.484 120.427 623.384 120.427C624.901 120.427 626.092 120.768 626.959 121.452C627.842 122.135 628.284 123.21 628.284 124.677V132.252C628.201 132.285 628.067 132.318 627.884 132.352C627.717 132.402 627.542 132.427 627.359 132.427C626.642 132.427 626.284 132.127 626.284 131.527V124.777ZM643.684 129.227C643.684 130.293 643.292 131.127 642.509 131.727C641.726 132.327 640.592 132.627 639.109 132.627C638.476 132.627 637.892 132.568 637.359 132.452C636.826 132.352 636.367 132.218 635.984 132.052C635.617 131.868 635.326 131.668 635.109 131.452C634.909 131.218 634.809 130.985 634.809 130.752C634.809 130.552 634.859 130.36 634.959 130.177C635.076 129.993 635.242 129.835 635.459 129.702C635.909 130.035 636.434 130.335 637.034 130.602C637.634 130.852 638.317 130.977 639.084 130.977C640.817 130.977 641.684 130.393 641.684 129.227C641.684 128.277 641.109 127.66 639.959 127.377L637.884 126.827C636.867 126.56 636.126 126.177 635.659 125.677C635.192 125.16 634.959 124.502 634.959 123.702C634.959 123.268 635.042 122.852 635.209 122.452C635.392 122.052 635.667 121.702 636.034 121.402C636.401 121.102 636.851 120.868 637.384 120.702C637.934 120.518 638.576 120.427 639.309 120.427C640.476 120.427 641.417 120.602 642.134 120.952C642.851 121.285 643.209 121.677 643.209 122.127C643.209 122.343 643.151 122.535 643.034 122.702C642.934 122.868 642.792 122.993 642.609 123.077C642.309 122.877 641.884 122.66 641.334 122.427C640.784 122.193 640.134 122.077 639.384 122.077C638.634 122.077 638.034 122.218 637.584 122.502C637.151 122.785 636.934 123.185 636.934 123.702C636.934 124.085 637.059 124.41 637.309 124.677C637.559 124.943 637.976 125.143 638.559 125.277L640.284 125.702C641.417 125.985 642.267 126.41 642.834 126.977C643.401 127.527 643.684 128.277 643.684 129.227ZM647.513 127.702C647.963 129.885 649.396 130.977 651.813 130.977C652.513 130.977 653.146 130.86 653.713 130.627C654.279 130.393 654.729 130.143 655.063 129.877C655.463 130.11 655.663 130.427 655.663 130.827C655.663 131.06 655.554 131.285 655.338 131.502C655.138 131.718 654.854 131.91 654.488 132.077C654.138 132.243 653.721 132.377 653.238 132.477C652.771 132.577 652.263 132.627 651.713 132.627C649.779 132.627 648.246 132.102 647.113 131.052C645.996 130.002 645.438 128.468 645.438 126.452C645.438 125.502 645.571 124.66 645.838 123.927C646.121 123.177 646.504 122.543 646.988 122.027C647.488 121.51 648.079 121.118 648.763 120.852C649.446 120.568 650.188 120.427 650.988 120.427C651.738 120.427 652.429 120.552 653.063 120.802C653.696 121.052 654.238 121.41 654.688 121.877C655.154 122.327 655.513 122.868 655.763 123.502C656.029 124.118 656.163 124.802 656.163 125.552C656.163 125.918 656.079 126.185 655.913 126.352C655.746 126.502 655.513 126.593 655.213 126.627L647.513 127.702ZM650.963 122.052C649.946 122.052 649.104 122.41 648.438 123.127C647.771 123.827 647.421 124.835 647.388 126.152L654.263 125.202C654.179 124.285 653.854 123.535 653.288 122.952C652.738 122.352 651.963 122.052 650.963 122.052ZM660.302 132.252C660.218 132.285 660.093 132.318 659.927 132.352C659.76 132.402 659.577 132.427 659.377 132.427C658.66 132.427 658.302 132.127 658.302 131.527V123.052C658.302 122.668 658.368 122.368 658.502 122.152C658.652 121.918 658.893 121.693 659.227 121.477C659.66 121.193 660.243 120.952 660.977 120.752C661.727 120.535 662.568 120.427 663.502 120.427C664.835 120.427 665.502 120.76 665.502 121.427C665.502 121.593 665.477 121.752 665.427 121.902C665.377 122.035 665.31 122.152 665.227 122.252C665.06 122.218 664.843 122.185 664.577 122.152C664.31 122.118 664.043 122.102 663.777 122.102C663.01 122.102 662.335 122.185 661.752 122.352C661.168 122.502 660.685 122.685 660.302 122.902V132.252ZM676.138 120.527C676.421 120.527 676.646 120.602 676.813 120.752C676.996 120.902 677.088 121.118 677.088 121.402C677.088 121.585 677.021 121.91 676.888 122.377C676.755 122.827 676.58 123.368 676.363 124.002C676.146 124.618 675.896 125.302 675.613 126.052C675.346 126.802 675.055 127.552 674.738 128.302C674.438 129.035 674.13 129.743 673.813 130.427C673.513 131.11 673.23 131.702 672.963 132.202C672.88 132.268 672.73 132.327 672.513 132.377C672.313 132.427 672.096 132.452 671.863 132.452C671.246 132.452 670.846 132.277 670.663 131.927C670.513 131.643 670.321 131.252 670.088 130.752C669.855 130.252 669.605 129.685 669.338 129.052C669.071 128.418 668.796 127.743 668.513 127.027C668.23 126.31 667.955 125.602 667.688 124.902C667.421 124.185 667.171 123.502 666.938 122.852C666.705 122.185 666.513 121.593 666.363 121.077C666.48 120.91 666.638 120.777 666.838 120.677C667.038 120.577 667.238 120.527 667.438 120.527C667.738 120.527 667.963 120.602 668.113 120.752C668.28 120.902 668.43 121.152 668.563 121.502L670.113 125.977C670.213 126.26 670.338 126.61 670.488 127.027C670.638 127.427 670.788 127.843 670.938 128.277C671.105 128.693 671.263 129.102 671.413 129.502C671.58 129.902 671.713 130.243 671.813 130.527H671.913C672.58 128.843 673.196 127.185 673.763 125.552C674.346 123.918 674.855 122.31 675.288 120.727C675.505 120.593 675.788 120.527 676.138 120.527ZM680.346 127.702C680.796 129.885 682.229 130.977 684.646 130.977C685.346 130.977 685.979 130.86 686.546 130.627C687.112 130.393 687.562 130.143 687.896 129.877C688.296 130.11 688.496 130.427 688.496 130.827C688.496 131.06 688.387 131.285 688.171 131.502C687.971 131.718 687.687 131.91 687.321 132.077C686.971 132.243 686.554 132.377 686.071 132.477C685.604 132.577 685.096 132.627 684.546 132.627C682.612 132.627 681.079 132.102 679.946 131.052C678.829 130.002 678.271 128.468 678.271 126.452C678.271 125.502 678.404 124.66 678.671 123.927C678.954 123.177 679.337 122.543 679.821 122.027C680.321 121.51 680.912 121.118 681.596 120.852C682.279 120.568 683.021 120.427 683.821 120.427C684.571 120.427 685.262 120.552 685.896 120.802C686.529 121.052 687.071 121.41 687.521 121.877C687.987 122.327 688.346 122.868 688.596 123.502C688.862 124.118 688.996 124.802 688.996 125.552C688.996 125.918 688.912 126.185 688.746 126.352C688.579 126.502 688.346 126.593 688.046 126.627L680.346 127.702ZM683.796 122.052C682.779 122.052 681.937 122.41 681.271 123.127C680.604 123.827 680.254 124.835 680.221 126.152L687.096 125.202C687.012 124.285 686.687 123.535 686.121 122.952C685.571 122.352 684.796 122.052 683.796 122.052ZM693.135 132.252C693.051 132.285 692.926 132.318 692.76 132.352C692.593 132.402 692.41 132.427 692.21 132.427C691.493 132.427 691.135 132.127 691.135 131.527V123.052C691.135 122.668 691.201 122.368 691.335 122.152C691.485 121.918 691.726 121.693 692.06 121.477C692.493 121.193 693.076 120.952 693.81 120.752C694.56 120.535 695.401 120.427 696.335 120.427C697.668 120.427 698.335 120.76 698.335 121.427C698.335 121.593 698.31 121.752 698.26 121.902C698.21 122.035 698.143 122.152 698.06 122.252C697.893 122.218 697.676 122.185 697.41 122.152C697.143 122.118 696.876 122.102 696.61 122.102C695.843 122.102 695.168 122.185 694.585 122.352C694.001 122.502 693.518 122.685 693.135 122.902V132.252ZM702.156 117.752C702.156 118.252 702.147 118.91 702.131 119.727C702.131 120.543 702.114 121.418 702.081 122.352C702.064 123.268 702.039 124.193 702.006 125.127C701.972 126.06 701.939 126.893 701.906 127.627C701.689 127.793 701.414 127.877 701.081 127.877C700.847 127.877 700.656 127.827 700.506 127.727C700.356 127.627 700.272 127.468 700.256 127.252C700.222 126.768 700.189 126.093 700.156 125.227C700.122 124.36 700.097 123.435 700.081 122.452C700.064 121.468 700.047 120.493 700.031 119.527C700.031 118.543 700.031 117.702 700.031 117.002C700.381 116.785 700.756 116.677 701.156 116.677C701.822 116.677 702.156 117.035 702.156 117.752ZM699.706 131.177C699.706 130.777 699.831 130.443 700.081 130.177C700.331 129.91 700.672 129.777 701.106 129.777C701.539 129.777 701.881 129.91 702.131 130.177C702.381 130.443 702.506 130.777 702.506 131.177C702.506 131.577 702.381 131.91 702.131 132.177C701.881 132.443 701.539 132.577 701.106 132.577C700.672 132.577 700.331 132.443 700.081 132.177C699.831 131.91 699.706 131.577 699.706 131.177Z" fill="white"/>
<path opacity="0.5" d="M374.089 90.1853C374.029 90.2053 373.949 90.2253 373.849 90.2453C373.749 90.2753 373.639 90.2903 373.519 90.2903C373.079 90.2903 372.859 90.1053 372.859 89.7353V81.7553C372.859 81.5953 372.899 81.4753 372.979 81.3953C373.059 81.3053 373.184 81.2353 373.354 81.1853C373.644 81.0953 373.999 81.0303 374.419 80.9903C374.849 80.9503 375.264 80.9303 375.664 80.9303C376.924 80.9303 377.859 81.1853 378.469 81.6953C379.089 82.1953 379.399 82.9103 379.399 83.8403C379.399 84.5303 379.219 85.1103 378.859 85.5803C378.509 86.0503 377.974 86.3853 377.254 86.5853C377.504 86.9053 377.754 87.2253 378.004 87.5453C378.254 87.8653 378.489 88.1703 378.709 88.4603C378.939 88.7403 379.139 88.9953 379.309 89.2253C379.489 89.4553 379.629 89.6353 379.729 89.7653C379.689 89.9353 379.599 90.0703 379.459 90.1703C379.329 90.2703 379.194 90.3203 379.054 90.3203C378.884 90.3203 378.744 90.2803 378.634 90.2003C378.524 90.1203 378.409 89.9953 378.289 89.8253L376.099 86.7653H374.089V90.1853ZM375.799 85.7453C376.539 85.7453 377.119 85.5853 377.539 85.2653C377.959 84.9453 378.169 84.4703 378.169 83.8403C378.169 83.2103 377.949 82.7403 377.509 82.4303C377.069 82.1103 376.439 81.9503 375.619 81.9503C375.349 81.9503 375.074 81.9653 374.794 81.9953C374.524 82.0153 374.284 82.0453 374.074 82.0853V85.7453H375.799ZM382.652 90.2153C382.452 90.2153 382.292 90.1553 382.172 90.0353C382.052 89.9153 381.992 89.7553 381.992 89.5553V81.7553C381.992 81.5553 382.052 81.3953 382.172 81.2753C382.292 81.1553 382.452 81.0953 382.652 81.0953H387.632C387.662 81.1453 387.692 81.2153 387.722 81.3053C387.752 81.3853 387.767 81.4753 387.767 81.5753C387.767 81.7453 387.727 81.8803 387.647 81.9803C387.567 82.0803 387.452 82.1303 387.302 82.1303H383.207V85.0253H387.167C387.197 85.0753 387.227 85.1453 387.257 85.2353C387.287 85.3153 387.302 85.4053 387.302 85.5053C387.302 85.6753 387.262 85.8103 387.182 85.9103C387.102 86.0003 386.987 86.0453 386.837 86.0453H383.207V89.1953H387.707C387.737 89.2453 387.767 89.3103 387.797 89.3903C387.827 89.4703 387.842 89.5653 387.842 89.6753C387.842 89.8453 387.802 89.9803 387.722 90.0803C387.642 90.1703 387.527 90.2153 387.377 90.2153H382.652ZM395.536 87.7853H391.516C391.446 87.9853 391.371 88.2053 391.291 88.4453C391.211 88.6753 391.131 88.9053 391.051 89.1353C390.981 89.3553 390.911 89.5653 390.841 89.7653C390.771 89.9553 390.716 90.1153 390.676 90.2453C390.536 90.3053 390.371 90.3353 390.181 90.3353C390.021 90.3353 389.876 90.2953 389.746 90.2153C389.626 90.1253 389.566 89.9853 389.566 89.7953C389.566 89.7053 389.581 89.6153 389.611 89.5253C389.641 89.4253 389.676 89.3203 389.716 89.2103C389.866 88.7903 390.056 88.2503 390.286 87.5903C390.526 86.9303 390.781 86.2303 391.051 85.4903C391.331 84.7403 391.611 83.9903 391.891 83.2403C392.181 82.4803 392.446 81.8003 392.686 81.2003C392.766 81.1603 392.886 81.1203 393.046 81.0803C393.206 81.0403 393.371 81.0203 393.541 81.0203C393.741 81.0203 393.931 81.0503 394.111 81.1103C394.301 81.1703 394.421 81.2703 394.471 81.4103C394.711 81.9903 394.966 82.6553 395.236 83.4053C395.516 84.1453 395.796 84.9053 396.076 85.6853C396.356 86.4653 396.621 87.2353 396.871 87.9953C397.131 88.7453 397.361 89.4253 397.561 90.0353C397.481 90.1253 397.386 90.1953 397.276 90.2453C397.166 90.3053 397.041 90.3353 396.901 90.3353C396.711 90.3353 396.566 90.2953 396.466 90.2153C396.366 90.1253 396.281 89.9803 396.211 89.7803L395.536 87.7853ZM393.526 82.0403C393.416 82.3403 393.291 82.6853 393.151 83.0753C393.011 83.4553 392.866 83.8553 392.716 84.2753C392.566 84.6953 392.416 85.1203 392.266 85.5503C392.116 85.9803 391.976 86.3903 391.846 86.7803H395.221C395.071 86.3303 394.916 85.8803 394.756 85.4303C394.596 84.9703 394.441 84.5303 394.291 84.1103C394.151 83.6903 394.016 83.3053 393.886 82.9553C393.766 82.5953 393.666 82.2903 393.586 82.0403H393.526ZM406.018 85.5503C406.018 84.9103 405.918 84.3653 405.718 83.9153C405.528 83.4553 405.263 83.0803 404.923 82.7903C404.593 82.5003 404.203 82.2903 403.753 82.1603C403.313 82.0203 402.838 81.9503 402.328 81.9503C402.008 81.9503 401.728 81.9603 401.488 81.9803C401.258 82.0003 401.043 82.0303 400.843 82.0703V89.2103C401.083 89.2703 401.338 89.3103 401.608 89.3303C401.888 89.3503 402.173 89.3603 402.463 89.3603C403.643 89.3603 404.528 89.0403 405.118 88.4003C405.718 87.7603 406.018 86.8103 406.018 85.5503ZM407.263 85.5503C407.263 86.3703 407.148 87.0853 406.918 87.6953C406.698 88.2953 406.378 88.7953 405.958 89.1953C405.548 89.5953 405.048 89.8953 404.458 90.0953C403.868 90.2853 403.208 90.3803 402.478 90.3803C402.158 90.3803 401.798 90.3653 401.398 90.3353C400.998 90.3153 400.618 90.2503 400.258 90.1403C399.838 90.0103 399.628 89.7803 399.628 89.4503V81.7403C399.628 81.5803 399.668 81.4603 399.748 81.3803C399.828 81.2903 399.953 81.2203 400.123 81.1703C400.433 81.0703 400.783 81.0053 401.173 80.9753C401.563 80.9453 401.953 80.9303 402.343 80.9303C403.073 80.9303 403.738 81.0303 404.338 81.2303C404.948 81.4203 405.468 81.7103 405.898 82.1003C406.328 82.4803 406.663 82.9603 406.903 83.5403C407.143 84.1103 407.263 84.7803 407.263 85.5503ZM415.96 81.5153C415.96 81.6253 415.885 81.8403 415.735 82.1603C415.585 82.4703 415.375 82.8603 415.105 83.3303C414.835 83.8003 414.51 84.3353 414.13 84.9353C413.76 85.5353 413.35 86.1703 412.9 86.8403V90.1853C412.85 90.2053 412.77 90.2253 412.66 90.2453C412.56 90.2753 412.455 90.2903 412.345 90.2903C411.905 90.2903 411.685 90.1053 411.685 89.7353V86.8403C411.405 86.4303 411.115 85.9953 410.815 85.5353C410.525 85.0753 410.235 84.6103 409.945 84.1403C409.655 83.6703 409.38 83.2103 409.12 82.7603C408.86 82.3103 408.63 81.8853 408.43 81.4853C408.47 81.3753 408.545 81.2703 408.655 81.1703C408.765 81.0603 408.91 81.0053 409.09 81.0053C409.28 81.0053 409.425 81.0553 409.525 81.1553C409.635 81.2553 409.745 81.4053 409.855 81.6053C410.015 81.8853 410.2 82.2153 410.41 82.5953C410.63 82.9753 410.85 83.3603 411.07 83.7503C411.3 84.1403 411.52 84.5203 411.73 84.8903C411.94 85.2503 412.12 85.5503 412.27 85.7903H412.33C412.85 84.9203 413.31 84.1103 413.71 83.3603C414.12 82.6103 414.525 81.8603 414.925 81.1103C414.985 81.0703 415.055 81.0453 415.135 81.0353C415.225 81.0153 415.31 81.0053 415.39 81.0053C415.77 81.0053 415.96 81.1753 415.96 81.5153ZM424.495 82.1303V90.1853C424.445 90.2053 424.365 90.2253 424.255 90.2453C424.155 90.2753 424.05 90.2903 423.94 90.2903C423.5 90.2903 423.28 90.1053 423.28 89.7353V82.1303H420.475C420.445 82.0803 420.415 82.0153 420.385 81.9353C420.355 81.8453 420.34 81.7453 420.34 81.6353C420.34 81.4653 420.38 81.3353 420.46 81.2453C420.54 81.1453 420.655 81.0953 420.805 81.0953H427.3C427.33 81.1453 427.36 81.2153 427.39 81.3053C427.42 81.3853 427.435 81.4753 427.435 81.5753C427.435 81.7453 427.395 81.8803 427.315 81.9803C427.235 82.0803 427.12 82.1303 426.97 82.1303H424.495ZM437.231 85.6553C437.231 86.4353 437.121 87.1253 436.901 87.7253C436.681 88.3153 436.376 88.8103 435.986 89.2103C435.596 89.6003 435.136 89.9003 434.606 90.1103C434.076 90.3103 433.501 90.4103 432.881 90.4103C432.261 90.4103 431.686 90.3103 431.156 90.1103C430.626 89.9003 430.166 89.6003 429.776 89.2103C429.386 88.8103 429.081 88.3153 428.861 87.7253C428.641 87.1253 428.531 86.4353 428.531 85.6553C428.531 84.8753 428.641 84.1903 428.861 83.6003C429.091 83.0103 429.401 82.5153 429.791 82.1153C430.181 81.7153 430.641 81.4153 431.171 81.2153C431.701 81.0053 432.271 80.9003 432.881 80.9003C433.491 80.9003 434.061 81.0053 434.591 81.2153C435.121 81.4153 435.581 81.7153 435.971 82.1153C436.361 82.5153 436.666 83.0103 436.886 83.6003C437.116 84.1903 437.231 84.8753 437.231 85.6553ZM435.986 85.6553C435.986 84.4553 435.701 83.5353 435.131 82.8953C434.571 82.2553 433.821 81.9353 432.881 81.9353C432.411 81.9353 431.986 82.0203 431.606 82.1903C431.226 82.3503 430.901 82.5903 430.631 82.9103C430.361 83.2203 430.151 83.6053 430.001 84.0653C429.861 84.5253 429.791 85.0553 429.791 85.6553C429.791 86.8553 430.071 87.7753 430.631 88.4153C431.191 89.0553 431.941 89.3753 432.881 89.3753C433.831 89.3753 434.586 89.0553 435.146 88.4153C435.706 87.7753 435.986 86.8553 435.986 85.6553ZM445.521 89.3903C446.191 89.3903 446.696 89.2403 447.036 88.9403C447.386 88.6303 447.561 88.2353 447.561 87.7553C447.561 87.3353 447.426 86.9953 447.156 86.7353C446.896 86.4753 446.481 86.2603 445.911 86.0903L444.606 85.7003C443.966 85.5103 443.461 85.2303 443.091 84.8603C442.731 84.4903 442.551 83.9903 442.551 83.3603C442.551 82.9803 442.621 82.6403 442.761 82.3403C442.911 82.0303 443.121 81.7703 443.391 81.5603C443.661 81.3503 443.981 81.1903 444.351 81.0803C444.731 80.9603 445.156 80.9003 445.626 80.9003C446.026 80.9003 446.396 80.9353 446.736 81.0053C447.086 81.0653 447.386 81.1553 447.636 81.2753C447.896 81.3853 448.096 81.5103 448.236 81.6503C448.376 81.7903 448.446 81.9353 448.446 82.0853C448.446 82.2253 448.411 82.3453 448.341 82.4453C448.271 82.5453 448.181 82.6253 448.071 82.6853C447.811 82.4853 447.471 82.3103 447.051 82.1603C446.641 82.0103 446.181 81.9353 445.671 81.9353C445.081 81.9353 444.616 82.0603 444.276 82.3103C443.946 82.5603 443.781 82.9103 443.781 83.3603C443.781 83.7103 443.901 83.9953 444.141 84.2153C444.381 84.4353 444.781 84.6253 445.341 84.7853L446.256 85.0553C447.046 85.2853 447.666 85.6103 448.116 86.0303C448.576 86.4403 448.806 87.0153 448.806 87.7553C448.806 88.5453 448.521 89.1853 447.951 89.6753C447.381 90.1653 446.571 90.4103 445.521 90.4103C445.061 90.4103 444.641 90.3703 444.261 90.2903C443.891 90.2103 443.571 90.1053 443.301 89.9753C443.041 89.8453 442.836 89.7053 442.686 89.5553C442.546 89.3953 442.476 89.2403 442.476 89.0903C442.476 88.9203 442.526 88.7803 442.626 88.6703C442.736 88.5503 442.861 88.4653 443.001 88.4153C443.111 88.5253 443.246 88.6403 443.406 88.7603C443.566 88.8703 443.751 88.9753 443.961 89.0753C444.171 89.1653 444.406 89.2403 444.666 89.3003C444.926 89.3603 445.211 89.3903 445.521 89.3903ZM454.113 82.1303V90.1853C454.063 90.2053 453.983 90.2253 453.873 90.2453C453.773 90.2753 453.668 90.2903 453.558 90.2903C453.118 90.2903 452.898 90.1053 452.898 89.7353V82.1303H450.093C450.063 82.0803 450.033 82.0153 450.003 81.9353C449.973 81.8453 449.958 81.7453 449.958 81.6353C449.958 81.4653 449.998 81.3353 450.078 81.2453C450.158 81.1453 450.273 81.0953 450.423 81.0953H456.918C456.948 81.1453 456.978 81.2153 457.008 81.3053C457.038 81.3853 457.053 81.4753 457.053 81.5753C457.053 81.7453 457.013 81.8803 456.933 81.9803C456.853 82.0803 456.738 82.1303 456.588 82.1303H454.113ZM463.554 87.7853H459.534C459.464 87.9853 459.389 88.2053 459.309 88.4453C459.229 88.6753 459.149 88.9053 459.069 89.1353C458.999 89.3553 458.929 89.5653 458.859 89.7653C458.789 89.9553 458.734 90.1153 458.694 90.2453C458.554 90.3053 458.389 90.3353 458.199 90.3353C458.039 90.3353 457.894 90.2953 457.764 90.2153C457.644 90.1253 457.584 89.9853 457.584 89.7953C457.584 89.7053 457.599 89.6153 457.629 89.5253C457.659 89.4253 457.694 89.3203 457.734 89.2103C457.884 88.7903 458.074 88.2503 458.304 87.5903C458.544 86.9303 458.799 86.2303 459.069 85.4903C459.349 84.7403 459.629 83.9903 459.909 83.2403C460.199 82.4803 460.464 81.8003 460.704 81.2003C460.784 81.1603 460.904 81.1203 461.064 81.0803C461.224 81.0403 461.389 81.0203 461.559 81.0203C461.759 81.0203 461.949 81.0503 462.129 81.1103C462.319 81.1703 462.439 81.2703 462.489 81.4103C462.729 81.9903 462.984 82.6553 463.254 83.4053C463.534 84.1453 463.814 84.9053 464.094 85.6853C464.374 86.4653 464.639 87.2353 464.889 87.9953C465.149 88.7453 465.379 89.4253 465.579 90.0353C465.499 90.1253 465.404 90.1953 465.294 90.2453C465.184 90.3053 465.059 90.3353 464.919 90.3353C464.729 90.3353 464.584 90.2953 464.484 90.2153C464.384 90.1253 464.299 89.9803 464.229 89.7803L463.554 87.7853ZM461.544 82.0403C461.434 82.3403 461.309 82.6853 461.169 83.0753C461.029 83.4553 460.884 83.8553 460.734 84.2753C460.584 84.6953 460.434 85.1203 460.284 85.5503C460.134 85.9803 459.994 86.3903 459.864 86.7803H463.239C463.089 86.3303 462.934 85.8803 462.774 85.4303C462.614 84.9703 462.459 84.5303 462.309 84.1103C462.169 83.6903 462.034 83.3053 461.904 82.9553C461.784 82.5953 461.684 82.2903 461.604 82.0403H461.544ZM468.876 90.1853C468.816 90.2053 468.736 90.2253 468.636 90.2453C468.536 90.2753 468.426 90.2903 468.306 90.2903C467.866 90.2903 467.646 90.1053 467.646 89.7353V81.7553C467.646 81.5953 467.686 81.4753 467.766 81.3953C467.846 81.3053 467.971 81.2353 468.141 81.1853C468.431 81.0953 468.786 81.0303 469.206 80.9903C469.636 80.9503 470.051 80.9303 470.451 80.9303C471.711 80.9303 472.646 81.1853 473.256 81.6953C473.876 82.1953 474.186 82.9103 474.186 83.8403C474.186 84.5303 474.006 85.1103 473.646 85.5803C473.296 86.0503 472.761 86.3853 472.041 86.5853C472.291 86.9053 472.541 87.2253 472.791 87.5453C473.041 87.8653 473.276 88.1703 473.496 88.4603C473.726 88.7403 473.926 88.9953 474.096 89.2253C474.276 89.4553 474.416 89.6353 474.516 89.7653C474.476 89.9353 474.386 90.0703 474.246 90.1703C474.116 90.2703 473.981 90.3203 473.841 90.3203C473.671 90.3203 473.531 90.2803 473.421 90.2003C473.311 90.1203 473.196 89.9953 473.076 89.8253L470.886 86.7653H468.876V90.1853ZM470.586 85.7453C471.326 85.7453 471.906 85.5853 472.326 85.2653C472.746 84.9453 472.956 84.4703 472.956 83.8403C472.956 83.2103 472.736 82.7403 472.296 82.4303C471.856 82.1103 471.226 81.9503 470.406 81.9503C470.136 81.9503 469.861 81.9653 469.581 81.9953C469.311 82.0153 469.071 82.0453 468.861 82.0853V85.7453H470.586ZM479.754 82.1303V90.1853C479.704 90.2053 479.624 90.2253 479.514 90.2453C479.414 90.2753 479.309 90.2903 479.199 90.2903C478.759 90.2903 478.539 90.1053 478.539 89.7353V82.1303H475.734C475.704 82.0803 475.674 82.0153 475.644 81.9353C475.614 81.8453 475.599 81.7453 475.599 81.6353C475.599 81.4653 475.639 81.3353 475.719 81.2453C475.799 81.1453 475.914 81.0953 476.064 81.0953H482.559C482.589 81.1453 482.619 81.2153 482.649 81.3053C482.679 81.3853 482.694 81.4753 482.694 81.5753C482.694 81.7453 482.654 81.8803 482.574 81.9803C482.494 82.0803 482.379 82.1303 482.229 82.1303H479.754ZM485.481 87.2153C485.281 87.0153 485.181 86.7953 485.181 86.5553C485.181 86.4153 485.221 86.3003 485.301 86.2103C485.381 86.1203 485.521 86.0503 485.721 86.0003L486.756 85.7303C487.416 85.5603 487.921 85.3103 488.271 84.9803C488.631 84.6403 488.811 84.2003 488.811 83.6603C488.811 83.1803 488.636 82.7703 488.286 82.4303C487.946 82.0803 487.411 81.9053 486.681 81.9053C486.281 81.9053 485.876 81.9703 485.466 82.1003C485.066 82.2203 484.746 82.3803 484.506 82.5803C484.276 82.4103 484.161 82.1953 484.161 81.9353C484.161 81.7853 484.221 81.6453 484.341 81.5153C484.471 81.3853 484.651 81.2703 484.881 81.1703C485.111 81.0703 485.381 80.9903 485.691 80.9303C486.001 80.8703 486.346 80.8403 486.726 80.8403C487.216 80.8403 487.666 80.9103 488.076 81.0503C488.486 81.1903 488.836 81.3853 489.126 81.6353C489.426 81.8753 489.656 82.1703 489.816 82.5203C489.976 82.8603 490.056 83.2353 490.056 83.6453C490.056 84.4953 489.796 85.1803 489.276 85.7003C488.766 86.2103 487.991 86.5953 486.951 86.8553L485.481 87.2153ZM485.316 89.5403C485.316 89.3003 485.391 89.1003 485.541 88.9403C485.691 88.7703 485.896 88.6853 486.156 88.6853C486.416 88.6853 486.621 88.7703 486.771 88.9403C486.931 89.1003 487.011 89.3003 487.011 89.5403C487.011 89.7803 486.931 89.9803 486.771 90.1403C486.621 90.3003 486.416 90.3803 486.156 90.3803C485.896 90.3803 485.691 90.3003 485.541 90.1403C485.391 89.9803 485.316 89.7803 485.316 89.5403Z" fill="white"/>
<rect x="349.999" y="160" width="137" height="41" rx="8" fill="#689EFF"/>
<path d="M398.542 175.844C398.542 175.993 398.494 176.121 398.398 176.228C398.313 176.335 398.211 176.415 398.094 176.468C397.817 176.276 397.491 176.095 397.118 175.924C396.745 175.753 396.259 175.668 395.662 175.668C395.171 175.668 394.718 175.753 394.302 175.924C393.886 176.095 393.523 176.345 393.214 176.676C392.905 177.007 392.659 177.423 392.478 177.924C392.307 178.425 392.222 179.001 392.222 179.652C392.222 180.313 392.307 180.889 392.478 181.38C392.649 181.871 392.883 182.281 393.182 182.612C393.491 182.943 393.859 183.193 394.286 183.364C394.713 183.524 395.187 183.604 395.71 183.604C396.265 183.604 396.745 183.529 397.15 183.38C397.566 183.22 397.913 183.033 398.19 182.82C398.297 182.863 398.398 182.943 398.494 183.06C398.59 183.167 398.638 183.295 398.638 183.444C398.638 183.668 398.51 183.871 398.254 184.052C398.009 184.223 397.673 184.372 397.246 184.5C396.819 184.639 396.275 184.708 395.614 184.708C394.942 184.708 394.318 184.601 393.742 184.388C393.166 184.175 392.665 183.86 392.238 183.444C391.822 183.017 391.491 182.489 391.246 181.86C391.001 181.231 390.878 180.495 390.878 179.652C390.878 178.809 391.001 178.073 391.246 177.444C391.502 176.804 391.843 176.271 392.27 175.844C392.697 175.417 393.193 175.097 393.758 174.884C394.334 174.671 394.937 174.564 395.566 174.564C396.003 174.564 396.403 174.601 396.766 174.676C397.139 174.751 397.454 174.852 397.71 174.98C397.977 175.097 398.179 175.236 398.318 175.396C398.467 175.545 398.542 175.695 398.542 175.844ZM402.028 184.468C401.975 184.489 401.895 184.511 401.788 184.532C401.682 184.564 401.564 184.58 401.436 184.58C400.978 184.58 400.748 184.388 400.748 184.004V174.132C400.802 174.111 400.882 174.089 400.988 174.068C401.106 174.036 401.223 174.02 401.34 174.02C401.799 174.02 402.028 174.212 402.028 174.596V184.468ZM407.198 183.668C407.646 183.668 408.014 183.625 408.302 183.54C408.601 183.444 408.814 183.353 408.942 183.268V180.948L406.958 181.156C406.403 181.209 405.993 181.337 405.726 181.54C405.459 181.732 405.326 182.02 405.326 182.404C405.326 182.809 405.481 183.124 405.79 183.348C406.099 183.561 406.569 183.668 407.198 183.668ZM407.182 176.9C408.11 176.9 408.846 177.108 409.39 177.524C409.934 177.94 410.206 178.596 410.206 179.492V183.284C410.206 183.519 410.158 183.7 410.062 183.828C409.977 183.945 409.843 184.057 409.662 184.164C409.406 184.313 409.065 184.441 408.638 184.548C408.222 184.665 407.742 184.724 407.198 184.724C406.195 184.724 405.417 184.527 404.862 184.132C404.318 183.737 404.046 183.167 404.046 182.42C404.046 181.716 404.275 181.188 404.734 180.836C405.193 180.473 405.838 180.249 406.67 180.164L408.942 179.94V179.492C408.942 178.959 408.782 178.569 408.462 178.324C408.142 178.079 407.71 177.956 407.166 177.956C406.718 177.956 406.297 178.02 405.902 178.148C405.507 178.276 405.155 178.42 404.846 178.58C404.761 178.505 404.681 178.42 404.606 178.324C404.542 178.228 404.51 178.121 404.51 178.004C404.51 177.855 404.547 177.732 404.622 177.636C404.697 177.54 404.814 177.449 404.974 177.364C405.262 177.215 405.593 177.103 405.966 177.028C406.339 176.943 406.745 176.9 407.182 176.9ZM413.902 184.468C413.849 184.489 413.769 184.511 413.662 184.532C413.556 184.564 413.438 184.58 413.31 184.58C412.852 184.58 412.622 184.388 412.622 184.004V177.14C412.676 177.119 412.756 177.097 412.862 177.076C412.98 177.044 413.102 177.028 413.23 177.028C413.678 177.028 413.902 177.225 413.902 177.62V184.468ZM412.43 174.772C412.43 174.548 412.505 174.361 412.654 174.212C412.814 174.052 413.017 173.972 413.262 173.972C413.508 173.972 413.705 174.052 413.854 174.212C414.004 174.361 414.078 174.548 414.078 174.772C414.078 174.996 414.004 175.188 413.854 175.348C413.705 175.497 413.508 175.572 413.262 175.572C413.017 175.572 412.814 175.497 412.654 175.348C412.505 175.188 412.43 174.996 412.43 174.772ZM425.778 179.476C425.778 178.953 425.628 178.569 425.33 178.324C425.031 178.079 424.631 177.956 424.13 177.956C423.436 177.956 422.818 178.201 422.274 178.692C422.338 178.905 422.37 179.135 422.37 179.38V184.468C422.316 184.489 422.231 184.511 422.114 184.532C422.007 184.564 421.895 184.58 421.778 184.58C421.319 184.58 421.09 184.388 421.09 184.004V179.476C421.09 178.953 420.94 178.569 420.642 178.324C420.343 178.079 419.938 177.956 419.426 177.956C419.084 177.956 418.759 178.009 418.45 178.116C418.151 178.223 417.895 178.345 417.682 178.484V184.468C417.628 184.489 417.548 184.511 417.442 184.532C417.335 184.564 417.218 184.58 417.09 184.58C416.631 184.58 416.402 184.388 416.402 184.004V178.548C416.402 178.335 416.444 178.159 416.53 178.02C416.626 177.871 416.786 177.721 417.01 177.572C417.298 177.391 417.66 177.236 418.098 177.108C418.546 176.969 418.994 176.9 419.442 176.9C419.964 176.9 420.428 176.98 420.834 177.14C421.239 177.289 421.548 177.497 421.762 177.764C422.039 177.519 422.386 177.316 422.802 177.156C423.218 176.985 423.692 176.9 424.226 176.9C425.09 176.9 425.778 177.108 426.29 177.524C426.802 177.929 427.058 178.559 427.058 179.412V184.468C427.004 184.489 426.919 184.511 426.802 184.532C426.695 184.564 426.583 184.58 426.466 184.58C426.007 184.58 425.778 184.388 425.778 184.004V179.476Z" fill="white"/>
<path d="M450.999 181.5V188.5L458.999 180.5L450.999 172.5V179.5H442.999V181.5H450.999Z" fill="white"/>
</svg>
