<svg width="863" height="231" viewBox="0 0 863 231" fill="none" xmlns="http://www.w3.org/2000/svg">
<rect width="862.167" height="230.306" rx="24" fill="#6B6EF9"/>
<path d="M212.741 128.632H203.361C203.197 129.098 203.022 129.612 202.836 130.172C202.649 130.708 202.462 131.245 202.276 131.782C202.112 132.295 201.949 132.785 201.786 133.252C201.622 133.695 201.494 134.068 201.401 134.372C201.074 134.512 200.689 134.582 200.246 134.582C199.872 134.582 199.534 134.488 199.231 134.302C198.951 134.092 198.811 133.765 198.811 133.322C198.811 133.112 198.846 132.902 198.916 132.692C198.986 132.458 199.067 132.213 199.161 131.957C199.511 130.977 199.954 129.717 200.491 128.177C201.051 126.637 201.646 125.003 202.276 123.277C202.929 121.527 203.582 119.777 204.236 118.027C204.912 116.253 205.531 114.667 206.091 113.267C206.277 113.173 206.557 113.08 206.931 112.987C207.304 112.893 207.689 112.847 208.086 112.847C208.552 112.847 208.996 112.917 209.416 113.057C209.859 113.197 210.139 113.43 210.256 113.757C210.816 115.11 211.411 116.662 212.041 118.412C212.694 120.138 213.347 121.912 214.001 123.732C214.654 125.552 215.272 127.348 215.856 129.122C216.462 130.872 216.999 132.458 217.466 133.882C217.279 134.092 217.057 134.255 216.801 134.372C216.544 134.512 216.252 134.582 215.926 134.582C215.482 134.582 215.144 134.488 214.911 134.302C214.677 134.092 214.479 133.753 214.316 133.287L212.741 128.632ZM208.051 115.227C207.794 115.927 207.502 116.732 207.176 117.642C206.849 118.528 206.511 119.462 206.161 120.442C205.811 121.422 205.461 122.413 205.111 123.417C204.761 124.42 204.434 125.377 204.131 126.287H212.006C211.656 125.237 211.294 124.187 210.921 123.137C210.547 122.063 210.186 121.037 209.836 120.057C209.509 119.077 209.194 118.178 208.891 117.362C208.611 116.522 208.377 115.81 208.191 115.227H208.051ZM233.942 131.642C233.942 132.108 233.837 132.47 233.627 132.727C233.44 132.983 233.137 133.24 232.717 133.497C232.25 133.8 231.585 134.08 230.722 134.337C229.859 134.617 228.867 134.757 227.747 134.757C226.487 134.757 225.332 134.593 224.282 134.267C223.232 133.94 222.322 133.438 221.552 132.762C220.805 132.062 220.222 131.187 219.802 130.137C219.405 129.063 219.207 127.78 219.207 126.287C219.207 124.77 219.417 123.475 219.837 122.402C220.257 121.305 220.817 120.407 221.517 119.707C222.24 119.007 223.08 118.493 224.037 118.167C225.017 117.84 226.055 117.677 227.152 117.677C227.899 117.677 228.622 117.77 229.322 117.957C230.022 118.143 230.629 118.377 231.142 118.657V111.622C231.259 111.575 231.434 111.528 231.667 111.482C231.924 111.412 232.18 111.377 232.437 111.377C233.44 111.377 233.942 111.797 233.942 112.637V131.642ZM231.142 121.177C230.675 120.85 230.139 120.57 229.532 120.337C228.925 120.103 228.225 119.987 227.432 119.987C226.709 119.987 226.02 120.103 225.367 120.337C224.737 120.547 224.177 120.908 223.687 121.422C223.197 121.912 222.8 122.565 222.497 123.382C222.217 124.198 222.077 125.19 222.077 126.357C222.077 128.503 222.59 130.055 223.617 131.012C224.644 131.968 226.009 132.447 227.712 132.447C228.529 132.447 229.194 132.365 229.707 132.202C230.244 132.015 230.722 131.793 231.142 131.537V121.177ZM252.033 131.642C252.033 132.108 251.928 132.47 251.718 132.727C251.531 132.983 251.228 133.24 250.808 133.497C250.341 133.8 249.676 134.08 248.813 134.337C247.949 134.617 246.958 134.757 245.838 134.757C244.578 134.757 243.423 134.593 242.373 134.267C241.323 133.94 240.413 133.438 239.643 132.762C238.896 132.062 238.313 131.187 237.893 130.137C237.496 129.063 237.298 127.78 237.298 126.287C237.298 124.77 237.508 123.475 237.928 122.402C238.348 121.305 238.908 120.407 239.608 119.707C240.331 119.007 241.171 118.493 242.128 118.167C243.108 117.84 244.146 117.677 245.243 117.677C245.989 117.677 246.713 117.77 247.413 117.957C248.113 118.143 248.719 118.377 249.233 118.657V111.622C249.349 111.575 249.524 111.528 249.758 111.482C250.014 111.412 250.271 111.377 250.528 111.377C251.531 111.377 252.033 111.797 252.033 112.637V131.642ZM249.233 121.177C248.766 120.85 248.229 120.57 247.623 120.337C247.016 120.103 246.316 119.987 245.523 119.987C244.799 119.987 244.111 120.103 243.458 120.337C242.828 120.547 242.268 120.908 241.778 121.422C241.288 121.912 240.891 122.565 240.588 123.382C240.308 124.198 240.168 125.19 240.168 126.357C240.168 128.503 240.681 130.055 241.708 131.012C242.734 131.968 244.099 132.447 245.803 132.447C246.619 132.447 247.284 132.365 247.798 132.202C248.334 132.015 248.813 131.793 249.233 131.537V121.177ZM264.285 134.477C263.258 134.477 262.745 134.057 262.745 133.217V113.442C263.165 113.022 263.795 112.812 264.635 112.812C265.195 112.812 265.673 112.928 266.07 113.162C266.467 113.372 266.828 113.768 267.155 114.352L273.84 125.552C274.12 126.042 274.412 126.567 274.715 127.127C275.018 127.663 275.31 128.212 275.59 128.772C275.87 129.308 276.127 129.822 276.36 130.312C276.617 130.778 276.827 131.175 276.99 131.502L277.13 131.467C276.943 129.577 276.827 127.675 276.78 125.762C276.757 123.848 276.745 121.982 276.745 120.162V113.092C276.885 113.045 277.072 112.998 277.305 112.952C277.538 112.882 277.795 112.847 278.075 112.847C279.102 112.847 279.615 113.267 279.615 114.107V133.917C279.405 134.103 279.137 134.243 278.81 134.337C278.483 134.453 278.122 134.512 277.725 134.512C277.165 134.512 276.687 134.407 276.29 134.197C275.893 133.963 275.532 133.555 275.205 132.972L268.555 121.772C268.275 121.305 267.972 120.792 267.645 120.232C267.342 119.672 267.038 119.123 266.735 118.587C266.455 118.05 266.187 117.537 265.93 117.047C265.697 116.557 265.498 116.148 265.335 115.822L265.195 115.857C265.312 116.977 265.405 118.26 265.475 119.707C265.545 121.13 265.58 122.483 265.58 123.767V134.232C265.463 134.278 265.277 134.325 265.02 134.372C264.787 134.442 264.542 134.477 264.285 134.477ZM286.306 127.862C286.936 130.918 288.942 132.447 292.326 132.447C293.306 132.447 294.192 132.283 294.986 131.957C295.779 131.63 296.409 131.28 296.876 130.907C297.436 131.233 297.716 131.677 297.716 132.237C297.716 132.563 297.564 132.878 297.261 133.182C296.981 133.485 296.584 133.753 296.071 133.987C295.581 134.22 294.997 134.407 294.321 134.547C293.667 134.687 292.956 134.757 292.186 134.757C289.479 134.757 287.332 134.022 285.746 132.552C284.182 131.082 283.401 128.935 283.401 126.112C283.401 124.782 283.587 123.603 283.961 122.577C284.357 121.527 284.894 120.64 285.571 119.917C286.271 119.193 287.099 118.645 288.056 118.272C289.012 117.875 290.051 117.677 291.171 117.677C292.221 117.677 293.189 117.852 294.076 118.202C294.962 118.552 295.721 119.053 296.351 119.707C297.004 120.337 297.506 121.095 297.856 121.982C298.229 122.845 298.416 123.802 298.416 124.852C298.416 125.365 298.299 125.738 298.066 125.972C297.832 126.182 297.506 126.31 297.086 126.357L286.306 127.862ZM291.136 119.952C289.712 119.952 288.534 120.453 287.601 121.457C286.667 122.437 286.177 123.848 286.131 125.692L295.756 124.362C295.639 123.078 295.184 122.028 294.391 121.212C293.621 120.372 292.536 119.952 291.136 119.952ZM308.305 134.757C307.488 134.757 306.718 134.663 305.995 134.477C305.272 134.29 304.677 134.068 304.21 133.812V140.602C304.093 140.648 303.918 140.695 303.685 140.742C303.452 140.812 303.195 140.847 302.915 140.847C301.912 140.847 301.41 140.415 301.41 139.552V121.072C301.41 120.605 301.492 120.232 301.655 119.952C301.818 119.672 302.157 119.38 302.67 119.077C303.3 118.727 304.047 118.412 304.91 118.132C305.797 117.828 306.8 117.677 307.92 117.677C309.063 117.677 310.137 117.84 311.14 118.167C312.167 118.493 313.042 119.007 313.765 119.707C314.512 120.383 315.095 121.258 315.515 122.332C315.958 123.405 316.18 124.688 316.18 126.182C316.18 127.628 315.982 128.888 315.585 129.962C315.212 131.035 314.675 131.933 313.975 132.657C313.275 133.357 312.435 133.882 311.455 134.232C310.498 134.582 309.448 134.757 308.305 134.757ZM307.92 132.447C309.553 132.447 310.86 131.957 311.84 130.977C312.843 129.973 313.345 128.375 313.345 126.182C313.345 125.038 313.193 124.07 312.89 123.277C312.61 122.483 312.213 121.842 311.7 121.352C311.21 120.862 310.638 120.512 309.985 120.302C309.332 120.092 308.643 119.987 307.92 119.987C307.08 119.987 306.368 120.092 305.785 120.302C305.202 120.512 304.677 120.745 304.21 121.002V131.327C304.653 131.653 305.178 131.922 305.785 132.132C306.392 132.342 307.103 132.447 307.92 132.447ZM340.858 118.377C340.858 119.38 340.613 120.313 340.123 121.177C339.657 122.017 338.863 122.67 337.743 123.137C339.073 123.58 340.065 124.28 340.718 125.237C341.372 126.17 341.698 127.232 341.698 128.422C341.698 130.545 340.928 132.12 339.388 133.147C337.872 134.173 335.702 134.687 332.878 134.687C331.898 134.687 330.942 134.64 330.008 134.547C329.098 134.477 328.223 134.325 327.383 134.092C326.403 133.812 325.913 133.275 325.913 132.482V114.562C325.913 113.885 326.298 113.442 327.068 113.232C327.862 112.998 328.702 112.847 329.588 112.777C330.475 112.683 331.443 112.637 332.493 112.637C335.13 112.637 337.183 113.103 338.653 114.037C340.123 114.97 340.858 116.417 340.858 118.377ZM328.713 124.397V131.957C329.273 132.073 329.915 132.167 330.638 132.237C331.385 132.307 332.132 132.342 332.878 132.342C334.815 132.342 336.285 132.027 337.288 131.397C338.292 130.743 338.793 129.728 338.793 128.352C338.793 127.138 338.338 126.182 337.428 125.482C336.542 124.758 335.223 124.397 333.473 124.397H328.713ZM328.713 122.087H333.473C334.943 122.087 336.052 121.76 336.798 121.107C337.568 120.453 337.953 119.567 337.953 118.447C337.953 116.137 336.133 114.982 332.493 114.982C331.677 114.982 330.965 115.017 330.358 115.087C329.775 115.133 329.227 115.203 328.713 115.297V122.087ZM360.238 126.217C360.238 127.523 360.051 128.702 359.678 129.752C359.304 130.802 358.768 131.7 358.068 132.447C357.391 133.193 356.563 133.765 355.583 134.162C354.603 134.558 353.506 134.757 352.293 134.757C351.079 134.757 349.983 134.558 349.003 134.162C348.023 133.765 347.183 133.193 346.483 132.447C345.783 131.7 345.246 130.802 344.873 129.752C344.499 128.702 344.313 127.523 344.313 126.217C344.313 124.91 344.499 123.732 344.873 122.682C345.269 121.632 345.818 120.733 346.518 119.987C347.218 119.24 348.058 118.668 349.038 118.272C350.018 117.875 351.103 117.677 352.293 117.677C353.483 117.677 354.568 117.875 355.548 118.272C356.528 118.668 357.356 119.24 358.033 119.987C358.733 120.733 359.269 121.632 359.643 122.682C360.039 123.732 360.238 124.91 360.238 126.217ZM352.293 119.987C350.706 119.987 349.458 120.535 348.548 121.632C347.638 122.728 347.183 124.257 347.183 126.217C347.183 128.2 347.626 129.74 348.513 130.837C349.423 131.91 350.683 132.447 352.293 132.447C353.903 132.447 355.151 131.898 356.038 130.802C356.924 129.705 357.368 128.177 357.368 126.217C357.368 124.257 356.913 122.728 356.003 121.632C355.116 120.535 353.879 119.987 352.293 119.987ZM369.049 134.757C367.415 134.757 366.085 134.395 365.059 133.672C364.055 132.948 363.554 131.747 363.554 130.067V113.442C363.67 113.395 363.845 113.348 364.079 113.302C364.335 113.232 364.604 113.197 364.884 113.197C365.864 113.197 366.354 113.617 366.354 114.457V118.482H372.094C372.164 118.598 372.234 118.762 372.304 118.972C372.374 119.158 372.409 119.368 372.409 119.602C372.409 120.395 372.059 120.792 371.359 120.792H366.354V129.892C366.354 130.825 366.61 131.49 367.124 131.887C367.66 132.26 368.407 132.447 369.364 132.447C369.76 132.447 370.204 132.377 370.694 132.237C371.184 132.097 371.592 131.933 371.919 131.747C372.059 131.887 372.187 132.062 372.304 132.272C372.42 132.482 372.479 132.727 372.479 133.007C372.479 133.52 372.175 133.94 371.569 134.267C370.962 134.593 370.122 134.757 369.049 134.757ZM386.978 134.757C385.344 134.757 384.014 134.395 382.988 133.672C381.984 132.948 381.483 131.747 381.483 130.067V113.442C381.599 113.395 381.774 113.348 382.008 113.302C382.264 113.232 382.533 113.197 382.813 113.197C383.793 113.197 384.283 113.617 384.283 114.457V118.482H390.023C390.093 118.598 390.163 118.762 390.233 118.972C390.303 119.158 390.338 119.368 390.338 119.602C390.338 120.395 389.988 120.792 389.288 120.792H384.283V129.892C384.283 130.825 384.539 131.49 385.053 131.887C385.589 132.26 386.336 132.447 387.293 132.447C387.689 132.447 388.133 132.377 388.623 132.237C389.113 132.097 389.521 131.933 389.848 131.747C389.988 131.887 390.116 132.062 390.233 132.272C390.349 132.482 390.408 132.727 390.408 133.007C390.408 133.52 390.104 133.94 389.498 134.267C388.891 134.593 388.051 134.757 386.978 134.757ZM407.923 126.217C407.923 127.523 407.736 128.702 407.363 129.752C406.989 130.802 406.453 131.7 405.753 132.447C405.076 133.193 404.248 133.765 403.268 134.162C402.288 134.558 401.191 134.757 399.978 134.757C398.764 134.757 397.668 134.558 396.688 134.162C395.708 133.765 394.868 133.193 394.168 132.447C393.468 131.7 392.931 130.802 392.558 129.752C392.184 128.702 391.998 127.523 391.998 126.217C391.998 124.91 392.184 123.732 392.558 122.682C392.954 121.632 393.503 120.733 394.203 119.987C394.903 119.24 395.743 118.668 396.723 118.272C397.703 117.875 398.788 117.677 399.978 117.677C401.168 117.677 402.253 117.875 403.233 118.272C404.213 118.668 405.041 119.24 405.718 119.987C406.418 120.733 406.954 121.632 407.328 122.682C407.724 123.732 407.923 124.91 407.923 126.217ZM399.978 119.987C398.391 119.987 397.143 120.535 396.233 121.632C395.323 122.728 394.868 124.257 394.868 126.217C394.868 128.2 395.311 129.74 396.198 130.837C397.108 131.91 398.368 132.447 399.978 132.447C401.588 132.447 402.836 131.898 403.723 130.802C404.609 129.705 405.053 128.177 405.053 126.217C405.053 124.257 404.598 122.728 403.688 121.632C402.801 120.535 401.564 119.987 399.978 119.987ZM420.45 130.697C420.147 130.137 419.797 129.425 419.4 128.562C419.003 127.698 418.583 126.73 418.14 125.657C417.72 124.583 417.288 123.452 416.845 122.262C416.402 121.048 415.982 119.823 415.585 118.587C415.748 118.353 415.958 118.167 416.215 118.027C416.495 117.887 416.787 117.817 417.09 117.817C417.487 117.817 417.802 117.922 418.035 118.132C418.292 118.342 418.513 118.692 418.7 119.182C419.4 121.165 420.123 123.113 420.87 125.027C421.64 126.94 422.503 128.947 423.46 131.047H423.6C423.973 130.323 424.358 129.448 424.755 128.422C425.152 127.372 425.537 126.263 425.91 125.097C426.307 123.93 426.668 122.752 426.995 121.562C427.345 120.348 427.648 119.193 427.905 118.097C428.068 118.027 428.243 117.968 428.43 117.922C428.617 117.852 428.838 117.817 429.095 117.817C429.492 117.817 429.818 117.922 430.075 118.132C430.332 118.318 430.46 118.61 430.46 119.007C430.46 119.473 430.297 120.325 429.97 121.562C429.643 122.798 429.212 124.187 428.675 125.727C428.162 127.267 427.567 128.853 426.89 130.487C426.213 132.097 425.525 133.532 424.825 134.792C423.728 136.775 422.737 138.292 421.85 139.342C420.987 140.415 420.182 140.952 419.435 140.952C418.898 140.952 418.478 140.812 418.175 140.532C417.895 140.252 417.72 139.925 417.65 139.552C418.023 139.225 418.443 138.805 418.91 138.292C419.377 137.778 419.843 137.218 420.31 136.612C420.777 136.028 421.22 135.422 421.64 134.792C422.06 134.162 422.41 133.555 422.69 132.972C422.293 132.855 421.92 132.657 421.57 132.377C421.243 132.073 420.87 131.513 420.45 130.697ZM447.976 126.217C447.976 127.523 447.789 128.702 447.416 129.752C447.042 130.802 446.506 131.7 445.806 132.447C445.129 133.193 444.301 133.765 443.321 134.162C442.341 134.558 441.244 134.757 440.031 134.757C438.817 134.757 437.721 134.558 436.741 134.162C435.761 133.765 434.921 133.193 434.221 132.447C433.521 131.7 432.984 130.802 432.611 129.752C432.237 128.702 432.051 127.523 432.051 126.217C432.051 124.91 432.237 123.732 432.611 122.682C433.007 121.632 433.556 120.733 434.256 119.987C434.956 119.24 435.796 118.668 436.776 118.272C437.756 117.875 438.841 117.677 440.031 117.677C441.221 117.677 442.306 117.875 443.286 118.272C444.266 118.668 445.094 119.24 445.771 119.987C446.471 120.733 447.007 121.632 447.381 122.682C447.777 123.732 447.976 124.91 447.976 126.217ZM440.031 119.987C438.444 119.987 437.196 120.535 436.286 121.632C435.376 122.728 434.921 124.257 434.921 126.217C434.921 128.2 435.364 129.74 436.251 130.837C437.161 131.91 438.421 132.447 440.031 132.447C441.641 132.447 442.889 131.898 443.776 130.802C444.662 129.705 445.106 128.177 445.106 126.217C445.106 124.257 444.651 122.728 443.741 121.632C442.854 120.535 441.617 119.987 440.031 119.987ZM451.256 118.202C451.373 118.155 451.548 118.108 451.781 118.062C452.038 117.992 452.306 117.957 452.586 117.957C453.566 117.957 454.056 118.388 454.056 119.252V128.247C454.056 129.763 454.453 130.848 455.246 131.502C456.04 132.132 457.136 132.447 458.536 132.447C459.47 132.447 460.263 132.353 460.916 132.167C461.57 131.957 462.083 131.747 462.456 131.537V118.202C462.573 118.155 462.748 118.108 462.981 118.062C463.238 117.992 463.495 117.957 463.751 117.957C464.755 117.957 465.256 118.388 465.256 119.252V131.432C465.256 131.922 465.186 132.318 465.046 132.622C464.93 132.902 464.626 133.182 464.136 133.462C463.6 133.765 462.853 134.057 461.896 134.337C460.963 134.617 459.831 134.757 458.501 134.757C456.168 134.757 454.371 134.243 453.111 133.217C451.875 132.19 451.256 130.58 451.256 128.387V118.202ZM472.25 134.232C472.133 134.278 471.958 134.325 471.725 134.372C471.491 134.442 471.235 134.477 470.955 134.477C469.951 134.477 469.45 134.057 469.45 133.217V121.352C469.45 120.815 469.543 120.395 469.73 120.092C469.94 119.765 470.278 119.45 470.745 119.147C471.351 118.75 472.168 118.412 473.195 118.132C474.245 117.828 475.423 117.677 476.73 117.677C478.596 117.677 479.53 118.143 479.53 119.077C479.53 119.31 479.495 119.532 479.425 119.742C479.355 119.928 479.261 120.092 479.145 120.232C478.911 120.185 478.608 120.138 478.235 120.092C477.861 120.045 477.488 120.022 477.115 120.022C476.041 120.022 475.096 120.138 474.28 120.372C473.463 120.582 472.786 120.838 472.25 121.142V134.232ZM501.546 131.642C501.546 132.108 501.441 132.47 501.231 132.727C501.044 132.983 500.741 133.24 500.321 133.497C499.854 133.8 499.189 134.08 498.326 134.337C497.462 134.617 496.471 134.757 495.351 134.757C494.091 134.757 492.936 134.593 491.886 134.267C490.836 133.94 489.926 133.438 489.156 132.762C488.409 132.062 487.826 131.187 487.406 130.137C487.009 129.063 486.811 127.78 486.811 126.287C486.811 124.77 487.021 123.475 487.441 122.402C487.861 121.305 488.421 120.407 489.121 119.707C489.844 119.007 490.684 118.493 491.641 118.167C492.621 117.84 493.659 117.677 494.756 117.677C495.502 117.677 496.226 117.77 496.926 117.957C497.626 118.143 498.232 118.377 498.746 118.657V111.622C498.862 111.575 499.037 111.528 499.271 111.482C499.527 111.412 499.784 111.377 500.041 111.377C501.044 111.377 501.546 111.797 501.546 112.637V131.642ZM498.746 121.177C498.279 120.85 497.742 120.57 497.136 120.337C496.529 120.103 495.829 119.987 495.036 119.987C494.312 119.987 493.624 120.103 492.971 120.337C492.341 120.547 491.781 120.908 491.291 121.422C490.801 121.912 490.404 122.565 490.101 123.382C489.821 124.198 489.681 125.19 489.681 126.357C489.681 128.503 490.194 130.055 491.221 131.012C492.247 131.968 493.612 132.447 495.316 132.447C496.132 132.447 496.797 132.365 497.311 132.202C497.847 132.015 498.326 131.793 498.746 131.537V121.177ZM508.786 134.232C508.67 134.278 508.495 134.325 508.261 134.372C508.028 134.442 507.771 134.477 507.491 134.477C506.488 134.477 505.986 134.057 505.986 133.217V118.202C506.103 118.155 506.278 118.108 506.511 118.062C506.768 117.992 507.036 117.957 507.316 117.957C508.296 117.957 508.786 118.388 508.786 119.252V134.232ZM505.566 113.022C505.566 112.532 505.73 112.123 506.056 111.797C506.406 111.447 506.85 111.272 507.386 111.272C507.923 111.272 508.355 111.447 508.681 111.797C509.008 112.123 509.171 112.532 509.171 113.022C509.171 113.512 509.008 113.932 508.681 114.282C508.355 114.608 507.923 114.772 507.386 114.772C506.85 114.772 506.406 114.608 506.056 114.282C505.73 113.932 505.566 113.512 505.566 113.022ZM524.614 129.997C524.614 131.49 524.065 132.657 522.969 133.497C521.872 134.337 520.285 134.757 518.209 134.757C517.322 134.757 516.505 134.675 515.759 134.512C515.012 134.372 514.37 134.185 513.834 133.952C513.32 133.695 512.912 133.415 512.609 133.112C512.329 132.785 512.189 132.458 512.189 132.132C512.189 131.852 512.259 131.583 512.399 131.327C512.562 131.07 512.795 130.848 513.099 130.662C513.729 131.128 514.464 131.548 515.304 131.922C516.144 132.272 517.1 132.447 518.174 132.447C520.6 132.447 521.814 131.63 521.814 129.997C521.814 128.667 521.009 127.803 519.399 127.407L516.494 126.637C515.07 126.263 514.032 125.727 513.379 125.027C512.725 124.303 512.399 123.382 512.399 122.262C512.399 121.655 512.515 121.072 512.749 120.512C513.005 119.952 513.39 119.462 513.904 119.042C514.417 118.622 515.047 118.295 515.794 118.062C516.564 117.805 517.462 117.677 518.489 117.677C520.122 117.677 521.44 117.922 522.444 118.412C523.447 118.878 523.949 119.427 523.949 120.057C523.949 120.36 523.867 120.628 523.704 120.862C523.564 121.095 523.365 121.27 523.109 121.387C522.689 121.107 522.094 120.803 521.324 120.477C520.554 120.15 519.644 119.987 518.594 119.987C517.544 119.987 516.704 120.185 516.074 120.582C515.467 120.978 515.164 121.538 515.164 122.262C515.164 122.798 515.339 123.253 515.689 123.627C516.039 124 516.622 124.28 517.439 124.467L519.854 125.062C521.44 125.458 522.63 126.053 523.424 126.847C524.217 127.617 524.614 128.667 524.614 129.997ZM535.469 120.022C534.676 120.022 533.941 120.162 533.264 120.442C532.587 120.698 532.004 121.095 531.514 121.632C531.024 122.145 530.639 122.798 530.359 123.592C530.079 124.362 529.939 125.248 529.939 126.252C529.939 128.258 530.441 129.798 531.444 130.872C532.447 131.922 533.789 132.447 535.469 132.447C536.449 132.447 537.266 132.318 537.919 132.062C538.572 131.782 539.156 131.467 539.669 131.117C539.926 131.257 540.136 131.432 540.299 131.642C540.462 131.852 540.544 132.108 540.544 132.412C540.544 132.738 540.416 133.042 540.159 133.322C539.902 133.602 539.541 133.847 539.074 134.057C538.631 134.267 538.094 134.43 537.464 134.547C536.857 134.687 536.192 134.757 535.469 134.757C534.256 134.757 533.136 134.582 532.109 134.232C531.082 133.882 530.196 133.357 529.449 132.657C528.702 131.957 528.119 131.082 527.699 130.032C527.279 128.958 527.069 127.698 527.069 126.252C527.069 124.828 527.291 123.592 527.734 122.542C528.177 121.468 528.772 120.57 529.519 119.847C530.266 119.123 531.141 118.587 532.144 118.237C533.171 117.863 534.256 117.677 535.399 117.677C536.122 117.677 536.787 117.747 537.394 117.887C538.024 118.003 538.561 118.178 539.004 118.412C539.447 118.645 539.786 118.913 540.019 119.217C540.276 119.497 540.404 119.788 540.404 120.092C540.404 120.372 540.322 120.617 540.159 120.827C539.996 121.037 539.786 121.2 539.529 121.317C539.016 120.967 538.456 120.663 537.849 120.407C537.242 120.15 536.449 120.022 535.469 120.022ZM558.248 126.217C558.248 127.523 558.061 128.702 557.688 129.752C557.314 130.802 556.778 131.7 556.078 132.447C555.401 133.193 554.573 133.765 553.593 134.162C552.613 134.558 551.516 134.757 550.303 134.757C549.089 134.757 547.993 134.558 547.013 134.162C546.033 133.765 545.193 133.193 544.493 132.447C543.793 131.7 543.256 130.802 542.883 129.752C542.509 128.702 542.323 127.523 542.323 126.217C542.323 124.91 542.509 123.732 542.883 122.682C543.279 121.632 543.828 120.733 544.528 119.987C545.228 119.24 546.068 118.668 547.048 118.272C548.028 117.875 549.113 117.677 550.303 117.677C551.493 117.677 552.578 117.875 553.558 118.272C554.538 118.668 555.366 119.24 556.043 119.987C556.743 120.733 557.279 121.632 557.653 122.682C558.049 123.732 558.248 124.91 558.248 126.217ZM550.303 119.987C548.716 119.987 547.468 120.535 546.558 121.632C545.648 122.728 545.193 124.257 545.193 126.217C545.193 128.2 545.636 129.74 546.523 130.837C547.433 131.91 548.693 132.447 550.303 132.447C551.913 132.447 553.161 131.898 554.048 130.802C554.934 129.705 555.378 128.177 555.378 126.217C555.378 124.257 554.923 122.728 554.013 121.632C553.126 120.535 551.889 119.987 550.303 119.987ZM564.328 134.232C564.212 134.278 564.037 134.325 563.803 134.372C563.57 134.442 563.313 134.477 563.033 134.477C562.03 134.477 561.528 134.057 561.528 133.217V121.352C561.528 120.815 561.622 120.395 561.808 120.092C562.018 119.765 562.357 119.45 562.823 119.147C563.43 118.75 564.247 118.412 565.273 118.132C566.323 117.828 567.502 117.677 568.808 117.677C570.675 117.677 571.608 118.143 571.608 119.077C571.608 119.31 571.573 119.532 571.503 119.742C571.433 119.928 571.34 120.092 571.223 120.232C570.99 120.185 570.687 120.138 570.313 120.092C569.94 120.045 569.567 120.022 569.193 120.022C568.12 120.022 567.175 120.138 566.358 120.372C565.542 120.582 564.865 120.838 564.328 121.142V134.232ZM587.326 131.642C587.326 132.108 587.221 132.47 587.011 132.727C586.824 132.983 586.521 133.24 586.101 133.497C585.634 133.8 584.969 134.08 584.106 134.337C583.242 134.617 582.251 134.757 581.131 134.757C579.871 134.757 578.716 134.593 577.666 134.267C576.616 133.94 575.706 133.438 574.936 132.762C574.189 132.062 573.606 131.187 573.186 130.137C572.789 129.063 572.591 127.78 572.591 126.287C572.591 124.77 572.801 123.475 573.221 122.402C573.641 121.305 574.201 120.407 574.901 119.707C575.624 119.007 576.464 118.493 577.421 118.167C578.401 117.84 579.439 117.677 580.536 117.677C581.282 117.677 582.006 117.77 582.706 117.957C583.406 118.143 584.012 118.377 584.526 118.657V111.622C584.642 111.575 584.817 111.528 585.051 111.482C585.307 111.412 585.564 111.377 585.821 111.377C586.824 111.377 587.326 111.797 587.326 112.637V131.642ZM584.526 121.177C584.059 120.85 583.522 120.57 582.916 120.337C582.309 120.103 581.609 119.987 580.816 119.987C580.092 119.987 579.404 120.103 578.751 120.337C578.121 120.547 577.561 120.908 577.071 121.422C576.581 121.912 576.184 122.565 575.881 123.382C575.601 124.198 575.461 125.19 575.461 126.357C575.461 128.503 575.974 130.055 577.001 131.012C578.027 131.968 579.392 132.447 581.096 132.447C581.912 132.447 582.577 132.365 583.091 132.202C583.627 132.015 584.106 131.793 584.526 131.537V121.177ZM608.748 123.767C608.748 122.46 608.375 121.503 607.628 120.897C606.905 120.29 605.925 119.987 604.688 119.987C603.755 119.987 602.927 120.103 602.203 120.337C601.48 120.57 600.862 120.838 600.348 121.142V134.232C600.232 134.278 600.057 134.325 599.823 134.372C599.59 134.442 599.333 134.477 599.053 134.477C598.05 134.477 597.548 134.057 597.548 133.217V121.282C597.548 120.792 597.642 120.395 597.828 120.092C598.038 119.765 598.388 119.45 598.878 119.147C599.485 118.773 600.29 118.435 601.293 118.132C602.297 117.828 603.428 117.677 604.688 117.677C606.812 117.677 608.48 118.155 609.693 119.112C610.93 120.068 611.548 121.573 611.548 123.627V134.232C611.432 134.278 611.245 134.325 610.988 134.372C610.755 134.442 610.51 134.477 610.253 134.477C609.25 134.477 608.748 134.057 608.748 133.217V123.767ZM630.756 126.217C630.756 127.523 630.57 128.702 630.196 129.752C629.823 130.802 629.286 131.7 628.586 132.447C627.91 133.193 627.081 133.765 626.101 134.162C625.121 134.558 624.025 134.757 622.811 134.757C621.598 134.757 620.501 134.558 619.521 134.162C618.541 133.765 617.701 133.193 617.001 132.447C616.301 131.7 615.765 130.802 615.391 129.752C615.018 128.702 614.831 127.523 614.831 126.217C614.831 124.91 615.018 123.732 615.391 122.682C615.788 121.632 616.336 120.733 617.036 119.987C617.736 119.24 618.576 118.668 619.556 118.272C620.536 117.875 621.621 117.677 622.811 117.677C624.001 117.677 625.086 117.875 626.066 118.272C627.046 118.668 627.875 119.24 628.551 119.987C629.251 120.733 629.788 121.632 630.161 122.682C630.558 123.732 630.756 124.91 630.756 126.217ZM622.811 119.987C621.225 119.987 619.976 120.535 619.066 121.632C618.156 122.728 617.701 124.257 617.701 126.217C617.701 128.2 618.145 129.74 619.031 130.837C619.941 131.91 621.201 132.447 622.811 132.447C624.421 132.447 625.67 131.898 626.556 130.802C627.443 129.705 627.886 128.177 627.886 126.217C627.886 124.257 627.431 122.728 626.521 121.632C625.635 120.535 624.398 119.987 622.811 119.987ZM644.017 122.262C643.69 123.358 643.352 124.467 643.002 125.587C642.675 126.707 642.337 127.78 641.987 128.807C641.637 129.833 641.299 130.802 640.972 131.712C640.645 132.622 640.342 133.427 640.062 134.127C639.875 134.243 639.665 134.337 639.432 134.407C639.199 134.477 638.884 134.512 638.487 134.512C638.114 134.512 637.764 134.442 637.437 134.302C637.134 134.185 636.924 133.987 636.807 133.707C636.527 133.123 636.189 132.213 635.792 130.977C635.419 129.74 635.022 128.387 634.602 126.917C634.205 125.423 633.82 123.93 633.447 122.437C633.097 120.92 632.805 119.602 632.572 118.482C632.735 118.318 632.934 118.167 633.167 118.027C633.424 117.887 633.727 117.817 634.077 117.817C634.52 117.817 634.847 117.945 635.057 118.202C635.267 118.435 635.43 118.82 635.547 119.357C635.757 120.337 636.002 121.457 636.282 122.717C636.562 123.953 636.842 125.167 637.122 126.357C637.402 127.547 637.659 128.632 637.892 129.612C638.149 130.592 638.335 131.315 638.452 131.782H638.592C638.732 131.362 638.93 130.732 639.187 129.892C639.467 129.052 639.782 128.095 640.132 127.022C640.482 125.925 640.867 124.747 641.287 123.487C641.707 122.227 642.127 120.967 642.547 119.707C642.967 119.473 643.469 119.357 644.052 119.357C644.915 119.357 645.452 119.66 645.662 120.267C646.082 121.48 646.479 122.693 646.852 123.907C647.249 125.097 647.61 126.205 647.937 127.232C648.264 128.258 648.544 129.18 648.777 129.997C649.01 130.79 649.197 131.397 649.337 131.817H649.512C650.049 129.717 650.632 127.488 651.262 125.132C651.892 122.775 652.405 120.442 652.802 118.132C653.129 117.922 653.525 117.817 653.992 117.817C654.389 117.817 654.704 117.91 654.937 118.097C655.17 118.283 655.287 118.575 655.287 118.972C655.287 119.228 655.205 119.73 655.042 120.477C654.902 121.2 654.704 122.052 654.447 123.032C654.19 123.988 653.899 125.027 653.572 126.147C653.269 127.243 652.954 128.317 652.627 129.367C652.3 130.393 651.985 131.338 651.682 132.202C651.402 133.042 651.157 133.683 650.947 134.127C650.83 134.22 650.632 134.302 650.352 134.372C650.095 134.465 649.792 134.512 649.442 134.512C648.999 134.512 648.625 134.453 648.322 134.337C648.042 134.243 647.855 134.08 647.762 133.847C647.505 133.217 647.225 132.47 646.922 131.607C646.642 130.743 646.339 129.81 646.012 128.807C645.685 127.78 645.347 126.707 644.997 125.587C644.67 124.467 644.344 123.358 644.017 122.262ZM661.395 113.932C661.395 114.632 661.383 115.553 661.36 116.697C661.36 117.84 661.337 119.065 661.29 120.372C661.267 121.655 661.232 122.95 661.185 124.257C661.138 125.563 661.092 126.73 661.045 127.757C660.742 127.99 660.357 128.107 659.89 128.107C659.563 128.107 659.295 128.037 659.085 127.897C658.875 127.757 658.758 127.535 658.735 127.232C658.688 126.555 658.642 125.61 658.595 124.397C658.548 123.183 658.513 121.888 658.49 120.512C658.467 119.135 658.443 117.77 658.42 116.417C658.42 115.04 658.42 113.862 658.42 112.882C658.91 112.578 659.435 112.427 659.995 112.427C660.928 112.427 661.395 112.928 661.395 113.932ZM657.965 132.727C657.965 132.167 658.14 131.7 658.49 131.327C658.84 130.953 659.318 130.767 659.925 130.767C660.532 130.767 661.01 130.953 661.36 131.327C661.71 131.7 661.885 132.167 661.885 132.727C661.885 133.287 661.71 133.753 661.36 134.127C661.01 134.5 660.532 134.687 659.925 134.687C659.318 134.687 658.84 134.5 658.49 134.127C658.14 133.753 657.965 133.287 657.965 132.727Z" fill="white"/>
<path opacity="0.5" d="M355.091 91.1753C355.011 91.202 354.905 91.2287 354.771 91.2553C354.638 91.2953 354.491 91.3153 354.331 91.3153C353.745 91.3153 353.451 91.0687 353.451 90.5753V79.9353C353.451 79.722 353.505 79.562 353.611 79.4553C353.718 79.3353 353.885 79.242 354.111 79.1753C354.498 79.0553 354.971 78.9687 355.531 78.9153C356.105 78.862 356.658 78.8353 357.191 78.8353C358.871 78.8353 360.118 79.1753 360.931 79.8553C361.758 80.522 362.171 81.4753 362.171 82.7153C362.171 83.6353 361.931 84.4087 361.451 85.0353C360.985 85.662 360.271 86.1087 359.311 86.3753C359.645 86.802 359.978 87.2287 360.311 87.6553C360.645 88.082 360.958 88.4887 361.251 88.8753C361.558 89.2487 361.825 89.5887 362.051 89.8953C362.291 90.202 362.478 90.442 362.611 90.6153C362.558 90.842 362.438 91.022 362.251 91.1553C362.078 91.2887 361.898 91.3553 361.711 91.3553C361.485 91.3553 361.298 91.302 361.151 91.1953C361.005 91.0887 360.851 90.922 360.691 90.6953L357.771 86.6153H355.091V91.1753ZM357.371 85.2553C358.358 85.2553 359.131 85.042 359.691 84.6153C360.251 84.1887 360.531 83.5553 360.531 82.7153C360.531 81.8753 360.238 81.2487 359.651 80.8353C359.065 80.4087 358.225 80.1953 357.131 80.1953C356.771 80.1953 356.405 80.2153 356.031 80.2553C355.671 80.282 355.351 80.322 355.071 80.3753V85.2553H357.371ZM366.509 91.2153C366.242 91.2153 366.029 91.1353 365.869 90.9753C365.709 90.8153 365.629 90.602 365.629 90.3353V79.9353C365.629 79.6687 365.709 79.4553 365.869 79.2953C366.029 79.1353 366.242 79.0553 366.509 79.0553H373.149C373.189 79.122 373.229 79.2153 373.269 79.3353C373.309 79.442 373.329 79.562 373.329 79.6953C373.329 79.922 373.275 80.102 373.169 80.2353C373.062 80.3687 372.909 80.4353 372.709 80.4353H367.249V84.2953H372.529C372.569 84.362 372.609 84.4553 372.649 84.5753C372.689 84.682 372.709 84.802 372.709 84.9353C372.709 85.162 372.655 85.342 372.549 85.4753C372.442 85.5953 372.289 85.6553 372.089 85.6553H367.249V89.8553H373.249C373.289 89.922 373.329 90.0087 373.369 90.1153C373.409 90.222 373.429 90.3487 373.429 90.4953C373.429 90.722 373.375 90.902 373.269 91.0353C373.162 91.1553 373.009 91.2153 372.809 91.2153H366.509ZM383.688 87.9753H378.328C378.234 88.242 378.134 88.5353 378.028 88.8553C377.921 89.162 377.814 89.4687 377.708 89.7753C377.614 90.0687 377.521 90.3487 377.428 90.6153C377.334 90.8687 377.261 91.082 377.208 91.2553C377.021 91.3353 376.801 91.3753 376.548 91.3753C376.334 91.3753 376.141 91.322 375.968 91.2153C375.808 91.0953 375.728 90.9087 375.728 90.6553C375.728 90.5353 375.748 90.4153 375.788 90.2953C375.828 90.162 375.874 90.022 375.928 89.8753C376.128 89.3153 376.381 88.5953 376.688 87.7153C377.008 86.8353 377.348 85.902 377.708 84.9153C378.081 83.9153 378.454 82.9153 378.828 81.9153C379.214 80.902 379.568 79.9953 379.888 79.1953C379.994 79.142 380.154 79.0887 380.368 79.0353C380.581 78.982 380.801 78.9553 381.028 78.9553C381.294 78.9553 381.548 78.9953 381.788 79.0753C382.041 79.1553 382.201 79.2887 382.268 79.4753C382.588 80.2487 382.928 81.1353 383.288 82.1353C383.661 83.122 384.034 84.1353 384.408 85.1753C384.781 86.2153 385.134 87.242 385.468 88.2553C385.814 89.2553 386.121 90.162 386.388 90.9753C386.281 91.0953 386.154 91.1887 386.008 91.2553C385.861 91.3353 385.694 91.3753 385.508 91.3753C385.254 91.3753 385.061 91.322 384.928 91.2153C384.794 91.0953 384.681 90.902 384.588 90.6353L383.688 87.9753ZM381.008 80.3153C380.861 80.7153 380.694 81.1753 380.508 81.6953C380.321 82.202 380.128 82.7353 379.928 83.2953C379.728 83.8553 379.528 84.422 379.328 84.9953C379.128 85.5687 378.941 86.1153 378.768 86.6353H383.268C383.068 86.0353 382.861 85.4353 382.648 84.8353C382.434 84.222 382.228 83.6353 382.028 83.0753C381.841 82.5153 381.661 82.002 381.488 81.5353C381.328 81.0553 381.194 80.6487 381.088 80.3153H381.008ZM397.663 84.9953C397.663 84.142 397.53 83.4153 397.263 82.8153C397.01 82.202 396.657 81.702 396.203 81.3153C395.763 80.9287 395.243 80.6487 394.643 80.4753C394.057 80.2887 393.423 80.1953 392.743 80.1953C392.317 80.1953 391.943 80.2087 391.623 80.2353C391.317 80.262 391.03 80.302 390.763 80.3553V89.8753C391.083 89.9553 391.423 90.0087 391.783 90.0353C392.157 90.062 392.537 90.0753 392.923 90.0753C394.497 90.0753 395.677 89.6487 396.463 88.7953C397.263 87.942 397.663 86.6753 397.663 84.9953ZM399.323 84.9953C399.323 86.0887 399.17 87.042 398.863 87.8553C398.57 88.6553 398.143 89.322 397.583 89.8553C397.037 90.3887 396.37 90.7887 395.583 91.0553C394.797 91.3087 393.917 91.4353 392.943 91.4353C392.517 91.4353 392.037 91.4153 391.503 91.3753C390.97 91.3487 390.463 91.262 389.983 91.1153C389.423 90.942 389.143 90.6353 389.143 90.1953V79.9153C389.143 79.702 389.197 79.542 389.303 79.4353C389.41 79.3153 389.577 79.222 389.803 79.1553C390.217 79.022 390.683 78.9353 391.203 78.8953C391.723 78.8553 392.243 78.8353 392.763 78.8353C393.737 78.8353 394.623 78.9687 395.423 79.2353C396.237 79.4887 396.93 79.8753 397.503 80.3953C398.077 80.902 398.523 81.542 398.843 82.3153C399.163 83.0753 399.323 83.9687 399.323 84.9953ZM410.919 79.6153C410.919 79.762 410.819 80.0487 410.619 80.4753C410.419 80.8887 410.139 81.4087 409.779 82.0353C409.419 82.662 408.985 83.3753 408.479 84.1753C407.985 84.9753 407.439 85.822 406.839 86.7153V91.1753C406.772 91.202 406.665 91.2287 406.519 91.2553C406.385 91.2953 406.245 91.3153 406.099 91.3153C405.512 91.3153 405.219 91.0687 405.219 90.5753V86.7153C404.845 86.1687 404.459 85.5887 404.059 84.9753C403.672 84.362 403.285 83.742 402.899 83.1153C402.512 82.4887 402.145 81.8753 401.799 81.2753C401.452 80.6753 401.145 80.1087 400.879 79.5753C400.932 79.4287 401.032 79.2887 401.179 79.1553C401.325 79.0087 401.519 78.9353 401.759 78.9353C402.012 78.9353 402.205 79.002 402.339 79.1353C402.485 79.2687 402.632 79.4687 402.779 79.7353C402.992 80.1087 403.239 80.5487 403.519 81.0553C403.812 81.562 404.105 82.0753 404.399 82.5953C404.705 83.1153 404.999 83.622 405.279 84.1153C405.559 84.5953 405.799 84.9953 405.999 85.3153H406.079C406.772 84.1553 407.385 83.0753 407.919 82.0753C408.465 81.0753 409.005 80.0753 409.539 79.0753C409.619 79.022 409.712 78.9887 409.819 78.9753C409.939 78.9487 410.052 78.9353 410.159 78.9353C410.665 78.9353 410.919 79.162 410.919 79.6153ZM422.299 80.4353V91.1753C422.232 91.202 422.125 91.2287 421.979 91.2553C421.845 91.2953 421.705 91.3153 421.559 91.3153C420.972 91.3153 420.679 91.0687 420.679 90.5753V80.4353H416.939C416.899 80.3687 416.859 80.282 416.819 80.1753C416.779 80.0553 416.759 79.922 416.759 79.7753C416.759 79.5487 416.812 79.3753 416.919 79.2553C417.025 79.122 417.179 79.0553 417.379 79.0553H426.039C426.079 79.122 426.119 79.2153 426.159 79.3353C426.199 79.442 426.219 79.562 426.219 79.6953C426.219 79.922 426.165 80.102 426.059 80.2353C425.952 80.3687 425.799 80.4353 425.599 80.4353H422.299ZM439.28 85.1353C439.28 86.1753 439.134 87.0953 438.84 87.8953C438.547 88.682 438.14 89.342 437.62 89.8753C437.1 90.3953 436.487 90.7953 435.78 91.0753C435.074 91.342 434.307 91.4753 433.48 91.4753C432.654 91.4753 431.887 91.342 431.18 91.0753C430.474 90.7953 429.86 90.3953 429.34 89.8753C428.82 89.342 428.414 88.682 428.12 87.8953C427.827 87.0953 427.68 86.1753 427.68 85.1353C427.68 84.0953 427.827 83.182 428.12 82.3953C428.427 81.6087 428.84 80.9487 429.36 80.4153C429.88 79.882 430.494 79.482 431.2 79.2153C431.907 78.9353 432.667 78.7953 433.48 78.7953C434.294 78.7953 435.054 78.9353 435.76 79.2153C436.467 79.482 437.08 79.882 437.6 80.4153C438.12 80.9487 438.527 81.6087 438.82 82.3953C439.127 83.182 439.28 84.0953 439.28 85.1353ZM437.62 85.1353C437.62 83.5353 437.24 82.3087 436.48 81.4553C435.734 80.602 434.734 80.1753 433.48 80.1753C432.854 80.1753 432.287 80.2887 431.78 80.5153C431.274 80.7287 430.84 81.0487 430.48 81.4753C430.12 81.8887 429.84 82.402 429.64 83.0153C429.454 83.6287 429.36 84.3353 429.36 85.1353C429.36 86.7353 429.734 87.962 430.48 88.8153C431.227 89.6687 432.227 90.0953 433.48 90.0953C434.747 90.0953 435.754 89.6687 436.5 88.8153C437.247 87.962 437.62 86.7353 437.62 85.1353ZM450.333 90.1153C451.227 90.1153 451.9 89.9153 452.353 89.5153C452.82 89.102 453.053 88.5753 453.053 87.9353C453.053 87.3753 452.873 86.922 452.513 86.5753C452.167 86.2287 451.613 85.942 450.853 85.7153L449.113 85.1953C448.26 84.942 447.587 84.5687 447.093 84.0753C446.613 83.582 446.373 82.9153 446.373 82.0753C446.373 81.5687 446.467 81.1153 446.653 80.7153C446.853 80.302 447.133 79.9553 447.493 79.6753C447.853 79.3953 448.28 79.182 448.773 79.0353C449.28 78.8753 449.847 78.7953 450.473 78.7953C451.007 78.7953 451.5 78.842 451.953 78.9353C452.42 79.0153 452.82 79.1353 453.153 79.2953C453.5 79.442 453.767 79.6087 453.953 79.7953C454.14 79.982 454.233 80.1753 454.233 80.3753C454.233 80.562 454.187 80.722 454.093 80.8553C454 80.9887 453.88 81.0953 453.733 81.1753C453.387 80.9087 452.933 80.6753 452.373 80.4753C451.827 80.2753 451.213 80.1753 450.533 80.1753C449.747 80.1753 449.127 80.342 448.673 80.6753C448.233 81.0087 448.013 81.4753 448.013 82.0753C448.013 82.542 448.173 82.922 448.493 83.2153C448.813 83.5087 449.347 83.762 450.093 83.9753L451.313 84.3353C452.367 84.642 453.193 85.0753 453.793 85.6353C454.407 86.182 454.713 86.9487 454.713 87.9353C454.713 88.9887 454.333 89.842 453.573 90.4953C452.813 91.1487 451.733 91.4753 450.333 91.4753C449.72 91.4753 449.16 91.422 448.653 91.3153C448.16 91.2087 447.733 91.0687 447.373 90.8953C447.027 90.722 446.753 90.5353 446.553 90.3353C446.367 90.122 446.273 89.9153 446.273 89.7153C446.273 89.4887 446.34 89.302 446.473 89.1553C446.62 88.9953 446.787 88.882 446.973 88.8153C447.12 88.962 447.3 89.1153 447.513 89.2753C447.727 89.422 447.973 89.562 448.253 89.6953C448.533 89.8153 448.847 89.9153 449.193 89.9953C449.54 90.0753 449.92 90.1153 450.333 90.1153ZM461.789 80.4353V91.1753C461.723 91.202 461.616 91.2287 461.469 91.2553C461.336 91.2953 461.196 91.3153 461.049 91.3153C460.463 91.3153 460.169 91.0687 460.169 90.5753V80.4353H456.429C456.389 80.3687 456.349 80.282 456.309 80.1753C456.269 80.0553 456.249 79.922 456.249 79.7753C456.249 79.5487 456.303 79.3753 456.409 79.2553C456.516 79.122 456.669 79.0553 456.869 79.0553H465.529C465.569 79.122 465.609 79.2153 465.649 79.3353C465.689 79.442 465.709 79.562 465.709 79.6953C465.709 79.922 465.656 80.102 465.549 80.2353C465.443 80.3687 465.289 80.4353 465.089 80.4353H461.789ZM474.377 87.9753H469.017C468.924 88.242 468.824 88.5353 468.717 88.8553C468.611 89.162 468.504 89.4687 468.397 89.7753C468.304 90.0687 468.211 90.3487 468.117 90.6153C468.024 90.8687 467.951 91.082 467.897 91.2553C467.711 91.3353 467.491 91.3753 467.237 91.3753C467.024 91.3753 466.831 91.322 466.657 91.2153C466.497 91.0953 466.417 90.9087 466.417 90.6553C466.417 90.5353 466.437 90.4153 466.477 90.2953C466.517 90.162 466.564 90.022 466.617 89.8753C466.817 89.3153 467.071 88.5953 467.377 87.7153C467.697 86.8353 468.037 85.902 468.397 84.9153C468.771 83.9153 469.144 82.9153 469.517 81.9153C469.904 80.902 470.257 79.9953 470.577 79.1953C470.684 79.142 470.844 79.0887 471.057 79.0353C471.271 78.982 471.491 78.9553 471.717 78.9553C471.984 78.9553 472.237 78.9953 472.477 79.0753C472.731 79.1553 472.891 79.2887 472.957 79.4753C473.277 80.2487 473.617 81.1353 473.977 82.1353C474.351 83.122 474.724 84.1353 475.097 85.1753C475.471 86.2153 475.824 87.242 476.157 88.2553C476.504 89.2553 476.811 90.162 477.077 90.9753C476.971 91.0953 476.844 91.1887 476.697 91.2553C476.551 91.3353 476.384 91.3753 476.197 91.3753C475.944 91.3753 475.751 91.322 475.617 91.2153C475.484 91.0953 475.371 90.902 475.277 90.6353L474.377 87.9753ZM471.697 80.3153C471.551 80.7153 471.384 81.1753 471.197 81.6953C471.011 82.202 470.817 82.7353 470.617 83.2953C470.417 83.8553 470.217 84.422 470.017 84.9953C469.817 85.5687 469.631 86.1153 469.457 86.6353H473.957C473.757 86.0353 473.551 85.4353 473.337 84.8353C473.124 84.222 472.917 83.6353 472.717 83.0753C472.531 82.5153 472.351 82.002 472.177 81.5353C472.017 81.0553 471.884 80.6487 471.777 80.3153H471.697ZM481.473 91.1753C481.393 91.202 481.287 91.2287 481.153 91.2553C481.02 91.2953 480.873 91.3153 480.713 91.3153C480.127 91.3153 479.833 91.0687 479.833 90.5753V79.9353C479.833 79.722 479.887 79.562 479.993 79.4553C480.1 79.3353 480.267 79.242 480.493 79.1753C480.88 79.0553 481.353 78.9687 481.913 78.9153C482.487 78.862 483.04 78.8353 483.573 78.8353C485.253 78.8353 486.5 79.1753 487.313 79.8553C488.14 80.522 488.553 81.4753 488.553 82.7153C488.553 83.6353 488.313 84.4087 487.833 85.0353C487.367 85.662 486.653 86.1087 485.693 86.3753C486.027 86.802 486.36 87.2287 486.693 87.6553C487.027 88.082 487.34 88.4887 487.633 88.8753C487.94 89.2487 488.207 89.5887 488.433 89.8953C488.673 90.202 488.86 90.442 488.993 90.6153C488.94 90.842 488.82 91.022 488.633 91.1553C488.46 91.2887 488.28 91.3553 488.093 91.3553C487.867 91.3553 487.68 91.302 487.533 91.1953C487.387 91.0887 487.233 90.922 487.073 90.6953L484.153 86.6153H481.473V91.1753ZM483.753 85.2553C484.74 85.2553 485.513 85.042 486.073 84.6153C486.633 84.1887 486.913 83.5553 486.913 82.7153C486.913 81.8753 486.62 81.2487 486.033 80.8353C485.447 80.4087 484.607 80.1953 483.513 80.1953C483.153 80.1953 482.787 80.2153 482.413 80.2553C482.053 80.282 481.733 80.322 481.453 80.3753V85.2553H483.753ZM495.978 80.4353V91.1753C495.911 91.202 495.804 91.2287 495.658 91.2553C495.524 91.2953 495.384 91.3153 495.238 91.3153C494.651 91.3153 494.358 91.0687 494.358 90.5753V80.4353H490.618C490.578 80.3687 490.538 80.282 490.498 80.1753C490.458 80.0553 490.438 79.922 490.438 79.7753C490.438 79.5487 490.491 79.3753 490.598 79.2553C490.704 79.122 490.858 79.0553 491.058 79.0553H499.718C499.758 79.122 499.798 79.2153 499.838 79.3353C499.878 79.442 499.898 79.562 499.898 79.6953C499.898 79.922 499.844 80.102 499.738 80.2353C499.631 80.3687 499.478 80.4353 499.278 80.4353H495.978ZM503.614 87.2153C503.348 86.9487 503.214 86.6553 503.214 86.3353C503.214 86.1487 503.268 85.9953 503.374 85.8753C503.481 85.7553 503.668 85.662 503.934 85.5953L505.314 85.2353C506.194 85.0087 506.868 84.6753 507.334 84.2353C507.814 83.782 508.054 83.1953 508.054 82.4753C508.054 81.8353 507.821 81.2887 507.354 80.8353C506.901 80.3687 506.188 80.1353 505.214 80.1353C504.681 80.1353 504.141 80.222 503.594 80.3953C503.061 80.5553 502.634 80.7687 502.314 81.0353C502.008 80.8087 501.854 80.522 501.854 80.1753C501.854 79.9753 501.934 79.7887 502.094 79.6153C502.268 79.442 502.508 79.2887 502.814 79.1553C503.121 79.022 503.481 78.9153 503.894 78.8353C504.308 78.7553 504.768 78.7153 505.274 78.7153C505.928 78.7153 506.528 78.8087 507.074 78.9953C507.621 79.182 508.088 79.442 508.474 79.7753C508.874 80.0953 509.181 80.4887 509.394 80.9553C509.608 81.4087 509.714 81.9087 509.714 82.4553C509.714 83.5887 509.368 84.502 508.674 85.1953C507.994 85.8753 506.961 86.3887 505.574 86.7353L503.614 87.2153ZM503.394 90.3153C503.394 89.9953 503.494 89.7287 503.694 89.5153C503.894 89.2887 504.168 89.1753 504.514 89.1753C504.861 89.1753 505.134 89.2887 505.334 89.5153C505.548 89.7287 505.654 89.9953 505.654 90.3153C505.654 90.6353 505.548 90.902 505.334 91.1153C505.134 91.3287 504.861 91.4353 504.514 91.4353C504.168 91.4353 503.894 91.3287 503.694 91.1153C503.494 90.902 503.394 90.6353 503.394 90.3153Z" fill="white"/>
<rect x="349.999" y="160" width="162" height="41" rx="8" fill="#689EFF"/>
<path d="M383.119 183.38C383.119 183.572 383.06 183.732 382.943 183.86C382.836 183.988 382.671 184.111 382.447 184.228C382.18 184.356 381.812 184.468 381.343 184.564C380.873 184.66 380.399 184.708 379.919 184.708C379.172 184.708 378.489 184.607 377.871 184.404C377.252 184.201 376.719 183.892 376.271 183.476C375.823 183.06 375.476 182.537 375.231 181.908C374.985 181.268 374.863 180.516 374.863 179.652C374.863 178.799 374.991 178.052 375.247 177.412C375.503 176.772 375.849 176.244 376.287 175.828C376.735 175.401 377.252 175.087 377.839 174.884C378.425 174.671 379.049 174.564 379.711 174.564C380.159 174.564 380.569 174.601 380.943 174.676C381.327 174.751 381.652 174.852 381.919 174.98C382.185 175.097 382.393 175.231 382.543 175.38C382.692 175.529 382.767 175.679 382.767 175.828C382.767 175.977 382.724 176.105 382.639 176.212C382.553 176.319 382.452 176.399 382.335 176.452C382.047 176.26 381.705 176.084 381.311 175.924C380.916 175.753 380.409 175.668 379.791 175.668C379.279 175.668 378.804 175.753 378.367 175.924C377.929 176.095 377.551 176.345 377.231 176.676C376.911 177.007 376.66 177.423 376.479 177.924C376.297 178.425 376.207 179.001 376.207 179.652C376.207 180.345 376.297 180.943 376.479 181.444C376.671 181.935 376.932 182.34 377.263 182.66C377.604 182.98 377.999 183.22 378.447 183.38C378.905 183.529 379.401 183.604 379.935 183.604C380.319 183.604 380.681 183.572 381.023 183.508C381.364 183.444 381.631 183.364 381.823 183.268V180.324H379.407C379.375 180.271 379.343 180.201 379.311 180.116C379.279 180.02 379.263 179.919 379.263 179.812C379.263 179.631 379.305 179.492 379.391 179.396C379.476 179.289 379.599 179.236 379.759 179.236H382.431C382.623 179.236 382.783 179.3 382.911 179.428C383.049 179.545 383.119 179.705 383.119 179.908V183.38ZM386.392 181.556C386.68 182.953 387.597 183.652 389.144 183.652C389.592 183.652 389.997 183.577 390.36 183.428C390.722 183.279 391.01 183.119 391.224 182.948C391.48 183.097 391.608 183.3 391.608 183.556C391.608 183.705 391.538 183.849 391.4 183.988C391.272 184.127 391.09 184.249 390.856 184.356C390.632 184.463 390.365 184.548 390.056 184.612C389.757 184.676 389.432 184.708 389.08 184.708C387.842 184.708 386.861 184.372 386.136 183.7C385.421 183.028 385.064 182.047 385.064 180.756C385.064 180.148 385.149 179.609 385.32 179.14C385.501 178.66 385.746 178.255 386.056 177.924C386.376 177.593 386.754 177.343 387.192 177.172C387.629 176.991 388.104 176.9 388.616 176.9C389.096 176.9 389.538 176.98 389.944 177.14C390.349 177.3 390.696 177.529 390.984 177.828C391.282 178.116 391.512 178.463 391.672 178.868C391.842 179.263 391.928 179.7 391.928 180.18C391.928 180.415 391.874 180.585 391.768 180.692C391.661 180.788 391.512 180.847 391.32 180.868L386.392 181.556ZM388.6 177.94C387.949 177.94 387.41 178.169 386.984 178.628C386.557 179.076 386.333 179.721 386.312 180.564L390.712 179.956C390.658 179.369 390.45 178.889 390.088 178.516C389.736 178.132 389.24 177.94 388.6 177.94ZM396.305 184.708C395.558 184.708 394.95 184.543 394.481 184.212C394.022 183.881 393.793 183.332 393.793 182.564V174.964C393.846 174.943 393.926 174.921 394.033 174.9C394.15 174.868 394.273 174.852 394.401 174.852C394.849 174.852 395.073 175.044 395.073 175.428V177.268H397.697C397.729 177.321 397.761 177.396 397.793 177.492C397.825 177.577 397.841 177.673 397.841 177.78C397.841 178.143 397.681 178.324 397.361 178.324H395.073V182.484C395.073 182.911 395.19 183.215 395.425 183.396C395.67 183.567 396.011 183.652 396.449 183.652C396.63 183.652 396.833 183.62 397.057 183.556C397.281 183.492 397.467 183.417 397.617 183.332C397.681 183.396 397.739 183.476 397.793 183.572C397.846 183.668 397.873 183.78 397.873 183.908C397.873 184.143 397.734 184.335 397.457 184.484C397.179 184.633 396.795 184.708 396.305 184.708ZM405.845 183.62C406.56 183.62 407.098 183.46 407.461 183.14C407.834 182.809 408.021 182.388 408.021 181.876C408.021 181.428 407.877 181.065 407.589 180.788C407.312 180.511 406.869 180.281 406.261 180.1L404.869 179.684C404.186 179.481 403.648 179.183 403.253 178.788C402.869 178.393 402.677 177.86 402.677 177.188C402.677 176.783 402.752 176.42 402.901 176.1C403.061 175.769 403.285 175.492 403.573 175.268C403.861 175.044 404.202 174.873 404.597 174.756C405.002 174.628 405.456 174.564 405.957 174.564C406.384 174.564 406.778 174.601 407.141 174.676C407.514 174.74 407.834 174.836 408.101 174.964C408.378 175.081 408.592 175.215 408.741 175.364C408.89 175.513 408.965 175.668 408.965 175.828C408.965 175.977 408.928 176.105 408.853 176.212C408.778 176.319 408.682 176.404 408.565 176.468C408.288 176.255 407.925 176.068 407.477 175.908C407.04 175.748 406.549 175.668 406.005 175.668C405.376 175.668 404.88 175.801 404.517 176.068C404.165 176.335 403.989 176.708 403.989 177.188C403.989 177.561 404.117 177.865 404.373 178.1C404.629 178.335 405.056 178.537 405.653 178.708L406.629 178.996C407.472 179.241 408.133 179.588 408.613 180.036C409.104 180.473 409.349 181.087 409.349 181.876C409.349 182.719 409.045 183.401 408.437 183.924C407.829 184.447 406.965 184.708 405.845 184.708C405.354 184.708 404.906 184.665 404.501 184.58C404.106 184.495 403.765 184.383 403.477 184.244C403.2 184.105 402.981 183.956 402.821 183.796C402.672 183.625 402.597 183.46 402.597 183.3C402.597 183.119 402.65 182.969 402.757 182.852C402.874 182.724 403.008 182.633 403.157 182.58C403.274 182.697 403.418 182.82 403.589 182.948C403.76 183.065 403.957 183.177 404.181 183.284C404.405 183.38 404.656 183.46 404.933 183.524C405.21 183.588 405.514 183.62 405.845 183.62ZM413.836 184.708C413.089 184.708 412.481 184.543 412.012 184.212C411.553 183.881 411.324 183.332 411.324 182.564V174.964C411.377 174.943 411.457 174.921 411.564 174.9C411.681 174.868 411.804 174.852 411.932 174.852C412.38 174.852 412.604 175.044 412.604 175.428V177.268H415.228C415.26 177.321 415.292 177.396 415.324 177.492C415.356 177.577 415.372 177.673 415.372 177.78C415.372 178.143 415.212 178.324 414.892 178.324H412.604V182.484C412.604 182.911 412.721 183.215 412.956 183.396C413.201 183.567 413.543 183.652 413.98 183.652C414.161 183.652 414.364 183.62 414.588 183.556C414.812 183.492 414.999 183.417 415.148 183.332C415.212 183.396 415.271 183.476 415.324 183.572C415.377 183.668 415.404 183.78 415.404 183.908C415.404 184.143 415.265 184.335 414.988 184.484C414.711 184.633 414.327 184.708 413.836 184.708ZM419.995 183.668C420.443 183.668 420.811 183.625 421.099 183.54C421.397 183.444 421.611 183.353 421.739 183.268V180.948L419.755 181.156C419.2 181.209 418.789 181.337 418.523 181.54C418.256 181.732 418.123 182.02 418.123 182.404C418.123 182.809 418.277 183.124 418.587 183.348C418.896 183.561 419.365 183.668 419.995 183.668ZM419.979 176.9C420.907 176.9 421.643 177.108 422.187 177.524C422.731 177.94 423.003 178.596 423.003 179.492V183.284C423.003 183.519 422.955 183.7 422.859 183.828C422.773 183.945 422.64 184.057 422.459 184.164C422.203 184.313 421.861 184.441 421.435 184.548C421.019 184.665 420.539 184.724 419.995 184.724C418.992 184.724 418.213 184.527 417.659 184.132C417.115 183.737 416.843 183.167 416.843 182.42C416.843 181.716 417.072 181.188 417.531 180.836C417.989 180.473 418.635 180.249 419.467 180.164L421.739 179.94V179.492C421.739 178.959 421.579 178.569 421.259 178.324C420.939 178.079 420.507 177.956 419.963 177.956C419.515 177.956 419.093 178.02 418.699 178.148C418.304 178.276 417.952 178.42 417.643 178.58C417.557 178.505 417.477 178.42 417.403 178.324C417.339 178.228 417.307 178.121 417.307 178.004C417.307 177.855 417.344 177.732 417.419 177.636C417.493 177.54 417.611 177.449 417.771 177.364C418.059 177.215 418.389 177.103 418.763 177.028C419.136 176.943 419.541 176.9 419.979 176.9ZM426.619 184.468C426.566 184.489 426.486 184.511 426.379 184.532C426.272 184.564 426.155 184.58 426.027 184.58C425.568 184.58 425.339 184.388 425.339 184.004V178.58C425.339 178.335 425.382 178.143 425.467 178.004C425.563 177.855 425.718 177.711 425.931 177.572C426.208 177.391 426.582 177.236 427.051 177.108C427.531 176.969 428.07 176.9 428.667 176.9C429.52 176.9 429.947 177.113 429.947 177.54C429.947 177.647 429.931 177.748 429.899 177.844C429.867 177.929 429.824 178.004 429.771 178.068C429.664 178.047 429.526 178.025 429.355 178.004C429.184 177.983 429.014 177.972 428.843 177.972C428.352 177.972 427.92 178.025 427.547 178.132C427.174 178.228 426.864 178.345 426.619 178.484V184.468ZM433.977 184.708C433.23 184.708 432.622 184.543 432.153 184.212C431.694 183.881 431.465 183.332 431.465 182.564V174.964C431.518 174.943 431.598 174.921 431.705 174.9C431.822 174.868 431.945 174.852 432.073 174.852C432.521 174.852 432.745 175.044 432.745 175.428V177.268H435.369C435.401 177.321 435.433 177.396 435.465 177.492C435.497 177.577 435.513 177.673 435.513 177.78C435.513 178.143 435.353 178.324 435.033 178.324H432.745V182.484C432.745 182.911 432.862 183.215 433.097 183.396C433.342 183.567 433.683 183.652 434.121 183.652C434.302 183.652 434.505 183.62 434.729 183.556C434.953 183.492 435.139 183.417 435.289 183.332C435.353 183.396 435.411 183.476 435.465 183.572C435.518 183.668 435.545 183.78 435.545 183.908C435.545 184.143 435.406 184.335 435.129 184.484C434.851 184.633 434.467 184.708 433.977 184.708ZM438.079 181.556C438.367 182.953 439.285 183.652 440.831 183.652C441.279 183.652 441.685 183.577 442.047 183.428C442.41 183.279 442.698 183.119 442.911 182.948C443.167 183.097 443.295 183.3 443.295 183.556C443.295 183.705 443.226 183.849 443.087 183.988C442.959 184.127 442.778 184.249 442.543 184.356C442.319 184.463 442.053 184.548 441.743 184.612C441.445 184.676 441.119 184.708 440.767 184.708C439.53 184.708 438.549 184.372 437.823 183.7C437.109 183.028 436.751 182.047 436.751 180.756C436.751 180.148 436.837 179.609 437.007 179.14C437.189 178.66 437.434 178.255 437.743 177.924C438.063 177.593 438.442 177.343 438.879 177.172C439.317 176.991 439.791 176.9 440.303 176.9C440.783 176.9 441.226 176.98 441.631 177.14C442.037 177.3 442.383 177.529 442.671 177.828C442.97 178.116 443.199 178.463 443.359 178.868C443.53 179.263 443.615 179.7 443.615 180.18C443.615 180.415 443.562 180.585 443.455 180.692C443.349 180.788 443.199 180.847 443.007 180.868L438.079 181.556ZM440.287 177.94C439.637 177.94 439.098 178.169 438.671 178.628C438.245 179.076 438.021 179.721 437.999 180.564L442.399 179.956C442.346 179.369 442.138 178.889 441.775 178.516C441.423 178.132 440.927 177.94 440.287 177.94ZM451.784 183.284C451.784 183.497 451.736 183.663 451.64 183.78C451.555 183.897 451.416 184.015 451.224 184.132C451.011 184.271 450.707 184.399 450.312 184.516C449.917 184.644 449.464 184.708 448.952 184.708C448.376 184.708 447.848 184.633 447.368 184.484C446.888 184.335 446.472 184.105 446.12 183.796C445.779 183.476 445.512 183.076 445.32 182.596C445.139 182.105 445.048 181.519 445.048 180.836C445.048 180.143 445.144 179.551 445.336 179.06C445.528 178.559 445.784 178.148 446.104 177.828C446.435 177.508 446.819 177.273 447.256 177.124C447.704 176.975 448.179 176.9 448.68 176.9C449.021 176.9 449.352 176.943 449.672 177.028C449.992 177.113 450.269 177.22 450.504 177.348V174.132C450.557 174.111 450.637 174.089 450.744 174.068C450.861 174.036 450.979 174.02 451.096 174.02C451.555 174.02 451.784 174.212 451.784 174.596V183.284ZM450.504 178.5C450.291 178.351 450.045 178.223 449.768 178.116C449.491 178.009 449.171 177.956 448.808 177.956C448.477 177.956 448.163 178.009 447.864 178.116C447.576 178.212 447.32 178.377 447.096 178.612C446.872 178.836 446.691 179.135 446.552 179.508C446.424 179.881 446.36 180.335 446.36 180.868C446.36 181.849 446.595 182.559 447.064 182.996C447.533 183.433 448.157 183.652 448.936 183.652C449.309 183.652 449.613 183.615 449.848 183.54C450.093 183.455 450.312 183.353 450.504 183.236V178.5Z" fill="white"/>
<path d="M475.999 181.5V188.5L483.999 180.5L475.999 172.5V179.5H467.999V181.5H475.999Z" fill="white"/>
</svg>