<?xml version="1.0" encoding="UTF-8"?>
<svg width="114px" height="29px" viewBox="0 0 114 29" version="1.1" xmlns="http://www.w3.org/2000/svg" xmlns:xlink="http://www.w3.org/1999/xlink">
    <title>logo</title>
    <g id="页面-1" stroke="none" stroke-width="1" fill="none" fill-rule="evenodd">
        <g id="nepbot改版" transform="translate(-23.000000, -27.000000)" fill="#FFFFFF">
            <g id="logo" transform="translate(23.000000, 27.000000)">
                <path d="M14.5194264,22.197244 C14.6982037,22.197244 14.8689002,22.2731279 14.9938816,22.4068122 L15.0218949,22.4386803 L19.1930631,27.4865338 L19.1930631,23.7263194 L17.8904004,24.8122742 C17.823471,24.8680694 17.723983,24.8590433 17.6681878,24.7921139 C17.6249251,24.7402179 17.6195082,24.6665353 17.6547164,24.6088704 L18.973387,22.4491148 C19.1002202,22.2932235 19.2848978,22.2035787 19.4792171,22.2035787 C19.8356664,22.2035787 20.1268754,22.4993615 20.1458933,22.8717848 L20.1468812,22.9105757 L20.1468812,28.2929932 C20.1468812,28.4968647 20.0637701,28.6908124 19.918877,28.8250628 C19.6512822,29.073002 19.249511,29.0541689 19.0034349,28.7890269 L18.9767486,28.7585541 L14.805556,23.7107654 L14.805556,27.439064 L16.1141962,26.4626535 C16.1840345,26.4105453 16.2828917,26.4249184 16.3349999,26.4947567 C16.3742182,26.5473193 16.3768314,26.6186618 16.3415638,26.6739528 L15.0316408,28.7275893 C14.7951159,29.0271428 14.3740485,29.0669419 14.0911603,28.8164831 C13.9495532,28.6911093 13.8637371,28.5097115 13.8529243,28.3158176 L13.8517623,28.2740936 L13.8517623,22.9042411 C13.8517623,22.5137774 14.1506857,22.197244 14.5194264,22.197244 Z M12.1864149,-1.77635684e-15 C12.4930445,-1.77635684e-15 12.7690063,0.201056853 12.8839922,0.508232316 L13.4286477,1.96299471 L20.5697807,1.96299471 L21.1143494,0.508347444 C21.2225454,0.219183775 21.4733861,0.0240273388 21.7581964,0.00206832437 L21.8119699,-1.77635684e-15 L24.3477716,-1.77635684e-15 C26.7421768,-1.77635684e-15 28.8471702,1.71341222 29.5080962,4.20037578 L31.1646435,10.438 L32.102706,10.6113034 C33.0861846,10.7929762 33.8112042,11.6338363 33.8461802,12.6333421 L33.9998563,17.0249294 C34.02947,17.8711995 33.5554603,18.6547835 32.7921461,19.0213913 L31.2677929,19.7540781 C31.0525497,20.1902127 30.80173,20.6093353 30.5162618,21.0062455 L28.8186994,23.3665077 C27.7320103,24.8774218 26.0604697,25.7612562 24.2896613,25.7612562 L21.458031,25.761 L21.458031,24.134 L24.2896613,24.1349143 C25.5190293,24.1349143 26.6835354,23.5574139 27.4845611,22.5603089 L27.630421,22.3684731 L29.3279835,20.0082109 C30.6198469,18.2120257 31.0401251,15.8570845 30.4590422,13.6705584 L28.0615852,4.6492938 C27.585926,2.85946081 26.0709916,1.62634193 24.3477716,1.62634193 L22.3191702,1.62634193 L21.9089313,2.72154207 L21.8896811,2.76755162 L21.8766046,2.79719591 C21.6514915,3.28206819 21.1919462,3.58948293 20.688311,3.58948293 L13.3103325,3.58948293 L13.2800141,3.58882263 L13.2029923,3.58480273 C12.7026309,3.54107809 12.2666087,3.19596233 12.0777979,2.69146883 L11.6789573,1.62634193 L9.91316851,1.62634193 C8.22127974,1.62634193 6.73017148,2.81502777 6.22632562,4.55222273 L6.19935488,4.6492938 L3.77117317,13.7861708 C3.20561162,15.9142925 3.58794427,18.2056091 4.80572507,19.9862324 L6.37455591,22.2801564 C7.17233873,23.4466641 8.43499018,24.1349143 9.77726131,24.1349143 L12.540031,24.134 L12.540031,25.761 L9.77726131,25.7612562 C8.0402702,25.7612562 6.40162911,24.9110969 5.31558498,23.4583807 L5.16424403,23.2467776 L3.59541319,20.9528535 C3.35714775,20.6044649 3.14491957,20.2401602 2.95928686,19.8632848 L1.20649742,19.0213913 C0.443183198,18.6547835 -0.0308265362,17.8711995 -0.00121277598,17.0249294 L0.152463252,12.6333421 C0.187439233,11.6338363 0.912458921,10.7929762 1.89593748,10.6113034 L3.10864348,10.387 L4.75284394,4.20037578 C5.41376993,1.71341222 7.51876329,-1.77635684e-15 9.91316851,-1.77635684e-15 L12.1864149,-1.77635684e-15 Z M21.5764995,7.78320782 C24.1153016,7.78320782 26.3017517,9.57384954 26.8021294,12.062853 L27.1099229,13.5938952 C27.6382856,16.2221029 25.9360248,18.7810087 23.3078171,19.3093713 C22.9928586,19.3726891 22.672392,19.4045826 22.351132,19.4045826 L11.6453894,19.4045826 C8.96066245,19.4045826 6.78426125,17.2281814 6.78426125,14.5434544 C6.78426125,14.2246297 6.815627,13.9065782 6.87790535,13.5938952 L7.18098631,12.0722064 C7.67760931,9.57879462 9.86609981,7.78320782 12.4084878,7.78320782 L21.5764995,7.78320782 Z M12.5677516,10.8905023 C11.759066,10.8905023 11.1034968,11.9893653 11.1034968,13.3448816 L11.1034968,13.8934747 C11.1034968,15.2489909 11.759066,16.347854 12.5677516,16.347854 C13.3764373,16.347854 14.0320065,15.2489909 14.0320065,13.8934747 L14.0320065,13.3448816 C14.0320065,11.9893653 13.3764373,10.8905023 12.5677516,10.8905023 Z M21.4583643,10.8652194 C20.6597981,10.8652194 20.0124322,11.9640824 20.0124322,13.3195987 L20.0124322,13.8681918 C20.0124322,15.223708 20.6597981,16.3225711 21.4583643,16.3225711 C22.2569305,16.3225711 22.9042964,15.223708 22.9042964,13.8681918 L22.9042964,13.3195987 C22.9042964,11.9640824 22.2569305,10.8652194 21.4583643,10.8652194 Z" id="形状结合"></path>
                <path d="M51.6156379,8.83739159 C53.2860996,8.83739159 54.6511827,10.1282321 54.7433401,11.75468 L54.7482992,11.930183 L54.7482992,17.8360656 C54.7482992,18.2427564 54.414361,18.5724445 54.0024274,18.5724445 C53.6248217,18.5724445 53.3127537,18.2954149 53.2633647,17.9359878 L53.2565557,17.8360656 L53.2565557,11.930183 C53.2565557,11.0825537 52.5971898,10.3869675 51.7572226,10.3160959 L51.6156379,10.3101494 L47.5014618,10.3101494 C46.6429055,10.3101494 45.9383524,10.9611235 45.8665672,11.7904003 L45.860544,11.930183 L45.860544,17.8360656 C45.860544,18.2427564 45.5266059,18.5724445 45.1146723,18.5724445 C44.7370665,18.5724445 44.4249986,18.2954149 44.3756095,17.9359878 L44.3688006,17.8360656 L44.3688006,11.930183 C44.3688006,10.2809815 45.6762816,8.933272 47.3236964,8.84228752 L47.5014618,8.83739159 L51.6156379,8.83739159 Z M69.9951612,11.930183 C69.9951612,10.2220815 71.3977014,8.83739159 73.1278224,8.83739159 L77.2419986,8.83739159 C78.9721196,8.83739159 80.3746598,10.2220815 80.3746598,11.930183 L80.3746598,15.4796531 C80.3746598,17.1877546 78.9721196,18.5724445 77.2419986,18.5724445 L73.1278224,18.5724445 C72.5261153,18.5724445 71.9640301,18.4049618 71.4867856,18.1146397 L71.4869046,21.0819672 C71.4869046,21.4886581 71.1529665,21.8183461 70.7410329,21.8183461 C70.3634272,21.8183461 70.0513592,21.5413166 70.0019701,21.1818895 L69.9951612,21.0819672 Z M77.2419986,10.3101494 L73.1278224,10.3101494 C72.2215686,10.3101494 71.4869046,11.0354631 71.4869046,11.930183 L71.4869046,15.4796531 C71.4869046,16.3743729 72.2215686,17.0996867 73.1278224,17.0996867 L77.2419986,17.0996867 C78.1482524,17.0996867 78.8829163,16.3743729 78.8829163,15.4796531 L78.8829163,11.930183 C78.8829163,11.0354631 78.1482524,10.3101494 77.2419986,10.3101494 Z M82.8824061,6.32786885 L82.8892151,6.2279466 C82.9386041,5.8685195 83.2506721,5.59148995 83.6282779,5.59148995 C84.0402114,5.59148995 84.3741496,5.92117801 84.3741496,6.32786885 L84.3740306,9.29519637 C84.8512751,9.00487425 85.4133602,8.83739159 86.0150674,8.83739159 L90.1292435,8.83739159 C91.8593645,8.83739159 93.2619047,10.2220815 93.2619047,11.930183 L93.2619047,15.4796531 C93.2619047,17.1877546 91.8593645,18.5724445 90.1292435,18.5724445 L86.0150674,18.5724445 C84.2849463,18.5724445 82.8824061,17.1877546 82.8824061,15.4796531 L82.8824061,6.32786885 Z M90.1292435,10.3101494 L86.0150674,10.3101494 C85.1088135,10.3101494 84.3741496,11.0354631 84.3741496,11.930183 L84.3741496,15.4796531 C84.3741496,16.3743729 85.1088135,17.0996867 86.0150674,17.0996867 L90.1292435,17.0996867 C91.0354974,17.0996867 91.7701613,16.3743729 91.7701613,15.4796531 L91.7701613,11.930183 C91.7701613,11.0354631 91.0354974,10.3101494 90.1292435,10.3101494 Z M98.754183,8.83739159 L102.868359,8.83739159 C104.59848,8.83739159 106.00102,10.2220815 106.00102,11.930183 L106.00102,15.4796531 C106.00102,17.1877546 104.59848,18.5724445 102.868359,18.5724445 L98.754183,18.5724445 C97.024062,18.5724445 95.6215218,17.1877546 95.6215218,15.4796531 L95.6215218,11.930183 C95.6215218,10.2220815 97.024062,8.83739159 98.754183,8.83739159 Z M102.868359,10.3101494 L98.754183,10.3101494 C97.8479292,10.3101494 97.1132653,11.0354631 97.1132653,11.930183 L97.1132653,15.4796531 C97.1132653,16.3743729 97.8479292,17.0996867 98.754183,17.0996867 L102.868359,17.0996867 C103.774613,17.0996867 104.509277,16.3743729 104.509277,15.4796531 L104.509277,11.930183 C104.509277,11.0354631 103.774613,10.3101494 102.868359,10.3101494 Z M57.1079163,11.0465283 C57.1079163,9.82645578 58.1097307,8.83739159 59.3455314,8.83739159 L65.2497997,8.83739159 C66.4856004,8.83739159 67.4874148,9.82645578 67.4874148,11.0465283 L67.4874148,12.2321602 C67.4874148,13.4522327 66.4856004,14.4412969 65.2497997,14.4412969 L58.5988006,14.44049 L58.5996597,16.3633078 C58.5996597,16.7361077 58.8802605,17.0442039 59.2443211,17.0929644 L59.3455314,17.0996867 L66.7415431,17.0996867 C67.1534767,17.0996867 67.4874148,17.4293747 67.4874148,17.8360656 C67.4874148,18.2088655 67.206814,18.5169617 66.8427535,18.5657222 L66.7415431,18.5724445 L59.3455314,18.5724445 C58.1612224,18.5724445 57.191807,17.6640852 57.1130785,16.5145588 L57.1079163,16.3633078 Z M65.2497997,10.3101494 L59.3455314,10.3101494 C58.9335979,10.3101494 58.5996597,10.6398375 58.5996597,11.0465283 L58.5997443,12.969094 L65.2497997,12.9685391 C65.6617333,12.9685391 65.9956714,12.6388511 65.9956714,12.2321602 L65.9956714,11.0465283 C65.9956714,10.6398375 65.6617333,10.3101494 65.2497997,10.3101494 Z M109.106509,5.59148995 C109.484115,5.59148995 109.796183,5.8685195 109.845572,6.2279466 L109.852381,6.32786885 L109.851801,8.83648995 L113.254128,8.83739159 C113.666062,8.83739159 114,9.16707965 114,9.57377049 C114,9.94657043 113.719399,10.2546666 113.355339,10.3034271 L113.254128,10.3101494 L109.851801,10.30949 L109.852381,15.8046755 C109.852381,16.477819 110.372593,17.0310068 111.03776,17.0937585 L111.164086,17.0996867 L113.254128,17.0996867 C113.666062,17.0996867 114,17.4293747 114,17.8360656 C114,18.2088655 113.719399,18.5169617 113.355339,18.5657222 L113.254128,18.5724445 L111.164086,18.5724445 C109.671081,18.5724445 108.450665,17.4202038 108.365397,15.9673029 L108.360638,15.8046755 L108.360638,6.32786885 C108.360638,5.92117801 108.694576,5.59148995 109.106509,5.59148995 Z" id="形状结合" fill-rule="nonzero"></path>
            </g>
        </g>
    </g>
</svg>